<svg version="1.1" xmlns="http://www.w3.org/2000/svg" viewBox="0 0 1314 332" width="1314" height="332">
  <!-- svg-source:excalidraw -->
  
  <defs>
    <style class="style-fonts">
      @font-face {
        font-family: "Virgil";
        src: url("https://excalidraw.com/Virgil.woff2");
      }
      @font-face {
        font-family: "Cascadia";
        src: url("https://excalidraw.com/Cascadia.woff2");
      }
      @font-face {
        font-family: "Assistant";
        src: url("https://excalidraw.com/Assistant-Regular.woff2");
      }
    </style>
    
  </defs>
  <g stroke-linecap="round" transform="translate(827 10) rotate(0 238.5 156)"><path d="M32 0 C181.82 -1, 331.98 -1.13, 445 0 M32 0 C115.77 0.26, 200.46 0.08, 445 0 M445 0 C465.01 1.97, 476.07 11.18, 477 32 M445 0 C465.22 -2.07, 478.96 8.92, 477 32 M477 32 C474.23 105.48, 475.3 182.06, 477 280 M477 32 C477.19 120.22, 476.24 209.1, 477 280 M477 280 C477.88 302.53, 465.96 311.07, 445 312 M477 280 C475.53 302.06, 468.19 312.92, 445 312 M445 312 C350.96 310.87, 257.82 310.62, 32 312 M445 312 C283.66 314.19, 123.12 313.89, 32 312 M32 312 C11.88 311.29, 0.37 301.25, 0 280 M32 312 C12.96 309.73, -2.06 302.07, 0 280 M0 280 C1.6 220, 1.58 159.84, 0 32 M0 280 C-0.16 189.87, -0.15 99.8, 0 32 M0 32 C0.84 9.68, 11.34 -0.85, 32 0 M0 32 C-0.14 12.23, 12.48 -0.61, 32 0" stroke="#1e1e1e" stroke-width="2" fill="none"></path></g><g stroke-linecap="round" transform="translate(294 91) rotate(0 77.5 74)"><path d="M32 0 C67.33 0.8, 100.83 1.35, 123 0 M32 0 C62.79 -0.96, 93.99 -1.26, 123 0 M123 0 C145.84 -1.89, 153.14 9, 155 32 M123 0 C143.72 -2.04, 153.88 8.55, 155 32 M155 32 C156.49 61.22, 156.41 94.52, 155 116 M155 32 C155.97 50.99, 154.6 68.28, 155 116 M155 116 C153.5 137.05, 143.42 149.32, 123 148 M155 116 C155.99 139.17, 142.74 149.59, 123 148 M123 148 C103.12 147.93, 84.49 147.38, 32 148 M123 148 C96.6 149.18, 69.51 148.45, 32 148 M32 148 C11.82 148.78, -1.82 138.73, 0 116 M32 148 C10.74 146.19, 1.77 139.05, 0 116 M0 116 C1.96 95.95, 1.31 77.54, 0 32 M0 116 C-0.18 95.53, -0.02 74.9, 0 32 M0 32 C0.51 12.18, 9.78 0.09, 32 0 M0 32 C1.13 11.83, 12.34 1.14, 32 0" stroke="#1e1e1e" stroke-width="2" fill="none"></path></g><g transform="translate(323.7249984741211 152.5) rotate(0 47.775001525878906 12.5)"><text x="47.775001525878906" y="0" font-family="Virgil, Segoe UI Emoji" font-size="20px" fill="#1e1e1e" text-anchor="middle" style="white-space: pre;" direction="ltr" dominant-baseline="text-before-edge">hmi-server</text></g><g stroke-linecap="round" transform="translate(532 93) rotate(0 95 65.5)"><path d="M118.75 16.5 C133.72 27.7, 151.36 37.41, 166.25 49.5 M118.75 16.5 C133.01 26.14, 145.25 35.87, 166.25 49.5 M166.25 49.5 C188.64 67.49, 191.04 65.72, 166.25 82.5 M166.25 49.5 C187.75 64.06, 191.4 66.74, 166.25 82.5 M166.25 82.5 C151.23 91.22, 135.81 100.6, 118.75 114.5 M166.25 82.5 C149.27 93.89, 131.28 106.69, 118.75 114.5 M118.75 114.5 C95.78 132.33, 93.47 129.55, 71.25 114.5 M118.75 114.5 C94.75 131.33, 96.33 131.92, 71.25 114.5 M71.25 114.5 C53.62 101.95, 39.62 92.3, 23.75 82.5 M71.25 114.5 C56.02 103.67, 41.27 95.61, 23.75 82.5 M23.75 82.5 C-0.3 64.75, -1.81 66.12, 23.75 49.5 M23.75 82.5 C0.41 64.93, -2.07 67.14, 23.75 49.5 M23.75 49.5 C37.25 40.68, 49.76 30.53, 71.25 16.5 M23.75 49.5 C38.91 38.7, 52.81 29.57, 71.25 16.5 M71.25 16.5 C93.63 1.94, 93.68 1.37, 118.75 16.5 M71.25 16.5 C96.24 1.98, 92.76 2.15, 118.75 16.5" stroke="#1e1e1e" stroke-width="2" fill="none"></path></g><g transform="translate(586.2333335876465 145.75) rotate(0 40.766666412353516 12.5)"><text x="40.766666412353516" y="0" font-family="Virgil, Segoe UI Emoji" font-size="20px" fill="#1e1e1e" text-anchor="middle" style="white-space: pre;" direction="ltr" dominant-baseline="text-before-edge">rabbitmq</text></g><g transform="translate(859 38) rotate(0 55.80833435058594 12.5)"><text x="0" y="0" font-family="Virgil, Segoe UI Emoji" font-size="20px" fill="#1e1e1e" text-anchor="start" style="white-space: pre;" direction="ltr" dominant-baseline="text-before-edge">task-runner</text></g><g stroke-linecap="round" transform="translate(997 137) rotate(0 97 23)"><path d="M11.5 0 C75.52 -0.01, 142.29 -0.62, 182.5 0 M11.5 0 C59.88 1.55, 107.09 1.32, 182.5 0 M182.5 0 C188.75 -1.89, 194.64 5.51, 194 11.5 M182.5 0 C188.24 1.54, 192.9 1.66, 194 11.5 M194 11.5 C194.27 20.56, 195.68 24.88, 194 34.5 M194 11.5 C194.8 19.03, 193.76 25.57, 194 34.5 M194 34.5 C192.96 43.24, 190.63 47.67, 182.5 46 M194 34.5 C196.26 40.26, 190.13 48.01, 182.5 46 M182.5 46 C137.49 44.68, 89.22 46.23, 11.5 46 M182.5 46 C129.7 45.85, 77.26 47.39, 11.5 46 M11.5 46 C5.83 46.66, 1.82 44.01, 0 34.5 M11.5 46 C5.14 46.98, -2.1 42.56, 0 34.5 M0 34.5 C0.01 29.42, -1.23 21.08, 0 11.5 M0 34.5 C-0.25 28.35, 0.83 23.56, 0 11.5 M0 11.5 C-0.54 4.31, 2.26 -1.22, 11.5 0 M0 11.5 C1.2 6.05, 6.1 0.97, 11.5 0" stroke="#1e1e1e" stroke-width="2" fill="none"></path></g><g transform="translate(1019.8000030517578 147.5) rotate(0 74.19999694824219 12.5)"><text x="74.19999694824219" y="0" font-family="Virgil, Segoe UI Emoji" font-size="20px" fill="#1e1e1e" text-anchor="middle" style="white-space: pre;" direction="ltr" dominant-baseline="text-before-edge">GoLLM process</text></g><g stroke-linecap="round" transform="translate(995 193) rotate(0 98.5 23)"><path d="M11.5 0 C46.01 0.32, 83.01 -0.67, 185.5 0 M11.5 0 C63.8 0.71, 114.48 -0.12, 185.5 0 M185.5 0 C193.34 -1.36, 196.91 2.81, 197 11.5 M185.5 0 C192.36 1.64, 194.86 5.19, 197 11.5 M197 11.5 C198.56 15.9, 197.92 22.8, 197 34.5 M197 11.5 C196.73 17.57, 196.22 23.06, 197 34.5 M197 34.5 C198.81 40.71, 194.68 46.83, 185.5 46 M197 34.5 C195.31 39.98, 193.6 44.35, 185.5 46 M185.5 46 C141.7 43.07, 98.49 45.3, 11.5 46 M185.5 46 C136.86 46.38, 89.07 47.17, 11.5 46 M11.5 46 C3.84 45.25, 1.14 40.66, 0 34.5 M11.5 46 C5.27 46.58, 0.24 43.15, 0 34.5 M0 34.5 C-1.6 27.95, -1.53 25.44, 0 11.5 M0 34.5 C-0.1 29.19, -0.61 24.06, 0 11.5 M0 11.5 C-0.77 4.16, 2.67 0.91, 11.5 0 M0 11.5 C0.72 2.02, 3.28 0.1, 11.5 0" stroke="#1e1e1e" stroke-width="2" fill="none"></path></g><g transform="translate(1019.3000030517578 203.5) rotate(0 74.19999694824219 12.5)"><text x="74.19999694824219" y="0" font-family="Virgil, Segoe UI Emoji" font-size="20px" fill="#1e1e1e" text-anchor="middle" style="white-space: pre;" direction="ltr" dominant-baseline="text-before-edge">GoLLM process</text></g><g stroke-linecap="round" transform="translate(997 246) rotate(0 95 23)"><path d="M11.5 0 C58.49 0.83, 109.22 -1.77, 178.5 0 M11.5 0 C74.14 -0.35, 137.51 0.21, 178.5 0 M178.5 0 C187.1 0.33, 188.05 2.58, 190 11.5 M178.5 0 C186.28 -0.45, 188.25 2.29, 190 11.5 M190 11.5 C190.02 19.23, 192.04 30.52, 190 34.5 M190 11.5 C189.35 18.29, 189.84 25.32, 190 34.5 M190 34.5 C190.18 41.78, 186.64 46.13, 178.5 46 M190 34.5 C190.52 42.75, 185.81 47.25, 178.5 46 M178.5 46 C112.92 49.19, 47.02 46.39, 11.5 46 M178.5 46 C116.29 46.31, 52.24 45.52, 11.5 46 M11.5 46 C5.67 44.46, 1.1 43.22, 0 34.5 M11.5 46 C3.97 47.38, 1.07 40.49, 0 34.5 M0 34.5 C-0.16 30.85, -1.93 23.88, 0 11.5 M0 34.5 C0.68 27.45, -0.95 20.13, 0 11.5 M0 11.5 C0.91 3.75, 2.29 1.56, 11.5 0 M0 11.5 C0.66 1.88, 3.92 2.05, 11.5 0" stroke="#1e1e1e" stroke-width="2" fill="none"></path></g><g transform="translate(1017.8000030517578 256.5) rotate(0 74.19999694824219 12.5)"><text x="74.19999694824219" y="0" font-family="Virgil, Segoe UI Emoji" font-size="20px" fill="#1e1e1e" text-anchor="middle" style="white-space: pre;" direction="ltr" dominant-baseline="text-before-edge">GoLLM process</text></g><g stroke-linecap="round"><g transform="translate(450 160.50905955971456) rotate(0 40.03030446383275 -0.7341195963287817)"><path d="M-0.83 0.04 C12.75 -0.09, 66.83 -1.37, 80.35 -1.57 M0.93 -0.98 C14.48 -0.85, 66.44 -0.3, 79.55 -0.09" stroke="#1e1e1e" stroke-width="2" fill="none"></path></g><g transform="translate(450 160.50905955971456) rotate(0 40.03030446383275 -0.7341195963287817)"><path d="M22.49 -8.98 C17.75 -6.83, 12.76 -5.18, -0.83 0.04 M22.49 -8.98 C14.65 -6.47, 8.17 -3.46, -0.83 0.04" stroke="#1e1e1e" stroke-width="2" fill="none"></path></g><g transform="translate(450 160.50905955971456) rotate(0 40.03030446383275 -0.7341195963287817)"><path d="M22.83 8.12 C18.13 6.79, 13.07 4.95, -0.83 0.04 M22.83 8.12 C14.85 5.09, 8.26 2.56, -0.83 0.04" stroke="#1e1e1e" stroke-width="2" fill="none"></path></g><g transform="translate(450 160.50905955971456) rotate(0 40.03030446383275 -0.7341195963287817)"><path d="M55.95 8.15 C60.87 7.11, 65.43 5.25, 79.55 -0.09 M55.95 8.15 C63.28 5.02, 71.99 2.44, 79.55 -0.09" stroke="#1e1e1e" stroke-width="2" fill="none"></path></g><g transform="translate(450 160.50905955971456) rotate(0 40.03030446383275 -0.7341195963287817)"><path d="M56.17 -8.95 C60.93 -6.51, 65.45 -4.89, 79.55 -0.09 M56.17 -8.95 C63.46 -6.54, 72.1 -3.59, 79.55 -0.09" stroke="#1e1e1e" stroke-width="2" fill="none"></path></g></g><mask></mask><g stroke-linecap="round"><g transform="translate(722.9475364596494 158.18035229136586) rotate(0 46.026231770175286 0.7977639500390126)"><path d="M-0.94 -1.16 C14.25 -0.64, 76.04 1.79, 91.42 2.13 M0.77 0.85 C16.33 1.1, 78.89 0.12, 93.8 0.29" stroke="#1e1e1e" stroke-width="2" fill="none"></path></g><g transform="translate(722.9475364596494 158.18035229136586) rotate(0 46.026231770175286 0.7977639500390126)"><path d="M22.85 -8.83 C13.18 -7.6, 8.32 -5.21, -0.94 -1.16 M22.85 -8.83 C18.08 -7.84, 10.78 -5.8, -0.94 -1.16" stroke="#1e1e1e" stroke-width="2" fill="none"></path></g><g transform="translate(722.9475364596494 158.18035229136586) rotate(0 46.026231770175286 0.7977639500390126)"><path d="M22.22 8.25 C12.9 3.98, 8.24 0.85, -0.94 -1.16 M22.22 8.25 C17.5 5.1, 10.35 2.98, -0.94 -1.16" stroke="#1e1e1e" stroke-width="2" fill="none"></path></g><g transform="translate(722.9475364596494 158.18035229136586) rotate(0 46.026231770175286 0.7977639500390126)"><path d="M70.34 8.93 C76.06 5.27, 86.46 2.39, 93.8 0.29 M70.34 8.93 C76.96 6.15, 81.15 4.22, 93.8 0.29" stroke="#1e1e1e" stroke-width="2" fill="none"></path></g><g transform="translate(722.9475364596494 158.18035229136586) rotate(0 46.026231770175286 0.7977639500390126)"><path d="M70.27 -8.17 C75.87 -6.31, 86.29 -3.67, 93.8 0.29 M70.27 -8.17 C77.01 -6.79, 81.22 -4.56, 93.8 0.29" stroke="#1e1e1e" stroke-width="2" fill="none"></path></g></g><mask></mask><g stroke-linecap="round" transform="translate(10 94) rotate(0 62 64)"><path d="M31 0 C42.53 -1.6, 55.59 -1.15, 93 0 M31 0 C51.99 0.22, 72.57 -0.53, 93 0 M93 0 C112.93 0.62, 123.05 12.19, 124 31 M93 0 C115.6 1.72, 121.73 10.8, 124 31 M124 31 C125.51 52.38, 122.07 74.81, 124 97 M124 31 C124.53 54.8, 125.01 76.31, 124 97 M124 97 C125.94 115.77, 114.51 128.3, 93 128 M124 97 C124.97 119.6, 115.06 127.41, 93 128 M93 128 C81.82 129.81, 68.73 128.91, 31 128 M93 128 C78.1 127.12, 61.97 126.83, 31 128 M31 128 C10.01 127.28, 1.65 119.53, 0 97 M31 128 C9.21 130.24, 2.08 117.48, 0 97 M0 97 C-0.52 72.32, 0.49 44.02, 0 31 M0 97 C-0.85 74.59, 0.34 52.24, 0 31 M0 31 C0.5 8.35, 9.61 -0.83, 31 0 M0 31 C-0.85 11.77, 12.04 0.37, 31 0" stroke="#1e1e1e" stroke-width="2" fill="none"></path></g><g transform="translate(45 146) rotate(0 27.049999237060547 12.5)"><text x="0" y="0" font-family="Virgil, Segoe UI Emoji" font-size="20px" fill="#1e1e1e" text-anchor="start" style="white-space: pre;" direction="ltr" dominant-baseline="text-before-edge">Client</text></g><g mask="url(#mask-JeHuM993jta_xb50NSfP3)" stroke-linecap="round"><g transform="translate(137 125.42652622797164) rotate(0 77.5 -0.3230296545760325)"><path d="M0 1.12 C25.83 1.12, 129.44 0.02, 155.08 -0.34 M-1.46 0.67 C24.21 0.31, 127.91 -2.2, 154.17 -2.31" stroke="#1e1e1e" stroke-width="2" fill="none"></path></g><g transform="translate(137 125.42652622797164) rotate(0 77.5 -0.3230296545760325)"><path d="M130.81 6.61 C139.85 4.01, 145.62 -0.82, 154.17 -2.31 M130.81 6.61 C137.64 5.08, 143.34 1.86, 154.17 -2.31" stroke="#1e1e1e" stroke-width="2" fill="none"></path></g><g transform="translate(137 125.42652622797164) rotate(0 77.5 -0.3230296545760325)"><path d="M130.55 -10.49 C139.62 -7.86, 145.48 -7.47, 154.17 -2.31 M130.55 -10.49 C137.38 -7.5, 143.15 -6.2, 154.17 -2.31" stroke="#1e1e1e" stroke-width="2" fill="none"></path></g></g><mask id="mask-JeHuM993jta_xb50NSfP3"><rect x="0" y="0" fill="#fff" width="392" height="226.0725855371237"></rect><rect x="193.32500076293945" y="112.6034965733956" fill="#000" width="42.349998474121094" height="25" opacity="1"></rect></mask><g transform="translate(193.32500076293945 112.6034965733956) rotate(0 20.481507195439235 12.231676360461861)"><text x="21.174999237060547" y="0" font-family="Virgil, Segoe UI Emoji" font-size="20px" fill="#1e1e1e" text-anchor="middle" style="white-space: pre;" direction="ltr" dominant-baseline="text-before-edge">http</text></g><g mask="url(#mask-BwODVtilanVyN6eyN5qFe)" stroke-linecap="round"><g transform="translate(136 179.1797493239295) rotate(0 76 -0.5231010821964048)"><path d="M-0.26 1.18 C25.02 1.31, 126.12 0.06, 151.37 -0.17 M1.8 0.75 C27.51 0.64, 128.43 -1.35, 153.76 -1.83" stroke="#1e1e1e" stroke-width="2" fill="none"></path></g><g transform="translate(136 179.1797493239295) rotate(0 76 -0.5231010821964048)"><path d="M23.16 -7.57 C18.72 -6.3, 11.88 -4.13, -0.26 1.18 M23.16 -7.57 C15.35 -3.97, 6.47 -0.3, -0.26 1.18" stroke="#1e1e1e" stroke-width="2" fill="none"></path></g><g transform="translate(136 179.1797493239295) rotate(0 76 -0.5231010821964048)"><path d="M23.3 9.54 C18.96 6.18, 12.08 3.72, -0.26 1.18 M23.3 9.54 C15.51 6.85, 6.58 4.24, -0.26 1.18" stroke="#1e1e1e" stroke-width="2" fill="none"></path></g></g><mask id="mask-BwODVtilanVyN6eyN5qFe"><rect x="0" y="0" fill="#fff" width="388" height="280.2259514883223"></rect><rect x="193.09166717529297" y="166.15664824173314" fill="#000" width="37.81666564941406" height="25" opacity="1"></rect></mask><g transform="translate(193.09166717529297 166.15664824173314) rotate(0 19.65435000365602 12.700017465265944)"><text x="18.90833282470703" y="0" font-family="Virgil, Segoe UI Emoji" font-size="20px" fill="#1e1e1e" text-anchor="middle" style="white-space: pre;" direction="ltr" dominant-baseline="text-before-edge">SSE</text></g><g stroke-linecap="round"><g transform="translate(906 80) rotate(0 44 39.20458381664733)"><path d="M0.8 -0.61 C1.74 12.11, -7.74 62.23, 6.79 75.41 C21.31 88.6, 74.53 78.04, 87.94 78.51 M-0.24 1.69 C0.43 14.64, -8.84 63.61, 5.73 76.64 C20.29 89.67, 73.59 79.45, 87.14 79.88" stroke="#1e1e1e" stroke-width="2" fill="none"></path></g><g transform="translate(906 80) rotate(0 44 39.20458381664733)"><path d="M8.71 23.11 C4.76 13.45, 1.67 4.34, 0.8 -0.61 M8.71 23.11 C5.53 16.37, 4.32 8.35, 0.8 -0.61" stroke="#1e1e1e" stroke-width="2" fill="none"></path></g><g transform="translate(906 80) rotate(0 44 39.20458381664733)"><path d="M-8.39 22.64 C-5.6 13.05, -1.94 4.13, 0.8 -0.61 M-8.39 22.64 C-6.3 16.08, -2.24 8.2, 0.8 -0.61" stroke="#1e1e1e" stroke-width="2" fill="none"></path></g></g><mask></mask><g stroke-linecap="round"><g transform="translate(1198.041963943288 152) rotate(0 -73.04196394328801 -54.5)"><path d="M-0.1 0.55 C9.32 -1.13, 50.34 7.58, 57.19 -9.26 C64.04 -26.11, 84.49 -83.77, 40.98 -100.53 C-2.53 -117.28, -163.35 -108.39, -203.86 -109.78 M-1.61 -0.2 C7.61 -1.78, 49.39 9.21, 56.36 -7.86 C63.33 -24.93, 83.62 -85.75, 40.22 -102.62 C-3.18 -119.49, -163.5 -108.13, -204.05 -109.08" stroke="#1e1e1e" stroke-width="2" fill="none"></path></g><g transform="translate(1198.041963943288 152) rotate(0 -73.04196394328801 -54.5)"><path d="M23.28 -8.31 C15.91 -4.77, 6.18 -1.97, -0.1 0.55 M23.28 -8.31 C16.07 -5.31, 7.6 -1.67, -0.1 0.55" stroke="#1e1e1e" stroke-width="2" fill="none"></path></g><g transform="translate(1198.041963943288 152) rotate(0 -73.04196394328801 -54.5)"><path d="M23.51 8.79 C15.93 6.21, 6.12 2.9, -0.1 0.55 M23.51 8.79 C16.34 5.98, 7.79 3.81, -0.1 0.55" stroke="#1e1e1e" stroke-width="2" fill="none"></path></g></g><mask></mask><g transform="translate(1114 51) rotate(0 45.650001525878906 12.5)"><text x="0" y="0" font-family="Virgil, Segoe UI Emoji" font-size="20px" fill="#1e1e1e" text-anchor="start" style="white-space: pre;" direction="ltr" dominant-baseline="text-before-edge">input pipe</text></g><g transform="translate(861 173) rotate(0 55.66666793823242 12.5)"><text x="0" y="0" font-family="Virgil, Segoe UI Emoji" font-size="20px" fill="#1e1e1e" text-anchor="start" style="white-space: pre;" direction="ltr" dominant-baseline="text-before-edge">output pipe</text></g></svg>