<svg width="377" height="218" viewBox="0 0 377 218" fill="none" xmlns="http://www.w3.org/2000/svg">
<path d="M4.66406 73.8936C4.54102 73.8936 4.47949 73.7876 4.47949 73.5757C4.47949 73.4731 4.49316 73.3774 4.52051 73.2886C4.55469 73.2065 4.58203 73.1553 4.60254 73.1348L5.91504 73.2373C5.375 72.6084 5.03662 72.1504 4.8999 71.8633C4.67432 71.4121 4.56152 70.9507 4.56152 70.479C4.56152 70.3901 4.56494 70.2979 4.57178 70.2021C4.68115 69.2041 5.32031 68.7051 6.48926 68.7051C7.02246 68.7051 7.92822 68.8418 9.20654 69.1152C9.60303 69.2041 9.96533 69.2622 10.2935 69.2896C10.3003 69.3101 10.3037 69.3545 10.3037 69.4229C10.3037 69.4229 10.3037 69.4639 10.3037 69.5459C10.3105 69.5801 10.314 69.6108 10.314 69.6382C10.314 69.8569 10.1499 69.9663 9.82178 69.9663C9.59619 69.9663 9.31592 69.9219 8.98096 69.833C7.88037 69.5596 7.11816 69.4229 6.69434 69.4229C6.25 69.4229 5.90137 69.5391 5.64844 69.7715C5.48438 69.9219 5.38525 70.1577 5.35107 70.479C5.35107 70.52 5.35107 70.561 5.35107 70.6021C5.35107 71.7163 5.8877 72.4478 6.96094 72.7964C7.58984 73.0015 8.34863 73.1211 9.2373 73.1553C9.64746 73.1758 10.0542 73.1929 10.4575 73.2065C10.6626 73.2817 10.7651 73.3843 10.7651 73.5142C10.7651 73.644 10.707 73.7876 10.5908 73.9448C10.1943 73.9653 9.80469 73.9756 9.42188 73.9756L5.50488 73.873C5.22461 73.873 4.94434 73.8799 4.66406 73.8936ZM6.74561 78.6719C7.55908 78.6719 8.15723 78.6274 8.54004 78.5386C8.64258 78.5933 8.69385 78.5112 8.69385 78.2925C8.69385 78.0601 8.63574 77.7593 8.51953 77.3901C8.40332 77.021 8.28711 76.7202 8.1709 76.4878C7.9043 75.9341 7.64453 75.6265 7.3916 75.5649H4.60254V74.8779C4.83496 74.7891 5.48779 74.7446 6.56104 74.7446C7.51807 74.7446 8.22217 74.7617 8.67334 74.7959C9.12451 74.8369 9.38086 74.8677 9.44238 74.8882C9.55859 75.0659 9.6167 75.2095 9.6167 75.3188C9.6167 75.4897 9.41504 75.5752 9.01172 75.5752C8.85449 75.5752 8.70068 75.5649 8.55029 75.5444C8.40674 75.5308 8.30762 75.5239 8.25293 75.5239C9.06641 76.6313 9.47314 77.4893 9.47314 78.0977C9.47314 78.7881 8.91602 79.1812 7.80176 79.2769C7.41211 79.3179 6.87207 79.3384 6.18164 79.3384L5.37158 79.3281C5.0708 79.3281 4.78027 79.335 4.5 79.3486C4.45898 79.2803 4.43848 79.2256 4.43848 79.1846C4.44531 79.1641 4.45557 79.1196 4.46924 79.0513C4.48291 78.9829 4.49316 78.894 4.5 78.7847C4.77344 78.7163 5.05029 78.6787 5.33057 78.6719C5.61768 78.665 5.88086 78.6616 6.12012 78.6616L6.74561 78.6719ZM9.31934 80.8457C8.04102 80.9346 6.56104 81.0098 4.87939 81.0713C4.66748 81.0303 4.56152 80.8662 4.56152 80.5791C4.56152 80.5039 4.5752 80.4253 4.60254 80.3433C4.63672 80.2681 4.68115 80.2202 4.73584 80.1997H9.31934V80.8457ZM10.7139 79.8921C10.9531 79.8921 11.0728 80.0322 11.0728 80.3125C11.0728 80.4971 11.0317 80.6475 10.9497 80.7637C10.8745 80.7842 10.7993 80.7944 10.7241 80.7944C10.6558 80.7944 10.5874 80.7671 10.519 80.7124C10.4507 80.6577 10.4165 80.5757 10.4165 80.4663C10.4165 80.3569 10.4404 80.2476 10.4883 80.1382C10.543 80.0288 10.6182 79.9468 10.7139 79.8921ZM5.48438 83.0605L7.125 83.0811C7.38477 83.0811 7.60693 83.0571 7.7915 83.0093V81.4199L8.49902 81.3994V82.9375H11.1445C11.2061 82.958 11.2676 82.999 11.3291 83.0605C11.4248 83.1562 11.4727 83.2349 11.4727 83.2964C11.4727 83.3647 11.4658 83.4229 11.4521 83.4707C11.4385 83.5186 11.3906 83.5698 11.3086 83.6245C10.8574 83.7339 10.1772 83.7886 9.26807 83.7886C9.04248 83.7886 8.82031 83.7988 8.60156 83.8193C8.62891 84.0381 8.64258 84.2568 8.64258 84.4756C8.64258 84.4756 8.64258 84.6533 8.64258 85.0088C8.64258 85.1387 8.64941 85.2583 8.66309 85.3677L7.9248 85.3369L7.96582 83.8398L4.42822 83.8911C4.37354 83.7681 4.34619 83.6621 4.34619 83.5732C4.34619 83.2314 4.72559 83.0605 5.48438 83.0605ZM7.14551 89.2642C7.14551 90.0161 6.9541 90.3921 6.57129 90.3921C6.28418 90.3921 5.94922 90.1836 5.56641 89.7666C4.99902 89.1445 4.54443 88.3071 4.20264 87.2544C4.20264 87.2065 4.25049 87.1519 4.34619 87.0903C4.44189 87.0356 4.51367 86.9912 4.56152 86.957C4.61621 86.9297 4.65039 86.9092 4.66406 86.8955C4.92383 87.6816 5.23828 88.3276 5.60742 88.8335C5.85352 89.1753 6.05518 89.3462 6.2124 89.3462C6.36963 89.3462 6.44824 89.1445 6.44824 88.7412C6.44824 88.3379 6.35254 87.7466 6.16113 86.9673C6.1748 86.6118 6.30127 86.3042 6.54053 86.0444C6.75244 85.8188 6.96436 85.7061 7.17627 85.7061C7.39502 85.7061 7.59326 85.7676 7.771 85.8906C7.95557 86.0137 8.12646 86.1777 8.28369 86.3828C8.44092 86.5879 8.58447 86.8271 8.71436 87.1006C9.03564 87.7705 9.19629 88.4644 9.19629 89.1821C9.19629 89.394 9.17578 89.5991 9.13477 89.7974C9.13477 89.9614 9.06299 90.0571 8.91943 90.0845C8.77588 90.1118 8.54004 90.1255 8.21191 90.1255C8.39648 89.7222 8.48877 89.2676 8.48877 88.7617C8.48877 88.1328 8.3623 87.6133 8.10938 87.2031C7.86328 86.7793 7.54199 86.5605 7.14551 86.5469C6.9541 86.5469 6.8584 86.687 6.8584 86.9673L6.94043 87.7158C7.07715 88.3584 7.14551 88.8745 7.14551 89.2642ZM6.44824 95.4883C7.25488 95.4883 7.9043 95.8369 8.39648 96.5342C8.78613 97.0879 9.02197 97.7544 9.104 98.5337C9.104 98.5747 9.104 98.6704 9.104 98.8208C9.104 98.9712 9.05957 99.1729 8.9707 99.4258C8.7793 99.9863 8.44092 100.369 7.95557 100.574C7.76416 100.656 7.6001 100.697 7.46338 100.697C7.3335 100.697 7.24121 100.694 7.18652 100.687C6.33203 100.687 5.65869 100.362 5.1665 99.7129C4.71533 99.1113 4.48975 98.3594 4.48975 97.457C4.48975 96.8076 4.64014 96.3154 4.94092 95.9805C5.2417 95.6523 5.74414 95.4883 6.44824 95.4883ZM6.20215 96.1958C5.77832 96.1958 5.49121 96.3086 5.34082 96.5342C5.23145 96.7051 5.17676 96.9922 5.17676 97.3955C5.17676 97.7988 5.20752 98.1543 5.26904 98.4619C5.33057 98.7695 5.43652 99.043 5.58691 99.2822C5.91504 99.7949 6.42432 100.051 7.11475 100.051C7.5249 100.051 7.85986 99.9419 8.11963 99.7231C8.3999 99.4839 8.54004 99.1694 8.54004 98.7798C8.49219 98.5132 8.44092 98.2432 8.38623 97.9697C8.33154 97.7031 8.22559 97.4502 8.06836 97.2109C7.7334 96.6914 7.11133 96.353 6.20215 96.1958ZM7.9248 107.024C7.9248 107.058 7.83252 107.075 7.64795 107.075C7.46338 107.075 7.33691 107.082 7.26855 107.096L6.83789 103.579L4.56152 103.763L4.60254 102.933C5.21777 102.933 5.92188 102.864 6.71484 102.728L6.20215 101.395C6.20215 101.306 6.25342 101.23 6.35596 101.169C6.53369 101.06 6.69434 101.005 6.83789 101.005L7.3916 102.563C8.56738 102.427 9.521 102.358 10.2524 102.358C10.9907 102.358 11.5649 102.42 11.9751 102.543C12.3853 102.666 12.6587 102.844 12.7954 103.076C12.939 103.315 13.0107 103.568 13.0107 103.835C13.0107 104.102 12.9526 104.372 12.8364 104.645C12.7202 104.925 12.5732 105.192 12.3955 105.445C12.2178 105.698 12.0161 105.913 11.7905 106.091C11.5718 106.269 11.3564 106.357 11.1445 106.357C10.9805 106.357 10.8643 106.34 10.7959 106.306C11.1787 106.033 11.5205 105.701 11.8213 105.312C12.1768 104.847 12.3545 104.409 12.3545 103.999C12.3545 103.609 12.0776 103.35 11.5239 103.22C11.2368 103.158 10.8301 103.127 10.3037 103.127C9.78418 103.127 9.30566 103.141 8.86816 103.168C8.4375 103.196 8.00342 103.278 7.56592 103.415C7.56592 103.838 7.60352 104.313 7.67871 104.84C7.83594 105.852 7.91797 106.58 7.9248 107.024ZM9.31934 112.5C8.04102 112.588 6.56104 112.664 4.87939 112.725C4.66748 112.684 4.56152 112.52 4.56152 112.233C4.56152 112.158 4.5752 112.079 4.60254 111.997C4.63672 111.922 4.68115 111.874 4.73584 111.854H9.31934V112.5ZM10.7139 111.546C10.9531 111.546 11.0728 111.686 11.0728 111.966C11.0728 112.151 11.0317 112.301 10.9497 112.417C10.8745 112.438 10.7993 112.448 10.7241 112.448C10.6558 112.448 10.5874 112.421 10.519 112.366C10.4507 112.312 10.4165 112.229 10.4165 112.12C10.4165 112.011 10.4404 111.901 10.4883 111.792C10.543 111.683 10.6182 111.601 10.7139 111.546ZM6.74561 117.165C7.55908 117.165 8.15723 117.121 8.54004 117.032C8.64258 117.086 8.69385 117.004 8.69385 116.786C8.69385 116.553 8.63574 116.252 8.51953 115.883C8.40332 115.514 8.28711 115.213 8.1709 114.981C7.9043 114.427 7.64453 114.12 7.3916 114.058H4.60254V113.371C4.83496 113.282 5.48779 113.238 6.56104 113.238C7.51807 113.238 8.22217 113.255 8.67334 113.289C9.12451 113.33 9.38086 113.361 9.44238 113.381C9.55859 113.559 9.6167 113.703 9.6167 113.812C9.6167 113.983 9.41504 114.068 9.01172 114.068C8.85449 114.068 8.70068 114.058 8.55029 114.038C8.40674 114.024 8.30762 114.017 8.25293 114.017C9.06641 115.125 9.47314 115.982 9.47314 116.591C9.47314 117.281 8.91602 117.674 7.80176 117.77C7.41211 117.811 6.87207 117.832 6.18164 117.832L5.37158 117.821C5.0708 117.821 4.78027 117.828 4.5 117.842C4.45898 117.773 4.43848 117.719 4.43848 117.678C4.44531 117.657 4.45557 117.613 4.46924 117.544C4.48291 117.476 4.49316 117.387 4.5 117.278C4.77344 117.209 5.05029 117.172 5.33057 117.165C5.61768 117.158 5.88086 117.155 6.12012 117.155L6.74561 117.165ZM5.48438 119.964L7.125 119.985C7.38477 119.985 7.60693 119.961 7.7915 119.913L7.7915 118.324L8.49902 118.303V119.841H11.1445C11.2061 119.862 11.2676 119.903 11.3291 119.964C11.4248 120.06 11.4727 120.139 11.4727 120.2C11.4727 120.269 11.4658 120.327 11.4521 120.375C11.4385 120.422 11.3906 120.474 11.3086 120.528C10.8574 120.638 10.1772 120.692 9.26807 120.692C9.04248 120.692 8.82031 120.703 8.60156 120.723C8.62891 120.942 8.64258 121.161 8.64258 121.379C8.64258 121.379 8.64258 121.557 8.64258 121.913C8.64258 122.042 8.64941 122.162 8.66309 122.271L7.9248 122.241L7.96582 120.744L4.42822 120.795C4.37354 120.672 4.34619 120.566 4.34619 120.477C4.34619 120.135 4.72559 119.964 5.48438 119.964ZM5.21777 124.753C5.21777 125.354 5.49121 126.26 6.03809 127.47C6.03809 127.545 6.01074 127.607 5.95605 127.655C5.9082 127.703 5.8501 127.727 5.78174 127.727C5.31689 127.453 4.95459 126.93 4.69482 126.158C4.43506 125.385 4.39063 124.664 4.56152 123.994C4.75977 123.235 5.18701 122.774 5.84326 122.61C5.97314 122.596 6.14746 122.589 6.36621 122.589C6.58496 122.589 6.87207 122.644 7.22754 122.753C7.58984 122.87 7.93164 123.064 8.25293 123.338C8.57422 123.611 8.82715 123.933 9.01172 124.302C9.19629 124.671 9.28857 125.064 9.28857 125.481C9.28857 125.877 9.15186 126.322 8.87842 126.814C8.74854 127.046 8.60156 127.231 8.4375 127.368C8.27344 127.504 8.10596 127.573 7.93506 127.573C7.88721 127.573 7.83936 127.569 7.7915 127.562C7.37451 127.549 7.11133 127.347 7.00195 126.958C6.9541 126.787 6.93018 126.588 6.93018 126.363L6.9917 124.886C6.9917 124.394 6.88574 124.018 6.67383 123.758C6.55762 123.608 6.3833 123.502 6.15088 123.44C5.52881 123.611 5.21777 124.049 5.21777 124.753ZM8.38623 126.578C8.49561 126.428 8.57422 126.271 8.62207 126.106C8.66992 125.942 8.69385 125.806 8.69385 125.696C8.69385 125.587 8.65625 125.409 8.58105 125.163C8.5127 124.917 8.43408 124.698 8.34521 124.507C8.12646 124.035 7.89746 123.799 7.6582 123.799C7.61035 124.346 7.58643 124.756 7.58643 125.03C7.58643 125.789 7.65137 126.301 7.78125 126.568C7.84961 126.732 7.93506 126.814 8.0376 126.814C8.16064 126.814 8.27686 126.735 8.38623 126.578ZM8.24268 133.376C8.44775 133.089 8.55029 132.72 8.55029 132.269C8.55029 131.845 8.47168 131.452 8.31445 131.09C8.02734 130.406 7.6582 129.938 7.20703 129.685C7.00195 129.576 6.7832 129.521 6.55078 129.521C6.50977 129.521 6.39355 129.521 6.20215 129.521C6.01758 129.521 5.76465 129.555 5.44336 129.624C5.12891 129.692 4.80762 129.726 4.47949 129.726C4.47266 129.583 4.45557 129.466 4.42822 129.377C4.40088 129.289 4.38721 129.213 4.38721 129.152C4.38721 129.09 4.41455 129.036 4.46924 128.988C4.52393 128.947 4.62988 128.899 4.78711 128.844C4.82813 128.837 4.94434 128.824 5.13574 128.803C5.32715 128.783 5.55957 128.755 5.83301 128.721C6.10645 128.694 6.40381 128.66 6.7251 128.619C7.05322 128.584 7.37451 128.55 7.68896 128.516C8.37256 128.441 8.875 128.383 9.19629 128.342C9.36035 128.342 9.44238 128.461 9.44238 128.701C9.44238 128.844 9.38086 128.957 9.25781 129.039C9.1416 129.121 9.00488 129.186 8.84766 129.234C8.69727 129.282 8.54688 129.312 8.39648 129.326C8.24609 129.347 8.14014 129.364 8.07861 129.377C8.88525 130.28 9.28857 131.401 9.28857 132.741C9.28857 132.891 9.28516 133.048 9.27832 133.212C9.28516 133.253 9.28857 133.305 9.28857 133.366C9.28857 133.428 9.24756 133.489 9.16553 133.551C9.06982 133.626 8.95361 133.664 8.81689 133.664C8.4751 133.664 8.28369 133.568 8.24268 133.376ZM5.21777 136.227C5.21777 136.829 5.49121 137.734 6.03809 138.944C6.03809 139.02 6.01074 139.081 5.95605 139.129C5.9082 139.177 5.8501 139.201 5.78174 139.201C5.31689 138.927 4.95459 138.404 4.69482 137.632C4.43506 136.859 4.39063 136.138 4.56152 135.468C4.75977 134.709 5.18701 134.248 5.84326 134.084C5.97314 134.07 6.14746 134.063 6.36621 134.063C6.58496 134.063 6.87207 134.118 7.22754 134.228C7.58984 134.344 7.93164 134.539 8.25293 134.812C8.57422 135.085 8.82715 135.407 9.01172 135.776C9.19629 136.145 9.28857 136.538 9.28857 136.955C9.28857 137.352 9.15186 137.796 8.87842 138.288C8.74854 138.521 8.60156 138.705 8.4375 138.842C8.27344 138.979 8.10596 139.047 7.93506 139.047C7.88721 139.047 7.83936 139.043 7.7915 139.037C7.37451 139.023 7.11133 138.821 7.00195 138.432C6.9541 138.261 6.93018 138.062 6.93018 137.837L6.9917 136.36C6.9917 135.868 6.88574 135.492 6.67383 135.232C6.55762 135.082 6.3833 134.976 6.15088 134.915C5.52881 135.085 5.21777 135.523 5.21777 136.227ZM8.38623 138.052C8.49561 137.902 8.57422 137.745 8.62207 137.581C8.66992 137.417 8.69385 137.28 8.69385 137.17C8.69385 137.061 8.65625 136.883 8.58105 136.637C8.5127 136.391 8.43408 136.172 8.34521 135.981C8.12646 135.509 7.89746 135.273 7.6582 135.273C7.61035 135.82 7.58643 136.23 7.58643 136.504C7.58643 137.263 7.65137 137.775 7.78125 138.042C7.84961 138.206 7.93506 138.288 8.0376 138.288C8.16064 138.288 8.27686 138.209 8.38623 138.052ZM7.14551 143.323C7.14551 144.075 6.9541 144.451 6.57129 144.451C6.28418 144.451 5.94922 144.242 5.56641 143.825C4.99902 143.203 4.54443 142.366 4.20264 141.313C4.20264 141.265 4.25049 141.21 4.34619 141.149C4.44189 141.094 4.51367 141.05 4.56152 141.016C4.61621 140.988 4.65039 140.968 4.66406 140.954C4.92383 141.74 5.23828 142.386 5.60742 142.892C5.85352 143.234 6.05518 143.405 6.2124 143.405C6.36963 143.405 6.44824 143.203 6.44824 142.8C6.44824 142.396 6.35254 141.805 6.16113 141.026C6.1748 140.67 6.30127 140.363 6.54053 140.103C6.75244 139.877 6.96436 139.765 7.17627 139.765C7.39502 139.765 7.59326 139.826 7.771 139.949C7.95557 140.072 8.12646 140.236 8.28369 140.441C8.44092 140.646 8.58447 140.886 8.71436 141.159C9.03564 141.829 9.19629 142.523 9.19629 143.241C9.19629 143.453 9.17578 143.658 9.13477 143.856C9.13477 144.02 9.06299 144.116 8.91943 144.143C8.77588 144.17 8.54004 144.184 8.21191 144.184C8.39648 143.781 8.48877 143.326 8.48877 142.82C8.48877 142.191 8.3623 141.672 8.10938 141.262C7.86328 140.838 7.54199 140.619 7.14551 140.605C6.9541 140.605 6.8584 140.746 6.8584 141.026L6.94043 141.774C7.07715 142.417 7.14551 142.933 7.14551 143.323ZM5.48438 146.635L7.125 146.655C7.38477 146.655 7.60693 146.631 7.7915 146.583V144.994L8.49902 144.974V146.512H11.1445C11.2061 146.532 11.2676 146.573 11.3291 146.635C11.4248 146.73 11.4727 146.809 11.4727 146.871C11.4727 146.939 11.4658 146.997 11.4521 147.045C11.4385 147.093 11.3906 147.144 11.3086 147.199C10.8574 147.308 10.1772 147.363 9.26807 147.363C9.04248 147.363 8.82031 147.373 8.60156 147.394C8.62891 147.612 8.64258 147.831 8.64258 148.05C8.64258 148.05 8.64258 148.228 8.64258 148.583C8.64258 148.713 8.64941 148.833 8.66309 148.942L7.9248 148.911L7.96582 147.414L4.42822 147.465C4.37354 147.342 4.34619 147.236 4.34619 147.147C4.34619 146.806 4.72559 146.635 5.48438 146.635Z" fill="#191919"/>
<g clip-path="url(#clip0_917_15945)">
<rect x="23.5" y="3.5" width="342.5" height="194" rx="6" fill="#F4F4F4"/>
<g opacity="0.3">
<g style="mix-blend-mode:plus-darker">
<path d="M26 159C31.4426 153.986 36.565 152.483 42.3277 149.474C48.0904 146.466 56.0942 144.459 64.7382 144.459C73.3823 144.459 205.284 133.429 235.699 109.863C266.113 86.2965 291.085 62.2289 317.337 57.2148C338.339 53.2036 358.53 55.5435 366 57.2148" stroke="#B1B1B1"/>
</g>
<g style="mix-blend-mode:plus-darker">
<path d="M26 159C31.4426 154.131 36.565 152.671 42.3277 149.749C48.0904 146.827 56.0942 144.879 64.7382 144.879C73.3823 144.879 205.284 134.166 235.699 111.28C266.113 88.3937 291.085 65.0204 317.337 60.1509C338.339 56.2554 358.53 58.5278 366 60.1509" stroke="#B1B1B1"/>
</g>
<g style="mix-blend-mode:plus-darker">
<path d="M26 159C31.4426 154.323 36.565 152.921 42.3277 150.115C48.0904 147.309 56.0942 145.438 64.7382 145.438C73.3823 145.438 205.284 135.15 235.699 113.17C266.113 91.19 291.085 68.7423 317.337 64.0658C338.339 60.3245 358.53 62.5069 366 64.0658" stroke="#B1B1B1"/>
</g>
<g style="mix-blend-mode:plus-darker">
<path d="M26 159C31.4426 154.564 36.565 153.235 42.3277 150.573C48.0904 147.912 56.0942 146.137 64.7382 146.137C73.3823 146.137 205.284 136.379 235.699 115.532C266.113 94.6854 291.085 73.3948 317.337 68.9593C338.339 65.4108 358.53 67.4808 366 68.9593" stroke="#B1B1B1"/>
</g>
<g style="mix-blend-mode:plus-darker">
<path d="M26 158C31.4426 153.757 36.565 152.485 42.3277 149.94C48.0904 147.394 56.0942 145.696 64.7382 145.696C73.3823 145.696 205.284 136.363 235.699 116.422C266.113 96.4816 291.085 76.1168 317.337 71.8741C338.339 68.4799 358.53 70.4599 366 71.8741" stroke="#B1B1B1"/>
</g>
</g>
<g opacity="0.3">
<g style="mix-blend-mode:plus-darker">
<path d="M26 159C31.4426 153.118 36.565 151.355 42.3277 147.826C48.0904 144.296 56.0942 141.942 64.7382 141.942C73.3823 141.942 205.284 129.003 235.699 101.358C266.113 73.7132 291.085 45.4801 317.337 39.5982C338.339 34.8926 358.53 37.6375 366 39.5982" stroke="#B1B1B1"/>
</g>
</g>
<g opacity="0.3">
<g style="mix-blend-mode:plus-darker">
<path d="M26 160C31.4426 153.877 36.565 152.041 42.3277 148.368C48.0904 144.694 56.0942 142.243 64.7382 142.243C73.3823 142.243 205.284 128.774 235.699 99.9958C266.113 71.2178 291.085 41.8276 317.337 35.7046C338.339 30.8063 358.53 33.6637 366 35.7046" stroke="#B1B1B1"/>
</g>
</g>
<g opacity="0.3">
<g style="mix-blend-mode:plus-darker">
<path d="M26 159C31.4426 152.781 36.565 150.916 42.3277 147.184C48.0904 143.453 56.0942 140.964 64.7382 140.964C73.3823 140.964 205.284 127.282 235.699 98.0508C266.113 68.8197 291.085 38.9666 317.337 32.7472C338.339 27.7717 358.53 30.6741 366 32.7472" stroke="#B1B1B1"/>
</g>
</g>
<g opacity="0.3">
<g style="mix-blend-mode:plus-darker">
<path d="M26 159C31.4426 152.54 36.565 150.603 42.3277 146.726C48.0904 142.85 56.0942 140.265 64.7382 140.265C73.3823 140.265 205.284 126.053 235.699 95.6884C266.113 65.3243 291.085 34.3142 317.337 27.8537C338.339 22.6854 358.53 25.7002 366 27.8537" stroke="#B1B1B1"/>
</g>
<g style="mix-blend-mode:plus-darker">
<path d="M26 159C31.4426 152.298 36.565 150.289 42.3277 146.269C48.0904 142.248 56.0942 139.566 64.7382 139.566C73.3823 139.566 205.284 124.823 235.699 93.3261C266.113 61.829 291.085 29.6617 317.337 22.9602C338.339 17.599 358.53 20.7264 366 22.9602" stroke="#B1B1B1"/>
</g>
<g style="mix-blend-mode:plus-darker">
<path d="M27 159C32.4426 152.106 37.565 150.039 43.3277 145.902C49.0904 141.766 57.0942 139.006 65.7382 139.006C74.3823 139.006 206.284 123.84 236.699 91.4362C267.113 59.0327 292.085 25.9397 318.337 19.0454C339.339 13.5299 359.53 16.7473 367 19.0454" stroke="#B1B1B1"/>
</g>
<g style="mix-blend-mode:plus-darker">
<path d="M28 159C33.4426 151.913 38.565 149.788 44.3277 145.536C50.0904 141.283 58.0942 138.447 66.7382 138.447C75.3823 138.447 207.284 122.856 237.699 89.5463C268.113 56.2364 293.085 22.2178 319.337 15.1306C340.339 9.4608 360.53 12.7682 368 15.1306" stroke="#B1B1B1"/>
</g>
</g>
<g opacity="0.3">
<g style="mix-blend-mode:plus-darker">
<path d="M26 159C31.4426 153.793 36.565 152.232 42.3277 149.108C48.0904 145.984 56.0942 143.9 64.7382 143.9C73.3823 143.9 205.284 132.445 235.699 107.973C266.113 83.5002 291.085 58.5069 317.337 53.3C338.339 49.1345 358.53 51.5644 366 53.3" stroke="#B1B1B1"/>
</g>
</g>
<g opacity="0.3">
<g style="mix-blend-mode:plus-darker">
<path d="M26 159C31.4426 153.6 36.565 151.981 42.3277 148.742C48.0904 145.502 56.0942 143.341 64.7382 143.341C73.3823 143.341 205.284 131.462 235.699 106.083C266.113 80.7039 291.085 54.785 317.337 49.3852C338.339 45.0654 358.53 47.5853 366 49.3852" stroke="#B1B1B1"/>
</g>
</g>
<g opacity="0.3">
<path d="M26 159C31.4426 153.359 36.565 151.668 42.3277 148.284C48.0904 144.899 56.0942 142.642 64.7382 142.642C73.3823 142.642 205.284 130.232 235.699 103.72C266.113 77.2086 291.085 50.1325 317.337 44.4917C338.339 39.979 358.53 42.6114 366 44.4917" stroke="#B1B1B1"/>
</g>
<path d="M26 159C31.4586 153.311 36.596 151.605 42.3757 148.192C48.1554 144.779 56.1827 142.502 64.8522 142.502C73.5217 142.502 205.812 129.987 236.315 103.248C266.819 76.5095 291.864 49.202 318.194 43.513C339.258 38.9617 359.508 41.6166 367 43.513" stroke="#656565" stroke-width="3"/>
<path d="M106.472 52.2773C106.308 51.9082 106.226 51.4741 106.226 50.9751C106.226 50.4761 106.304 50.0352 106.461 49.6523C106.625 49.2627 106.848 48.9277 107.128 48.6475C107.723 48.0664 108.468 47.7759 109.363 47.7759C110.3 47.7759 111.072 47.9912 111.681 48.4219C112.364 48.9141 112.706 49.6182 112.706 50.5342C112.706 51.6689 112.443 52.5063 111.917 53.0464C111.397 53.5864 110.583 53.8564 109.476 53.8564C107.938 53.8564 106.937 53.3301 106.472 52.2773ZM107.066 50.77C107.066 52.3833 107.88 53.1899 109.507 53.1899C110.307 53.1899 110.956 52.9507 111.455 52.4722C111.954 52.0005 112.204 51.3818 112.204 50.6162C112.204 49.8984 111.906 49.3516 111.312 48.9756C110.806 48.6475 110.167 48.4834 109.394 48.4834C108.779 48.4834 108.235 48.7056 107.764 49.1499C107.299 49.5942 107.066 50.1343 107.066 50.77ZM113.26 52.6362C113.26 52.5269 113.25 52.3765 113.229 52.1851C113.215 51.9868 113.202 51.7715 113.188 51.5391C113.174 51.3066 113.167 51.0708 113.167 50.8315C113.167 50.5923 113.188 50.3735 113.229 50.1753C113.318 49.731 113.502 49.5088 113.783 49.5088C113.974 49.5635 114.101 49.6318 114.162 49.7139C114.23 49.7959 114.265 49.8984 114.265 50.0215C114.265 50.1377 114.234 50.2847 114.172 50.4624C113.947 51.0571 113.834 51.5938 113.834 52.0723C113.834 52.2295 113.844 52.397 113.865 52.5747C113.974 53.0327 114.35 53.2617 114.993 53.2617C115.328 53.2617 115.646 53.2036 115.946 53.0874C116.521 52.8755 116.91 52.626 117.115 52.3389C117.177 52.0244 117.208 51.751 117.208 51.5186C117.208 51.2793 117.197 51.0674 117.177 50.8828C117.163 50.6982 117.143 50.4966 117.115 50.2778C117.095 50.0522 117.081 49.8062 117.074 49.5396C117.163 49.4985 117.249 49.478 117.331 49.478C117.419 49.478 117.508 49.5225 117.597 49.6113C117.693 49.7002 117.771 49.8677 117.833 50.1138C117.901 50.3599 117.946 50.6504 117.966 50.9854C117.987 51.3135 117.997 51.6553 117.997 52.0107C118.004 52.3662 118.007 52.7114 118.007 53.0464C118.007 53.3745 118.021 53.6582 118.048 53.8975C117.966 53.9727 117.888 54.0103 117.812 54.0103C117.539 54.0103 117.337 53.7368 117.208 53.1899C117.119 53.2651 116.968 53.3574 116.756 53.4668C116.305 53.7129 115.772 53.877 115.157 53.959C115.041 53.9727 114.911 53.9795 114.767 53.9795C114.624 53.9795 114.442 53.9521 114.224 53.8975C114.012 53.8428 113.81 53.7163 113.619 53.5181C113.427 53.3198 113.308 53.0259 113.26 52.6362ZM120.191 53.0156L120.212 51.375C120.212 51.1152 120.188 50.8931 120.14 50.7085H118.551L118.53 50.001H120.068V47.3555C120.089 47.2939 120.13 47.2324 120.191 47.1709C120.287 47.0752 120.366 47.0273 120.427 47.0273C120.496 47.0273 120.554 47.0342 120.602 47.0479C120.649 47.0615 120.701 47.1094 120.755 47.1914C120.865 47.6426 120.919 48.3228 120.919 49.2319C120.919 49.4575 120.93 49.6797 120.95 49.8984C121.169 49.8711 121.388 49.8574 121.606 49.8574C121.606 49.8574 121.784 49.8574 122.14 49.8574C122.27 49.8574 122.389 49.8506 122.499 49.8369L122.468 50.5752L120.971 50.5342L121.022 54.0718C120.899 54.1265 120.793 54.1538 120.704 54.1538C120.362 54.1538 120.191 53.7744 120.191 53.0156ZM123.873 49.8882C124.802 49.5669 125.605 49.4062 126.282 49.4062C127.144 49.4062 127.718 49.6318 128.005 50.083C128.135 50.2949 128.2 50.5239 128.2 50.77C128.2 51.1118 128.09 51.4639 127.872 51.8262C127.66 52.1885 127.376 52.5166 127.021 52.8105C126.193 53.4873 125.188 53.9077 124.006 54.0718C124.006 54.147 124.006 54.2666 124.006 54.4307C124.013 54.6016 124.016 54.7896 124.016 54.9946C124.023 55.1997 124.026 55.4185 124.026 55.6509C124.033 55.8833 124.04 56.1055 124.047 56.3174C124.067 56.8438 124.081 57.1445 124.088 57.2197C124.102 57.2949 124.108 57.3564 124.108 57.4043C124.108 57.5752 124.054 57.7017 123.944 57.7837C123.835 57.8726 123.691 57.917 123.514 57.917C123.479 57.917 123.445 57.917 123.411 57.917L123.247 49.6729C123.309 49.584 123.391 49.543 123.493 49.5498C123.596 49.5566 123.678 49.584 123.739 49.6318C123.801 49.6797 123.845 49.7651 123.873 49.8882ZM126.867 50.2471C126.641 50.1309 126.398 50.0728 126.139 50.0728C125.886 50.0728 125.633 50.0967 125.38 50.1445C124.806 50.2539 124.382 50.4966 124.108 50.8726C123.985 51.0503 123.924 51.269 123.924 51.5288C123.924 51.5562 123.924 51.5835 123.924 51.6108V53.3848C125.332 53.0703 126.33 52.6328 126.918 52.0723C127.26 51.751 127.431 51.4194 127.431 51.0776C127.431 50.7153 127.243 50.4385 126.867 50.2471ZM128.682 52.6362C128.682 52.5269 128.671 52.3765 128.651 52.1851C128.637 51.9868 128.624 51.7715 128.61 51.5391C128.596 51.3066 128.589 51.0708 128.589 50.8315C128.589 50.5923 128.61 50.3735 128.651 50.1753C128.74 49.731 128.924 49.5088 129.205 49.5088C129.396 49.5635 129.522 49.6318 129.584 49.7139C129.652 49.7959 129.687 49.8984 129.687 50.0215C129.687 50.1377 129.656 50.2847 129.594 50.4624C129.369 51.0571 129.256 51.5938 129.256 52.0723C129.256 52.2295 129.266 52.397 129.287 52.5747C129.396 53.0327 129.772 53.2617 130.415 53.2617C130.75 53.2617 131.067 53.2036 131.368 53.0874C131.942 52.8755 132.332 52.626 132.537 52.3389C132.599 52.0244 132.629 51.751 132.629 51.5186C132.629 51.2793 132.619 51.0674 132.599 50.8828C132.585 50.6982 132.564 50.4966 132.537 50.2778C132.517 50.0522 132.503 49.8062 132.496 49.5396C132.585 49.4985 132.67 49.478 132.752 49.478C132.841 49.478 132.93 49.5225 133.019 49.6113C133.115 49.7002 133.193 49.8677 133.255 50.1138C133.323 50.3599 133.368 50.6504 133.388 50.9854C133.409 51.3135 133.419 51.6553 133.419 52.0107C133.426 52.3662 133.429 52.7114 133.429 53.0464C133.429 53.3745 133.443 53.6582 133.47 53.8975C133.388 53.9727 133.31 54.0103 133.234 54.0103C132.961 54.0103 132.759 53.7368 132.629 53.1899C132.541 53.2651 132.39 53.3574 132.178 53.4668C131.727 53.7129 131.194 53.877 130.579 53.959C130.462 53.9727 130.333 53.9795 130.189 53.9795C130.045 53.9795 129.864 53.9521 129.646 53.8975C129.434 53.8428 129.232 53.7163 129.041 53.5181C128.849 53.3198 128.729 53.0259 128.682 52.6362ZM135.613 53.0156L135.634 51.375C135.634 51.1152 135.61 50.8931 135.562 50.7085H133.973L133.952 50.001H135.49V47.3555C135.511 47.2939 135.552 47.2324 135.613 47.1709C135.709 47.0752 135.788 47.0273 135.849 47.0273C135.917 47.0273 135.976 47.0342 136.023 47.0479C136.071 47.0615 136.123 47.1094 136.177 47.1914C136.287 47.6426 136.341 48.3228 136.341 49.2319C136.341 49.4575 136.352 49.6797 136.372 49.8984C136.591 49.8711 136.81 49.8574 137.028 49.8574C137.028 49.8574 137.206 49.8574 137.562 49.8574C137.691 49.8574 137.811 49.8506 137.92 49.8369L137.89 50.5752L136.393 50.5342L136.444 54.0718C136.321 54.1265 136.215 54.1538 136.126 54.1538C135.784 54.1538 135.613 53.7744 135.613 53.0156ZM146.544 52.2979C146.031 53.1045 145.348 53.6035 144.493 53.7949C144.295 53.8359 144.114 53.8564 143.95 53.8564C143.792 53.8564 143.659 53.8564 143.55 53.8564C143.447 53.8496 143.331 53.8325 143.201 53.8052C143.071 53.7778 142.952 53.7334 142.842 53.6719C142.589 53.5283 142.463 53.3267 142.463 53.0669C142.436 52.9438 142.422 52.8071 142.422 52.6567C142.422 52.4995 142.456 52.2944 142.524 52.0415C142.593 51.7886 142.716 51.5151 142.894 51.2212C143.078 50.9272 143.3 50.6572 143.56 50.4111C144.1 49.8916 144.685 49.5566 145.313 49.4062C145.498 49.3652 145.666 49.3447 145.816 49.3447C145.973 49.3447 146.113 49.355 146.236 49.3755C146.633 49.3755 146.899 49.6455 147.036 50.1855C147.125 50.5273 147.176 51.0059 147.19 51.6211C147.21 52.2295 147.228 52.7012 147.241 53.0361C147.262 53.3643 147.306 53.665 147.375 53.9385H146.77C146.742 53.7539 146.722 53.5898 146.708 53.4463C146.694 53.3027 146.681 53.1694 146.667 53.0464C146.633 52.7593 146.592 52.5098 146.544 52.2979ZM146.503 50.7085C146.503 50.312 146.308 50.1138 145.918 50.1138C145.871 50.1069 145.823 50.1035 145.775 50.1035C145.276 50.1035 144.75 50.3428 144.196 50.8213C143.936 51.04 143.714 51.2861 143.529 51.5596C143.256 51.9492 143.119 52.2979 143.119 52.6055C143.119 53.0088 143.352 53.248 143.816 53.3232C144.432 53.3096 145.02 53.0293 145.58 52.4824C145.819 52.2432 146.018 51.9834 146.175 51.7031C146.394 51.3271 146.503 50.9956 146.503 50.7085ZM153.742 50.5752C153.776 50.5752 153.793 50.6675 153.793 50.8521C153.793 51.0366 153.8 51.1631 153.814 51.2314L150.297 51.6621L150.481 53.9385L149.651 53.8975C149.651 53.2822 149.583 52.5781 149.446 51.7852L148.113 52.2979C148.024 52.2979 147.949 52.2466 147.887 52.144C147.778 51.9663 147.723 51.8057 147.723 51.6621L149.282 51.1084C149.145 49.9326 149.077 48.979 149.077 48.2476C149.077 47.5093 149.138 46.9351 149.261 46.5249C149.384 46.1147 149.562 45.8413 149.794 45.7046C150.034 45.561 150.287 45.4893 150.553 45.4893C150.82 45.4893 151.09 45.5474 151.363 45.6636C151.644 45.7798 151.91 45.9268 152.163 46.1045C152.416 46.2822 152.631 46.4839 152.809 46.7095C152.987 46.9282 153.076 47.1436 153.076 47.3555C153.076 47.5195 153.059 47.6357 153.024 47.7041C152.751 47.3213 152.419 46.9795 152.03 46.6787C151.565 46.3232 151.127 46.1455 150.717 46.1455C150.328 46.1455 150.068 46.4224 149.938 46.9761C149.876 47.2632 149.846 47.6699 149.846 48.1963C149.846 48.7158 149.859 49.1943 149.887 49.6318C149.914 50.0625 149.996 50.4966 150.133 50.9341C150.557 50.9341 151.032 50.8965 151.558 50.8213C152.57 50.6641 153.298 50.582 153.742 50.5752ZM155.639 53.0156L155.66 51.375C155.66 51.1152 155.636 50.8931 155.588 50.7085H153.999L153.978 50.001H155.516V47.3555C155.537 47.2939 155.578 47.2324 155.639 47.1709C155.735 47.0752 155.813 47.0273 155.875 47.0273C155.943 47.0273 156.001 47.0342 156.049 47.0479C156.097 47.0615 156.148 47.1094 156.203 47.1914C156.312 47.6426 156.367 48.3228 156.367 49.2319C156.367 49.4575 156.377 49.6797 156.398 49.8984C156.617 49.8711 156.835 49.8574 157.054 49.8574C157.054 49.8574 157.232 49.8574 157.587 49.8574C157.717 49.8574 157.837 49.8506 157.946 49.8369L157.916 50.5752L156.418 50.5342L156.47 54.0718C156.347 54.1265 156.241 54.1538 156.152 54.1538C155.81 54.1538 155.639 53.7744 155.639 53.0156ZM160.428 53.2822C161.029 53.2822 161.935 53.0088 163.145 52.4619C163.22 52.4619 163.282 52.4893 163.33 52.5439C163.377 52.5918 163.401 52.6499 163.401 52.7183C163.128 53.1831 162.605 53.5454 161.833 53.8052C161.06 54.0649 160.339 54.1094 159.669 53.9385C158.91 53.7402 158.449 53.313 158.285 52.6567C158.271 52.5269 158.264 52.3525 158.264 52.1338C158.264 51.915 158.319 51.6279 158.428 51.2725C158.544 50.9102 158.739 50.5684 159.013 50.2471C159.286 49.9258 159.607 49.6729 159.977 49.4883C160.346 49.3037 160.739 49.2114 161.156 49.2114C161.552 49.2114 161.997 49.3481 162.489 49.6216C162.721 49.7515 162.906 49.8984 163.042 50.0625C163.179 50.2266 163.248 50.394 163.248 50.5649C163.248 50.6128 163.244 50.6606 163.237 50.7085C163.224 51.1255 163.022 51.3887 162.632 51.498C162.461 51.5459 162.263 51.5698 162.038 51.5698L160.561 51.5083C160.069 51.5083 159.693 51.6143 159.433 51.8262C159.283 51.9424 159.177 52.1167 159.115 52.3491C159.286 52.9712 159.724 53.2822 160.428 53.2822ZM162.253 50.1138C162.103 50.0044 161.945 49.9258 161.781 49.8779C161.617 49.8301 161.48 49.8062 161.371 49.8062C161.262 49.8062 161.084 49.8438 160.838 49.9189C160.592 49.9873 160.373 50.0659 160.182 50.1548C159.71 50.3735 159.474 50.6025 159.474 50.8418C160.021 50.8896 160.431 50.9136 160.705 50.9136C161.463 50.9136 161.976 50.8486 162.243 50.7188C162.407 50.6504 162.489 50.5649 162.489 50.4624C162.489 50.3394 162.41 50.2231 162.253 50.1138ZM169.051 50.2573C168.764 50.0522 168.395 49.9497 167.944 49.9497C167.52 49.9497 167.127 50.0283 166.765 50.1855C166.081 50.4727 165.613 50.8418 165.36 51.293C165.25 51.498 165.196 51.7168 165.196 51.9492C165.196 51.9902 165.196 52.1064 165.196 52.2979C165.196 52.4824 165.23 52.7354 165.298 53.0566C165.367 53.3711 165.401 53.6924 165.401 54.0205C165.257 54.0273 165.141 54.0444 165.052 54.0718C164.963 54.0991 164.888 54.1128 164.827 54.1128C164.765 54.1128 164.71 54.0854 164.663 54.0308C164.622 53.9761 164.574 53.8701 164.519 53.7129C164.512 53.6719 164.499 53.5557 164.478 53.3643C164.458 53.1729 164.43 52.9404 164.396 52.667C164.369 52.3936 164.334 52.0962 164.293 51.7749C164.259 51.4468 164.225 51.1255 164.191 50.811C164.116 50.1274 164.058 49.625 164.017 49.3037C164.017 49.1396 164.136 49.0576 164.375 49.0576C164.519 49.0576 164.632 49.1191 164.714 49.2422C164.796 49.3584 164.861 49.4951 164.909 49.6523C164.957 49.8027 164.987 49.9531 165.001 50.1035C165.021 50.2539 165.039 50.3599 165.052 50.4214C165.955 49.6147 167.076 49.2114 168.416 49.2114C168.566 49.2114 168.723 49.2148 168.887 49.2217C168.928 49.2148 168.979 49.2114 169.041 49.2114C169.103 49.2114 169.164 49.2524 169.226 49.3345C169.301 49.4302 169.338 49.5464 169.338 49.6831C169.338 50.0249 169.243 50.2163 169.051 50.2573ZM178.157 52.9233C178.437 52.8071 178.71 52.7012 178.977 52.6055C179.244 52.5098 179.497 52.4619 179.736 52.4619C179.982 52.4619 180.105 52.5371 180.105 52.6875C180.105 52.7217 180.095 52.7764 180.074 52.8516C180.061 52.9199 179.968 53.0054 179.797 53.1079C179.633 53.2036 179.428 53.2959 179.182 53.3848C178.943 53.4736 178.68 53.5557 178.393 53.6309C178.105 53.7061 177.825 53.771 177.552 53.8257C176.984 53.9419 176.581 54 176.342 54C176.103 54 175.843 53.9727 175.562 53.918C175.289 53.8633 175.033 53.7744 174.793 53.6514C174.24 53.3643 173.963 52.9404 173.963 52.3799C173.963 52.3389 173.963 52.2568 173.963 52.1338C173.963 52.0107 174.014 51.8364 174.117 51.6108C174.219 51.3784 174.373 51.1494 174.578 50.9238C174.783 50.6914 175.022 50.4795 175.296 50.2881C175.87 49.8779 176.472 49.6113 177.101 49.4883C177.319 49.4404 177.5 49.4165 177.644 49.4165C177.794 49.4165 177.917 49.4199 178.013 49.4268C178.109 49.4268 178.208 49.4336 178.311 49.4473C178.413 49.4541 178.502 49.478 178.577 49.519C178.755 49.6079 178.844 49.7822 178.844 50.042C178.844 50.2061 178.728 50.3667 178.495 50.5239C178.434 50.5649 178.379 50.6025 178.331 50.6367C178.297 50.4795 178.252 50.3462 178.198 50.2368C178.143 50.1274 178.023 50.0728 177.839 50.0728C177.032 50.2437 176.338 50.5 175.757 50.8418C175.101 51.2314 174.773 51.6416 174.773 52.0723C174.773 52.1201 174.776 52.1714 174.783 52.2261C174.783 52.6636 174.951 52.9746 175.286 53.1592C175.539 53.2959 175.863 53.3643 176.26 53.3643C176.663 53.3643 177.012 53.3198 177.306 53.231C177.6 53.1353 177.883 53.0327 178.157 52.9233ZM184.688 52.2979C184.176 53.1045 183.492 53.6035 182.638 53.7949C182.439 53.8359 182.258 53.8564 182.094 53.8564C181.937 53.8564 181.804 53.8564 181.694 53.8564C181.592 53.8496 181.476 53.8325 181.346 53.8052C181.216 53.7778 181.096 53.7334 180.987 53.6719C180.734 53.5283 180.607 53.3267 180.607 53.0669C180.58 52.9438 180.566 52.8071 180.566 52.6567C180.566 52.4995 180.601 52.2944 180.669 52.0415C180.737 51.7886 180.86 51.5151 181.038 51.2212C181.223 50.9272 181.445 50.6572 181.705 50.4111C182.245 49.8916 182.829 49.5566 183.458 49.4062C183.643 49.3652 183.81 49.3447 183.96 49.3447C184.118 49.3447 184.258 49.355 184.381 49.3755C184.777 49.3755 185.044 49.6455 185.181 50.1855C185.27 50.5273 185.321 51.0059 185.334 51.6211C185.355 52.2295 185.372 52.7012 185.386 53.0361C185.406 53.3643 185.451 53.665 185.519 53.9385H184.914C184.887 53.7539 184.866 53.5898 184.853 53.4463C184.839 53.3027 184.825 53.1694 184.812 53.0464C184.777 52.7593 184.736 52.5098 184.688 52.2979ZM184.647 50.7085C184.647 50.312 184.453 50.1138 184.063 50.1138C184.015 50.1069 183.967 50.1035 183.919 50.1035C183.42 50.1035 182.894 50.3428 182.34 50.8213C182.081 51.04 181.858 51.2861 181.674 51.5596C181.4 51.9492 181.264 52.2979 181.264 52.6055C181.264 53.0088 181.496 53.248 181.961 53.3232C182.576 53.3096 183.164 53.0293 183.725 52.4824C183.964 52.2432 184.162 51.9834 184.319 51.7031C184.538 51.3271 184.647 50.9956 184.647 50.7085ZM186.186 50.0215C186.172 49.6523 186.158 49.3242 186.145 49.0371C186.131 48.7432 186.121 48.5278 186.114 48.3911C186.114 48.2476 186.059 47.9023 185.95 47.3555C186.011 47.2734 186.069 47.1948 186.124 47.1196C186.186 47.0444 186.271 47.0068 186.38 47.0068C186.62 47.0068 186.804 48.0151 186.934 50.0317C187.002 51.2007 187.037 52.3696 187.037 53.5386C187.037 53.853 186.818 54.0103 186.38 54.0103L186.298 54C186.298 53.6445 186.288 53.1899 186.268 52.6362C186.247 52.0825 186.23 51.6006 186.216 51.1904C186.209 50.7803 186.199 50.3906 186.186 50.0215ZM188.575 49.1807C188.664 50.459 188.739 51.939 188.8 53.6206C188.759 53.8325 188.595 53.9385 188.308 53.9385C188.233 53.9385 188.154 53.9248 188.072 53.8975C187.997 53.8633 187.949 53.8188 187.929 53.7642V49.1807H188.575ZM187.621 47.7861C187.621 47.5469 187.761 47.4272 188.042 47.4272C188.226 47.4272 188.376 47.4683 188.493 47.5503C188.513 47.6255 188.523 47.7007 188.523 47.7759C188.523 47.8442 188.496 47.9126 188.441 47.981C188.387 48.0493 188.305 48.0835 188.195 48.0835C188.086 48.0835 187.977 48.0596 187.867 48.0117C187.758 47.957 187.676 47.8818 187.621 47.7861ZM189.303 48.0527L189.272 46.73C189.272 46.6206 189.31 46.5352 189.385 46.4736C189.46 46.4121 189.552 46.3813 189.662 46.3813C189.771 46.3813 189.87 46.4121 189.959 46.4736C190.048 46.5283 190.082 46.6069 190.062 46.7095L190.133 51.1392C190.564 50.5649 191.145 50.083 191.876 49.6934C192.485 49.3652 193.018 49.2012 193.476 49.2012C193.879 49.2012 194.19 49.3311 194.409 49.5908C194.573 49.7959 194.655 50.0693 194.655 50.4111C194.655 50.7461 194.59 51.04 194.46 51.293C194.337 51.5391 194.173 51.7783 193.968 52.0107C193.763 52.2363 193.527 52.4482 193.261 52.6465C192.994 52.8447 192.724 53.0225 192.451 53.1797C191.931 53.4805 191.418 53.73 190.913 53.9282C190.872 53.9146 190.803 53.9111 190.708 53.918C190.612 53.9248 190.496 53.9282 190.359 53.9282C189.99 53.9282 189.665 53.8838 189.385 53.7949C189.316 53.1455 189.282 52.1577 189.282 50.8315L189.303 48.0527ZM190.164 53.0874C190.164 53.1626 190.232 53.2002 190.369 53.2002C190.513 53.2002 190.687 53.1729 190.892 53.1182C191.097 53.0635 191.343 52.9712 191.63 52.8413C191.924 52.7046 192.218 52.5303 192.512 52.3184C193.196 51.833 193.712 51.2622 194.061 50.606C193.972 50.2163 193.705 50.0215 193.261 50.0215C192.857 50.0215 192.403 50.1719 191.897 50.4727C191.179 50.9033 190.667 51.4365 190.359 52.0723C190.229 52.3252 190.164 52.5815 190.164 52.8413C190.164 52.9097 190.164 52.9644 190.164 53.0054C190.164 53.0464 190.164 53.0737 190.164 53.0874ZM200.172 50.2573C199.885 50.0522 199.516 49.9497 199.064 49.9497C198.641 49.9497 198.248 50.0283 197.885 50.1855C197.202 50.4727 196.733 50.8418 196.48 51.293C196.371 51.498 196.316 51.7168 196.316 51.9492C196.316 51.9902 196.316 52.1064 196.316 52.2979C196.316 52.4824 196.351 52.7354 196.419 53.0566C196.487 53.3711 196.521 53.6924 196.521 54.0205C196.378 54.0273 196.262 54.0444 196.173 54.0718C196.084 54.0991 196.009 54.1128 195.947 54.1128C195.886 54.1128 195.831 54.0854 195.783 54.0308C195.742 53.9761 195.694 53.8701 195.64 53.7129C195.633 53.6719 195.619 53.5557 195.599 53.3643C195.578 53.1729 195.551 52.9404 195.517 52.667C195.489 52.3936 195.455 52.0962 195.414 51.7749C195.38 51.4468 195.346 51.1255 195.312 50.811C195.236 50.1274 195.178 49.625 195.137 49.3037C195.137 49.1396 195.257 49.0576 195.496 49.0576C195.64 49.0576 195.752 49.1191 195.834 49.2422C195.917 49.3584 195.981 49.4951 196.029 49.6523C196.077 49.8027 196.108 49.9531 196.122 50.1035C196.142 50.2539 196.159 50.3599 196.173 50.4214C197.075 49.6147 198.196 49.2114 199.536 49.2114C199.687 49.2114 199.844 49.2148 200.008 49.2217C200.049 49.2148 200.1 49.2114 200.162 49.2114C200.223 49.2114 200.285 49.2524 200.346 49.3345C200.421 49.4302 200.459 49.5464 200.459 49.6831C200.459 50.0249 200.363 50.2163 200.172 50.2573ZM204.96 52.2979C204.448 53.1045 203.764 53.6035 202.91 53.7949C202.711 53.8359 202.53 53.8564 202.366 53.8564C202.209 53.8564 202.076 53.8564 201.966 53.8564C201.864 53.8496 201.748 53.8325 201.618 53.8052C201.488 53.7778 201.368 53.7334 201.259 53.6719C201.006 53.5283 200.879 53.3267 200.879 53.0669C200.852 52.9438 200.838 52.8071 200.838 52.6567C200.838 52.4995 200.873 52.2944 200.941 52.0415C201.009 51.7886 201.132 51.5151 201.31 51.2212C201.495 50.9272 201.717 50.6572 201.977 50.4111C202.517 49.8916 203.101 49.5566 203.73 49.4062C203.915 49.3652 204.082 49.3447 204.232 49.3447C204.39 49.3447 204.53 49.355 204.653 49.3755C205.049 49.3755 205.316 49.6455 205.453 50.1855C205.542 50.5273 205.593 51.0059 205.606 51.6211C205.627 52.2295 205.644 52.7012 205.658 53.0361C205.678 53.3643 205.723 53.665 205.791 53.9385H205.186C205.159 53.7539 205.138 53.5898 205.125 53.4463C205.111 53.3027 205.097 53.1694 205.083 53.0464C205.049 52.7593 205.008 52.5098 204.96 52.2979ZM204.919 50.7085C204.919 50.312 204.725 50.1138 204.335 50.1138C204.287 50.1069 204.239 50.1035 204.191 50.1035C203.692 50.1035 203.166 50.3428 202.612 50.8213C202.353 51.04 202.13 51.2861 201.946 51.5596C201.672 51.9492 201.536 52.2979 201.536 52.6055C201.536 53.0088 201.768 53.248 202.233 53.3232C202.848 53.3096 203.436 53.0293 203.997 52.4824C204.236 52.2432 204.434 51.9834 204.591 51.7031C204.81 51.3271 204.919 50.9956 204.919 50.7085ZM207.821 53.0156L207.842 51.375C207.842 51.1152 207.818 50.8931 207.77 50.7085H206.181L206.16 50.001H207.698V47.3555C207.719 47.2939 207.76 47.2324 207.821 47.1709C207.917 47.0752 207.996 47.0273 208.057 47.0273C208.125 47.0273 208.184 47.0342 208.231 47.0479C208.279 47.0615 208.331 47.1094 208.385 47.1914C208.495 47.6426 208.549 48.3228 208.549 49.2319C208.549 49.4575 208.56 49.6797 208.58 49.8984C208.799 49.8711 209.018 49.8574 209.236 49.8574C209.236 49.8574 209.414 49.8574 209.77 49.8574C209.899 49.8574 210.019 49.8506 210.128 49.8369L210.098 50.5752L208.601 50.5342L208.652 54.0718C208.529 54.1265 208.423 54.1538 208.334 54.1538C207.992 54.1538 207.821 53.7744 207.821 53.0156ZM211.441 49.1807C211.53 50.459 211.605 51.939 211.667 53.6206C211.625 53.8325 211.461 53.9385 211.174 53.9385C211.099 53.9385 211.021 53.9248 210.938 53.8975C210.863 53.8633 210.815 53.8188 210.795 53.7642V49.1807H211.441ZM210.487 47.7861C210.487 47.5469 210.627 47.4272 210.908 47.4272C211.092 47.4272 211.243 47.4683 211.359 47.5503C211.379 47.6255 211.39 47.7007 211.39 47.7759C211.39 47.8442 211.362 47.9126 211.308 47.981C211.253 48.0493 211.171 48.0835 211.062 48.0835C210.952 48.0835 210.843 48.0596 210.733 48.0117C210.624 47.957 210.542 47.8818 210.487 47.7861ZM212.364 52.0518C212.364 51.2451 212.712 50.5957 213.41 50.1035C213.963 49.7139 214.63 49.478 215.409 49.396C215.45 49.396 215.546 49.396 215.696 49.396C215.847 49.396 216.048 49.4404 216.301 49.5293C216.862 49.7207 217.245 50.0591 217.45 50.5444C217.532 50.7358 217.573 50.8999 217.573 51.0366C217.573 51.1665 217.569 51.2588 217.562 51.3135C217.562 52.168 217.238 52.8413 216.588 53.3335C215.987 53.7847 215.235 54.0103 214.333 54.0103C213.683 54.0103 213.191 53.8599 212.856 53.5591C212.528 53.2583 212.364 52.7559 212.364 52.0518ZM213.071 52.2979C213.071 52.7217 213.184 53.0088 213.41 53.1592C213.581 53.2686 213.868 53.3232 214.271 53.3232C214.674 53.3232 215.03 53.2925 215.337 53.231C215.645 53.1694 215.918 53.0635 216.158 52.9131C216.67 52.585 216.927 52.0757 216.927 51.3853C216.927 50.9751 216.817 50.6401 216.599 50.3804C216.359 50.1001 216.045 49.96 215.655 49.96C215.389 50.0078 215.119 50.0591 214.845 50.1138C214.579 50.1685 214.326 50.2744 214.086 50.4316C213.567 50.7666 213.229 51.3887 213.071 52.2979ZM222.013 51.7544C222.013 50.9409 221.968 50.3428 221.879 49.96C221.934 49.8574 221.852 49.8062 221.633 49.8062C221.401 49.8062 221.1 49.8643 220.731 49.9805C220.362 50.0967 220.061 50.2129 219.829 50.3291C219.275 50.5957 218.967 50.8555 218.906 51.1084V53.8975H218.219C218.13 53.665 218.085 53.0122 218.085 51.939C218.085 50.9819 218.103 50.2778 218.137 49.8267C218.178 49.3755 218.208 49.1191 218.229 49.0576C218.407 48.9414 218.55 48.8833 218.66 48.8833C218.831 48.8833 218.916 49.085 218.916 49.4883C218.916 49.6455 218.906 49.7993 218.885 49.9497C218.872 50.0933 218.865 50.1924 218.865 50.2471C219.972 49.4336 220.83 49.0269 221.438 49.0269C222.129 49.0269 222.522 49.584 222.618 50.6982C222.659 51.0879 222.679 51.6279 222.679 52.3184L222.669 53.1284C222.669 53.4292 222.676 53.7197 222.689 54C222.621 54.041 222.566 54.0615 222.525 54.0615C222.505 54.0547 222.46 54.0444 222.392 54.0308C222.324 54.0171 222.235 54.0068 222.125 54C222.057 53.7266 222.02 53.4497 222.013 53.1694C222.006 52.8823 222.002 52.6191 222.002 52.3799L222.013 51.7544Z" fill="#191919"/>
<circle cx="27" cy="159" r="3.5" fill="#191919" stroke="white"/>
<circle cx="43" cy="150" r="3.5" fill="#191919" stroke="white"/>
<circle cx="59" cy="145" r="3.5" fill="#191919" stroke="white"/>
<circle cx="75" cy="143" r="3.5" fill="#191919" stroke="white"/>
<circle cx="91" cy="141" r="3.5" fill="#191919" stroke="white"/>
<circle cx="107" cy="139" r="3.5" fill="#191919" stroke="white"/>
<circle cx="123" cy="137" r="3.5" fill="#191919" stroke="white"/>
<circle cx="139" cy="135" r="3.5" fill="#191919" stroke="white"/>
<circle cx="155" cy="132" r="3.5" fill="#191919" stroke="white"/>
<circle cx="171" cy="129" r="3.5" fill="#191919" stroke="white"/>
<circle cx="187" cy="126" r="3.5" fill="#191919" stroke="white"/>
<circle cx="203" cy="121" r="3.5" fill="#191919" stroke="white"/>
<path d="M253.972 153.777C253.808 153.408 253.726 152.974 253.726 152.475C253.726 151.976 253.804 151.535 253.961 151.152C254.125 150.763 254.348 150.428 254.628 150.147C255.223 149.566 255.968 149.276 256.863 149.276C257.8 149.276 258.572 149.491 259.181 149.922C259.864 150.414 260.206 151.118 260.206 152.034C260.206 153.169 259.943 154.006 259.417 154.546C258.897 155.086 258.083 155.356 256.976 155.356C255.438 155.356 254.437 154.83 253.972 153.777ZM254.566 152.27C254.566 153.883 255.38 154.69 257.007 154.69C257.807 154.69 258.456 154.451 258.955 153.972C259.454 153.5 259.704 152.882 259.704 152.116C259.704 151.398 259.406 150.852 258.812 150.476C258.306 150.147 257.667 149.983 256.894 149.983C256.279 149.983 255.735 150.206 255.264 150.65C254.799 151.094 254.566 151.634 254.566 152.27ZM260.873 149.553L260.842 148.23C260.842 148.121 260.879 148.035 260.955 147.974C261.03 147.912 261.122 147.881 261.231 147.881C261.341 147.881 261.44 147.912 261.529 147.974C261.618 148.028 261.652 148.107 261.631 148.209L261.703 152.639C262.134 152.065 262.715 151.583 263.446 151.193C264.055 150.865 264.588 150.701 265.046 150.701C265.449 150.701 265.76 150.831 265.979 151.091C266.143 151.296 266.225 151.569 266.225 151.911C266.225 152.246 266.16 152.54 266.03 152.793C265.907 153.039 265.743 153.278 265.538 153.511C265.333 153.736 265.097 153.948 264.831 154.146C264.564 154.345 264.294 154.522 264.021 154.68C263.501 154.98 262.988 155.23 262.482 155.428C262.441 155.415 262.373 155.411 262.277 155.418C262.182 155.425 262.065 155.428 261.929 155.428C261.56 155.428 261.235 155.384 260.955 155.295C260.886 154.646 260.852 153.658 260.852 152.332L260.873 149.553ZM261.734 154.587C261.734 154.663 261.802 154.7 261.939 154.7C262.083 154.7 262.257 154.673 262.462 154.618C262.667 154.563 262.913 154.471 263.2 154.341C263.494 154.205 263.788 154.03 264.082 153.818C264.766 153.333 265.282 152.762 265.63 152.106C265.542 151.716 265.275 151.521 264.831 151.521C264.427 151.521 263.973 151.672 263.467 151.973C262.749 152.403 262.236 152.937 261.929 153.572C261.799 153.825 261.734 154.082 261.734 154.341C261.734 154.41 261.734 154.464 261.734 154.505C261.734 154.546 261.734 154.574 261.734 154.587ZM270.214 152.854C270.966 152.854 271.342 153.046 271.342 153.429C271.342 153.716 271.133 154.051 270.716 154.434C270.094 155.001 269.257 155.456 268.204 155.797C268.156 155.797 268.102 155.75 268.04 155.654C267.985 155.558 267.941 155.486 267.907 155.438C267.879 155.384 267.859 155.35 267.845 155.336C268.631 155.076 269.277 154.762 269.783 154.393C270.125 154.146 270.296 153.945 270.296 153.788C270.296 153.63 270.094 153.552 269.691 153.552C269.288 153.552 268.696 153.647 267.917 153.839C267.562 153.825 267.254 153.699 266.994 153.459C266.769 153.248 266.656 153.036 266.656 152.824C266.656 152.605 266.717 152.407 266.84 152.229C266.963 152.044 267.127 151.874 267.333 151.716C267.538 151.559 267.777 151.416 268.05 151.286C268.72 150.964 269.414 150.804 270.132 150.804C270.344 150.804 270.549 150.824 270.747 150.865C270.911 150.865 271.007 150.937 271.034 151.081C271.062 151.224 271.075 151.46 271.075 151.788C270.672 151.604 270.217 151.511 269.711 151.511C269.083 151.511 268.563 151.638 268.153 151.891C267.729 152.137 267.51 152.458 267.497 152.854C267.497 153.046 267.637 153.142 267.917 153.142L268.666 153.06C269.308 152.923 269.824 152.854 270.214 152.854ZM274.069 154.782C274.671 154.782 275.577 154.509 276.787 153.962C276.862 153.962 276.923 153.989 276.971 154.044C277.019 154.092 277.043 154.15 277.043 154.218C276.77 154.683 276.247 155.045 275.474 155.305C274.702 155.565 273.98 155.609 273.311 155.438C272.552 155.24 272.09 154.813 271.926 154.157C271.913 154.027 271.906 153.853 271.906 153.634C271.906 153.415 271.96 153.128 272.07 152.772C272.186 152.41 272.381 152.068 272.654 151.747C272.928 151.426 273.249 151.173 273.618 150.988C273.987 150.804 274.38 150.711 274.797 150.711C275.194 150.711 275.638 150.848 276.13 151.122C276.363 151.251 276.547 151.398 276.684 151.562C276.821 151.727 276.889 151.894 276.889 152.065C276.889 152.113 276.886 152.161 276.879 152.208C276.865 152.625 276.664 152.889 276.274 152.998C276.103 153.046 275.905 153.07 275.679 153.07L274.203 153.008C273.71 153.008 273.334 153.114 273.075 153.326C272.924 153.442 272.818 153.617 272.757 153.849C272.928 154.471 273.365 154.782 274.069 154.782ZM275.895 151.614C275.744 151.504 275.587 151.426 275.423 151.378C275.259 151.33 275.122 151.306 275.013 151.306C274.903 151.306 274.726 151.344 274.479 151.419C274.233 151.487 274.015 151.566 273.823 151.655C273.352 151.874 273.116 152.103 273.116 152.342C273.663 152.39 274.073 152.414 274.346 152.414C275.105 152.414 275.618 152.349 275.884 152.219C276.048 152.15 276.13 152.065 276.13 151.962C276.13 151.839 276.052 151.723 275.895 151.614ZM282.693 151.757C282.406 151.552 282.037 151.45 281.585 151.45C281.162 151.45 280.769 151.528 280.406 151.686C279.723 151.973 279.254 152.342 279.001 152.793C278.892 152.998 278.837 153.217 278.837 153.449C278.837 153.49 278.837 153.606 278.837 153.798C278.837 153.982 278.872 154.235 278.94 154.557C279.008 154.871 279.042 155.192 279.042 155.521C278.899 155.527 278.783 155.544 278.694 155.572C278.605 155.599 278.53 155.613 278.468 155.613C278.407 155.613 278.352 155.585 278.304 155.531C278.263 155.476 278.215 155.37 278.161 155.213C278.154 155.172 278.14 155.056 278.12 154.864C278.099 154.673 278.072 154.44 278.038 154.167C278.01 153.894 277.976 153.596 277.935 153.275C277.901 152.947 277.867 152.625 277.833 152.311C277.757 151.627 277.699 151.125 277.658 150.804C277.658 150.64 277.778 150.558 278.017 150.558C278.161 150.558 278.273 150.619 278.355 150.742C278.438 150.858 278.502 150.995 278.55 151.152C278.598 151.303 278.629 151.453 278.643 151.604C278.663 151.754 278.68 151.86 278.694 151.921C279.596 151.115 280.717 150.711 282.057 150.711C282.208 150.711 282.365 150.715 282.529 150.722C282.57 150.715 282.621 150.711 282.683 150.711C282.744 150.711 282.806 150.752 282.867 150.834C282.942 150.93 282.98 151.046 282.98 151.183C282.98 151.525 282.884 151.716 282.693 151.757ZM283.544 151.532C283.53 151.498 283.523 151.46 283.523 151.419C283.523 151.371 283.541 151.31 283.575 151.234C283.609 151.159 283.657 151.094 283.718 151.04C283.787 150.985 283.858 150.961 283.934 150.968C284.016 150.968 284.081 151.016 284.128 151.111L285.851 154.311C285.906 154.229 285.991 154.078 286.107 153.859C286.23 153.634 286.367 153.381 286.518 153.101C286.675 152.82 286.835 152.53 287 152.229C287.17 151.921 287.328 151.641 287.471 151.388C287.799 150.807 287.994 150.517 288.056 150.517C288.199 150.517 288.302 150.571 288.363 150.681C288.432 150.783 288.466 150.862 288.466 150.917C288.466 150.971 288.466 151.009 288.466 151.029C288.083 151.863 287.728 152.632 287.399 153.336C287.078 154.041 286.863 154.499 286.753 154.71C286.651 154.916 286.559 155.08 286.477 155.203C286.333 155.415 286.193 155.521 286.056 155.521C285.919 155.521 285.762 155.415 285.584 155.203C285.407 154.984 285.205 154.693 284.979 154.331C284.583 153.675 284.104 152.742 283.544 151.532ZM292.926 153.798C292.414 154.604 291.73 155.104 290.875 155.295C290.677 155.336 290.496 155.356 290.332 155.356C290.175 155.356 290.042 155.356 289.932 155.356C289.83 155.35 289.713 155.333 289.583 155.305C289.454 155.278 289.334 155.233 289.225 155.172C288.972 155.028 288.845 154.827 288.845 154.567C288.818 154.444 288.804 154.307 288.804 154.157C288.804 154 288.838 153.794 288.907 153.542C288.975 153.289 289.098 153.015 289.276 152.721C289.46 152.427 289.683 152.157 289.942 151.911C290.482 151.392 291.067 151.057 291.696 150.906C291.88 150.865 292.048 150.845 292.198 150.845C292.355 150.845 292.496 150.855 292.619 150.875C293.015 150.875 293.282 151.146 293.418 151.686C293.507 152.027 293.559 152.506 293.572 153.121C293.593 153.729 293.61 154.201 293.624 154.536C293.644 154.864 293.688 155.165 293.757 155.438H293.152C293.125 155.254 293.104 155.09 293.09 154.946C293.077 154.803 293.063 154.669 293.049 154.546C293.015 154.259 292.974 154.01 292.926 153.798ZM292.885 152.208C292.885 151.812 292.69 151.614 292.301 151.614C292.253 151.607 292.205 151.604 292.157 151.604C291.658 151.604 291.132 151.843 290.578 152.321C290.318 152.54 290.096 152.786 289.912 153.06C289.638 153.449 289.501 153.798 289.501 154.105C289.501 154.509 289.734 154.748 290.199 154.823C290.814 154.81 291.402 154.529 291.962 153.982C292.202 153.743 292.4 153.483 292.557 153.203C292.776 152.827 292.885 152.496 292.885 152.208ZM295.787 154.516L295.808 152.875C295.808 152.615 295.784 152.393 295.736 152.208H294.146L294.126 151.501H295.664V148.855C295.685 148.794 295.726 148.732 295.787 148.671C295.883 148.575 295.961 148.527 296.023 148.527C296.091 148.527 296.149 148.534 296.197 148.548C296.245 148.562 296.296 148.609 296.351 148.691C296.46 149.143 296.515 149.823 296.515 150.732C296.515 150.958 296.525 151.18 296.546 151.398C296.765 151.371 296.983 151.357 297.202 151.357C297.202 151.357 297.38 151.357 297.735 151.357C297.865 151.357 297.985 151.351 298.094 151.337L298.063 152.075L296.566 152.034L296.618 155.572C296.495 155.626 296.389 155.654 296.3 155.654C295.958 155.654 295.787 155.274 295.787 154.516ZM299.407 150.681C299.496 151.959 299.571 153.439 299.632 155.121C299.591 155.333 299.427 155.438 299.14 155.438C299.065 155.438 298.986 155.425 298.904 155.397C298.829 155.363 298.781 155.319 298.761 155.264V150.681H299.407ZM298.453 149.286C298.453 149.047 298.593 148.927 298.874 148.927C299.058 148.927 299.208 148.968 299.325 149.05C299.345 149.125 299.355 149.201 299.355 149.276C299.355 149.344 299.328 149.413 299.273 149.481C299.219 149.549 299.137 149.583 299.027 149.583C298.918 149.583 298.809 149.56 298.699 149.512C298.59 149.457 298.508 149.382 298.453 149.286ZM300.33 153.552C300.33 152.745 300.678 152.096 301.375 151.604C301.929 151.214 302.596 150.978 303.375 150.896C303.416 150.896 303.512 150.896 303.662 150.896C303.812 150.896 304.014 150.94 304.267 151.029C304.828 151.221 305.21 151.559 305.416 152.044C305.498 152.236 305.539 152.4 305.539 152.537C305.539 152.667 305.535 152.759 305.528 152.813C305.528 153.668 305.204 154.341 304.554 154.833C303.953 155.285 303.201 155.51 302.298 155.51C301.649 155.51 301.157 155.36 300.822 155.059C300.494 154.758 300.33 154.256 300.33 153.552ZM301.037 153.798C301.037 154.222 301.15 154.509 301.375 154.659C301.546 154.769 301.833 154.823 302.237 154.823C302.64 154.823 302.996 154.792 303.303 154.731C303.611 154.669 303.884 154.563 304.124 154.413C304.636 154.085 304.893 153.576 304.893 152.885C304.893 152.475 304.783 152.14 304.564 151.88C304.325 151.6 304.011 151.46 303.621 151.46C303.354 151.508 303.084 151.559 302.811 151.614C302.544 151.668 302.292 151.774 302.052 151.932C301.533 152.267 301.194 152.889 301.037 153.798ZM309.979 153.254C309.979 152.441 309.934 151.843 309.845 151.46C309.9 151.357 309.818 151.306 309.599 151.306C309.367 151.306 309.066 151.364 308.697 151.48C308.328 151.597 308.027 151.713 307.794 151.829C307.241 152.096 306.933 152.355 306.872 152.608V155.397H306.185C306.096 155.165 306.051 154.512 306.051 153.439C306.051 152.482 306.068 151.778 306.103 151.327C306.144 150.875 306.174 150.619 306.195 150.558C306.373 150.441 306.516 150.383 306.625 150.383C306.796 150.383 306.882 150.585 306.882 150.988C306.882 151.146 306.872 151.299 306.851 151.45C306.837 151.593 306.831 151.692 306.831 151.747C307.938 150.934 308.796 150.527 309.404 150.527C310.095 150.527 310.488 151.084 310.583 152.198C310.625 152.588 310.645 153.128 310.645 153.818L310.635 154.628C310.635 154.929 310.642 155.22 310.655 155.5C310.587 155.541 310.532 155.562 310.491 155.562C310.471 155.555 310.426 155.544 310.358 155.531C310.29 155.517 310.201 155.507 310.091 155.5C310.023 155.227 309.985 154.95 309.979 154.669C309.972 154.382 309.968 154.119 309.968 153.88L309.979 153.254ZM314.736 152.854C315.488 152.854 315.864 153.046 315.864 153.429C315.864 153.716 315.656 154.051 315.239 154.434C314.617 155.001 313.779 155.456 312.727 155.797C312.679 155.797 312.624 155.75 312.562 155.654C312.508 155.558 312.463 155.486 312.429 155.438C312.402 155.384 312.381 155.35 312.368 155.336C313.154 155.076 313.8 154.762 314.306 154.393C314.647 154.146 314.818 153.945 314.818 153.788C314.818 153.63 314.617 153.552 314.213 153.552C313.81 153.552 313.219 153.647 312.439 153.839C312.084 153.825 311.776 153.699 311.517 153.459C311.291 153.248 311.178 153.036 311.178 152.824C311.178 152.605 311.24 152.407 311.363 152.229C311.486 152.044 311.65 151.874 311.855 151.716C312.06 151.559 312.299 151.416 312.573 151.286C313.243 150.964 313.937 150.804 314.654 150.804C314.866 150.804 315.071 150.824 315.27 150.865C315.434 150.865 315.529 150.937 315.557 151.081C315.584 151.224 315.598 151.46 315.598 151.788C315.194 151.604 314.74 151.511 314.234 151.511C313.605 151.511 313.085 151.638 312.675 151.891C312.251 152.137 312.033 152.458 312.019 152.854C312.019 153.046 312.159 153.142 312.439 153.142L313.188 153.06C313.831 152.923 314.347 152.854 314.736 152.854Z" fill="#191919"/>
<path d="M207.499 131.502C207.255 131.374 206.953 131.468 206.824 131.713L204.733 135.697C204.605 135.942 204.699 136.244 204.944 136.372C205.188 136.501 205.491 136.407 205.619 136.162L207.478 132.62L211.019 134.479C211.264 134.607 211.566 134.513 211.695 134.268C211.823 134.024 211.729 133.722 211.484 133.593L207.499 131.502ZM245.267 151.445C229.499 151.444 220.121 146.484 214.69 141.574C211.97 139.114 210.229 136.657 209.171 134.82C208.641 133.902 208.282 133.139 208.057 132.609C207.944 132.344 207.865 132.137 207.815 131.998C207.789 131.929 207.771 131.877 207.76 131.843C207.754 131.826 207.75 131.813 207.747 131.805C207.746 131.801 207.745 131.799 207.745 131.797C207.745 131.796 207.744 131.796 207.744 131.796C207.744 131.796 207.744 131.796 207.744 131.796C207.744 131.796 207.744 131.796 207.267 131.945C206.79 132.094 206.79 132.094 206.79 132.095C206.79 132.095 206.79 132.096 206.79 132.096C206.791 132.097 206.791 132.099 206.792 132.1C206.793 132.104 206.794 132.108 206.796 132.114C206.8 132.125 206.805 132.141 206.812 132.162C206.826 132.204 206.847 132.264 206.875 132.341C206.931 132.495 207.017 132.718 207.137 133C207.376 133.564 207.753 134.363 208.304 135.32C209.407 137.232 211.21 139.775 214.019 142.315C219.646 147.404 229.268 152.444 245.267 152.445L245.267 151.445Z" fill="#191919"/>
<path d="M270.772 58.2238C271.047 58.239 271.283 58.0278 271.298 57.7521L271.546 53.2589C271.561 52.9832 271.35 52.7474 271.074 52.7322C270.799 52.717 270.563 52.9281 270.548 53.2039L270.327 57.1978L266.333 56.9775C266.058 56.9623 265.822 57.1735 265.807 57.4492C265.791 57.725 266.003 57.9608 266.278 57.976L270.772 58.2238ZM227.549 52.5249C245.056 50.8016 255.815 52.2265 262.175 54.0606C265.354 54.9774 267.434 55.9963 268.709 56.7752C269.347 57.1647 269.785 57.4946 270.059 57.7224C270.195 57.8363 270.291 57.9247 270.351 57.9824C270.381 58.0113 270.402 58.0325 270.414 58.0453C270.421 58.0517 270.425 58.056 270.427 58.0582C270.428 58.0593 270.428 58.0598 270.428 58.0598C270.428 58.0598 270.428 58.0597 270.428 58.0594C270.428 58.0593 270.427 58.0589 270.427 58.0589C270.427 58.0585 270.427 58.0581 270.799 57.7246C271.172 57.391 271.171 57.3906 271.171 57.3901C271.17 57.3899 271.17 57.3894 271.17 57.3889C271.169 57.3881 271.168 57.3871 271.167 57.386C271.165 57.3838 271.162 57.381 271.159 57.3777C271.153 57.3711 271.145 57.3624 271.135 57.3516C271.114 57.33 271.084 57.3002 271.046 57.2628C270.968 57.1881 270.854 57.0833 270.698 56.9537C270.387 56.6944 269.909 56.3363 269.231 55.9217C267.872 55.0925 265.709 54.0392 262.452 53.0997C255.938 51.2214 245.047 49.7977 227.451 51.5297L227.549 52.5249Z" fill="#191919"/>
</g>
<rect x="23" y="3" width="343.5" height="195" rx="6.5" stroke="#DFDFDF"/>
<path d="M194.274 205.465L193.362 205.445C193.123 205.445 192.846 205.469 192.531 205.517C192.518 205.783 192.49 206.128 192.449 206.552C192.306 208.056 192.234 209.034 192.234 209.485C192.234 209.929 192.241 210.244 192.254 210.428L191.291 210.5L191.608 205.435L189.424 205.312C189.37 205.312 189.325 205.267 189.291 205.178C189.264 205.089 189.25 205.007 189.25 204.932C189.25 204.857 189.281 204.775 189.342 204.686C189.404 204.597 189.476 204.553 189.558 204.553C190.057 204.573 190.559 204.607 191.065 204.655C192.001 204.737 192.798 204.778 193.454 204.778L194.09 204.758C194.589 204.744 195.084 204.689 195.577 204.594C195.686 204.614 195.754 204.785 195.782 205.106C195.789 205.175 195.792 205.229 195.792 205.271C195.341 205.4 194.835 205.465 194.274 205.465ZM196.992 205.681C197.081 206.959 197.156 208.439 197.217 210.121C197.176 210.333 197.012 210.438 196.725 210.438C196.65 210.438 196.571 210.425 196.489 210.397C196.414 210.363 196.366 210.319 196.346 210.264V205.681H196.992ZM196.038 204.286C196.038 204.047 196.178 203.927 196.458 203.927C196.643 203.927 196.793 203.968 196.91 204.05C196.93 204.125 196.94 204.201 196.94 204.276C196.94 204.344 196.913 204.413 196.858 204.481C196.804 204.549 196.722 204.583 196.612 204.583C196.503 204.583 196.394 204.56 196.284 204.512C196.175 204.457 196.093 204.382 196.038 204.286ZM198.509 210.336C198.229 210.452 198.041 210.51 197.945 210.51C197.856 210.51 197.795 210.5 197.761 210.479C197.727 210.459 197.689 210.411 197.648 210.336C197.648 210.11 197.655 209.827 197.668 209.485C197.689 209.143 197.706 208.777 197.72 208.388C197.733 207.998 197.74 207.605 197.74 207.208C197.74 206.812 197.72 206.45 197.679 206.122C197.679 205.903 197.826 205.793 198.12 205.793C198.188 205.793 198.239 205.917 198.273 206.163C198.314 206.409 198.342 206.6 198.355 206.737C198.376 206.874 198.393 206.973 198.407 207.034C198.584 206.713 198.937 206.46 199.463 206.275C199.743 206.187 200.006 206.142 200.252 206.142C200.499 206.142 200.714 206.173 200.898 206.234C201.09 206.289 201.25 206.395 201.38 206.552C201.517 206.703 201.585 206.904 201.585 207.157C201.763 206.822 202.163 206.521 202.785 206.255C203.353 206.002 203.862 205.875 204.313 205.875C204.962 205.875 205.28 206.122 205.267 206.614L205.482 210.428C205.482 210.462 205.383 210.486 205.185 210.5C204.802 210.527 204.61 210.493 204.61 210.397C204.604 210.261 204.6 210.124 204.6 209.987L204.651 208.336C204.651 207.564 204.576 206.952 204.426 206.501C203.975 206.535 203.626 206.61 203.38 206.727C203.141 206.836 202.929 206.976 202.744 207.147C202.56 207.311 202.396 207.533 202.252 207.813C201.931 208.442 201.77 209.276 201.77 210.315C201.729 210.459 201.596 210.531 201.37 210.531C201.22 210.531 201.097 210.507 201.001 210.459C200.905 210.404 200.868 210.356 200.888 210.315C201.018 209.591 201.083 209.027 201.083 208.624C201.083 208.302 201.049 207.998 200.98 207.711C200.919 207.417 200.84 207.082 200.745 206.706C199.76 206.706 199.097 207.099 198.755 207.885C198.605 208.234 198.52 208.562 198.499 208.87C198.485 209.17 198.479 209.43 198.479 209.649C198.479 209.861 198.489 210.09 198.509 210.336ZM207.922 209.782C208.524 209.782 209.43 209.509 210.64 208.962C210.715 208.962 210.776 208.989 210.824 209.044C210.872 209.092 210.896 209.15 210.896 209.218C210.623 209.683 210.1 210.045 209.327 210.305C208.555 210.565 207.833 210.609 207.164 210.438C206.405 210.24 205.943 209.813 205.779 209.157C205.766 209.027 205.759 208.853 205.759 208.634C205.759 208.415 205.813 208.128 205.923 207.772C206.039 207.41 206.234 207.068 206.507 206.747C206.781 206.426 207.102 206.173 207.471 205.988C207.84 205.804 208.233 205.711 208.65 205.711C209.047 205.711 209.491 205.848 209.983 206.122C210.216 206.251 210.4 206.398 210.537 206.562C210.674 206.727 210.742 206.894 210.742 207.065C210.742 207.113 210.739 207.161 210.732 207.208C210.718 207.625 210.517 207.889 210.127 207.998C209.956 208.046 209.758 208.07 209.532 208.07L208.056 208.008C207.563 208.008 207.188 208.114 206.928 208.326C206.777 208.442 206.671 208.617 206.61 208.849C206.781 209.471 207.218 209.782 207.922 209.782ZM209.748 206.614C209.597 206.504 209.44 206.426 209.276 206.378C209.112 206.33 208.975 206.306 208.866 206.306C208.756 206.306 208.579 206.344 208.333 206.419C208.086 206.487 207.868 206.566 207.676 206.655C207.205 206.874 206.969 207.103 206.969 207.342C207.516 207.39 207.926 207.414 208.199 207.414C208.958 207.414 209.471 207.349 209.737 207.219C209.901 207.15 209.983 207.065 209.983 206.962C209.983 206.839 209.905 206.723 209.748 206.614Z" fill="#191919"/>
<defs>
<clipPath id="clip0_917_15945">
<rect x="23.5" y="3.5" width="342.5" height="194" rx="6" fill="white"/>
</clipPath>
</defs>
</svg>
