<svg width="378" height="291" viewBox="0 0 378 291" fill="none" xmlns="http://www.w3.org/2000/svg">
<rect x="1" y="0.5" width="376" height="290" rx="5.5" fill="#F5F5F5"/>
<rect x="1" y="0.5" width="376" height="290" rx="5.5" stroke="#DFE7EF"/>
<g opacity="0.3">
<g style="mix-blend-mode:plus-darker">
<path d="M12.084 162.881C17.7558 157.656 23.2736 155.074 29.279 151.939C35.2845 148.803 43.1976 146.207 52.2058 146.207C61.2139 146.207 198.192 131.165 229.888 106.606C261.583 82.0473 288.335 62.0334 315.693 56.8081C337.58 52.6279 358.621 55.0664 366.406 56.8081" stroke="#B1B1B1" stroke-width="1.04212"/>
</g>
<g style="mix-blend-mode:plus-darker">
<path d="M12.084 162.881C17.7558 157.807 22.2314 154.984 28.2369 151.939C34.2424 148.894 42.6765 146.207 51.6847 146.207C60.6929 146.207 197.671 131.499 229.367 107.649C261.062 83.7985 288.335 64.9431 315.693 59.8685C337.58 55.8088 358.621 58.177 366.406 59.8685" stroke="#B1B1B1" stroke-width="1.04212"/>
</g>
<g style="mix-blend-mode:plus-darker">
<path d="M12.084 162.881C17.7558 158.007 22.2314 155.384 28.2369 152.46C34.2424 149.536 43.1976 145.686 52.2058 145.686C61.2139 145.686 198.192 130.033 229.888 107.127C261.583 84.2214 288.335 68.8213 315.693 63.9477C337.58 60.0488 358.621 62.3232 366.406 63.9477" stroke="#B1B1B1" stroke-width="1.04212"/>
</g>
</g>
<g opacity="0.3">
<g style="mix-blend-mode:plus-darker">
<path d="M12.084 162.881C17.7558 156.752 23.094 154.914 29.0995 151.236C35.1049 147.558 43.4458 145.105 52.454 145.105C61.4622 145.105 200.277 132.811 231.972 104.001C263.668 75.1919 288.335 44.5795 315.693 38.4498C337.58 33.5461 358.621 36.4066 366.406 38.4498" stroke="#B1B1B1" stroke-width="1.04212"/>
</g>
</g>
<g opacity="0.3">
<g style="mix-blend-mode:plus-darker">
<path d="M12.084 163.926C17.7558 157.545 23.094 155.632 29.0995 151.804C35.1049 147.975 43.4458 145.421 52.454 145.421C61.4622 145.421 201.319 133.994 233.014 104.004C264.71 74.0136 288.335 40.7756 315.693 34.3947C337.58 29.29 358.621 32.2678 366.406 34.3947" stroke="#B1B1B1" stroke-width="1.04212"/>
</g>
</g>
<g opacity="0.3">
<g style="mix-blend-mode:plus-darker">
<path d="M12.084 162.883C17.7558 156.402 23.094 154.459 29.0995 150.57C35.1049 146.681 43.4458 144.087 52.454 144.087C61.4622 144.087 201.84 133.945 233.535 103.482C265.231 73.0197 288.335 37.7936 315.693 31.3122C337.58 26.1271 358.621 29.1517 366.406 31.3122" stroke="#B1B1B1" stroke-width="1.04212"/>
</g>
</g>
<g opacity="0.3">
<g style="mix-blend-mode:plus-darker">
<path d="M12.084 162.883C17.7558 156.15 24.3157 155.459 30.3212 151.42C36.3266 147.38 44.2397 145.688 53.2479 145.688C62.2561 145.688 202.361 133.562 234.056 101.919C265.752 70.2755 288.335 32.9448 315.693 26.2122C337.58 20.8261 358.621 23.968 366.406 26.2122" stroke="#B1B1B1" stroke-width="1.04212"/>
</g>
<g style="mix-blend-mode:plus-darker">
<path d="M12.084 162.883C17.7558 155.899 24.8368 154.567 30.8422 150.377C36.8477 146.187 44.2397 145.688 53.2479 145.688C62.2561 145.688 203.403 133.179 235.099 100.355C266.794 67.5313 288.335 28.096 315.693 21.1122C337.58 15.5252 358.621 18.7843 366.406 21.1122" stroke="#B1B1B1" stroke-width="1.04212"/>
</g>
</g>
<g opacity="0.3">
<g style="mix-blend-mode:plus-darker">
<path d="M12.084 162.885C17.7558 157.459 23.094 155.832 29.0995 152.577C35.1049 149.321 43.4458 147.149 52.454 147.149C61.4622 147.149 198.192 132.635 229.888 107.132C261.583 81.6282 288.335 58.1591 315.693 52.7328C337.58 48.3918 358.621 50.9241 366.406 52.7328" stroke="#B1B1B1" stroke-width="1.04212"/>
</g>
</g>
<g opacity="0.3">
<g style="mix-blend-mode:plus-darker">
<path d="M12.084 162.882C17.7558 157.255 23.094 155.568 29.0995 152.191C35.1049 148.815 43.4458 146.563 52.454 146.563C61.4622 146.563 198.713 133.576 230.409 107.128C262.104 80.6803 288.335 54.277 315.693 48.6497C337.58 44.1479 358.621 46.774 366.406 48.6497" stroke="#B1B1B1" stroke-width="1.04212"/>
</g>
</g>
<g opacity="0.3">
<path d="M12.084 162.884C17.7558 157.005 23.094 155.243 29.0995 151.716C35.1049 148.189 43.4458 145.836 52.454 145.836C61.4622 145.836 198.921 132.904 230.616 105.276C262.311 77.6468 288.335 49.4302 315.693 43.5517C337.58 38.849 358.621 41.5922 366.406 43.5517" stroke="#B1B1B1" stroke-width="1.04212"/>
</g>
<path d="M12.084 162.883C17.7725 156.954 23.1264 155.177 29.1495 151.619C35.1726 148.062 43.5381 145.69 52.5728 145.69C61.6074 145.69 199.47 132.647 231.259 104.782C263.047 76.9174 289.148 48.4596 316.586 42.5309C338.537 37.788 359.64 40.5547 367.448 42.5309" stroke="#656565" stroke-width="3.12637"/>
<path d="M83.5446 46.9586C84.257 46.9586 84.7307 47.0049 84.9658 47.0975V47.6212C84.7734 47.6496 84.5099 47.6675 84.175 47.6746C83.8402 47.6746 83.484 47.6781 83.1064 47.6853C82.0521 47.7066 81.3326 47.7601 80.9479 47.8456C80.8268 48.4155 80.7698 48.8037 80.7769 49.0103C80.7841 49.2169 80.7912 49.3772 80.7983 49.4912C80.8268 49.769 80.841 50.0967 80.841 50.4743C81.3255 50.4743 81.8776 50.4315 82.4974 50.346C83.1243 50.2606 83.6087 50.2 83.9506 50.1644C84.2926 50.1216 84.6452 50.1003 85.0085 50.1003V50.688L80.9158 51.2009L80.98 52.9534C81.6852 52.9534 82.4047 52.9213 83.1385 52.8572C83.8794 52.786 84.4386 52.7361 84.8162 52.7076C85.2009 52.672 85.6069 52.6542 86.0344 52.6542C86.0344 52.7967 85.9916 52.932 85.9061 53.0602C85.7352 53.2882 85.582 53.3559 85.4466 53.2633C84.1928 53.3986 83.0708 53.5055 82.0806 53.5839C81.0975 53.6622 80.435 53.7156 80.093 53.7441L80.1358 46.9266C80.321 46.9836 80.6629 47.0121 81.1616 47.0121L83.5446 46.9586ZM90.7041 51.4039C90.7041 50.5562 90.6578 49.9329 90.5652 49.5339C90.6222 49.4271 90.5367 49.3736 90.3087 49.3736C90.0665 49.3736 89.753 49.4342 89.3683 49.5553C88.9837 49.6764 88.6702 49.7975 88.428 49.9186C87.851 50.1964 87.5304 50.4671 87.4663 50.7307V53.6373H86.7503C86.6577 53.3951 86.6114 52.7147 86.6114 51.5963C86.6114 50.5989 86.6292 49.8652 86.6648 49.395C86.7076 48.9248 86.7396 48.6577 86.761 48.5936C86.9462 48.4725 87.0958 48.4119 87.2098 48.4119C87.3879 48.4119 87.477 48.6221 87.477 49.0424C87.477 49.2062 87.4663 49.3665 87.4449 49.5232C87.4306 49.6728 87.4235 49.7761 87.4235 49.8331C88.5776 48.9854 89.4716 48.5615 90.1057 48.5615C90.8252 48.5615 91.2348 49.1421 91.3345 50.3033C91.3773 50.7094 91.3987 51.2721 91.3987 51.9917L91.388 52.8358C91.388 53.1493 91.3951 53.4521 91.4093 53.7441C91.3381 53.7869 91.2811 53.8083 91.2384 53.8083C91.217 53.8011 91.1707 53.7904 91.0995 53.7762C91.0282 53.762 90.9356 53.7513 90.8216 53.7441C90.7504 53.4592 90.7112 53.1707 90.7041 52.8786C90.697 52.5794 90.6934 52.3051 90.6934 52.0558L90.7041 51.4039ZM95.6623 50.9872C96.4459 50.9872 96.8377 51.1867 96.8377 51.5856C96.8377 51.8848 96.6205 52.2339 96.1859 52.6328C95.5376 53.2241 94.665 53.6978 93.5679 54.054C93.518 54.054 93.461 54.0042 93.3969 53.9044C93.3399 53.8047 93.2936 53.7299 93.258 53.68C93.2295 53.623 93.2081 53.5874 93.1939 53.5732C94.0131 53.3025 94.6863 52.9748 95.2135 52.5901C95.5697 52.3336 95.7478 52.1235 95.7478 51.9596C95.7478 51.7958 95.5376 51.7138 95.1173 51.7138C94.697 51.7138 94.0808 51.8136 93.2687 52.013C92.8982 51.9988 92.5777 51.867 92.307 51.6177C92.0719 51.3968 91.9543 51.176 91.9543 50.9551C91.9543 50.7272 92.0184 50.5206 92.1467 50.3354C92.2749 50.143 92.4459 49.9649 92.6596 49.8011C92.8733 49.6372 93.1226 49.4876 93.4076 49.3523C94.1057 49.0174 94.8288 48.85 95.5768 48.85C95.7977 48.85 96.0114 48.8714 96.218 48.9141C96.3889 48.9141 96.4887 48.9889 96.5172 49.1385C96.5457 49.2881 96.5599 49.5339 96.5599 49.8759C96.1396 49.6835 95.6659 49.5873 95.1387 49.5873C94.4833 49.5873 93.9419 49.7191 93.5145 49.9827C93.0728 50.2392 92.8448 50.574 92.8306 50.9872C92.8306 51.1867 92.9766 51.2864 93.2687 51.2864L94.0487 51.2009C94.7184 51.0584 95.2562 50.9872 95.6623 50.9872ZM99.6802 52.9961C100.307 52.9961 101.251 52.7112 102.512 52.1413C102.59 52.1413 102.654 52.1698 102.704 52.2268C102.754 52.2766 102.779 52.3372 102.779 52.4084C102.494 52.8928 101.949 53.2704 101.144 53.5411C100.339 53.8118 99.5876 53.8581 98.8894 53.68C98.0987 53.4734 97.6178 53.0282 97.4468 52.3443C97.4326 52.2089 97.4255 52.0273 97.4255 51.7993C97.4255 51.5714 97.4825 51.2721 97.5964 50.9017C97.7176 50.5241 97.9206 50.1679 98.2055 49.8331C98.4905 49.4983 98.8253 49.2347 99.21 49.0424C99.5947 48.85 100.004 48.7539 100.439 48.7539C100.852 48.7539 101.315 48.8963 101.828 49.1813C102.07 49.3166 102.263 49.4698 102.405 49.6408C102.548 49.8118 102.619 49.9863 102.619 50.1644C102.619 50.2143 102.615 50.2641 102.608 50.314C102.594 50.7485 102.384 51.0228 101.978 51.1368C101.8 51.1867 101.593 51.2116 101.358 51.2116L99.8191 51.1475C99.3062 51.1475 98.9144 51.2579 98.6437 51.4787C98.4869 51.5998 98.3765 51.7815 98.3124 52.0237C98.4905 52.672 98.9464 52.9961 99.6802 52.9961ZM101.582 49.6942C101.426 49.5802 101.262 49.4983 101.091 49.4484C100.92 49.3986 100.777 49.3736 100.663 49.3736C100.549 49.3736 100.364 49.4128 100.108 49.4912C99.8512 49.5624 99.6232 49.6443 99.4237 49.737C98.9322 49.9649 98.6864 50.2036 98.6864 50.4529C99.2563 50.5028 99.6837 50.5277 99.9687 50.5277C100.759 50.5277 101.294 50.46 101.572 50.3247C101.743 50.2534 101.828 50.1644 101.828 50.0575C101.828 49.9293 101.746 49.8082 101.582 49.6942ZM104.307 53.5732C104.015 53.6943 103.819 53.7548 103.719 53.7548C103.627 53.7548 103.563 53.7441 103.527 53.7228C103.491 53.7014 103.452 53.6515 103.41 53.5732C103.41 53.3381 103.417 53.0424 103.431 52.6862C103.452 52.33 103.47 51.9489 103.484 51.5429C103.499 51.1368 103.506 50.7272 103.506 50.314C103.506 49.9008 103.484 49.5232 103.442 49.1813C103.442 48.9533 103.595 48.8393 103.901 48.8393C103.972 48.8393 104.026 48.9676 104.061 49.224C104.104 49.4805 104.133 49.68 104.147 49.8224C104.168 49.9649 104.186 50.0682 104.2 50.1323C104.386 49.7975 104.752 49.5339 105.301 49.3416C105.593 49.249 105.867 49.2027 106.124 49.2027C106.38 49.2027 106.605 49.2347 106.797 49.2988C106.996 49.3558 107.164 49.4662 107.299 49.6301C107.442 49.7868 107.513 49.997 107.513 50.2606C107.698 49.9115 108.115 49.598 108.763 49.3202C109.354 49.0566 109.885 48.9248 110.355 48.9248C111.032 48.9248 111.363 49.1813 111.349 49.6942L111.574 53.6693C111.574 53.705 111.47 53.7299 111.264 53.7441C110.865 53.7726 110.665 53.737 110.665 53.6373C110.658 53.4948 110.655 53.3523 110.655 53.2098L110.708 51.4894C110.708 50.6844 110.63 50.0468 110.473 49.5767C110.003 49.6123 109.639 49.6906 109.383 49.8118C109.134 49.9257 108.913 50.0718 108.72 50.2499C108.528 50.4208 108.357 50.6524 108.207 50.9445C107.873 51.5998 107.705 52.469 107.705 53.5518C107.663 53.7014 107.524 53.7762 107.289 53.7762C107.132 53.7762 107.004 53.7513 106.904 53.7014C106.804 53.6444 106.765 53.5945 106.786 53.5518C106.922 52.7967 106.989 52.2089 106.989 51.7886C106.989 51.4538 106.954 51.1368 106.882 50.8376C106.818 50.5313 106.736 50.1822 106.637 49.7904C105.611 49.7904 104.92 50.2 104.564 51.0193C104.407 51.3826 104.318 51.7245 104.296 52.0451C104.282 52.3585 104.275 52.6293 104.275 52.8572C104.275 53.0781 104.286 53.3167 104.307 53.5732ZM112.001 47.5464L111.969 46.1679C111.969 46.0539 112.008 45.9648 112.086 45.9007C112.165 45.8366 112.261 45.8046 112.375 45.8046C112.489 45.8046 112.592 45.8366 112.685 45.9007C112.777 45.9577 112.813 46.0396 112.792 46.1465L112.867 50.7628C113.315 50.1644 113.921 49.6621 114.683 49.2561C115.317 48.9141 115.873 48.7432 116.35 48.7432C116.77 48.7432 117.095 48.8785 117.323 49.1492C117.493 49.3629 117.579 49.6479 117.579 50.0041C117.579 50.3532 117.511 50.6595 117.376 50.9231C117.248 51.1795 117.077 51.4289 116.863 51.6711C116.649 51.9062 116.404 52.127 116.126 52.3336C115.848 52.5402 115.566 52.7254 115.282 52.8893C114.74 53.2027 114.206 53.4627 113.679 53.6693C113.636 53.6551 113.565 53.6515 113.465 53.6587C113.365 53.6658 113.244 53.6693 113.102 53.6693C112.717 53.6693 112.379 53.623 112.086 53.5304C112.015 52.8537 111.98 51.8243 111.98 50.4422L112.001 47.5464ZM112.899 52.7931C112.899 52.8715 112.97 52.9106 113.112 52.9106C113.262 52.9106 113.444 52.8821 113.657 52.8252C113.871 52.7682 114.127 52.672 114.427 52.5366C114.733 52.3942 115.039 52.2125 115.346 51.9917C116.058 51.4859 116.596 50.891 116.959 50.2071C116.867 49.8011 116.589 49.598 116.126 49.598C115.705 49.598 115.232 49.7548 114.704 50.0682C113.956 50.517 113.422 51.0727 113.102 51.7352C112.966 51.9988 112.899 52.2659 112.899 52.5366C112.899 52.6079 112.899 52.6649 112.899 52.7076C112.899 52.7504 112.899 52.7789 112.899 52.7931ZM118.274 49.598C118.259 49.2133 118.245 48.8714 118.231 48.5722C118.217 48.2659 118.206 48.0415 118.199 47.899C118.199 47.7494 118.142 47.3896 118.028 46.8197C118.092 46.7342 118.152 46.6523 118.209 46.5739C118.274 46.4956 118.363 46.4564 118.477 46.4564C118.726 46.4564 118.918 47.5072 119.054 49.6087C119.125 50.8269 119.16 52.0451 119.16 53.2633C119.16 53.591 118.933 53.7548 118.477 53.7548L118.391 53.7441C118.391 53.3737 118.38 52.9 118.359 52.3229C118.338 51.7459 118.32 51.2437 118.306 50.8162C118.298 50.3888 118.288 49.9827 118.274 49.598ZM121.982 52.9961C122.608 52.9961 123.552 52.7112 124.813 52.1413C124.892 52.1413 124.956 52.1698 125.006 52.2268C125.055 52.2766 125.08 52.3372 125.08 52.4084C124.795 52.8928 124.25 53.2704 123.445 53.5411C122.64 53.8118 121.889 53.8581 121.191 53.68C120.4 53.4734 119.919 53.0282 119.748 52.3443C119.734 52.2089 119.727 52.0273 119.727 51.7993C119.727 51.5714 119.784 51.2721 119.898 50.9017C120.019 50.5241 120.222 50.1679 120.507 49.8331C120.792 49.4983 121.127 49.2347 121.511 49.0424C121.896 48.85 122.306 48.7539 122.74 48.7539C123.153 48.7539 123.616 48.8963 124.129 49.1813C124.372 49.3166 124.564 49.4698 124.706 49.6408C124.849 49.8118 124.92 49.9863 124.92 50.1644C124.92 50.2143 124.917 50.2641 124.909 50.314C124.895 50.7485 124.685 51.0228 124.279 51.1368C124.101 51.1867 123.894 51.2116 123.659 51.2116L122.12 51.1475C121.608 51.1475 121.216 51.2579 120.945 51.4787C120.788 51.5998 120.678 51.7815 120.614 52.0237C120.792 52.672 121.248 52.9961 121.982 52.9961ZM123.884 49.6942C123.727 49.5802 123.563 49.4983 123.392 49.4484C123.221 49.3986 123.079 49.3736 122.965 49.3736C122.851 49.3736 122.665 49.4128 122.409 49.4912C122.153 49.5624 121.925 49.6443 121.725 49.737C121.234 49.9649 120.988 50.2036 120.988 50.4529C121.558 50.5028 121.985 50.5277 122.27 50.5277C123.061 50.5277 123.595 50.46 123.873 50.3247C124.044 50.2534 124.129 50.1644 124.129 50.0575C124.129 49.9293 124.047 49.8082 123.884 49.6942ZM134.302 51.9703C133.768 52.8109 133.056 53.331 132.165 53.5304C131.959 53.5732 131.77 53.5945 131.599 53.5945C131.435 53.5945 131.296 53.5945 131.182 53.5945C131.075 53.5874 130.954 53.5696 130.819 53.5411C130.683 53.5126 130.559 53.4663 130.445 53.4022C130.181 53.2526 130.049 53.0424 130.049 52.7717C130.021 52.6435 130.007 52.501 130.007 52.3443C130.007 52.1804 130.042 51.9667 130.113 51.7031C130.185 51.4396 130.313 51.1546 130.498 50.8483C130.69 50.542 130.922 50.2606 131.193 50.0041C131.756 49.4627 132.365 49.1136 133.02 48.9569C133.212 48.9141 133.387 48.8928 133.544 48.8928C133.707 48.8928 133.854 48.9035 133.982 48.9248C134.395 48.9248 134.673 49.2062 134.815 49.769C134.908 50.1252 134.961 50.6239 134.976 51.265C134.997 51.8991 135.015 52.3906 135.029 52.7397C135.05 53.0816 135.097 53.3951 135.168 53.68H134.537C134.509 53.4877 134.488 53.3167 134.473 53.1671C134.459 53.0175 134.445 52.8786 134.431 52.7504C134.395 52.4512 134.352 52.1911 134.302 51.9703ZM134.26 50.314C134.26 49.9008 134.057 49.6942 133.65 49.6942C133.601 49.6871 133.551 49.6835 133.501 49.6835C132.981 49.6835 132.432 49.9329 131.855 50.4315C131.585 50.6595 131.353 50.916 131.161 51.2009C130.876 51.607 130.733 51.9703 130.733 52.2909C130.733 52.7112 130.975 52.9605 131.46 53.0389C132.101 53.0246 132.714 52.7325 133.298 52.1626C133.547 51.9133 133.754 51.6426 133.918 51.3505C134.146 50.9587 134.26 50.6132 134.26 50.314ZM141.804 50.1751C141.839 50.1751 141.857 50.2712 141.857 50.4636C141.857 50.6559 141.864 50.7877 141.879 50.859L138.213 51.3078L138.406 53.68L137.54 53.6373C137.54 52.9961 137.469 52.2624 137.326 51.436L135.937 51.9703C135.845 51.9703 135.766 51.9169 135.702 51.81C135.588 51.6248 135.531 51.4574 135.531 51.3078L137.155 50.7307C137.013 49.5054 136.942 48.5116 136.942 47.7494C136.942 46.98 137.006 46.3816 137.134 45.9542C137.262 45.5267 137.448 45.2418 137.69 45.0993C137.939 44.9497 138.203 44.8749 138.48 44.8749C138.758 44.8749 139.04 44.9354 139.325 45.0566C139.617 45.1777 139.895 45.3308 140.158 45.516C140.422 45.7013 140.646 45.9114 140.831 46.1465C141.017 46.3745 141.109 46.5989 141.109 46.8197C141.109 46.9907 141.091 47.1118 141.056 47.183C140.771 46.7841 140.425 46.4279 140.019 46.1144C139.535 45.744 139.079 45.5588 138.651 45.5588C138.245 45.5588 137.975 45.8473 137.839 46.4243C137.775 46.7235 137.743 47.1474 137.743 47.696C137.743 48.2374 137.757 48.736 137.786 49.192C137.814 49.6408 137.9 50.0931 138.042 50.5491C138.484 50.5491 138.979 50.5099 139.528 50.4315C140.582 50.2677 141.341 50.1822 141.804 50.1751ZM143.781 52.7183L143.802 51.0086C143.802 50.7379 143.777 50.5063 143.727 50.314H142.071L142.05 49.5767H143.652V46.8197C143.674 46.7556 143.717 46.6915 143.781 46.6274C143.88 46.5276 143.962 46.4778 144.026 46.4778C144.098 46.4778 144.158 46.4849 144.208 46.4991C144.258 46.5134 144.311 46.5633 144.368 46.6487C144.482 47.1189 144.539 47.8277 144.539 48.7752C144.539 49.0103 144.55 49.2418 144.571 49.4698C144.799 49.4413 145.027 49.4271 145.255 49.4271C145.255 49.4271 145.441 49.4271 145.811 49.4271C145.946 49.4271 146.071 49.4199 146.185 49.4057L146.153 50.1751L144.593 50.1323L144.646 53.8189C144.518 53.8759 144.408 53.9044 144.315 53.9044C143.959 53.9044 143.781 53.5091 143.781 52.7183ZM148.771 52.9961C149.398 52.9961 150.342 52.7112 151.603 52.1413C151.681 52.1413 151.745 52.1698 151.795 52.2268C151.845 52.2766 151.87 52.3372 151.87 52.4084C151.585 52.8928 151.04 53.2704 150.235 53.5411C149.43 53.8118 148.678 53.8581 147.98 53.68C147.189 53.4734 146.709 53.0282 146.538 52.3443C146.523 52.2089 146.516 52.0273 146.516 51.7993C146.516 51.5714 146.573 51.2721 146.687 50.9017C146.808 50.5241 147.011 50.1679 147.296 49.8331C147.581 49.4983 147.916 49.2347 148.301 49.0424C148.685 48.85 149.095 48.7539 149.53 48.7539C149.943 48.7539 150.406 48.8963 150.919 49.1813C151.161 49.3166 151.353 49.4698 151.496 49.6408C151.638 49.8118 151.71 49.9863 151.71 50.1644C151.71 50.2143 151.706 50.2641 151.699 50.314C151.685 50.7485 151.474 51.0228 151.068 51.1368C150.89 51.1867 150.684 51.2116 150.449 51.2116L148.91 51.1475C148.397 51.1475 148.005 51.2579 147.734 51.4787C147.578 51.5998 147.467 51.7815 147.403 52.0237C147.581 52.672 148.037 52.9961 148.771 52.9961ZM150.673 49.6942C150.516 49.5802 150.352 49.4983 150.181 49.4484C150.011 49.3986 149.868 49.3736 149.754 49.3736C149.64 49.3736 149.455 49.4128 149.198 49.4912C148.942 49.5624 148.714 49.6443 148.514 49.737C148.023 49.9649 147.777 50.2036 147.777 50.4529C148.347 50.5028 148.775 50.5277 149.059 50.5277C149.85 50.5277 150.385 50.46 150.662 50.3247C150.833 50.2534 150.919 50.1644 150.919 50.0575C150.919 49.9293 150.837 49.8082 150.673 49.6942ZM157.758 49.8438C157.459 49.6301 157.074 49.5232 156.604 49.5232C156.162 49.5232 155.752 49.6052 155.375 49.769C154.662 50.0682 154.174 50.4529 153.911 50.9231C153.797 51.1368 153.74 51.3648 153.74 51.607C153.74 51.6497 153.74 51.7708 153.74 51.9703C153.74 52.1626 153.775 52.4262 153.847 52.761C153.918 53.0887 153.954 53.4236 153.954 53.7655C153.804 53.7726 153.683 53.7904 153.59 53.8189C153.498 53.8474 153.419 53.8617 153.355 53.8617C153.291 53.8617 153.234 53.8332 153.184 53.7762C153.141 53.7192 153.092 53.6088 153.035 53.4449C153.027 53.4022 153.013 53.2811 152.992 53.0816C152.97 52.8821 152.942 52.6399 152.906 52.355C152.878 52.07 152.842 51.7601 152.8 51.4253C152.764 51.0834 152.728 50.7485 152.693 50.4208C152.614 49.7085 152.554 49.1848 152.511 48.85C152.511 48.6791 152.636 48.5936 152.885 48.5936C153.035 48.5936 153.152 48.6577 153.238 48.7859C153.323 48.907 153.391 49.0495 153.441 49.2133C153.491 49.3701 153.523 49.5268 153.537 49.6835C153.558 49.8402 153.576 49.9507 153.59 50.0148C154.531 49.1742 155.699 48.7539 157.095 48.7539C157.252 48.7539 157.416 48.7574 157.587 48.7645C157.63 48.7574 157.683 48.7539 157.747 48.7539C157.811 48.7539 157.875 48.7966 157.939 48.8821C158.018 48.9818 158.057 49.1029 158.057 49.2454C158.057 49.6016 157.957 49.8011 157.758 49.8438ZM167.247 52.6221C167.539 52.501 167.824 52.3906 168.102 52.2909C168.379 52.1911 168.643 52.1413 168.892 52.1413C169.149 52.1413 169.277 52.2196 169.277 52.3764C169.277 52.412 169.266 52.469 169.245 52.5473C169.231 52.6186 169.135 52.7076 168.956 52.8145C168.786 52.9142 168.572 53.0104 168.315 53.103C168.066 53.1956 167.792 53.2811 167.493 53.3595C167.193 53.4378 166.901 53.5055 166.616 53.5625C166.025 53.6836 165.605 53.7441 165.355 53.7441C165.106 53.7441 164.835 53.7156 164.543 53.6587C164.258 53.6017 163.991 53.5091 163.742 53.3808C163.165 53.0816 162.876 52.6399 162.876 52.0558C162.876 52.013 162.876 51.9275 162.876 51.7993C162.876 51.6711 162.93 51.4894 163.037 51.2543C163.143 51.0121 163.304 50.7735 163.517 50.5384C163.731 50.2962 163.98 50.0753 164.265 49.8759C164.864 49.4484 165.491 49.1706 166.146 49.0424C166.374 48.9925 166.563 48.9676 166.712 48.9676C166.869 48.9676 166.997 48.9711 167.097 48.9783C167.197 48.9783 167.3 48.9854 167.407 48.9996C167.514 49.0068 167.607 49.0317 167.685 49.0744C167.87 49.167 167.963 49.3487 167.963 49.6194C167.963 49.7904 167.842 49.9578 167.599 50.1216C167.535 50.1644 167.478 50.2036 167.428 50.2392C167.393 50.0753 167.346 49.9364 167.29 49.8224C167.233 49.7085 167.108 49.6515 166.915 49.6515C166.075 49.8296 165.352 50.0967 164.746 50.4529C164.062 50.859 163.72 51.2864 163.72 51.7352C163.72 51.7851 163.724 51.8385 163.731 51.8955C163.731 52.3514 163.906 52.6756 164.255 52.8679C164.518 53.0104 164.857 53.0816 165.27 53.0816C165.69 53.0816 166.054 53.0353 166.36 52.9427C166.666 52.843 166.962 52.7361 167.247 52.6221ZM174.054 51.9703C173.519 52.8109 172.807 53.331 171.916 53.5304C171.71 53.5732 171.521 53.5945 171.35 53.5945C171.186 53.5945 171.047 53.5945 170.933 53.5945C170.827 53.5874 170.705 53.5696 170.57 53.5411C170.435 53.5126 170.31 53.4663 170.196 53.4022C169.932 53.2526 169.801 53.0424 169.801 52.7717C169.772 52.6435 169.758 52.501 169.758 52.3443C169.758 52.1804 169.794 51.9667 169.865 51.7031C169.936 51.4396 170.064 51.1546 170.249 50.8483C170.442 50.542 170.673 50.2606 170.944 50.0041C171.507 49.4627 172.116 49.1136 172.771 48.9569C172.964 48.9141 173.138 48.8928 173.295 48.8928C173.459 48.8928 173.605 48.9035 173.733 48.9248C174.146 48.9248 174.424 49.2062 174.567 49.769C174.659 50.1252 174.713 50.6239 174.727 51.265C174.748 51.8991 174.766 52.3906 174.78 52.7397C174.802 53.0816 174.848 53.3951 174.919 53.68H174.289C174.26 53.4877 174.239 53.3167 174.225 53.1671C174.21 53.0175 174.196 52.8786 174.182 52.7504C174.146 52.4512 174.104 52.1911 174.054 51.9703ZM174.011 50.314C174.011 49.9008 173.808 49.6942 173.402 49.6942C173.352 49.6871 173.302 49.6835 173.252 49.6835C172.732 49.6835 172.184 49.9329 171.607 50.4315C171.336 50.6595 171.104 50.916 170.912 51.2009C170.627 51.607 170.485 51.9703 170.485 52.2909C170.485 52.7112 170.727 52.9605 171.211 53.0389C171.852 53.0246 172.465 52.7325 173.049 52.1626C173.299 51.9133 173.505 51.6426 173.669 51.3505C173.897 50.9587 174.011 50.6132 174.011 50.314ZM175.614 49.598C175.6 49.2133 175.585 48.8714 175.571 48.5722C175.557 48.2659 175.546 48.0415 175.539 47.899C175.539 47.7494 175.482 47.3896 175.368 46.8197C175.432 46.7342 175.493 46.6523 175.55 46.5739C175.614 46.4956 175.703 46.4564 175.817 46.4564C176.066 46.4564 176.258 47.5072 176.394 49.6087C176.465 50.8269 176.501 52.0451 176.501 53.2633C176.501 53.591 176.273 53.7548 175.817 53.7548L175.731 53.7441C175.731 53.3737 175.721 52.9 175.699 52.3229C175.678 51.7459 175.66 51.2437 175.646 50.8162C175.639 50.3888 175.628 49.9827 175.614 49.598ZM178.104 48.7218C178.196 50.054 178.275 51.5963 178.339 53.3488C178.296 53.5696 178.125 53.68 177.826 53.68C177.747 53.68 177.665 53.6658 177.58 53.6373C177.502 53.6017 177.452 53.5554 177.43 53.4984V48.7218H178.104ZM177.11 47.2685C177.11 47.0192 177.256 46.8945 177.548 46.8945C177.74 46.8945 177.897 46.9373 178.018 47.0227C178.039 47.1011 178.05 47.1795 178.05 47.2578C178.05 47.3291 178.022 47.4003 177.965 47.4716C177.908 47.5428 177.822 47.5784 177.708 47.5784C177.594 47.5784 177.48 47.5535 177.366 47.5036C177.252 47.4466 177.167 47.3683 177.11 47.2685ZM178.862 47.5464L178.83 46.1679C178.83 46.0539 178.869 45.9648 178.948 45.9007C179.026 45.8366 179.122 45.8046 179.236 45.8046C179.35 45.8046 179.454 45.8366 179.546 45.9007C179.639 45.9577 179.674 46.0396 179.653 46.1465L179.728 50.7628C180.177 50.1644 180.782 49.6621 181.544 49.2561C182.178 48.9141 182.734 48.7432 183.211 48.7432C183.632 48.7432 183.956 48.8785 184.184 49.1492C184.355 49.3629 184.44 49.6479 184.44 50.0041C184.44 50.3532 184.373 50.6595 184.237 50.9231C184.109 51.1795 183.938 51.4289 183.724 51.6711C183.511 51.9062 183.265 52.127 182.987 52.3336C182.709 52.5402 182.428 52.7254 182.143 52.8893C181.601 53.2027 181.067 53.4627 180.54 53.6693C180.497 53.6551 180.426 53.6515 180.326 53.6587C180.226 53.6658 180.105 53.6693 179.963 53.6693C179.578 53.6693 179.24 53.623 178.948 53.5304C178.877 52.8537 178.841 51.8243 178.841 50.4422L178.862 47.5464ZM179.76 52.7931C179.76 52.8715 179.831 52.9106 179.974 52.9106C180.123 52.9106 180.305 52.8821 180.519 52.8252C180.732 52.7682 180.989 52.672 181.288 52.5366C181.594 52.3942 181.901 52.2125 182.207 51.9917C182.919 51.4859 183.457 50.891 183.82 50.2071C183.728 49.8011 183.45 49.598 182.987 49.598C182.567 49.598 182.093 49.7548 181.566 50.0682C180.818 50.517 180.283 51.0727 179.963 51.7352C179.828 51.9988 179.76 52.2659 179.76 52.5366C179.76 52.6079 179.76 52.6649 179.76 52.7076C179.76 52.7504 179.76 52.7789 179.76 52.7931ZM190.189 49.8438C189.89 49.6301 189.505 49.5232 189.035 49.5232C188.594 49.5232 188.184 49.6052 187.806 49.769C187.094 50.0682 186.606 50.4529 186.342 50.9231C186.228 51.1368 186.171 51.3648 186.171 51.607C186.171 51.6497 186.171 51.7708 186.171 51.9703C186.171 52.1626 186.207 52.4262 186.278 52.761C186.349 53.0887 186.385 53.4236 186.385 53.7655C186.236 53.7726 186.114 53.7904 186.022 53.8189C185.929 53.8474 185.851 53.8617 185.787 53.8617C185.723 53.8617 185.666 53.8332 185.616 53.7762C185.573 53.7192 185.523 53.6088 185.466 53.4449C185.459 53.4022 185.445 53.2811 185.423 53.0816C185.402 52.8821 185.374 52.6399 185.338 52.355C185.309 52.07 185.274 51.7601 185.231 51.4253C185.195 51.0834 185.16 50.7485 185.124 50.4208C185.046 49.7085 184.985 49.1848 184.943 48.85C184.943 48.6791 185.067 48.5936 185.317 48.5936C185.466 48.5936 185.584 48.6577 185.669 48.7859C185.755 48.907 185.822 49.0495 185.872 49.2133C185.922 49.3701 185.954 49.5268 185.968 49.6835C185.99 49.8402 186.008 49.9507 186.022 50.0148C186.962 49.1742 188.13 48.7539 189.527 48.7539C189.683 48.7539 189.847 48.7574 190.018 48.7645C190.061 48.7574 190.114 48.7539 190.179 48.7539C190.243 48.7539 190.307 48.7966 190.371 48.8821C190.449 48.9818 190.488 49.1029 190.488 49.2454C190.488 49.6016 190.389 49.8011 190.189 49.8438ZM195.18 51.9703C194.645 52.8109 193.933 53.331 193.042 53.5304C192.836 53.5732 192.647 53.5945 192.476 53.5945C192.312 53.5945 192.173 53.5945 192.059 53.5945C191.952 53.5874 191.831 53.5696 191.696 53.5411C191.561 53.5126 191.436 53.4663 191.322 53.4022C191.058 53.2526 190.927 53.0424 190.927 52.7717C190.898 52.6435 190.884 52.501 190.884 52.3443C190.884 52.1804 190.919 51.9667 190.991 51.7031C191.062 51.4396 191.19 51.1546 191.375 50.8483C191.568 50.542 191.799 50.2606 192.07 50.0041C192.633 49.4627 193.242 49.1136 193.897 48.9569C194.09 48.9141 194.264 48.8928 194.421 48.8928C194.585 48.8928 194.731 48.9035 194.859 48.9248C195.272 48.9248 195.55 49.2062 195.692 49.769C195.785 50.1252 195.839 50.6239 195.853 51.265C195.874 51.8991 195.892 52.3906 195.906 52.7397C195.928 53.0816 195.974 53.3951 196.045 53.68H195.415C195.386 53.4877 195.365 53.3167 195.351 53.1671C195.336 53.0175 195.322 52.8786 195.308 52.7504C195.272 52.4512 195.229 52.1911 195.18 51.9703ZM195.137 50.314C195.137 49.9008 194.934 49.6942 194.528 49.6942C194.478 49.6871 194.428 49.6835 194.378 49.6835C193.858 49.6835 193.31 49.9329 192.732 50.4315C192.462 50.6595 192.23 50.916 192.038 51.2009C191.753 51.607 191.61 51.9703 191.61 52.2909C191.61 52.7112 191.853 52.9605 192.337 53.0389C192.978 53.0246 193.591 52.7325 194.175 52.1626C194.424 51.9133 194.631 51.6426 194.795 51.3505C195.023 50.9587 195.137 50.6132 195.137 50.314ZM198.161 52.7183L198.182 51.0086C198.182 50.7379 198.157 50.5063 198.107 50.314H196.451L196.43 49.5767H198.033V46.8197C198.054 46.7556 198.097 46.6915 198.161 46.6274C198.261 46.5276 198.343 46.4778 198.407 46.4778C198.478 46.4778 198.538 46.4849 198.588 46.4991C198.638 46.5134 198.692 46.5633 198.749 46.6487C198.863 47.1189 198.92 47.8277 198.92 48.7752C198.92 49.0103 198.93 49.2418 198.952 49.4698C199.18 49.4413 199.408 49.4271 199.636 49.4271C199.636 49.4271 199.821 49.4271 200.191 49.4271C200.327 49.4271 200.451 49.4199 200.565 49.4057L200.533 50.1751L198.973 50.1323L199.026 53.8189C198.898 53.8759 198.788 53.9044 198.695 53.9044C198.339 53.9044 198.161 53.5091 198.161 52.7183ZM201.933 48.7218C202.026 50.054 202.104 51.5963 202.168 53.3488C202.125 53.5696 201.954 53.68 201.655 53.68C201.577 53.68 201.495 53.6658 201.409 53.6373C201.331 53.6017 201.281 53.5554 201.26 53.4984V48.7218H201.933ZM200.939 47.2685C200.939 47.0192 201.085 46.8945 201.377 46.8945C201.57 46.8945 201.726 46.9373 201.848 47.0227C201.869 47.1011 201.88 47.1795 201.88 47.2578C201.88 47.3291 201.851 47.4003 201.794 47.4716C201.737 47.5428 201.652 47.5784 201.538 47.5784C201.424 47.5784 201.31 47.5535 201.196 47.5036C201.082 47.4466 200.996 47.3683 200.939 47.2685ZM202.895 51.7138C202.895 50.8732 203.258 50.1964 203.985 49.6835C204.562 49.2775 205.256 49.0317 206.068 48.9462C206.111 48.9462 206.211 48.9462 206.368 48.9462C206.524 48.9462 206.735 48.9925 206.998 49.0851C207.582 49.2846 207.981 49.6372 208.195 50.143C208.28 50.3425 208.323 50.5135 208.323 50.6559C208.323 50.7913 208.32 50.8875 208.312 50.9445C208.312 51.8349 207.974 52.5366 207.297 53.0496C206.67 53.5197 205.887 53.7548 204.946 53.7548C204.27 53.7548 203.757 53.5981 203.408 53.2846C203.066 52.9712 202.895 52.4476 202.895 51.7138ZM203.632 51.9703C203.632 52.412 203.75 52.7112 203.985 52.8679C204.163 52.9819 204.462 53.0389 204.882 53.0389C205.303 53.0389 205.673 53.0068 205.994 52.9427C206.314 52.8786 206.599 52.7682 206.848 52.6114C207.383 52.2695 207.65 51.7388 207.65 51.0193C207.65 50.5918 207.536 50.2427 207.308 49.972C207.059 49.68 206.731 49.5339 206.325 49.5339C206.047 49.5838 205.766 49.6372 205.481 49.6942C205.203 49.7512 204.939 49.8616 204.69 50.0255C204.149 50.3745 203.796 51.0228 203.632 51.9703ZM212.95 51.4039C212.95 50.5562 212.904 49.9329 212.811 49.5339C212.868 49.4271 212.783 49.3736 212.555 49.3736C212.313 49.3736 211.999 49.4342 211.614 49.5553C211.23 49.6764 210.916 49.7975 210.674 49.9186C210.097 50.1964 209.776 50.4671 209.712 50.7307V53.6373H208.996C208.904 53.3951 208.857 52.7147 208.857 51.5963C208.857 50.5989 208.875 49.8652 208.911 49.395C208.954 48.9248 208.986 48.6577 209.007 48.5936C209.192 48.4725 209.342 48.4119 209.456 48.4119C209.634 48.4119 209.723 48.6221 209.723 49.0424C209.723 49.2062 209.712 49.3665 209.691 49.5232C209.677 49.6728 209.67 49.7761 209.67 49.8331C210.824 48.9854 211.718 48.5615 212.352 48.5615C213.071 48.5615 213.481 49.1421 213.581 50.3033C213.623 50.7094 213.645 51.2721 213.645 51.9917L213.634 52.8358C213.634 53.1493 213.641 53.4521 213.655 53.7441C213.584 53.7869 213.527 53.8083 213.484 53.8083C213.463 53.8011 213.417 53.7904 213.345 53.7762C213.274 53.762 213.182 53.7513 213.068 53.7441C212.996 53.4592 212.957 53.1707 212.95 52.8786C212.943 52.5794 212.939 52.3051 212.939 52.0558L212.95 51.4039Z" fill="#191919"/>
<circle cx="13.1264" cy="162.884" r="3.64743" fill="#191919" stroke="white" stroke-width="1.04212"/>
<circle cx="29.7992" cy="151.419" r="3.64743" fill="#191919" stroke="white" stroke-width="1.04212"/>
<circle cx="46.474" cy="146.21" r="3.64743" fill="#191919" stroke="white" stroke-width="1.04212"/>
<circle cx="63.1479" cy="145.165" r="3.64743" fill="#191919" stroke="white" stroke-width="1.04212"/>
<circle cx="79.8217" cy="143.081" r="3.64743" fill="#191919" stroke="white" stroke-width="1.04212"/>
<circle cx="96.4965" cy="140.999" r="3.64743" fill="#191919" stroke="white" stroke-width="1.04212"/>
<circle cx="113.17" cy="138.913" r="3.64743" fill="#191919" stroke="white" stroke-width="1.04212"/>
<circle cx="129.843" cy="136.829" r="3.64743" fill="#191919" stroke="white" stroke-width="1.04212"/>
<circle cx="146.518" cy="133.703" r="3.64743" fill="#191919" stroke="white" stroke-width="1.04212"/>
<circle cx="163.192" cy="130.578" r="3.64743" fill="#191919" stroke="white" stroke-width="1.04212"/>
<circle cx="179.866" cy="126.408" r="3.64743" fill="#191919" stroke="white" stroke-width="1.04212"/>
<circle cx="196.539" cy="122.24" r="3.64743" fill="#191919" stroke="white" stroke-width="1.04212"/>
<circle cx="213.214" cy="115.988" r="3.64743" fill="#191919" stroke="white" stroke-width="1.04212"/>
<circle cx="213.214" cy="115.988" r="3.64743" fill="#191919" stroke="white" stroke-width="1.04212"/>
<circle cx="213.214" cy="114.945" r="3.64743" fill="#191919" stroke="white" stroke-width="1.04212"/>
<circle cx="229.888" cy="106.607" r="3.64743" fill="#191919" stroke="white" stroke-width="1.04212"/>
<circle cx="229.888" cy="106.607" r="3.64743" fill="#191919" stroke="white" stroke-width="1.04212"/>
<circle cx="229.888" cy="106.607" r="3.64743" fill="#191919" stroke="white" stroke-width="1.04212"/>
<path d="M249.659 156.978C249.488 156.594 249.402 156.141 249.402 155.621C249.402 155.101 249.484 154.642 249.648 154.243C249.819 153.837 250.05 153.488 250.342 153.195C250.962 152.59 251.739 152.287 252.672 152.287C253.648 152.287 254.453 152.512 255.087 152.96C255.799 153.473 256.156 154.207 256.156 155.162C256.156 156.344 255.881 157.217 255.333 157.78C254.791 158.342 253.944 158.624 252.789 158.624C251.187 158.624 250.143 158.075 249.659 156.978ZM250.278 155.407C250.278 157.089 251.126 157.929 252.822 157.929C253.655 157.929 254.332 157.68 254.852 157.181C255.372 156.69 255.632 156.045 255.632 155.247C255.632 154.499 255.322 153.929 254.702 153.537C254.175 153.195 253.509 153.024 252.704 153.024C252.063 153.024 251.497 153.256 251.005 153.719C250.521 154.182 250.278 154.745 250.278 155.407ZM256.85 152.576L256.818 151.197C256.818 151.083 256.857 150.994 256.936 150.93C257.014 150.866 257.11 150.834 257.224 150.834C257.338 150.834 257.441 150.866 257.534 150.93C257.627 150.987 257.662 151.069 257.641 151.176L257.716 155.792C258.164 155.194 258.77 154.691 259.532 154.285C260.166 153.943 260.722 153.772 261.199 153.772C261.62 153.772 261.944 153.908 262.172 154.179C262.343 154.392 262.428 154.677 262.428 155.033C262.428 155.382 262.36 155.689 262.225 155.952C262.097 156.209 261.926 156.458 261.712 156.7C261.498 156.935 261.253 157.156 260.975 157.363C260.697 157.569 260.416 157.755 260.131 157.919C259.589 158.232 259.055 158.492 258.528 158.699C258.485 158.684 258.414 158.681 258.314 158.688C258.214 158.695 258.093 158.699 257.951 158.699C257.566 158.699 257.228 158.652 256.936 158.56C256.864 157.883 256.829 156.854 256.829 155.472L256.85 152.576ZM257.748 157.822C257.748 157.901 257.819 157.94 257.961 157.94C258.111 157.94 258.293 157.911 258.506 157.854C258.72 157.797 258.977 157.701 259.276 157.566C259.582 157.423 259.888 157.242 260.195 157.021C260.907 156.515 261.445 155.92 261.808 155.236C261.716 154.83 261.438 154.627 260.975 154.627C260.555 154.627 260.081 154.784 259.554 155.098C258.806 155.546 258.271 156.102 257.951 156.764C257.815 157.028 257.748 157.295 257.748 157.566C257.748 157.637 257.748 157.694 257.748 157.737C257.748 157.78 257.748 157.808 257.748 157.822ZM266.585 156.016C267.369 156.016 267.76 156.216 267.76 156.615C267.76 156.914 267.543 157.263 267.109 157.662C266.46 158.253 265.588 158.727 264.49 159.083C264.441 159.083 264.384 159.033 264.32 158.934C264.263 158.834 264.216 158.759 264.181 158.709C264.152 158.652 264.131 158.617 264.116 158.602C264.936 158.332 265.609 158.004 266.136 157.619C266.492 157.363 266.67 157.153 266.67 156.989C266.67 156.825 266.46 156.743 266.04 156.743C265.62 156.743 265.003 156.843 264.191 157.042C263.821 157.028 263.5 156.896 263.23 156.647C262.994 156.426 262.877 156.205 262.877 155.984C262.877 155.756 262.941 155.55 263.069 155.365C263.198 155.172 263.368 154.994 263.582 154.83C263.796 154.667 264.045 154.517 264.33 154.382C265.028 154.047 265.751 153.879 266.499 153.879C266.72 153.879 266.934 153.901 267.141 153.943C267.312 153.943 267.411 154.018 267.44 154.168C267.468 154.317 267.483 154.563 267.483 154.905C267.062 154.713 266.588 154.617 266.061 154.617C265.406 154.617 264.864 154.748 264.437 155.012C263.995 155.268 263.767 155.603 263.753 156.016C263.753 156.216 263.899 156.316 264.191 156.316L264.971 156.23C265.641 156.088 266.179 156.016 266.585 156.016ZM270.603 158.025C271.23 158.025 272.174 157.74 273.435 157.171C273.513 157.171 273.577 157.199 273.627 157.256C273.677 157.306 273.702 157.366 273.702 157.438C273.417 157.922 272.872 158.3 272.067 158.57C271.262 158.841 270.51 158.887 269.812 158.709C269.021 158.503 268.54 158.057 268.369 157.374C268.355 157.238 268.348 157.057 268.348 156.829C268.348 156.601 268.405 156.301 268.519 155.931C268.64 155.553 268.843 155.197 269.128 154.862C269.413 154.528 269.748 154.264 270.133 154.072C270.517 153.879 270.927 153.783 271.361 153.783C271.775 153.783 272.238 153.926 272.751 154.211C272.993 154.346 273.185 154.499 273.328 154.67C273.47 154.841 273.541 155.016 273.541 155.194C273.541 155.244 273.538 155.293 273.531 155.343C273.516 155.778 273.306 156.052 272.9 156.166C272.722 156.216 272.516 156.241 272.28 156.241L270.742 156.177C270.229 156.177 269.837 156.287 269.566 156.508C269.41 156.629 269.299 156.811 269.235 157.053C269.413 157.701 269.869 158.025 270.603 158.025ZM272.505 154.724C272.348 154.61 272.184 154.528 272.013 154.478C271.842 154.428 271.7 154.403 271.586 154.403C271.472 154.403 271.287 154.442 271.03 154.52C270.774 154.592 270.546 154.674 270.346 154.766C269.855 154.994 269.609 155.233 269.609 155.482C270.179 155.532 270.606 155.557 270.891 155.557C271.682 155.557 272.216 155.489 272.494 155.354C272.665 155.283 272.751 155.194 272.751 155.087C272.751 154.959 272.669 154.837 272.505 154.724ZM279.59 154.873C279.29 154.659 278.906 154.553 278.436 154.553C277.994 154.553 277.584 154.634 277.207 154.798C276.494 155.098 276.006 155.482 275.743 155.952C275.629 156.166 275.572 156.394 275.572 156.636C275.572 156.679 275.572 156.8 275.572 157C275.572 157.192 275.607 157.456 275.679 157.79C275.75 158.118 275.785 158.453 275.785 158.795C275.636 158.802 275.515 158.82 275.422 158.848C275.329 158.877 275.251 158.891 275.187 158.891C275.123 158.891 275.066 158.862 275.016 158.805C274.973 158.749 274.923 158.638 274.866 158.474C274.859 158.431 274.845 158.31 274.824 158.111C274.802 157.911 274.774 157.669 274.738 157.384C274.71 157.099 274.674 156.789 274.631 156.455C274.596 156.113 274.56 155.778 274.524 155.45C274.446 154.738 274.386 154.214 274.343 153.879C274.343 153.708 274.468 153.623 274.717 153.623C274.866 153.623 274.984 153.687 275.069 153.815C275.155 153.936 275.223 154.079 275.273 154.243C275.322 154.399 275.354 154.556 275.369 154.713C275.39 154.87 275.408 154.98 275.422 155.044C276.362 154.203 277.531 153.783 278.927 153.783C279.084 153.783 279.248 153.787 279.419 153.794C279.461 153.787 279.515 153.783 279.579 153.783C279.643 153.783 279.707 153.826 279.771 153.911C279.85 154.011 279.889 154.132 279.889 154.275C279.889 154.631 279.789 154.83 279.59 154.873ZM280.477 154.638C280.462 154.602 280.455 154.563 280.455 154.52C280.455 154.471 280.473 154.406 280.509 154.328C280.544 154.25 280.594 154.182 280.658 154.125C280.729 154.068 280.804 154.043 280.883 154.05C280.968 154.05 281.036 154.1 281.086 154.2L282.881 157.534C282.938 157.448 283.027 157.292 283.148 157.064C283.276 156.829 283.419 156.565 283.575 156.273C283.739 155.981 283.907 155.678 284.078 155.365C284.256 155.044 284.42 154.752 284.569 154.488C284.911 153.883 285.114 153.58 285.178 153.58C285.328 153.58 285.435 153.637 285.499 153.751C285.57 153.858 285.606 153.94 285.606 153.997C285.606 154.054 285.606 154.093 285.606 154.114C285.207 154.984 284.836 155.785 284.494 156.519C284.16 157.252 283.935 157.73 283.821 157.951C283.714 158.164 283.618 158.335 283.533 158.464C283.383 158.684 283.237 158.795 283.095 158.795C282.952 158.795 282.788 158.684 282.603 158.464C282.418 158.236 282.208 157.933 281.973 157.555C281.559 156.871 281.061 155.899 280.477 154.638ZM290.254 157C289.72 157.84 289.007 158.36 288.117 158.56C287.91 158.602 287.722 158.624 287.551 158.624C287.387 158.624 287.248 158.624 287.134 158.624C287.027 158.617 286.906 158.599 286.77 158.57C286.635 158.542 286.51 158.496 286.396 158.431C286.133 158.282 286.001 158.072 286.001 157.801C285.973 157.673 285.958 157.53 285.958 157.374C285.958 157.21 285.994 156.996 286.065 156.732C286.136 156.469 286.265 156.184 286.45 155.878C286.642 155.571 286.874 155.29 287.144 155.033C287.707 154.492 288.316 154.143 288.972 153.986C289.164 153.943 289.339 153.922 289.495 153.922C289.659 153.922 289.805 153.933 289.933 153.954C290.347 153.954 290.624 154.236 290.767 154.798C290.86 155.154 290.913 155.653 290.927 156.294C290.949 156.928 290.966 157.42 290.981 157.769C291.002 158.111 291.048 158.424 291.12 158.709H290.489C290.461 158.517 290.439 158.346 290.425 158.196C290.411 158.047 290.397 157.908 290.382 157.78C290.347 157.48 290.304 157.22 290.254 157ZM290.211 155.343C290.211 154.93 290.008 154.724 289.602 154.724C289.552 154.716 289.502 154.713 289.453 154.713C288.933 154.713 288.384 154.962 287.807 155.461C287.536 155.689 287.305 155.945 287.112 156.23C286.827 156.636 286.685 157 286.685 157.32C286.685 157.74 286.927 157.99 287.412 158.068C288.053 158.054 288.665 157.762 289.25 157.192C289.499 156.943 289.706 156.672 289.869 156.38C290.097 155.988 290.211 155.642 290.211 155.343ZM293.235 157.748L293.257 156.038C293.257 155.767 293.232 155.536 293.182 155.343H291.526L291.504 154.606H293.107V151.849C293.129 151.785 293.171 151.721 293.235 151.657C293.335 151.557 293.417 151.507 293.481 151.507C293.552 151.507 293.613 151.514 293.663 151.528C293.713 151.543 293.766 151.593 293.823 151.678C293.937 152.148 293.994 152.857 293.994 153.805C293.994 154.04 294.005 154.271 294.026 154.499C294.254 154.471 294.482 154.456 294.71 154.456C294.71 154.456 294.895 154.456 295.266 154.456C295.401 154.456 295.526 154.449 295.64 154.435L295.608 155.204L294.048 155.162L294.101 158.848C293.973 158.905 293.862 158.934 293.77 158.934C293.414 158.934 293.235 158.538 293.235 157.748ZM297.008 153.751C297.1 155.083 297.178 156.626 297.243 158.378C297.2 158.599 297.029 158.709 296.73 158.709C296.651 158.709 296.569 158.695 296.484 158.667C296.406 158.631 296.356 158.585 296.334 158.528V153.751H297.008ZM296.014 152.298C296.014 152.048 296.16 151.924 296.452 151.924C296.644 151.924 296.801 151.967 296.922 152.052C296.943 152.13 296.954 152.209 296.954 152.287C296.954 152.358 296.926 152.43 296.869 152.501C296.812 152.572 296.726 152.608 296.612 152.608C296.498 152.608 296.384 152.583 296.27 152.533C296.156 152.476 296.071 152.398 296.014 152.298ZM297.969 156.743C297.969 155.903 298.333 155.226 299.059 154.713C299.636 154.307 300.331 154.061 301.143 153.975C301.186 153.975 301.285 153.975 301.442 153.975C301.599 153.975 301.809 154.022 302.073 154.114C302.657 154.314 303.056 154.667 303.269 155.172C303.355 155.372 303.398 155.543 303.398 155.685C303.398 155.821 303.394 155.917 303.387 155.974C303.387 156.864 303.049 157.566 302.372 158.079C301.745 158.549 300.961 158.784 300.021 158.784C299.344 158.784 298.831 158.627 298.482 158.314C298.14 158 297.969 157.477 297.969 156.743ZM298.707 157C298.707 157.441 298.824 157.74 299.059 157.897C299.237 158.011 299.536 158.068 299.957 158.068C300.377 158.068 300.748 158.036 301.068 157.972C301.389 157.908 301.674 157.797 301.923 157.641C302.457 157.299 302.724 156.768 302.724 156.049C302.724 155.621 302.61 155.272 302.382 155.001C302.133 154.709 301.805 154.563 301.399 154.563C301.122 154.613 300.84 154.667 300.555 154.724C300.277 154.78 300.014 154.891 299.764 155.055C299.223 155.404 298.87 156.052 298.707 157ZM308.025 156.433C308.025 155.585 307.978 154.962 307.886 154.563C307.943 154.456 307.857 154.403 307.629 154.403C307.387 154.403 307.074 154.463 306.689 154.585C306.304 154.706 305.991 154.827 305.749 154.948C305.171 155.226 304.851 155.496 304.787 155.76V158.667H304.071C303.978 158.424 303.932 157.744 303.932 156.626C303.932 155.628 303.95 154.894 303.985 154.424C304.028 153.954 304.06 153.687 304.082 153.623C304.267 153.502 304.416 153.441 304.53 153.441C304.708 153.441 304.797 153.651 304.797 154.072C304.797 154.236 304.787 154.396 304.765 154.553C304.751 154.702 304.744 154.805 304.744 154.862C305.898 154.015 306.792 153.591 307.426 153.591C308.146 153.591 308.555 154.171 308.655 155.333C308.698 155.739 308.719 156.301 308.719 157.021L308.709 157.865C308.709 158.179 308.716 158.481 308.73 158.773C308.659 158.816 308.602 158.838 308.559 158.838C308.538 158.83 308.491 158.82 308.42 158.805C308.349 158.791 308.256 158.781 308.142 158.773C308.071 158.488 308.032 158.2 308.025 157.908C308.017 157.609 308.014 157.334 308.014 157.085L308.025 156.433ZM312.983 156.016C313.766 156.016 314.158 156.216 314.158 156.615C314.158 156.914 313.941 157.263 313.506 157.662C312.858 158.253 311.985 158.727 310.888 159.083C310.839 159.083 310.782 159.033 310.717 158.934C310.66 158.834 310.614 158.759 310.579 158.709C310.55 158.652 310.529 158.617 310.514 158.602C311.334 158.332 312.007 158.004 312.534 157.619C312.89 157.363 313.068 157.153 313.068 156.989C313.068 156.825 312.858 156.743 312.438 156.743C312.018 156.743 311.401 156.843 310.589 157.042C310.219 157.028 309.898 156.896 309.627 156.647C309.392 156.426 309.275 156.205 309.275 155.984C309.275 155.756 309.339 155.55 309.467 155.365C309.595 155.172 309.766 154.994 309.98 154.83C310.194 154.667 310.443 154.517 310.728 154.382C311.426 154.047 312.149 153.879 312.897 153.879C313.118 153.879 313.332 153.901 313.539 153.943C313.709 153.943 313.809 154.018 313.838 154.168C313.866 154.317 313.88 154.563 313.88 154.905C313.46 154.713 312.986 154.617 312.459 154.617C311.804 154.617 311.262 154.748 310.835 155.012C310.393 155.268 310.165 155.603 310.151 156.016C310.151 156.216 310.297 156.316 310.589 156.316L311.369 156.23C312.039 156.088 312.577 156.016 312.983 156.016Z" fill="#191919"/>
<path d="M48.3144 228.215L48.3571 228.996C48.3571 229.038 48.3535 229.117 48.3464 229.231C48.3464 229.345 48.3037 229.448 48.2182 229.541C48.1398 229.626 48.0401 229.669 47.919 229.669C47.805 229.669 47.716 229.665 47.6518 229.658C47.4167 229.658 47.2992 229.555 47.2992 229.348C47.2992 229.177 47.3776 228.49 47.5343 227.286C47.691 226.075 47.7908 225.295 47.8335 224.946C47.8762 224.597 47.9119 224.304 47.9404 224.069C47.976 223.827 48.0009 223.649 48.0152 223.535C48.0294 223.421 48.0508 223.307 48.0793 223.193C48.1078 223.079 48.1505 222.987 48.2075 222.915C48.3144 222.78 48.521 222.712 48.8273 222.712C49.3402 222.969 49.8674 223.695 50.4088 224.892C50.7935 225.747 51.0499 226.288 51.1782 226.516C51.3064 226.744 51.4311 226.901 51.5522 226.987L53.6893 223.268C53.8389 223.161 53.9529 223.108 54.0313 223.108C54.2592 223.108 54.4338 223.211 54.5549 223.418C54.676 223.624 54.7757 223.877 54.8541 224.176C54.9396 224.468 55.0108 224.792 55.0678 225.149C55.1319 225.505 55.1854 225.879 55.2281 226.271C55.278 226.655 55.3243 227.033 55.367 227.403C55.4667 228.294 55.5415 228.853 55.5914 229.081C55.6484 229.309 55.6769 229.473 55.6769 229.573C55.6769 229.665 55.6448 229.758 55.5807 229.85C55.5166 229.936 55.4276 229.979 55.3136 229.979C55.1996 229.979 55.0856 229.936 54.9716 229.85C54.8577 229.758 54.7864 229.647 54.7579 229.519C54.7365 229.384 54.7116 229.209 54.6831 228.996C54.6617 228.782 54.6333 228.543 54.5976 228.28C54.562 228.009 54.5264 227.727 54.4908 227.435C54.4552 227.136 54.4195 226.851 54.3839 226.581C54.3483 226.31 54.3162 226.071 54.2877 225.865C54.2592 225.651 54.2379 225.491 54.2236 225.384C54.2236 225.241 54.2201 225.109 54.2129 224.988C54.2058 224.867 54.1773 224.792 54.1275 224.764C54.0776 224.735 53.9992 224.771 53.8924 224.871C53.7926 224.963 53.6502 225.156 53.4649 225.448C53.066 226.068 52.489 227.111 51.7338 228.579C51.6341 228.757 51.5023 228.796 51.3385 228.696C51.1461 228.589 50.9823 228.315 50.8469 227.874L48.8807 223.695C48.7097 224.037 48.553 225.17 48.4105 227.093C48.3892 227.329 48.3749 227.528 48.3678 227.692C48.3322 227.87 48.3144 228.044 48.3144 228.215ZM56.6066 227.97C56.6066 227.129 56.9699 226.452 57.6965 225.939C58.2736 225.533 58.9681 225.288 59.7803 225.202C59.823 225.202 59.9227 225.202 60.0795 225.202C60.2362 225.202 60.4464 225.248 60.7099 225.341C61.2941 225.54 61.693 225.893 61.9067 226.399C61.9922 226.598 62.035 226.769 62.035 226.912C62.035 227.047 62.0314 227.143 62.0243 227.2C62.0243 228.091 61.6859 228.792 61.0091 229.305C60.3822 229.776 59.5986 230.011 58.6583 230.011C57.9815 230.011 57.4686 229.854 57.1195 229.541C56.7775 229.227 56.6066 228.703 56.6066 227.97ZM57.3439 228.226C57.3439 228.668 57.4614 228.967 57.6965 229.124C57.8746 229.238 58.1738 229.295 58.5941 229.295C59.0144 229.295 59.3849 229.263 59.7055 229.199C60.026 229.134 60.311 229.024 60.5603 228.867C61.0946 228.525 61.3618 227.995 61.3618 227.275C61.3618 226.848 61.2478 226.499 61.0198 226.228C60.7705 225.936 60.4428 225.79 60.0367 225.79C59.7589 225.84 59.4775 225.893 59.1925 225.95C58.9147 226.007 58.6511 226.117 58.4018 226.281C57.8604 226.63 57.5077 227.279 57.3439 228.226ZM67.5489 221.419C67.5489 222.103 67.5275 222.773 67.4848 223.428C67.4491 224.076 67.4135 224.714 67.3779 225.341C67.3494 225.961 67.3352 226.623 67.3352 227.329C67.3352 228.027 67.385 228.768 67.4848 229.551C67.4848 229.715 67.4527 229.833 67.3886 229.904C67.3316 229.975 67.2319 230.011 67.0894 230.011C66.7546 230.011 66.5871 229.733 66.5871 229.177V228.825C65.5756 229.58 64.7207 229.957 64.0225 229.957C63.7447 229.957 63.4598 229.89 63.1677 229.754C62.8827 229.619 62.612 229.345 62.3556 228.931C62.3199 228.76 62.3021 228.586 62.3021 228.408C62.3021 228.23 62.3342 228.016 62.3983 227.767C62.4695 227.51 62.6085 227.247 62.815 226.976C63.0288 226.705 63.2852 226.467 63.5844 226.26C64.2398 225.818 64.9487 225.597 65.7109 225.597C66.0386 225.597 66.3521 225.647 66.6513 225.747C66.6513 225.619 66.6584 225.394 66.6726 225.074C66.694 224.753 66.7154 224.415 66.7367 224.059C66.7795 223.133 66.808 222.588 66.8222 222.424C66.8365 222.253 66.8543 222.11 66.8757 221.996C66.9042 221.875 66.9433 221.772 66.9932 221.686C67.1001 221.508 67.2853 221.419 67.5489 221.419ZM63.0822 228.322C63.0822 228.885 63.2852 229.167 63.6913 229.167C63.7554 229.167 63.8266 229.159 63.905 229.145C64.1971 229.145 64.5568 229.06 64.9843 228.889C65.7964 228.568 66.2915 228.29 66.4696 228.055V226.634C66.4696 226.385 66.2666 226.26 65.8605 226.26C65.8106 226.253 65.743 226.249 65.6575 226.249C65.5791 226.249 65.4544 226.267 65.2835 226.303C65.1125 226.338 64.9202 226.402 64.7064 226.495C64.4927 226.588 64.2826 226.702 64.076 226.837C63.6414 227.129 63.3422 227.471 63.1784 227.863C63.1142 228.012 63.0822 228.166 63.0822 228.322ZM70.2844 229.252C70.9114 229.252 71.8553 228.967 73.1162 228.397C73.1946 228.397 73.2587 228.426 73.3085 228.483C73.3584 228.532 73.3833 228.593 73.3833 228.664C73.0984 229.149 72.5534 229.526 71.7484 229.797C70.9434 230.068 70.1918 230.114 69.4937 229.936C68.7029 229.729 68.2221 229.284 68.0511 228.6C68.0369 228.465 68.0297 228.283 68.0297 228.055C68.0297 227.827 68.0867 227.528 68.2007 227.158C68.3218 226.78 68.5248 226.424 68.8098 226.089C69.0948 225.754 69.4296 225.491 69.8143 225.298C70.199 225.106 70.6086 225.01 71.0431 225.01C71.4563 225.01 71.9194 225.152 72.4323 225.437C72.6745 225.572 72.8669 225.726 73.0093 225.897C73.1518 226.068 73.2231 226.242 73.2231 226.42C73.2231 226.47 73.2195 226.52 73.2124 226.57C73.1981 227.004 72.988 227.279 72.5819 227.393C72.4038 227.443 72.1972 227.467 71.9621 227.467L70.4234 227.403C69.9104 227.403 69.5186 227.514 69.2479 227.735C69.0912 227.856 68.9808 228.037 68.9167 228.28C69.0948 228.928 69.5507 229.252 70.2844 229.252ZM72.1865 225.95C72.0298 225.836 71.866 225.754 71.695 225.704C71.524 225.654 71.3815 225.629 71.2675 225.629C71.1536 225.629 70.9683 225.669 70.7119 225.747C70.4554 225.818 70.2275 225.9 70.028 225.993C69.5364 226.221 69.2907 226.459 69.2907 226.709C69.8606 226.759 70.288 226.784 70.573 226.784C71.3637 226.784 71.898 226.716 72.1758 226.581C72.3468 226.509 72.4323 226.42 72.4323 226.313C72.4323 226.185 72.3504 226.064 72.1865 225.95ZM74.2168 225.854C74.2026 225.469 74.1883 225.127 74.1741 224.828C74.1598 224.522 74.1492 224.297 74.142 224.155C74.142 224.005 74.085 223.645 73.9711 223.076C74.0352 222.99 74.0957 222.908 74.1527 222.83C74.2168 222.751 74.3059 222.712 74.4199 222.712C74.6692 222.712 74.8616 223.763 74.9969 225.865C75.0681 227.083 75.1038 228.301 75.1038 229.519C75.1038 229.847 74.8758 230.011 74.4199 230.011L74.3344 230C74.3344 229.63 74.3237 229.156 74.3023 228.579C74.281 228.002 74.2631 227.5 74.2489 227.072C74.2418 226.645 74.2311 226.239 74.2168 225.854ZM85.7041 226.089H86.0033C86.1244 226.089 86.2384 226.1 86.3453 226.121C86.4593 226.142 86.5162 226.221 86.5162 226.356C86.5661 226.641 86.3987 226.78 86.014 226.773C85.9072 226.766 85.8074 226.759 85.7148 226.752C85.6293 226.744 85.5581 226.744 85.5011 226.752C85.4441 226.752 85.4192 226.769 85.4263 226.805C85.4975 227.012 85.5723 227.243 85.6507 227.5C85.7362 227.756 85.8288 228.012 85.9285 228.269C86.185 228.903 86.4272 229.359 86.6552 229.637C86.5341 229.786 86.3916 229.911 86.2277 230.011C86.071 230.11 85.9855 230.16 85.9713 230.16C85.9641 230.16 85.957 230.157 85.9499 230.15L84.4432 226.976L81.526 227.692L81.4191 228.141C81.2125 228.96 80.981 229.53 80.7245 229.85C80.6818 229.922 80.5927 229.929 80.4574 229.872C80.2294 229.786 80.1154 229.715 80.1154 229.658C80.1154 229.644 80.1902 229.437 80.3398 229.038C80.4894 228.639 80.639 228.237 80.7886 227.831C80.9454 227.418 81.1056 226.987 81.2695 226.538C81.4405 226.089 81.6008 225.662 81.7504 225.255C81.9 224.849 82.0353 224.486 82.1564 224.166C82.2775 223.838 82.363 223.603 82.4129 223.46C82.4627 223.311 82.4948 223.182 82.5091 223.076C82.5304 222.962 82.5589 222.865 82.5945 222.787C82.6658 222.623 82.8439 222.541 83.1288 222.541C83.4352 222.712 83.6702 222.937 83.8341 223.214C84.0051 223.485 84.1475 223.777 84.2615 224.091C84.3826 224.404 84.5002 224.721 84.6142 225.042C84.7281 225.362 84.8813 225.654 85.0737 225.918C85.1378 226.018 85.2339 226.071 85.3622 226.078C85.4904 226.085 85.6044 226.089 85.7041 226.089ZM83.0327 223.781C82.9757 224.215 82.8474 224.661 82.648 225.117C82.4485 225.572 82.2882 225.929 82.1671 226.185C82.046 226.434 81.9427 226.666 81.8572 226.88C82.3416 226.88 82.9365 226.737 83.6418 226.452C83.8199 226.374 83.9908 226.303 84.1547 226.239C83.8199 224.807 83.4458 223.987 83.0327 223.781Z" fill="#191919"/>
<path d="M234.314 228.215L234.357 228.996C234.357 229.038 234.354 229.117 234.346 229.231C234.346 229.345 234.304 229.448 234.218 229.541C234.14 229.626 234.04 229.669 233.919 229.669C233.805 229.669 233.716 229.665 233.652 229.658C233.417 229.658 233.299 229.555 233.299 229.348C233.299 229.177 233.378 228.49 233.534 227.286C233.691 226.075 233.791 225.295 233.833 224.946C233.876 224.597 233.912 224.304 233.94 224.069C233.976 223.827 234.001 223.649 234.015 223.535C234.029 223.421 234.051 223.307 234.079 223.193C234.108 223.079 234.151 222.987 234.208 222.915C234.314 222.78 234.521 222.712 234.827 222.712C235.34 222.969 235.867 223.695 236.409 224.892C236.793 225.747 237.05 226.288 237.178 226.516C237.306 226.744 237.431 226.901 237.552 226.987L239.689 223.268C239.839 223.161 239.953 223.108 240.031 223.108C240.259 223.108 240.434 223.211 240.555 223.418C240.676 223.624 240.776 223.877 240.854 224.176C240.94 224.468 241.011 224.792 241.068 225.149C241.132 225.505 241.185 225.879 241.228 226.271C241.278 226.655 241.324 227.033 241.367 227.403C241.467 228.294 241.542 228.853 241.591 229.081C241.648 229.309 241.677 229.473 241.677 229.573C241.677 229.665 241.645 229.758 241.581 229.85C241.517 229.936 241.428 229.979 241.314 229.979C241.2 229.979 241.086 229.936 240.972 229.85C240.858 229.758 240.786 229.647 240.758 229.519C240.737 229.384 240.712 229.209 240.683 228.996C240.662 228.782 240.633 228.543 240.598 228.28C240.562 228.009 240.526 227.727 240.491 227.435C240.455 227.136 240.42 226.851 240.384 226.581C240.348 226.31 240.316 226.071 240.288 225.865C240.259 225.651 240.238 225.491 240.224 225.384C240.224 225.241 240.22 225.109 240.213 224.988C240.206 224.867 240.177 224.792 240.127 224.764C240.078 224.735 239.999 224.771 239.892 224.871C239.793 224.963 239.65 225.156 239.465 225.448C239.066 226.068 238.489 227.111 237.734 228.579C237.634 228.757 237.502 228.796 237.338 228.696C237.146 228.589 236.982 228.315 236.847 227.874L234.881 223.695C234.71 224.037 234.553 225.17 234.411 227.093C234.389 227.329 234.375 227.528 234.368 227.692C234.332 227.87 234.314 228.044 234.314 228.215ZM242.607 227.97C242.607 227.129 242.97 226.452 243.697 225.939C244.274 225.533 244.968 225.288 245.78 225.202C245.823 225.202 245.923 225.202 246.079 225.202C246.236 225.202 246.446 225.248 246.71 225.341C247.294 225.54 247.693 225.893 247.907 226.399C247.992 226.598 248.035 226.769 248.035 226.912C248.035 227.047 248.031 227.143 248.024 227.2C248.024 228.091 247.686 228.792 247.009 229.305C246.382 229.776 245.599 230.011 244.658 230.011C243.981 230.011 243.469 229.854 243.119 229.541C242.778 229.227 242.607 228.703 242.607 227.97ZM243.344 228.226C243.344 228.668 243.461 228.967 243.697 229.124C243.875 229.238 244.174 229.295 244.594 229.295C245.014 229.295 245.385 229.263 245.705 229.199C246.026 229.134 246.311 229.024 246.56 228.867C247.095 228.525 247.362 227.995 247.362 227.275C247.362 226.848 247.248 226.499 247.02 226.228C246.77 225.936 246.443 225.79 246.037 225.79C245.759 225.84 245.478 225.893 245.193 225.95C244.915 226.007 244.651 226.117 244.402 226.281C243.86 226.63 243.508 227.279 243.344 228.226ZM253.549 221.419C253.549 222.103 253.528 222.773 253.485 223.428C253.449 224.076 253.414 224.714 253.378 225.341C253.349 225.961 253.335 226.623 253.335 227.329C253.335 228.027 253.385 228.768 253.485 229.551C253.485 229.715 253.453 229.833 253.389 229.904C253.332 229.975 253.232 230.011 253.089 230.011C252.755 230.011 252.587 229.733 252.587 229.177V228.825C251.576 229.58 250.721 229.957 250.023 229.957C249.745 229.957 249.46 229.89 249.168 229.754C248.883 229.619 248.612 229.345 248.356 228.931C248.32 228.76 248.302 228.586 248.302 228.408C248.302 228.23 248.334 228.016 248.398 227.767C248.47 227.51 248.608 227.247 248.815 226.976C249.029 226.705 249.285 226.467 249.584 226.26C250.24 225.818 250.949 225.597 251.711 225.597C252.039 225.597 252.352 225.647 252.651 225.747C252.651 225.619 252.658 225.394 252.673 225.074C252.694 224.753 252.715 224.415 252.737 224.059C252.779 223.133 252.808 222.588 252.822 222.424C252.836 222.253 252.854 222.11 252.876 221.996C252.904 221.875 252.943 221.772 252.993 221.686C253.1 221.508 253.285 221.419 253.549 221.419ZM249.082 228.322C249.082 228.885 249.285 229.167 249.691 229.167C249.755 229.167 249.827 229.159 249.905 229.145C250.197 229.145 250.557 229.06 250.984 228.889C251.796 228.568 252.292 228.29 252.47 228.055V226.634C252.47 226.385 252.267 226.26 251.861 226.26C251.811 226.253 251.743 226.249 251.657 226.249C251.579 226.249 251.454 226.267 251.283 226.303C251.113 226.338 250.92 226.402 250.706 226.495C250.493 226.588 250.283 226.702 250.076 226.837C249.641 227.129 249.342 227.471 249.178 227.863C249.114 228.012 249.082 228.166 249.082 228.322ZM256.284 229.252C256.911 229.252 257.855 228.967 259.116 228.397C259.195 228.397 259.259 228.426 259.309 228.483C259.358 228.532 259.383 228.593 259.383 228.664C259.098 229.149 258.553 229.526 257.748 229.797C256.943 230.068 256.192 230.114 255.494 229.936C254.703 229.729 254.222 229.284 254.051 228.6C254.037 228.465 254.03 228.283 254.03 228.055C254.03 227.827 254.087 227.528 254.201 227.158C254.322 226.78 254.525 226.424 254.81 226.089C255.095 225.754 255.43 225.491 255.814 225.298C256.199 225.106 256.609 225.01 257.043 225.01C257.456 225.01 257.919 225.152 258.432 225.437C258.675 225.572 258.867 225.726 259.009 225.897C259.152 226.068 259.223 226.242 259.223 226.42C259.223 226.47 259.219 226.52 259.212 226.57C259.198 227.004 258.988 227.279 258.582 227.393C258.404 227.443 258.197 227.467 257.962 227.467L256.423 227.403C255.91 227.403 255.519 227.514 255.248 227.735C255.091 227.856 254.981 228.037 254.917 228.28C255.095 228.928 255.551 229.252 256.284 229.252ZM258.187 225.95C258.03 225.836 257.866 225.754 257.695 225.704C257.524 225.654 257.382 225.629 257.268 225.629C257.154 225.629 256.968 225.669 256.712 225.747C256.455 225.818 256.227 225.9 256.028 225.993C255.536 226.221 255.291 226.459 255.291 226.709C255.861 226.759 256.288 226.784 256.573 226.784C257.364 226.784 257.898 226.716 258.176 226.581C258.347 226.509 258.432 226.42 258.432 226.313C258.432 226.185 258.35 226.064 258.187 225.95ZM260.217 225.854C260.203 225.469 260.188 225.127 260.174 224.828C260.16 224.522 260.149 224.297 260.142 224.155C260.142 224.005 260.085 223.645 259.971 223.076C260.035 222.99 260.096 222.908 260.153 222.83C260.217 222.751 260.306 222.712 260.42 222.712C260.669 222.712 260.862 223.763 260.997 225.865C261.068 227.083 261.104 228.301 261.104 229.519C261.104 229.847 260.876 230.011 260.42 230.011L260.334 230C260.334 229.63 260.324 229.156 260.302 228.579C260.281 228.002 260.263 227.5 260.249 227.072C260.242 226.645 260.231 226.239 260.217 225.854ZM266.532 222.905C267.059 222.791 267.558 222.734 268.028 222.734C268.498 222.734 268.915 222.751 269.278 222.787C269.649 222.823 270.019 222.89 270.39 222.99C271.173 223.211 271.658 223.51 271.843 223.888C271.893 223.966 271.918 224.059 271.918 224.166C271.918 224.479 271.644 224.817 271.095 225.181C270.732 225.423 270.212 225.669 269.535 225.918C271.195 226.011 272.32 226.253 272.912 226.645C273.239 226.851 273.403 227.093 273.403 227.371C273.403 227.756 273.132 228.155 272.591 228.568C272 229.01 271.245 229.377 270.326 229.669C269.478 229.939 268.691 230.075 267.964 230.075C267.408 230.075 266.931 229.993 266.532 229.829C266.518 229.373 266.5 228.903 266.479 228.418C266.422 227.343 266.393 226.438 266.393 225.704C266.393 224.963 266.418 224.194 266.468 223.396C266.39 223.396 266.318 223.389 266.254 223.375C266.19 223.353 266.158 223.282 266.158 223.161C266.158 222.99 266.283 222.905 266.532 222.905ZM267.494 229.295C268.641 229.231 269.581 229.095 270.315 228.889C271.049 228.675 271.576 228.447 271.896 228.205C272.224 227.955 272.388 227.717 272.388 227.489C272.388 227.19 272.174 226.951 271.747 226.773C271.284 226.588 270.668 226.495 269.898 226.495C269.136 226.495 268.249 226.598 267.237 226.805L267.494 229.295ZM268.488 223.428H268.221C267.636 223.428 267.309 223.489 267.237 223.61L267.131 225.758C267.772 225.758 268.552 225.605 269.471 225.298C270.069 225.092 270.507 224.864 270.785 224.614C270.928 224.486 270.999 224.354 270.999 224.219C270.999 224.084 270.945 223.973 270.839 223.888C270.739 223.795 270.607 223.72 270.443 223.663C270.286 223.606 270.108 223.564 269.909 223.535C269.717 223.499 269.528 223.475 269.343 223.46C269.058 223.439 268.773 223.428 268.488 223.428Z" fill="#191919"/>
<path d="M201.229 134.226C200.975 134.092 200.66 134.191 200.526 134.445L198.347 138.598C198.213 138.853 198.311 139.168 198.566 139.301C198.821 139.435 199.136 139.337 199.269 139.082L201.206 135.391L204.898 137.328C205.152 137.462 205.467 137.364 205.601 137.109C205.735 136.854 205.637 136.539 205.382 136.405L201.229 134.226ZM240.588 155.009C224.155 155.008 214.382 149.839 208.723 144.722C205.888 142.158 204.074 139.598 202.971 137.684C202.419 136.727 202.045 135.932 201.81 135.379C201.693 135.103 201.61 134.888 201.558 134.743C201.531 134.671 201.513 134.616 201.501 134.581C201.495 134.563 201.49 134.55 201.488 134.542C201.486 134.538 201.485 134.535 201.485 134.533C201.485 134.533 201.485 134.532 201.485 134.532C201.485 134.532 201.485 134.532 201.485 134.532C201.485 134.532 201.485 134.533 200.987 134.688C200.49 134.843 200.49 134.843 200.49 134.844C200.49 134.844 200.49 134.844 200.49 134.845C200.491 134.846 200.491 134.847 200.492 134.849C200.493 134.853 200.494 134.857 200.496 134.863C200.5 134.875 200.506 134.892 200.513 134.914C200.528 134.957 200.549 135.02 200.579 135.1C200.637 135.261 200.727 135.493 200.851 135.787C201.101 136.374 201.493 137.207 202.068 138.204C203.217 140.198 205.096 142.848 208.024 145.495C213.888 150.798 223.915 156.05 240.588 156.051L240.588 155.009Z" fill="#191919"/>
<path d="M267.165 57.8619C267.453 57.8778 267.698 57.6577 267.714 57.3704L267.973 52.6879C267.988 52.4006 267.768 52.1548 267.481 52.139C267.194 52.1231 266.948 52.3432 266.932 52.6305L266.702 56.7927L262.54 56.5632C262.253 56.5473 262.007 56.7674 261.991 57.0547C261.975 57.3421 262.196 57.5879 262.483 57.6037L267.165 57.8619ZM222.122 51.923C240.367 50.127 251.578 51.612 258.206 53.5233C261.519 54.4788 263.687 55.5406 265.016 56.3523C265.681 56.7582 266.137 57.102 266.422 57.3394C266.565 57.4581 266.665 57.5503 266.727 57.6104C266.758 57.6405 266.78 57.6625 266.793 57.6759C266.8 57.6826 266.804 57.6871 266.806 57.6894C266.807 57.6905 266.807 57.691 266.807 57.691C266.807 57.691 266.807 57.6909 266.807 57.6906C266.807 57.6904 266.807 57.6901 266.807 57.69C266.806 57.6897 266.806 57.6893 267.194 57.3417C267.582 56.9941 267.582 56.9936 267.581 56.9931C267.581 56.9929 267.581 56.9923 267.58 56.9919C267.579 56.991 267.578 56.99 267.577 56.9888C267.575 56.9865 267.573 56.9836 267.569 56.9802C267.563 56.9733 267.555 56.9642 267.544 56.9529C267.522 56.9304 267.491 56.8994 267.451 56.8605C267.37 56.7826 267.251 56.6734 267.089 56.5383C266.764 56.2681 266.267 55.8949 265.559 55.4629C264.144 54.5987 261.89 53.501 258.495 52.522C251.707 50.5645 240.357 49.0808 222.02 50.8859L222.122 51.923Z" fill="#191919"/>
<g opacity="0.3">
<g style="mix-blend-mode:plus-darker">
<path d="M302.821 242.5C317.354 231.998 329.62 224.937 342.164 222.702C352.199 220.914 361.847 221.957 365.417 222.702" stroke="#B1B1B1"/>
</g>
<g style="mix-blend-mode:plus-darker">
<path d="M303 242.998C317.395 230.366 329.544 221.873 341.969 219.185C351.909 217.035 361.464 218.289 365 219.185" stroke="#B1B1B1"/>
</g>
<g style="mix-blend-mode:plus-darker">
<path d="M303 241.998C317.395 227.85 329.544 218.338 341.969 215.328C351.909 212.92 361.464 214.324 365 215.328" stroke="#B1B1B1"/>
</g>
<g style="mix-blend-mode:plus-darker">
<path d="M303 242C317.395 224.82 329.544 213.27 341.969 209.615C351.909 206.69 361.464 208.396 365 209.615" stroke="#B1B1B1"/>
</g>
<g style="mix-blend-mode:plus-darker">
<path d="M303 242C317.395 222.799 329.544 209.89 341.969 205.805C351.909 202.536 361.464 204.443 365 205.805" stroke="#B1B1B1"/>
</g>
<g style="mix-blend-mode:plus-darker">
<path d="M303 242C317.395 220.778 329.544 206.51 341.969 201.995C351.909 198.382 361.464 200.489 365 201.995" stroke="#B1B1B1"/>
</g>
</g>
<path d="M204 272C238 242.5 278 264.498 303.495 241.742C317.874 228.907 330.037 215.917 342.618 213.199C352.683 211.024 362.359 212.293 365.939 213.199" stroke="#656565" stroke-width="1.43348"/>
<circle cx="203.433" cy="268.062" r="1.67239" fill="#191919" stroke="white" stroke-width="0.477826"/>
<circle cx="211.078" cy="262.807" r="1.67239" fill="#191919" stroke="white" stroke-width="0.477826"/>
<circle cx="218.724" cy="260.418" r="1.67239" fill="#191919" stroke="white" stroke-width="0.477826"/>
<circle cx="226.369" cy="259.939" r="1.67239" fill="#191919" stroke="white" stroke-width="0.477826"/>
<circle cx="234.015" cy="258.984" r="1.67239" fill="#191919" stroke="white" stroke-width="0.477826"/>
<circle cx="241.66" cy="258.029" r="1.67239" fill="#191919" stroke="white" stroke-width="0.477826"/>
<circle cx="249.305" cy="257.072" r="1.67239" fill="#191919" stroke="white" stroke-width="0.477826"/>
<circle cx="256.949" cy="256.117" r="1.67239" fill="#191919" stroke="white" stroke-width="0.477826"/>
<circle cx="264.596" cy="254.683" r="1.67239" fill="#191919" stroke="white" stroke-width="0.477826"/>
<circle cx="272.24" cy="253.25" r="1.67239" fill="#191919" stroke="white" stroke-width="0.477826"/>
<circle cx="279.886" cy="251.338" r="1.67239" fill="#191919" stroke="white" stroke-width="0.477826"/>
<circle cx="287.53" cy="249.428" r="1.67239" fill="#191919" stroke="white" stroke-width="0.477826"/>
<circle cx="295.177" cy="246.56" r="1.67239" fill="#191919" stroke="white" stroke-width="0.477826"/>
<circle cx="295.177" cy="246.56" r="1.67239" fill="#191919" stroke="white" stroke-width="0.477826"/>
<circle cx="295.177" cy="246.082" r="1.67239" fill="#191919" stroke="white" stroke-width="0.477826"/>
<circle cx="302.821" cy="242.26" r="1.67239" fill="#191919" stroke="white" stroke-width="0.477826"/>
<circle cx="302.821" cy="242.26" r="1.67239" fill="#191919" stroke="white" stroke-width="0.477826"/>
<circle cx="302.821" cy="242.26" r="1.67239" fill="#191919" stroke="white" stroke-width="0.477826"/>
<g opacity="0.3">
<g style="mix-blend-mode:plus-darker">
<path d="M110.821 242.5C125.354 231.998 137.62 224.937 150.164 222.702C160.199 220.914 169.847 221.957 173.417 222.702" stroke="#B1B1B1"/>
</g>
<g style="mix-blend-mode:plus-darker">
<path d="M111 242.998C125.395 230.366 137.544 221.873 149.969 219.185C159.909 217.035 169.464 218.289 173 219.185" stroke="#B1B1B1"/>
</g>
<g style="mix-blend-mode:plus-darker">
<path d="M111 241.998C125.395 227.85 137.544 218.338 149.969 215.328C159.909 212.92 169.464 214.324 173 215.328" stroke="#B1B1B1"/>
</g>
<g style="mix-blend-mode:plus-darker">
<path d="M111 242C125.395 224.82 137.544 213.27 149.969 209.615C159.909 206.69 169.464 208.396 173 209.615" stroke="#B1B1B1"/>
</g>
<g style="mix-blend-mode:plus-darker">
<path d="M111 242C125.395 222.799 137.544 209.89 149.969 205.805C159.909 202.536 169.464 204.443 173 205.805" stroke="#B1B1B1"/>
</g>
<g style="mix-blend-mode:plus-darker">
<path d="M111 242C125.395 220.778 137.544 206.51 149.969 201.995C159.909 198.382 169.464 200.489 173 201.995" stroke="#B1B1B1"/>
</g>
</g>
<path d="M10.5 264.498C32 248.998 86 264.498 111.495 241.742C125.874 228.907 138.037 215.917 150.618 213.199C160.683 211.024 170.359 212.293 173.939 213.199" stroke="#656565" stroke-width="1.43348"/>
<circle cx="11.4335" cy="268.062" r="1.67239" fill="#191919" stroke="white" stroke-width="0.477826"/>
<circle cx="19.078" cy="262.807" r="1.67239" fill="#191919" stroke="white" stroke-width="0.477826"/>
<circle cx="26.7235" cy="260.418" r="1.67239" fill="#191919" stroke="white" stroke-width="0.477826"/>
<circle cx="34.369" cy="259.939" r="1.67239" fill="#191919" stroke="white" stroke-width="0.477826"/>
<circle cx="42.0145" cy="258.984" r="1.67239" fill="#191919" stroke="white" stroke-width="0.477826"/>
<circle cx="49.66" cy="258.029" r="1.67239" fill="#191919" stroke="white" stroke-width="0.477826"/>
<circle cx="57.3046" cy="257.072" r="1.67239" fill="#191919" stroke="white" stroke-width="0.477826"/>
<circle cx="64.9491" cy="256.117" r="1.67239" fill="#191919" stroke="white" stroke-width="0.477826"/>
<circle cx="72.5956" cy="254.683" r="1.67239" fill="#191919" stroke="white" stroke-width="0.477826"/>
<circle cx="80.2401" cy="253.25" r="1.67239" fill="#191919" stroke="white" stroke-width="0.477826"/>
<circle cx="87.8856" cy="251.338" r="1.67239" fill="#191919" stroke="white" stroke-width="0.477826"/>
<circle cx="95.5302" cy="249.428" r="1.67239" fill="#191919" stroke="white" stroke-width="0.477826"/>
<circle cx="103.177" cy="246.56" r="1.67239" fill="#191919" stroke="white" stroke-width="0.477826"/>
<circle cx="103.177" cy="246.56" r="1.67239" fill="#191919" stroke="white" stroke-width="0.477826"/>
<circle cx="103.177" cy="246.082" r="1.67239" fill="#191919" stroke="white" stroke-width="0.477826"/>
<circle cx="110.821" cy="242.26" r="1.67239" fill="#191919" stroke="white" stroke-width="0.477826"/>
<circle cx="110.821" cy="242.26" r="1.67239" fill="#191919" stroke="white" stroke-width="0.477826"/>
<circle cx="110.821" cy="242.26" r="1.67239" fill="#191919" stroke="white" stroke-width="0.477826"/>
</svg>
