<svg width="377" height="218" viewBox="0 0 377 218" fill="none" xmlns="http://www.w3.org/2000/svg">
<path d="M4.16406 73.8936C4.04102 73.8936 3.97949 73.7876 3.97949 73.5757C3.97949 73.4731 3.99316 73.3774 4.02051 73.2886C4.05469 73.2065 4.08203 73.1553 4.10254 73.1348L5.41504 73.2373C4.875 72.6084 4.53662 72.1504 4.3999 71.8633C4.17432 71.4121 4.06152 70.9507 4.06152 70.479C4.06152 70.3901 4.06494 70.2979 4.07178 70.2021C4.18115 69.2041 4.82031 68.7051 5.98926 68.7051C6.52246 68.7051 7.42822 68.8418 8.70654 69.1152C9.10303 69.2041 9.46533 69.2622 9.79346 69.2896C9.80029 69.3101 9.80371 69.3545 9.80371 69.4229C9.80371 69.4229 9.80371 69.4639 9.80371 69.5459C9.81055 69.5801 9.81396 69.6108 9.81396 69.6382C9.81396 69.8569 9.6499 69.9663 9.32178 69.9663C9.09619 69.9663 8.81592 69.9219 8.48096 69.833C7.38037 69.5596 6.61816 69.4229 6.19434 69.4229C5.75 69.4229 5.40137 69.5391 5.14844 69.7715C4.98438 69.9219 4.88525 70.1577 4.85107 70.479C4.85107 70.52 4.85107 70.561 4.85107 70.6021C4.85107 71.7163 5.3877 72.4478 6.46094 72.7964C7.08984 73.0015 7.84863 73.1211 8.7373 73.1553C9.14746 73.1758 9.5542 73.1929 9.95752 73.2065C10.1626 73.2817 10.2651 73.3843 10.2651 73.5142C10.2651 73.644 10.207 73.7876 10.0908 73.9448C9.69434 73.9653 9.30469 73.9756 8.92188 73.9756L5.00488 73.873C4.72461 73.873 4.44434 73.8799 4.16406 73.8936ZM6.24561 78.6719C7.05908 78.6719 7.65723 78.6274 8.04004 78.5386C8.14258 78.5933 8.19385 78.5112 8.19385 78.2925C8.19385 78.0601 8.13574 77.7593 8.01953 77.3901C7.90332 77.021 7.78711 76.7202 7.6709 76.4878C7.4043 75.9341 7.14453 75.6265 6.8916 75.5649H4.10254V74.8779C4.33496 74.7891 4.98779 74.7446 6.06104 74.7446C7.01807 74.7446 7.72217 74.7617 8.17334 74.7959C8.62451 74.8369 8.88086 74.8677 8.94238 74.8882C9.05859 75.0659 9.1167 75.2095 9.1167 75.3188C9.1167 75.4897 8.91504 75.5752 8.51172 75.5752C8.35449 75.5752 8.20068 75.5649 8.05029 75.5444C7.90674 75.5308 7.80762 75.5239 7.75293 75.5239C8.56641 76.6313 8.97314 77.4893 8.97314 78.0977C8.97314 78.7881 8.41602 79.1812 7.30176 79.2769C6.91211 79.3179 6.37207 79.3384 5.68164 79.3384L4.87158 79.3281C4.5708 79.3281 4.28027 79.335 4 79.3486C3.95898 79.2803 3.93848 79.2256 3.93848 79.1846C3.94531 79.1641 3.95557 79.1196 3.96924 79.0513C3.98291 78.9829 3.99316 78.894 4 78.7847C4.27344 78.7163 4.55029 78.6787 4.83057 78.6719C5.11768 78.665 5.38086 78.6616 5.62012 78.6616L6.24561 78.6719ZM8.81934 80.8457C7.54102 80.9346 6.06104 81.0098 4.37939 81.0713C4.16748 81.0303 4.06152 80.8662 4.06152 80.5791C4.06152 80.5039 4.0752 80.4253 4.10254 80.3433C4.13672 80.2681 4.18115 80.2202 4.23584 80.1997H8.81934V80.8457ZM10.2139 79.8921C10.4531 79.8921 10.5728 80.0322 10.5728 80.3125C10.5728 80.4971 10.5317 80.6475 10.4497 80.7637C10.3745 80.7842 10.2993 80.7944 10.2241 80.7944C10.1558 80.7944 10.0874 80.7671 10.019 80.7124C9.95068 80.6577 9.9165 80.5757 9.9165 80.4663C9.9165 80.3569 9.94043 80.2476 9.98828 80.1382C10.043 80.0288 10.1182 79.9468 10.2139 79.8921ZM4.98438 83.0605L6.625 83.0811C6.88477 83.0811 7.10693 83.0571 7.2915 83.0093V81.4199L7.99902 81.3994V82.9375H10.6445C10.7061 82.958 10.7676 82.999 10.8291 83.0605C10.9248 83.1562 10.9727 83.2349 10.9727 83.2964C10.9727 83.3647 10.9658 83.4229 10.9521 83.4707C10.9385 83.5186 10.8906 83.5698 10.8086 83.6245C10.3574 83.7339 9.67725 83.7886 8.76807 83.7886C8.54248 83.7886 8.32031 83.7988 8.10156 83.8193C8.12891 84.0381 8.14258 84.2568 8.14258 84.4756C8.14258 84.4756 8.14258 84.6533 8.14258 85.0088C8.14258 85.1387 8.14941 85.2583 8.16309 85.3677L7.4248 85.3369L7.46582 83.8398L3.92822 83.8911C3.87354 83.7681 3.84619 83.6621 3.84619 83.5732C3.84619 83.2314 4.22559 83.0605 4.98438 83.0605ZM6.64551 89.2642C6.64551 90.0161 6.4541 90.3921 6.07129 90.3921C5.78418 90.3921 5.44922 90.1836 5.06641 89.7666C4.49902 89.1445 4.04443 88.3071 3.70264 87.2544C3.70264 87.2065 3.75049 87.1519 3.84619 87.0903C3.94189 87.0356 4.01367 86.9912 4.06152 86.957C4.11621 86.9297 4.15039 86.9092 4.16406 86.8955C4.42383 87.6816 4.73828 88.3276 5.10742 88.8335C5.35352 89.1753 5.55518 89.3462 5.7124 89.3462C5.86963 89.3462 5.94824 89.1445 5.94824 88.7412C5.94824 88.3379 5.85254 87.7466 5.66113 86.9673C5.6748 86.6118 5.80127 86.3042 6.04053 86.0444C6.25244 85.8188 6.46436 85.7061 6.67627 85.7061C6.89502 85.7061 7.09326 85.7676 7.271 85.8906C7.45557 86.0137 7.62646 86.1777 7.78369 86.3828C7.94092 86.5879 8.08447 86.8271 8.21436 87.1006C8.53564 87.7705 8.69629 88.4644 8.69629 89.1821C8.69629 89.394 8.67578 89.5991 8.63477 89.7974C8.63477 89.9614 8.56299 90.0571 8.41943 90.0845C8.27588 90.1118 8.04004 90.1255 7.71191 90.1255C7.89648 89.7222 7.98877 89.2676 7.98877 88.7617C7.98877 88.1328 7.8623 87.6133 7.60938 87.2031C7.36328 86.7793 7.04199 86.5605 6.64551 86.5469C6.4541 86.5469 6.3584 86.687 6.3584 86.9673L6.44043 87.7158C6.57715 88.3584 6.64551 88.8745 6.64551 89.2642ZM5.94824 95.4883C6.75488 95.4883 7.4043 95.8369 7.89648 96.5342C8.28613 97.0879 8.52197 97.7544 8.604 98.5337C8.604 98.5747 8.604 98.6704 8.604 98.8208C8.604 98.9712 8.55957 99.1729 8.4707 99.4258C8.2793 99.9863 7.94092 100.369 7.45557 100.574C7.26416 100.656 7.1001 100.697 6.96338 100.697C6.8335 100.697 6.74121 100.694 6.68652 100.687C5.83203 100.687 5.15869 100.362 4.6665 99.7129C4.21533 99.1113 3.98975 98.3594 3.98975 97.457C3.98975 96.8076 4.14014 96.3154 4.44092 95.9805C4.7417 95.6523 5.24414 95.4883 5.94824 95.4883ZM5.70215 96.1958C5.27832 96.1958 4.99121 96.3086 4.84082 96.5342C4.73145 96.7051 4.67676 96.9922 4.67676 97.3955C4.67676 97.7988 4.70752 98.1543 4.76904 98.4619C4.83057 98.7695 4.93652 99.043 5.08691 99.2822C5.41504 99.7949 5.92432 100.051 6.61475 100.051C7.0249 100.051 7.35986 99.9419 7.61963 99.7231C7.8999 99.4839 8.04004 99.1694 8.04004 98.7798C7.99219 98.5132 7.94092 98.2432 7.88623 97.9697C7.83154 97.7031 7.72559 97.4502 7.56836 97.2109C7.2334 96.6914 6.61133 96.353 5.70215 96.1958ZM7.4248 107.024C7.4248 107.058 7.33252 107.075 7.14795 107.075C6.96338 107.075 6.83691 107.082 6.76855 107.096L6.33789 103.579L4.06152 103.763L4.10254 102.933C4.71777 102.933 5.42188 102.864 6.21484 102.728L5.70215 101.395C5.70215 101.306 5.75342 101.23 5.85596 101.169C6.03369 101.06 6.19434 101.005 6.33789 101.005L6.8916 102.563C8.06738 102.427 9.021 102.358 9.75244 102.358C10.4907 102.358 11.0649 102.42 11.4751 102.543C11.8853 102.666 12.1587 102.844 12.2954 103.076C12.439 103.315 12.5107 103.568 12.5107 103.835C12.5107 104.102 12.4526 104.372 12.3364 104.645C12.2202 104.925 12.0732 105.192 11.8955 105.445C11.7178 105.698 11.5161 105.913 11.2905 106.091C11.0718 106.269 10.8564 106.357 10.6445 106.357C10.4805 106.357 10.3643 106.34 10.2959 106.306C10.6787 106.033 11.0205 105.701 11.3213 105.312C11.6768 104.847 11.8545 104.409 11.8545 103.999C11.8545 103.609 11.5776 103.35 11.0239 103.22C10.7368 103.158 10.3301 103.127 9.80371 103.127C9.28418 103.127 8.80566 103.141 8.36816 103.168C7.9375 103.196 7.50342 103.278 7.06592 103.415C7.06592 103.838 7.10352 104.313 7.17871 104.84C7.33594 105.852 7.41797 106.58 7.4248 107.024ZM8.81934 112.5C7.54102 112.588 6.06104 112.664 4.37939 112.725C4.16748 112.684 4.06152 112.52 4.06152 112.233C4.06152 112.158 4.0752 112.079 4.10254 111.997C4.13672 111.922 4.18115 111.874 4.23584 111.854H8.81934V112.5ZM10.2139 111.546C10.4531 111.546 10.5728 111.686 10.5728 111.966C10.5728 112.151 10.5317 112.301 10.4497 112.417C10.3745 112.438 10.2993 112.448 10.2241 112.448C10.1558 112.448 10.0874 112.421 10.019 112.366C9.95068 112.312 9.9165 112.229 9.9165 112.12C9.9165 112.011 9.94043 111.901 9.98828 111.792C10.043 111.683 10.1182 111.601 10.2139 111.546ZM6.24561 117.165C7.05908 117.165 7.65723 117.121 8.04004 117.032C8.14258 117.086 8.19385 117.004 8.19385 116.786C8.19385 116.553 8.13574 116.252 8.01953 115.883C7.90332 115.514 7.78711 115.213 7.6709 114.981C7.4043 114.427 7.14453 114.12 6.8916 114.058H4.10254V113.371C4.33496 113.282 4.98779 113.238 6.06104 113.238C7.01807 113.238 7.72217 113.255 8.17334 113.289C8.62451 113.33 8.88086 113.361 8.94238 113.381C9.05859 113.559 9.1167 113.703 9.1167 113.812C9.1167 113.983 8.91504 114.068 8.51172 114.068C8.35449 114.068 8.20068 114.058 8.05029 114.038C7.90674 114.024 7.80762 114.017 7.75293 114.017C8.56641 115.125 8.97314 115.982 8.97314 116.591C8.97314 117.281 8.41602 117.674 7.30176 117.77C6.91211 117.811 6.37207 117.832 5.68164 117.832L4.87158 117.821C4.5708 117.821 4.28027 117.828 4 117.842C3.95898 117.773 3.93848 117.719 3.93848 117.678C3.94531 117.657 3.95557 117.613 3.96924 117.544C3.98291 117.476 3.99316 117.387 4 117.278C4.27344 117.209 4.55029 117.172 4.83057 117.165C5.11768 117.158 5.38086 117.155 5.62012 117.155L6.24561 117.165ZM4.98438 119.964L6.625 119.985C6.88477 119.985 7.10693 119.961 7.2915 119.913L7.2915 118.324L7.99902 118.303L7.99902 119.841H10.6445C10.7061 119.862 10.7676 119.903 10.8291 119.964C10.9248 120.06 10.9727 120.139 10.9727 120.2C10.9727 120.269 10.9658 120.327 10.9521 120.375C10.9385 120.422 10.8906 120.474 10.8086 120.528C10.3574 120.638 9.67725 120.692 8.76807 120.692C8.54248 120.692 8.32031 120.703 8.10156 120.723C8.12891 120.942 8.14258 121.161 8.14258 121.379C8.14258 121.379 8.14258 121.557 8.14258 121.913C8.14258 122.042 8.14941 122.162 8.16309 122.271L7.4248 122.241L7.46582 120.744L3.92822 120.795C3.87354 120.672 3.84619 120.566 3.84619 120.477C3.84619 120.135 4.22559 119.964 4.98438 119.964ZM4.71777 124.753C4.71777 125.354 4.99121 126.26 5.53809 127.47C5.53809 127.545 5.51074 127.607 5.45605 127.655C5.4082 127.703 5.3501 127.727 5.28174 127.727C4.81689 127.453 4.45459 126.93 4.19482 126.158C3.93506 125.385 3.89063 124.664 4.06152 123.994C4.25977 123.235 4.68701 122.774 5.34326 122.61C5.47314 122.596 5.64746 122.589 5.86621 122.589C6.08496 122.589 6.37207 122.644 6.72754 122.753C7.08984 122.87 7.43164 123.064 7.75293 123.338C8.07422 123.611 8.32715 123.933 8.51172 124.302C8.69629 124.671 8.78857 125.064 8.78857 125.481C8.78857 125.877 8.65186 126.322 8.37842 126.814C8.24854 127.046 8.10156 127.231 7.9375 127.368C7.77344 127.504 7.60596 127.573 7.43506 127.573C7.38721 127.573 7.33936 127.569 7.2915 127.562C6.87451 127.549 6.61133 127.347 6.50195 126.958C6.4541 126.787 6.43018 126.588 6.43018 126.363L6.4917 124.886C6.4917 124.394 6.38574 124.018 6.17383 123.758C6.05762 123.608 5.8833 123.502 5.65088 123.44C5.02881 123.611 4.71777 124.049 4.71777 124.753ZM7.88623 126.578C7.99561 126.428 8.07422 126.271 8.12207 126.106C8.16992 125.942 8.19385 125.806 8.19385 125.696C8.19385 125.587 8.15625 125.409 8.08105 125.163C8.0127 124.917 7.93408 124.698 7.84521 124.507C7.62646 124.035 7.39746 123.799 7.1582 123.799C7.11035 124.346 7.08643 124.756 7.08643 125.03C7.08643 125.789 7.15137 126.301 7.28125 126.568C7.34961 126.732 7.43506 126.814 7.5376 126.814C7.66064 126.814 7.77686 126.735 7.88623 126.578ZM7.74268 133.376C7.94775 133.089 8.05029 132.72 8.05029 132.269C8.05029 131.845 7.97168 131.452 7.81445 131.09C7.52734 130.406 7.1582 129.938 6.70703 129.685C6.50195 129.576 6.2832 129.521 6.05078 129.521C6.00977 129.521 5.89355 129.521 5.70215 129.521C5.51758 129.521 5.26465 129.555 4.94336 129.624C4.62891 129.692 4.30762 129.726 3.97949 129.726C3.97266 129.583 3.95557 129.466 3.92822 129.377C3.90088 129.289 3.88721 129.213 3.88721 129.152C3.88721 129.09 3.91455 129.036 3.96924 128.988C4.02393 128.947 4.12988 128.899 4.28711 128.844C4.32813 128.837 4.44434 128.824 4.63574 128.803C4.82715 128.783 5.05957 128.755 5.33301 128.721C5.60645 128.694 5.90381 128.66 6.2251 128.619C6.55322 128.584 6.87451 128.55 7.18896 128.516C7.87256 128.441 8.375 128.383 8.69629 128.342C8.86035 128.342 8.94238 128.461 8.94238 128.701C8.94238 128.844 8.88086 128.957 8.75781 129.039C8.6416 129.121 8.50488 129.186 8.34766 129.234C8.19727 129.282 8.04688 129.312 7.89648 129.326C7.74609 129.347 7.64014 129.364 7.57861 129.377C8.38525 130.28 8.78857 131.401 8.78857 132.741C8.78857 132.891 8.78516 133.048 8.77832 133.212C8.78516 133.253 8.78857 133.305 8.78857 133.366C8.78857 133.428 8.74756 133.489 8.66553 133.551C8.56982 133.626 8.45361 133.664 8.31689 133.664C7.9751 133.664 7.78369 133.568 7.74268 133.376ZM4.71777 136.227C4.71777 136.829 4.99121 137.734 5.53809 138.944C5.53809 139.02 5.51074 139.081 5.45605 139.129C5.4082 139.177 5.3501 139.201 5.28174 139.201C4.81689 138.927 4.45459 138.404 4.19482 137.632C3.93506 136.859 3.89063 136.138 4.06152 135.468C4.25977 134.709 4.68701 134.248 5.34326 134.084C5.47314 134.07 5.64746 134.063 5.86621 134.063C6.08496 134.063 6.37207 134.118 6.72754 134.228C7.08984 134.344 7.43164 134.539 7.75293 134.812C8.07422 135.085 8.32715 135.407 8.51172 135.776C8.69629 136.145 8.78857 136.538 8.78857 136.955C8.78857 137.352 8.65186 137.796 8.37842 138.288C8.24854 138.521 8.10156 138.705 7.9375 138.842C7.77344 138.979 7.60596 139.047 7.43506 139.047C7.38721 139.047 7.33936 139.043 7.2915 139.037C6.87451 139.023 6.61133 138.821 6.50195 138.432C6.4541 138.261 6.43018 138.062 6.43018 137.837L6.4917 136.36C6.4917 135.868 6.38574 135.492 6.17383 135.232C6.05762 135.082 5.8833 134.976 5.65088 134.915C5.02881 135.085 4.71777 135.523 4.71777 136.227ZM7.88623 138.052C7.99561 137.902 8.07422 137.745 8.12207 137.581C8.16992 137.417 8.19385 137.28 8.19385 137.17C8.19385 137.061 8.15625 136.883 8.08105 136.637C8.0127 136.391 7.93408 136.172 7.84521 135.981C7.62646 135.509 7.39746 135.273 7.1582 135.273C7.11035 135.82 7.08643 136.23 7.08643 136.504C7.08643 137.263 7.15137 137.775 7.28125 138.042C7.34961 138.206 7.43506 138.288 7.5376 138.288C7.66064 138.288 7.77686 138.209 7.88623 138.052ZM6.64551 143.323C6.64551 144.075 6.4541 144.451 6.07129 144.451C5.78418 144.451 5.44922 144.242 5.06641 143.825C4.49902 143.203 4.04443 142.366 3.70264 141.313C3.70264 141.265 3.75049 141.21 3.84619 141.149C3.94189 141.094 4.01367 141.05 4.06152 141.016C4.11621 140.988 4.15039 140.968 4.16406 140.954C4.42383 141.74 4.73828 142.386 5.10742 142.892C5.35352 143.234 5.55518 143.405 5.7124 143.405C5.86963 143.405 5.94824 143.203 5.94824 142.8C5.94824 142.396 5.85254 141.805 5.66113 141.026C5.6748 140.67 5.80127 140.363 6.04053 140.103C6.25244 139.877 6.46436 139.765 6.67627 139.765C6.89502 139.765 7.09326 139.826 7.271 139.949C7.45557 140.072 7.62646 140.236 7.78369 140.441C7.94092 140.646 8.08447 140.886 8.21436 141.159C8.53564 141.829 8.69629 142.523 8.69629 143.241C8.69629 143.453 8.67578 143.658 8.63477 143.856C8.63477 144.02 8.56299 144.116 8.41943 144.143C8.27588 144.17 8.04004 144.184 7.71191 144.184C7.89648 143.781 7.98877 143.326 7.98877 142.82C7.98877 142.191 7.8623 141.672 7.60938 141.262C7.36328 140.838 7.04199 140.619 6.64551 140.605C6.4541 140.605 6.3584 140.746 6.3584 141.026L6.44043 141.774C6.57715 142.417 6.64551 142.933 6.64551 143.323ZM4.98438 146.635L6.625 146.655C6.88477 146.655 7.10693 146.631 7.2915 146.583V144.994L7.99902 144.974V146.512H10.6445C10.7061 146.532 10.7676 146.573 10.8291 146.635C10.9248 146.73 10.9727 146.809 10.9727 146.871C10.9727 146.939 10.9658 146.997 10.9521 147.045C10.9385 147.093 10.8906 147.144 10.8086 147.199C10.3574 147.308 9.67725 147.363 8.76807 147.363C8.54248 147.363 8.32031 147.373 8.10156 147.394C8.12891 147.612 8.14258 147.831 8.14258 148.05C8.14258 148.05 8.14258 148.228 8.14258 148.583C8.14258 148.713 8.14941 148.833 8.16309 148.942L7.4248 148.911L7.46582 147.414L3.92822 147.465C3.87354 147.342 3.84619 147.236 3.84619 147.147C3.84619 146.806 4.22559 146.635 4.98438 146.635Z" fill="#191919"/>
<g clip-path="url(#clip0_979_25579)">
<rect x="23" y="3.5" width="342.5" height="194" rx="6" fill="#F4F4F4"/>
<g opacity="0.3">
<path d="M25.5 159C30.9426 153.359 36.065 151.668 41.8277 148.284C47.5904 144.899 55.5942 142.642 64.2382 142.642C72.8823 142.642 204.784 130.232 235.199 103.72C265.613 77.2086 290.585 50.1325 316.837 44.4917C337.839 39.979 358.03 42.6114 365.5 44.4917" stroke="#B1B1B1"/>
</g>
<path d="M25.5 159C30.9586 153.311 36.096 151.605 41.8757 148.192C47.6554 144.779 55.6827 142.502 64.3522 142.502C73.0217 142.502 205.312 129.987 235.815 103.248C266.319 76.5095 291.364 49.202 317.694 43.513C338.758 38.9617 359.008 41.6166 366.5 43.513" stroke="#656565" stroke-width="3"/>
<path d="M115.472 52.2773C115.308 51.9082 115.226 51.4741 115.226 50.9751C115.226 50.4761 115.304 50.0352 115.461 49.6523C115.625 49.2627 115.848 48.9277 116.128 48.6475C116.723 48.0664 117.468 47.7759 118.363 47.7759C119.3 47.7759 120.072 47.9912 120.681 48.4219C121.364 48.9141 121.706 49.6182 121.706 50.5342C121.706 51.6689 121.443 52.5063 120.917 53.0464C120.397 53.5864 119.583 53.8564 118.476 53.8564C116.938 53.8564 115.937 53.3301 115.472 52.2773ZM116.066 50.77C116.066 52.3833 116.88 53.1899 118.507 53.1899C119.307 53.1899 119.956 52.9507 120.455 52.4722C120.954 52.0005 121.204 51.3818 121.204 50.6162C121.204 49.8984 120.906 49.3516 120.312 48.9756C119.806 48.6475 119.167 48.4834 118.394 48.4834C117.779 48.4834 117.235 48.7056 116.764 49.1499C116.299 49.5942 116.066 50.1343 116.066 50.77ZM122.26 52.6362C122.26 52.5269 122.25 52.3765 122.229 52.1851C122.215 51.9868 122.202 51.7715 122.188 51.5391C122.174 51.3066 122.167 51.0708 122.167 50.8315C122.167 50.5923 122.188 50.3735 122.229 50.1753C122.318 49.731 122.502 49.5088 122.783 49.5088C122.974 49.5635 123.101 49.6318 123.162 49.7139C123.23 49.7959 123.265 49.8984 123.265 50.0215C123.265 50.1377 123.234 50.2847 123.172 50.4624C122.947 51.0571 122.834 51.5938 122.834 52.0723C122.834 52.2295 122.844 52.397 122.865 52.5747C122.974 53.0327 123.35 53.2617 123.993 53.2617C124.328 53.2617 124.646 53.2036 124.946 53.0874C125.521 52.8755 125.91 52.626 126.115 52.3389C126.177 52.0244 126.208 51.751 126.208 51.5186C126.208 51.2793 126.197 51.0674 126.177 50.8828C126.163 50.6982 126.143 50.4966 126.115 50.2778C126.095 50.0522 126.081 49.8062 126.074 49.5396C126.163 49.4985 126.249 49.478 126.331 49.478C126.419 49.478 126.508 49.5225 126.597 49.6113C126.693 49.7002 126.771 49.8677 126.833 50.1138C126.901 50.3599 126.946 50.6504 126.966 50.9854C126.987 51.3135 126.997 51.6553 126.997 52.0107C127.004 52.3662 127.007 52.7114 127.007 53.0464C127.007 53.3745 127.021 53.6582 127.048 53.8975C126.966 53.9727 126.888 54.0103 126.812 54.0103C126.539 54.0103 126.337 53.7368 126.208 53.1899C126.119 53.2651 125.968 53.3574 125.756 53.4668C125.305 53.7129 124.772 53.877 124.157 53.959C124.041 53.9727 123.911 53.9795 123.767 53.9795C123.624 53.9795 123.442 53.9521 123.224 53.8975C123.012 53.8428 122.81 53.7163 122.619 53.5181C122.427 53.3198 122.308 53.0259 122.26 52.6362ZM129.191 53.0156L129.212 51.375C129.212 51.1152 129.188 50.8931 129.14 50.7085H127.551L127.53 50.001H129.068V47.3555C129.089 47.2939 129.13 47.2324 129.191 47.1709C129.287 47.0752 129.366 47.0273 129.427 47.0273C129.496 47.0273 129.554 47.0342 129.602 47.0479C129.649 47.0615 129.701 47.1094 129.755 47.1914C129.865 47.6426 129.919 48.3228 129.919 49.2319C129.919 49.4575 129.93 49.6797 129.95 49.8984C130.169 49.8711 130.388 49.8574 130.606 49.8574C130.606 49.8574 130.784 49.8574 131.14 49.8574C131.27 49.8574 131.389 49.8506 131.499 49.8369L131.468 50.5752L129.971 50.5342L130.022 54.0718C129.899 54.1265 129.793 54.1538 129.704 54.1538C129.362 54.1538 129.191 53.7744 129.191 53.0156ZM132.873 49.8882C133.802 49.5669 134.605 49.4062 135.282 49.4062C136.144 49.4062 136.718 49.6318 137.005 50.083C137.135 50.2949 137.2 50.5239 137.2 50.77C137.2 51.1118 137.09 51.4639 136.872 51.8262C136.66 52.1885 136.376 52.5166 136.021 52.8105C135.193 53.4873 134.188 53.9077 133.006 54.0718C133.006 54.147 133.006 54.2666 133.006 54.4307C133.013 54.6016 133.016 54.7896 133.016 54.9946C133.023 55.1997 133.026 55.4185 133.026 55.6509C133.033 55.8833 133.04 56.1055 133.047 56.3174C133.067 56.8438 133.081 57.1445 133.088 57.2197C133.102 57.2949 133.108 57.3564 133.108 57.4043C133.108 57.5752 133.054 57.7017 132.944 57.7837C132.835 57.8726 132.691 57.917 132.514 57.917C132.479 57.917 132.445 57.917 132.411 57.917L132.247 49.6729C132.309 49.584 132.391 49.543 132.493 49.5498C132.596 49.5566 132.678 49.584 132.739 49.6318C132.801 49.6797 132.845 49.7651 132.873 49.8882ZM135.867 50.2471C135.641 50.1309 135.398 50.0728 135.139 50.0728C134.886 50.0728 134.633 50.0967 134.38 50.1445C133.806 50.2539 133.382 50.4966 133.108 50.8726C132.985 51.0503 132.924 51.269 132.924 51.5288C132.924 51.5562 132.924 51.5835 132.924 51.6108V53.3848C134.332 53.0703 135.33 52.6328 135.918 52.0723C136.26 51.751 136.431 51.4194 136.431 51.0776C136.431 50.7153 136.243 50.4385 135.867 50.2471ZM137.682 52.6362C137.682 52.5269 137.671 52.3765 137.651 52.1851C137.637 51.9868 137.624 51.7715 137.61 51.5391C137.596 51.3066 137.589 51.0708 137.589 50.8315C137.589 50.5923 137.61 50.3735 137.651 50.1753C137.74 49.731 137.924 49.5088 138.205 49.5088C138.396 49.5635 138.522 49.6318 138.584 49.7139C138.652 49.7959 138.687 49.8984 138.687 50.0215C138.687 50.1377 138.656 50.2847 138.594 50.4624C138.369 51.0571 138.256 51.5938 138.256 52.0723C138.256 52.2295 138.266 52.397 138.287 52.5747C138.396 53.0327 138.772 53.2617 139.415 53.2617C139.75 53.2617 140.067 53.2036 140.368 53.0874C140.942 52.8755 141.332 52.626 141.537 52.3389C141.599 52.0244 141.629 51.751 141.629 51.5186C141.629 51.2793 141.619 51.0674 141.599 50.8828C141.585 50.6982 141.564 50.4966 141.537 50.2778C141.517 50.0522 141.503 49.8062 141.496 49.5396C141.585 49.4985 141.67 49.478 141.752 49.478C141.841 49.478 141.93 49.5225 142.019 49.6113C142.115 49.7002 142.193 49.8677 142.255 50.1138C142.323 50.3599 142.368 50.6504 142.388 50.9854C142.409 51.3135 142.419 51.6553 142.419 52.0107C142.426 52.3662 142.429 52.7114 142.429 53.0464C142.429 53.3745 142.443 53.6582 142.47 53.8975C142.388 53.9727 142.31 54.0103 142.234 54.0103C141.961 54.0103 141.759 53.7368 141.629 53.1899C141.541 53.2651 141.39 53.3574 141.178 53.4668C140.727 53.7129 140.194 53.877 139.579 53.959C139.462 53.9727 139.333 53.9795 139.189 53.9795C139.045 53.9795 138.864 53.9521 138.646 53.8975C138.434 53.8428 138.232 53.7163 138.041 53.5181C137.849 53.3198 137.729 53.0259 137.682 52.6362ZM144.613 53.0156L144.634 51.375C144.634 51.1152 144.61 50.8931 144.562 50.7085H142.973L142.952 50.001H144.49V47.3555C144.511 47.2939 144.552 47.2324 144.613 47.1709C144.709 47.0752 144.788 47.0273 144.849 47.0273C144.917 47.0273 144.976 47.0342 145.023 47.0479C145.071 47.0615 145.123 47.1094 145.177 47.1914C145.287 47.6426 145.341 48.3228 145.341 49.2319C145.341 49.4575 145.352 49.6797 145.372 49.8984C145.591 49.8711 145.81 49.8574 146.028 49.8574C146.028 49.8574 146.206 49.8574 146.562 49.8574C146.691 49.8574 146.811 49.8506 146.92 49.8369L146.89 50.5752L145.393 50.5342L145.444 54.0718C145.321 54.1265 145.215 54.1538 145.126 54.1538C144.784 54.1538 144.613 53.7744 144.613 53.0156ZM155.544 52.2979C155.031 53.1045 154.348 53.6035 153.493 53.7949C153.295 53.8359 153.114 53.8564 152.95 53.8564C152.792 53.8564 152.659 53.8564 152.55 53.8564C152.447 53.8496 152.331 53.8325 152.201 53.8052C152.071 53.7778 151.952 53.7334 151.842 53.6719C151.589 53.5283 151.463 53.3267 151.463 53.0669C151.436 52.9438 151.422 52.8071 151.422 52.6567C151.422 52.4995 151.456 52.2944 151.524 52.0415C151.593 51.7886 151.716 51.5151 151.894 51.2212C152.078 50.9272 152.3 50.6572 152.56 50.4111C153.1 49.8916 153.685 49.5566 154.313 49.4062C154.498 49.3652 154.666 49.3447 154.816 49.3447C154.973 49.3447 155.113 49.355 155.236 49.3755C155.633 49.3755 155.899 49.6455 156.036 50.1855C156.125 50.5273 156.176 51.0059 156.19 51.6211C156.21 52.2295 156.228 52.7012 156.241 53.0361C156.262 53.3643 156.306 53.665 156.375 53.9385H155.77C155.742 53.7539 155.722 53.5898 155.708 53.4463C155.694 53.3027 155.681 53.1694 155.667 53.0464C155.633 52.7593 155.592 52.5098 155.544 52.2979ZM155.503 50.7085C155.503 50.312 155.308 50.1138 154.918 50.1138C154.871 50.1069 154.823 50.1035 154.775 50.1035C154.276 50.1035 153.75 50.3428 153.196 50.8213C152.936 51.04 152.714 51.2861 152.529 51.5596C152.256 51.9492 152.119 52.2979 152.119 52.6055C152.119 53.0088 152.352 53.248 152.816 53.3232C153.432 53.3096 154.02 53.0293 154.58 52.4824C154.819 52.2432 155.018 51.9834 155.175 51.7031C155.394 51.3271 155.503 50.9956 155.503 50.7085ZM162.742 50.5752C162.776 50.5752 162.793 50.6675 162.793 50.8521C162.793 51.0366 162.8 51.1631 162.814 51.2314L159.297 51.6621L159.481 53.9385L158.651 53.8975C158.651 53.2822 158.583 52.5781 158.446 51.7852L157.113 52.2979C157.024 52.2979 156.949 52.2466 156.887 52.144C156.778 51.9663 156.723 51.8057 156.723 51.6621L158.282 51.1084C158.145 49.9326 158.077 48.979 158.077 48.2476C158.077 47.5093 158.138 46.9351 158.261 46.5249C158.384 46.1147 158.562 45.8413 158.794 45.7046C159.034 45.561 159.287 45.4893 159.553 45.4893C159.82 45.4893 160.09 45.5474 160.363 45.6636C160.644 45.7798 160.91 45.9268 161.163 46.1045C161.416 46.2822 161.631 46.4839 161.809 46.7095C161.987 46.9282 162.076 47.1436 162.076 47.3555C162.076 47.5195 162.059 47.6357 162.024 47.7041C161.751 47.3213 161.419 46.9795 161.03 46.6787C160.565 46.3232 160.127 46.1455 159.717 46.1455C159.328 46.1455 159.068 46.4224 158.938 46.9761C158.876 47.2632 158.846 47.6699 158.846 48.1963C158.846 48.7158 158.859 49.1943 158.887 49.6318C158.914 50.0625 158.996 50.4966 159.133 50.9341C159.557 50.9341 160.032 50.8965 160.558 50.8213C161.57 50.6641 162.298 50.582 162.742 50.5752ZM164.639 53.0156L164.66 51.375C164.66 51.1152 164.636 50.8931 164.588 50.7085H162.999L162.978 50.001H164.516V47.3555C164.537 47.2939 164.578 47.2324 164.639 47.1709C164.735 47.0752 164.813 47.0273 164.875 47.0273C164.943 47.0273 165.001 47.0342 165.049 47.0479C165.097 47.0615 165.148 47.1094 165.203 47.1914C165.312 47.6426 165.367 48.3228 165.367 49.2319C165.367 49.4575 165.377 49.6797 165.398 49.8984C165.617 49.8711 165.835 49.8574 166.054 49.8574C166.054 49.8574 166.232 49.8574 166.587 49.8574C166.717 49.8574 166.837 49.8506 166.946 49.8369L166.916 50.5752L165.418 50.5342L165.47 54.0718C165.347 54.1265 165.241 54.1538 165.152 54.1538C164.81 54.1538 164.639 53.7744 164.639 53.0156ZM169.428 53.2822C170.029 53.2822 170.935 53.0088 172.145 52.4619C172.22 52.4619 172.282 52.4893 172.33 52.5439C172.377 52.5918 172.401 52.6499 172.401 52.7183C172.128 53.1831 171.605 53.5454 170.833 53.8052C170.06 54.0649 169.339 54.1094 168.669 53.9385C167.91 53.7402 167.449 53.313 167.285 52.6567C167.271 52.5269 167.264 52.3525 167.264 52.1338C167.264 51.915 167.319 51.6279 167.428 51.2725C167.544 50.9102 167.739 50.5684 168.013 50.2471C168.286 49.9258 168.607 49.6729 168.977 49.4883C169.346 49.3037 169.739 49.2114 170.156 49.2114C170.552 49.2114 170.997 49.3481 171.489 49.6216C171.721 49.7515 171.906 49.8984 172.042 50.0625C172.179 50.2266 172.248 50.394 172.248 50.5649C172.248 50.6128 172.244 50.6606 172.237 50.7085C172.224 51.1255 172.022 51.3887 171.632 51.498C171.461 51.5459 171.263 51.5698 171.038 51.5698L169.561 51.5083C169.069 51.5083 168.693 51.6143 168.433 51.8262C168.283 51.9424 168.177 52.1167 168.115 52.3491C168.286 52.9712 168.724 53.2822 169.428 53.2822ZM171.253 50.1138C171.103 50.0044 170.945 49.9258 170.781 49.8779C170.617 49.8301 170.48 49.8062 170.371 49.8062C170.262 49.8062 170.084 49.8438 169.838 49.9189C169.592 49.9873 169.373 50.0659 169.182 50.1548C168.71 50.3735 168.474 50.6025 168.474 50.8418C169.021 50.8896 169.431 50.9136 169.705 50.9136C170.463 50.9136 170.976 50.8486 171.243 50.7188C171.407 50.6504 171.489 50.5649 171.489 50.4624C171.489 50.3394 171.41 50.2231 171.253 50.1138ZM178.051 50.2573C177.764 50.0522 177.395 49.9497 176.944 49.9497C176.52 49.9497 176.127 50.0283 175.765 50.1855C175.081 50.4727 174.613 50.8418 174.36 51.293C174.25 51.498 174.196 51.7168 174.196 51.9492C174.196 51.9902 174.196 52.1064 174.196 52.2979C174.196 52.4824 174.23 52.7354 174.298 53.0566C174.367 53.3711 174.401 53.6924 174.401 54.0205C174.257 54.0273 174.141 54.0444 174.052 54.0718C173.963 54.0991 173.888 54.1128 173.827 54.1128C173.765 54.1128 173.71 54.0854 173.663 54.0308C173.622 53.9761 173.574 53.8701 173.519 53.7129C173.512 53.6719 173.499 53.5557 173.478 53.3643C173.458 53.1729 173.43 52.9404 173.396 52.667C173.369 52.3936 173.334 52.0962 173.293 51.7749C173.259 51.4468 173.225 51.1255 173.191 50.811C173.116 50.1274 173.058 49.625 173.017 49.3037C173.017 49.1396 173.136 49.0576 173.375 49.0576C173.519 49.0576 173.632 49.1191 173.714 49.2422C173.796 49.3584 173.861 49.4951 173.909 49.6523C173.957 49.8027 173.987 49.9531 174.001 50.1035C174.021 50.2539 174.039 50.3599 174.052 50.4214C174.955 49.6147 176.076 49.2114 177.416 49.2114C177.566 49.2114 177.723 49.2148 177.887 49.2217C177.928 49.2148 177.979 49.2114 178.041 49.2114C178.103 49.2114 178.164 49.2524 178.226 49.3345C178.301 49.4302 178.338 49.5464 178.338 49.6831C178.338 50.0249 178.243 50.2163 178.051 50.2573ZM187.157 52.9233C187.437 52.8071 187.71 52.7012 187.977 52.6055C188.244 52.5098 188.497 52.4619 188.736 52.4619C188.982 52.4619 189.105 52.5371 189.105 52.6875C189.105 52.7217 189.095 52.7764 189.074 52.8516C189.061 52.9199 188.968 53.0054 188.797 53.1079C188.633 53.2036 188.428 53.2959 188.182 53.3848C187.943 53.4736 187.68 53.5557 187.393 53.6309C187.105 53.7061 186.825 53.771 186.552 53.8257C185.984 53.9419 185.581 54 185.342 54C185.103 54 184.843 53.9727 184.562 53.918C184.289 53.8633 184.033 53.7744 183.793 53.6514C183.24 53.3643 182.963 52.9404 182.963 52.3799C182.963 52.3389 182.963 52.2568 182.963 52.1338C182.963 52.0107 183.014 51.8364 183.117 51.6108C183.219 51.3784 183.373 51.1494 183.578 50.9238C183.783 50.6914 184.022 50.4795 184.296 50.2881C184.87 49.8779 185.472 49.6113 186.101 49.4883C186.319 49.4404 186.5 49.4165 186.644 49.4165C186.794 49.4165 186.917 49.4199 187.013 49.4268C187.109 49.4268 187.208 49.4336 187.311 49.4473C187.413 49.4541 187.502 49.478 187.577 49.519C187.755 49.6079 187.844 49.7822 187.844 50.042C187.844 50.2061 187.728 50.3667 187.495 50.5239C187.434 50.5649 187.379 50.6025 187.331 50.6367C187.297 50.4795 187.252 50.3462 187.198 50.2368C187.143 50.1274 187.023 50.0728 186.839 50.0728C186.032 50.2437 185.338 50.5 184.757 50.8418C184.101 51.2314 183.773 51.6416 183.773 52.0723C183.773 52.1201 183.776 52.1714 183.783 52.2261C183.783 52.6636 183.951 52.9746 184.286 53.1592C184.539 53.2959 184.863 53.3643 185.26 53.3643C185.663 53.3643 186.012 53.3198 186.306 53.231C186.6 53.1353 186.883 53.0327 187.157 52.9233ZM193.688 52.2979C193.176 53.1045 192.492 53.6035 191.638 53.7949C191.439 53.8359 191.258 53.8564 191.094 53.8564C190.937 53.8564 190.804 53.8564 190.694 53.8564C190.592 53.8496 190.476 53.8325 190.346 53.8052C190.216 53.7778 190.096 53.7334 189.987 53.6719C189.734 53.5283 189.607 53.3267 189.607 53.0669C189.58 52.9438 189.566 52.8071 189.566 52.6567C189.566 52.4995 189.601 52.2944 189.669 52.0415C189.737 51.7886 189.86 51.5151 190.038 51.2212C190.223 50.9272 190.445 50.6572 190.705 50.4111C191.245 49.8916 191.829 49.5566 192.458 49.4062C192.643 49.3652 192.81 49.3447 192.96 49.3447C193.118 49.3447 193.258 49.355 193.381 49.3755C193.777 49.3755 194.044 49.6455 194.181 50.1855C194.27 50.5273 194.321 51.0059 194.334 51.6211C194.355 52.2295 194.372 52.7012 194.386 53.0361C194.406 53.3643 194.451 53.665 194.519 53.9385H193.914C193.887 53.7539 193.866 53.5898 193.853 53.4463C193.839 53.3027 193.825 53.1694 193.812 53.0464C193.777 52.7593 193.736 52.5098 193.688 52.2979ZM193.647 50.7085C193.647 50.312 193.453 50.1138 193.063 50.1138C193.015 50.1069 192.967 50.1035 192.919 50.1035C192.42 50.1035 191.894 50.3428 191.34 50.8213C191.081 51.04 190.858 51.2861 190.674 51.5596C190.4 51.9492 190.264 52.2979 190.264 52.6055C190.264 53.0088 190.496 53.248 190.961 53.3232C191.576 53.3096 192.164 53.0293 192.725 52.4824C192.964 52.2432 193.162 51.9834 193.319 51.7031C193.538 51.3271 193.647 50.9956 193.647 50.7085ZM195.186 50.0215C195.172 49.6523 195.158 49.3242 195.145 49.0371C195.131 48.7432 195.121 48.5278 195.114 48.3911C195.114 48.2476 195.059 47.9023 194.95 47.3555C195.011 47.2734 195.069 47.1948 195.124 47.1196C195.186 47.0444 195.271 47.0068 195.38 47.0068C195.62 47.0068 195.804 48.0151 195.934 50.0317C196.002 51.2007 196.037 52.3696 196.037 53.5386C196.037 53.853 195.818 54.0103 195.38 54.0103L195.298 54C195.298 53.6445 195.288 53.1899 195.268 52.6362C195.247 52.0825 195.23 51.6006 195.216 51.1904C195.209 50.7803 195.199 50.3906 195.186 50.0215ZM197.575 49.1807C197.664 50.459 197.739 51.939 197.8 53.6206C197.759 53.8325 197.595 53.9385 197.308 53.9385C197.233 53.9385 197.154 53.9248 197.072 53.8975C196.997 53.8633 196.949 53.8188 196.929 53.7642V49.1807H197.575ZM196.621 47.7861C196.621 47.5469 196.761 47.4272 197.042 47.4272C197.226 47.4272 197.376 47.4683 197.493 47.5503C197.513 47.6255 197.523 47.7007 197.523 47.7759C197.523 47.8442 197.496 47.9126 197.441 47.981C197.387 48.0493 197.305 48.0835 197.195 48.0835C197.086 48.0835 196.977 48.0596 196.867 48.0117C196.758 47.957 196.676 47.8818 196.621 47.7861ZM198.303 48.0527L198.272 46.73C198.272 46.6206 198.31 46.5352 198.385 46.4736C198.46 46.4121 198.552 46.3813 198.662 46.3813C198.771 46.3813 198.87 46.4121 198.959 46.4736C199.048 46.5283 199.082 46.6069 199.062 46.7095L199.133 51.1392C199.564 50.5649 200.145 50.083 200.876 49.6934C201.485 49.3652 202.018 49.2012 202.476 49.2012C202.879 49.2012 203.19 49.3311 203.409 49.5908C203.573 49.7959 203.655 50.0693 203.655 50.4111C203.655 50.7461 203.59 51.04 203.46 51.293C203.337 51.5391 203.173 51.7783 202.968 52.0107C202.763 52.2363 202.527 52.4482 202.261 52.6465C201.994 52.8447 201.724 53.0225 201.451 53.1797C200.931 53.4805 200.418 53.73 199.913 53.9282C199.872 53.9146 199.803 53.9111 199.708 53.918C199.612 53.9248 199.496 53.9282 199.359 53.9282C198.99 53.9282 198.665 53.8838 198.385 53.7949C198.316 53.1455 198.282 52.1577 198.282 50.8315L198.303 48.0527ZM199.164 53.0874C199.164 53.1626 199.232 53.2002 199.369 53.2002C199.513 53.2002 199.687 53.1729 199.892 53.1182C200.097 53.0635 200.343 52.9712 200.63 52.8413C200.924 52.7046 201.218 52.5303 201.512 52.3184C202.196 51.833 202.712 51.2622 203.061 50.606C202.972 50.2163 202.705 50.0215 202.261 50.0215C201.857 50.0215 201.403 50.1719 200.897 50.4727C200.179 50.9033 199.667 51.4365 199.359 52.0723C199.229 52.3252 199.164 52.5815 199.164 52.8413C199.164 52.9097 199.164 52.9644 199.164 53.0054C199.164 53.0464 199.164 53.0737 199.164 53.0874ZM209.172 50.2573C208.885 50.0522 208.516 49.9497 208.064 49.9497C207.641 49.9497 207.248 50.0283 206.885 50.1855C206.202 50.4727 205.733 50.8418 205.48 51.293C205.371 51.498 205.316 51.7168 205.316 51.9492C205.316 51.9902 205.316 52.1064 205.316 52.2979C205.316 52.4824 205.351 52.7354 205.419 53.0566C205.487 53.3711 205.521 53.6924 205.521 54.0205C205.378 54.0273 205.262 54.0444 205.173 54.0718C205.084 54.0991 205.009 54.1128 204.947 54.1128C204.886 54.1128 204.831 54.0854 204.783 54.0308C204.742 53.9761 204.694 53.8701 204.64 53.7129C204.633 53.6719 204.619 53.5557 204.599 53.3643C204.578 53.1729 204.551 52.9404 204.517 52.667C204.489 52.3936 204.455 52.0962 204.414 51.7749C204.38 51.4468 204.346 51.1255 204.312 50.811C204.236 50.1274 204.178 49.625 204.137 49.3037C204.137 49.1396 204.257 49.0576 204.496 49.0576C204.64 49.0576 204.752 49.1191 204.834 49.2422C204.917 49.3584 204.981 49.4951 205.029 49.6523C205.077 49.8027 205.108 49.9531 205.122 50.1035C205.142 50.2539 205.159 50.3599 205.173 50.4214C206.075 49.6147 207.196 49.2114 208.536 49.2114C208.687 49.2114 208.844 49.2148 209.008 49.2217C209.049 49.2148 209.1 49.2114 209.162 49.2114C209.223 49.2114 209.285 49.2524 209.346 49.3345C209.421 49.4302 209.459 49.5464 209.459 49.6831C209.459 50.0249 209.363 50.2163 209.172 50.2573ZM213.96 52.2979C213.448 53.1045 212.764 53.6035 211.91 53.7949C211.711 53.8359 211.53 53.8564 211.366 53.8564C211.209 53.8564 211.076 53.8564 210.966 53.8564C210.864 53.8496 210.748 53.8325 210.618 53.8052C210.488 53.7778 210.368 53.7334 210.259 53.6719C210.006 53.5283 209.879 53.3267 209.879 53.0669C209.852 52.9438 209.838 52.8071 209.838 52.6567C209.838 52.4995 209.873 52.2944 209.941 52.0415C210.009 51.7886 210.132 51.5151 210.31 51.2212C210.495 50.9272 210.717 50.6572 210.977 50.4111C211.517 49.8916 212.101 49.5566 212.73 49.4062C212.915 49.3652 213.082 49.3447 213.232 49.3447C213.39 49.3447 213.53 49.355 213.653 49.3755C214.049 49.3755 214.316 49.6455 214.453 50.1855C214.542 50.5273 214.593 51.0059 214.606 51.6211C214.627 52.2295 214.644 52.7012 214.658 53.0361C214.678 53.3643 214.723 53.665 214.791 53.9385H214.186C214.159 53.7539 214.138 53.5898 214.125 53.4463C214.111 53.3027 214.097 53.1694 214.083 53.0464C214.049 52.7593 214.008 52.5098 213.96 52.2979ZM213.919 50.7085C213.919 50.312 213.725 50.1138 213.335 50.1138C213.287 50.1069 213.239 50.1035 213.191 50.1035C212.692 50.1035 212.166 50.3428 211.612 50.8213C211.353 51.04 211.13 51.2861 210.946 51.5596C210.672 51.9492 210.536 52.2979 210.536 52.6055C210.536 53.0088 210.768 53.248 211.233 53.3232C211.848 53.3096 212.436 53.0293 212.997 52.4824C213.236 52.2432 213.434 51.9834 213.591 51.7031C213.81 51.3271 213.919 50.9956 213.919 50.7085ZM216.821 53.0156L216.842 51.375C216.842 51.1152 216.818 50.8931 216.77 50.7085H215.181L215.16 50.001H216.698V47.3555C216.719 47.2939 216.76 47.2324 216.821 47.1709C216.917 47.0752 216.996 47.0273 217.057 47.0273C217.125 47.0273 217.184 47.0342 217.231 47.0479C217.279 47.0615 217.331 47.1094 217.385 47.1914C217.495 47.6426 217.549 48.3228 217.549 49.2319C217.549 49.4575 217.56 49.6797 217.58 49.8984C217.799 49.8711 218.018 49.8574 218.236 49.8574C218.236 49.8574 218.414 49.8574 218.77 49.8574C218.899 49.8574 219.019 49.8506 219.128 49.8369L219.098 50.5752L217.601 50.5342L217.652 54.0718C217.529 54.1265 217.423 54.1538 217.334 54.1538C216.992 54.1538 216.821 53.7744 216.821 53.0156ZM220.441 49.1807C220.53 50.459 220.605 51.939 220.667 53.6206C220.625 53.8325 220.461 53.9385 220.174 53.9385C220.099 53.9385 220.021 53.9248 219.938 53.8975C219.863 53.8633 219.815 53.8188 219.795 53.7642V49.1807H220.441ZM219.487 47.7861C219.487 47.5469 219.627 47.4272 219.908 47.4272C220.092 47.4272 220.243 47.4683 220.359 47.5503C220.379 47.6255 220.39 47.7007 220.39 47.7759C220.39 47.8442 220.362 47.9126 220.308 47.981C220.253 48.0493 220.171 48.0835 220.062 48.0835C219.952 48.0835 219.843 48.0596 219.733 48.0117C219.624 47.957 219.542 47.8818 219.487 47.7861ZM221.364 52.0518C221.364 51.2451 221.712 50.5957 222.41 50.1035C222.963 49.7139 223.63 49.478 224.409 49.396C224.45 49.396 224.546 49.396 224.696 49.396C224.847 49.396 225.048 49.4404 225.301 49.5293C225.862 49.7207 226.245 50.0591 226.45 50.5444C226.532 50.7358 226.573 50.8999 226.573 51.0366C226.573 51.1665 226.569 51.2588 226.562 51.3135C226.562 52.168 226.238 52.8413 225.588 53.3335C224.987 53.7847 224.235 54.0103 223.333 54.0103C222.683 54.0103 222.191 53.8599 221.856 53.5591C221.528 53.2583 221.364 52.7559 221.364 52.0518ZM222.071 52.2979C222.071 52.7217 222.184 53.0088 222.41 53.1592C222.581 53.2686 222.868 53.3232 223.271 53.3232C223.674 53.3232 224.03 53.2925 224.337 53.231C224.645 53.1694 224.918 53.0635 225.158 52.9131C225.67 52.585 225.927 52.0757 225.927 51.3853C225.927 50.9751 225.817 50.6401 225.599 50.3804C225.359 50.1001 225.045 49.96 224.655 49.96C224.389 50.0078 224.119 50.0591 223.845 50.1138C223.579 50.1685 223.326 50.2744 223.086 50.4316C222.567 50.7666 222.229 51.3887 222.071 52.2979ZM231.013 51.7544C231.013 50.9409 230.968 50.3428 230.879 49.96C230.934 49.8574 230.852 49.8062 230.633 49.8062C230.401 49.8062 230.1 49.8643 229.731 49.9805C229.362 50.0967 229.061 50.2129 228.829 50.3291C228.275 50.5957 227.967 50.8555 227.906 51.1084V53.8975H227.219C227.13 53.665 227.085 53.0122 227.085 51.939C227.085 50.9819 227.103 50.2778 227.137 49.8267C227.178 49.3755 227.208 49.1191 227.229 49.0576C227.407 48.9414 227.55 48.8833 227.66 48.8833C227.831 48.8833 227.916 49.085 227.916 49.4883C227.916 49.6455 227.906 49.7993 227.885 49.9497C227.872 50.0933 227.865 50.1924 227.865 50.2471C228.972 49.4336 229.83 49.0269 230.438 49.0269C231.129 49.0269 231.522 49.584 231.618 50.6982C231.659 51.0879 231.679 51.6279 231.679 52.3184L231.669 53.1284C231.669 53.4292 231.676 53.7197 231.689 54C231.621 54.041 231.566 54.0615 231.525 54.0615C231.505 54.0547 231.46 54.0444 231.392 54.0308C231.324 54.0171 231.235 54.0068 231.125 54C231.057 53.7266 231.02 53.4497 231.013 53.1694C231.006 52.8823 231.002 52.6191 231.002 52.3799L231.013 51.7544Z" fill="#191919"/>
<circle cx="26.5" cy="159" r="3.5" fill="#191919" stroke="white"/>
<circle cx="42.5" cy="148" r="3.5" fill="#191919" stroke="white"/>
<circle cx="58.5" cy="143" r="3.5" fill="#191919" stroke="white"/>
<circle cx="74.5" cy="142" r="3.5" fill="#191919" stroke="white"/>
<circle cx="90.5" cy="141" r="3.5" fill="#191919" stroke="white"/>
<circle cx="106.5" cy="139" r="3.5" fill="#191919" stroke="white"/>
<circle cx="122.5" cy="136" r="3.5" fill="#191919" stroke="white"/>
<circle cx="138.5" cy="133" r="3.5" fill="#191919" stroke="white"/>
<circle cx="154.5" cy="131" r="3.5" fill="#191919" stroke="white"/>
<circle cx="170.5" cy="128" r="3.5" fill="#191919" stroke="white"/>
<circle cx="186.5" cy="124" r="3.5" fill="#191919" stroke="white"/>
<circle cx="202.5" cy="119" r="3.5" fill="#191919" stroke="white"/>
<path d="M235 105.908C288.682 92.2306 340.361 81.1492 366 87.9874" stroke="#DDDDDD"/>
<path d="M235 106C288.682 94.374 340.361 84.9548 366 90.7673" stroke="#DDDDDD"/>
<path d="M235 106C288.682 85.4836 340.361 68.8615 366 79.1188" stroke="#DDDDDD"/>
<path d="M235 106C288.682 88.903 340.361 75.0512 366 83.599" stroke="#DDDDDD"/>
<path d="M235 106C288.682 78.6448 340.361 56.482 366 70.1584" stroke="#DDDDDD"/>
<path d="M235 106C288.682 78.6448 340.361 56.482 366 70.1584" stroke="#DDDDDD"/>
<path d="M235 106C288.682 82.7481 340.361 63.9097 366 75.5346" stroke="#DDDDDD"/>
<path d="M235 102.999C274 39.5 318.5 7.50067 366 18.7716" stroke="#DDDDDD"/>
<path d="M235 103C274 35.4291 318.5 1.37789 366 13.3715" stroke="#DDDDDD"/>
<path d="M235 103C274 30.2878 318.5 -6.35423 366 6.55196" stroke="#DDDDDD"/>
<path d="M235 103C274 23.6776 318.5 -16.2955 366 -2.21605" stroke="#DDDDDD"/>
<circle cx="218.5" cy="114" r="3.5" fill="#191919" stroke="white"/>
<circle cx="234.5" cy="105" r="3.5" fill="#191919" stroke="white"/>
<path d="M253.472 153.777C253.308 153.408 253.226 152.974 253.226 152.475C253.226 151.976 253.304 151.535 253.461 151.152C253.625 150.763 253.848 150.428 254.128 150.147C254.723 149.566 255.468 149.276 256.363 149.276C257.3 149.276 258.072 149.491 258.681 149.922C259.364 150.414 259.706 151.118 259.706 152.034C259.706 153.169 259.443 154.006 258.917 154.546C258.397 155.086 257.583 155.356 256.476 155.356C254.938 155.356 253.937 154.83 253.472 153.777ZM254.066 152.27C254.066 153.883 254.88 154.69 256.507 154.69C257.307 154.69 257.956 154.451 258.455 153.972C258.954 153.5 259.204 152.882 259.204 152.116C259.204 151.398 258.906 150.852 258.312 150.476C257.806 150.147 257.167 149.983 256.394 149.983C255.779 149.983 255.235 150.206 254.764 150.65C254.299 151.094 254.066 151.634 254.066 152.27ZM260.373 149.553L260.342 148.23C260.342 148.121 260.379 148.035 260.455 147.974C260.53 147.912 260.622 147.881 260.731 147.881C260.841 147.881 260.94 147.912 261.029 147.974C261.118 148.028 261.152 148.107 261.131 148.209L261.203 152.639C261.634 152.065 262.215 151.583 262.946 151.193C263.555 150.865 264.088 150.701 264.546 150.701C264.949 150.701 265.26 150.831 265.479 151.091C265.643 151.296 265.725 151.569 265.725 151.911C265.725 152.246 265.66 152.54 265.53 152.793C265.407 153.039 265.243 153.278 265.038 153.511C264.833 153.736 264.597 153.948 264.331 154.146C264.064 154.345 263.794 154.522 263.521 154.68C263.001 154.98 262.488 155.23 261.982 155.428C261.941 155.415 261.873 155.411 261.777 155.418C261.682 155.425 261.565 155.428 261.429 155.428C261.06 155.428 260.735 155.384 260.455 155.295C260.386 154.646 260.352 153.658 260.352 152.332L260.373 149.553ZM261.234 154.587C261.234 154.663 261.302 154.7 261.439 154.7C261.583 154.7 261.757 154.673 261.962 154.618C262.167 154.563 262.413 154.471 262.7 154.341C262.994 154.205 263.288 154.03 263.582 153.818C264.266 153.333 264.782 152.762 265.13 152.106C265.042 151.716 264.775 151.521 264.331 151.521C263.927 151.521 263.473 151.672 262.967 151.973C262.249 152.403 261.736 152.937 261.429 153.572C261.299 153.825 261.234 154.082 261.234 154.341C261.234 154.41 261.234 154.464 261.234 154.505C261.234 154.546 261.234 154.574 261.234 154.587ZM269.714 152.854C270.466 152.854 270.842 153.046 270.842 153.429C270.842 153.716 270.633 154.051 270.216 154.434C269.594 155.001 268.757 155.456 267.704 155.797C267.656 155.797 267.602 155.75 267.54 155.654C267.485 155.558 267.441 155.486 267.407 155.438C267.379 155.384 267.359 155.35 267.345 155.336C268.131 155.076 268.777 154.762 269.283 154.393C269.625 154.146 269.796 153.945 269.796 153.788C269.796 153.63 269.594 153.552 269.191 153.552C268.788 153.552 268.196 153.647 267.417 153.839C267.062 153.825 266.754 153.699 266.494 153.459C266.269 153.248 266.156 153.036 266.156 152.824C266.156 152.605 266.217 152.407 266.34 152.229C266.463 152.044 266.627 151.874 266.833 151.716C267.038 151.559 267.277 151.416 267.55 151.286C268.22 150.964 268.914 150.804 269.632 150.804C269.844 150.804 270.049 150.824 270.247 150.865C270.411 150.865 270.507 150.937 270.534 151.081C270.562 151.224 270.575 151.46 270.575 151.788C270.172 151.604 269.717 151.511 269.211 151.511C268.583 151.511 268.063 151.638 267.653 151.891C267.229 152.137 267.01 152.458 266.997 152.854C266.997 153.046 267.137 153.142 267.417 153.142L268.166 153.06C268.808 152.923 269.324 152.854 269.714 152.854ZM273.569 154.782C274.171 154.782 275.077 154.509 276.287 153.962C276.362 153.962 276.423 153.989 276.471 154.044C276.519 154.092 276.543 154.15 276.543 154.218C276.27 154.683 275.747 155.045 274.974 155.305C274.202 155.565 273.48 155.609 272.811 155.438C272.052 155.24 271.59 154.813 271.426 154.157C271.413 154.027 271.406 153.853 271.406 153.634C271.406 153.415 271.46 153.128 271.57 152.772C271.686 152.41 271.881 152.068 272.154 151.747C272.428 151.426 272.749 151.173 273.118 150.988C273.487 150.804 273.88 150.711 274.297 150.711C274.694 150.711 275.138 150.848 275.63 151.122C275.863 151.251 276.047 151.398 276.184 151.562C276.321 151.727 276.389 151.894 276.389 152.065C276.389 152.113 276.386 152.161 276.379 152.208C276.365 152.625 276.164 152.889 275.774 152.998C275.603 153.046 275.405 153.07 275.179 153.07L273.703 153.008C273.21 153.008 272.834 153.114 272.575 153.326C272.424 153.442 272.318 153.617 272.257 153.849C272.428 154.471 272.865 154.782 273.569 154.782ZM275.395 151.614C275.244 151.504 275.087 151.426 274.923 151.378C274.759 151.33 274.622 151.306 274.513 151.306C274.403 151.306 274.226 151.344 273.979 151.419C273.733 151.487 273.515 151.566 273.323 151.655C272.852 151.874 272.616 152.103 272.616 152.342C273.163 152.39 273.573 152.414 273.846 152.414C274.605 152.414 275.118 152.349 275.384 152.219C275.548 152.15 275.63 152.065 275.63 151.962C275.63 151.839 275.552 151.723 275.395 151.614ZM282.193 151.757C281.906 151.552 281.537 151.45 281.085 151.45C280.662 151.45 280.269 151.528 279.906 151.686C279.223 151.973 278.754 152.342 278.501 152.793C278.392 152.998 278.337 153.217 278.337 153.449C278.337 153.49 278.337 153.606 278.337 153.798C278.337 153.982 278.372 154.235 278.44 154.557C278.508 154.871 278.542 155.192 278.542 155.521C278.399 155.527 278.283 155.544 278.194 155.572C278.105 155.599 278.03 155.613 277.968 155.613C277.907 155.613 277.852 155.585 277.804 155.531C277.763 155.476 277.715 155.37 277.661 155.213C277.654 155.172 277.64 155.056 277.62 154.864C277.599 154.673 277.572 154.44 277.538 154.167C277.51 153.894 277.476 153.596 277.435 153.275C277.401 152.947 277.367 152.625 277.333 152.311C277.257 151.627 277.199 151.125 277.158 150.804C277.158 150.64 277.278 150.558 277.517 150.558C277.661 150.558 277.773 150.619 277.855 150.742C277.938 150.858 278.002 150.995 278.05 151.152C278.098 151.303 278.129 151.453 278.143 151.604C278.163 151.754 278.18 151.86 278.194 151.921C279.096 151.115 280.217 150.711 281.557 150.711C281.708 150.711 281.865 150.715 282.029 150.722C282.07 150.715 282.121 150.711 282.183 150.711C282.244 150.711 282.306 150.752 282.367 150.834C282.442 150.93 282.48 151.046 282.48 151.183C282.48 151.525 282.384 151.716 282.193 151.757ZM283.044 151.532C283.03 151.498 283.023 151.46 283.023 151.419C283.023 151.371 283.041 151.31 283.075 151.234C283.109 151.159 283.157 151.094 283.218 151.04C283.287 150.985 283.358 150.961 283.434 150.968C283.516 150.968 283.581 151.016 283.628 151.111L285.351 154.311C285.406 154.229 285.491 154.078 285.607 153.859C285.73 153.634 285.867 153.381 286.018 153.101C286.175 152.82 286.335 152.53 286.5 152.229C286.67 151.921 286.828 151.641 286.971 151.388C287.299 150.807 287.494 150.517 287.556 150.517C287.699 150.517 287.802 150.571 287.863 150.681C287.932 150.783 287.966 150.862 287.966 150.917C287.966 150.971 287.966 151.009 287.966 151.029C287.583 151.863 287.228 152.632 286.899 153.336C286.578 154.041 286.363 154.499 286.253 154.71C286.151 154.916 286.059 155.08 285.977 155.203C285.833 155.415 285.693 155.521 285.556 155.521C285.419 155.521 285.262 155.415 285.084 155.203C284.907 154.984 284.705 154.693 284.479 154.331C284.083 153.675 283.604 152.742 283.044 151.532ZM292.426 153.798C291.914 154.604 291.23 155.104 290.375 155.295C290.177 155.336 289.996 155.356 289.832 155.356C289.675 155.356 289.542 155.356 289.432 155.356C289.33 155.35 289.213 155.333 289.083 155.305C288.954 155.278 288.834 155.233 288.725 155.172C288.472 155.028 288.345 154.827 288.345 154.567C288.318 154.444 288.304 154.307 288.304 154.157C288.304 154 288.338 153.794 288.407 153.542C288.475 153.289 288.598 153.015 288.776 152.721C288.96 152.427 289.183 152.157 289.442 151.911C289.982 151.392 290.567 151.057 291.196 150.906C291.38 150.865 291.548 150.845 291.698 150.845C291.855 150.845 291.996 150.855 292.119 150.875C292.515 150.875 292.782 151.146 292.918 151.686C293.007 152.027 293.059 152.506 293.072 153.121C293.093 153.729 293.11 154.201 293.124 154.536C293.144 154.864 293.188 155.165 293.257 155.438H292.652C292.625 155.254 292.604 155.09 292.59 154.946C292.577 154.803 292.563 154.669 292.549 154.546C292.515 154.259 292.474 154.01 292.426 153.798ZM292.385 152.208C292.385 151.812 292.19 151.614 291.801 151.614C291.753 151.607 291.705 151.604 291.657 151.604C291.158 151.604 290.632 151.843 290.078 152.321C289.818 152.54 289.596 152.786 289.412 153.06C289.138 153.449 289.001 153.798 289.001 154.105C289.001 154.509 289.234 154.748 289.699 154.823C290.314 154.81 290.902 154.529 291.462 153.982C291.702 153.743 291.9 153.483 292.057 153.203C292.276 152.827 292.385 152.496 292.385 152.208ZM295.287 154.516L295.308 152.875C295.308 152.615 295.284 152.393 295.236 152.208H293.646L293.626 151.501H295.164V148.855C295.185 148.794 295.226 148.732 295.287 148.671C295.383 148.575 295.461 148.527 295.523 148.527C295.591 148.527 295.649 148.534 295.697 148.548C295.745 148.562 295.796 148.609 295.851 148.691C295.96 149.143 296.015 149.823 296.015 150.732C296.015 150.958 296.025 151.18 296.046 151.398C296.265 151.371 296.483 151.357 296.702 151.357C296.702 151.357 296.88 151.357 297.235 151.357C297.365 151.357 297.485 151.351 297.594 151.337L297.563 152.075L296.066 152.034L296.118 155.572C295.995 155.626 295.889 155.654 295.8 155.654C295.458 155.654 295.287 155.274 295.287 154.516ZM298.907 150.681C298.996 151.959 299.071 153.439 299.132 155.121C299.091 155.333 298.927 155.438 298.64 155.438C298.565 155.438 298.486 155.425 298.404 155.397C298.329 155.363 298.281 155.319 298.261 155.264V150.681H298.907ZM297.953 149.286C297.953 149.047 298.093 148.927 298.374 148.927C298.558 148.927 298.708 148.968 298.825 149.05C298.845 149.125 298.855 149.201 298.855 149.276C298.855 149.344 298.828 149.413 298.773 149.481C298.719 149.549 298.637 149.583 298.527 149.583C298.418 149.583 298.309 149.56 298.199 149.512C298.09 149.457 298.008 149.382 297.953 149.286ZM299.83 153.552C299.83 152.745 300.178 152.096 300.875 151.604C301.429 151.214 302.096 150.978 302.875 150.896C302.916 150.896 303.012 150.896 303.162 150.896C303.312 150.896 303.514 150.94 303.767 151.029C304.328 151.221 304.71 151.559 304.916 152.044C304.998 152.236 305.039 152.4 305.039 152.537C305.039 152.667 305.035 152.759 305.028 152.813C305.028 153.668 304.704 154.341 304.054 154.833C303.453 155.285 302.701 155.51 301.798 155.51C301.149 155.51 300.657 155.36 300.322 155.059C299.994 154.758 299.83 154.256 299.83 153.552ZM300.537 153.798C300.537 154.222 300.65 154.509 300.875 154.659C301.046 154.769 301.333 154.823 301.737 154.823C302.14 154.823 302.496 154.792 302.803 154.731C303.111 154.669 303.384 154.563 303.624 154.413C304.136 154.085 304.393 153.576 304.393 152.885C304.393 152.475 304.283 152.14 304.064 151.88C303.825 151.6 303.511 151.46 303.121 151.46C302.854 151.508 302.584 151.559 302.311 151.614C302.044 151.668 301.792 151.774 301.552 151.932C301.033 152.267 300.694 152.889 300.537 153.798ZM309.479 153.254C309.479 152.441 309.434 151.843 309.345 151.46C309.4 151.357 309.318 151.306 309.099 151.306C308.867 151.306 308.566 151.364 308.197 151.48C307.828 151.597 307.527 151.713 307.294 151.829C306.741 152.096 306.433 152.355 306.372 152.608V155.397H305.685C305.596 155.165 305.551 154.512 305.551 153.439C305.551 152.482 305.568 151.778 305.603 151.327C305.644 150.875 305.674 150.619 305.695 150.558C305.873 150.441 306.016 150.383 306.125 150.383C306.296 150.383 306.382 150.585 306.382 150.988C306.382 151.146 306.372 151.299 306.351 151.45C306.337 151.593 306.331 151.692 306.331 151.747C307.438 150.934 308.296 150.527 308.904 150.527C309.595 150.527 309.988 151.084 310.083 152.198C310.125 152.588 310.145 153.128 310.145 153.818L310.135 154.628C310.135 154.929 310.142 155.22 310.155 155.5C310.087 155.541 310.032 155.562 309.991 155.562C309.971 155.555 309.926 155.544 309.858 155.531C309.79 155.517 309.701 155.507 309.591 155.5C309.523 155.227 309.485 154.95 309.479 154.669C309.472 154.382 309.468 154.119 309.468 153.88L309.479 153.254ZM314.236 152.854C314.988 152.854 315.364 153.046 315.364 153.429C315.364 153.716 315.156 154.051 314.739 154.434C314.117 155.001 313.279 155.456 312.227 155.797C312.179 155.797 312.124 155.75 312.062 155.654C312.008 155.558 311.963 155.486 311.929 155.438C311.902 155.384 311.881 155.35 311.868 155.336C312.654 155.076 313.3 154.762 313.806 154.393C314.147 154.146 314.318 153.945 314.318 153.788C314.318 153.63 314.117 153.552 313.713 153.552C313.31 153.552 312.719 153.647 311.939 153.839C311.584 153.825 311.276 153.699 311.017 153.459C310.791 153.248 310.678 153.036 310.678 152.824C310.678 152.605 310.74 152.407 310.863 152.229C310.986 152.044 311.15 151.874 311.355 151.716C311.56 151.559 311.799 151.416 312.073 151.286C312.743 150.964 313.437 150.804 314.154 150.804C314.366 150.804 314.571 150.824 314.77 150.865C314.934 150.865 315.029 150.937 315.057 151.081C315.084 151.224 315.098 151.46 315.098 151.788C314.694 151.604 314.24 151.511 313.734 151.511C313.105 151.511 312.585 151.638 312.175 151.891C311.751 152.137 311.533 152.458 311.519 152.854C311.519 153.046 311.659 153.142 311.939 153.142L312.688 153.06C313.331 152.923 313.847 152.854 314.236 152.854Z" fill="#191919"/>
<path d="M206.999 131.502C206.755 131.374 206.453 131.468 206.324 131.713L204.233 135.697C204.105 135.942 204.199 136.244 204.444 136.372C204.688 136.501 204.991 136.407 205.119 136.162L206.978 132.62L210.519 134.479C210.764 134.607 211.066 134.513 211.195 134.268C211.323 134.024 211.229 133.722 210.984 133.593L206.999 131.502ZM244.767 151.445C228.999 151.444 219.621 146.484 214.19 141.574C211.47 139.114 209.729 136.657 208.671 134.82C208.141 133.902 207.782 133.139 207.557 132.609C207.444 132.344 207.365 132.137 207.315 131.998C207.289 131.929 207.271 131.877 207.26 131.843C207.254 131.826 207.25 131.813 207.247 131.805C207.246 131.801 207.245 131.799 207.245 131.797C207.245 131.796 207.244 131.796 207.244 131.796C207.244 131.796 207.244 131.796 207.244 131.796C207.244 131.796 207.244 131.796 206.767 131.945C206.29 132.094 206.29 132.094 206.29 132.095C206.29 132.095 206.29 132.096 206.291 132.096C206.291 132.097 206.291 132.099 206.292 132.1C206.293 132.104 206.294 132.108 206.296 132.114C206.3 132.125 206.305 132.141 206.312 132.162C206.326 132.204 206.347 132.264 206.375 132.341C206.431 132.495 206.517 132.718 206.637 133C206.876 133.564 207.253 134.363 207.804 135.32C208.907 137.232 210.71 139.775 213.519 142.315C219.146 147.404 228.768 152.444 244.767 152.445L244.767 151.445Z" fill="#191919"/>
<path d="M278.272 58.2238C278.547 58.239 278.783 58.0278 278.798 57.7521L279.046 53.2589C279.061 52.9832 278.85 52.7474 278.574 52.7322C278.299 52.717 278.063 52.9281 278.048 53.2039L277.827 57.1978L273.833 56.9775C273.558 56.9623 273.322 57.1735 273.307 57.4492C273.291 57.725 273.503 57.9608 273.778 57.976L278.272 58.2238ZM235.049 52.5249C252.556 50.8016 263.315 52.2265 269.675 54.0606C272.854 54.9774 274.934 55.9963 276.209 56.7752C276.847 57.1647 277.285 57.4946 277.559 57.7224C277.695 57.8363 277.791 57.9247 277.851 57.9824C277.881 58.0113 277.902 58.0325 277.914 58.0453C277.921 58.0517 277.925 58.056 277.927 58.0582C277.928 58.0593 277.928 58.0598 277.928 58.0598C277.928 58.0598 277.928 58.0597 277.928 58.0594C277.928 58.0593 277.927 58.0589 277.927 58.0589C277.927 58.0585 277.927 58.0581 278.299 57.7246C278.672 57.391 278.671 57.3906 278.671 57.3901C278.67 57.3899 278.67 57.3894 278.67 57.3889C278.669 57.3881 278.668 57.3871 278.667 57.386C278.665 57.3838 278.662 57.381 278.659 57.3777C278.653 57.3711 278.645 57.3624 278.635 57.3516C278.614 57.33 278.584 57.3002 278.546 57.2628C278.468 57.1881 278.354 57.0833 278.198 56.9537C277.887 56.6944 277.409 56.3363 276.731 55.9217C275.372 55.0925 273.209 54.0392 269.952 53.0997C263.438 51.2214 252.547 49.7977 234.951 51.5297L235.049 52.5249Z" fill="#191919"/>
</g>
<rect x="22.5" y="3" width="343.5" height="195" rx="6.5" stroke="#DFDFDF"/>
<path d="M193.774 205.465L192.862 205.445C192.623 205.445 192.346 205.469 192.031 205.517C192.018 205.783 191.99 206.128 191.949 206.552C191.806 208.056 191.734 209.034 191.734 209.485C191.734 209.929 191.741 210.244 191.754 210.428L190.791 210.5L191.108 205.435L188.924 205.312C188.87 205.312 188.825 205.267 188.791 205.178C188.764 205.089 188.75 205.007 188.75 204.932C188.75 204.857 188.781 204.775 188.842 204.686C188.904 204.597 188.976 204.553 189.058 204.553C189.557 204.573 190.059 204.607 190.565 204.655C191.501 204.737 192.298 204.778 192.954 204.778L193.59 204.758C194.089 204.744 194.584 204.689 195.077 204.594C195.186 204.614 195.254 204.785 195.282 205.106C195.289 205.175 195.292 205.229 195.292 205.271C194.841 205.4 194.335 205.465 193.774 205.465ZM196.492 205.681C196.581 206.959 196.656 208.439 196.717 210.121C196.676 210.333 196.512 210.438 196.225 210.438C196.15 210.438 196.071 210.425 195.989 210.397C195.914 210.363 195.866 210.319 195.846 210.264V205.681H196.492ZM195.538 204.286C195.538 204.047 195.678 203.927 195.958 203.927C196.143 203.927 196.293 203.968 196.41 204.05C196.43 204.125 196.44 204.201 196.44 204.276C196.44 204.344 196.413 204.413 196.358 204.481C196.304 204.549 196.222 204.583 196.112 204.583C196.003 204.583 195.894 204.56 195.784 204.512C195.675 204.457 195.593 204.382 195.538 204.286ZM198.009 210.336C197.729 210.452 197.541 210.51 197.445 210.51C197.356 210.51 197.295 210.5 197.261 210.479C197.227 210.459 197.189 210.411 197.148 210.336C197.148 210.11 197.155 209.827 197.168 209.485C197.189 209.143 197.206 208.777 197.22 208.388C197.233 207.998 197.24 207.605 197.24 207.208C197.24 206.812 197.22 206.45 197.179 206.122C197.179 205.903 197.326 205.793 197.62 205.793C197.688 205.793 197.739 205.917 197.773 206.163C197.814 206.409 197.842 206.6 197.855 206.737C197.876 206.874 197.893 206.973 197.907 207.034C198.084 206.713 198.437 206.46 198.963 206.275C199.243 206.187 199.506 206.142 199.752 206.142C199.999 206.142 200.214 206.173 200.398 206.234C200.59 206.289 200.75 206.395 200.88 206.552C201.017 206.703 201.085 206.904 201.085 207.157C201.263 206.822 201.663 206.521 202.285 206.255C202.853 206.002 203.362 205.875 203.813 205.875C204.462 205.875 204.78 206.122 204.767 206.614L204.982 210.428C204.982 210.462 204.883 210.486 204.685 210.5C204.302 210.527 204.11 210.493 204.11 210.397C204.104 210.261 204.1 210.124 204.1 209.987L204.151 208.336C204.151 207.564 204.076 206.952 203.926 206.501C203.475 206.535 203.126 206.61 202.88 206.727C202.641 206.836 202.429 206.976 202.244 207.147C202.06 207.311 201.896 207.533 201.752 207.813C201.431 208.442 201.27 209.276 201.27 210.315C201.229 210.459 201.096 210.531 200.87 210.531C200.72 210.531 200.597 210.507 200.501 210.459C200.405 210.404 200.368 210.356 200.388 210.315C200.518 209.591 200.583 209.027 200.583 208.624C200.583 208.302 200.549 207.998 200.48 207.711C200.419 207.417 200.34 207.082 200.245 206.706C199.26 206.706 198.597 207.099 198.255 207.885C198.105 208.234 198.02 208.562 197.999 208.87C197.985 209.17 197.979 209.43 197.979 209.649C197.979 209.861 197.989 210.09 198.009 210.336ZM207.422 209.782C208.024 209.782 208.93 209.509 210.14 208.962C210.215 208.962 210.276 208.989 210.324 209.044C210.372 209.092 210.396 209.15 210.396 209.218C210.123 209.683 209.6 210.045 208.827 210.305C208.055 210.565 207.333 210.609 206.664 210.438C205.905 210.24 205.443 209.813 205.279 209.157C205.266 209.027 205.259 208.853 205.259 208.634C205.259 208.415 205.313 208.128 205.423 207.772C205.539 207.41 205.734 207.068 206.007 206.747C206.281 206.426 206.602 206.173 206.971 205.988C207.34 205.804 207.733 205.711 208.15 205.711C208.547 205.711 208.991 205.848 209.483 206.122C209.716 206.251 209.9 206.398 210.037 206.562C210.174 206.727 210.242 206.894 210.242 207.065C210.242 207.113 210.239 207.161 210.232 207.208C210.218 207.625 210.017 207.889 209.627 207.998C209.456 208.046 209.258 208.07 209.032 208.07L207.556 208.008C207.063 208.008 206.688 208.114 206.428 208.326C206.277 208.442 206.171 208.617 206.11 208.849C206.281 209.471 206.718 209.782 207.422 209.782ZM209.248 206.614C209.097 206.504 208.94 206.426 208.776 206.378C208.612 206.33 208.475 206.306 208.366 206.306C208.256 206.306 208.079 206.344 207.833 206.419C207.586 206.487 207.368 206.566 207.176 206.655C206.705 206.874 206.469 207.103 206.469 207.342C207.016 207.39 207.426 207.414 207.699 207.414C208.458 207.414 208.971 207.349 209.237 207.219C209.401 207.15 209.483 207.065 209.483 206.962C209.483 206.839 209.405 206.723 209.248 206.614Z" fill="#191919"/>
<defs>
<clipPath id="clip0_979_25579">
<rect x="23" y="3.5" width="342.5" height="194" rx="6" fill="white"/>
</clipPath>
</defs>
</svg>
