<svg width="377" height="218" viewBox="0 0 377 218" fill="none" xmlns="http://www.w3.org/2000/svg">
<path d="M4.16406 73.8936C4.04102 73.8936 3.97949 73.7876 3.97949 73.5757C3.97949 73.4731 3.99316 73.3774 4.02051 73.2886C4.05469 73.2065 4.08203 73.1553 4.10254 73.1348L5.41504 73.2373C4.875 72.6084 4.53662 72.1504 4.3999 71.8633C4.17432 71.4121 4.06152 70.9507 4.06152 70.479C4.06152 70.3901 4.06494 70.2979 4.07178 70.2021C4.18115 69.2041 4.82031 68.7051 5.98926 68.7051C6.52246 68.7051 7.42822 68.8418 8.70654 69.1152C9.10303 69.2041 9.46533 69.2622 9.79346 69.2896C9.80029 69.3101 9.80371 69.3545 9.80371 69.4229C9.80371 69.4229 9.80371 69.4639 9.80371 69.5459C9.81055 69.5801 9.81396 69.6108 9.81396 69.6382C9.81396 69.8569 9.6499 69.9663 9.32178 69.9663C9.09619 69.9663 8.81592 69.9219 8.48096 69.833C7.38037 69.5596 6.61816 69.4229 6.19434 69.4229C5.75 69.4229 5.40137 69.5391 5.14844 69.7715C4.98438 69.9219 4.88525 70.1577 4.85107 70.479C4.85107 70.52 4.85107 70.561 4.85107 70.6021C4.85107 71.7163 5.3877 72.4478 6.46094 72.7964C7.08984 73.0015 7.84863 73.1211 8.7373 73.1553C9.14746 73.1758 9.5542 73.1929 9.95752 73.2065C10.1626 73.2817 10.2651 73.3843 10.2651 73.5142C10.2651 73.644 10.207 73.7876 10.0908 73.9448C9.69434 73.9653 9.30469 73.9756 8.92188 73.9756L5.00488 73.873C4.72461 73.873 4.44434 73.8799 4.16406 73.8936ZM6.24561 78.6719C7.05908 78.6719 7.65723 78.6274 8.04004 78.5386C8.14258 78.5933 8.19385 78.5112 8.19385 78.2925C8.19385 78.0601 8.13574 77.7593 8.01953 77.3901C7.90332 77.021 7.78711 76.7202 7.6709 76.4878C7.4043 75.9341 7.14453 75.6265 6.8916 75.5649H4.10254V74.8779C4.33496 74.7891 4.98779 74.7446 6.06104 74.7446C7.01807 74.7446 7.72217 74.7617 8.17334 74.7959C8.62451 74.8369 8.88086 74.8677 8.94238 74.8882C9.05859 75.0659 9.1167 75.2095 9.1167 75.3188C9.1167 75.4897 8.91504 75.5752 8.51172 75.5752C8.35449 75.5752 8.20068 75.5649 8.05029 75.5444C7.90674 75.5308 7.80762 75.5239 7.75293 75.5239C8.56641 76.6313 8.97314 77.4893 8.97314 78.0977C8.97314 78.7881 8.41602 79.1812 7.30176 79.2769C6.91211 79.3179 6.37207 79.3384 5.68164 79.3384L4.87158 79.3281C4.5708 79.3281 4.28027 79.335 4 79.3486C3.95898 79.2803 3.93848 79.2256 3.93848 79.1846C3.94531 79.1641 3.95557 79.1196 3.96924 79.0513C3.98291 78.9829 3.99316 78.894 4 78.7847C4.27344 78.7163 4.55029 78.6787 4.83057 78.6719C5.11768 78.665 5.38086 78.6616 5.62012 78.6616L6.24561 78.6719ZM8.81934 80.8457C7.54102 80.9346 6.06104 81.0098 4.37939 81.0713C4.16748 81.0303 4.06152 80.8662 4.06152 80.5791C4.06152 80.5039 4.0752 80.4253 4.10254 80.3433C4.13672 80.2681 4.18115 80.2202 4.23584 80.1997H8.81934V80.8457ZM10.2139 79.8921C10.4531 79.8921 10.5728 80.0322 10.5728 80.3125C10.5728 80.4971 10.5317 80.6475 10.4497 80.7637C10.3745 80.7842 10.2993 80.7944 10.2241 80.7944C10.1558 80.7944 10.0874 80.7671 10.019 80.7124C9.95068 80.6577 9.9165 80.5757 9.9165 80.4663C9.9165 80.3569 9.94043 80.2476 9.98828 80.1382C10.043 80.0288 10.1182 79.9468 10.2139 79.8921ZM4.98438 83.0605L6.625 83.0811C6.88477 83.0811 7.10693 83.0571 7.2915 83.0093V81.4199L7.99902 81.3994V82.9375H10.6445C10.7061 82.958 10.7676 82.999 10.8291 83.0605C10.9248 83.1562 10.9727 83.2349 10.9727 83.2964C10.9727 83.3647 10.9658 83.4229 10.9521 83.4707C10.9385 83.5186 10.8906 83.5698 10.8086 83.6245C10.3574 83.7339 9.67725 83.7886 8.76807 83.7886C8.54248 83.7886 8.32031 83.7988 8.10156 83.8193C8.12891 84.0381 8.14258 84.2568 8.14258 84.4756C8.14258 84.4756 8.14258 84.6533 8.14258 85.0088C8.14258 85.1387 8.14941 85.2583 8.16309 85.3677L7.4248 85.3369L7.46582 83.8398L3.92822 83.8911C3.87354 83.7681 3.84619 83.6621 3.84619 83.5732C3.84619 83.2314 4.22559 83.0605 4.98438 83.0605ZM6.64551 89.2642C6.64551 90.0161 6.4541 90.3921 6.07129 90.3921C5.78418 90.3921 5.44922 90.1836 5.06641 89.7666C4.49902 89.1445 4.04443 88.3071 3.70264 87.2544C3.70264 87.2065 3.75049 87.1519 3.84619 87.0903C3.94189 87.0356 4.01367 86.9912 4.06152 86.957C4.11621 86.9297 4.15039 86.9092 4.16406 86.8955C4.42383 87.6816 4.73828 88.3276 5.10742 88.8335C5.35352 89.1753 5.55518 89.3462 5.7124 89.3462C5.86963 89.3462 5.94824 89.1445 5.94824 88.7412C5.94824 88.3379 5.85254 87.7466 5.66113 86.9673C5.6748 86.6118 5.80127 86.3042 6.04053 86.0444C6.25244 85.8188 6.46436 85.7061 6.67627 85.7061C6.89502 85.7061 7.09326 85.7676 7.271 85.8906C7.45557 86.0137 7.62646 86.1777 7.78369 86.3828C7.94092 86.5879 8.08447 86.8271 8.21436 87.1006C8.53564 87.7705 8.69629 88.4644 8.69629 89.1821C8.69629 89.394 8.67578 89.5991 8.63477 89.7974C8.63477 89.9614 8.56299 90.0571 8.41943 90.0845C8.27588 90.1118 8.04004 90.1255 7.71191 90.1255C7.89648 89.7222 7.98877 89.2676 7.98877 88.7617C7.98877 88.1328 7.8623 87.6133 7.60938 87.2031C7.36328 86.7793 7.04199 86.5605 6.64551 86.5469C6.4541 86.5469 6.3584 86.687 6.3584 86.9673L6.44043 87.7158C6.57715 88.3584 6.64551 88.8745 6.64551 89.2642ZM5.94824 95.4883C6.75488 95.4883 7.4043 95.8369 7.89648 96.5342C8.28613 97.0879 8.52197 97.7544 8.604 98.5337C8.604 98.5747 8.604 98.6704 8.604 98.8208C8.604 98.9712 8.55957 99.1729 8.4707 99.4258C8.2793 99.9863 7.94092 100.369 7.45557 100.574C7.26416 100.656 7.1001 100.697 6.96338 100.697C6.8335 100.697 6.74121 100.694 6.68652 100.687C5.83203 100.687 5.15869 100.362 4.6665 99.7129C4.21533 99.1113 3.98975 98.3594 3.98975 97.457C3.98975 96.8076 4.14014 96.3154 4.44092 95.9805C4.7417 95.6523 5.24414 95.4883 5.94824 95.4883ZM5.70215 96.1958C5.27832 96.1958 4.99121 96.3086 4.84082 96.5342C4.73145 96.7051 4.67676 96.9922 4.67676 97.3955C4.67676 97.7988 4.70752 98.1543 4.76904 98.4619C4.83057 98.7695 4.93652 99.043 5.08691 99.2822C5.41504 99.7949 5.92432 100.051 6.61475 100.051C7.0249 100.051 7.35986 99.9419 7.61963 99.7231C7.8999 99.4839 8.04004 99.1694 8.04004 98.7798C7.99219 98.5132 7.94092 98.2432 7.88623 97.9697C7.83154 97.7031 7.72559 97.4502 7.56836 97.2109C7.2334 96.6914 6.61133 96.353 5.70215 96.1958ZM7.4248 107.024C7.4248 107.058 7.33252 107.075 7.14795 107.075C6.96338 107.075 6.83691 107.082 6.76855 107.096L6.33789 103.579L4.06152 103.763L4.10254 102.933C4.71777 102.933 5.42188 102.864 6.21484 102.728L5.70215 101.395C5.70215 101.306 5.75342 101.23 5.85596 101.169C6.03369 101.06 6.19434 101.005 6.33789 101.005L6.8916 102.563C8.06738 102.427 9.021 102.358 9.75244 102.358C10.4907 102.358 11.0649 102.42 11.4751 102.543C11.8853 102.666 12.1587 102.844 12.2954 103.076C12.439 103.315 12.5107 103.568 12.5107 103.835C12.5107 104.102 12.4526 104.372 12.3364 104.645C12.2202 104.925 12.0732 105.192 11.8955 105.445C11.7178 105.698 11.5161 105.913 11.2905 106.091C11.0718 106.269 10.8564 106.357 10.6445 106.357C10.4805 106.357 10.3643 106.34 10.2959 106.306C10.6787 106.033 11.0205 105.701 11.3213 105.312C11.6768 104.847 11.8545 104.409 11.8545 103.999C11.8545 103.609 11.5776 103.35 11.0239 103.22C10.7368 103.158 10.3301 103.127 9.80371 103.127C9.28418 103.127 8.80566 103.141 8.36816 103.168C7.9375 103.196 7.50342 103.278 7.06592 103.415C7.06592 103.838 7.10352 104.313 7.17871 104.84C7.33594 105.852 7.41797 106.58 7.4248 107.024ZM8.81934 112.5C7.54102 112.588 6.06104 112.664 4.37939 112.725C4.16748 112.684 4.06152 112.52 4.06152 112.233C4.06152 112.158 4.0752 112.079 4.10254 111.997C4.13672 111.922 4.18115 111.874 4.23584 111.854H8.81934V112.5ZM10.2139 111.546C10.4531 111.546 10.5728 111.686 10.5728 111.966C10.5728 112.151 10.5317 112.301 10.4497 112.417C10.3745 112.438 10.2993 112.448 10.2241 112.448C10.1558 112.448 10.0874 112.421 10.019 112.366C9.95068 112.312 9.9165 112.229 9.9165 112.12C9.9165 112.011 9.94043 111.901 9.98828 111.792C10.043 111.683 10.1182 111.601 10.2139 111.546ZM6.24561 117.165C7.05908 117.165 7.65723 117.121 8.04004 117.032C8.14258 117.086 8.19385 117.004 8.19385 116.786C8.19385 116.553 8.13574 116.252 8.01953 115.883C7.90332 115.514 7.78711 115.213 7.6709 114.981C7.4043 114.427 7.14453 114.12 6.8916 114.058H4.10254V113.371C4.33496 113.282 4.98779 113.238 6.06104 113.238C7.01807 113.238 7.72217 113.255 8.17334 113.289C8.62451 113.33 8.88086 113.361 8.94238 113.381C9.05859 113.559 9.1167 113.703 9.1167 113.812C9.1167 113.983 8.91504 114.068 8.51172 114.068C8.35449 114.068 8.20068 114.058 8.05029 114.038C7.90674 114.024 7.80762 114.017 7.75293 114.017C8.56641 115.125 8.97314 115.982 8.97314 116.591C8.97314 117.281 8.41602 117.674 7.30176 117.77C6.91211 117.811 6.37207 117.832 5.68164 117.832L4.87158 117.821C4.5708 117.821 4.28027 117.828 4 117.842C3.95898 117.773 3.93848 117.719 3.93848 117.678C3.94531 117.657 3.95557 117.613 3.96924 117.544C3.98291 117.476 3.99316 117.387 4 117.278C4.27344 117.209 4.55029 117.172 4.83057 117.165C5.11768 117.158 5.38086 117.155 5.62012 117.155L6.24561 117.165ZM4.98438 119.964L6.625 119.985C6.88477 119.985 7.10693 119.961 7.2915 119.913L7.2915 118.324L7.99902 118.303L7.99902 119.841H10.6445C10.7061 119.862 10.7676 119.903 10.8291 119.964C10.9248 120.06 10.9727 120.139 10.9727 120.2C10.9727 120.269 10.9658 120.327 10.9521 120.375C10.9385 120.422 10.8906 120.474 10.8086 120.528C10.3574 120.638 9.67725 120.692 8.76807 120.692C8.54248 120.692 8.32031 120.703 8.10156 120.723C8.12891 120.942 8.14258 121.161 8.14258 121.379C8.14258 121.379 8.14258 121.557 8.14258 121.913C8.14258 122.042 8.14941 122.162 8.16309 122.271L7.4248 122.241L7.46582 120.744L3.92822 120.795C3.87354 120.672 3.84619 120.566 3.84619 120.477C3.84619 120.135 4.22559 119.964 4.98438 119.964ZM4.71777 124.753C4.71777 125.354 4.99121 126.26 5.53809 127.47C5.53809 127.545 5.51074 127.607 5.45605 127.655C5.4082 127.703 5.3501 127.727 5.28174 127.727C4.81689 127.453 4.45459 126.93 4.19482 126.158C3.93506 125.385 3.89063 124.664 4.06152 123.994C4.25977 123.235 4.68701 122.774 5.34326 122.61C5.47314 122.596 5.64746 122.589 5.86621 122.589C6.08496 122.589 6.37207 122.644 6.72754 122.753C7.08984 122.87 7.43164 123.064 7.75293 123.338C8.07422 123.611 8.32715 123.933 8.51172 124.302C8.69629 124.671 8.78857 125.064 8.78857 125.481C8.78857 125.877 8.65186 126.322 8.37842 126.814C8.24854 127.046 8.10156 127.231 7.9375 127.368C7.77344 127.504 7.60596 127.573 7.43506 127.573C7.38721 127.573 7.33936 127.569 7.2915 127.562C6.87451 127.549 6.61133 127.347 6.50195 126.958C6.4541 126.787 6.43018 126.588 6.43018 126.363L6.4917 124.886C6.4917 124.394 6.38574 124.018 6.17383 123.758C6.05762 123.608 5.8833 123.502 5.65088 123.44C5.02881 123.611 4.71777 124.049 4.71777 124.753ZM7.88623 126.578C7.99561 126.428 8.07422 126.271 8.12207 126.106C8.16992 125.942 8.19385 125.806 8.19385 125.696C8.19385 125.587 8.15625 125.409 8.08105 125.163C8.0127 124.917 7.93408 124.698 7.84521 124.507C7.62646 124.035 7.39746 123.799 7.1582 123.799C7.11035 124.346 7.08643 124.756 7.08643 125.03C7.08643 125.789 7.15137 126.301 7.28125 126.568C7.34961 126.732 7.43506 126.814 7.5376 126.814C7.66064 126.814 7.77686 126.735 7.88623 126.578ZM7.74268 133.376C7.94775 133.089 8.05029 132.72 8.05029 132.269C8.05029 131.845 7.97168 131.452 7.81445 131.09C7.52734 130.406 7.1582 129.938 6.70703 129.685C6.50195 129.576 6.2832 129.521 6.05078 129.521C6.00977 129.521 5.89355 129.521 5.70215 129.521C5.51758 129.521 5.26465 129.555 4.94336 129.624C4.62891 129.692 4.30762 129.726 3.97949 129.726C3.97266 129.583 3.95557 129.466 3.92822 129.377C3.90088 129.289 3.88721 129.213 3.88721 129.152C3.88721 129.09 3.91455 129.036 3.96924 128.988C4.02393 128.947 4.12988 128.899 4.28711 128.844C4.32813 128.837 4.44434 128.824 4.63574 128.803C4.82715 128.783 5.05957 128.755 5.33301 128.721C5.60645 128.694 5.90381 128.66 6.2251 128.619C6.55322 128.584 6.87451 128.55 7.18896 128.516C7.87256 128.441 8.375 128.383 8.69629 128.342C8.86035 128.342 8.94238 128.461 8.94238 128.701C8.94238 128.844 8.88086 128.957 8.75781 129.039C8.6416 129.121 8.50488 129.186 8.34766 129.234C8.19727 129.282 8.04688 129.312 7.89648 129.326C7.74609 129.347 7.64014 129.364 7.57861 129.377C8.38525 130.28 8.78857 131.401 8.78857 132.741C8.78857 132.891 8.78516 133.048 8.77832 133.212C8.78516 133.253 8.78857 133.305 8.78857 133.366C8.78857 133.428 8.74756 133.489 8.66553 133.551C8.56982 133.626 8.45361 133.664 8.31689 133.664C7.9751 133.664 7.78369 133.568 7.74268 133.376ZM4.71777 136.227C4.71777 136.829 4.99121 137.734 5.53809 138.944C5.53809 139.02 5.51074 139.081 5.45605 139.129C5.4082 139.177 5.3501 139.201 5.28174 139.201C4.81689 138.927 4.45459 138.404 4.19482 137.632C3.93506 136.859 3.89063 136.138 4.06152 135.468C4.25977 134.709 4.68701 134.248 5.34326 134.084C5.47314 134.07 5.64746 134.063 5.86621 134.063C6.08496 134.063 6.37207 134.118 6.72754 134.228C7.08984 134.344 7.43164 134.539 7.75293 134.812C8.07422 135.085 8.32715 135.407 8.51172 135.776C8.69629 136.145 8.78857 136.538 8.78857 136.955C8.78857 137.352 8.65186 137.796 8.37842 138.288C8.24854 138.521 8.10156 138.705 7.9375 138.842C7.77344 138.979 7.60596 139.047 7.43506 139.047C7.38721 139.047 7.33936 139.043 7.2915 139.037C6.87451 139.023 6.61133 138.821 6.50195 138.432C6.4541 138.261 6.43018 138.062 6.43018 137.837L6.4917 136.36C6.4917 135.868 6.38574 135.492 6.17383 135.232C6.05762 135.082 5.8833 134.976 5.65088 134.915C5.02881 135.085 4.71777 135.523 4.71777 136.227ZM7.88623 138.052C7.99561 137.902 8.07422 137.745 8.12207 137.581C8.16992 137.417 8.19385 137.28 8.19385 137.17C8.19385 137.061 8.15625 136.883 8.08105 136.637C8.0127 136.391 7.93408 136.172 7.84521 135.981C7.62646 135.509 7.39746 135.273 7.1582 135.273C7.11035 135.82 7.08643 136.23 7.08643 136.504C7.08643 137.263 7.15137 137.775 7.28125 138.042C7.34961 138.206 7.43506 138.288 7.5376 138.288C7.66064 138.288 7.77686 138.209 7.88623 138.052ZM6.64551 143.323C6.64551 144.075 6.4541 144.451 6.07129 144.451C5.78418 144.451 5.44922 144.242 5.06641 143.825C4.49902 143.203 4.04443 142.366 3.70264 141.313C3.70264 141.265 3.75049 141.21 3.84619 141.149C3.94189 141.094 4.01367 141.05 4.06152 141.016C4.11621 140.988 4.15039 140.968 4.16406 140.954C4.42383 141.74 4.73828 142.386 5.10742 142.892C5.35352 143.234 5.55518 143.405 5.7124 143.405C5.86963 143.405 5.94824 143.203 5.94824 142.8C5.94824 142.396 5.85254 141.805 5.66113 141.026C5.6748 140.67 5.80127 140.363 6.04053 140.103C6.25244 139.877 6.46436 139.765 6.67627 139.765C6.89502 139.765 7.09326 139.826 7.271 139.949C7.45557 140.072 7.62646 140.236 7.78369 140.441C7.94092 140.646 8.08447 140.886 8.21436 141.159C8.53564 141.829 8.69629 142.523 8.69629 143.241C8.69629 143.453 8.67578 143.658 8.63477 143.856C8.63477 144.02 8.56299 144.116 8.41943 144.143C8.27588 144.17 8.04004 144.184 7.71191 144.184C7.89648 143.781 7.98877 143.326 7.98877 142.82C7.98877 142.191 7.8623 141.672 7.60938 141.262C7.36328 140.838 7.04199 140.619 6.64551 140.605C6.4541 140.605 6.3584 140.746 6.3584 141.026L6.44043 141.774C6.57715 142.417 6.64551 142.933 6.64551 143.323ZM4.98438 146.635L6.625 146.655C6.88477 146.655 7.10693 146.631 7.2915 146.583V144.994L7.99902 144.974V146.512H10.6445C10.7061 146.532 10.7676 146.573 10.8291 146.635C10.9248 146.73 10.9727 146.809 10.9727 146.871C10.9727 146.939 10.9658 146.997 10.9521 147.045C10.9385 147.093 10.8906 147.144 10.8086 147.199C10.3574 147.308 9.67725 147.363 8.76807 147.363C8.54248 147.363 8.32031 147.373 8.10156 147.394C8.12891 147.612 8.14258 147.831 8.14258 148.05C8.14258 148.05 8.14258 148.228 8.14258 148.583C8.14258 148.713 8.14941 148.833 8.16309 148.942L7.4248 148.911L7.46582 147.414L3.92822 147.465C3.87354 147.342 3.84619 147.236 3.84619 147.147C3.84619 146.806 4.22559 146.635 4.98438 146.635Z" fill="#191919"/>
<g clip-path="url(#clip0_1675_8160)">
<rect x="23" y="3.5" width="342.5" height="194" rx="6" fill="#F4F4F4"/>
<g opacity="0.3">
<path d="M23.5098 171C28.9922 168.879 34.1521 168.243 39.957 166.97C45.762 165.697 53.8244 164.848 62.5317 164.848C71.2391 164.848 204.107 160.181 234.744 150.211C265.381 140.241 290.536 130.058 316.981 127.937C338.137 126.24 358.475 127.23 366 127.937" stroke="#656565"/>
</g>
<g opacity="0.3">
<path d="M23 171.483C28.4906 166.59 33.6582 165.124 39.4718 162.188C45.2853 159.252 53.3597 157.294 62.08 157.294C70.8004 157.294 203.866 146.531 234.549 123.535C265.232 100.539 290.424 77.054 316.908 72.1612C338.095 68.247 358.464 70.5303 366 72.1612" stroke="#656565"/>
</g>
<g opacity="0.3">
<path d="M23 172.483C28.4906 166.485 33.6582 164.686 39.4718 161.088C45.2853 157.489 53.3597 155.088 62.08 155.088C70.8004 155.088 203.866 141.894 234.549 113.703C265.232 85.5122 290.424 56.7217 316.908 50.7237C338.095 45.9253 358.464 48.7243 366 50.7237" stroke="#656565"/>
</g>
<g opacity="0.3">
<path d="M23.5098 171C28.9922 164.443 34.1521 162.477 39.957 158.543C45.762 154.609 53.8244 151.985 62.5317 151.985C71.2391 151.985 204.107 137.561 234.744 106.743C265.381 75.9262 290.536 44.4532 316.981 37.8963C338.137 32.6508 358.475 35.7107 366 37.8963" stroke="#656565"/>
</g>
<g opacity="0.3">
<path d="M23.5098 171C28.9922 163.865 34.1521 161.725 39.957 157.444C45.762 153.163 53.8244 150.307 62.5317 150.307C71.2391 150.307 204.107 134.61 234.744 101.074C265.381 67.5373 290.536 33.2873 316.981 26.1519C338.137 20.4435 358.475 23.7734 366 26.1519" stroke="#656565"/>
</g>
<g opacity="0.3">
<path d="M23.5098 171C28.9922 167.914 34.1521 166.989 39.957 165.138C45.762 163.287 53.8244 162.052 62.5317 162.052C71.2391 162.052 204.107 155.264 234.744 140.762C265.381 126.259 290.536 111.449 316.981 108.363C338.137 105.894 358.475 107.334 366 108.363" stroke="#656565"/>
</g>
<g opacity="0.3">
<path d="M23.5098 171C28.9922 166.854 34.1521 165.611 39.957 163.123C45.762 160.635 53.8244 158.976 62.5317 158.976C71.2391 158.976 204.107 149.855 234.744 130.367C265.381 110.88 290.536 90.9777 316.981 86.8315C338.137 83.5145 358.475 85.4494 366 86.8315" stroke="#656565"/>
</g>
<g opacity="0.3">
<path d="M23 171.484C28.4906 165.998 33.6582 164.353 39.4718 161.061C45.2853 157.77 53.3597 155.574 62.08 155.574C70.8004 155.574 203.866 143.506 234.549 117.722C265.232 91.9374 290.424 65.6046 316.908 60.1186C338.095 55.7298 358.464 58.2899 366 60.1186" stroke="#656565"/>
</g>
<path d="M23 171.685C28.4906 166.107 33.6582 164.435 39.4718 161.089C45.2853 157.742 53.3597 155.51 62.08 155.51C70.8004 155.51 203.866 143.241 234.549 117.027C265.232 90.8127 290.424 64.0411 316.908 58.4637C338.095 54.0017 358.464 56.6045 366 58.4637" stroke="#656565" stroke-width="3"/>
</g>
<rect x="22.5" y="3" width="343.5" height="195" rx="6.5" stroke="#DFDFDF"/>
<path d="M193.774 205.465L192.862 205.445C192.623 205.445 192.346 205.469 192.031 205.517C192.018 205.783 191.99 206.128 191.949 206.552C191.806 208.056 191.734 209.034 191.734 209.485C191.734 209.929 191.741 210.244 191.754 210.428L190.791 210.5L191.108 205.435L188.924 205.312C188.87 205.312 188.825 205.267 188.791 205.178C188.764 205.089 188.75 205.007 188.75 204.932C188.75 204.857 188.781 204.775 188.842 204.686C188.904 204.597 188.976 204.553 189.058 204.553C189.557 204.573 190.059 204.607 190.565 204.655C191.501 204.737 192.298 204.778 192.954 204.778L193.59 204.758C194.089 204.744 194.584 204.689 195.077 204.594C195.186 204.614 195.254 204.785 195.282 205.106C195.289 205.175 195.292 205.229 195.292 205.271C194.841 205.4 194.335 205.465 193.774 205.465ZM196.492 205.681C196.581 206.959 196.656 208.439 196.717 210.121C196.676 210.333 196.512 210.438 196.225 210.438C196.15 210.438 196.071 210.425 195.989 210.397C195.914 210.363 195.866 210.319 195.846 210.264V205.681H196.492ZM195.538 204.286C195.538 204.047 195.678 203.927 195.958 203.927C196.143 203.927 196.293 203.968 196.41 204.05C196.43 204.125 196.44 204.201 196.44 204.276C196.44 204.344 196.413 204.413 196.358 204.481C196.304 204.549 196.222 204.583 196.112 204.583C196.003 204.583 195.894 204.56 195.784 204.512C195.675 204.457 195.593 204.382 195.538 204.286ZM198.009 210.336C197.729 210.452 197.541 210.51 197.445 210.51C197.356 210.51 197.295 210.5 197.261 210.479C197.227 210.459 197.189 210.411 197.148 210.336C197.148 210.11 197.155 209.827 197.168 209.485C197.189 209.143 197.206 208.777 197.22 208.388C197.233 207.998 197.24 207.605 197.24 207.208C197.24 206.812 197.22 206.45 197.179 206.122C197.179 205.903 197.326 205.793 197.62 205.793C197.688 205.793 197.739 205.917 197.773 206.163C197.814 206.409 197.842 206.6 197.855 206.737C197.876 206.874 197.893 206.973 197.907 207.034C198.084 206.713 198.437 206.46 198.963 206.275C199.243 206.187 199.506 206.142 199.752 206.142C199.999 206.142 200.214 206.173 200.398 206.234C200.59 206.289 200.75 206.395 200.88 206.552C201.017 206.703 201.085 206.904 201.085 207.157C201.263 206.822 201.663 206.521 202.285 206.255C202.853 206.002 203.362 205.875 203.813 205.875C204.462 205.875 204.78 206.122 204.767 206.614L204.982 210.428C204.982 210.462 204.883 210.486 204.685 210.5C204.302 210.527 204.11 210.493 204.11 210.397C204.104 210.261 204.1 210.124 204.1 209.987L204.151 208.336C204.151 207.564 204.076 206.952 203.926 206.501C203.475 206.535 203.126 206.61 202.88 206.727C202.641 206.836 202.429 206.976 202.244 207.147C202.06 207.311 201.896 207.533 201.752 207.813C201.431 208.442 201.27 209.276 201.27 210.315C201.229 210.459 201.096 210.531 200.87 210.531C200.72 210.531 200.597 210.507 200.501 210.459C200.405 210.404 200.368 210.356 200.388 210.315C200.518 209.591 200.583 209.027 200.583 208.624C200.583 208.302 200.549 207.998 200.48 207.711C200.419 207.417 200.34 207.082 200.245 206.706C199.26 206.706 198.597 207.099 198.255 207.885C198.105 208.234 198.02 208.562 197.999 208.87C197.985 209.17 197.979 209.43 197.979 209.649C197.979 209.861 197.989 210.09 198.009 210.336ZM207.422 209.782C208.024 209.782 208.93 209.509 210.14 208.962C210.215 208.962 210.276 208.989 210.324 209.044C210.372 209.092 210.396 209.15 210.396 209.218C210.123 209.683 209.6 210.045 208.827 210.305C208.055 210.565 207.333 210.609 206.664 210.438C205.905 210.24 205.443 209.813 205.279 209.157C205.266 209.027 205.259 208.853 205.259 208.634C205.259 208.415 205.313 208.128 205.423 207.772C205.539 207.41 205.734 207.068 206.007 206.747C206.281 206.426 206.602 206.173 206.971 205.988C207.34 205.804 207.733 205.711 208.15 205.711C208.547 205.711 208.991 205.848 209.483 206.122C209.716 206.251 209.9 206.398 210.037 206.562C210.174 206.727 210.242 206.894 210.242 207.065C210.242 207.113 210.239 207.161 210.232 207.208C210.218 207.625 210.017 207.889 209.627 207.998C209.456 208.046 209.258 208.07 209.032 208.07L207.556 208.008C207.063 208.008 206.688 208.114 206.428 208.326C206.277 208.442 206.171 208.617 206.11 208.849C206.281 209.471 206.718 209.782 207.422 209.782ZM209.248 206.614C209.097 206.504 208.94 206.426 208.776 206.378C208.612 206.33 208.475 206.306 208.366 206.306C208.256 206.306 208.079 206.344 207.833 206.419C207.586 206.487 207.368 206.566 207.176 206.655C206.705 206.874 206.469 207.103 206.469 207.342C207.016 207.39 207.426 207.414 207.699 207.414C208.458 207.414 208.971 207.349 209.237 207.219C209.401 207.15 209.483 207.065 209.483 206.962C209.483 206.839 209.405 206.723 209.248 206.614Z" fill="#191919"/>
<defs>
<clipPath id="clip0_1675_8160">
<rect x="23" y="3.5" width="342.5" height="194" rx="6" fill="white"/>
</clipPath>
</defs>
</svg>
