<svg width="378" height="291" viewBox="0 0 378 291" fill="none" xmlns="http://www.w3.org/2000/svg">
<rect x="1" y="0.5" width="376" height="290" rx="5.5" fill="#F5F5F5" stroke="#DFE7EF"/>
<g style="mix-blend-mode:multiply">
<path d="M41.6115 270.413C170.867 276.961 219.865 192.62 333.48 204.099" stroke="black" stroke-width="3"/>
<path d="M41.6117 270.41C170.868 276.959 219.59 178.698 333.205 190.177" stroke="#C2C2C2"/>
<path d="M41.6102 270.403C170.866 276.952 219.59 166.418 333.205 177.897" stroke="#C2C2C2"/>
<path d="M41.6113 270.412C170.867 276.961 219.59 205.715 333.205 217.194" stroke="#C2C2C2"/>
<path d="M41.6113 270.412C170.867 276.961 219.59 217.996 333.205 229.474" stroke="#C2C2C2"/>
</g>
<path d="M189.857 82.1734C189.858 82.3793 189.818 82.5833 189.739 82.7734C189.66 82.9636 189.544 83.136 189.397 83.2807L178.951 93.7267C178.646 93.935 178.278 94.029 177.91 93.9922C177.543 93.9553 177.2 93.7898 176.943 93.525C176.686 93.2603 176.53 92.9131 176.504 92.5448C176.478 92.1766 176.582 91.8108 176.799 91.5121L186.075 82.1734L176.799 72.8347C176.608 72.5402 176.522 72.1902 176.553 71.8406C176.585 71.4911 176.733 71.1624 176.974 70.9071C177.215 70.6518 177.535 70.4847 177.882 70.4327C178.229 70.3807 178.583 70.4467 178.888 70.6202L189.334 81.0662C189.492 81.2054 189.62 81.3755 189.71 81.5659C189.8 81.7563 189.85 81.963 189.857 82.1734Z" fill="#BABABA"/>
<g clip-path="url(#clip0_1510_7888)">
<path fill-rule="evenodd" clip-rule="evenodd" d="M245.5 112.517C245.5 116.154 248.496 119.1 252.188 119.1H297.312C301.004 119.1 304 116.154 304 112.517V66.402C304 64.6222 303.113 62.5218 301.823 61.2615L287.331 47.1115C286.052 45.8623 283.926 45 282.125 45H252.188C248.502 45 245.5 47.9461 245.5 51.5831V112.517ZM252.188 48.2943C250.342 48.2943 248.838 49.7701 248.838 51.5831V112.517C248.838 114.335 250.336 115.806 252.182 115.806H297.307C299.153 115.806 300.651 114.33 300.651 112.517V66.413H286.434C283.668 66.413 281.429 64.2076 281.429 61.4826V48.2943H252.188ZM299.354 63.1187H286.439C285.519 63.1187 284.779 62.3836 284.779 61.4826V48.9576L299.36 63.1187H299.354Z" fill="#BABABA"/>
<path fill-rule="evenodd" clip-rule="evenodd" d="M280.563 73.8496C277.05 73.8884 274.217 76.7379 274.257 80.199C274.261 80.8349 274.37 81.4417 274.552 82.0194L269.142 85.4951C267.964 84.3009 266.319 83.563 264.501 83.5825C260.988 83.6164 258.154 86.4708 258.194 89.9319C258.233 93.393 261.125 96.1842 264.639 96.1454C264.934 96.1454 265.23 96.1211 265.516 96.0774C266.777 95.8929 267.91 95.3396 268.817 94.5386L274.478 98.4366C274.473 98.5531 274.464 98.6696 274.464 98.7861C274.503 102.247 277.395 105.038 280.908 105C281.204 105 281.5 104.975 281.785 104.932C284.885 104.475 287.25 101.82 287.215 98.6502C287.176 95.1891 284.283 92.3979 280.77 92.4367C278.43 92.461 276.4 93.7376 275.311 95.6114L270.458 92.2668C270.778 91.5047 270.955 90.6746 270.945 89.8008C270.936 89.1309 270.822 88.4853 270.615 87.8834L275.991 84.432C277.173 85.6698 278.849 86.4416 280.701 86.4222C280.997 86.4222 281.293 86.398 281.578 86.3543C284.678 85.898 287.043 83.2427 287.008 80.0728C286.969 76.6117 284.077 73.8205 280.563 73.8593V73.8496ZM277.292 98.7521C277.272 96.99 278.588 95.5095 280.312 95.257C280.47 95.2328 280.632 95.2182 280.8 95.2182C282.756 95.1988 284.367 96.7473 284.387 98.6745C284.407 100.602 282.825 102.184 280.879 102.208C278.923 102.228 277.311 100.679 277.292 98.7521ZM264.609 93.359C262.653 93.3784 261.042 91.8299 261.022 89.9028C261.002 88.1406 262.318 86.6601 264.042 86.4077C264.2 86.3834 264.363 86.3688 264.53 86.3688C266.486 86.3494 268.098 87.8979 268.117 89.8251C268.137 91.7522 266.565 93.3396 264.609 93.359ZM284.18 80.0922C284.2 82.0194 282.623 83.6019 280.672 83.6262C278.716 83.6456 277.104 82.0971 277.085 80.1699C277.065 78.4078 278.381 76.9272 280.105 76.6748C280.263 76.6505 280.425 76.636 280.593 76.636C282.549 76.6166 284.16 78.1651 284.18 80.0922Z" fill="black"/>
</g>
<g clip-path="url(#clip1_1510_7888)">
<path fill-rule="evenodd" clip-rule="evenodd" d="M62.5 112.517C62.5 116.154 65.4516 119.1 69.0886 119.1H113.545C117.182 119.1 120.134 116.154 120.134 112.517V66.402C120.134 64.6222 119.261 62.5218 117.989 61.2615L103.712 47.1115C102.452 45.8623 100.357 45 98.5827 45H69.0886C65.4571 45 62.5 47.9461 62.5 51.5831V112.517ZM69.0886 48.2943C67.2701 48.2943 65.7888 49.7701 65.7888 51.5831V112.517C65.7888 114.335 67.2646 115.806 69.0831 115.806H113.54C115.358 115.806 116.834 114.33 116.834 112.517V66.413H102.828C100.103 66.413 97.8973 64.2076 97.8973 61.4826V48.2943H69.0886ZM115.557 63.1187H102.833C101.927 63.1187 101.197 62.3836 101.197 61.4826V48.9576L115.563 63.1187H115.557ZM72.2945 57.0552L87.4616 57.1436C88.346 57.1436 89.0645 56.4251 89.0701 55.5241C89.0701 54.6231 88.3626 53.8935 87.4837 53.888L72.3166 53.7996C71.4322 53.7996 70.7137 54.5181 70.7081 55.4191C70.7081 56.3201 71.4156 57.0497 72.2945 57.0552ZM72.2945 64.2408L87.4616 64.3292C88.346 64.3292 89.0645 63.6107 89.0701 62.7097C89.0701 61.8087 88.3626 61.0791 87.4837 61.0736L72.3166 60.9852C71.4322 60.9852 70.7137 61.7037 70.7081 62.6047C70.7081 63.5056 71.4156 64.2352 72.2945 64.2408ZM100.191 68.425L72.2503 68.2647C71.3659 68.2647 70.6473 68.9833 70.6418 69.8842C70.6363 70.7852 71.3493 71.5148 72.2282 71.5203L100.169 71.6806C101.053 71.6806 101.772 70.9621 101.777 70.0611C101.777 69.1601 101.07 68.4305 100.191 68.425Z" fill="#BABABA"/>
<path d="M91.9502 76.7318H107.04L107.045 76.7207C108.798 76.7207 108.798 79.4733 107.106 79.4125H93.2712L92.7074 82.6074L89.7006 99.51C89.076 103.075 88.4458 106.646 87.8212 110.15C87.7604 110.465 87.5062 110.714 87.2575 110.902C87.1911 110.902 87.1911 110.963 87.1303 110.963C87.0032 111.09 86.8153 111.151 86.6273 111.151C86.3786 111.211 86.2515 111.211 86.0635 111.151C85.9972 111.151 85.9972 111.09 85.9364 111.09C85.627 110.97 85.4403 110.723 85.2557 110.479L85.2455 110.465C84.9912 109.962 84.8033 109.465 84.5546 108.962C83.0572 105.707 81.5544 102.453 80.0515 99.1988L80.0498 99.195H74.539C73.7873 99.195 73.2235 98.5704 73.1627 97.8187C73.1019 97.0669 73.8481 96.4424 74.539 96.4424H80.8623C81.3653 96.4424 81.8683 96.6966 82.117 97.1333C82.3713 97.6363 82.5592 98.1337 82.8079 98.6367C83.7476 100.892 84.8144 103.086 85.8148 105.275C86.8153 99.7698 87.7549 94.1982 88.7554 88.6875C89.38 85.1831 90.0101 81.6124 90.6347 78.1081C90.6347 77.4227 91.0713 76.7318 91.9502 76.7318Z" fill="black"/>
<path d="M105.1 89.0025C105.603 89.5 105.536 90.2517 105.1 90.7547V90.7492C104.724 91.125 104.409 91.5672 103.972 92.0039C103.16 93.0099 102.281 94.0103 101.468 95.0108C102.596 96.3926 103.784 97.7689 104.912 99.1452C105.349 99.6427 105.415 100.394 104.912 100.897C104.475 101.334 103.596 101.4 103.16 100.897C102.784 100.455 102.469 100.079 102.093 99.6427C101.341 98.7639 100.589 97.8297 99.8378 96.9509C98.7102 98.2609 97.6489 99.5764 96.5213 100.892C96.0847 101.395 95.2058 101.329 94.7692 100.892C94.2662 100.394 94.3325 99.6427 94.7692 99.1397C95.145 98.6975 95.4601 98.3217 95.8359 97.885C96.654 96.9453 97.4665 95.9449 98.279 95.0052C97.0851 93.5681 95.8967 92.1863 94.7084 90.7492C94.2717 90.2517 94.2054 89.5 94.7084 88.997C95.145 88.5603 96.0239 88.494 96.4605 88.997C96.8364 89.4392 97.1514 89.815 97.5273 90.2517C98.3398 91.1914 99.0916 92.131 99.9041 93.0707C101.092 91.7551 102.22 90.3788 103.348 89.0025C103.784 88.4995 104.663 88.5659 105.1 89.0025Z" fill="black"/>
</g>
<path d="M180.983 172.884C180.738 172.885 180.496 172.837 180.269 172.743C180.043 172.649 179.838 172.511 179.666 172.337L167.244 159.915C166.996 159.552 166.884 159.114 166.928 158.677C166.972 158.24 167.169 157.833 167.484 157.527C167.799 157.221 168.211 157.036 168.649 157.005C169.087 156.973 169.522 157.098 169.877 157.356L180.983 168.387L192.088 157.356C192.439 157.129 192.855 157.026 193.271 157.064C193.686 157.101 194.077 157.278 194.381 157.564C194.684 157.85 194.883 158.23 194.945 158.643C195.007 159.056 194.928 159.477 194.722 159.84L182.3 172.263C182.134 172.45 181.932 172.602 181.705 172.709C181.479 172.816 181.233 172.875 180.983 172.884Z" fill="#BABABA"/>
<defs>
<clipPath id="clip0_1510_7888">
<rect width="58.4999" height="74.0999" fill="white" transform="translate(245.5 45)"/>
</clipPath>
<clipPath id="clip1_1510_7888">
<rect width="57.6339" height="74.0999" fill="white" transform="translate(62.5 45)"/>
</clipPath>
</defs>
</svg>
