<svg width="129" height="121" viewBox="0 0 129 121" fill="none" xmlns="http://www.w3.org/2000/svg">
<g clip-path="url(#clip0_211_51650)">
<path d="M126.383 7.35959H119.967V3.08259C119.967 1.90642 119.005 0.944092 117.829 0.944092H72.9202C69.5414 0.944092 66.3764 2.56935 64.3662 5.28525C62.356 2.56935 59.191 0.944092 55.8122 0.944092H10.9037C9.72751 0.944092 8.76518 1.90642 8.76518 3.08259V7.35959H2.34968C1.17351 7.35959 0.211182 8.32192 0.211182 9.4981V92.8996C0.211182 94.0758 1.17351 95.0381 2.34968 95.0381H90.0282V110.008C90.0282 115.91 94.8185 120.7 100.721 120.7C106.623 120.7 111.413 115.91 111.413 110.008V95.0381H126.383C127.559 95.0381 128.521 94.0758 128.521 92.8996V9.4981C128.521 8.32192 127.559 7.35959 126.383 7.35959ZM90.0282 90.7611H4.48818V11.6366H8.76518V84.3456C8.76518 85.5218 9.72751 86.4841 10.9037 86.4841H90.0282V90.7611ZM107.136 110.008C107.136 113.558 104.271 116.423 100.721 116.423C97.1708 116.423 94.3052 113.558 94.3052 110.008V107.869H107.136V110.008ZM107.136 103.592H94.3052V99.3151H107.136V103.592ZM98.5822 60.8221V95.0381H94.3052V60.8221H98.5822ZM95.6311 56.5451L100.721 46.3659L105.81 56.5451H95.6311ZM107.136 95.0381H102.859V60.8221H107.136V95.0381ZM111.178 57.7213L102.624 40.6133C101.982 39.5654 100.635 39.2233 99.5659 39.8648C99.2451 40.0573 98.9885 40.3139 98.8175 40.6133L90.2635 57.7213C90.1138 58.0207 90.0282 58.3415 90.0282 58.6836V82.2071H60.0892V65.0991H64.3662C71.4446 65.0991 77.1972 59.3466 77.1972 52.2681C77.1972 51.0919 76.2349 50.1296 75.0587 50.1296H68.6432C61.5648 50.1296 55.8122 55.8822 55.8122 62.9606V65.1633C53.9731 63.7519 51.7277 62.9606 49.3967 62.9606H40.8427C39.6665 62.9606 38.7042 63.9229 38.7042 65.0991C38.7042 71.0014 43.4944 75.7916 49.3967 75.7916H55.8122V82.2071H13.0422V5.22109H55.8122C59.3407 5.22109 62.2277 8.10807 62.2277 11.6366V13.7751H66.5047V11.6366C66.5047 8.10807 69.3917 5.22109 72.9202 5.22109H115.69V82.2071H111.413V58.6836C111.413 58.3415 111.328 58.0207 111.178 57.7213ZM60.3672 60.8221C61.3509 57.0584 64.7511 54.4066 68.6432 54.4066H72.6422C71.6585 58.1704 68.2583 60.8221 64.3662 60.8221H60.3672ZM55.4487 71.5146H49.3967C46.6808 71.5146 44.2643 69.8038 43.3447 67.2376H49.3967C52.1126 67.2376 54.5291 68.9484 55.4487 71.5146ZM124.244 90.7611H111.413V86.4841H117.829C119.005 86.4841 119.967 85.5218 119.967 84.3456V11.6366H124.244V90.7611Z" fill="url(#paint0_linear_211_51650)"/>
<path d="M109.275 9.49829H72.921C71.7448 9.49829 70.7825 10.4606 70.7825 11.6368V28.7448C70.7825 29.921 71.7448 30.8833 72.921 30.8833H109.275C110.452 30.8833 111.414 29.921 111.414 28.7448V11.6368C111.414 10.4606 110.452 9.49829 109.275 9.49829ZM107.137 26.6063H75.0595V13.7753H107.137V26.6063Z" fill="#B1D4A5"/>
<path d="M34.4283 35.1593C39.1544 35.1593 42.9823 31.3314 42.9823 26.6053C42.9823 21.8792 39.1544 18.0513 34.4283 18.0513C29.7022 18.0513 25.8743 21.8792 25.8743 26.6053C25.8743 31.3314 29.7022 35.1593 34.4283 35.1593ZM34.4283 22.3283C36.7807 22.3283 38.7053 24.2529 38.7053 26.6053C38.7053 28.9576 36.7807 30.8823 34.4283 30.8823C32.076 30.8823 30.1513 28.9576 30.1513 26.6053C30.1513 24.2529 32.076 22.3283 34.4283 22.3283Z" fill="#ABD1A9"/>
<path d="M36.5657 9.49829H32.2887V13.7753H36.5657V9.49829Z" fill="#ABD1A9"/>
<path d="M23.8369 13.0011L20.8126 16.0254L23.8369 19.0497L26.8612 16.0254L23.8369 13.0011Z" fill="#ABD1A9"/>
<path d="M21.5963 24.4685H17.3193V28.7455H21.5963V24.4685Z" fill="#ABD1A9"/>
<path d="M23.8388 34.1717L20.8145 37.196L23.8388 40.2203L26.8631 37.196L23.8388 34.1717Z" fill="#ABD1A9"/>
<path d="M36.5657 39.437H32.2887V43.714H36.5657V39.437Z" fill="url(#paint1_linear_211_51650)"/>
<path d="M45.0096 34.1708L41.9854 37.1951L45.0096 40.2194L48.0339 37.1951L45.0096 34.1708Z" fill="#ABD1A9"/>
<path d="M51.5351 24.4685H47.2581V28.7455H51.5351V24.4685Z" fill="#ABD1A9"/>
<path d="M45.0096 13.0001L41.9854 16.0244L45.0096 19.0487L48.0339 16.0244L45.0096 13.0001Z" fill="#ABD1A9"/>
<path d="M25.8733 50.1309H17.3193V54.4079H25.8733V50.1309Z" fill="#A2CBAE"/>
<path d="M47.2579 50.1309H30.1499V54.4079H47.2579V50.1309Z" fill="#A2CBAE"/>
<path d="M25.8733 60.8218H17.3193V65.0988H25.8733V60.8218Z" fill="#9FCAB0"/>
<path d="M81.4714 37.2983H72.9174V41.5753H81.4714V37.2983Z" fill="#A6CEAC"/>
<path d="M94.3058 37.2983H85.7518V41.5753H94.3058V37.2983Z" fill="#A6CEAC"/>
</g>
<defs>
<linearGradient id="paint0_linear_211_51650" x1="64.3662" y1="0.944092" x2="64.3662" y2="120.7" gradientUnits="userSpaceOnUse">
<stop stop-color="#B1D4A5"/>
<stop offset="1" stop-color="#8DBFB9"/>
</linearGradient>
<linearGradient id="paint1_linear_211_51650" x1="34.4272" y1="39.437" x2="34.4272" y2="43.714" gradientUnits="userSpaceOnUse">
<stop stop-color="#B1D4A5"/>
<stop offset="1" stop-color="#8DBFB9"/>
</linearGradient>
<clipPath id="clip0_211_51650">
<rect width="128.31" height="119.756" fill="white" transform="translate(0.210938 0.945312)"/>
</clipPath>
</defs>
</svg>
