<svg width="129" height="120" viewBox="0 0 129 120" fill="none" xmlns="http://www.w3.org/2000/svg">
<g clip-path="url(#clip0_211_51616)">
<path d="M126.383 6.41562H119.967V2.13862C119.967 0.962447 119.005 0.00012207 117.829 0.00012207H72.9202C69.5414 0.00012207 66.3764 1.62538 64.3662 4.34128C62.356 1.62538 59.191 0.00012207 55.8122 0.00012207H10.9037C9.72751 0.00012207 8.76518 0.962447 8.76518 2.13862V6.41562H2.34968C1.17351 6.41562 0.211182 7.37795 0.211182 8.55413V91.9557C0.211182 93.1318 1.17351 94.0942 2.34968 94.0942H90.0282V109.064C90.0282 114.966 94.8185 119.756 100.721 119.756C106.623 119.756 111.413 114.966 111.413 109.064V94.0942H126.383C127.559 94.0942 128.521 93.1318 128.521 91.9557V8.55413C128.521 7.37795 127.559 6.41562 126.383 6.41562ZM90.0282 89.8172H4.48818V10.6926H8.76518V83.4017C8.76518 84.5778 9.72751 85.5402 10.9037 85.5402H90.0282V89.8172ZM107.136 109.064C107.136 112.614 104.271 115.479 100.721 115.479C97.1708 115.479 94.3052 112.614 94.3052 109.064V106.925H107.136V109.064ZM107.136 102.648H94.3052V98.3712H107.136V102.648ZM98.5822 59.8781V94.0942H94.3052V59.8781H98.5822ZM95.6311 55.6011L100.721 45.4219L105.81 55.6011H95.6311ZM107.136 94.0942H102.859V59.8781H107.136V94.0942ZM111.178 56.7773L102.624 39.6693C101.982 38.6214 100.635 38.2793 99.5659 38.9208C99.2451 39.1133 98.9885 39.3699 98.8175 39.6693L90.2635 56.7773C90.1138 57.0767 90.0282 57.3975 90.0282 57.7396V81.2632H60.0892V64.1552H64.3662C71.4446 64.1552 77.1972 58.4026 77.1972 51.3241C77.1972 50.148 76.2349 49.1856 75.0587 49.1856H68.6432C61.5648 49.1856 55.8122 54.9382 55.8122 62.0166V64.2193C53.9731 62.8079 51.7277 62.0166 49.3967 62.0166H40.8427C39.6665 62.0166 38.7042 62.979 38.7042 64.1552C38.7042 70.0574 43.4944 74.8477 49.3967 74.8477H55.8122V81.2632H13.0422V4.27712H55.8122C59.3407 4.27712 62.2277 7.1641 62.2277 10.6926V12.8311H66.5047V10.6926C66.5047 7.1641 69.3917 4.27712 72.9202 4.27712H115.69V81.2632H111.413V57.7396C111.413 57.3975 111.328 57.0767 111.178 56.7773ZM60.3672 59.8781C61.3509 56.1144 64.7511 53.4626 68.6432 53.4626H72.6422C71.6585 57.2264 68.2583 59.8781 64.3662 59.8781H60.3672ZM55.4487 70.5707H49.3967C46.6808 70.5707 44.2643 68.8599 43.3447 66.2936H49.3967C52.1126 66.2936 54.5291 68.0044 55.4487 70.5707ZM124.244 89.8172H111.413V85.5402H117.829C119.005 85.5402 119.967 84.5778 119.967 83.4017V10.6926H124.244V89.8172Z" fill="url(#paint0_linear_211_51616)"/>
<path d="M109.275 8.55371H72.921C71.7448 8.55371 70.7825 9.51604 70.7825 10.6922V27.8002C70.7825 28.9764 71.7448 29.9387 72.921 29.9387H109.275C110.452 29.9387 111.414 28.9764 111.414 27.8002V10.6922C111.414 9.51604 110.452 8.55371 109.275 8.55371ZM107.137 25.6617H75.0595V12.8307H107.137V25.6617Z" fill="#B1D4A5"/>
<path d="M34.4283 34.2153C39.1544 34.2153 42.9823 30.3874 42.9823 25.6613C42.9823 20.9352 39.1544 17.1073 34.4283 17.1073C29.7022 17.1073 25.8743 20.9352 25.8743 25.6613C25.8743 30.3874 29.7022 34.2153 34.4283 34.2153ZM34.4283 21.3843C36.7807 21.3843 38.7053 23.309 38.7053 25.6613C38.7053 28.0137 36.7807 29.9383 34.4283 29.9383C32.076 29.9383 30.1513 28.0137 30.1513 25.6613C30.1513 23.309 32.076 21.3843 34.4283 21.3843Z" fill="#ABD1A9"/>
<path d="M36.5657 8.55371H32.2887V12.8307H36.5657V8.55371Z" fill="#ABD1A9"/>
<path d="M23.8369 12.055L20.8126 15.0793L23.8369 18.1036L26.8612 15.0793L23.8369 12.055Z" fill="#ABD1A9"/>
<path d="M21.5963 23.524H17.3193V27.801H21.5963V23.524Z" fill="#ABD1A9"/>
<path d="M23.8388 33.2268L20.8145 36.2511L23.8388 39.2754L26.8631 36.2511L23.8388 33.2268Z" fill="#ABD1A9"/>
<path d="M36.5657 38.4924H32.2887V42.7694H36.5657V38.4924Z" fill="url(#paint1_linear_211_51616)"/>
<path d="M45.0096 33.2253L41.9854 36.2496L45.0096 39.2739L48.0339 36.2496L45.0096 33.2253Z" fill="#ABD1A9"/>
<path d="M51.5351 23.524H47.2581V27.801H51.5351V23.524Z" fill="#ABD1A9"/>
<path d="M45.0096 12.0546L41.9854 15.0789L45.0096 18.1032L48.0339 15.0789L45.0096 12.0546Z" fill="#ABD1A9"/>
<path d="M25.8733 49.1853H17.3193V53.4623H25.8733V49.1853Z" fill="#A2CBAE"/>
<path d="M47.2579 49.1853H30.1499V53.4623H47.2579V49.1853Z" fill="#A2CBAE"/>
<path d="M25.8733 59.8776H17.3193V64.1546H25.8733V59.8776Z" fill="#9FCAB0"/>
<path d="M81.4714 36.3537H72.9174V40.6307H81.4714V36.3537Z" fill="#A6CEAC"/>
<path d="M94.3058 36.3537H85.7518V40.6307H94.3058V36.3537Z" fill="#A6CEAC"/>
</g>
<defs>
<linearGradient id="paint0_linear_211_51616" x1="64.3662" y1="0.00012207" x2="64.3662" y2="119.756" gradientUnits="userSpaceOnUse">
<stop stop-color="#B1D4A5"/>
<stop offset="1" stop-color="#8DBFB9"/>
</linearGradient>
<linearGradient id="paint1_linear_211_51616" x1="34.4272" y1="38.4924" x2="34.4272" y2="42.7694" gradientUnits="userSpaceOnUse">
<stop stop-color="#B1D4A5"/>
<stop offset="1" stop-color="#8DBFB9"/>
</linearGradient>
<clipPath id="clip0_211_51616">
<rect width="128.31" height="119.756" fill="white" transform="translate(0.210938)"/>
</clipPath>
</defs>
</svg>
