<svg width="129" height="120" viewBox="0 0 129 120" fill="none" xmlns="http://www.w3.org/2000/svg">
<g clip-path="url(#clip0_211_51633)">
<path d="M126.383 6.41575H119.967V2.13875C119.967 0.96257 119.005 0.000244141 117.829 0.000244141H72.9202C69.5414 0.000244141 66.3764 1.6255 64.3662 4.3414C62.356 1.6255 59.191 0.000244141 55.8122 0.000244141H10.9037C9.72751 0.000244141 8.76518 0.96257 8.76518 2.13875V6.41575H2.34968C1.17351 6.41575 0.211182 7.37807 0.211182 8.55425V91.9558C0.211182 93.132 1.17351 94.0943 2.34968 94.0943H90.0282V109.064C90.0282 114.966 94.8185 119.756 100.721 119.756C106.623 119.756 111.413 114.966 111.413 109.064V94.0943H126.383C127.559 94.0943 128.521 93.132 128.521 91.9558V8.55425C128.521 7.37807 127.559 6.41575 126.383 6.41575ZM90.0282 89.8173H4.48818V10.6927H8.76518V83.4018C8.76518 84.578 9.72751 85.5403 10.9037 85.5403H90.0282V89.8173ZM107.136 109.064C107.136 112.614 104.271 115.479 100.721 115.479C97.1708 115.479 94.3052 112.614 94.3052 109.064V106.925H107.136V109.064ZM107.136 102.648H94.3052V98.3713H107.136V102.648ZM98.5822 59.8783V94.0943H94.3052V59.8783H98.5822ZM95.6311 55.6013L100.721 45.422L105.81 55.6013H95.6311ZM107.136 94.0943H102.859V59.8783H107.136V94.0943ZM111.178 56.7774L102.624 39.6694C101.982 38.6216 100.635 38.2794 99.5659 38.921C99.2451 39.1134 98.9885 39.37 98.8175 39.6694L90.2635 56.7774C90.1138 57.0768 90.0282 57.3976 90.0282 57.7398V81.2633H60.0892V64.1553H64.3662C71.4446 64.1553 77.1972 58.4027 77.1972 51.3243C77.1972 50.1481 76.2349 49.1858 75.0587 49.1858H68.6432C61.5648 49.1858 55.8122 54.9383 55.8122 62.0168V64.2194C53.9731 62.808 51.7277 62.0168 49.3967 62.0168H40.8427C39.6665 62.0168 38.7042 62.9791 38.7042 64.1553C38.7042 70.0575 43.4944 74.8478 49.3967 74.8478H55.8122V81.2633H13.0422V4.27725H55.8122C59.3407 4.27725 62.2277 7.16422 62.2277 10.6927V12.8312H66.5047V10.6927C66.5047 7.16422 69.3917 4.27725 72.9202 4.27725H115.69V81.2633H111.413V57.7398C111.413 57.3976 111.328 57.0768 111.178 56.7774ZM60.3672 59.8783C61.3509 56.1145 64.7511 53.4628 68.6432 53.4628H72.6422C71.6585 57.2265 68.2583 59.8783 64.3662 59.8783H60.3672ZM55.4487 70.5708H49.3967C46.6808 70.5708 44.2643 68.86 43.3447 66.2938H49.3967C52.1126 66.2938 54.5291 68.0046 55.4487 70.5708ZM124.244 89.8173H111.413V85.5403H117.829C119.005 85.5403 119.967 84.578 119.967 83.4018V10.6927H124.244V89.8173Z" fill="url(#paint0_linear_211_51633)"/>
<path d="M109.275 8.55579H72.921C71.7448 8.55579 70.7825 9.51811 70.7825 10.6943V27.8023C70.7825 28.9785 71.7448 29.9408 72.921 29.9408H109.275C110.452 29.9408 111.414 28.9785 111.414 27.8023V10.6943C111.414 9.51811 110.452 8.55579 109.275 8.55579ZM107.137 25.6638H75.0595V12.8328H107.137V25.6638Z" fill="#B1D4A5"/>
<path d="M34.4283 34.2159C39.1544 34.2159 42.9823 30.388 42.9823 25.6619C42.9823 20.9358 39.1544 17.1079 34.4283 17.1079C29.7022 17.1079 25.8743 20.9358 25.8743 25.6619C25.8743 30.388 29.7022 34.2159 34.4283 34.2159ZM34.4283 21.3849C36.7807 21.3849 38.7053 23.3096 38.7053 25.6619C38.7053 28.0143 36.7807 29.9389 34.4283 29.9389C32.076 29.9389 30.1513 28.0143 30.1513 25.6619C30.1513 23.3096 32.076 21.3849 34.4283 21.3849Z" fill="#ABD1A9"/>
<path d="M36.5657 8.55579H32.2887V12.8328H36.5657V8.55579Z" fill="#ABD1A9"/>
<path d="M23.8369 12.057L20.8126 15.0813L23.8369 18.1056L26.8612 15.0813L23.8369 12.057Z" fill="#ABD1A9"/>
<path d="M21.5963 23.5247H17.3193V27.8017H21.5963V23.5247Z" fill="#ABD1A9"/>
<path d="M23.8388 33.2284L20.8145 36.2527L23.8388 39.277L26.8631 36.2527L23.8388 33.2284Z" fill="#ABD1A9"/>
<path d="M36.5657 38.4937H32.2887V42.7707H36.5657V38.4937Z" fill="url(#paint1_linear_211_51633)"/>
<path d="M45.0096 33.2274L41.9854 36.2517L45.0096 39.276L48.0339 36.2517L45.0096 33.2274Z" fill="#ABD1A9"/>
<path d="M51.5351 23.5247H47.2581V27.8017H51.5351V23.5247Z" fill="#ABD1A9"/>
<path d="M45.0096 12.0552L41.9854 15.0795L45.0096 18.1038L48.0339 15.0795L45.0096 12.0552Z" fill="#ABD1A9"/>
<path d="M25.8733 49.1863H17.3193V53.4633H25.8733V49.1863Z" fill="#A2CBAE"/>
<path d="M47.2579 49.1863H30.1499V53.4633H47.2579V49.1863Z" fill="#A2CBAE"/>
<path d="M25.8733 59.8782H17.3193V64.1552H25.8733V59.8782Z" fill="#9FCAB0"/>
<path d="M81.4714 36.3547H72.9174V40.6317H81.4714V36.3547Z" fill="#A6CEAC"/>
<path d="M94.3058 36.3547H85.7518V40.6317H94.3058V36.3547Z" fill="#A6CEAC"/>
</g>
<defs>
<linearGradient id="paint0_linear_211_51633" x1="64.3662" y1="0.000244141" x2="64.3662" y2="119.756" gradientUnits="userSpaceOnUse">
<stop stop-color="#B1D4A5"/>
<stop offset="1" stop-color="#8DBFB9"/>
</linearGradient>
<linearGradient id="paint1_linear_211_51633" x1="34.4272" y1="38.4937" x2="34.4272" y2="42.7707" gradientUnits="userSpaceOnUse">
<stop stop-color="#B1D4A5"/>
<stop offset="1" stop-color="#8DBFB9"/>
</linearGradient>
<clipPath id="clip0_211_51633">
<rect width="128.31" height="119.756" fill="white" transform="translate(0.210938)"/>
</clipPath>
</defs>
</svg>
