<svg width="74" height="95" viewBox="0 0 74 95" fill="none" xmlns="http://www.w3.org/2000/svg">
<g clip-path="url(#clip0_211_51672)">
<path fill-rule="evenodd" clip-rule="evenodd" d="M0.000305176 86.3841C0.000305176 91.0375 3.77674 94.8069 8.4301 94.8069H65.31C69.9633 94.8069 73.7398 91.0375 73.7398 86.3841V27.3827C73.7398 25.1055 72.6224 22.4182 70.9958 20.8057L52.7289 2.70149C51.1165 1.10323 48.4362 0 46.1661 0H8.4301C3.78381 0 0.000305176 3.76936 0.000305176 8.42272V86.3841ZM8.4301 4.2149C6.10342 4.2149 4.20813 6.10311 4.20813 8.42272V86.3841C4.20813 88.7108 6.09635 90.592 8.42303 90.592H65.3029C67.6296 90.592 69.5178 88.7037 69.5178 86.3841V27.3968H51.5974C48.1109 27.3968 45.2892 24.5751 45.2892 21.0886V4.2149H8.4301ZM67.8842 23.1819H51.6045C50.4447 23.1819 49.5112 22.2414 49.5112 21.0886V5.06353L67.8913 23.1819H67.8842ZM56.1306 51.6537L44.4972 40.0203C43.691 39.2141 42.3897 39.2141 41.5906 40.0203C40.7844 40.8265 40.7844 42.1277 41.5906 42.9269L51.7671 53.1034L41.5906 63.28C40.7844 64.0862 40.7844 65.3875 41.5906 66.1866C42.3968 66.9928 43.698 66.9928 44.4972 66.1866L56.1306 54.5532C56.9368 53.747 56.9368 52.4457 56.1306 51.6466V51.6537ZM21.9729 53.1105L32.1495 42.9339C32.9557 42.1277 32.9557 40.8265 32.1495 40.0274C31.3433 39.2212 30.042 39.2212 29.2429 40.0274L17.6095 51.6608C16.8033 52.467 16.8033 53.7682 17.6095 54.5673L29.2429 66.2007C30.0491 67.0069 31.3504 67.0069 32.1495 66.2007C32.9557 65.3945 32.9557 64.0933 32.1495 63.2941L21.9729 53.1176V53.1105Z" fill="url(#paint0_linear_211_51672)"/>
</g>
<defs>
<linearGradient id="paint0_linear_211_51672" x1="36.87" y1="0" x2="36.87" y2="94.8069" gradientUnits="userSpaceOnUse">
<stop stop-color="#B0D4A8"/>
<stop offset="1" stop-color="#90C1B9"/>
</linearGradient>
<clipPath id="clip0_211_51672">
<rect width="73.7395" height="94.8069" fill="white"/>
</clipPath>
</defs>
</svg>
