<svg width="86" height="106" viewBox="0 0 86 106" fill="none" xmlns="http://www.w3.org/2000/svg">
<g clip-path="url(#clip0_211_51584)">
<path fill-rule="evenodd" clip-rule="evenodd" d="M58.1406 42.0828C53.107 42.1393 49.0476 46.2834 49.1041 51.3169C49.1112 52.2418 49.2665 53.1242 49.5277 53.9643L41.7761 59.0191C40.0889 57.2824 37.7309 56.2093 35.1259 56.2376C30.0923 56.287 26.033 60.4381 26.0894 65.4717C26.1459 70.5052 30.29 74.5646 35.3236 74.5081C35.7471 74.5081 36.1707 74.4728 36.5802 74.4093C38.3875 74.141 40.0112 73.3362 41.3102 72.1713L49.4218 77.8403C49.4147 78.0097 49.4006 78.1792 49.4006 78.3486C49.4571 83.3822 53.6012 87.4415 58.6347 87.385C59.0583 87.385 59.4819 87.3497 59.8914 87.2862C64.3319 86.6226 67.7206 82.7609 67.6712 78.1509C67.6147 73.1173 63.4706 69.058 58.4371 69.1145C55.0837 69.1498 52.1751 71.0065 50.6149 73.7315L43.6611 68.8674C44.12 67.759 44.3741 66.5518 44.36 65.2811C44.3459 64.3068 44.1835 63.3679 43.887 62.4925L51.5891 57.473C53.2835 59.2732 55.6838 60.3957 58.3382 60.3675C58.7618 60.3675 59.1854 60.3322 59.5949 60.2687C64.0354 59.605 67.4241 55.7434 67.3747 51.1334C67.3182 46.0998 63.1741 42.0405 58.1406 42.0969V42.0828ZM53.46 78.3062C53.4317 75.7436 55.3167 73.5903 57.7876 73.2232C58.0135 73.1879 58.2465 73.1668 58.4865 73.1668C61.2892 73.1385 63.5977 75.3906 63.626 78.1933C63.6542 80.996 61.388 83.2975 58.5994 83.3328C55.7967 83.361 53.4882 81.1089 53.46 78.3062ZM35.2812 70.4558C32.4785 70.4841 30.17 68.232 30.1417 65.4293C30.1135 62.8666 31.9984 60.7134 34.4693 60.3463C34.6952 60.311 34.9282 60.2898 35.1682 60.2898C37.971 60.2616 40.2795 62.5136 40.3077 65.3164C40.336 68.1191 38.0839 70.4276 35.2812 70.4558ZM63.3224 51.1616C63.3506 53.9643 61.0915 56.2658 58.2959 56.3011C55.4932 56.3293 53.1846 54.0773 53.1564 51.2746C53.1282 48.7119 55.0131 46.5587 57.484 46.1916C57.7099 46.1563 57.9429 46.1351 58.1829 46.1351C60.9856 46.1069 63.2942 48.3589 63.3224 51.1616Z" fill="url(#paint0_linear_211_51584)"/>
<path d="M81.9508 31.147L64.6898 14.3943C62.6425 12.4035 59.9457 11.3092 57.0936 11.3092H48.2124C47.0405 11.3092 46.0945 12.2552 46.0945 13.4271C46.0945 14.599 47.0405 15.545 48.2124 15.545H56.4229V32.1001C56.4229 35.5593 59.2397 38.3762 62.699 38.3762H81.0048C81.026 38.5738 81.0331 38.7715 81.0331 38.9762V96.9224C81.0331 98.1014 80.5742 99.2098 79.7411 100.043C78.9081 100.876 77.8068 101.328 76.6278 101.328H76.6208L19.783 101.208C17.3615 101.208 15.3848 99.2239 15.3848 96.8024V48.6692C15.3848 47.4973 14.4388 46.5513 13.2668 46.5513C12.0949 46.5513 11.1489 47.4973 11.1489 48.6692V96.8024C11.1489 101.554 15.0177 105.429 19.7688 105.443L76.6066 105.563H76.6208C78.9222 105.563 81.0895 104.667 82.7274 103.036C84.3652 101.405 85.2618 99.2309 85.2618 96.9224V38.9762C85.2618 36.0394 84.0546 33.1873 81.9508 31.147ZM60.6517 32.1071V16.5828C61.0399 16.8299 61.4 17.1123 61.7389 17.437L78.9575 34.1474H62.6919C61.5694 34.1474 60.6517 33.2296 60.6517 32.1071Z" fill="url(#paint1_linear_211_51584)"/>
<mask id="mask0_211_51584" style="mask-type:luminance" maskUnits="userSpaceOnUse" x="0" y="-1" width="45" height="46">
<path d="M44.9971 -0.000244141H0.259644V44.7372H44.9971V-0.000244141Z" fill="white"/>
</mask>
<g mask="url(#mask0_211_51584)">
<path fill-rule="evenodd" clip-rule="evenodd" d="M22.6288 18.6373C20.5673 18.6373 18.9012 20.3034 18.9012 22.3648C18.9012 24.4262 20.5673 26.0923 22.6288 26.0923C24.6902 26.0923 26.3563 24.4262 26.3563 22.3648C26.3563 20.3034 24.6902 18.6373 22.6288 18.6373ZM15.1737 22.3648C15.1737 18.249 18.513 14.9097 22.6288 14.9097C26.7446 14.9097 30.0838 18.249 30.0838 22.3648C30.0838 26.4806 26.7446 29.8199 22.6288 29.8199C18.513 29.8199 15.1737 26.4806 15.1737 22.3648Z" fill="url(#paint2_linear_211_51584)"/>
<path fill-rule="evenodd" clip-rule="evenodd" d="M22.627 3.72735C22.1328 3.72735 21.6598 3.92502 21.3068 4.27095C20.9538 4.62393 20.7632 5.09693 20.7632 5.59111V5.91586C20.7632 6.87598 20.4738 7.82198 19.9443 8.62679C19.4148 9.4316 18.6594 10.0599 17.7699 10.4411C17.6146 10.5117 17.4452 10.5541 17.2757 10.5753C16.4709 10.8577 15.6026 10.9283 14.7625 10.7729C13.7882 10.5965 12.8987 10.1305 12.1927 9.44572L12.1786 9.4316L12.0656 9.31864C11.8892 9.14215 11.6844 9.00802 11.4585 8.91624C11.2326 8.82446 10.9926 8.77504 10.7455 8.77504C10.4984 8.77504 10.2584 8.82446 10.0324 8.91624C9.80654 9.00802 9.6018 9.14921 9.42531 9.31864C9.24882 9.49514 9.11469 9.69987 9.02291 9.92578C8.93113 10.1517 8.88171 10.3917 8.88171 10.6388C8.88171 10.8859 8.93113 11.1259 9.02291 11.3518C9.11469 11.5778 9.25588 11.7825 9.42531 11.959L9.55239 12.0861C10.2442 12.792 10.7031 13.6886 10.8796 14.6558C11.049 15.6089 10.9432 16.5902 10.5619 17.4797C10.216 18.3833 9.60886 19.174 8.81818 19.7388C8.01337 20.3177 7.05325 20.6354 6.05783 20.6565H6.01547H5.84604C5.35186 20.6565 4.87885 20.8542 4.52587 21.2001C4.17288 21.5531 3.98227 22.0261 3.98227 22.5203C3.98227 23.0145 4.17994 23.4875 4.52587 23.8405C4.87885 24.1935 5.35186 24.3841 5.84604 24.3841H6.17078C7.1309 24.3841 8.07691 24.6735 8.88171 25.203C9.67946 25.7325 10.3078 26.4879 10.689 27.3633C11.0843 28.2669 11.2044 29.2623 11.0279 30.2295C10.8514 31.2038 10.3854 32.0933 9.70064 32.7993L9.68652 32.8134L9.57357 32.9263C9.39707 33.1028 9.26294 33.3076 9.17116 33.5335C9.07939 33.7594 9.02997 33.9994 9.02997 34.2465C9.02997 34.4936 9.07939 34.7336 9.17116 34.9595C9.26294 35.1854 9.40413 35.3902 9.57357 35.5667C9.75006 35.7432 9.95479 35.8773 10.1807 35.9761C10.4066 36.0679 10.6466 36.1173 10.8937 36.1173C11.1408 36.1173 11.3809 36.0679 11.6068 35.9761C11.8327 35.8844 12.0374 35.7432 12.2139 35.5737L12.341 35.4467C13.0469 34.7548 13.9435 34.2959 14.9107 34.1194C15.8638 33.95 16.8451 34.0559 17.7346 34.4371C18.6382 34.783 19.4289 35.3902 19.9937 36.1809C20.5726 36.9857 20.8903 37.9458 20.9115 38.9412V38.9836V39.153C20.9115 39.6472 21.1091 40.1202 21.4551 40.4732C21.801 40.8262 22.2811 41.0168 22.7752 41.0168C23.2694 41.0168 23.7424 40.8191 24.0954 40.4732C24.4484 40.1272 24.639 39.6472 24.639 39.153V38.8353C24.639 37.8611 24.9284 36.9221 25.4579 36.1173C25.9874 35.3196 26.7428 34.6913 27.6182 34.31C28.5218 33.9147 29.5173 33.7947 30.4844 33.9712C31.4587 34.1477 32.3482 34.6136 33.0542 35.2984L33.0683 35.3125L33.1813 35.4255C33.3578 35.602 33.5625 35.7361 33.7884 35.8279C34.0143 35.9197 34.2543 35.9691 34.5014 35.9691C34.7485 35.9691 34.9885 35.9197 35.2145 35.8279C35.4404 35.7361 35.6451 35.5949 35.8216 35.4255C35.9981 35.249 36.1322 35.0443 36.224 34.8183C36.3158 34.5924 36.3652 34.3524 36.3652 34.1053C36.3652 33.8582 36.3158 33.6182 36.224 33.3923C36.1322 33.1664 35.991 32.9616 35.8216 32.7851L35.6945 32.6581C35.0027 31.9521 34.5438 31.0555 34.3673 30.0883C34.1908 29.1211 34.3108 28.1257 34.7062 27.2221C35.0874 26.3396 35.7157 25.5913 36.5134 25.0618C37.3183 24.5323 38.2572 24.2429 39.2244 24.2429H39.4009C39.8951 24.2429 40.368 24.0452 40.721 23.6993C41.074 23.3534 41.2646 22.8733 41.2646 22.3791C41.2646 21.8849 41.067 21.4119 40.721 21.059C40.3751 20.706 39.8951 20.5154 39.4009 20.5154H39.0761C38.116 20.5154 37.17 20.2259 36.3652 19.6964C35.5604 19.1669 34.9321 18.4116 34.5508 17.522C34.4802 17.3667 34.4379 17.1973 34.4167 17.0279C34.1343 16.223 34.0637 15.3547 34.219 14.5146C34.3955 13.5404 34.8615 12.6508 35.5463 11.9449L35.5604 11.9307L35.6733 11.8178C35.8498 11.6413 35.984 11.4366 36.0757 11.2106C36.1675 10.9847 36.2169 10.7447 36.2169 10.4976C36.2169 10.2505 36.1675 10.0105 36.0757 9.78458C35.984 9.55867 35.8428 9.35394 35.6733 9.17745C35.4968 9.00096 35.2921 8.86682 35.0662 8.76799C34.8403 8.67621 34.6003 8.62679 34.3532 8.62679C34.1061 8.62679 33.8661 8.67621 33.6401 8.76799C33.4142 8.85976 33.2095 9.00096 33.033 9.17039L32.9059 9.29746C32.2 9.98932 31.3034 10.4482 30.3362 10.6247C29.369 10.8012 28.3736 10.6812 27.4699 10.2858C26.5875 9.9046 25.8392 9.27628 25.3097 8.47854C24.7802 7.67373 24.4907 6.73479 24.4907 5.76761V5.59111C24.4907 5.09693 24.2931 4.62393 23.9471 4.27095C23.5942 3.91796 23.1212 3.72735 22.627 3.72735ZM18.6735 1.63767C19.7254 0.585773 21.1444 -0.000183105 22.627 -0.000183105C24.1095 -0.000183105 25.5356 0.585773 26.5804 1.63767C27.6323 2.68957 28.2183 4.10857 28.2183 5.59111V5.75349C28.2183 5.98646 28.2889 6.21943 28.423 6.4171C28.5501 6.61477 28.7407 6.77009 28.9525 6.86186H28.9737C29.1925 6.96776 29.4396 6.996 29.6796 6.95364C29.9126 6.91128 30.1315 6.79832 30.308 6.63595L30.4068 6.53711C30.9292 6.0147 31.5434 5.60523 32.2211 5.32284C32.8989 5.04045 33.626 4.89926 34.3602 4.89926C35.0944 4.89926 35.8216 5.04751 36.4993 5.32284C37.1771 5.60523 37.7983 6.0147 38.3137 6.53711C38.8361 7.05953 39.2456 7.67373 39.5279 8.35146C39.8103 9.02919 39.9515 9.75634 39.9515 10.4906C39.9515 11.2248 39.8033 11.9519 39.5279 12.6296C39.2456 13.3074 38.8361 13.9216 38.3137 14.444L38.2078 14.5499C38.0383 14.7193 37.9324 14.9382 37.8901 15.1782C37.8477 15.4182 37.876 15.6653 37.9748 15.8842C38.0242 16.0042 38.0666 16.1313 38.0948 16.2513C38.1795 16.3784 38.2996 16.4913 38.4266 16.5831C38.6243 16.7102 38.8502 16.7808 39.0902 16.7878H39.4009C40.8834 16.7878 42.3095 17.3738 43.3543 18.4257C44.4062 19.4776 44.9922 20.8966 44.9922 22.3791C44.9922 23.8617 44.4062 25.2877 43.3543 26.3326C42.3024 27.3845 40.8834 27.9704 39.4009 27.9704H39.2385C39.0055 27.9704 38.7726 28.041 38.5749 28.1751C38.3772 28.3022 38.2219 28.4928 38.1301 28.7046V28.7258C38.0242 28.9447 37.996 29.1917 38.0383 29.4318C38.0807 29.6647 38.1937 29.8836 38.356 30.0601L38.4549 30.1589C38.9773 30.6813 39.3867 31.2955 39.6691 31.9733C39.9515 32.651 40.0927 33.3782 40.0927 34.1124C40.0927 34.8466 39.9445 35.5737 39.6691 36.2515C39.3867 36.9292 38.9773 37.5504 38.4549 38.0658C37.9324 38.5882 37.3183 38.9977 36.6405 39.2801C35.9628 39.5625 35.2356 39.7037 34.5014 39.7037C33.7672 39.7037 33.0401 39.5554 32.3623 39.2801C31.6846 38.9977 31.0704 38.5882 30.548 38.0658L30.4421 37.9599C30.2727 37.7905 30.0538 37.6846 29.8138 37.6422C29.5737 37.5999 29.3267 37.6281 29.1078 37.7269H29.0866C28.8678 37.8258 28.6842 37.9811 28.5571 38.1788C28.4301 38.3764 28.3595 38.6023 28.3524 38.8424V39.153C28.3524 40.6355 27.7665 42.0616 26.7146 43.1064C25.6627 44.1583 24.2437 44.7443 22.7611 44.7443C21.2786 44.7443 19.8525 44.1583 18.8077 43.1064C17.7558 42.0546 17.1698 40.6355 17.1698 39.153V39.0118C17.1628 38.7718 17.0851 38.5459 16.9439 38.3553C16.8027 38.1576 16.605 38.0093 16.3791 37.9246C16.3438 37.9105 16.3085 37.8964 16.2732 37.8823C16.0544 37.7834 15.8073 37.7552 15.5673 37.7975C15.3343 37.8399 15.1154 37.9529 14.939 38.1152L14.8401 38.2141C14.3177 38.7365 13.7035 39.1459 13.0258 39.4283C12.348 39.7107 11.6209 39.8519 10.8867 39.8519C10.1525 39.8519 9.42531 39.7037 8.74758 39.4283C8.06985 39.1459 7.45565 38.7365 6.93323 38.2141C6.41081 37.6916 6.00135 37.0774 5.71896 36.3997C5.43657 35.722 5.29538 34.9948 5.29538 34.2606C5.29538 33.5264 5.44363 32.7993 5.71896 32.1215C6.00135 31.4438 6.41081 30.8225 6.93323 30.3072L7.03207 30.2083C7.2015 30.0389 7.3074 29.8201 7.34976 29.58C7.39211 29.34 7.36388 29.0929 7.26504 28.8741V28.8529C7.1662 28.634 7.01089 28.4505 6.81322 28.3234C6.61555 28.1963 6.38963 28.1257 6.1496 28.1187H5.83898C4.35644 28.1187 2.93037 27.5327 1.88553 26.4808C0.833637 25.4289 0.247681 24.0099 0.247681 22.5274C0.247681 21.0448 0.833637 19.6188 1.88553 18.5739C2.93743 17.522 4.35644 16.9361 5.83898 16.9361H5.98017C6.2202 16.929 6.44611 16.8514 6.63672 16.7102C6.8344 16.569 6.98265 16.3713 7.06737 16.1454C7.08149 16.1101 7.09561 16.0748 7.10973 16.0395C7.20856 15.8206 7.2368 15.5736 7.19444 15.3335C7.15208 15.1005 7.03913 14.8817 6.87675 14.7052L6.77792 14.6064C6.2555 14.084 5.84604 13.4698 5.56365 12.792C5.28126 12.1143 5.14006 11.3871 5.14006 10.6529C5.14006 9.91872 5.28832 9.19157 5.56365 8.51383C5.84604 7.8361 6.2555 7.22191 6.77792 6.69949C7.30034 6.17707 7.91453 5.76761 8.59227 5.48522C9.27 5.20283 9.99715 5.06163 10.7314 5.06163C11.4656 5.06163 12.1927 5.20989 12.8705 5.48522C13.5482 5.76761 14.1694 6.17707 14.6848 6.69949L14.7836 6.79832C14.9531 6.96776 15.1719 7.07365 15.412 7.11601C15.652 7.15837 15.8991 7.13013 16.1179 7.03129C16.2379 6.98188 16.365 6.93952 16.485 6.91128C16.6121 6.82656 16.7251 6.70655 16.8168 6.57947C16.9439 6.3818 17.0145 6.15589 17.0216 5.91586V5.60523C17.0216 4.12269 17.6075 2.69663 18.6594 1.65179L18.6735 1.63767Z" fill="url(#paint3_linear_211_51584)"/>
</g>
</g>
<defs>
<linearGradient id="paint0_linear_211_51584" x1="46.8803" y1="42.0828" x2="46.8803" y2="87.3856" gradientUnits="userSpaceOnUse">
<stop stop-color="#B1D5A6"/>
<stop offset="1" stop-color="#8EC0B9"/>
</linearGradient>
<linearGradient id="paint1_linear_211_51584" x1="48.2054" y1="11.3092" x2="48.2054" y2="105.563" gradientUnits="userSpaceOnUse">
<stop stop-color="#B1D5A6"/>
<stop offset="1" stop-color="#8EC0B9"/>
</linearGradient>
<linearGradient id="paint2_linear_211_51584" x1="22.6288" y1="14.9097" x2="22.6288" y2="29.8199" gradientUnits="userSpaceOnUse">
<stop stop-color="#B1D5A6"/>
<stop offset="1" stop-color="#A9D1AB"/>
</linearGradient>
<linearGradient id="paint3_linear_211_51584" x1="22.6199" y1="-0.000183105" x2="22.6199" y2="44.7443" gradientUnits="userSpaceOnUse">
<stop stop-color="#B1D5A6"/>
<stop offset="1" stop-color="#A9D1AB"/>
</linearGradient>
<clipPath id="clip0_211_51584">
<rect width="85.0061" height="105.564" fill="white" transform="translate(0.265625)"/>
</clipPath>
</defs>
</svg>
