<svg width="122" height="96" viewBox="0 0 122 96" fill="none" xmlns="http://www.w3.org/2000/svg">
<path d="M84.2442 34.637V53.7528V46.1321C84.2442 39.7111 81.636 33.8877 77.4297 29.6814M84.2442 34.637C84.2442 28.2113 86.8524 22.3926 91.0588 18.1862M84.2442 34.637C84.2442 28.2113 86.8524 22.3973 91.0588 18.1862M91.0588 18.1862C87.891 15.0184 87.431 10.3426 90.0297 7.74387C94.4637 3.3099 100.671 1.48415 107.121 2.12434L107.116 2.12909C107.808 9.09066 105.603 15.1085 101.496 19.22C98.9024 21.814 94.2266 21.354 91.0588 18.1862ZM93.9515 44.0408L84.2489 53.7433M30.1925 27.8651H18.6926M30.1925 36.4912H18.6926M30.1925 45.1173H18.6926M53.1969 27.8698H41.6971M53.1969 36.4959H41.6971M53.1969 45.122H41.6971M35.9448 22.1223V10.6224M119.19 62.3742V58.0588C119.19 55.6782 117.259 53.7433 114.879 53.7433H6.31067C3.93008 53.7481 2 55.6734 2 58.0588V62.3742H119.19ZM24.4401 53.7433V27.8698C24.4401 21.52 29.5902 16.37 35.9353 16.37C42.2804 16.37 47.4352 21.52 47.4352 27.8698V53.7433H24.4354H24.4401ZM113.437 62.3742L108.202 91.1689C107.917 92.7291 106.395 94 104.811 94H16.3689C14.785 94 13.2628 92.7291 12.9782 91.1689L7.74281 62.3742H113.433H113.437ZM61.3725 13.6242C67.8219 12.984 74.0247 14.8098 78.4635 19.2437C81.0622 21.8425 80.6022 26.5183 77.4344 29.6814C74.2666 32.8491 69.5908 33.3091 66.9968 30.7104C62.89 26.6037 60.6896 20.581 61.3773 13.6242H61.3725ZM107.144 30.8527C101.847 30.331 96.7494 31.8248 93.1074 35.4669C90.9734 37.6008 91.3528 41.4373 93.9563 44.0408C96.555 46.6442 100.396 47.0189 102.525 44.8896C105.902 41.5132 107.709 36.5718 107.144 30.8527Z" stroke="url(#paint0_linear_211_51581)" stroke-opacity="0.5" stroke-width="3.79377" stroke-linecap="round" stroke-linejoin="round"/>
<defs>
<linearGradient id="paint0_linear_211_51581" x1="-6.12348" y1="2.00105" x2="-6.12348" y2="94" gradientUnits="userSpaceOnUse">
<stop stop-color="#63AA49"/>
<stop offset="0.77" stop-color="#1D8073"/>
</linearGradient>
</defs>
</svg>
