<svg width="206" height="90" viewBox="0 0 206 90" fill="none" xmlns="http://www.w3.org/2000/svg">
<g clip-path="url(#clip0_211_52062)">
<path fill-rule="evenodd" clip-rule="evenodd" d="M15.3982 81.2309C15.3982 85.556 18.9082 89.0595 23.2333 89.0595H76.1007C80.4258 89.0595 83.9358 85.556 83.9358 81.2309V26.3917C83.9358 24.2751 82.8972 21.7774 81.3854 20.2787L64.4071 3.45159C62.9085 1.96608 60.4173 0.940674 58.3073 0.940674H23.2333C18.9148 0.940674 15.3982 4.44413 15.3982 8.76922V81.2309ZM23.2333 4.85823C21.0708 4.85823 19.3092 6.61325 19.3092 8.76922V81.2309C19.3092 83.3935 21.0642 85.1419 23.2267 85.1419H76.0941C78.2566 85.1419 80.0117 83.3869 80.0117 81.2309V26.4048H63.3554C60.1149 26.4048 57.4923 23.7822 57.4923 20.5416V4.85823H23.2333ZM78.4933 22.4873H63.362C62.284 22.4873 61.4164 21.613 61.4164 20.5416V5.647L78.4998 22.4873H78.4933ZM27.0457 15.2766L45.0823 15.3817C46.134 15.3817 46.9885 14.5272 46.995 13.4558C46.995 12.3844 46.1537 11.5168 45.1086 11.5102L27.072 11.405C26.0203 11.405 25.1658 12.2595 25.1592 13.3309C25.1592 14.4024 26.0006 15.27 27.0457 15.2766ZM27.0457 23.8216L45.0823 23.9268C46.134 23.9268 46.9885 23.0723 46.995 22.0008C46.995 20.9294 46.1537 20.0618 45.1086 20.0552L27.072 19.95C26.0203 19.95 25.1658 20.8045 25.1592 21.876C25.1592 22.9474 26.0006 23.815 27.0457 23.8216ZM60.2201 28.7974L26.9931 28.6068C25.9414 28.6068 25.0869 29.4613 25.0804 30.5327C25.0738 31.6041 25.9217 32.4718 26.9668 32.4783L60.1938 32.669C61.2455 32.669 62.1 31.8145 62.1066 30.743C62.1066 29.6716 61.2652 28.804 60.2201 28.7974ZM68.3641 38.6768H50.4196C49.3745 38.6768 48.8552 39.4984 48.8552 40.3135C48.1125 44.4808 47.3631 48.727 46.6204 52.8944C45.4306 59.4477 44.3132 66.0734 43.1235 72.6202C41.9338 70.0173 40.6651 67.4077 39.5477 64.7259C39.2519 64.1278 39.0284 63.5362 38.7261 62.938C38.4303 62.4188 37.8321 62.1164 37.234 62.1164H29.7144C28.8927 62.1164 28.0054 62.8591 28.0777 63.7531C28.15 64.647 28.8204 65.3898 29.7144 65.3898H36.2677C38.0556 69.2613 39.8435 73.1329 41.6248 77.0044C41.9206 77.6026 42.1441 78.1942 42.4465 78.7923C42.6699 79.0881 42.8934 79.3905 43.2681 79.5351C43.3404 79.5351 43.3404 79.6074 43.4193 79.6074C43.6428 79.6797 43.7939 79.6797 44.0897 79.6074C44.3132 79.6074 44.5367 79.5351 44.6879 79.3839C44.7602 79.3839 44.7602 79.3116 44.8391 79.3116C45.1348 79.0881 45.4372 78.7923 45.5095 78.4176C46.2523 74.2503 47.0016 70.0041 47.7444 65.7645L51.3201 45.664L51.9906 41.8647H68.443C70.4544 41.937 70.4544 38.6636 68.3707 38.6636L68.3641 38.6768ZM66.057 55.3527C66.5763 54.7545 66.6551 53.8606 66.057 53.269C65.5377 52.7497 64.4926 52.6709 63.9733 53.269C62.6324 54.9057 61.2915 56.5424 59.8783 58.1068C58.912 56.9894 58.0181 55.872 57.0519 54.7545C56.6049 54.2353 56.2302 53.7883 55.7832 53.2624C55.264 52.6643 54.2189 52.7432 53.6996 53.2624C53.1014 53.8606 53.1803 54.7545 53.6996 55.3461C55.1128 57.0551 56.526 58.6984 57.9458 60.4074C56.9795 61.5248 56.0133 62.7145 55.0405 63.832C54.5935 64.3512 54.2189 64.7982 53.7719 65.3241C53.2526 65.9222 53.1737 66.8162 53.7719 67.4077C54.2912 67.927 55.3363 68.0059 55.8555 67.4077C57.1965 65.8433 58.4585 64.2789 59.7994 62.7211C60.6933 63.7662 61.5873 64.8771 62.4812 65.9222C62.9282 66.4415 63.3029 66.8885 63.7498 67.4143C64.2691 68.0125 65.3142 67.9336 65.8335 67.4143C66.4317 66.8161 66.3528 65.9222 65.8335 65.3306C64.4926 63.6939 63.0794 62.0572 61.7385 60.414C62.7047 59.2242 63.7498 58.0345 64.7161 56.8382C65.2353 56.3189 65.61 55.7931 66.057 55.3461V55.3527Z" fill="url(#paint0_linear_211_52062)"/>
</g>
<path d="M110.23 44.9592C110.231 45.204 110.183 45.4466 110.089 45.6727C109.995 45.8988 109.857 46.1039 109.683 46.2759L97.2608 58.6982C96.8983 58.9459 96.46 59.0577 96.0231 59.0139C95.5862 58.97 95.1789 58.7733 94.8729 58.4584C94.567 58.1435 94.382 57.7307 94.3507 57.2927C94.3194 56.8548 94.4437 56.4199 94.7018 56.0646L105.733 44.9592L94.7018 33.8537C94.4747 33.5035 94.3718 33.0872 94.4096 32.6715C94.4473 32.2559 94.6235 31.8649 94.9099 31.5613C95.1963 31.2577 95.5763 31.0591 95.9891 30.9972C96.4018 30.9354 96.8234 31.0139 97.1862 31.2201L109.608 43.6424C109.796 43.808 109.948 44.0103 110.055 44.2367C110.162 44.4631 110.221 44.709 110.23 44.9592Z" fill="#95C2AD"/>
<g clip-path="url(#clip1_211_52062)">
<path fill-rule="evenodd" clip-rule="evenodd" d="M120.64 81.2309C120.64 85.556 124.203 89.0595 128.593 89.0595H182.255C186.645 89.0595 190.207 85.556 190.207 81.2309V26.3917C190.207 24.2751 189.153 21.7774 187.619 20.2787L170.385 3.45159C168.864 1.96608 166.335 0.940674 164.194 0.940674H128.593C124.209 0.940674 120.64 4.44413 120.64 8.76922V81.2309ZM128.593 4.85823C126.398 4.85823 124.61 6.61325 124.61 8.76922V81.2309C124.61 83.3935 126.391 85.1419 128.586 85.1419H182.248C184.443 85.1419 186.224 83.3869 186.224 81.2309V26.4048H169.318C166.029 26.4048 163.366 23.7822 163.366 20.5416V4.85823H128.593ZM184.683 22.4873H169.324C168.23 22.4873 167.35 21.613 167.35 20.5416V5.647L184.69 22.4873H184.683ZM164.848 29.79C160.091 29.8425 156.254 33.7009 156.308 38.3876C156.314 39.2486 156.461 40.0703 156.708 40.8525L149.382 45.5588C147.788 43.9418 145.559 42.9427 143.097 42.969C138.34 43.015 134.504 46.88 134.557 51.5666C134.611 56.2532 138.527 60.0327 143.284 59.9801C143.684 59.9801 144.085 59.9473 144.472 59.8881C146.18 59.6383 147.714 58.889 148.942 57.8045L156.608 63.0826C156.601 63.2404 156.588 63.3981 156.588 63.5559C156.641 68.2425 160.558 72.022 165.315 71.9695C165.715 71.9695 166.115 71.9366 166.502 71.8774C170.699 71.2596 173.901 67.6641 173.855 63.3719C173.801 58.6852 169.885 54.9057 165.128 54.9583C161.959 54.9912 159.21 56.7199 157.735 59.2571L151.164 54.7282C151.597 53.6963 151.838 52.5723 151.824 51.3891C151.811 50.482 151.657 49.6078 151.377 48.7927L158.656 44.1193C160.257 45.7954 162.526 46.8405 165.034 46.8142C165.435 46.8142 165.835 46.7814 166.222 46.7222C170.419 46.1044 173.621 42.5089 173.574 38.2166C173.521 33.53 169.605 29.7505 164.848 29.8031V29.79ZM160.418 63.5099C160.391 61.1239 162.172 59.1191 164.507 58.7773C164.721 58.7444 164.941 58.7247 165.168 58.7247C167.817 58.6984 169.998 60.7952 170.025 63.4047C170.052 66.0142 167.91 68.1571 165.275 68.1899C162.626 68.2162 160.444 66.1194 160.418 63.5099ZM143.244 56.2072C140.595 56.2335 138.414 54.1367 138.387 51.5271C138.36 49.1411 140.142 47.1363 142.477 46.7945C142.69 46.7617 142.911 46.7419 143.137 46.7419C145.786 46.7157 147.968 48.8125 147.995 51.422C148.021 54.0315 145.893 56.1809 143.244 56.2072ZM169.745 38.2429C169.771 40.8525 167.636 42.9953 164.994 43.0281C162.346 43.0544 160.164 40.9576 160.137 38.3481C160.111 35.9621 161.892 33.9573 164.227 33.6155C164.441 33.5826 164.661 33.5629 164.888 33.5629C167.536 33.5366 169.718 35.6334 169.745 38.2429Z" fill="url(#paint1_linear_211_52062)"/>
</g>
<defs>
<linearGradient id="paint0_linear_211_52062" x1="49.667" y1="0.940674" x2="49.667" y2="89.0595" gradientUnits="userSpaceOnUse">
<stop stop-color="#B0D4A7"/>
<stop offset="1" stop-color="#8EC0B9"/>
</linearGradient>
<linearGradient id="paint1_linear_211_52062" x1="155.424" y1="0.940674" x2="155.424" y2="89.0595" gradientUnits="userSpaceOnUse">
<stop stop-color="#B0D4A7"/>
<stop offset="1" stop-color="#8FC0B9"/>
</linearGradient>
<clipPath id="clip0_211_52062">
<rect width="68.5376" height="88.1188" fill="white" transform="translate(15.3979 0.940674)"/>
</clipPath>
<clipPath id="clip1_211_52062">
<rect width="69.5675" height="88.1188" fill="white" transform="translate(120.64 0.940674)"/>
</clipPath>
</defs>
</svg>
