<svg width="170" height="88" viewBox="0 0 170 88" fill="none" xmlns="http://www.w3.org/2000/svg">
<g clip-path="url(#clip0_211_51896)">
<path fill-rule="evenodd" clip-rule="evenodd" d="M0.000305176 80.182C0.000305176 84.5013 3.5056 88 7.82486 88H60.6209C64.9402 88 68.4455 84.5013 68.4455 80.182V25.4167C68.4455 23.303 67.4083 20.8086 65.8986 19.312L48.9432 2.50753C47.4465 1.02402 44.9587 0 42.8516 0H7.82486C3.51217 0 0.000305176 3.49873 0.000305176 7.81799V80.182ZM7.82486 3.91228C5.66523 3.91228 3.90602 5.66493 3.90602 7.81799V80.182C3.90602 82.3416 5.65867 84.0877 7.8183 84.0877H60.6144C62.774 84.0877 64.5266 82.3351 64.5266 80.182V25.4298H47.8929C44.6567 25.4298 42.0376 22.8107 42.0376 19.5745V3.91228H7.82486ZM63.0103 21.5175H47.8995C46.8229 21.5175 45.9565 20.6445 45.9565 19.5745V4.69999L63.0169 21.5175H63.0103ZM52.1006 47.9451L41.3024 37.1469C40.5541 36.3986 39.3463 36.3986 38.6045 37.1469C37.8562 37.8953 37.8562 39.1031 38.6045 39.8448L48.0504 49.2908L38.6045 58.7367C37.8562 59.485 37.8562 60.6928 38.6045 61.4346C39.3528 62.1829 40.5607 62.1829 41.3024 61.4346L52.1006 50.6364C52.8489 49.8881 52.8489 48.6803 52.1006 47.9385V47.9451ZM20.3954 49.2973L29.8413 39.8514C30.5896 39.1031 30.5896 37.8953 29.8413 37.1535C29.093 36.4052 27.8851 36.4052 27.1434 37.1535L16.3452 47.9517C15.5969 48.7 15.5969 49.9078 16.3452 50.6496L27.1434 61.4477C27.8917 62.196 29.0995 62.196 29.8413 61.4477C30.5896 60.6994 30.5896 59.4916 29.8413 58.7498L20.3954 49.3039V49.2973Z" fill="url(#paint0_linear_211_51896)"/>
</g>
<path d="M91.4791 43.9643C91.4801 44.1788 91.4383 44.3913 91.356 44.5893C91.2738 44.7874 91.1529 44.9671 91.0003 45.1178L80.1182 55.9998C79.8007 56.2169 79.4167 56.3148 79.034 56.2764C78.6513 56.238 78.2945 56.0656 78.0265 55.7898C77.7584 55.5139 77.5964 55.1523 77.569 54.7687C77.5415 54.385 77.6505 54.004 77.8765 53.6928L87.5398 43.9643L77.8765 34.2358C77.6776 33.929 77.5875 33.5643 77.6205 33.2002C77.6536 32.8361 77.8079 32.4936 78.0588 32.2276C78.3097 31.9617 78.6426 31.7877 79.0042 31.7335C79.3658 31.6793 79.7351 31.748 80.0529 31.9288L90.935 42.8108C91.0994 42.9559 91.2325 43.133 91.3261 43.3314C91.4196 43.5297 91.4717 43.7451 91.4791 43.9643Z" fill="#95C2AD"/>
<g clip-path="url(#clip1_211_51896)">
<path fill-rule="evenodd" clip-rule="evenodd" d="M100.599 80.1822C100.599 84.5015 104.104 88.0002 108.424 88.0002H161.224C165.543 88.0002 169.049 84.5015 169.049 80.1822V25.4169C169.049 23.3032 168.012 20.8088 166.502 19.3122L149.545 2.50775C148.048 1.02423 145.56 0.000213623 143.453 0.000213623H108.424C104.111 0.000213623 100.599 3.49895 100.599 7.81821V80.1822ZM108.424 3.91249C106.264 3.91249 104.505 5.66514 104.505 7.81821V80.1822C104.505 82.3419 106.258 84.0879 108.417 84.0879H161.217C163.377 84.0879 165.13 82.3353 165.13 80.1822V25.43H148.495C145.258 25.43 142.639 22.8109 142.639 19.5747V3.91249H108.424ZM163.613 21.5177H148.501C147.425 21.5177 146.558 20.6447 146.558 19.5747V4.7002L163.62 21.5177H163.613ZM144.096 28.8106C139.416 28.8631 135.641 32.7163 135.694 37.3966C135.7 38.2565 135.845 39.077 136.088 39.8582L128.88 44.5582C127.311 42.9434 125.118 41.9456 122.696 41.9719C118.015 42.0178 114.24 45.8776 114.293 50.5579C114.345 55.2382 118.199 59.0126 122.879 58.9601C123.273 58.9601 123.667 58.9273 124.048 58.8682C125.729 58.6187 127.238 57.8704 128.446 56.7873L135.989 62.0584C135.983 62.2159 135.969 62.3735 135.969 62.531C136.022 67.2113 139.875 70.9857 144.556 70.9332C144.95 70.9332 145.344 70.9004 145.725 70.8413C149.854 70.2243 153.005 66.6337 152.959 62.3472C152.906 57.6669 149.053 53.8925 144.372 53.945C141.254 53.9778 138.549 55.7042 137.099 58.238L130.632 53.7153C131.059 52.6847 131.295 51.5622 131.282 50.3806C131.269 49.4748 131.118 48.6017 130.842 47.7878L138.004 43.1206C139.58 44.7945 141.812 45.8382 144.28 45.8119C144.674 45.8119 145.068 45.7791 145.449 45.72C149.578 45.103 152.729 41.5124 152.683 37.2259C152.631 32.5456 148.777 28.7712 144.096 28.8237V28.8106ZM139.738 62.4851C139.711 60.1023 141.464 58.1002 143.762 57.7588C143.972 57.726 144.188 57.7063 144.412 57.7063C147.018 57.6801 149.164 59.774 149.191 62.38C149.217 64.986 147.11 67.126 144.517 67.1588C141.91 67.1851 139.764 65.0911 139.738 62.4851ZM122.84 55.1922C120.234 55.2185 118.087 53.1245 118.061 50.5185C118.035 48.1357 119.787 46.1336 122.085 45.7922C122.295 45.7594 122.512 45.7397 122.735 45.7397C125.341 45.7135 127.488 47.8075 127.514 50.4135C127.54 53.0195 125.446 55.166 122.84 55.1922ZM148.915 37.2522C148.941 39.8582 146.841 41.9981 144.241 42.0309C141.635 42.0572 139.488 39.9632 139.462 37.3572C139.436 34.9744 141.188 32.9723 143.486 32.631C143.696 32.5982 143.913 32.5785 144.136 32.5785C146.742 32.5522 148.889 34.6462 148.915 37.2522Z" fill="url(#paint1_linear_211_51896)"/>
</g>
<defs>
<linearGradient id="paint0_linear_211_51896" x1="34.2229" y1="0" x2="34.2229" y2="88" gradientUnits="userSpaceOnUse">
<stop stop-color="#B0D4A8"/>
<stop offset="1" stop-color="#90C1B9"/>
</linearGradient>
<linearGradient id="paint1_linear_211_51896" x1="134.824" y1="0.000213623" x2="134.824" y2="88.0002" gradientUnits="userSpaceOnUse">
<stop stop-color="#B0D4A7"/>
<stop offset="1" stop-color="#8FC0B9"/>
</linearGradient>
<clipPath id="clip0_211_51896">
<rect width="68.4452" height="88" fill="white"/>
</clipPath>
<clipPath id="clip1_211_51896">
<rect width="68.45" height="88" fill="white" transform="translate(100.599)"/>
</clipPath>
</defs>
</svg>
