<svg width="81" height="95" viewBox="0 0 81 95" fill="none" xmlns="http://www.w3.org/2000/svg">
<g clip-path="url(#clip0_211_52103)">
<path fill-rule="evenodd" clip-rule="evenodd" d="M0.980164 86.384C0.980164 91.0374 5.02754 94.8067 10.0148 94.8067H70.9755C75.9627 94.8067 80.0101 91.0374 80.0101 86.384V27.3826C80.0101 25.1054 78.8126 22.418 77.0693 20.8056L57.4918 2.70137C55.7637 1.10311 52.8912 -0.00012207 50.4582 -0.00012207H10.0148C5.03512 -0.00012207 0.980164 3.76924 0.980164 8.4226V86.384ZM10.0148 4.21477C7.52115 4.21477 5.48988 6.10299 5.48988 8.4226V86.384C5.48988 88.7107 7.51357 90.5918 10.0072 90.5918H70.9679C73.4615 90.5918 75.4852 88.7036 75.4852 86.384V27.3967H56.2791C52.5425 27.3967 49.5184 24.575 49.5184 21.0885V4.21477H10.0148ZM73.7344 23.1818H56.2867C55.0437 23.1818 54.0432 22.2412 54.0432 21.0885V5.06341L73.742 23.1818H73.7344ZM19.0721 27.4108C20.3227 27.4108 21.3307 26.4703 21.3307 25.3034C21.3307 24.1365 20.3227 23.1959 19.0721 23.1959H13.4255C12.1749 23.1959 11.1668 24.1365 11.1668 25.3034C11.1668 26.4703 12.1749 27.4108 13.4255 27.4108H19.0721ZM31.4946 27.4108C32.7452 27.4108 33.7533 26.4703 33.7533 25.3034C33.7533 24.1365 32.7452 23.1959 31.4946 23.1959H25.848C24.5974 23.1959 23.5894 24.1365 23.5894 25.3034C23.5894 26.4703 24.5974 27.4108 25.848 27.4108H31.4946ZM43.9172 27.4108C45.1678 27.4108 46.1759 26.4703 46.1759 25.3034C46.1759 24.1365 45.1678 23.1959 43.9172 23.1959H38.2706C37.02 23.1959 36.0119 24.1365 36.0119 25.3034C36.0119 26.4703 37.02 27.4108 38.2706 27.4108H43.9172ZM19.0721 16.8736C20.3227 16.8736 21.3307 15.933 21.3307 14.7662C21.3307 13.5993 20.3227 12.6587 19.0721 12.6587H13.4255C12.1749 12.6587 11.1668 13.5993 11.1668 14.7662C11.1668 15.933 12.1749 16.8736 13.4255 16.8736H19.0721ZM31.4946 16.8736C32.7452 16.8736 33.7533 15.933 33.7533 14.7662C33.7533 13.5993 32.7452 12.6587 31.4946 12.6587H25.848C24.5974 12.6587 23.5894 13.5993 23.5894 14.7662C23.5894 15.933 24.5974 16.8736 25.848 16.8736H31.4946ZM43.9172 16.8736C45.1678 16.8736 46.1759 15.933 46.1759 14.7662C46.1759 13.5993 45.1678 12.6587 43.9172 12.6587H38.2706C37.02 12.6587 36.0119 13.5993 36.0119 14.7662C36.0119 15.933 37.02 16.8736 38.2706 16.8736H43.9172ZM19.0721 37.941C20.3227 37.941 21.3307 37.0004 21.3307 35.8336C21.3307 34.6667 20.3227 33.7261 19.0721 33.7261H13.4255C12.1749 33.7261 11.1668 34.6667 11.1668 35.8336C11.1668 37.0004 12.1749 37.941 13.4255 37.941H19.0721ZM31.4946 37.941C32.7452 37.941 33.7533 37.0004 33.7533 35.8336C33.7533 34.6667 32.7452 33.7261 31.4946 33.7261H25.848C24.5974 33.7261 23.5894 34.6667 23.5894 35.8336C23.5894 37.0004 24.5974 37.941 25.848 37.941H31.4946ZM43.9172 37.941C45.1678 37.941 46.1759 37.0004 46.1759 35.8336C46.1759 34.6667 45.1678 33.7261 43.9172 33.7261H38.2706C37.02 33.7261 36.0119 34.6667 36.0119 35.8336C36.0119 37.0004 37.02 37.941 38.2706 37.941H43.9172ZM56.3322 37.941C57.5828 37.941 58.5908 37.0004 58.5908 35.8336C58.5908 34.6667 57.5828 33.7261 56.3322 33.7261H50.6856C49.435 33.7261 48.4269 34.6667 48.4269 35.8336C48.4269 37.0004 49.435 37.941 50.6856 37.941H56.3322ZM68.7548 37.941C70.0053 37.941 71.0134 37.0004 71.0134 35.8336C71.0134 34.6667 70.0053 33.7261 68.7548 33.7261H63.1081C61.8575 33.7261 60.8495 34.6667 60.8495 35.8336C60.8495 37.0004 61.8575 37.941 63.1081 37.941H68.7548ZM19.0721 48.4782C20.3227 48.4782 21.3307 47.5377 21.3307 46.3708C21.3307 45.2039 20.3227 44.2634 19.0721 44.2634H13.4255C12.1749 44.2634 11.1668 45.2039 11.1668 46.3708C11.1668 47.5377 12.1749 48.4782 13.4255 48.4782H19.0721ZM31.4946 48.4782C32.7452 48.4782 33.7533 47.5377 33.7533 46.3708C33.7533 45.2039 32.7452 44.2634 31.4946 44.2634H25.848C24.5974 44.2634 23.5894 45.2039 23.5894 46.3708C23.5894 47.5377 24.5974 48.4782 25.848 48.4782H31.4946ZM43.9172 48.4782C45.1678 48.4782 46.1759 47.5377 46.1759 46.3708C46.1759 45.2039 45.1678 44.2634 43.9172 44.2634H38.2706C37.02 44.2634 36.0119 45.2039 36.0119 46.3708C36.0119 47.5377 37.02 48.4782 38.2706 48.4782H43.9172ZM56.3322 48.4782C57.5828 48.4782 58.5908 47.5377 58.5908 46.3708C58.5908 45.2039 57.5828 44.2634 56.3322 44.2634H50.6856C49.435 44.2634 48.4269 45.2039 48.4269 46.3708C48.4269 47.5377 49.435 48.4782 50.6856 48.4782H56.3322ZM68.7548 48.4782C70.0053 48.4782 71.0134 47.5377 71.0134 46.3708C71.0134 45.2039 70.0053 44.2634 68.7548 44.2634H63.1081C61.8575 44.2634 60.8495 45.2039 60.8495 46.3708C60.8495 47.5377 61.8575 48.4782 63.1081 48.4782H68.7548ZM19.0721 59.0084C20.3227 59.0084 21.3307 58.0678 21.3307 56.901C21.3307 55.7341 20.3227 54.7935 19.0721 54.7935H13.4255C12.1749 54.7935 11.1668 55.7341 11.1668 56.901C11.1668 58.0678 12.1749 59.0084 13.4255 59.0084H19.0721ZM31.4946 59.0084C32.7452 59.0084 33.7533 58.0678 33.7533 56.901C33.7533 55.7341 32.7452 54.7935 31.4946 54.7935H25.848C24.5974 54.7935 23.5894 55.7341 23.5894 56.901C23.5894 58.0678 24.5974 59.0084 25.848 59.0084H31.4946ZM43.9172 59.0084C45.1678 59.0084 46.1759 58.0678 46.1759 56.901C46.1759 55.7341 45.1678 54.7935 43.9172 54.7935H38.2706C37.02 54.7935 36.0119 55.7341 36.0119 56.901C36.0119 58.0678 37.02 59.0084 38.2706 59.0084H43.9172ZM56.3322 59.0084C57.5828 59.0084 58.5908 58.0678 58.5908 56.901C58.5908 55.7341 57.5828 54.7935 56.3322 54.7935H50.6856C49.435 54.7935 48.4269 55.7341 48.4269 56.901C48.4269 58.0678 49.435 59.0084 50.6856 59.0084H56.3322ZM68.7548 59.0084C70.0053 59.0084 71.0134 58.0678 71.0134 56.901C71.0134 55.7341 70.0053 54.7935 68.7548 54.7935H63.1081C61.8575 54.7935 60.8495 55.7341 60.8495 56.901C60.8495 58.0678 61.8575 59.0084 63.1081 59.0084H68.7548ZM19.0721 69.5456C20.3227 69.5456 21.3307 68.6051 21.3307 67.4382C21.3307 66.2713 20.3227 65.3307 19.0721 65.3307H13.4255C12.1749 65.3307 11.1668 66.2713 11.1668 67.4382C11.1668 68.6051 12.1749 69.5456 13.4255 69.5456H19.0721ZM31.4946 69.5456C32.7452 69.5456 33.7533 68.6051 33.7533 67.4382C33.7533 66.2713 32.7452 65.3307 31.4946 65.3307H25.848C24.5974 65.3307 23.5894 66.2713 23.5894 67.4382C23.5894 68.6051 24.5974 69.5456 25.848 69.5456H31.4946ZM43.9172 69.5456C45.1678 69.5456 46.1759 68.6051 46.1759 67.4382C46.1759 66.2713 45.1678 65.3307 43.9172 65.3307H38.2706C37.02 65.3307 36.0119 66.2713 36.0119 67.4382C36.0119 68.6051 37.02 69.5456 38.2706 69.5456H43.9172ZM56.3322 69.5456C57.5828 69.5456 58.5908 68.6051 58.5908 67.4382C58.5908 66.2713 57.5828 65.3307 56.3322 65.3307H50.6856C49.435 65.3307 48.4269 66.2713 48.4269 67.4382C48.4269 68.6051 49.435 69.5456 50.6856 69.5456H56.3322ZM68.7548 69.5456C70.0053 69.5456 71.0134 68.6051 71.0134 67.4382C71.0134 66.2713 70.0053 65.3307 68.7548 65.3307H63.1081C61.8575 65.3307 60.8495 66.2713 60.8495 67.4382C60.8495 68.6051 61.8575 69.5456 63.1081 69.5456H68.7548ZM19.0721 80.0758C20.3227 80.0758 21.3307 79.1352 21.3307 77.9684C21.3307 76.8015 20.3227 75.8609 19.0721 75.8609H13.4255C12.1749 75.8609 11.1668 76.8015 11.1668 77.9684C11.1668 79.1352 12.1749 80.0758 13.4255 80.0758H19.0721ZM31.4946 80.0758C32.7452 80.0758 33.7533 79.1352 33.7533 77.9684C33.7533 76.8015 32.7452 75.8609 31.4946 75.8609H25.848C24.5974 75.8609 23.5894 76.8015 23.5894 77.9684C23.5894 79.1352 24.5974 80.0758 25.848 80.0758H31.4946ZM43.9172 80.0758C45.1678 80.0758 46.1759 79.1352 46.1759 77.9684C46.1759 76.8015 45.1678 75.8609 43.9172 75.8609H38.2706C37.02 75.8609 36.0119 76.8015 36.0119 77.9684C36.0119 79.1352 37.02 80.0758 38.2706 80.0758H43.9172ZM56.3322 80.0758C57.5828 80.0758 58.5908 79.1352 58.5908 77.9684C58.5908 76.8015 57.5828 75.8609 56.3322 75.8609H50.6856C49.435 75.8609 48.4269 76.8015 48.4269 77.9684C48.4269 79.1352 49.435 80.0758 50.6856 80.0758H56.3322ZM68.7548 80.0758C70.0053 80.0758 71.0134 79.1352 71.0134 77.9684C71.0134 76.8015 70.0053 75.8609 68.7548 75.8609H63.1081C61.8575 75.8609 60.8495 76.8015 60.8495 77.9684C60.8495 79.1352 61.8575 80.0758 63.1081 80.0758H68.7548Z" fill="url(#paint0_linear_211_52103)"/>
</g>
<defs>
<linearGradient id="paint0_linear_211_52103" x1="40.4951" y1="-0.00012207" x2="40.4951" y2="94.8067" gradientUnits="userSpaceOnUse">
<stop stop-color="#B0D4A7"/>
<stop offset="1" stop-color="#8EC0B9"/>
</linearGradient>
<clipPath id="clip0_211_52103">
<rect width="79.0299" height="94.8069" fill="white" transform="translate(0.980469)"/>
</clipPath>
</defs>
</svg>
