<svg width="74" height="95" viewBox="0 0 74 95" fill="none" xmlns="http://www.w3.org/2000/svg">
<g clip-path="url(#clip0_211_51674)">
<path fill-rule="evenodd" clip-rule="evenodd" d="M0.000244141 86.3841C0.000244141 91.0375 3.77668 94.8069 8.43004 94.8069H65.3099C69.9633 94.8069 73.7397 91.0375 73.7397 86.3841V27.3827C73.7397 25.1055 72.6223 22.4182 70.9958 20.8057L52.7289 2.70149C51.1165 1.10323 48.4362 0 46.1661 0H8.43004C3.78375 0 0.000244141 3.76936 0.000244141 8.42272V86.3841ZM8.43004 4.2149C6.10336 4.2149 4.20807 6.10311 4.20807 8.42272V86.3841C4.20807 88.7108 6.09628 90.592 8.42296 90.592H65.3028C67.6295 90.592 69.5177 88.7037 69.5177 86.3841V27.3968H51.5974C48.1109 27.3968 45.2892 24.5751 45.2892 21.0886V4.2149H8.43004ZM67.8841 23.1819H51.6044C50.4446 23.1819 49.5111 22.2414 49.5111 21.0886V5.06353L67.8912 23.1819H67.8841ZM12.5318 15.424L31.9373 15.5371C33.0688 15.5371 33.9881 14.6178 33.9952 13.465C33.9952 12.3123 33.09 11.3788 31.9656 11.3717L12.5601 11.2586C11.4286 11.2586 10.5092 12.1779 10.5021 13.3307C10.5021 14.4834 11.4073 15.4169 12.5318 15.424ZM12.5318 24.6175L31.9373 24.7307C33.0688 24.7307 33.9881 23.8113 33.9952 22.6586C33.9952 21.5059 33.09 20.5724 31.9656 20.5653L12.5601 20.4521C11.4286 20.4521 10.5092 21.3715 10.5021 22.5242C10.5021 23.677 11.4073 24.6105 12.5318 24.6175ZM48.224 29.971L12.4752 29.7659C11.3437 29.7659 10.4243 30.6853 10.4173 31.838C10.4102 32.9907 11.3225 33.9242 12.4469 33.9313L48.1957 34.1364C49.3273 34.1364 50.2466 33.2171 50.2537 32.0643C50.2537 30.9116 49.3485 29.9781 48.224 29.971ZM56.9862 40.6002H37.6797C36.5553 40.6002 35.9966 41.4842 35.9966 42.3611C35.1975 46.8447 34.3913 51.4132 33.5921 55.8969C32.3121 62.9476 31.1099 70.0762 29.8298 77.1199C28.5498 74.3194 27.1849 71.5118 25.9827 68.6264C25.6644 67.9829 25.424 67.3464 25.0987 66.7028C24.7804 66.1441 24.1369 65.8188 23.4933 65.8188H15.403C14.519 65.8188 13.5643 66.618 13.6421 67.5798C13.7199 68.5415 14.4412 69.3407 15.403 69.3407H22.4538C24.3773 73.5061 26.3009 77.6715 28.2174 81.8369C28.5357 82.4804 28.7761 83.1169 29.1014 83.7604C29.3419 84.0787 29.5823 84.404 29.9854 84.5596C30.0632 84.5596 30.0632 84.6374 30.1481 84.6374C30.3885 84.7151 30.5512 84.7151 30.8694 84.6374C31.1099 84.6374 31.3503 84.5596 31.513 84.3969C31.5907 84.3969 31.5907 84.3191 31.6756 84.3191C31.9939 84.0787 32.3192 83.7604 32.397 83.3573C33.1961 78.8737 34.0023 74.3052 34.8014 69.7438L38.6486 48.1177L39.3699 44.0301H57.0711C59.2351 44.1079 59.2351 40.586 56.9933 40.586L56.9862 40.6002ZM54.5039 58.5418C55.0626 57.8982 55.1475 56.9364 54.5039 56.3C53.9453 55.7413 52.8208 55.6564 52.2621 56.3C50.8194 58.0609 49.3768 59.8218 47.8563 61.5049C46.8167 60.3027 45.8549 59.1005 44.8153 57.8982C44.3344 57.3396 43.9313 56.8587 43.4504 56.2929C42.8918 55.6493 41.7673 55.7342 41.2086 56.2929C40.5651 56.9364 40.6499 57.8982 41.2086 58.5347C42.7291 60.3734 44.2496 62.1414 45.7771 63.9801C44.7375 65.1824 43.698 66.4624 42.6513 67.6646C42.1704 68.2233 41.7673 68.7042 41.2864 69.27C40.7277 69.9135 40.6429 70.8753 41.2864 71.5118C41.8451 72.0705 42.9696 72.1553 43.5282 71.5118C44.9709 69.8287 46.3287 68.1455 47.7714 66.4695C48.7332 67.5939 49.695 68.7891 50.6568 69.9135C51.1377 70.4722 51.5408 70.9531 52.0217 71.5189C52.5804 72.1624 53.7048 72.0775 54.2635 71.5189C54.907 70.8753 54.8222 69.9135 54.2635 69.277C52.8208 67.5161 51.3003 65.7552 49.8577 63.9872C50.8972 62.7072 52.0217 61.4271 53.0613 60.14C53.6199 59.5814 54.023 59.0156 54.5039 58.5347V58.5418Z" fill="url(#paint0_linear_211_51674)"/>
</g>
<defs>
<linearGradient id="paint0_linear_211_51674" x1="36.87" y1="0" x2="36.87" y2="94.8069" gradientUnits="userSpaceOnUse">
<stop stop-color="#B0D4A7"/>
<stop offset="1" stop-color="#8EC0B9"/>
</linearGradient>
<clipPath id="clip0_211_51674">
<rect width="73.7395" height="94.8069" fill="white"/>
</clipPath>
</defs>
</svg>
