<svg width="122" height="125" viewBox="0 0 122 125" fill="none" xmlns="http://www.w3.org/2000/svg">
<path d="M116.383 113.532C113.518 111.439 110.063 110.295 106.507 110.262C106.36 110.262 106.213 110.265 106.066 110.269C106.049 110.22 106.031 110.172 106.013 110.123L114.273 94.2557C114.889 93.0659 115.188 91.7394 115.142 90.4024C115.096 89.0654 114.707 87.7622 114.012 86.6167C113.403 85.5891 112.538 84.7356 111.498 84.1398C110.459 83.5439 109.283 83.2259 108.083 83.2168H100.498V29.1259H104.685C105.104 29.1259 105.512 29.0013 105.859 28.7682C106.205 28.5351 106.474 28.2041 106.629 27.8181L110.816 17.416C110.915 17.1702 110.966 16.908 110.966 16.6434V6.24126C110.964 4.58656 110.302 3.0002 109.124 1.83015C107.947 0.660105 106.35 0.0019271 104.685 0H83.7487C82.0835 0.0019271 80.4871 0.660105 79.3096 1.83015C78.1321 3.0002 77.4697 4.58656 77.4678 6.24126V16.6434C77.4678 16.908 77.5186 17.1702 77.6175 17.416L81.8048 27.8181C81.9602 28.2041 82.2284 28.5351 82.5749 28.7682C82.9214 29.0013 83.3303 29.1259 83.7487 29.1259H87.936V83.2168H80.351C79.1512 83.2257 77.9741 83.5436 76.9348 84.1395C75.8955 84.7354 75.0295 85.5889 74.4213 86.6167C73.7259 87.7622 73.3368 89.0654 73.291 90.4024C73.2452 91.7394 73.5442 93.0659 74.1596 94.2557L75.6228 97.0664C73.6384 98.0061 71.9153 99.4138 70.6038 101.167C70.4628 101.163 70.3232 101.161 70.1851 101.16C67.1563 101.162 64.2115 102.15 61.8027 103.975L65.3493 82.8267C67.2547 82.2256 68.8809 80.967 69.9339 79.2785C70.987 77.5899 71.3974 75.5826 71.091 73.6196C70.7845 71.6566 69.7815 69.8672 68.2632 68.5749C66.7449 67.2826 64.8115 66.5727 62.8123 66.5734H37.6886V60.3322H42.3757C46.6838 60.3273 50.814 58.6245 53.8603 55.5975C56.9066 52.5705 58.6201 48.4664 58.625 44.1855V33.2867C58.625 32.7349 58.4044 32.2058 58.0118 31.8156C57.6192 31.4255 57.0867 31.2063 56.5314 31.2063H49.7506C47.4755 31.2055 45.2257 31.6807 43.1476 32.6008C41.0694 33.5209 39.2094 34.8653 37.6886 36.5467V29.1259H42.3757C46.6838 29.121 50.814 27.4182 53.8603 24.3912C56.9066 21.3642 58.6201 17.2601 58.625 12.9792V2.08042C58.625 1.52866 58.4044 0.999495 58.0118 0.609341C57.6192 0.219186 57.0867 0 56.5314 0H49.7506C46.8684 0.00225555 44.0387 0.765845 41.5513 2.21253C39.0639 3.65923 37.0082 5.73701 35.595 8.233C34.1817 5.73701 32.126 3.65923 29.6386 2.21253C27.1512 0.765845 24.3215 0.00225555 21.4393 0H14.6585C14.1033 0 13.5707 0.219186 13.1781 0.609341C12.7855 0.999495 12.5649 1.52866 12.5649 2.08042V12.9792C12.5698 17.2601 14.2834 21.3642 17.3296 24.3912C20.3759 27.4182 24.5061 29.121 28.8142 29.1259H33.5013V36.5467C31.9805 34.8653 30.1205 33.5209 28.0424 32.6008C25.9642 31.6807 23.7144 31.2055 21.4393 31.2063H14.6585C14.1033 31.2063 13.5707 31.4255 13.1781 31.8156C12.7855 32.2058 12.5649 32.7349 12.5649 33.2867V44.1855C12.5698 48.4664 14.2834 52.5705 17.3296 55.5975C20.3759 58.6245 24.5061 60.3273 28.8142 60.3322H33.5013V66.5734H8.37761C6.37847 66.5727 4.44501 67.2826 2.9267 68.5749C1.40839 69.8672 0.405383 71.6566 0.0989719 73.6196C-0.207439 75.5826 0.202957 77.5899 1.25599 79.2785C2.30902 80.967 3.93521 82.2256 5.84064 82.8267L12.0103 119.61C12.251 121.069 13.0066 122.395 14.1419 123.351C15.2772 124.307 16.7178 124.829 18.2057 124.825H119.341C119.896 124.825 120.428 124.606 120.821 124.216C121.214 123.826 121.434 123.296 121.434 122.745C121.434 119.203 119.641 115.931 116.383 113.532ZM37.6886 16.1467C37.6922 12.9689 38.9642 9.92236 41.2255 7.67535C43.4867 5.42835 46.5527 4.16442 49.7506 4.16084H54.4377V12.9792C54.4341 16.157 53.1622 19.2035 50.9009 21.4505C48.6396 23.6975 45.5737 24.9614 42.3757 24.965H40.0649L47.6716 15.8947C47.854 15.6856 47.9926 15.4426 48.0792 15.1797C48.1659 14.9168 48.199 14.6394 48.1765 14.3637C48.154 14.0879 48.0764 13.8194 47.9482 13.5739C47.82 13.3283 47.6438 13.1106 47.4299 12.9335C47.216 12.7565 46.9687 12.6235 46.7025 12.5426C46.4363 12.4616 46.1565 12.4342 45.8796 12.462C45.6026 12.4897 45.3339 12.5721 45.0894 12.7043C44.8448 12.8365 44.6292 13.0158 44.4553 13.2317L44.449 13.2393L44.4474 13.2408L37.6886 21.2983V16.1467ZM37.6886 47.3529C37.6922 44.1752 38.9642 41.1286 41.2255 38.8816C43.4867 36.6346 46.5527 35.3707 49.7506 35.3671H54.4377V44.1855C54.4341 47.3632 53.1622 50.4098 50.9009 52.6568C48.6396 54.9038 45.5737 56.1677 42.3757 56.1713H40.0649L47.6716 47.1009C47.854 46.8919 47.9926 46.6489 48.0792 46.386C48.1659 46.1231 48.199 45.8457 48.1765 45.57C48.154 45.2942 48.0764 45.0257 47.9482 44.7802C47.82 44.5346 47.6438 44.3169 47.4299 44.1398C47.216 43.9627 46.9687 43.8298 46.7025 43.7489C46.4363 43.6679 46.1565 43.6405 45.8796 43.6682C45.6026 43.696 45.3339 43.7784 45.0894 43.9106C44.8448 44.0427 44.6292 44.222 44.4553 44.438L44.449 44.4456L44.4474 44.4471L37.6886 52.5046V47.3529ZM85.1664 24.965L81.6551 16.2426V6.24126C81.6557 5.68969 81.8765 5.16088 82.269 4.77086C82.6615 4.38084 83.1937 4.16146 83.7487 4.16084H104.685C105.24 4.16146 105.772 4.38084 106.165 4.77086C106.557 5.16088 106.778 5.68969 106.779 6.24126V16.2426L103.268 24.965H98.4042C97.849 24.965 97.3164 25.1842 96.9238 25.5744C96.5312 25.9645 96.3106 26.4937 96.3106 27.0454V45.7692H92.1233V27.0454C92.1233 26.4937 91.9027 25.9645 91.5101 25.5744C91.1175 25.1842 90.5849 24.965 90.0297 24.965H85.1664ZM92.1233 54.0909V49.9301H96.3106V54.0909H92.1233ZM96.3106 58.2517V89.5756C96.3106 89.8575 96.2529 90.1366 96.141 90.3957C96.0292 90.6548 95.8655 90.8886 95.6599 91.083C95.4543 91.2773 95.2111 91.4281 94.945 91.5261C94.679 91.6242 94.3957 91.6675 94.1123 91.6534C93.5626 91.6056 93.0517 91.3525 92.6826 90.945C92.3135 90.5376 92.1136 90.0062 92.1233 89.458V58.2517H96.3106ZM77.9983 88.7801C78.2566 88.3583 79.0027 87.3776 80.351 87.3776H87.936V89.458C87.9183 91.0781 88.5301 92.6425 89.644 93.8257C90.7579 95.0088 92.288 95.7195 93.916 95.8098C94.0186 95.8145 94.1207 95.8168 94.2224 95.8168C95.8362 95.8213 97.3885 95.2027 98.5521 94.0916C99.1657 93.5078 99.6543 92.8069 99.9886 92.0308C100.323 91.2548 100.496 90.4197 100.498 89.5756V87.3776H108.083C109.431 87.3776 110.177 88.3583 110.436 88.7801C110.76 89.3148 110.941 89.9229 110.962 90.5467C110.982 91.1705 110.842 91.7892 110.555 92.3441L103.524 105.849C102.227 104.376 100.629 103.196 98.8352 102.388C97.0417 101.579 95.0951 101.161 93.1256 101.16C92.9869 101.16 92.8474 101.163 92.7069 101.167C91.421 99.4627 89.752 98.0808 87.8331 97.1315C85.9143 96.1822 83.7986 95.6917 81.6551 95.6993C81.0008 95.701 80.3475 95.7485 79.6999 95.8415L77.8792 92.3446C77.5915 91.7897 77.4514 91.1708 77.4722 90.5469C77.4931 89.923 77.6742 89.3148 77.9983 88.7801ZM23.5186 15.8944L31.125 24.965H28.8142C25.6162 24.9614 22.5503 23.6975 20.289 21.4505C18.0278 19.2035 16.7558 16.157 16.7522 12.9792V4.16084H21.4393C24.6373 4.16442 27.7032 5.42835 29.9645 7.67535C32.2257 9.92236 33.4977 12.9689 33.5013 16.1467V21.2983L26.743 13.2393L26.7415 13.2377L26.7352 13.2302C26.5612 13.0142 26.3456 12.8349 26.1011 12.7027C25.8565 12.5705 25.5879 12.4882 25.3109 12.4604C25.0339 12.4326 24.7541 12.46 24.4879 12.541C24.2217 12.622 23.9744 12.7549 23.7606 12.932C23.5467 13.1091 23.3705 13.3268 23.2423 13.5723C23.1141 13.8179 23.0365 14.0864 23.014 14.3621C22.9915 14.6378 23.0245 14.9153 23.1112 15.1781C23.1979 15.441 23.3365 15.6841 23.5188 15.8931L23.5186 15.8944ZM23.5186 47.1007L31.125 56.1713H28.8142C25.6162 56.1677 22.5503 54.9038 20.289 52.6568C18.0278 50.4098 16.7558 47.3632 16.7522 44.1855V35.3671H21.4393C24.6373 35.3707 27.7032 36.6346 29.9645 38.8816C32.2257 41.1286 33.4977 44.1752 33.5013 47.3529V52.5046L26.743 44.4456L26.7415 44.444L26.7352 44.4365C26.5612 44.2205 26.3456 44.0412 26.1011 43.909C25.8565 43.7768 25.5879 43.6945 25.3109 43.6667C25.0339 43.6389 24.7541 43.6663 24.4879 43.7473C24.2217 43.8283 23.9744 43.9612 23.7606 44.1383C23.5467 44.3153 23.3705 44.533 23.2423 44.7786C23.1141 45.0242 23.0365 45.2927 23.014 45.5684C22.9915 45.8441 23.0245 46.1215 23.1112 46.3844C23.1979 46.6473 23.3365 46.8904 23.5188 47.0994L23.5186 47.1007ZM4.19033 74.8951C4.19164 73.792 4.63322 72.7344 5.41821 71.9544C6.20319 71.1743 7.26748 70.7356 8.37761 70.7342H62.8123C63.9228 70.7342 64.9879 71.1726 65.7732 71.9529C66.5584 72.7332 66.9996 73.7916 66.9996 74.8951C66.9996 75.9986 66.5584 77.0569 65.7732 77.8372C64.9879 78.6176 63.9228 79.0559 62.8123 79.0559H8.37761C7.26748 79.0546 6.20319 78.6158 5.41821 77.8358C4.63322 77.0558 4.19164 75.9982 4.19033 74.8951ZM42.0902 120.664H18.2057C17.7097 120.666 17.2296 120.491 16.8512 120.173C16.4727 119.854 16.2208 119.412 16.1406 118.926L10.1512 83.2168H61.0387L56.5013 110.269C53.0501 110.363 49.71 111.502 46.9268 113.532C44.3189 115.453 42.6524 117.934 42.0902 120.664ZM46.4345 120.664C47.7737 116.982 52.5048 114.423 56.8038 114.423C57.368 114.424 57.9311 114.473 58.4868 114.569C58.7604 114.616 59.0407 114.609 59.3113 114.548C59.582 114.486 59.8377 114.372 60.0634 114.211C60.2892 114.051 60.4806 113.847 60.6265 113.612C60.7724 113.378 60.8698 113.117 60.9131 112.844C61.5946 108.555 65.5806 105.321 70.1845 105.321C70.5949 105.322 71.0048 105.348 71.4119 105.399C71.8168 105.449 72.2275 105.381 72.5935 105.202C72.9595 105.023 73.2648 104.741 73.4716 104.392C74.3342 103.006 75.5388 101.863 76.971 101.07C78.4032 100.277 80.0155 99.8603 81.6551 99.8603C83.2946 99.8603 84.907 100.277 86.3392 101.07C87.7714 101.863 88.976 103.006 89.8386 104.392C90.0455 104.741 90.3507 105.022 90.7167 105.202C91.0827 105.381 91.4934 105.449 91.8982 105.399C92.3054 105.348 92.7153 105.322 93.1256 105.321C97.7298 105.321 101.716 108.555 102.397 112.844C102.441 113.117 102.538 113.378 102.684 113.612C102.83 113.847 103.021 114.051 103.247 114.211C103.473 114.372 103.728 114.486 103.999 114.548C104.27 114.609 104.55 114.616 104.824 114.569C105.379 114.473 105.942 114.424 106.507 114.423C110.806 114.423 115.535 116.982 116.876 120.664H46.4345Z" fill="url(#paint0_linear_211_51578)"/>
<defs>
<linearGradient id="paint0_linear_211_51578" x1="79.0529" y1="125.502" x2="82.579" y2="2.08779" gradientUnits="userSpaceOnUse">
<stop stop-color="#88BBB4"/>
<stop offset="1" stop-color="#ACD0A0"/>
</linearGradient>
</defs>
</svg>
