<svg width="76" height="97" viewBox="0 0 76 97" fill="none" xmlns="http://www.w3.org/2000/svg">
<g clip-path="url(#clip0_211_51582)">
<path fill-rule="evenodd" clip-rule="evenodd" d="M0 87.7579C0 92.4458 3.86162 96.2431 8.61995 96.2431H66.7829C71.5412 96.2431 75.4028 92.4458 75.4028 87.7579V28.3187C75.4028 26.0247 74.2602 23.3174 72.597 21.693L53.918 3.45445C52.2693 1.84432 49.5285 0.73291 47.2072 0.73291H8.61995C3.86885 0.73291 0 4.53024 0 9.21812V87.7579ZM8.61995 4.97908C6.24078 4.97908 4.30274 6.8813 4.30274 9.21812V87.7579C4.30274 90.1019 6.23355 91.997 8.61271 91.997H66.7757C69.1548 91.997 71.0856 90.0948 71.0856 87.7579V28.333H52.761C49.1959 28.333 46.3105 25.4903 46.3105 21.978V4.97908H8.61995ZM69.4151 24.0868H52.7682C51.5823 24.0868 50.6277 23.1393 50.6277 21.978V5.83401L69.4224 24.0868H69.4151ZM47.9159 32.0021C42.7598 32.0591 38.6017 36.2411 38.6596 41.3208C38.6668 42.2541 38.8259 43.1447 39.0935 43.9925L31.1533 49.0936C29.425 47.341 27.0096 46.2581 24.3412 46.2866C19.1852 46.3364 15.0271 50.5256 15.0849 55.6053C15.1428 60.6851 19.3876 64.7816 24.5437 64.7246C24.9776 64.7246 25.4115 64.689 25.8309 64.6249C27.6822 64.3542 29.3454 63.542 30.676 62.3664L38.985 68.0874C38.9778 68.2584 38.9633 68.4293 38.9633 68.6003C39.0212 73.6801 43.2661 77.7766 48.4221 77.7196C48.856 77.7196 49.2899 77.684 49.7093 77.6199C54.2579 76.9502 57.729 73.0531 57.6784 68.4008C57.6206 63.3211 53.3757 59.2246 48.2196 59.2816C44.7847 59.3172 41.8053 61.1909 40.2071 63.9409L33.0841 59.0322C33.5541 57.9137 33.8145 56.6954 33.8 55.413C33.7856 54.4298 33.6192 53.4823 33.3155 52.5988L41.2051 47.5334C42.9406 49.3501 45.3993 50.4829 48.1184 50.4544C48.5523 50.4544 48.9862 50.4188 49.4056 50.3546C53.9542 49.6849 57.4253 45.7879 57.3747 41.1356C57.3168 36.0559 53.072 31.9593 47.9159 32.0163V32.0021ZM43.1142 68.5505C43.0853 65.9643 45.0161 63.7913 47.5471 63.4209C47.7785 63.3852 48.0171 63.3639 48.263 63.3639C51.1339 63.3354 53.4986 65.6081 53.5275 68.4365C53.5565 71.2649 51.2352 73.5874 48.3787 73.6231C45.5078 73.6516 43.1431 71.3789 43.1142 68.5505ZM24.5003 60.6352C21.6294 60.6637 19.2647 58.391 19.2358 55.5626C19.2069 52.9764 21.1377 50.8035 23.6687 50.433C23.9001 50.3974 24.1387 50.376 24.3846 50.376C27.2555 50.3475 29.6202 52.6202 29.6491 55.4486C29.6781 58.277 27.3712 60.6067 24.5003 60.6352ZM53.2238 41.1641C53.2527 43.9925 50.9387 46.3151 48.075 46.3507C45.2041 46.3792 42.8394 44.1065 42.8105 41.2781C42.7815 38.6919 44.7124 36.519 47.2434 36.1485C47.4748 36.1129 47.7134 36.0915 47.9593 36.0915C50.8302 36.063 53.1949 38.3357 53.2238 41.1641Z" fill="url(#paint0_linear_211_51582)"/>
</g>
<defs>
<linearGradient id="paint0_linear_211_51582" x1="37.7014" y1="0.73291" x2="37.7014" y2="96.2431" gradientUnits="userSpaceOnUse">
<stop stop-color="#B0D4A7"/>
<stop offset="1" stop-color="#8FC0B9"/>
</linearGradient>
<clipPath id="clip0_211_51582">
<rect width="75.4028" height="95.5102" fill="white" transform="translate(0 0.73291)"/>
</clipPath>
</defs>
</svg>
