<svg width="134" height="130" viewBox="0 0 134 130" fill="none" xmlns="http://www.w3.org/2000/svg">
<path d="M61.4937 74.1C61.6968 77.1469 63.1593 78.65 64.5609 79.4016C72.625 89.5781 85.1578 89.6594 91.9624 88.7656C93.039 88.6235 96.3296 88.9688 100.148 89.3547C105.714 89.9235 113.291 90.7156 120.623 90.7156C123.589 90.7156 126.534 90.5938 129.256 90.2688C131.694 90.0047 133.522 87.9531 133.522 85.5156C133.522 82.8953 131.389 80.7625 128.769 80.7625C128.606 80.7625 128.383 80.7625 128.18 80.8031C120.867 81.4938 105.673 82.8953 91.5562 75.2578C91.1906 75.0547 90.6421 74.6078 90.0531 74.1406C87.8593 72.3734 84.2437 69.5297 78.8812 70.0578C77.6015 68.7984 75.1234 68.1688 71.3656 68.1688C71.7921 66.0766 72.9296 65.8328 74.7171 65.4672C75.875 65.2438 76.9109 64.6953 77.7437 63.9234C85.1984 64.8172 88.489 61.8922 90.4796 60.1047C90.9265 59.7188 91.3328 59.3531 91.6171 59.1906C104.962 51.9594 119.364 53.3 126.25 53.9297C126.433 53.9703 126.616 53.9703 126.859 53.9703C129.378 53.9703 131.45 51.9188 131.45 49.3797C131.45 47.0234 129.683 45.0734 127.347 44.8094C118.369 43.7328 107.156 44.8906 99.7421 45.6625C96.1468 46.0281 93.0187 46.3531 92.0031 46.2109C86.7828 45.5406 73.8031 45.0734 65.7187 55.3313C65.3125 55.5953 64.9062 55.8797 64.4796 56.1641C60.8031 54.6813 57.1468 53.6656 53.5515 53.1172V37.4969C53.7343 37.4969 53.9171 37.5172 54.1203 37.5172C56.6187 37.5172 60.7015 37.05 63.3625 34.3891C67.364 30.3875 66.4093 23.2578 66.3687 22.9531C66.2671 22.2828 65.739 21.7547 65.0687 21.6531C64.764 21.6125 57.6343 20.6578 53.6328 24.6594C53.5921 24.7 53.5718 24.7203 53.5515 24.7609V16.9203C53.7343 16.9203 53.9171 16.9406 54.1203 16.9406C56.6187 16.9406 60.7015 16.4734 63.3625 13.8125C67.364 9.81094 66.4093 2.68125 66.3687 2.37656C66.2671 1.70625 65.739 1.17813 65.0687 1.07656C64.764 1.03594 57.6343 0.0812504 53.6328 4.08281C53.5718 4.14375 53.5312 4.20469 53.4703 4.26563C53.0031 1.86875 50.9109 0 48.3718 0C45.5484 0 43.2328 2.29531 43.2328 5.13906V14.2188C43.1921 14.1781 43.1718 14.1578 43.1515 14.1172C39.15 10.1156 32.0203 11.0703 31.7156 11.1109C31.0453 11.2125 30.5171 11.7406 30.4156 12.4109C30.375 12.7156 29.4203 19.8453 33.4218 23.8469C36.1031 26.5281 40.1656 26.975 42.664 26.975C42.8671 26.975 43.0499 26.975 43.2328 26.9547V34.7953C43.1921 34.7547 43.1718 34.7344 43.1515 34.6938C39.15 30.6922 32.0203 31.6469 31.7156 31.6875C31.0453 31.7891 30.5171 32.3172 30.4156 32.9875C30.375 33.2922 29.4203 40.4219 33.4218 44.4234C36.1031 47.1047 40.1656 47.5516 42.664 47.5516C42.8671 47.5516 43.0499 47.5516 43.2328 47.5313V52.7719C33.7875 53.4625 30.1718 60.4297 30.0093 60.7344C29.7453 61.2625 29.6031 63.375 31.6749 62.9078C34.9046 62.1969 40.4296 61.425 43.2328 61.6484V65.5078C38.0734 68.7578 34.9859 72.8 33.7875 74.5875C33.3 75.2984 33.3406 76.2328 33.9093 76.9031C34.2953 77.3703 34.8437 77.6141 35.4124 77.6141C35.6765 77.6141 35.9406 77.5531 36.1843 77.4516C38.3781 76.5172 40.7953 75.8266 43.2328 75.3188V103.614H26.15V97.7234C26.3531 97.7234 26.5765 97.7438 26.8 97.7438C29.4 97.7438 33.625 97.2563 36.4078 94.4938C40.5718 90.3297 39.5765 82.9156 39.5359 82.6109C39.4343 81.9406 38.9062 81.4125 38.2359 81.3109C37.9312 81.2703 30.5171 80.275 26.3531 84.4391C26.2718 84.5203 26.2109 84.6016 26.15 84.6625V53.5438C26.15 50.6188 23.7734 48.2422 20.8484 48.2422C18.1671 48.2422 15.9734 50.2328 15.6281 52.8125C15.5265 52.7109 15.4453 52.6094 15.3437 52.5078C11.1796 48.3438 3.76558 49.3391 3.46089 49.3797C2.79058 49.4813 2.26245 50.0094 2.16089 50.6797C2.12026 50.9844 1.12495 58.3984 5.28901 62.5625C8.07183 65.3453 12.2968 65.8125 14.8968 65.8125C15.1406 65.8125 15.3437 65.8125 15.5468 65.7922V74.2219C15.4859 74.1406 15.425 74.0594 15.3437 73.9984C11.1796 69.8344 3.76558 70.8297 3.46089 70.8703C2.79058 70.9719 2.26245 71.5 2.16089 72.1703C2.12026 72.5156 1.12495 79.9094 5.28901 84.0734C8.07183 86.8563 12.2968 87.3234 14.8968 87.3234C15.1406 87.3234 15.3437 87.3234 15.5468 87.3031V103.634H2.26245C1.42964 103.634 0.739014 104.325 0.739014 105.158C0.739014 105.991 1.42964 106.681 2.26245 106.681H129.216C130.048 106.681 130.739 105.991 130.739 105.158C130.739 104.325 130.048 103.634 129.216 103.634H53.4906V74.1203C56.6796 73.9781 59.4828 74.0188 61.4937 74.1ZM28.5062 86.6125C30.7609 84.3578 34.6406 84.1953 36.6109 84.2563C36.6921 86.2266 36.5093 90.1063 34.2546 92.361C32.6906 93.925 30.3343 94.4734 28.3843 94.6359L31.7359 91.2844C32.325 90.6953 32.325 89.7203 31.7359 89.1313C31.1468 88.5422 30.1718 88.5422 29.5828 89.1313L26.2312 92.4828C26.3937 90.5328 26.9421 88.1766 28.5062 86.6125ZM5.1062 52.325C7.07651 52.2438 10.9562 52.4266 13.2109 54.6813C14.775 56.2453 15.3234 58.6016 15.4859 60.5516L12.1343 57.2C11.5453 56.6109 10.5703 56.6109 9.9812 57.2C9.39214 57.7891 9.39214 58.7641 9.9812 59.3531L13.3328 62.7047C11.3828 62.5422 9.02651 61.9938 7.46245 60.4297C5.18745 58.175 5.02495 54.2953 5.1062 52.325ZM5.1062 73.8359C7.07651 73.775 10.9562 73.9375 13.2109 76.1922C14.775 77.7563 15.3234 80.1125 15.4859 82.0625L12.1343 78.7109C11.5453 78.1219 10.5703 78.1219 9.9812 78.7109C9.39214 79.3 9.39214 80.275 9.9812 80.8641L13.3328 84.2156C11.3828 84.0531 9.02651 83.5047 7.46245 81.9406C5.18745 79.6859 5.02495 75.7859 5.1062 73.8359ZM18.5937 53.5438C18.5937 52.3047 19.6093 51.2891 20.8484 51.2891C22.0875 51.2891 23.1031 52.3047 23.1031 53.5438V94.2703V94.2906V103.655H18.614V53.5438H18.5937ZM46.2796 103.655V74.8313C47.6 74.6281 49.0015 74.4656 50.464 74.3438V103.655H46.2796ZM88.1031 76.5172C88.8343 77.1063 89.464 77.6141 90.0734 77.9391C105.003 86.0234 120.827 84.5406 128.444 83.8297C128.505 83.8297 128.708 83.8094 128.748 83.8094C129.683 83.8094 130.455 84.5813 130.455 85.5156C130.455 86.3891 129.784 87.1406 128.891 87.2422C119.77 88.3188 108.152 87.1406 100.453 86.3281C95.964 85.8609 92.9984 85.5563 91.5562 85.7594C86.0718 86.4703 76.464 86.5109 69.3953 80.1328C72.7265 79.7063 76.1796 77.8375 78.0281 76.0094C79.1656 74.8719 79.6531 73.8563 79.8156 73.0234C83.5937 72.9016 86.1734 74.9734 88.1031 76.5172ZM76.8296 72.3328C76.8703 72.4344 76.7484 73.0031 75.8953 73.8563C73.6 76.1313 68.6843 77.9594 66.2265 76.8422C65.8609 76.6797 64.8656 76.1922 64.6218 74.2828C65.0281 74.2625 65.414 74.2422 65.7796 74.1813C67.9125 73.8156 69.6187 72.7188 70.5125 71.2359C76.0984 71.0938 76.8093 72.3328 76.8296 72.3328ZM91.5562 49.2781C92.8765 49.4406 95.3546 49.2172 100.006 48.7297C107.298 47.9781 118.308 46.8406 126.961 47.8766C127.753 47.9578 128.362 48.6281 128.362 49.4203C128.362 50.2734 127.672 50.9641 126.819 50.9641C126.778 50.9641 126.595 50.9438 126.534 50.9234C119.323 50.2531 104.312 48.8516 90.1343 56.5094C89.5453 56.8344 89.0171 57.3016 88.4078 57.8297C86.7421 59.3125 84.5281 61.2625 79.4906 61.0188C79.9781 59.3938 79.8359 57.6469 79.0234 56.1438C77.9874 54.1938 76.5859 52.6703 74.8796 51.6547C81.1968 48.4859 88.1843 48.8313 91.5562 49.2781ZM67.5265 57.8094C67.6687 57.7078 67.8109 57.5859 67.9125 57.4438C69.0906 55.9 70.4109 54.6406 71.7921 53.6047C73.7218 54.2141 75.2453 55.5547 76.3218 57.6063C76.8296 58.5609 77.175 61.9734 73.9859 62.5219C71.8328 62.9078 68.6031 63.6391 68.1359 68.9203C68.0546 69.9563 66.8156 70.9109 65.2312 71.175C63.3421 71.4797 60.864 70.85 59.6453 68.0672C58.9953 66.6047 59.6859 64.9594 60.8843 63.3953C60.9046 63.375 60.9249 63.3344 60.9453 63.3141C62.9156 60.8969 66.1453 58.6828 67.5265 57.8094ZM61.5953 58.3984C60.7015 59.15 59.8484 59.9828 59.0968 60.8563C57.1062 60.8969 55.2375 61.1 53.4906 61.4656V56.2656C56.1718 56.6922 58.8734 57.4031 61.5953 58.3984ZM63.3828 24.6188C63.4437 26.5078 63.2609 30.1438 61.1484 32.2563C59.7062 33.6984 57.5531 34.2266 55.7453 34.4094L58.8328 31.3219C59.4218 30.7328 59.4218 29.7578 58.8328 29.1688C58.2437 28.5797 57.2687 28.5797 56.6796 29.1688L53.5921 32.2563C53.775 30.4281 54.3031 28.275 55.7453 26.8531C57.8578 24.7406 61.514 24.5578 63.3828 24.6188ZM63.3828 4.02188C63.4437 5.91094 63.2609 9.54688 61.1484 11.6594C59.7062 13.1016 57.5531 13.6297 55.7249 13.8125L58.8125 10.725C59.4015 10.1359 59.4015 9.16094 58.8125 8.57188C58.2234 7.98281 57.2484 7.98281 56.6593 8.57188L53.5718 11.6594C53.7546 9.83125 54.2828 7.67813 55.7249 6.25625C57.8578 4.14375 61.514 3.96094 63.3828 4.02188ZM33.3406 14.0359C35.2296 13.975 38.8656 14.1578 40.9781 16.2703C42.4203 17.7125 42.9484 19.8656 43.1312 21.6734L40.0437 18.5859C39.4546 17.9969 38.4796 17.9969 37.8906 18.5859C37.3015 19.175 37.3015 20.15 37.8906 20.7391L40.9781 23.8266C39.15 23.6438 36.9968 23.1156 35.5546 21.6734C33.4624 19.5609 33.2796 15.925 33.3406 14.0359ZM33.3406 34.6328C35.2296 34.5719 38.8656 34.7547 40.9781 36.8672C42.4203 38.3094 42.9484 40.4625 43.1312 42.2703L40.0437 39.1828C39.4546 38.5938 38.4796 38.5938 37.8906 39.1828C37.3015 39.7719 37.3015 40.7469 37.8906 41.3359L40.9781 44.4234C39.15 44.2406 36.9968 43.7125 35.5546 42.2703C33.4624 40.1578 33.2796 36.5219 33.3406 34.6328ZM35.1281 59.2313C36.7937 57.7484 39.414 56.1844 43.2328 55.8594V58.6422C40.8562 58.4797 37.6671 58.8453 35.1281 59.2313ZM46.2796 5.13906C46.2796 3.98125 47.214 3.04688 48.3718 3.04688C49.5296 3.04688 50.464 3.98125 50.464 5.13906V13.5484V13.5688V34.125V34.1453V62.1969C48.9609 62.6641 47.5796 63.2125 46.2796 63.8422V5.13906ZM45.3046 67.7625C45.3656 67.7422 45.4062 67.7016 45.4671 67.6813C48.5343 65.8734 52.3734 64.4313 57.0249 64.0047C56.2531 65.7109 56.0703 67.5188 56.8828 69.3469C57.1671 69.9766 57.4921 70.5047 57.8578 70.9922C52.5765 70.9922 45.1625 71.4188 38.5609 73.4094C40.1656 71.5813 42.4 69.5094 45.3046 67.7625Z" fill="url(#paint0_linear_211_51577)"/>
<path d="M64.2156 68.2093C65.0484 68.2093 65.739 67.5187 65.739 66.6859C65.739 65.853 65.0484 65.1624 64.2156 65.1624C63.3828 65.1624 62.6921 65.853 62.6921 66.6859C62.6921 67.5187 63.3828 68.2093 64.2156 68.2093Z" fill="url(#paint1_linear_211_51577)"/>
<path d="M11.8697 110.866C9.33062 110.866 7.27905 112.917 7.27905 115.456C7.27905 117.975 9.33062 120.006 11.8697 120.006C14.3884 120.006 16.4197 117.955 16.4197 115.456C16.4197 112.937 14.3681 110.866 11.8697 110.866ZM11.8697 116.959C11.0166 116.959 10.3259 116.289 10.3259 115.456C10.3259 114.603 10.9962 113.912 11.8697 113.912C12.7025 113.912 13.3728 114.603 13.3728 115.456C13.3728 116.289 12.7025 116.959 11.8697 116.959Z" fill="url(#paint2_linear_211_51577)"/>
<path d="M6.99548 126.181C7.83685 126.181 8.51892 125.499 8.51892 124.658C8.51892 123.816 7.83685 123.134 6.99548 123.134C6.15411 123.134 5.47205 123.816 5.47205 124.658C5.47205 125.499 6.15411 126.181 6.99548 126.181Z" fill="url(#paint3_linear_211_51577)"/>
<path d="M13.962 125.409C13.1292 125.409 12.4386 126.1 12.4386 126.933C12.4386 127.766 13.1292 128.456 13.962 128.456C14.7948 128.456 15.5058 127.766 15.5058 126.933C15.5058 126.1 14.8152 125.409 13.962 125.409Z" fill="url(#paint4_linear_211_51577)"/>
<path d="M18.4316 118.97C17.5988 118.97 16.8878 119.661 16.8878 120.494C16.8878 121.326 17.5784 122.017 18.4316 122.017C19.2847 122.017 19.955 121.326 19.955 120.494C19.955 119.661 19.2644 118.97 18.4316 118.97Z" fill="url(#paint5_linear_211_51577)"/>
<path d="M23.4894 112.389C23.4894 111.556 22.7988 110.866 21.9659 110.866C21.1331 110.866 20.4425 111.556 20.4425 112.389C20.4425 113.222 21.1331 113.933 21.9659 113.933C22.7988 113.933 23.4894 113.222 23.4894 112.389Z" fill="url(#paint6_linear_211_51577)"/>
<path d="M29.968 115.436C29.968 114.603 29.2774 113.892 28.4446 113.892C27.6118 113.892 26.9211 114.583 26.9211 115.436C26.9211 116.289 27.6118 116.959 28.4446 116.959C29.2774 116.959 29.968 116.289 29.968 115.436Z" fill="url(#paint7_linear_211_51577)"/>
<path d="M34.3563 113.141C35.1891 113.141 35.8797 112.45 35.8797 111.617C35.8797 110.784 35.1891 110.073 34.3563 110.073C33.5234 110.073 32.8125 110.764 32.8125 111.617C32.8125 112.47 33.5234 113.141 34.3563 113.141Z" fill="url(#paint8_linear_211_51577)"/>
<path d="M34.3756 118.442C33.5428 118.442 32.8522 119.133 32.8522 119.986C32.8522 120.839 33.5428 121.51 34.3756 121.51C35.2084 121.51 35.899 120.819 35.899 119.986C35.899 119.153 35.2084 118.442 34.3756 118.442Z" fill="url(#paint9_linear_211_51577)"/>
<path d="M39.8212 124.15C38.9884 124.15 38.2775 124.841 38.2775 125.673C38.2775 126.506 38.9681 127.217 39.8212 127.217C40.6743 127.217 41.3447 126.527 41.3447 125.673C41.3447 124.82 40.654 124.15 39.8212 124.15Z" fill="url(#paint10_linear_211_51577)"/>
<path d="M49.6521 123.398C48.8193 123.398 48.1084 124.089 48.1084 124.922C48.1084 125.755 48.799 126.445 49.6521 126.445C50.5053 126.445 51.1756 125.755 51.1756 124.922C51.1756 124.089 50.485 123.398 49.6521 123.398Z" fill="url(#paint11_linear_211_51577)"/>
<path d="M53.125 115.923C52.2922 115.923 51.6016 116.614 51.6016 117.447C51.6016 118.28 52.2922 118.97 53.125 118.97C53.9578 118.97 54.6688 118.28 54.6688 117.447C54.6688 116.614 53.9781 115.923 53.125 115.923Z" fill="url(#paint12_linear_211_51577)"/>
<path d="M57.5525 128.314C58.3939 128.314 59.0759 127.632 59.0759 126.791C59.0759 125.949 58.3939 125.267 57.5525 125.267C56.7111 125.267 56.0291 125.949 56.0291 126.791C56.0291 127.632 56.7111 128.314 57.5525 128.314Z" fill="url(#paint13_linear_211_51577)"/>
<path d="M59.5024 122.017C60.3438 122.017 61.0259 121.335 61.0259 120.494C61.0259 119.652 60.3438 118.97 59.5024 118.97C58.6611 118.97 57.979 119.652 57.979 120.494C57.979 121.335 58.6611 122.017 59.5024 122.017Z" fill="url(#paint14_linear_211_51577)"/>
<path d="M77.2362 119.702C78.0776 119.702 78.7596 119.02 78.7596 118.178C78.7596 117.337 78.0776 116.655 77.2362 116.655C76.3948 116.655 75.7128 117.337 75.7128 118.178C75.7128 119.02 76.3948 119.702 77.2362 119.702Z" fill="url(#paint15_linear_211_51577)"/>
<path d="M81.2774 125.247C80.4446 125.247 79.7336 125.938 79.7336 126.791C79.7336 127.644 80.4243 128.314 81.2774 128.314C82.1305 128.314 82.8008 127.623 82.8008 126.791C82.8008 125.958 82.1102 125.247 81.2774 125.247Z" fill="url(#paint16_linear_211_51577)"/>
<path d="M83.1674 112.876C82.3345 112.876 81.6439 113.567 81.6439 114.4C81.6439 115.233 82.3345 115.923 83.1674 115.923C84.0002 115.923 84.7111 115.233 84.7111 114.4C84.7111 113.567 84.0002 112.876 83.1674 112.876Z" fill="url(#paint17_linear_211_51577)"/>
<path d="M87.5337 121.936C86.7009 121.936 85.99 122.627 85.99 123.459C85.99 124.292 86.6806 125.003 87.5337 125.003C88.3869 125.003 89.0572 124.313 89.0572 123.459C89.0572 122.606 88.3869 121.936 87.5337 121.936Z" fill="url(#paint18_linear_211_51577)"/>
<path d="M97.0409 125.206C96.2081 125.206 95.5175 125.897 95.5175 126.75C95.5175 127.603 96.2081 128.273 97.0409 128.273C97.8737 128.273 98.5643 127.583 98.5643 126.75C98.5643 125.917 97.894 125.206 97.0409 125.206Z" fill="url(#paint19_linear_211_51577)"/>
<path d="M104.313 119.133C103.48 119.133 102.79 119.823 102.79 120.656C102.79 121.489 103.48 122.2 104.313 122.2C105.146 122.2 105.836 121.509 105.836 120.656C105.836 119.803 105.146 119.133 104.313 119.133Z" fill="url(#paint20_linear_211_51577)"/>
<path d="M111.888 115.436C112.73 115.436 113.412 114.754 113.412 113.912C113.412 113.071 112.73 112.389 111.888 112.389C111.047 112.389 110.365 113.071 110.365 113.912C110.365 114.754 111.047 115.436 111.888 115.436Z" fill="url(#paint21_linear_211_51577)"/>
<path d="M120.238 113.648C121.07 113.648 121.781 112.958 121.781 112.105C121.781 111.251 121.091 110.581 120.238 110.581C119.385 110.581 118.714 111.272 118.714 112.105C118.714 112.937 119.385 113.648 120.238 113.648Z" fill="url(#paint22_linear_211_51577)"/>
<path d="M127.002 118.849C127.843 118.849 128.525 118.166 128.525 117.325C128.525 116.484 127.843 115.802 127.002 115.802C126.16 115.802 125.478 116.484 125.478 117.325C125.478 118.166 126.16 118.849 127.002 118.849Z" fill="url(#paint23_linear_211_51577)"/>
<path d="M108.558 124.048C107.726 124.048 107.015 124.739 107.015 125.572C107.015 126.405 107.705 127.116 108.558 127.116C109.412 127.116 110.082 126.425 110.082 125.572C110.082 124.719 109.412 124.048 108.558 124.048Z" fill="url(#paint24_linear_211_51577)"/>
<path d="M104.637 112.389C104.637 111.556 103.946 110.845 103.113 110.845C102.281 110.845 101.57 111.536 101.57 112.389C101.57 113.242 102.26 113.912 103.113 113.912C103.966 113.912 104.637 113.242 104.637 112.389Z" fill="url(#paint25_linear_211_51577)"/>
<path d="M26.5368 119.844C23.7337 119.844 21.4384 122.139 21.4384 124.942C21.4384 127.725 23.7337 130 26.5368 130C29.3196 130 31.5946 127.725 31.5946 124.942C31.5946 122.139 29.3196 119.844 26.5368 119.844ZM26.5368 126.953C25.3993 126.953 24.4852 126.059 24.4852 124.942C24.4852 123.784 25.379 122.891 26.5368 122.891C27.654 122.891 28.5477 123.805 28.5477 124.942C28.5477 126.059 27.654 126.953 26.5368 126.953Z" fill="url(#paint26_linear_211_51577)"/>
<path d="M98.5643 115.964C98.5643 113.161 96.2893 110.866 93.5065 110.866C90.7034 110.866 88.4081 113.161 88.4081 115.964C88.4081 118.747 90.7034 121.022 93.5065 121.022C96.2893 121.022 98.5643 118.767 98.5643 115.964ZM93.5065 117.975C92.369 117.975 91.455 117.081 91.455 115.964C91.455 114.806 92.3487 113.912 93.5065 113.912C94.6237 113.912 95.5175 114.826 95.5175 115.964C95.5175 117.081 94.6237 117.975 93.5065 117.975Z" fill="url(#paint27_linear_211_51577)"/>
<path d="M43.3144 112.876C40.7753 112.876 38.7238 114.928 38.7238 117.467C38.7238 119.986 40.7753 122.017 43.3144 122.017C45.8331 122.017 47.8644 119.966 47.8644 117.467C47.8644 114.928 45.8128 112.876 43.3144 112.876ZM43.3144 118.97C42.4613 118.97 41.7706 118.3 41.7706 117.467C41.7706 116.614 42.4409 115.923 43.3144 115.923C44.1472 115.923 44.8175 116.614 44.8175 117.467C44.8175 118.3 44.1472 118.97 43.3144 118.97Z" fill="url(#paint28_linear_211_51577)"/>
<path d="M118.978 117.528C116.317 117.528 114.164 119.681 114.164 122.342C114.164 124.983 116.317 127.116 118.978 127.116C121.618 127.116 123.751 124.962 123.751 122.342C123.751 119.702 121.618 117.528 118.978 117.528ZM118.978 124.069C118.003 124.069 117.211 123.297 117.211 122.342C117.211 121.347 117.982 120.575 118.978 120.575C119.932 120.575 120.704 121.367 120.704 122.342C120.704 123.297 119.932 124.069 118.978 124.069Z" fill="url(#paint29_linear_211_51577)"/>
<path d="M69.7822 119.844C67.2431 119.844 65.1915 121.895 65.1915 124.434C65.1915 126.953 67.2431 128.984 69.7822 128.984C72.3009 128.984 74.3322 126.933 74.3322 124.434C74.3322 121.895 72.2806 119.844 69.7822 119.844ZM69.7822 125.938C68.929 125.938 68.2384 125.267 68.2384 124.434C68.2384 123.581 68.9087 122.891 69.7822 122.891C70.615 122.891 71.2853 123.581 71.2853 124.434C71.2853 125.267 70.615 125.938 69.7822 125.938Z" fill="url(#paint30_linear_211_51577)"/>
<path d="M60.5597 111.008C59.7269 111.008 59.0363 111.698 59.0363 112.531C59.0363 113.364 59.7269 114.075 60.5597 114.075C61.3925 114.075 62.0831 113.384 62.0831 112.531C62.0831 111.678 61.4128 111.008 60.5597 111.008Z" fill="url(#paint31_linear_211_51577)"/>
<path d="M50.8499 112.531C51.6827 112.531 52.3936 111.841 52.3936 111.008C52.3936 110.175 51.703 109.484 50.8499 109.484C49.9967 109.484 49.3264 110.175 49.3264 111.008C49.3264 111.841 50.017 112.531 50.8499 112.531Z" fill="url(#paint32_linear_211_51577)"/>
<path d="M67.8715 117.467C68.7043 117.467 69.3949 116.776 69.3949 115.923C69.3949 115.07 68.7043 114.4 67.8715 114.4C67.0386 114.4 66.348 115.091 66.348 115.923C66.348 116.756 67.0183 117.467 67.8715 117.467Z" fill="url(#paint33_linear_211_51577)"/>
<path d="M73.9652 109.83C73.1324 109.83 72.4418 110.52 72.4418 111.353C72.4418 112.186 73.1324 112.897 73.9652 112.897C74.798 112.897 75.4886 112.206 75.4886 111.353C75.4886 110.5 74.798 109.83 73.9652 109.83Z" fill="url(#paint34_linear_211_51577)"/>
<defs>
<linearGradient id="paint0_linear_211_51577" x1="67.1304" y1="0" x2="67.1304" y2="106.681" gradientUnits="userSpaceOnUse">
<stop stop-color="#B1D5A5"/>
<stop offset="1" stop-color="#8DBFB9"/>
</linearGradient>
<linearGradient id="paint1_linear_211_51577" x1="64.2156" y1="65.1624" x2="64.2156" y2="68.2093" gradientUnits="userSpaceOnUse">
<stop stop-color="#B1D5A5"/>
<stop offset="1" stop-color="#8DBFB9"/>
</linearGradient>
<linearGradient id="paint2_linear_211_51577" x1="11.8494" y1="110.866" x2="11.8494" y2="120.006" gradientUnits="userSpaceOnUse">
<stop stop-color="#B1D5A5"/>
<stop offset="1" stop-color="#8DBFB9"/>
</linearGradient>
<linearGradient id="paint3_linear_211_51577" x1="6.99548" y1="123.134" x2="6.99548" y2="126.181" gradientUnits="userSpaceOnUse">
<stop stop-color="#B1D5A5"/>
<stop offset="1" stop-color="#8DBFB9"/>
</linearGradient>
<linearGradient id="paint4_linear_211_51577" x1="13.9722" y1="125.409" x2="13.9722" y2="128.456" gradientUnits="userSpaceOnUse">
<stop stop-color="#B1D5A5"/>
<stop offset="1" stop-color="#8DBFB9"/>
</linearGradient>
<linearGradient id="paint5_linear_211_51577" x1="18.4214" y1="118.97" x2="18.4214" y2="122.017" gradientUnits="userSpaceOnUse">
<stop stop-color="#B1D5A5"/>
<stop offset="1" stop-color="#8DBFB9"/>
</linearGradient>
<linearGradient id="paint6_linear_211_51577" x1="21.9659" y1="110.866" x2="21.9659" y2="113.933" gradientUnits="userSpaceOnUse">
<stop stop-color="#B1D5A5"/>
<stop offset="1" stop-color="#8DBFB9"/>
</linearGradient>
<linearGradient id="paint7_linear_211_51577" x1="28.4446" y1="113.892" x2="28.4446" y2="116.959" gradientUnits="userSpaceOnUse">
<stop stop-color="#B1D5A5"/>
<stop offset="1" stop-color="#8DBFB9"/>
</linearGradient>
<linearGradient id="paint8_linear_211_51577" x1="34.3461" y1="110.073" x2="34.3461" y2="113.141" gradientUnits="userSpaceOnUse">
<stop stop-color="#B1D5A5"/>
<stop offset="1" stop-color="#8DBFB9"/>
</linearGradient>
<linearGradient id="paint9_linear_211_51577" x1="34.3756" y1="118.442" x2="34.3756" y2="121.51" gradientUnits="userSpaceOnUse">
<stop stop-color="#B1D5A5"/>
<stop offset="1" stop-color="#8DBFB9"/>
</linearGradient>
<linearGradient id="paint10_linear_211_51577" x1="39.8111" y1="124.15" x2="39.8111" y2="127.217" gradientUnits="userSpaceOnUse">
<stop stop-color="#B1D5A5"/>
<stop offset="1" stop-color="#8DBFB9"/>
</linearGradient>
<linearGradient id="paint11_linear_211_51577" x1="49.642" y1="123.398" x2="49.642" y2="126.445" gradientUnits="userSpaceOnUse">
<stop stop-color="#B1D5A5"/>
<stop offset="1" stop-color="#8DBFB9"/>
</linearGradient>
<linearGradient id="paint12_linear_211_51577" x1="53.1352" y1="115.923" x2="53.1352" y2="118.97" gradientUnits="userSpaceOnUse">
<stop stop-color="#B1D5A5"/>
<stop offset="1" stop-color="#8DBFB9"/>
</linearGradient>
<linearGradient id="paint13_linear_211_51577" x1="57.5525" y1="125.267" x2="57.5525" y2="128.314" gradientUnits="userSpaceOnUse">
<stop stop-color="#B1D5A5"/>
<stop offset="1" stop-color="#8DBFB9"/>
</linearGradient>
<linearGradient id="paint14_linear_211_51577" x1="59.5024" y1="118.97" x2="59.5024" y2="122.017" gradientUnits="userSpaceOnUse">
<stop stop-color="#B1D5A5"/>
<stop offset="1" stop-color="#8DBFB9"/>
</linearGradient>
<linearGradient id="paint15_linear_211_51577" x1="77.2362" y1="116.655" x2="77.2362" y2="119.702" gradientUnits="userSpaceOnUse">
<stop stop-color="#B1D5A5"/>
<stop offset="1" stop-color="#8DBFB9"/>
</linearGradient>
<linearGradient id="paint16_linear_211_51577" x1="81.2672" y1="125.247" x2="81.2672" y2="128.314" gradientUnits="userSpaceOnUse">
<stop stop-color="#B1D5A5"/>
<stop offset="1" stop-color="#8DBFB9"/>
</linearGradient>
<linearGradient id="paint17_linear_211_51577" x1="83.1775" y1="112.876" x2="83.1775" y2="115.923" gradientUnits="userSpaceOnUse">
<stop stop-color="#B1D5A5"/>
<stop offset="1" stop-color="#8DBFB9"/>
</linearGradient>
<linearGradient id="paint18_linear_211_51577" x1="87.5236" y1="121.936" x2="87.5236" y2="125.003" gradientUnits="userSpaceOnUse">
<stop stop-color="#B1D5A5"/>
<stop offset="1" stop-color="#8DBFB9"/>
</linearGradient>
<linearGradient id="paint19_linear_211_51577" x1="97.0409" y1="125.206" x2="97.0409" y2="128.273" gradientUnits="userSpaceOnUse">
<stop stop-color="#B1D5A5"/>
<stop offset="1" stop-color="#8DBFB9"/>
</linearGradient>
<linearGradient id="paint20_linear_211_51577" x1="104.313" y1="119.133" x2="104.313" y2="122.2" gradientUnits="userSpaceOnUse">
<stop stop-color="#B1D5A5"/>
<stop offset="1" stop-color="#8DBFB9"/>
</linearGradient>
<linearGradient id="paint21_linear_211_51577" x1="111.888" y1="112.389" x2="111.888" y2="115.436" gradientUnits="userSpaceOnUse">
<stop stop-color="#B1D5A5"/>
<stop offset="1" stop-color="#8DBFB9"/>
</linearGradient>
<linearGradient id="paint22_linear_211_51577" x1="120.248" y1="110.581" x2="120.248" y2="113.648" gradientUnits="userSpaceOnUse">
<stop stop-color="#B1D5A5"/>
<stop offset="1" stop-color="#8DBFB9"/>
</linearGradient>
<linearGradient id="paint23_linear_211_51577" x1="127.002" y1="115.802" x2="127.002" y2="118.849" gradientUnits="userSpaceOnUse">
<stop stop-color="#B1D5A5"/>
<stop offset="1" stop-color="#8DBFB9"/>
</linearGradient>
<linearGradient id="paint24_linear_211_51577" x1="108.548" y1="124.048" x2="108.548" y2="127.116" gradientUnits="userSpaceOnUse">
<stop stop-color="#B1D5A5"/>
<stop offset="1" stop-color="#8DBFB9"/>
</linearGradient>
<linearGradient id="paint25_linear_211_51577" x1="103.103" y1="110.845" x2="103.103" y2="113.912" gradientUnits="userSpaceOnUse">
<stop stop-color="#B1D5A5"/>
<stop offset="1" stop-color="#8DBFB9"/>
</linearGradient>
<linearGradient id="paint26_linear_211_51577" x1="26.5165" y1="119.844" x2="26.5165" y2="130" gradientUnits="userSpaceOnUse">
<stop stop-color="#B1D5A5"/>
<stop offset="1" stop-color="#8DBFB9"/>
</linearGradient>
<linearGradient id="paint27_linear_211_51577" x1="93.4862" y1="110.866" x2="93.4862" y2="121.022" gradientUnits="userSpaceOnUse">
<stop stop-color="#B1D5A5"/>
<stop offset="1" stop-color="#8DBFB9"/>
</linearGradient>
<linearGradient id="paint28_linear_211_51577" x1="43.2941" y1="112.876" x2="43.2941" y2="122.017" gradientUnits="userSpaceOnUse">
<stop stop-color="#B1D5A5"/>
<stop offset="1" stop-color="#8DBFB9"/>
</linearGradient>
<linearGradient id="paint29_linear_211_51577" x1="118.957" y1="117.528" x2="118.957" y2="127.116" gradientUnits="userSpaceOnUse">
<stop stop-color="#B1D5A5"/>
<stop offset="1" stop-color="#8DBFB9"/>
</linearGradient>
<linearGradient id="paint30_linear_211_51577" x1="69.7618" y1="119.844" x2="69.7618" y2="128.984" gradientUnits="userSpaceOnUse">
<stop stop-color="#B1D5A5"/>
<stop offset="1" stop-color="#8DBFB9"/>
</linearGradient>
<linearGradient id="paint31_linear_211_51577" x1="60.5597" y1="111.008" x2="60.5597" y2="114.075" gradientUnits="userSpaceOnUse">
<stop stop-color="#B1D5A5"/>
<stop offset="1" stop-color="#8DBFB9"/>
</linearGradient>
<linearGradient id="paint32_linear_211_51577" x1="50.86" y1="109.484" x2="50.86" y2="112.531" gradientUnits="userSpaceOnUse">
<stop stop-color="#B1D5A5"/>
<stop offset="1" stop-color="#8DBFB9"/>
</linearGradient>
<linearGradient id="paint33_linear_211_51577" x1="67.8715" y1="114.4" x2="67.8715" y2="117.467" gradientUnits="userSpaceOnUse">
<stop stop-color="#B1D5A5"/>
<stop offset="1" stop-color="#8DBFB9"/>
</linearGradient>
<linearGradient id="paint34_linear_211_51577" x1="73.9652" y1="109.83" x2="73.9652" y2="112.897" gradientUnits="userSpaceOnUse">
<stop stop-color="#B1D5A5"/>
<stop offset="1" stop-color="#8DBFB9"/>
</linearGradient>
</defs>
</svg>
