<svg width="126" height="121" viewBox="0 0 126 121" fill="none" xmlns="http://www.w3.org/2000/svg">
<path d="M61.4227 29.5334C62.8643 29.5334 64.0344 30.694 64.0344 32.1237C64.0344 33.5534 62.8643 34.714 61.4227 34.714H57.1058C55.6643 34.714 54.4941 33.5534 54.4941 32.1237C54.4941 30.694 55.6643 29.5334 57.1058 29.5334H61.4227ZM103.284 84.8684C104.901 84.8684 106.368 84.217 107.425 83.1681L107.535 83.0656C108.528 82.0258 109.138 80.6145 109.138 79.0609C109.138 77.5073 108.481 76.0027 107.425 74.9553C106.369 73.9078 104.901 73.2549 103.284 73.2549C101.667 73.2549 100.199 73.9063 99.143 74.9538C98.0869 76.0012 97.4286 77.4569 97.4286 79.0609C97.4286 80.6649 98.0823 82.1252 99.1369 83.1742C100.194 84.2186 101.661 84.8684 103.284 84.8684ZM111.116 86.8287C109.702 88.2309 107.905 89.2585 105.896 89.7402V106.371C106.836 105.498 107.88 104.727 109.012 104.079C111.213 102.817 113.643 102.071 116.11 101.861C118.561 101.653 121.068 101.976 123.442 102.838C124.613 103.25 125.351 104.452 125.137 105.709C124.705 108.181 123.726 110.507 122.303 112.53C121.534 113.625 120.633 114.629 119.616 115.521H121.329C122.77 115.521 123.94 116.681 123.94 118.111C123.94 119.541 122.77 120.701 121.329 120.701H4.05597C2.61444 120.701 1.44426 119.541 1.44426 118.111C1.44426 116.681 2.61444 115.521 4.05597 115.521H19.4904V100.979C18.2123 101.159 16.9218 101.195 15.6468 101.086C13.1877 100.878 10.7641 100.132 8.55632 98.8689C6.3578 97.615 4.49845 95.9039 3.07851 93.8855C1.65702 91.8625 0.67647 89.5398 0.247866 87.0658C0.0335633 85.8088 0.772058 84.607 1.94224 84.1956C4.31653 83.3332 6.8234 83.0121 9.27478 83.2201C11.7339 83.4296 14.1575 84.1758 16.3622 85.4373C16.6751 85.6162 16.982 85.8042 17.2811 86.0015C16.7553 85.2385 16.2928 84.4388 15.8996 83.6054C14.8436 81.3683 14.2747 78.9172 14.2747 76.4171C14.2747 73.917 14.8436 71.4659 15.8981 69.2273C16.9496 67.0024 18.4913 65.0008 20.4401 63.3907C21.4314 62.5742 22.8545 62.6109 23.798 63.4198C25.7314 65.0238 27.2608 67.0162 28.3061 69.2273C29.3606 71.4659 29.9295 73.9201 29.9295 76.4171C29.9295 78.9141 29.3606 81.3683 28.3045 83.6054C27.4334 85.4541 26.2185 87.1529 24.7138 88.5964V101.583C25.6543 100.71 26.698 99.9377 27.8297 99.2894C30.0313 98.0279 32.4611 97.2817 34.9279 97.0722C37.3792 96.8642 39.8861 97.1869 42.2604 98.0493C43.4306 98.4606 44.1691 99.6625 43.9548 100.919C43.5215 103.404 42.5441 105.728 41.1318 107.741C39.7088 109.75 37.8464 111.463 35.6463 112.721C33.4416 113.982 31.0134 114.73 28.5558 114.938C27.2808 115.047 25.9919 115.012 24.7138 114.831V115.521H60.0799V103.75C58.8018 103.93 57.5113 103.965 56.2363 103.857C53.7772 103.647 51.3521 102.901 49.1474 101.64C46.9473 100.381 45.0864 98.6686 43.6711 96.6578C42.2496 94.6363 41.269 92.3106 40.8374 89.8365C40.6231 88.5796 41.3615 87.3777 42.5333 86.9664C44.9076 86.1039 47.4129 85.7828 49.8658 85.9908C52.3249 86.2003 54.7485 86.9465 56.9532 88.208C58.091 88.8563 59.1379 89.6285 60.0799 90.5016V88.5949C58.5751 87.1499 57.3602 85.4541 56.4891 83.6054C55.433 81.3683 54.8641 78.9172 54.8641 76.4171C54.8641 73.917 55.433 71.4659 56.4876 69.2273C57.5391 67.0024 59.0808 65.0008 61.0296 63.3907C62.0209 62.5742 63.4439 62.6109 64.3875 63.4198C66.3208 65.0238 67.8503 67.0162 68.8956 69.2273C69.9501 71.4659 70.519 73.9201 70.519 76.4171C70.519 78.9141 69.9501 81.3683 68.894 83.6054C68.0229 85.4541 66.808 87.1529 65.3033 88.5964V90.5032C66.2438 89.6316 67.2921 88.8594 68.4299 88.208C70.6346 86.9465 73.0598 86.2003 75.5189 85.9908C77.9703 85.7828 80.4771 86.1039 82.8514 86.9664C84.0216 87.3777 84.7601 88.5796 84.5458 89.8365C84.1172 92.309 83.1366 94.6348 81.7136 96.6563C80.2952 98.6731 78.4359 100.386 76.2481 101.64C74.0326 102.901 71.6075 103.647 69.1469 103.857C67.8718 103.965 66.5814 103.93 65.3033 103.75V115.521H86.9509C85.9334 114.628 85.0314 113.623 84.2621 112.528C82.8406 110.505 81.8585 108.183 81.4299 105.709C81.2156 104.452 81.9541 103.25 83.1243 102.838C85.4986 101.976 88.0039 101.653 90.4553 101.861C92.9144 102.071 95.3395 102.817 97.5442 104.079C98.682 104.728 99.7304 105.501 100.672 106.374V89.7402C98.6682 89.257 96.8751 88.2309 95.4598 86.8303C93.4478 84.8317 92.2052 82.087 92.2052 79.0609C92.2052 76.0348 93.4478 73.2809 95.4521 71.2931C97.4564 69.3053 100.227 68.0743 103.284 68.0743C106.341 68.0743 109.112 69.3068 111.116 71.2946C113.12 73.2824 114.362 76.0302 114.362 79.0609C114.362 82.0916 113.179 84.6956 111.261 86.6728L111.116 86.8287ZM20.6112 81.4218C21.009 82.2644 21.5085 83.0626 22.1021 83.7965C22.6941 83.0641 23.1952 82.2659 23.593 81.4218C24.316 79.8897 24.7061 78.1817 24.7061 76.4171C24.7061 74.6525 24.316 72.943 23.5945 71.4108C23.1967 70.5668 22.6957 69.7686 22.1021 69.0361C21.5085 69.7686 21.0074 70.5668 20.6097 71.4108C19.8881 72.943 19.4981 74.651 19.4981 76.4171C19.4981 78.1832 19.8881 79.8897 20.6112 81.4218ZM25.3074 109.687C26.2417 109.828 27.1898 109.859 28.1272 109.779C29.8509 109.634 31.5406 109.117 33.0562 108.25C34.5763 107.381 35.8699 106.19 36.855 104.791C37.3854 104.022 37.8325 103.196 38.1748 102.325C37.2405 102.182 36.2938 102.152 35.3565 102.231C33.642 102.377 31.9585 102.892 30.4414 103.76C28.9073 104.64 27.6107 105.831 26.6286 107.227C26.0937 107.987 25.6496 108.813 25.3074 109.687ZM16.0754 95.9269C17.0128 96.0064 17.961 95.9758 18.8968 95.8351C18.5545 94.959 18.109 94.1317 17.5755 93.3733C16.5888 91.9711 15.2953 90.7799 13.772 89.9083C12.2565 89.0413 10.5683 88.526 8.84617 88.3792C7.90725 88.2997 6.95908 88.3303 6.02324 88.4725C6.36551 89.3456 6.80953 90.1713 7.34297 90.9313C8.32506 92.3274 9.62321 93.5185 11.1572 94.3978C12.6697 95.2678 14.3548 95.7816 16.0754 95.9269ZM61.2007 81.4218C61.5985 82.2644 62.098 83.0626 62.6916 83.7965C63.2836 83.0641 63.7847 82.2659 64.1824 81.4218C64.9055 79.8897 65.2956 78.1817 65.2956 76.4171C65.2956 74.6525 64.9055 72.943 64.184 71.4108C63.7862 70.5668 63.2851 69.7686 62.6916 69.0361C62.098 69.7686 61.5969 70.5668 61.1992 71.4108C60.4776 72.943 60.0876 74.651 60.0876 76.4171C60.0876 78.1832 60.4776 79.8897 61.2007 81.4218ZM65.8969 98.6043C66.8327 98.7465 67.7809 98.7771 68.7183 98.6976C70.4388 98.5508 72.1255 98.037 73.6395 97.1731C75.1704 96.2893 76.4686 95.0966 77.4492 93.702C77.9841 92.9421 78.4282 92.1164 78.7704 91.2433C77.8346 91.1011 76.8864 91.0705 75.9475 91.15C74.2238 91.2968 72.5356 91.8121 71.0201 92.6791C69.4984 93.5491 68.2064 94.7403 67.2197 96.1425C66.6847 96.9025 66.2391 97.7297 65.8969 98.6043ZM56.6649 98.6976C57.6038 98.7771 58.5504 98.7465 59.4863 98.6043C59.144 97.7297 58.7 96.9055 58.1666 96.1456C57.1845 94.748 55.8863 93.5583 54.3523 92.6791C52.8414 91.8105 51.1562 91.2968 49.4372 91.15C48.4983 91.0705 47.5501 91.1011 46.6143 91.2417C46.9565 92.1179 47.4021 92.9436 47.9355 93.7036C48.9223 95.1058 50.2158 96.2985 51.7375 97.1685C53.253 98.0355 54.9412 98.5508 56.6649 98.6976ZM106.489 114.476C107.425 114.617 108.373 114.648 109.311 114.568C111.025 114.423 112.71 113.908 114.227 113.039L114.363 112.967C115.831 112.103 117.08 110.94 118.039 109.576C118.574 108.816 119.019 107.988 119.361 107.114C118.426 106.972 117.477 106.941 116.539 107.021C114.824 107.166 113.141 107.681 111.623 108.55C110.089 109.429 108.791 110.62 107.809 112.016C107.276 112.776 106.832 113.602 106.489 114.476ZM97.2575 114.568C98.1949 114.648 99.143 114.617 100.077 114.476C99.7351 113.602 99.291 112.776 98.7576 112.016C97.7755 110.62 96.4773 109.429 94.9433 108.55C93.4324 107.681 91.7457 107.167 90.0267 107.021C89.0893 106.941 88.1411 106.972 87.2053 107.114C87.5476 107.988 87.9931 108.814 88.5266 109.574C89.5118 110.976 90.8053 112.167 92.3285 113.039C93.8456 113.908 95.5338 114.423 97.2575 114.568ZM85.9303 14.2959C90.8901 14.2959 95.3873 16.2929 98.6404 19.5193C101.893 22.7457 103.905 27.2045 103.905 32.1237C103.905 37.0428 101.892 41.4894 98.6389 44.7204L98.6235 44.7341C95.3673 47.959 90.8777 49.953 85.9303 49.953C80.9828 49.953 76.4809 47.9544 73.2279 44.7296C69.9671 41.494 67.952 37.0382 67.952 32.1237C67.952 27.2091 69.9671 22.7442 73.2186 19.5193C76.4717 16.2929 80.9705 14.2959 85.9303 14.2959ZM94.9495 23.18C92.643 20.8924 89.4532 19.4765 85.9303 19.4765C82.4074 19.4765 79.216 20.8924 76.9095 23.18C74.6046 25.466 73.1754 28.6297 73.1754 32.1237C73.1754 35.6177 74.6031 38.7859 76.9049 41.0735C79.2114 43.3564 82.4043 44.7724 85.9303 44.7724C89.4562 44.7724 92.6492 43.3595 94.9479 41.0781C97.2575 38.789 98.682 35.6238 98.682 32.1237C98.682 28.6236 97.2544 25.466 94.9495 23.18ZM108.148 50.5096C109.167 51.5142 109.171 53.1503 108.158 54.161C107.145 55.1718 105.495 55.1748 104.476 54.1702L101.422 51.1426C100.403 50.138 100.4 48.5019 101.412 47.4911C102.425 46.4804 104.075 46.4773 105.094 47.4819L108.148 50.5096ZM70.445 13.1169C71.4579 14.1277 71.4548 15.7638 70.4358 16.7684C69.4167 17.7731 67.767 17.77 66.7541 16.7593L63.7014 13.7301C62.6885 12.7194 62.6916 11.0832 63.7107 10.0786C64.7298 9.07401 66.3794 9.07707 67.3923 10.0878L70.445 13.1169ZM104.467 10.0786C105.486 9.06789 107.139 9.06789 108.158 10.0786C109.177 11.0894 109.177 12.7286 108.158 13.7393L105.103 16.7684C104.084 17.7792 102.432 17.7792 101.412 16.7684C100.393 15.7577 100.393 14.1185 101.412 13.1078L104.467 10.0786ZM66.7541 47.4819C67.7732 46.4712 69.4259 46.4712 70.445 47.4819C71.4641 48.4927 71.4641 50.1319 70.445 51.1426L67.3923 54.1702C66.3733 55.181 64.7205 55.181 63.7014 54.1702C62.6823 53.1595 62.6823 51.5203 63.7014 50.5096L66.7541 47.4819ZM88.542 60.7117C88.542 62.1414 87.3718 63.302 85.9303 63.302C84.4887 63.302 83.3186 62.1414 83.3186 60.7117V56.4302C83.3186 55.0005 84.4887 53.8399 85.9303 53.8399C87.3718 53.8399 88.542 55.0005 88.542 56.4302V60.7117ZM88.542 7.81709C88.542 9.2468 87.3718 10.4074 85.9303 10.4074C84.4887 10.4074 83.3186 9.2468 83.3186 7.81709V3.53561C83.3186 2.1059 84.4887 0.945312 85.9303 0.945312C87.3718 0.945312 88.542 2.1059 88.542 3.53561V7.81709ZM114.755 29.5334C116.196 29.5334 117.366 30.694 117.366 32.1237C117.366 33.5534 116.196 34.714 114.755 34.714H110.436C108.995 34.714 107.825 33.5534 107.825 32.1237C107.825 30.694 108.995 29.5334 110.436 29.5334H114.755Z" fill="url(#paint0_linear_211_51669)"/>
<defs>
<linearGradient id="paint0_linear_211_51669" x1="62.6923" y1="0.945312" x2="62.6923" y2="120.701" gradientUnits="userSpaceOnUse">
<stop offset="0.505" stop-color="#A7CEAB"/>
<stop offset="1" stop-color="#8DBFB9"/>
</linearGradient>
</defs>
</svg>
