<svg width="126" height="120" viewBox="0 0 126 120" fill="none" xmlns="http://www.w3.org/2000/svg">
<path d="M61.4227 28.5881C62.8643 28.5881 64.0344 29.7486 64.0344 31.1783C64.0344 32.6081 62.8643 33.7686 61.4227 33.7686H57.1058C55.6643 33.7686 54.4941 32.6081 54.4941 31.1783C54.4941 29.7486 55.6643 28.5881 57.1058 28.5881H61.4227ZM103.284 83.9231C104.901 83.9231 106.368 83.2717 107.425 82.2228L107.535 82.1203C108.528 81.0805 109.138 79.6692 109.138 78.1156C109.138 76.562 108.481 75.0574 107.425 74.01C106.369 72.9625 104.901 72.3096 103.284 72.3096C101.667 72.3096 100.199 72.961 99.143 74.0084C98.0869 75.0559 97.4286 76.5116 97.4286 78.1156C97.4286 79.7196 98.0823 81.1799 99.1369 82.2289C100.194 83.2733 101.661 83.9231 103.284 83.9231ZM111.116 85.8834C109.702 87.2856 107.905 88.3132 105.896 88.7948V105.425C106.836 104.552 107.88 103.782 109.012 103.133C111.213 101.872 113.643 101.125 116.11 100.916C118.561 100.708 121.068 101.031 123.442 101.893C124.613 102.304 125.351 103.506 125.137 104.763C124.705 107.236 123.726 109.562 122.303 111.585C121.534 112.679 120.633 113.684 119.616 114.575H121.329C122.77 114.575 123.94 115.736 123.94 117.166C123.94 118.595 122.77 119.756 121.329 119.756H4.05597C2.61444 119.756 1.44426 118.595 1.44426 117.166C1.44426 115.736 2.61444 114.575 4.05597 114.575H19.4904V100.034C18.2123 100.214 16.9218 100.249 15.6468 100.141C13.1877 99.9328 10.7641 99.1866 8.55632 97.9236C6.3578 96.6697 4.49845 94.9586 3.07851 92.9402C1.65702 90.9172 0.67647 88.5945 0.247866 86.1204C0.0335633 84.8635 0.772058 83.6616 1.94224 83.2503C4.31653 82.3879 6.8234 82.0668 9.27478 82.2747C11.7339 82.4842 14.1575 83.2304 16.3622 84.4919C16.6751 84.6709 16.982 84.8589 17.2811 85.0562C16.7553 84.2932 16.2928 83.4934 15.8996 82.6601C14.8436 80.423 14.2747 77.9719 14.2747 75.4718C14.2747 72.9717 14.8436 70.5206 15.8981 68.282C16.9496 66.0571 18.4913 64.0555 20.4401 62.4454C21.4314 61.6288 22.8545 61.6655 23.798 62.4744C25.7314 64.0785 27.2608 66.0709 28.3061 68.282C29.3606 70.5206 29.9295 72.9748 29.9295 75.4718C29.9295 77.9688 29.3606 80.423 28.3045 82.6601C27.4334 84.5088 26.2185 86.2076 24.7138 87.6511V100.638C25.6543 99.7646 26.698 98.9924 27.8297 98.3441C30.0313 97.0826 32.4611 96.3364 34.9279 96.1269C37.3792 95.9189 39.8861 96.2415 42.2604 97.104C43.4306 97.5153 44.1691 98.7172 43.9548 99.9741C43.5215 102.459 42.5441 104.783 41.1318 106.795C39.7088 108.805 37.8464 110.517 35.6463 111.776C33.4416 113.037 31.0134 113.785 28.5558 113.993C27.2808 114.101 25.9919 114.066 24.7138 113.886V114.575H60.0799V102.804C58.8018 102.985 57.5113 103.02 56.2363 102.911C53.7772 102.702 51.3521 101.956 49.1474 100.694C46.9473 99.4358 45.0864 97.7233 43.6711 95.7125C42.2496 93.691 41.269 91.3652 40.8374 88.8912C40.6231 87.6342 41.3615 86.4324 42.5333 86.021C44.9076 85.1586 47.4129 84.8375 49.8658 85.0455C52.3249 85.255 54.7485 86.0012 56.9532 87.2627C58.091 87.911 59.1379 88.6832 60.0799 89.5563V87.6495C58.5751 86.2045 57.3602 84.5088 56.4891 82.6601C55.433 80.423 54.8641 77.9719 54.8641 75.4718C54.8641 72.9717 55.433 70.5206 56.4876 68.282C57.5391 66.0571 59.0808 64.0555 61.0296 62.4454C62.0209 61.6288 63.4439 61.6655 64.3875 62.4744C66.3208 64.0785 67.8503 66.0709 68.8956 68.282C69.9501 70.5206 70.519 72.9748 70.519 75.4718C70.519 77.9688 69.9501 80.423 68.894 82.6601C68.0229 84.5088 66.808 86.2076 65.3033 87.6511V89.5579C66.2438 88.6863 67.2921 87.9141 68.4299 87.2627C70.6346 86.0012 73.0598 85.255 75.5189 85.0455C77.9703 84.8375 80.4771 85.1586 82.8514 86.021C84.0216 86.4324 84.7601 87.6342 84.5458 88.8912C84.1172 91.3637 83.1366 93.6895 81.7136 95.711C80.2952 97.7278 78.4359 99.4404 76.2481 100.694C74.0326 101.956 71.6075 102.702 69.1469 102.911C67.8718 103.02 66.5814 102.985 65.3033 102.804V114.575H86.9509C85.9334 113.682 85.0314 112.678 84.2621 111.583C82.8406 109.56 81.8585 107.237 81.4299 104.763C81.2156 103.506 81.9541 102.304 83.1243 101.893C85.4986 101.031 88.0039 100.708 90.4553 100.916C92.9144 101.125 95.3395 101.872 97.5442 103.133C98.682 103.783 99.7304 104.555 100.672 105.428V88.7948C98.6682 88.3116 96.8751 87.2856 95.4598 85.885C93.4478 83.8864 92.2052 81.1417 92.2052 78.1156C92.2052 75.0895 93.4478 72.3356 95.4521 70.3478C97.4564 68.3599 100.227 67.129 103.284 67.129C106.341 67.129 109.112 68.3615 111.116 70.3493C113.12 72.3371 114.362 75.0849 114.362 78.1156C114.362 81.1463 113.179 83.7503 111.261 85.7275L111.116 85.8834ZM20.6112 80.4765C21.009 81.3191 21.5085 82.1173 22.1021 82.8512C22.6941 82.1188 23.1952 81.3206 23.593 80.4765C24.316 78.9444 24.7061 77.2364 24.7061 75.4718C24.7061 73.7072 24.316 71.9977 23.5945 70.4655C23.1967 69.6214 22.6957 68.8233 22.1021 68.0908C21.5085 68.8233 21.0074 69.6214 20.6097 70.4655C19.8881 71.9977 19.4981 73.7057 19.4981 75.4718C19.4981 77.2379 19.8881 78.9444 20.6112 80.4765ZM25.3074 108.742C26.2417 108.883 27.1898 108.913 28.1272 108.834C29.8509 108.688 31.5406 108.172 33.0562 107.305C34.5763 106.436 35.8699 105.245 36.855 103.846C37.3854 103.077 37.8325 102.251 38.1748 101.379C37.2405 101.237 36.2938 101.207 35.3565 101.286C33.642 101.431 31.9585 101.947 30.4414 102.815C28.9073 103.694 27.6107 104.886 26.6286 106.282C26.0937 107.042 25.6496 107.867 25.3074 108.742ZM16.0754 94.9816C17.0128 95.0611 17.961 95.0305 18.8968 94.8898C18.5545 94.0136 18.109 93.1864 17.5755 92.428C16.5888 91.0258 15.2953 89.8346 13.772 88.963C12.2565 88.096 10.5683 87.5807 8.84617 87.4339C7.90725 87.3544 6.95908 87.385 6.02324 87.5272C6.36551 88.4003 6.80953 89.226 7.34297 89.986C8.32506 91.3821 9.62321 92.5732 11.1572 93.4525C12.6697 94.3225 14.3548 94.8363 16.0754 94.9816ZM61.2007 80.4765C61.5985 81.3191 62.098 82.1173 62.6916 82.8512C63.2836 82.1188 63.7847 81.3206 64.1824 80.4765C64.9055 78.9444 65.2956 77.2364 65.2956 75.4718C65.2956 73.7072 64.9055 71.9977 64.184 70.4655C63.7862 69.6214 63.2851 68.8233 62.6916 68.0908C62.098 68.8233 61.5969 69.6214 61.1992 70.4655C60.4776 71.9977 60.0876 73.7057 60.0876 75.4718C60.0876 77.2379 60.4776 78.9444 61.2007 80.4765ZM65.8969 97.659C66.8327 97.8012 67.7809 97.8318 68.7183 97.7523C70.4388 97.6055 72.1255 97.0917 73.6395 96.2278C75.1704 95.344 76.4686 94.1513 77.4492 92.7567C77.9841 91.9968 78.4282 91.1711 78.7704 90.2979C77.8346 90.1557 76.8864 90.1251 75.9475 90.2047C74.2238 90.3515 72.5356 90.8668 71.0201 91.7338C69.4984 92.6038 68.2064 93.795 67.2197 95.1972C66.6847 95.9571 66.2391 96.7844 65.8969 97.659ZM56.6649 97.7523C57.6038 97.8318 58.5504 97.8012 59.4863 97.659C59.144 96.7844 58.7 95.9602 58.1666 95.2002C57.1845 93.8026 55.8863 92.613 54.3523 91.7338C52.8414 90.8652 51.1562 90.3515 49.4372 90.2047C48.4983 90.1251 47.5501 90.1557 46.6143 90.2964C46.9565 91.1726 47.4021 91.9983 47.9355 92.7583C48.9223 94.1604 50.2158 95.3531 51.7375 96.2232C53.253 97.0902 54.9412 97.6055 56.6649 97.7523ZM106.489 113.531C107.425 113.672 108.373 113.702 109.311 113.623C111.025 113.478 112.71 112.962 114.227 112.094L114.363 112.022C115.831 111.158 117.08 109.994 118.039 108.63C118.574 107.87 119.019 107.043 119.361 106.168C118.426 106.026 117.477 105.996 116.539 106.075C114.824 106.22 113.141 106.736 111.623 107.604C110.089 108.484 108.791 109.675 107.809 111.071C107.276 111.831 106.832 112.656 106.489 113.531ZM97.2575 113.623C98.1949 113.702 99.143 113.672 100.077 113.531C99.7351 112.656 99.291 111.831 98.7576 111.071C97.7755 109.675 96.4773 108.484 94.9433 107.604C93.4324 106.736 91.7457 106.222 90.0267 106.075C89.0893 105.996 88.1411 106.026 87.2053 106.168C87.5476 107.043 87.9931 107.869 88.5266 108.629C89.5118 110.031 90.8053 111.222 92.3285 112.094C93.8456 112.962 95.5338 113.478 97.2575 113.623ZM85.9303 13.3506C90.8901 13.3506 95.3873 15.3476 98.6404 18.574C101.893 21.8004 103.905 26.2592 103.905 31.1783C103.905 36.0975 101.892 40.5441 98.6389 43.7751L98.6235 43.7888C95.3673 47.0137 90.8777 49.0077 85.9303 49.0077C80.9828 49.0077 76.4809 47.0091 73.2279 43.7842C69.9671 40.5487 67.952 36.0929 67.952 31.1783C67.952 26.2638 69.9671 21.7988 73.2186 18.574C76.4717 15.3476 80.9705 13.3506 85.9303 13.3506ZM94.9495 22.2346C92.643 19.9471 89.4532 18.5312 85.9303 18.5312C82.4074 18.5312 79.216 19.9471 76.9095 22.2346C74.6046 24.5206 73.1754 27.6844 73.1754 31.1783C73.1754 34.6723 74.6031 37.8406 76.9049 40.1282C79.2114 42.4111 82.4043 43.8271 85.9303 43.8271C89.4562 43.8271 92.6492 42.4142 94.9479 40.1328C97.2575 37.8437 98.682 34.6785 98.682 31.1783C98.682 27.6782 97.2544 24.5206 94.9495 22.2346ZM108.148 49.5642C109.167 50.5689 109.171 52.205 108.158 53.2157C107.145 54.2265 105.495 54.2295 104.476 53.2249L101.422 50.1973C100.403 49.1927 100.4 47.5565 101.412 46.5458C102.425 45.5351 104.075 45.532 105.094 46.5366L108.148 49.5642ZM70.445 12.1716C71.4579 13.1824 71.4548 14.8185 70.4358 15.8231C69.4167 16.8277 67.767 16.8247 66.7541 15.814L63.7014 12.7848C62.6885 11.7741 62.6916 10.1379 63.7107 9.13331C64.7298 8.1287 66.3794 8.13175 67.3923 9.14249L70.445 12.1716ZM104.467 9.13331C105.486 8.12258 107.139 8.12258 108.158 9.13331C109.177 10.144 109.177 11.7832 108.158 12.794L105.103 15.8231C104.084 16.8339 102.432 16.8339 101.412 15.8231C100.393 14.8124 100.393 13.1732 101.412 12.1625L104.467 9.13331ZM66.7541 46.5366C67.7732 45.5259 69.4259 45.5259 70.445 46.5366C71.4641 47.5474 71.4641 49.1866 70.445 50.1973L67.3923 53.2249C66.3733 54.2356 64.7205 54.2356 63.7014 53.2249C62.6823 52.2142 62.6823 50.575 63.7014 49.5642L66.7541 46.5366ZM88.542 59.7664C88.542 61.1961 87.3718 62.3567 85.9303 62.3567C84.4887 62.3567 83.3186 61.1961 83.3186 59.7664V55.4849C83.3186 54.0552 84.4887 52.8946 85.9303 52.8946C87.3718 52.8946 88.542 54.0552 88.542 55.4849V59.7664ZM88.542 6.87178C88.542 8.30148 87.3718 9.46207 85.9303 9.46207C84.4887 9.46207 83.3186 8.30148 83.3186 6.87178V2.5903C83.3186 1.16059 84.4887 0 85.9303 0C87.3718 0 88.542 1.16059 88.542 2.5903V6.87178ZM114.755 28.5881C116.196 28.5881 117.366 29.7486 117.366 31.1783C117.366 32.6081 116.196 33.7686 114.755 33.7686H110.436C108.995 33.7686 107.825 32.6081 107.825 31.1783C107.825 29.7486 108.995 28.5881 110.436 28.5881H114.755Z" fill="url(#paint0_linear_211_51667)"/>
<defs>
<linearGradient id="paint0_linear_211_51667" x1="62.6923" y1="0" x2="62.6923" y2="119.756" gradientUnits="userSpaceOnUse">
<stop offset="0.505" stop-color="#A7CEAB"/>
<stop offset="1" stop-color="#8DBFB9"/>
</linearGradient>
</defs>
</svg>
