<svg width="91" height="126" viewBox="0 0 91 126" fill="none" xmlns="http://www.w3.org/2000/svg">
<g clip-path="url(#clip0_211_51830)">
<path d="M85.4536 38.6018C88.513 38.6084 90.9935 36.129 91 33.0628C91.0066 29.9965 88.5328 27.5106 85.4733 27.504C82.4139 27.4974 79.9334 29.9767 79.9269 33.043C79.9269 33.4584 79.9729 33.8739 80.065 34.2761L56.8068 52.7725L71.65 32.588C72.2026 32.7792 72.7816 32.8782 73.3672 32.8847C76.4266 32.8847 78.9071 30.412 78.9136 27.3457C78.9136 24.2794 76.4464 21.7935 73.3869 21.7869C70.3275 21.7869 67.847 24.2597 67.8405 27.3259C67.8405 28.3942 68.1431 29.436 68.7155 30.3328L51.8064 53.366L52.5433 49.6667L72.0513 17.903C72.479 18.0085 72.9198 18.0678 73.3606 18.0678C76.42 18.0678 78.9005 15.5818 78.9005 12.5156C78.9005 9.44932 76.42 6.96335 73.3606 6.96335C70.3012 6.96335 67.8207 9.44932 67.8207 12.5156C67.8273 13.7289 68.2287 14.9026 68.9656 15.8654L54.5895 39.2678L59.4056 14.8103C62.4651 14.7048 64.8534 12.1331 64.7481 9.07346C64.6429 6.00721 62.0769 3.61355 59.024 3.71905C55.9712 3.82456 53.5763 6.39626 53.6815 9.45592C53.7408 11.1242 54.5435 12.6738 55.8659 13.6827L54.9053 18.569C54.879 15.5027 52.3788 13.0365 49.326 13.0629C47.4114 13.0761 45.6415 14.085 44.648 15.7203L44.0361 10.7286C46.885 9.62077 48.2996 6.40285 47.1942 3.54761C46.0889 0.692365 42.8781 -0.725366 40.0292 0.382442C37.1804 1.49025 35.7658 4.70817 36.8711 7.56341C37.4764 9.12621 38.7528 10.3329 40.3451 10.8407L44.3125 43.7848L35.825 20.9362C38.4502 19.3668 39.3121 15.9577 37.7396 13.3267C36.1737 10.6956 32.7721 9.83178 30.1469 11.4078C29.4166 11.8496 28.7916 12.4496 28.331 13.1684C27.3704 10.2604 24.2386 8.67782 21.3371 9.63396C18.4356 10.5967 16.8565 13.7355 17.8105 16.6435C18.5606 18.925 20.6923 20.4615 23.0872 20.4549C23.3043 20.4681 23.5149 20.4681 23.732 20.4549L41.9307 54.0518L25.7256 31.6648C26.0809 30.9263 26.2717 30.1152 26.2782 29.2976C26.2782 26.2313 23.7978 23.7453 20.7384 23.7453C17.6789 23.7453 15.1985 26.2313 15.1985 29.2976C15.1985 32.3638 17.6789 34.8498 20.7384 34.8498C21.5476 34.8498 22.3503 34.6651 23.0806 34.3157L32.4761 47.2665L11.0864 31.4868C12.1522 29.3041 11.6851 26.6797 9.9218 25.0114C7.69138 22.9145 4.18454 23.0332 2.09229 25.2686C3.07585e-05 27.504 0.11846 31.012 2.35546 33.1089C3.37527 34.0651 4.72406 34.6058 6.1189 34.6058H6.28338C7.0137 34.5794 7.73743 34.4146 8.40853 34.1047L36.5224 54.8958L11.0337 44.0947C11.4482 42.2088 10.8363 40.2438 9.42834 38.9315C8.36906 37.9029 6.93474 37.3555 5.46095 37.4149C2.39494 37.4676 -0.0460252 39.9866 3.08004e-05 43.0528C0.0460868 46.1191 2.55943 48.5655 5.61886 48.5193H5.78334C6.98738 48.4798 8.15194 48.0446 9.08622 47.2797L40.2793 60.5272C40.6214 63.8638 43.2005 66.5344 46.5166 66.9828C47.6416 70.9327 46.76 71.9548 44.4243 81.7602H24.9295C22.1529 81.7602 16.3762 81.7602 16.3762 89.8445V94.9352C16.3762 96.0298 17.2579 96.9134 18.35 96.9134H21.4687L25.219 116.201C25.6137 121.793 28.9495 126 32.9893 126H57.9977C62.0374 126 65.3732 121.793 65.768 116.201L69.5182 96.9134H72.6369C73.729 96.9134 74.6107 96.0298 74.6107 94.9352V89.8445C74.6107 81.7602 68.834 81.7602 66.0574 81.7602H48.2272C50.5826 71.5723 51.2406 71.48 50.2076 66.5608C52.392 65.664 54.0171 63.7715 54.5829 61.4767L79.0189 52.2252C81.0783 54.4936 84.5785 54.6584 86.8419 52.6011C89.1052 50.5371 89.2696 47.0291 87.2169 44.7607C85.1641 42.4923 81.6573 42.3275 79.3939 44.3848C78.2294 45.4465 77.5714 46.95 77.578 48.5259V48.8227L58.899 55.852L82.0454 37.4083C83.0126 38.1798 84.2101 38.6018 85.4404 38.6084L85.4536 38.6018ZM85.4536 31.2032C86.4734 31.2032 87.3024 32.0341 87.3024 33.0562C87.3024 34.0783 86.4734 34.9091 85.4536 34.9091C84.4338 34.9091 83.6048 34.0783 83.6048 33.0562C83.6048 32.0341 84.4338 31.2032 85.4536 31.2032ZM73.3606 25.4862C74.3804 25.4862 75.2094 26.317 75.2094 27.3391C75.2094 28.3612 74.3804 29.1921 73.3606 29.1921C72.3408 29.1921 71.5118 28.3612 71.5118 27.3391C71.5118 26.317 72.3408 25.4862 73.3606 25.4862ZM73.3409 10.6692C73.3409 10.6692 73.354 10.6692 73.3606 10.6692V10.689C74.3804 10.689 75.2094 11.5199 75.2094 12.542C75.2094 13.564 74.3804 14.3949 73.3606 14.3949C72.3408 14.3949 71.5118 13.564 71.5118 12.542C71.4986 11.5199 72.3211 10.6824 73.3409 10.6758V10.6692ZM59.1688 7.41175C59.1688 7.41175 59.1819 7.41175 59.1885 7.41175V7.43153C60.2083 7.43153 61.0373 8.26239 61.0373 9.28447C61.0373 10.3066 60.2083 11.1374 59.1885 11.1374C58.1687 11.1374 57.3397 10.3066 57.3397 9.28447C57.3265 8.26239 58.149 7.42494 59.1688 7.41834V7.41175ZM42.0031 7.41175C40.9833 7.41175 40.1543 6.58089 40.1543 5.55881C40.1543 4.53672 40.9833 3.70587 42.0031 3.70587C43.0229 3.70587 43.8519 4.53672 43.8519 5.55881C43.8519 6.58089 43.0229 7.41175 42.0031 7.41175ZM23.0806 16.7951C22.0608 16.7951 21.2318 15.9709 21.2318 14.9488C21.2318 14.9224 21.2318 14.896 21.2318 14.8763V14.9488C21.2318 13.9267 22.0608 13.0959 23.0806 13.0959C24.1005 13.0959 24.9295 13.9267 24.9295 14.9488C24.9295 15.9709 24.1005 16.8017 23.0806 16.8017V16.7951ZM32.9235 14.3685C33.9433 14.3685 34.7723 15.1994 34.7723 16.2215C34.7723 17.2435 33.9433 18.0744 32.9235 18.0744C31.9037 18.0744 31.0746 17.2435 31.0746 16.2215C31.0746 15.1994 31.9037 14.3685 32.9235 14.3685ZM27.0151 18.714C27.2454 18.4766 27.456 18.2129 27.6402 17.9359C28.3047 19.9537 30.0614 21.411 32.1603 21.688V21.7605L39.9305 42.4989L27.0086 18.7074L27.0151 18.714ZM20.7384 31.2032C19.7186 31.2032 18.8896 30.3724 18.8896 29.3503C18.8896 28.3282 19.7186 27.4974 20.7384 27.4974C21.7582 27.4974 22.5872 28.3282 22.5872 29.3503C22.5872 30.3724 21.7582 31.2032 20.7384 31.2032ZM7.48084 30.3196C7.14528 30.6823 6.67815 30.8933 6.18469 30.9065C5.69781 30.9065 5.23067 30.7285 4.8688 30.4054C4.12533 29.7064 4.08585 28.5326 4.78327 27.7875C5.48069 27.0424 6.65183 27.0028 7.3953 27.7018C8.13878 28.4008 8.17825 29.5679 7.48084 30.3196ZM6.92816 44.253C6.59261 44.609 6.13205 44.8201 5.6386 44.8332C5.1583 44.8398 4.69774 44.6618 4.34903 44.3387C3.60556 43.6397 3.56608 42.4726 4.2635 41.7208C4.60563 41.3582 5.07277 41.1471 5.56622 41.134C6.03994 41.134 6.49392 41.312 6.84263 41.6351C7.58611 42.3341 7.62558 43.5012 6.92816 44.253ZM61.8598 115.707C61.8532 115.759 61.8466 115.812 61.8466 115.858C61.5966 119.676 59.6622 122.044 58.0108 122.044H33.0024C31.351 122.044 29.4166 119.683 29.1666 115.858C29.1666 115.805 29.16 115.753 29.1535 115.707L25.5742 97.6256H65.4456L61.8664 115.707H61.8598ZM70.6696 89.838V92.9504H20.3305V89.838C20.3305 86.0463 21.5213 85.71 24.936 85.71H66.064C69.4722 85.71 70.6696 86.0463 70.6696 89.838ZM49.3457 16.716C49.3457 16.716 49.3589 16.716 49.3654 16.716V16.7358C50.3853 16.7358 51.2143 17.5667 51.2143 18.5887C51.2143 19.6108 50.3853 20.4417 49.3654 20.4417C48.3456 20.4417 47.5166 19.6108 47.5166 18.5887C47.5035 17.5667 48.3259 16.7292 49.3457 16.7226V16.716ZM47.6482 23.8245V23.8442L47.4837 39.3074L45.4704 22.5122C46.0823 23.1123 46.8324 23.5607 47.6482 23.8245ZM47.5035 63.3758L47.5232 63.3363C45.5362 63.3363 43.9243 61.7207 43.9243 59.7293C43.9243 57.7379 45.5362 56.1223 47.5232 56.1223C49.5102 56.1223 51.1222 57.7379 51.1222 59.7293C51.0958 61.7207 49.4905 63.3363 47.5035 63.3758ZM51.3393 23.7321C52.7604 23.1914 53.8921 22.0836 54.4777 20.6791V20.6989L51.1945 37.3489L51.3393 23.7321ZM83.085 46.6532C83.085 46.6532 83.0982 46.6532 83.1047 46.6532L83.1245 46.6928C84.1443 46.6928 84.9733 47.5236 84.9733 48.5457C84.9733 49.5678 84.1443 50.3987 83.1245 50.3987C82.1047 50.3987 81.2757 49.5678 81.2757 48.5457C81.2559 47.5236 82.0652 46.6796 83.085 46.6598V46.6532Z" fill="url(#paint0_linear_211_51830)"/>
<path d="M47.5034 61.5823C48.5027 61.5823 49.3128 60.7704 49.3128 59.7689C49.3128 58.7674 48.5027 57.9555 47.5034 57.9555C46.5042 57.9555 45.6941 58.7674 45.6941 59.7689C45.6941 60.7704 46.5042 61.5823 47.5034 61.5823Z" fill="url(#paint1_linear_211_51830)"/>
</g>
<defs>
<linearGradient id="paint0_linear_211_51830" x1="45.4997" y1="0.00561523" x2="45.4997" y2="126" gradientUnits="userSpaceOnUse">
<stop stop-color="#B1D4A6"/>
<stop offset="1" stop-color="#8EC0B9"/>
</linearGradient>
<linearGradient id="paint1_linear_211_51830" x1="47.5034" y1="57.9555" x2="47.5034" y2="61.5823" gradientUnits="userSpaceOnUse">
<stop stop-color="#B1D4A6"/>
<stop offset="1" stop-color="#8EC0B9"/>
</linearGradient>
<clipPath id="clip0_211_51830">
<rect width="91" height="126" fill="white"/>
</clipPath>
</defs>
</svg>
