<svg width="85" height="105" viewBox="0 0 85 105" fill="none" xmlns="http://www.w3.org/2000/svg">
<g clip-path="url(#clip0_211_52105)">
<path fill-rule="evenodd" clip-rule="evenodd" d="M50.1089 38.3194C51.2625 38.3194 52.1923 37.3896 52.1923 36.236C52.1923 35.0824 51.2625 34.1526 50.1089 34.1526H44.9003C43.7467 34.1526 42.8169 35.0824 42.8169 36.236C42.8169 37.3896 43.7467 38.3194 44.9003 38.3194H50.1089Z" fill="#A4CDAD"/>
<path fill-rule="evenodd" clip-rule="evenodd" d="M38.6501 48.7357C39.8037 48.7357 40.7336 47.8059 40.7336 46.6523C40.7336 45.4987 39.8037 44.5688 38.6501 44.5688H33.4416C32.288 44.5688 31.3582 45.4987 31.3582 46.6523C31.3582 47.8059 32.288 48.7357 33.4416 48.7357H38.6501Z" fill="#A4CDAD"/>
<path fill-rule="evenodd" clip-rule="evenodd" d="M50.1089 48.7357C51.2625 48.7357 52.1923 47.8059 52.1923 46.6523C52.1923 45.4987 51.2625 44.5688 50.1089 44.5688H44.9003C43.7467 44.5688 42.8169 45.4987 42.8169 46.6523C42.8169 47.8059 43.7467 48.7357 44.9003 48.7357H50.1089Z" fill="#A4CDAD"/>
<path fill-rule="evenodd" clip-rule="evenodd" d="M61.5599 48.7357C62.7135 48.7357 63.6434 47.8059 63.6434 46.6523C63.6434 45.4987 62.7135 44.5688 61.5599 44.5688H56.3514C55.1978 44.5688 54.2679 45.4987 54.2679 46.6523C54.2679 47.8059 55.1978 48.7357 56.3514 48.7357H61.5599Z" fill="#A4CDAD"/>
<path fill-rule="evenodd" clip-rule="evenodd" d="M73.0215 48.7357C74.1751 48.7357 75.1049 47.8059 75.1049 46.6523C75.1049 45.4987 74.1751 44.5688 73.0215 44.5688H67.8129C66.6593 44.5688 65.7295 45.4987 65.7295 46.6523C65.7295 47.8059 66.6593 48.7357 67.8129 48.7357H73.0215Z" fill="#A4CDAD"/>
<path fill-rule="evenodd" clip-rule="evenodd" d="M27.1914 59.1526C28.345 59.1526 29.2748 58.2227 29.2748 57.0691C29.2748 55.9156 28.345 54.9857 27.1914 54.9857H21.9828C20.8293 54.9857 19.8994 55.9156 19.8994 57.0691C19.8994 58.2227 20.8293 59.1526 21.9828 59.1526H27.1914Z" fill="#A0CAB0"/>
<path fill-rule="evenodd" clip-rule="evenodd" d="M38.6501 59.1526C39.8037 59.1526 40.7336 58.2227 40.7336 57.0691C40.7336 55.9156 39.8037 54.9857 38.6501 54.9857H33.4416C32.288 54.9857 31.3582 55.9156 31.3582 57.0691C31.3582 58.2227 32.288 59.1526 33.4416 59.1526H38.6501Z" fill="#A0CAB0"/>
<path fill-rule="evenodd" clip-rule="evenodd" d="M50.1089 59.1526C51.2625 59.1526 52.1923 58.2227 52.1923 57.0691C52.1923 55.9156 51.2625 54.9857 50.1089 54.9857H44.9003C43.7467 54.9857 42.8169 55.9156 42.8169 57.0691C42.8169 58.2227 43.7467 59.1526 44.9003 59.1526H50.1089Z" fill="#A0CAB0"/>
<path fill-rule="evenodd" clip-rule="evenodd" d="M61.5599 59.1526C62.7135 59.1526 63.6434 58.2227 63.6434 57.0691C63.6434 55.9156 62.7135 54.9857 61.5599 54.9857H56.3514C55.1978 54.9857 54.2679 55.9156 54.2679 57.0691C54.2679 58.2227 55.1978 59.1526 56.3514 59.1526H61.5599Z" fill="#A0CAB0"/>
<path fill-rule="evenodd" clip-rule="evenodd" d="M73.0215 59.1526C74.1751 59.1526 75.1049 58.2227 75.1049 57.0691C75.1049 55.9156 74.1751 54.9857 73.0215 54.9857H67.8129C66.6593 54.9857 65.7295 55.9156 65.7295 57.0691C65.7295 58.2227 66.6593 59.1526 67.8129 59.1526H73.0215Z" fill="#A0CAB0"/>
<path fill-rule="evenodd" clip-rule="evenodd" d="M27.1914 69.5641C28.345 69.5641 29.2748 68.6342 29.2748 67.4806C29.2748 66.3271 28.345 65.3972 27.1914 65.3972H21.9828C20.8293 65.3972 19.8994 66.3271 19.8994 67.4806C19.8994 68.6342 20.8293 69.5641 21.9828 69.5641H27.1914Z" fill="#9CC8B2"/>
<path fill-rule="evenodd" clip-rule="evenodd" d="M38.6501 69.5641C39.8037 69.5641 40.7336 68.6342 40.7336 67.4806C40.7336 66.3271 39.8037 65.3972 38.6501 65.3972H33.4416C32.288 65.3972 31.3582 66.3271 31.3582 67.4806C31.3582 68.6342 32.288 69.5641 33.4416 69.5641H38.6501Z" fill="#9CC8B2"/>
<path fill-rule="evenodd" clip-rule="evenodd" d="M50.1089 69.5641C51.2625 69.5641 52.1923 68.6342 52.1923 67.4806C52.1923 66.3271 51.2625 65.3972 50.1089 65.3972H44.9003C43.7467 65.3972 42.8169 66.3271 42.8169 67.4806C42.8169 68.6342 43.7467 69.5641 44.9003 69.5641H50.1089Z" fill="#9CC8B2"/>
<path fill-rule="evenodd" clip-rule="evenodd" d="M61.5599 69.5641C62.7135 69.5641 63.6434 68.6342 63.6434 67.4806C63.6434 66.3271 62.7135 65.3972 61.5599 65.3972H56.3514C55.1978 65.3972 54.2679 66.3271 54.2679 67.4806C54.2679 68.6342 55.1978 69.5641 56.3514 69.5641H61.5599Z" fill="#9CC8B2"/>
<path fill-rule="evenodd" clip-rule="evenodd" d="M73.0215 69.5641C74.1751 69.5641 75.1049 68.6342 75.1049 67.4806C75.1049 66.3271 74.1751 65.3972 73.0215 65.3972H67.8129C66.6593 65.3972 65.7295 66.3271 65.7295 67.4806C65.7295 68.6342 66.6593 69.5641 67.8129 69.5641H73.0215Z" fill="#9CC8B2"/>
<path fill-rule="evenodd" clip-rule="evenodd" d="M27.1914 79.9813C28.345 79.9813 29.2748 79.0515 29.2748 77.8979C29.2748 76.7443 28.345 75.8145 27.1914 75.8145H21.9828C20.8293 75.8145 19.8994 76.7443 19.8994 77.8979C19.8994 79.0515 20.8293 79.9813 21.9828 79.9813H27.1914Z" fill="#98C5B4"/>
<path fill-rule="evenodd" clip-rule="evenodd" d="M38.6501 79.9813C39.8037 79.9813 40.7336 79.0515 40.7336 77.8979C40.7336 76.7443 39.8037 75.8145 38.6501 75.8145H33.4416C32.288 75.8145 31.3582 76.7443 31.3582 77.8979C31.3582 79.0515 32.288 79.9813 33.4416 79.9813H38.6501Z" fill="#98C5B4"/>
<path fill-rule="evenodd" clip-rule="evenodd" d="M50.1089 79.9813C51.2625 79.9813 52.1923 79.0515 52.1923 77.8979C52.1923 76.7443 51.2625 75.8145 50.1089 75.8145H44.9003C43.7467 75.8145 42.8169 76.7443 42.8169 77.8979C42.8169 79.0515 43.7467 79.9813 44.9003 79.9813H50.1089Z" fill="#98C5B4"/>
<path fill-rule="evenodd" clip-rule="evenodd" d="M61.5599 79.9813C62.7135 79.9813 63.6434 79.0515 63.6434 77.8979C63.6434 76.7443 62.7135 75.8145 61.5599 75.8145H56.3514C55.1978 75.8145 54.2679 76.7443 54.2679 77.8979C54.2679 79.0515 55.1978 79.9813 56.3514 79.9813H61.5599Z" fill="#98C5B4"/>
<path fill-rule="evenodd" clip-rule="evenodd" d="M73.0215 79.9813C74.1751 79.9813 75.1049 79.0515 75.1049 77.8979C75.1049 76.7443 74.1751 75.8145 73.0215 75.8145H67.8129C66.6593 75.8145 65.7295 76.7443 65.7295 77.8979C65.7295 79.0515 66.6593 79.9813 67.8129 79.9813H73.0215Z" fill="#98C5B4"/>
<path fill-rule="evenodd" clip-rule="evenodd" d="M27.1914 90.39C28.345 90.39 29.2748 89.4601 29.2748 88.3066C29.2748 87.153 28.345 86.2231 27.1914 86.2231H21.9828C20.8293 86.2231 19.8994 87.153 19.8994 88.3066C19.8994 89.4601 20.8293 90.39 21.9828 90.39H27.1914Z" fill="#94C3B6"/>
<path fill-rule="evenodd" clip-rule="evenodd" d="M38.6501 90.39C39.8037 90.39 40.7336 89.4601 40.7336 88.3066C40.7336 87.153 39.8037 86.2231 38.6501 86.2231H33.4416C32.288 86.2231 31.3582 87.153 31.3582 88.3066C31.3582 89.4601 32.288 90.39 33.4416 90.39H38.6501Z" fill="#94C3B6"/>
<path fill-rule="evenodd" clip-rule="evenodd" d="M50.1089 90.39C51.2625 90.39 52.1923 89.4601 52.1923 88.3066C52.1923 87.153 51.2625 86.2231 50.1089 86.2231H44.9003C43.7467 86.2231 42.8169 87.153 42.8169 88.3066C42.8169 89.4601 43.7467 90.39 44.9003 90.39H50.1089Z" fill="#94C3B6"/>
<path fill-rule="evenodd" clip-rule="evenodd" d="M61.5599 90.39C62.7135 90.39 63.6434 89.4601 63.6434 88.3066C63.6434 87.153 62.7135 86.2231 61.5599 86.2231H56.3514C55.1978 86.2231 54.2679 87.153 54.2679 88.3066C54.2679 89.4601 55.1978 90.39 56.3514 90.39H61.5599Z" fill="#94C3B6"/>
<path fill-rule="evenodd" clip-rule="evenodd" d="M73.0215 90.39C74.1751 90.39 75.1049 89.4601 75.1049 88.3066C75.1049 87.153 74.1751 86.2231 73.0215 86.2231H67.8129C66.6593 86.2231 65.7295 87.153 65.7295 88.3066C65.7295 89.4601 66.6593 90.39 67.8129 90.39H73.0215Z" fill="#94C3B6"/>
<path d="M80.8882 31.0913L63.7943 14.5008C61.7668 12.5292 59.0961 11.4456 56.2716 11.4456H47.4764C46.3159 11.4456 45.379 12.3824 45.379 13.543C45.379 14.7035 46.3159 15.6404 47.4764 15.6404H55.6074V32.0351C55.6074 35.4609 58.3969 38.2504 61.8227 38.2504H79.9513C79.9723 38.4462 79.9793 38.642 79.9793 38.8447V96.2298C79.9793 97.3974 79.5248 98.495 78.6999 99.32C77.8749 100.145 76.7842 100.592 75.6167 100.592H75.6097L19.3222 100.474C16.9242 100.474 14.9666 98.509 14.9666 96.1109V48.4438C14.9666 47.2833 14.0298 46.3464 12.8692 46.3464C11.7086 46.3464 10.7718 47.2833 10.7718 48.4438V96.1109C10.7718 100.816 14.6031 104.654 19.3082 104.668L75.5957 104.787H75.6097C77.8889 104.787 80.0352 103.899 81.6572 102.284C83.2792 100.669 84.1671 98.516 84.1671 96.2298V38.8447C84.1671 35.9363 82.9716 33.1118 80.8882 31.0913ZM59.7952 32.0421V16.6681C60.1797 16.9128 60.5363 17.1925 60.8719 17.5141L77.9238 34.0626H61.8157C60.7041 34.0626 59.7952 33.1537 59.7952 32.0421Z" fill="url(#paint0_linear_211_52105)"/>
<path d="M37.8021 37.8024C29.1678 46.4368 15.1152 46.4368 6.47384 37.8024C-2.16049 29.1681 -2.16049 15.1155 6.48083 6.48112C15.1152 -2.15321 29.1678 -2.15321 37.8091 6.48112C46.4504 15.1155 46.4435 29.1681 37.8091 37.8094L37.8021 37.8024ZM8.88586 8.88615C1.57988 16.1921 1.57988 28.0844 8.88586 35.3904C16.1918 42.6964 28.0841 42.6964 35.3901 35.3904C42.6961 28.0844 42.6961 16.1921 35.3901 8.88615C28.0841 1.58018 16.1918 1.58018 8.88586 8.88615Z" fill="url(#paint1_linear_211_52105)"/>
<path d="M25.595 11.8433C25.595 11.7315 25.581 11.6126 25.56 11.5008C25.553 11.4588 25.532 11.4169 25.525 11.3819C25.5041 11.319 25.4901 11.2491 25.4621 11.1862C25.4411 11.1302 25.4062 11.0883 25.3852 11.0323C25.3573 10.9834 25.3363 10.9345 25.3083 10.8925C25.1825 10.7038 25.0217 10.543 24.8399 10.4241C24.7979 10.3961 24.749 10.3752 24.7001 10.3472C24.6511 10.3192 24.6022 10.2913 24.5463 10.2703C24.4833 10.2423 24.4204 10.2283 24.3505 10.2074C24.3085 10.1934 24.2666 10.1794 24.2246 10.1724C24.1128 10.1514 24.0009 10.1375 23.8891 10.1375H18.31C17.3661 10.1375 16.6041 10.8995 16.6041 11.8433C16.6041 12.7872 17.3661 13.5492 18.31 13.5492H19.7781L11.0319 22.2954C10.3678 22.9596 10.3678 24.0363 11.0319 24.7074C11.6961 25.3786 12.7728 25.3716 13.444 24.7074L22.1902 15.9613V17.4294C22.1902 18.3733 22.9522 19.1353 23.8961 19.1353C24.3645 19.1353 24.7909 18.9466 25.0986 18.6389C25.4062 18.3313 25.595 17.9049 25.595 17.4364V11.8573V11.8433Z" fill="url(#paint2_linear_211_52105)"/>
<path d="M33.2523 19.5765C32.5881 18.9123 31.5114 18.9123 30.8402 19.5765L22.094 28.3227V26.8545C22.094 25.9107 21.332 25.1486 20.3881 25.1486C19.4443 25.1486 18.6823 25.9107 18.6823 26.8545V32.4336C18.6823 32.5455 18.6962 32.6643 18.7172 32.7762C18.7242 32.8181 18.7452 32.8531 18.7522 32.895C18.7731 32.958 18.7871 33.0279 18.8151 33.0908C18.8361 33.1467 18.864 33.1887 18.892 33.2376C18.92 33.2866 18.9409 33.3355 18.9689 33.3775C19.0947 33.5662 19.2555 33.727 19.4373 33.8459C19.4863 33.8738 19.5352 33.8948 19.5771 33.9228C19.6261 33.9507 19.675 33.9787 19.724 33.9997C19.7869 34.0276 19.8568 34.0416 19.9197 34.0626C19.9617 34.0766 19.9966 34.0906 20.0386 34.0976C20.1504 34.1185 20.2623 34.1325 20.3812 34.1325H25.9603C26.4287 34.1325 26.8552 33.9438 27.1628 33.6361C27.4704 33.3285 27.6592 32.902 27.6592 32.4336C27.6592 31.4898 26.8971 30.7277 25.9533 30.7277H24.4851L33.2313 21.9815C33.8955 21.3174 33.8955 20.2407 33.2313 19.5695L33.2523 19.5765Z" fill="url(#paint3_linear_211_52105)"/>
</g>
<defs>
<linearGradient id="paint0_linear_211_52105" x1="47.4694" y1="11.4456" x2="47.4694" y2="104.787" gradientUnits="userSpaceOnUse">
<stop stop-color="#B1D4A5"/>
<stop offset="1" stop-color="#8DBFB9"/>
</linearGradient>
<linearGradient id="paint1_linear_211_52105" x1="22.1432" y1="0.00537109" x2="22.1432" y2="44.2782" gradientUnits="userSpaceOnUse">
<stop stop-color="#B1D4A5"/>
<stop offset="1" stop-color="#A5CDAC"/>
</linearGradient>
<linearGradient id="paint2_linear_211_52105" x1="18.0644" y1="10.1375" x2="18.0644" y2="25.2082" gradientUnits="userSpaceOnUse">
<stop stop-color="#B1D4A5"/>
<stop offset="1" stop-color="#A5CDAC"/>
</linearGradient>
<linearGradient id="paint3_linear_211_52105" x1="26.2058" y1="19.0784" x2="26.2058" y2="34.1325" gradientUnits="userSpaceOnUse">
<stop stop-color="#B1D4A5"/>
<stop offset="1" stop-color="#A5CDAC"/>
</linearGradient>
<clipPath id="clip0_211_52105">
<rect width="84.169" height="104.787" fill="white"/>
</clipPath>
</defs>
</svg>
