<svg width="86" height="106" viewBox="0 0 86 106" fill="none" xmlns="http://www.w3.org/2000/svg">
<g clip-path="url(#clip0_211_51597)">
<path fill-rule="evenodd" clip-rule="evenodd" d="M58.5137 42.2312C53.4919 42.2875 49.442 46.4219 49.4984 51.4437C49.5054 52.3664 49.6604 53.2468 49.921 54.085L42.1875 59.1279C40.5042 57.3953 38.1517 56.3247 35.5528 56.3529C30.531 56.4022 26.4811 60.5436 26.5374 65.5654C26.5938 70.5872 30.7282 74.6371 35.75 74.5808C36.1726 74.5808 36.5952 74.5455 37.0037 74.4822C38.8068 74.2145 40.4267 73.4116 41.7227 72.2495L49.8153 77.9052C49.8083 78.0742 49.7942 78.2432 49.7942 78.4123C49.8505 83.4341 53.9849 87.484 59.0067 87.4276C59.4293 87.4276 59.8519 87.3924 60.2604 87.329C64.6906 86.6669 68.0714 82.8143 68.0221 78.2151C67.9657 73.1932 63.8314 69.1434 58.8095 69.1997C55.464 69.2349 52.5622 71.0873 51.0056 73.806L44.068 68.9532C44.5259 67.8474 44.7794 66.643 44.7653 65.3753C44.7512 64.4033 44.5892 63.4665 44.2934 62.5932L51.9776 57.5854C53.668 59.3815 56.0627 60.5013 58.7109 60.4732C59.1335 60.4732 59.5561 60.438 59.9646 60.3746C64.3948 59.7125 67.7756 55.8599 67.7263 51.2606C67.6699 46.2388 63.5355 42.1889 58.5137 42.2453V42.2312ZM53.837 78.37C53.8088 75.8133 55.6894 73.6651 58.1545 73.2989C58.3799 73.2637 58.6123 73.2425 58.8518 73.2425C61.6479 73.2144 63.9511 75.4612 63.9793 78.2573C64.0074 81.0535 61.7466 83.3496 58.9645 83.3848C56.1683 83.413 53.8652 81.1662 53.837 78.37ZM35.7077 70.5379C32.9116 70.5661 30.6084 68.3193 30.5803 65.5232C30.5521 62.9665 32.4326 60.8183 34.8978 60.452C35.1231 60.4168 35.3556 60.3957 35.595 60.3957C38.3912 60.3675 40.6943 62.6143 40.7225 65.4105C40.7507 68.2066 38.5039 70.5098 35.7077 70.5379ZM63.6834 51.2888C63.7116 54.085 61.4578 56.3811 58.6687 56.4163C55.8725 56.4444 53.5694 54.1977 53.5412 51.4015C53.513 48.8448 55.3936 46.6966 57.8587 46.3304C58.0841 46.2951 58.3165 46.274 58.556 46.274C61.3521 46.2458 63.6553 48.4926 63.6834 51.2888Z" fill="url(#paint0_linear_211_51597)"/>
<path d="M82.2692 31.3217L65.0486 14.6081C63.006 12.6219 60.3155 11.5302 57.47 11.5302H48.6097C47.4405 11.5302 46.4967 12.474 46.4967 13.6432C46.4967 14.8124 47.4405 15.7562 48.6097 15.7562H56.8009V32.2725C56.8009 35.7237 59.6112 38.534 63.0624 38.534H81.3255C81.3466 38.7312 81.3536 38.9284 81.3536 39.1326V96.9435C81.3536 98.1197 80.8958 99.2255 80.0647 100.057C79.2336 100.888 78.1349 101.338 76.9587 101.338H76.9516L20.2466 101.219C17.8307 101.219 15.8586 99.2396 15.8586 96.8237V48.803C15.8586 47.6338 14.9148 46.69 13.7457 46.69C12.5765 46.69 11.6327 47.6338 11.6327 48.803V96.8237C11.6327 101.564 15.4924 105.431 20.2325 105.445L76.9375 105.564H76.9516C79.2477 105.564 81.41 104.67 83.044 103.043C84.678 101.416 85.5725 99.2466 85.5725 96.9435V39.1326C85.5725 36.2027 84.3681 33.3572 82.2692 31.3217ZM61.0198 32.2796V16.7915C61.4072 17.038 61.7664 17.3197 62.1045 17.6437L79.2829 34.3151H63.0553C61.9354 34.3151 61.0198 33.3994 61.0198 32.2796Z" fill="url(#paint1_linear_211_51597)"/>
<path d="M38.8634 38.0827C30.165 46.7811 16.0081 46.7811 7.3027 38.0827C-1.39569 29.3844 -1.39569 15.2275 7.30974 6.52907C16.0081 -2.16932 30.165 -2.16932 38.8705 6.52907C47.5759 15.2275 47.5688 29.3844 38.8705 38.0898L38.8634 38.0827ZM9.73261 8.95194C2.37244 16.3121 2.37244 28.2927 9.73261 35.6528C17.0928 43.013 29.0733 43.013 36.4335 35.6528C43.7937 28.2927 43.7937 16.3121 36.4335 8.95194C29.0733 1.59177 17.0928 1.59177 9.73261 8.95194Z" fill="url(#paint2_linear_211_51597)"/>
<path d="M26.5659 11.931C26.5659 11.8183 26.5519 11.6985 26.5307 11.5858C26.5237 11.5436 26.5026 11.5013 26.4955 11.4661C26.4744 11.4027 26.4603 11.3323 26.4321 11.2689C26.411 11.2125 26.3758 11.1703 26.3547 11.1139C26.3265 11.0646 26.3053 11.0153 26.2772 10.9731C26.1504 10.7829 25.9884 10.6209 25.8053 10.5012C25.763 10.473 25.7137 10.4519 25.6644 10.4237C25.6151 10.3955 25.5658 10.3674 25.5095 10.3462C25.4461 10.3181 25.3827 10.304 25.3123 10.2828C25.27 10.2687 25.2277 10.2547 25.1855 10.2476C25.0728 10.2265 24.9601 10.2124 24.8474 10.2124H19.2269C18.2761 10.2124 17.5084 10.9801 17.5084 11.931C17.5084 12.8818 18.2761 13.6495 19.2269 13.6495H20.706L11.8949 22.4606C11.2258 23.1297 11.2258 24.2143 11.8949 24.8905C12.564 25.5666 13.6487 25.5596 14.3248 24.8905L23.1359 16.0794V17.5585C23.1359 18.5093 23.9036 19.277 24.8544 19.277C25.3263 19.277 25.756 19.0869 26.0659 18.777C26.3758 18.4671 26.5659 18.0374 26.5659 17.5655V11.945V11.931Z" fill="url(#paint3_linear_211_51597)"/>
<path d="M34.2792 19.7211C33.6101 19.052 32.5254 19.052 31.8493 19.7211L23.0382 28.5321V27.0531C23.0382 26.1022 22.2705 25.3345 21.3196 25.3345C20.3688 25.3345 19.6011 26.1022 19.6011 27.0531V32.6736C19.6011 32.7863 19.6152 32.906 19.6363 33.0187C19.6433 33.0609 19.6645 33.0962 19.6715 33.1384C19.6926 33.2018 19.7067 33.2722 19.7349 33.3356C19.756 33.392 19.7842 33.4342 19.8124 33.4835C19.8405 33.5328 19.8617 33.5821 19.8898 33.6244C20.0166 33.8146 20.1786 33.9766 20.3617 34.0963C20.411 34.1245 20.4603 34.1456 20.5026 34.1738C20.5519 34.202 20.6012 34.2301 20.6505 34.2513C20.7139 34.2794 20.7843 34.2935 20.8477 34.3146C20.89 34.3287 20.9252 34.3428 20.9675 34.3499C21.0802 34.371 21.1928 34.3851 21.3126 34.3851H26.9331C27.405 34.3851 27.8346 34.1949 28.1445 33.885C28.4544 33.5751 28.6446 33.1455 28.6446 32.6736C28.6446 31.7227 27.8769 30.955 26.926 30.955H25.447L34.258 22.1439C34.9271 21.4748 34.9271 20.3902 34.258 19.714L34.2792 19.7211Z" fill="url(#paint4_linear_211_51597)"/>
</g>
<defs>
<linearGradient id="paint0_linear_211_51597" x1="47.2797" y1="42.2312" x2="47.2797" y2="87.4282" gradientUnits="userSpaceOnUse">
<stop stop-color="#B1D5A6"/>
<stop offset="1" stop-color="#8FC0B9"/>
</linearGradient>
<linearGradient id="paint1_linear_211_51597" x1="48.6026" y1="11.5302" x2="48.6026" y2="105.564" gradientUnits="userSpaceOnUse">
<stop stop-color="#B1D5A6"/>
<stop offset="1" stop-color="#8FC0B9"/>
</linearGradient>
<linearGradient id="paint2_linear_211_51597" x1="23.0883" y1="0.00527954" x2="23.0883" y2="44.6065" gradientUnits="userSpaceOnUse">
<stop stop-color="#B1D5A6"/>
<stop offset="1" stop-color="#A6CEAD"/>
</linearGradient>
<linearGradient id="paint3_linear_211_51597" x1="18.9795" y1="10.2124" x2="18.9795" y2="25.395" gradientUnits="userSpaceOnUse">
<stop stop-color="#B1D5A6"/>
<stop offset="1" stop-color="#A6CEAD"/>
</linearGradient>
<linearGradient id="paint4_linear_211_51597" x1="27.1805" y1="19.2192" x2="27.1805" y2="34.3851" gradientUnits="userSpaceOnUse">
<stop stop-color="#B1D5A6"/>
<stop offset="1" stop-color="#A6CEAD"/>
</linearGradient>
<clipPath id="clip0_211_51597">
<rect width="84.7935" height="105.564" fill="white" transform="translate(0.779297)"/>
</clipPath>
</defs>
</svg>
