<svg width="16" height="16" viewBox="0 0 16 16" fill="currentColor" xmlns="http://www.w3.org/2000/svg">
<path fill-rule="evenodd" clip-rule="evenodd" d="M5.1875 14.0625C7.22405 14.0625 8.875 12.4116 8.875 10.375C8.875 8.33845 7.22405 6.6875 5.1875 6.6875C3.15095 6.6875 1.5 8.33845 1.5 10.375C1.5 12.4116 3.15095 14.0625 5.1875 14.0625ZM5.1875 15.0625C7.77633 15.0625 9.875 12.9638 9.875 10.375C9.875 7.78617 7.77633 5.6875 5.1875 5.6875C2.59867 5.6875 0.5 7.78617 0.5 10.375C0.5 12.9638 2.59867 15.0625 5.1875 15.0625Z" />
<path fill-rule="evenodd" clip-rule="evenodd" d="M10.8125 14.0625C12.8491 14.0625 14.5 12.4116 14.5 10.375C14.5 8.33845 12.8491 6.6875 10.8125 6.6875C8.77595 6.6875 7.125 8.33845 7.125 10.375C7.125 12.4116 8.77595 14.0625 10.8125 14.0625ZM10.8125 15.0625C13.4013 15.0625 15.5 12.9638 15.5 10.375C15.5 7.78617 13.4013 5.6875 10.8125 5.6875C8.22367 5.6875 6.125 7.78617 6.125 10.375C6.125 12.9638 8.22367 15.0625 10.8125 15.0625Z" />
<path fill-rule="evenodd" clip-rule="evenodd" d="M8 9.375C10.0366 9.375 11.6875 7.72405 11.6875 5.6875C11.6875 3.65095 10.0366 2 8 2C5.96345 2 4.3125 3.65095 4.3125 5.6875C4.3125 7.72405 5.96345 9.375 8 9.375ZM8 10.375C10.5888 10.375 12.6875 8.27633 12.6875 5.6875C12.6875 3.09867 10.5888 1 8 1C5.41117 1 3.3125 3.09867 3.3125 5.6875C3.3125 8.27633 5.41117 10.375 8 10.375Z" />
</svg>
