<svg width="16" height="16" viewBox="0 0 16 16" xmlns="http://www.w3.org/2000/svg">
<path fill-rule="evenodd" clip-rule="evenodd" d="M2.58579 1.25571C2.96086 0.880635 3.46957 0.669922 4 0.669922H8.66667C8.84348 0.669922 9.01305 0.74016 9.13807 0.865184L13.8047 5.53185C13.9298 5.65687 14 5.82644 14 6.00325V13.3366C14 13.867 13.7893 14.3757 13.4142 14.7508C13.0391 15.1259 12.5304 15.3366 12 15.3366H4C3.46957 15.3366 2.96086 15.1259 2.58579 14.7508C2.21071 14.3757 2 13.867 2 13.3366V2.66992C2 2.13949 2.21071 1.63078 2.58579 1.25571ZM4 2.00326C3.82319 2.00326 3.65362 2.07349 3.5286 2.19852C3.40357 2.32354 3.33333 2.49311 3.33333 2.66992V13.3366C3.33333 13.5134 3.40357 13.683 3.5286 13.808C3.65362 13.933 3.82319 14.0033 4 14.0033H12C12.1768 14.0033 12.3464 13.933 12.4714 13.808C12.5964 13.683 12.6667 13.5134 12.6667 13.3366V6.66992H8.66667C8.29848 6.66992 8 6.37144 8 6.00325V2.00326H4ZM9.33333 2.94606L11.7239 5.33659H9.33333V2.94606Z"/>
<path fill-rule="evenodd" clip-rule="evenodd" d="M4.5 12.0039C4.5 11.7278 4.72386 11.5039 5 11.5039H5.75C6.02614 11.5039 6.25 11.7278 6.25 12.0039C6.25 12.28 6.02614 12.5039 5.75 12.5039H5C4.72386 12.5039 4.5 12.28 4.5 12.0039Z"/>
<path fill-rule="evenodd" clip-rule="evenodd" d="M4.5 10.0039C4.5 9.72776 4.72386 9.50391 5 9.50391H5.75C6.02614 9.50391 6.25 9.72776 6.25 10.0039C6.25 10.28 6.02614 10.5039 5.75 10.5039H5C4.72386 10.5039 4.5 10.28 4.5 10.0039Z"/>
<path fill-rule="evenodd" clip-rule="evenodd" d="M4.5 8.00391C4.5 7.72776 4.72386 7.50391 5 7.50391H5.75C6.02614 7.50391 6.25 7.72776 6.25 8.00391C6.25 8.28005 6.02614 8.50391 5.75 8.50391H5C4.72386 8.50391 4.5 8.28005 4.5 8.00391Z"/>
<path fill-rule="evenodd" clip-rule="evenodd" d="M4.5 6.00391C4.5 5.72776 4.72386 5.50391 5 5.50391H5.75C6.02614 5.50391 6.25 5.72776 6.25 6.00391C6.25 6.28005 6.02614 6.50391 5.75 6.50391H5C4.72386 6.50391 4.5 6.28005 4.5 6.00391Z"/>
<path fill-rule="evenodd" clip-rule="evenodd" d="M4.5 4.00391C4.5 3.72776 4.72386 3.50391 5 3.50391H5.75C6.02614 3.50391 6.25 3.72776 6.25 4.00391C6.25 4.28005 6.02614 4.50391 5.75 4.50391H5C4.72386 4.50391 4.5 4.28005 4.5 4.00391Z"/>
<path fill-rule="evenodd" clip-rule="evenodd" d="M7.125 12.0039C7.125 11.7278 7.34886 11.5039 7.625 11.5039H8.375C8.65114 11.5039 8.875 11.7278 8.875 12.0039C8.875 12.28 8.65114 12.5039 8.375 12.5039H7.625C7.34886 12.5039 7.125 12.28 7.125 12.0039Z"/>
<path fill-rule="evenodd" clip-rule="evenodd" d="M7.125 10.0039C7.125 9.72776 7.34886 9.50391 7.625 9.50391H8.375C8.65114 9.50391 8.875 9.72776 8.875 10.0039C8.875 10.28 8.65114 10.5039 8.375 10.5039H7.625C7.34886 10.5039 7.125 10.28 7.125 10.0039Z"/>
<path fill-rule="evenodd" clip-rule="evenodd" d="M7.125 8.00391C7.125 7.72776 7.34886 7.50391 7.625 7.50391H8.375C8.65114 7.50391 8.875 7.72776 8.875 8.00391C8.875 8.28005 8.65114 8.50391 8.375 8.50391H7.625C7.34886 8.50391 7.125 8.28005 7.125 8.00391Z"/>
<path fill-rule="evenodd" clip-rule="evenodd" d="M7.125 6.00391C7.125 5.72776 7.34886 5.50391 7.625 5.50391H8.375C8.65114 5.50391 8.875 5.72776 8.875 6.00391C8.875 6.28005 8.65114 6.50391 8.375 6.50391H7.625C7.34886 6.50391 7.125 6.28005 7.125 6.00391Z"/>
<path fill-rule="evenodd" clip-rule="evenodd" d="M7.125 4.00391C7.125 3.72776 7.34886 3.50391 7.625 3.50391H8.375C8.65114 3.50391 8.875 3.72776 8.875 4.00391C8.875 4.28005 8.65114 4.50391 8.375 4.50391H7.625C7.34886 4.50391 7.125 4.28005 7.125 4.00391Z"/>
<path fill-rule="evenodd" clip-rule="evenodd" d="M9.75 10.0039C9.75 9.72776 9.97386 9.50391 10.25 9.50391H11C11.2761 9.50391 11.5 9.72776 11.5 10.0039C11.5 10.28 11.2761 10.5039 11 10.5039H10.25C9.97386 10.5039 9.75 10.28 9.75 10.0039Z"/>
<path fill-rule="evenodd" clip-rule="evenodd" d="M9.75 8.00391C9.75 7.72776 9.97386 7.50391 10.25 7.50391H11C11.2761 7.50391 11.5 7.72776 11.5 8.00391C11.5 8.28005 11.2761 8.50391 11 8.50391H10.25C9.97386 8.50391 9.75 8.28005 9.75 8.00391Z"/>
<path fill-rule="evenodd" clip-rule="evenodd" d="M9.75 12.0039C9.75 11.7278 9.97386 11.5039 10.25 11.5039H11C11.2761 11.5039 11.5 11.7278 11.5 12.0039C11.5 12.28 11.2761 12.5039 11 12.5039H10.25C9.97386 12.5039 9.75 12.28 9.75 12.0039Z"/>
</svg>
