<svg width="14" height="15" viewBox="0 0 14 15" fill="none" xmlns="http://www.w3.org/2000/svg">
<path d="M13.6956 14.0262C13.8637 14.0262 14 14.2053 14 14.4262C14 14.6313 13.8825 14.8004 13.7311 14.8235L13.6956 14.8262H0.304392C0.136306 14.8262 4.60701e-05 14.6471 4.60701e-05 14.4262C4.60701e-05 14.221 0.117535 14.052 0.268898 14.0289L0.304392 14.0262H13.6956ZM7 0.826172C8.11833 0.826172 8.81893 1.63332 9.64773 3.61125L9.75661 3.8759C9.77489 3.92113 9.79325 3.96693 9.81168 4.01328L9.92324 4.29819L10.0369 4.59683C10.0561 4.64775 10.0753 4.69928 10.0947 4.75137L10.5079 5.8811L10.6306 6.21069C10.6509 6.26443 10.671 6.31756 10.6911 6.37012L10.8106 6.67844C10.8303 6.72867 10.85 6.77832 10.8696 6.82739L10.9865 7.11494C11.0059 7.16173 11.0252 7.20797 11.0444 7.25364L11.1593 7.52097C11.9595 9.34578 12.6856 10.1996 13.7456 10.4316C13.9114 10.4679 14.0234 10.674 13.9958 10.8919C13.9682 11.1098 13.8114 11.257 13.6456 11.2207C12.3042 10.9271 11.4518 9.87152 10.5201 7.66179L10.3981 7.36699C10.3777 7.31676 10.3572 7.26597 10.3366 7.21462L10.2128 6.8998L10.0873 6.57144L9.9031 6.07419L9.54904 5.10605L9.43962 4.81484L9.33289 4.53811L9.22861 4.27563C9.21142 4.23306 9.19433 4.19107 9.17732 4.14966L9.07625 3.90811L8.97703 3.6802C8.87865 3.45905 8.78265 3.25803 8.68794 3.07607L8.59361 2.90044C8.09237 1.99718 7.6171 1.62617 7 1.62617C6.26699 1.62617 5.73397 2.14957 5.11978 3.46655L5.02208 3.68113C4.98926 3.75488 4.95618 3.83087 4.92279 3.90913L4.82166 4.15081C4.80464 4.19224 4.78753 4.23424 4.77033 4.27683L4.66597 4.53943C4.64838 4.58438 4.63069 4.62993 4.61289 4.67607L4.50476 4.96013L4.03924 6.22932C3.97501 6.40389 3.91159 6.57323 3.84883 6.73743L3.72414 7.05901C2.69153 9.6825 1.81168 10.9015 0.354426 11.2207C0.188627 11.257 0.0318216 11.1099 0.00418847 10.8919C-0.0234446 10.674 0.0885595 10.4679 0.254358 10.4316C1.33887 10.1941 2.07372 9.30498 2.89701 7.38906L3.0125 7.11504L3.12941 6.82744L3.24799 6.52607C3.26791 6.47468 3.28791 6.4227 3.308 6.37014L3.42959 6.04766L3.84568 4.91094L3.96185 4.59827L4.07562 4.29949C4.09439 4.25084 4.11308 4.20278 4.13168 4.15527L4.24236 3.87705C4.26065 3.83181 4.27888 3.78712 4.29703 3.74299L4.40522 3.48489C4.49478 3.27533 4.58297 3.07951 4.67048 2.89697L4.77521 2.68425C5.43703 1.37713 6.07598 0.826172 7 0.826172Z" fill="black"/>
</svg>
