<svg width="14" height="14" viewBox="0 0 14 14" fill="none" xmlns="http://www.w3.org/2000/svg">
<path fill-rule="evenodd" clip-rule="evenodd" d="M4.93358 2.27306H3.04797V0.387454C3.04797 0.180812 2.86716 0 2.66052 0C2.45387 0 2.27306 0.180812 2.27306 0.387454V2.27306H0.387454C0.180812 2.27306 0 2.45387 0 2.66052C0 2.86716 0.180812 3.04797 0.387454 3.04797H2.27306V4.93358C2.27306 5.14022 2.45387 5.32103 2.66052 5.32103C2.86716 5.32103 3.04797 5.14022 3.04797 4.93358V3.04797H4.93358C5.14022 3.04797 5.32103 2.86716 5.32103 2.66052C5.32103 2.45387 5.14022 2.27306 4.93358 2.27306Z" fill="black"/>
<path fill-rule="evenodd" clip-rule="evenodd" d="M9.04077 3.0481H13.5869C13.7935 3.0481 13.9744 2.86729 13.9744 2.66065C13.9744 2.45401 13.7935 2.27319 13.5869 2.27319H9.04077C8.83413 2.27319 8.65332 2.45401 8.65332 2.66065C8.65332 2.86729 8.83413 3.0481 9.04077 3.0481Z" fill="black"/>
<path fill-rule="evenodd" clip-rule="evenodd" d="M13.6123 10.2803H9.06616C8.85952 10.2803 8.67871 10.4611 8.67871 10.6677C8.67871 10.8744 8.85952 11.0552 9.06616 11.0552H13.6123C13.8189 11.0552 13.9997 10.8744 13.9997 10.6677C13.9997 10.4611 13.8189 10.2803 13.6123 10.2803Z" fill="black"/>
<path fill-rule="evenodd" clip-rule="evenodd" d="M3.20346 10.6679L4.54663 9.32469C4.70162 9.16971 4.70162 8.93723 4.54663 8.78225C4.39165 8.62727 4.15918 8.62727 4.0042 8.78225L2.66102 10.1254L1.31785 8.78225C1.16287 8.62727 0.930397 8.62727 0.775416 8.78225C0.620434 8.93723 0.620434 9.16971 0.775416 9.32469L2.11859 10.6679L0.775416 12.011C0.620434 12.166 0.620434 12.3985 0.775416 12.5535C0.852907 12.631 0.956228 12.6568 1.05955 12.6568C1.16287 12.6568 1.26619 12.631 1.34368 12.5535L2.68686 11.2103L4.03003 12.5535C4.10752 12.631 4.21084 12.6568 4.31416 12.6568C4.41748 12.6568 4.5208 12.631 4.59829 12.5535C4.75328 12.3985 4.75328 12.166 4.59829 12.011L3.20346 10.6679Z" fill="black"/>
<path d="M11.3127 9.45387C11.6694 9.45387 11.9585 9.16475 11.9585 8.80811C11.9585 8.45147 11.6694 8.16235 11.3127 8.16235C10.9561 8.16235 10.667 8.45147 10.667 8.80811C10.667 9.16475 10.9561 9.45387 11.3127 9.45387Z" fill="black"/>
<path d="M11.3127 13.1995C11.6694 13.1995 11.9585 12.9104 11.9585 12.5537C11.9585 12.1971 11.6694 11.908 11.3127 11.908C10.9561 11.908 10.667 12.1971 10.667 12.5537C10.667 12.9104 10.9561 13.1995 11.3127 13.1995Z" fill="black"/>
</svg>
