<svg width="14" height="14" viewBox="0 0 14 14" fill="none" xmlns="http://www.w3.org/2000/svg">
<path d="M10.3129 9.46258L7.11795 8.64047L6.17772 5.84697C6.15337 5.77451 6.10285 5.71089 6.0337 5.66564C5.96456 5.62038 5.88051 5.59592 5.79414 5.59592C5.70776 5.59592 5.62371 5.62038 5.55457 5.66564C5.48542 5.71089 5.4349 5.77451 5.41056 5.84697L4.46992 8.64047L1.275 9.46258C1.19213 9.48386 1.11936 9.52804 1.06761 9.5885C1.01585 9.64897 0.987875 9.72246 0.987875 9.79798C0.987875 9.8735 1.01585 9.94699 1.06761 10.0075C1.11936 10.0679 1.19213 10.1121 1.275 10.1334L4.46992 10.9555L5.41056 13.749C5.43491 13.8214 5.48544 13.8851 5.55458 13.9303C5.62373 13.9755 5.70777 14 5.79414 14C5.8805 14 5.96455 13.9755 6.03369 13.9303C6.10284 13.8851 6.15336 13.8214 6.17772 13.749L7.11795 10.9555L10.3129 10.1334C10.3957 10.1121 10.4685 10.0679 10.5203 10.0075C10.572 9.94699 10.6 9.8735 10.6 9.79798C10.6 9.72246 10.572 9.64897 10.5203 9.5885C10.4685 9.52804 10.3957 9.48386 10.3129 9.46258ZM6.6828 10.3383C6.61861 10.3548 6.56019 10.3851 6.51289 10.4264C6.46559 10.4678 6.43094 10.5189 6.41211 10.575L5.79416 12.4115L5.1758 10.575C5.15697 10.5189 5.12232 10.4678 5.07501 10.4264C5.02771 10.3851 4.96927 10.3548 4.90508 10.3383L2.80508 9.79798L4.90508 9.25766C4.96927 9.2412 5.02771 9.2109 5.07501 9.16954C5.12232 9.12818 5.15697 9.07709 5.1758 9.02096L5.79416 7.18446L6.41211 9.02096C6.43094 9.07708 6.46559 9.12817 6.51289 9.16953C6.56019 9.21089 6.61861 9.2412 6.6828 9.25766L8.7828 9.79798L6.6828 10.3383ZM1.47616 3.17983L3.20936 3.62624L3.71992 5.14168C3.74426 5.21414 3.79479 5.27776 3.86394 5.32301C3.93309 5.36827 4.01714 5.39273 4.10352 5.39273C4.18989 5.39273 4.27394 5.36827 4.34309 5.32301C4.41224 5.27776 4.46277 5.21414 4.48712 5.14168L4.99728 3.62624L6.73083 3.17983C6.81371 3.15855 6.88647 3.11437 6.93822 3.05391C6.98998 2.99345 7.01795 2.91996 7.01795 2.84444C7.01795 2.76892 6.98998 2.69543 6.93822 2.63497C6.88647 2.57452 6.81371 2.53034 6.73083 2.50906L4.99728 2.06299L4.48712 0.547208C4.46277 0.474747 4.41224 0.411128 4.34309 0.365872C4.27394 0.320617 4.18989 0.296158 4.10352 0.296158C4.01714 0.296158 3.93309 0.320617 3.86394 0.365872C3.79479 0.411128 3.74426 0.474747 3.71992 0.547208L3.20936 2.06299L1.47616 2.50906C1.3933 2.53035 1.32055 2.57453 1.2688 2.63499C1.21705 2.69544 1.18908 2.76893 1.18908 2.84444C1.18908 2.91996 1.21705 2.99344 1.2688 3.0539C1.32055 3.11436 1.3933 3.15854 1.47616 3.17983ZM3.64452 2.68015C3.70871 2.66369 3.76714 2.63339 3.81444 2.59204C3.86174 2.55069 3.8964 2.4996 3.91524 2.44348L4.10352 1.88505L4.2914 2.44348C4.31023 2.4996 4.34489 2.55069 4.39219 2.59204C4.4395 2.63339 4.49793 2.66369 4.56212 2.68015L5.2008 2.84446L4.56212 3.00908C4.49792 3.02554 4.43949 3.05583 4.39218 3.09719C4.34488 3.13854 4.31022 3.18963 4.2914 3.24576L4.10352 3.80419L3.91524 3.24576C3.89641 3.18963 3.86175 3.13854 3.81445 3.09719C3.76714 3.05583 3.70871 3.02554 3.64452 3.00908L3.00584 2.84446L3.64452 2.68015ZM13.7511 4.88451L12.0023 4.26085L11.2891 2.73209C11.259 2.66776 11.2078 2.61271 11.1418 2.57396C11.0759 2.53521 10.9982 2.51451 10.9188 2.51451C10.8393 2.51451 10.7616 2.53521 10.6957 2.57396C10.6297 2.61271 10.5785 2.66776 10.5484 2.73209L9.83515 4.26085L8.08671 4.88451C8.01314 4.91076 7.95018 4.95558 7.90586 5.01324C7.86154 5.07091 7.83788 5.13881 7.83788 5.20829C7.83788 5.27776 7.86154 5.34566 7.90586 5.40333C7.95018 5.461 8.01314 5.50581 8.08671 5.53206L9.83515 6.15572L10.5484 7.68483C10.5785 7.74916 10.6297 7.80421 10.6957 7.84296C10.7616 7.88171 10.8393 7.90241 10.9188 7.90241C10.9982 7.90241 11.0759 7.88171 11.1418 7.84296C11.2078 7.80421 11.259 7.74916 11.2891 7.68483L12.0023 6.15572L13.7511 5.53206C13.8247 5.50581 13.8877 5.461 13.932 5.40333C13.9763 5.34567 14 5.27776 14 5.20829C14 5.13881 13.9763 5.07091 13.932 5.01324C13.8877 4.95557 13.8247 4.91076 13.7511 4.88451ZM11.5441 5.5635C11.4949 5.58106 11.4501 5.60705 11.4124 5.63995C11.3748 5.67285 11.3451 5.712 11.325 5.75509L10.9188 6.62637L10.5125 5.75509C10.4924 5.712 10.4627 5.67286 10.425 5.63996C10.3874 5.60706 10.3426 5.58106 10.2934 5.5635L9.29727 5.20827L10.2934 4.85307C10.3426 4.83551 10.3874 4.80952 10.425 4.77662C10.4627 4.74371 10.4924 4.70457 10.5125 4.66148L10.9188 3.79051L11.325 4.66148C11.3451 4.70457 11.3748 4.74372 11.4124 4.77662C11.4501 4.80952 11.4949 4.83552 11.5441 4.85307L12.5406 5.20827L11.5441 5.5635ZM8.92499 0.743204C8.92499 0.596212 8.97484 0.452521 9.06824 0.330302C9.16164 0.208083 9.29439 0.112825 9.44971 0.0565734C9.60503 0.000322081 9.77594 -0.0143959 9.94082 0.0142808C10.1057 0.0429575 10.2572 0.113741 10.376 0.21768C10.4949 0.321619 10.5759 0.454045 10.6087 0.598212C10.6415 0.74238 10.6246 0.891813 10.5603 1.02762C10.496 1.16342 10.387 1.27949 10.2472 1.36116C10.1074 1.44282 9.94311 1.48641 9.77499 1.48641C9.66337 1.48641 9.55284 1.46718 9.44971 1.42984C9.34659 1.39249 9.25288 1.33774 9.17395 1.26873C9.09502 1.19972 9.03241 1.11779 8.98969 1.02762C8.94698 0.937447 8.92499 0.840803 8.92499 0.743204ZM0.63752 7.43204C0.511433 7.43204 0.388176 7.39935 0.283337 7.33811C0.178498 7.27686 0.0967843 7.18981 0.048531 7.08795C0.000277665 6.9861 -0.0123488 6.87402 0.0122487 6.7659C0.0368461 6.65777 0.0975627 6.55845 0.18672 6.48049C0.275877 6.40254 0.38947 6.34945 0.513135 6.32794C0.636799 6.30644 0.764981 6.31748 0.88147 6.35967C0.997958 6.40186 1.09752 6.4733 1.16757 6.56497C1.23762 6.65664 1.275 6.76441 1.275 6.87465C1.275 7.02248 1.20783 7.16425 1.08828 7.26878C0.968731 7.37331 0.806588 7.43204 0.63752 7.43204Z" fill="#020203"/>
</svg>
