<svg width="16" height="16" viewBox="0 0 16 16" fill="none" xmlns="http://www.w3.org/2000/svg">
<path fill-rule="evenodd" clip-rule="evenodd" d="M2.4 1.6C2.18783 1.6 1.98434 1.68429 1.83431 1.83431C1.68429 1.98434 1.6 2.18783 1.6 2.4V13.2686L3.43431 11.4343C3.58434 11.2843 3.78783 11.2 4 11.2H13.6C13.8122 11.2 14.0157 11.1157 14.1657 10.9657C14.3157 10.8157 14.4 10.6122 14.4 10.4V2.4C14.4 2.18783 14.3157 1.98434 14.1657 1.83431C14.0157 1.68429 13.8122 1.6 13.6 1.6H2.4ZM0.702944 0.702944C1.15303 0.252856 1.76348 0 2.4 0H13.6C14.2365 0 14.847 0.252856 15.2971 0.702944C15.7471 1.15303 16 1.76348 16 2.4V10.4C16 11.0365 15.7471 11.647 15.2971 12.0971C14.847 12.5471 14.2365 12.8 13.6 12.8H4.33137L1.36569 15.7657C1.13689 15.9945 0.792793 16.0629 0.493853 15.9391C0.194914 15.8153 0 15.5236 0 15.2V2.4C0 1.76348 0.252856 1.15303 0.702944 0.702944Z" fill="#667085"/>
</svg>
