<svg width="16" height="16" viewBox="0 0 16 16" fill="none" xmlns="http://www.w3.org/2000/svg">
<path fill-rule="evenodd" clip-rule="evenodd" d="M3.33203 2.66732C2.96384 2.66732 2.66536 2.96579 2.66536 3.33398V5.33398H1.9987C1.63051 5.33398 1.33203 5.63246 1.33203 6.00065V3.33398C1.33203 2.22941 2.22746 1.33398 3.33203 1.33398H12.6654C13.7699 1.33398 14.6654 2.22941 14.6654 3.33398V6.00065V12.6673C14.6654 13.7719 13.7699 14.6673 12.6654 14.6673H5.9987H3.33203C2.22746 14.6673 1.33203 13.7719 1.33203 12.6673V6.00065C1.33203 6.36884 1.63051 6.66732 1.9987 6.66732H2.66536V12.6673C2.66536 13.0355 2.96384 13.334 3.33203 13.334H5.33203V6.66732H6.66536V13.334H12.6654C13.0336 13.334 13.332 13.0355 13.332 12.6673V6.66732H6.66536V6.00065C6.66536 5.63246 6.36689 5.33398 5.9987 5.33398H13.332V3.33398C13.332 2.96579 13.0336 2.66732 12.6654 2.66732H3.33203ZM5.9987 5.33398C5.63051 5.33398 5.33203 5.63246 5.33203 6.00065V6.66732H2.66536V5.33398H5.9987Z" fill="#101828"/>
<path d="M6.66536 6.00065C6.66536 5.63246 6.36689 5.33398 5.9987 5.33398C5.63051 5.33398 5.33203 5.63246 5.33203 6.00065V6.66732H6.66536V6.00065Z" fill="#101828"/>
<path d="M1.9987 5.33398C1.63051 5.33398 1.33203 5.63246 1.33203 6.00065C1.33203 6.36884 1.63051 6.66732 1.9987 6.66732H2.66536V5.33398H1.9987Z" fill="#101828"/>
</svg>
