<svg width="16" height="16" viewBox="0 0 16 16" fill="currentColor" xmlns="http://www.w3.org/2000/svg">
<path d="M1.69967 1.00003C1.51412 1.00003 1.33607 1.06714 1.20487 1.18646C1.07368 1.30578 1 1.46761 1 1.63646V13.0909C1 13.5972 1.22116 14.0827 1.61474 14.4408C2.00845 14.7989 2.54237 15 3.09912 15H14.2943C14.5443 15 14.7753 14.8787 14.9003 14.6818C15.0252 14.4849 15.0252 14.2423 14.9003 14.0455C14.7753 13.8486 14.5443 13.7272 14.2943 13.7272H3.09912C2.91345 13.7272 2.73552 13.6602 2.60432 13.5408C2.47313 13.4215 2.39933 13.2597 2.39933 13.0909V11.6591L4.49845 10.0937L7.29723 12.1492L7.29735 12.1491C7.48407 12.2847 7.716 12.3587 7.95509 12.359C8.2108 12.3606 8.45879 12.2795 8.65476 12.13L13.3289 8.48366C13.4703 8.37457 13.5584 8.21893 13.5737 8.05093C13.5892 7.87675 13.5252 7.70449 13.3968 7.57451C13.2686 7.44454 13.0871 7.36836 12.895 7.36368C12.7283 7.36368 12.567 7.4178 12.4403 7.51634L7.99706 10.9909L5.19828 8.93541C4.99985 8.79255 4.75117 8.72021 4.4985 8.73172C4.2456 8.72586 3.99819 8.80011 3.79883 8.9418L2.39938 10.0172V6.409L4.43558 5.02173L6.59761 6.96893C6.79183 7.15217 7.0596 7.25562 7.33932 7.25529C7.59433 7.25924 7.84242 7.1803 8.03899 7.03264L11.5376 4.35355L13.8746 5.96347C13.9958 6.04614 14.1431 6.09078 14.2945 6.09078C14.5147 6.09078 14.7221 5.9965 14.8543 5.83627C14.9678 5.70236 15.0181 5.53298 14.9941 5.36528C14.9681 5.19791 14.87 5.04673 14.7213 4.94534L12.1393 3.18904C11.9556 3.06418 11.7321 2.99717 11.5026 2.99813C11.2479 2.98886 10.9987 3.06599 10.8029 3.2145L7.30431 5.86815L5.19829 3.92721C5.01286 3.75612 4.76255 3.65598 4.49851 3.64712C4.27173 3.64894 4.0514 3.71573 3.86877 3.83803L2.39939 4.81804V1.63643C2.39939 1.46757 2.32571 1.30575 2.19452 1.18643C2.06333 1.06711 1.88529 1 1.69973 1L1.69967 1.00003Z" fill="currentColor"/>
</svg>
