<svg width="16" height="16" viewBox="0 0 16 16" fill="none" xmlns="http://www.w3.org/2000/svg">
<path d="M4.66536 6.00065C4.66536 5.63246 4.36689 5.33398 3.9987 5.33398C3.63051 5.33398 3.33203 5.63246 3.33203 6.00065V6.58331C3.54511 6.63815 3.7685 6.66732 3.9987 6.66732C4.24009 6.66732 4.47399 6.63524 4.69638 6.57512C4.67581 6.38521 4.66536 6.19347 4.66536 6.00065Z" fill="#101828"/>
<path fill-rule="evenodd" clip-rule="evenodd" d="M3.9987 2.66732C3.26232 2.66732 2.66536 3.26427 2.66536 4.00065C2.66536 4.73703 3.26232 5.33398 3.9987 5.33398C3.63051 5.33398 3.33203 5.63246 3.33203 6.00065V6.58331C2.18188 6.28728 1.33203 5.24321 1.33203 4.00065C1.33203 2.52789 2.52594 1.33398 3.9987 1.33398C5.47146 1.33398 6.66536 2.52789 6.66536 4.00065C6.66536 5.23202 5.83076 6.26845 4.69638 6.57512C4.67581 6.38521 4.66536 6.19347 4.66536 6.00065C4.66536 5.63246 4.36689 5.33398 3.9987 5.33398C4.73508 5.33398 5.33203 4.73703 5.33203 4.00065C5.33203 3.26427 4.73508 2.66732 3.9987 2.66732ZM9.42423 11.303C8.22099 11.1726 7.09131 10.6357 6.22746 9.77189C5.36361 8.90804 4.8267 7.77836 4.69638 6.57512C4.47399 6.63524 4.24009 6.66732 3.9987 6.66732C3.7685 6.66732 3.54511 6.63815 3.33203 6.58331V14.0007C3.33203 14.3688 3.63051 14.6673 3.9987 14.6673C4.36689 14.6673 4.66536 14.3688 4.66536 14.0007V10.0007C4.85355 10.2516 5.06028 10.4903 5.28465 10.7147C6.39525 11.8253 7.85735 12.5036 9.40948 12.6412C9.69634 13.8046 10.7468 14.6673 11.9987 14.6673C13.4715 14.6673 14.6654 13.4734 14.6654 12.0007C14.6654 10.5279 13.4715 9.33398 11.9987 9.33398C10.7673 9.33398 9.7309 10.1686 9.42423 11.303ZM10.6654 12.0007C10.6654 11.6325 10.3669 11.334 9.9987 11.334C9.80588 11.334 9.61414 11.3235 9.42423 11.303C9.36411 11.5254 9.33203 11.7593 9.33203 12.0007C9.33203 12.2215 9.35888 12.436 9.40948 12.6412C9.60463 12.6586 9.80121 12.6673 9.9987 12.6673C10.3669 12.6673 10.6654 12.3688 10.6654 12.0007ZM10.6654 12.0007C10.6654 11.2643 11.2623 10.6673 11.9987 10.6673C12.7351 10.6673 13.332 11.2643 13.332 12.0007C13.332 12.737 12.7351 13.334 11.9987 13.334C11.2623 13.334 10.6654 12.737 10.6654 12.0007Z" fill="#101828"/>
<path d="M10.6654 12.0007C10.6654 11.6325 10.3669 11.334 9.9987 11.334C9.80588 11.334 9.61414 11.3235 9.42423 11.303C9.36411 11.5254 9.33203 11.7593 9.33203 12.0007C9.33203 12.2215 9.35888 12.436 9.40948 12.6412C9.60463 12.6586 9.80121 12.6673 9.9987 12.6673C10.3669 12.6673 10.6654 12.3688 10.6654 12.0007Z" fill="#101828"/>
</svg>
