<svg width="1287" height="503" viewBox="0 0 1287 503" fill="none" xmlns="http://www.w3.org/2000/svg">
<g filter="url(#filter0_d_15_1126)">
<g clip-path="url(#clip0_15_1126)">
<rect x="352" y="62" width="249" height="240" rx="3" fill="white"/>
<rect width="249" height="40" transform="translate(352 62)" fill="white"/>
<path d="M367.978 80H376.019C376.575 80 376.853 80.6719 376.459 81.0656L372.441 85.0875C372.197 85.3312 371.8 85.3312 371.556 85.0875L367.537 81.0656C367.144 80.6719 367.422 80 367.978 80Z" fill="#747576"/>
<path d="M404.618 87V82.968H407.292C409.056 82.968 410.064 81.834 410.064 80.098C410.064 78.362 409.056 77.228 407.292 77.228H403.26V87H404.618ZM404.618 78.432H407.236C408.104 78.432 408.622 78.908 408.622 79.748V80.448C408.622 81.288 408.104 81.764 407.236 81.764H404.618V78.432ZM417.645 87V85.894H416.833V82.072C416.833 80.504 415.797 79.58 413.991 79.58C412.647 79.58 411.793 80.21 411.359 80.994L412.143 81.708C412.521 81.092 413.067 80.672 413.921 80.672C415.013 80.672 415.531 81.218 415.531 82.184V82.842H414.159C412.087 82.842 411.065 83.598 411.065 84.998C411.065 86.328 411.947 87.168 413.459 87.168C414.495 87.168 415.265 86.692 415.559 85.796H415.629C415.727 86.496 416.105 87 416.903 87H417.645ZM413.753 86.118C412.941 86.118 412.423 85.74 412.423 85.068V84.788C412.423 84.116 412.955 83.752 414.145 83.752H415.531V84.872C415.531 85.6 414.775 86.118 413.753 86.118ZM420.501 87V82.24C420.501 81.526 421.201 81.05 422.405 81.05H423.049V79.748H422.615C421.453 79.748 420.809 80.42 420.571 81.134H420.501V79.748H419.199V87H420.501ZM430.387 87V85.894H429.575V82.072C429.575 80.504 428.539 79.58 426.733 79.58C425.389 79.58 424.535 80.21 424.101 80.994L424.885 81.708C425.263 81.092 425.809 80.672 426.663 80.672C427.755 80.672 428.273 81.218 428.273 82.184V82.842H426.901C424.829 82.842 423.807 83.598 423.807 84.998C423.807 86.328 424.689 87.168 426.201 87.168C427.237 87.168 428.007 86.692 428.301 85.796H428.371C428.469 86.496 428.847 87 429.645 87H430.387ZM426.495 86.118C425.683 86.118 425.165 85.74 425.165 85.068V84.788C425.165 84.116 425.697 83.752 426.887 83.752H428.273V84.872C428.273 85.6 427.517 86.118 426.495 86.118ZM433.243 87V82.03C433.243 81.148 434.041 80.714 434.867 80.714C435.861 80.714 436.323 81.344 436.323 82.562V87H437.625V82.03C437.625 81.148 438.395 80.714 439.235 80.714C440.243 80.714 440.705 81.344 440.705 82.562V87H442.007V82.366C442.007 80.602 441.139 79.58 439.683 79.58C438.465 79.58 437.737 80.266 437.471 81.05H437.443C437.065 80.028 436.211 79.58 435.245 79.58C434.279 79.58 433.621 80.196 433.313 80.938H433.243V79.748H431.941V87H433.243ZM446.99 87.168C448.348 87.168 449.398 86.538 449.902 85.6L449.062 84.886C448.67 85.628 448.012 86.062 447.102 86.062C445.8 86.062 445.058 85.194 445.058 83.99V83.696H450.168V83.15C450.168 81.12 449.02 79.58 446.99 79.58C444.974 79.58 443.7 81.078 443.7 83.374C443.7 85.67 444.974 87.168 446.99 87.168ZM446.99 80.63C448.082 80.63 448.782 81.442 448.782 82.646V82.786H445.058V82.688C445.058 81.498 445.856 80.63 446.99 80.63ZM455.093 87V85.894H453.651V80.854H455.205V79.748H453.651V77.746H452.475V79.076C452.475 79.566 452.321 79.748 451.831 79.748H451.187V80.854H452.349V85.628C452.349 86.468 452.825 87 453.721 87H455.093ZM458.249 87V82.24C458.249 81.526 458.949 81.05 460.153 81.05H460.797V79.748H460.363C459.201 79.748 458.557 80.42 458.319 81.134H458.249V79.748H456.947V87H458.249ZM462.855 78.236C463.401 78.236 463.639 77.942 463.639 77.522V77.326C463.639 76.906 463.401 76.612 462.855 76.612C462.309 76.612 462.071 76.906 462.071 77.326V77.522C462.071 77.942 462.309 78.236 462.855 78.236ZM462.197 87H463.499V79.748H462.197V87ZM470.805 87V85.894H466.605L470.693 80.742V79.748H465.247V80.854H469.139L465.121 85.922V87H470.805ZM475.059 87.168C476.417 87.168 477.467 86.538 477.971 85.6L477.131 84.886C476.739 85.628 476.081 86.062 475.171 86.062C473.869 86.062 473.127 85.194 473.127 83.99V83.696H478.237V83.15C478.237 81.12 477.089 79.58 475.059 79.58C473.043 79.58 471.769 81.078 471.769 83.374C471.769 85.67 473.043 87.168 475.059 87.168ZM475.059 80.63C476.151 80.63 476.851 81.442 476.851 82.646V82.786H473.127V82.688C473.127 81.498 473.925 80.63 475.059 80.63Z" fill="black"/>
<g clip-path="url(#clip1_15_1126)">
<path d="M578.867 77.4101C578.797 77.1279 578.443 77.0322 578.238 77.2379L575.914 79.5616L573.793 79.2082L573.439 77.0869L575.763 74.7632C575.97 74.5563 575.87 74.2038 575.586 74.1332C574.106 73.7663 572.475 74.1616 571.318 75.3185C570.079 76.5572 569.738 78.3529 570.254 79.9185L563.586 86.5869C562.805 87.3679 562.805 88.6341 563.586 89.4151C564.367 90.196 565.633 90.196 566.414 89.4151L573.077 82.7522C574.643 83.2744 576.435 82.9297 577.682 81.6829C578.84 80.5244 579.235 78.8916 578.867 77.4101V77.4101ZM565 88.7507C564.586 88.7507 564.25 88.4147 564.25 88.0007C564.25 87.5863 564.586 87.2507 565 87.2507C565.414 87.2507 565.75 87.5863 565.75 88.0007C565.75 88.4147 565.414 88.7507 565 88.7507Z" fill="#747576"/>
</g>
<rect width="249" height="2" transform="translate(352 102)" fill="#F0F1F2"/>
<path d="M374.8 142V136.32C374.8 135.312 375.712 134.816 376.656 134.816C377.792 134.816 378.32 135.536 378.32 136.928V142H379.808V136.32C379.808 135.312 380.688 134.816 381.648 134.816C382.8 134.816 383.328 135.536 383.328 136.928V142H384.816V136.704C384.816 134.688 383.824 133.52 382.16 133.52C380.768 133.52 379.936 134.304 379.632 135.2H379.6C379.168 134.032 378.192 133.52 377.088 133.52C375.984 133.52 375.232 134.224 374.88 135.072H374.8V133.712H373.312V142H374.8ZM390.527 142.192C392.783 142.192 394.303 140.496 394.303 137.856C394.303 135.216 392.783 133.52 390.527 133.52C388.271 133.52 386.751 135.216 386.751 137.856C386.751 140.496 388.271 142.192 390.527 142.192ZM390.527 140.912C389.231 140.912 388.335 140.096 388.335 138.48V137.232C388.335 135.616 389.231 134.8 390.527 134.8C391.823 134.8 392.719 135.616 392.719 137.232V138.48C392.719 140.096 391.823 140.912 390.527 140.912ZM401.576 142H403.064V130.16H401.576V135.072H401.512C401.128 134.048 400.264 133.52 399.128 133.52C397.048 133.52 395.8 135.168 395.8 137.856C395.8 140.544 397.048 142.192 399.128 142.192C400.264 142.192 401.128 141.664 401.512 140.64H401.576V142ZM399.56 140.896C398.232 140.896 397.384 139.952 397.384 138.56V137.152C397.384 135.76 398.232 134.816 399.56 134.816C400.68 134.816 401.576 135.456 401.576 136.336V139.376C401.576 140.256 400.68 140.896 399.56 140.896ZM408.855 142.192C410.407 142.192 411.607 141.472 412.183 140.4L411.223 139.584C410.775 140.432 410.023 140.928 408.983 140.928C407.495 140.928 406.647 139.936 406.647 138.56V138.224H412.487V137.6C412.487 135.28 411.175 133.52 408.855 133.52C406.551 133.52 405.095 135.232 405.095 137.856C405.095 140.48 406.551 142.192 408.855 142.192ZM408.855 134.72C410.103 134.72 410.903 135.648 410.903 137.024V137.184H406.647V137.072C406.647 135.712 407.559 134.72 408.855 134.72ZM417.187 142V140.736H416.003V130.16H414.515V140.48C414.515 141.392 415.043 142 416.067 142H417.187Z" fill="black"/>
<path d="M374.064 175.984C374.688 175.984 374.96 175.648 374.96 175.168V174.944C374.96 174.464 374.688 174.128 374.064 174.128C373.44 174.128 373.168 174.464 373.168 174.944V175.168C373.168 175.648 373.44 175.984 374.064 175.984ZM373.312 186H374.8V177.712H373.312V186ZM378.909 186V180.32C378.909 179.312 379.853 178.816 380.829 178.816C381.997 178.816 382.573 179.536 382.573 180.928V186H384.061V180.704C384.061 178.688 383.021 177.52 381.325 177.52C380.077 177.52 379.373 178.16 378.989 179.072H378.909V177.712H377.421V186H378.909ZM387.345 175.984C387.969 175.984 388.241 175.648 388.241 175.168V174.944C388.241 174.464 387.969 174.128 387.345 174.128C386.721 174.128 386.449 174.464 386.449 174.944V175.168C386.449 175.648 386.721 175.984 387.345 175.984ZM386.593 186H388.081V177.712H386.593V186ZM394.303 186V184.736H392.655V178.976H394.431V177.712H392.655V175.424H391.311V176.944C391.311 177.504 391.135 177.712 390.575 177.712H389.839V178.976H391.167V184.432C391.167 185.392 391.711 186 392.735 186H394.303ZM397.173 175.984C397.797 175.984 398.069 175.648 398.069 175.168V174.944C398.069 174.464 397.797 174.128 397.173 174.128C396.549 174.128 396.277 174.464 396.277 174.944V175.168C396.277 175.648 396.549 175.984 397.173 175.984ZM396.421 186H397.909V177.712H396.421V186ZM407.411 186V184.736H406.483V180.368C406.483 178.576 405.299 177.52 403.235 177.52C401.699 177.52 400.723 178.24 400.227 179.136L401.123 179.952C401.555 179.248 402.179 178.768 403.155 178.768C404.403 178.768 404.995 179.392 404.995 180.496V181.248H403.427C401.059 181.248 399.891 182.112 399.891 183.712C399.891 185.232 400.899 186.192 402.627 186.192C403.811 186.192 404.691 185.648 405.027 184.624H405.107C405.219 185.424 405.651 186 406.563 186H407.411ZM402.963 184.992C402.035 184.992 401.443 184.56 401.443 183.792V183.472C401.443 182.704 402.051 182.288 403.411 182.288H404.995V183.568C404.995 184.4 404.131 184.992 402.963 184.992ZM411.859 186V184.736H410.675V174.16H409.187V184.48C409.187 185.392 409.715 186 410.739 186H411.859ZM419.965 186.192C421.917 186.192 423.133 185.184 423.133 183.568C423.133 182.288 422.381 181.488 420.557 181.216L419.853 181.104C418.893 180.96 418.413 180.656 418.413 179.92C418.413 179.216 418.925 178.752 419.933 178.752C420.925 178.752 421.629 179.216 422.029 179.744L422.973 178.848C422.269 178.016 421.389 177.52 419.981 177.52C418.237 177.52 416.973 178.384 416.973 180.016C416.973 181.552 418.077 182.208 419.661 182.432L420.365 182.544C421.373 182.688 421.693 183.12 421.693 183.728C421.693 184.496 421.117 184.96 420.061 184.96C419.053 184.96 418.285 184.512 417.661 183.728L416.653 184.592C417.421 185.568 418.429 186.192 419.965 186.192ZM428.756 186V184.736H427.108V178.976H428.884V177.712H427.108V175.424H425.764V176.944C425.764 177.504 425.588 177.712 425.028 177.712H424.292V178.976H425.62V184.432C425.62 185.392 426.164 186 427.188 186H428.756ZM437.755 186V184.736H436.827V180.368C436.827 178.576 435.643 177.52 433.579 177.52C432.043 177.52 431.067 178.24 430.571 179.136L431.467 179.952C431.899 179.248 432.523 178.768 433.499 178.768C434.747 178.768 435.339 179.392 435.339 180.496V181.248H433.771C431.403 181.248 430.235 182.112 430.235 183.712C430.235 185.232 431.243 186.192 432.971 186.192C434.155 186.192 435.035 185.648 435.371 184.624H435.451C435.563 185.424 435.995 186 436.907 186H437.755ZM433.307 184.992C432.379 184.992 431.787 184.56 431.787 183.792V183.472C431.787 182.704 432.395 182.288 433.755 182.288H435.339V183.568C435.339 184.4 434.475 184.992 433.307 184.992ZM443.115 186V184.736H441.467V178.976H443.243V177.712H441.467V175.424H440.123V176.944C440.123 177.504 439.947 177.712 439.387 177.712H438.651V178.976H439.979V184.432C439.979 185.392 440.523 186 441.547 186H443.115ZM448.339 186.192C449.891 186.192 451.091 185.472 451.667 184.4L450.707 183.584C450.259 184.432 449.507 184.928 448.467 184.928C446.979 184.928 446.131 183.936 446.131 182.56V182.224H451.971V181.6C451.971 179.28 450.659 177.52 448.339 177.52C446.035 177.52 444.579 179.232 444.579 181.856C444.579 184.48 446.035 186.192 448.339 186.192ZM448.339 178.72C449.587 178.72 450.387 179.648 450.387 181.024V181.184H446.131V181.072C446.131 179.712 447.043 178.72 448.339 178.72ZM461.333 186L464.213 177.712H462.789L461.413 181.68L460.533 184.544H460.437L459.573 181.68L458.213 177.712H456.725L459.589 186H461.333ZM472.52 186V184.736H471.592V180.368C471.592 178.576 470.408 177.52 468.344 177.52C466.808 177.52 465.832 178.24 465.336 179.136L466.232 179.952C466.664 179.248 467.288 178.768 468.264 178.768C469.512 178.768 470.104 179.392 470.104 180.496V181.248H468.536C466.168 181.248 465 182.112 465 183.712C465 185.232 466.008 186.192 467.736 186.192C468.92 186.192 469.8 185.648 470.136 184.624H470.216C470.328 185.424 470.76 186 471.672 186H472.52ZM468.072 184.992C467.144 184.992 466.552 184.56 466.552 183.792V183.472C466.552 182.704 467.16 182.288 468.52 182.288H470.104V183.568C470.104 184.4 469.24 184.992 468.072 184.992ZM476.968 186V184.736H475.784V174.16H474.296V184.48C474.296 185.392 474.824 186 475.848 186H476.968ZM483.822 186H485.31V177.712H483.822V183.376C483.822 184.416 482.862 184.896 481.918 184.896C480.75 184.896 480.158 184.176 480.158 182.784V177.712H478.67V183.008C478.67 185.024 479.726 186.192 481.422 186.192C482.798 186.192 483.438 185.44 483.742 184.64H483.822V186ZM491.105 186.192C492.657 186.192 493.857 185.472 494.433 184.4L493.473 183.584C493.025 184.432 492.273 184.928 491.233 184.928C489.745 184.928 488.897 183.936 488.897 182.56V182.224H494.737V181.6C494.737 179.28 493.425 177.52 491.105 177.52C488.801 177.52 487.345 179.232 487.345 181.856C487.345 184.48 488.801 186.192 491.105 186.192ZM491.105 178.72C492.353 178.72 493.153 179.648 493.153 181.024V181.184H488.897V181.072C488.897 179.712 489.809 178.72 491.105 178.72ZM499.309 186.192C501.261 186.192 502.477 185.184 502.477 183.568C502.477 182.288 501.725 181.488 499.901 181.216L499.197 181.104C498.237 180.96 497.757 180.656 497.757 179.92C497.757 179.216 498.269 178.752 499.277 178.752C500.269 178.752 500.973 179.216 501.373 179.744L502.317 178.848C501.613 178.016 500.733 177.52 499.325 177.52C497.581 177.52 496.317 178.384 496.317 180.016C496.317 181.552 497.421 182.208 499.005 182.432L499.709 182.544C500.717 182.688 501.037 183.12 501.037 183.728C501.037 184.496 500.461 184.96 499.405 184.96C498.397 184.96 497.629 184.512 497.005 183.728L495.997 184.592C496.765 185.568 497.773 186.192 499.309 186.192Z" fill="black"/>
<path d="M373.312 233.2H374.8V228.64H374.864C375.248 229.664 376.112 230.192 377.248 230.192C379.328 230.192 380.576 228.544 380.576 225.856C380.576 223.168 379.328 221.52 377.248 221.52C376.112 221.52 375.248 222.048 374.864 223.072H374.8V221.712H373.312V233.2ZM376.816 228.896C375.696 228.896 374.8 228.256 374.8 227.376V224.336C374.8 223.456 375.696 222.816 376.816 222.816C378.144 222.816 378.992 223.76 378.992 225.152V226.56C378.992 227.952 378.144 228.896 376.816 228.896ZM389.551 230V228.736H388.623V224.368C388.623 222.576 387.439 221.52 385.375 221.52C383.839 221.52 382.863 222.24 382.367 223.136L383.263 223.952C383.695 223.248 384.319 222.768 385.295 222.768C386.543 222.768 387.135 223.392 387.135 224.496V225.248H385.567C383.199 225.248 382.031 226.112 382.031 227.712C382.031 229.232 383.039 230.192 384.767 230.192C385.951 230.192 386.831 229.648 387.167 228.624H387.247C387.359 229.424 387.791 230 388.703 230H389.551ZM385.103 228.992C384.175 228.992 383.583 228.56 383.583 227.792V227.472C383.583 226.704 384.191 226.288 385.551 226.288H387.135V227.568C387.135 228.4 386.271 228.992 385.103 228.992ZM392.816 230V224.56C392.816 223.744 393.616 223.2 394.992 223.2H395.728V221.712H395.232C393.904 221.712 393.168 222.48 392.896 223.296H392.816V221.712H391.328V230H392.816ZM404.114 230V228.736H403.186V224.368C403.186 222.576 402.002 221.52 399.938 221.52C398.402 221.52 397.426 222.24 396.93 223.136L397.826 223.952C398.258 223.248 398.882 222.768 399.858 222.768C401.106 222.768 401.698 223.392 401.698 224.496V225.248H400.13C397.762 225.248 396.594 226.112 396.594 227.712C396.594 229.232 397.602 230.192 399.33 230.192C400.514 230.192 401.394 229.648 401.73 228.624H401.81C401.922 229.424 402.354 230 403.266 230H404.114ZM399.666 228.992C398.738 228.992 398.146 228.56 398.146 227.792V227.472C398.146 226.704 398.754 226.288 400.114 226.288H401.698V227.568C401.698 228.4 400.834 228.992 399.666 228.992ZM407.378 230V224.32C407.378 223.312 408.29 222.816 409.234 222.816C410.37 222.816 410.898 223.536 410.898 224.928V230H412.386V224.32C412.386 223.312 413.266 222.816 414.226 222.816C415.378 222.816 415.906 223.536 415.906 224.928V230H417.394V224.704C417.394 222.688 416.402 221.52 414.738 221.52C413.346 221.52 412.514 222.304 412.21 223.2H412.178C411.746 222.032 410.77 221.52 409.666 221.52C408.562 221.52 407.81 222.224 407.458 223.072H407.378V221.712H405.89V230H407.378ZM423.089 230.192C424.641 230.192 425.841 229.472 426.417 228.4L425.457 227.584C425.009 228.432 424.257 228.928 423.217 228.928C421.729 228.928 420.881 227.936 420.881 226.56V226.224H426.721V225.6C426.721 223.28 425.409 221.52 423.089 221.52C420.785 221.52 419.329 223.232 419.329 225.856C419.329 228.48 420.785 230.192 423.089 230.192ZM423.089 222.72C424.337 222.72 425.137 223.648 425.137 225.024V225.184H420.881V225.072C420.881 223.712 421.793 222.72 423.089 222.72ZM432.35 230V228.736H430.702V222.976H432.478V221.712H430.702V219.424H429.358V220.944C429.358 221.504 429.182 221.712 428.622 221.712H427.886V222.976H429.214V228.432C429.214 229.392 429.758 230 430.782 230H432.35ZM437.574 230.192C439.126 230.192 440.326 229.472 440.902 228.4L439.942 227.584C439.494 228.432 438.742 228.928 437.702 228.928C436.214 228.928 435.366 227.936 435.366 226.56V226.224H441.206V225.6C441.206 223.28 439.894 221.52 437.574 221.52C435.27 221.52 433.814 223.232 433.814 225.856C433.814 228.48 435.27 230.192 437.574 230.192ZM437.574 222.72C438.822 222.72 439.622 223.648 439.622 225.024V225.184H435.366V225.072C435.366 223.712 436.278 222.72 437.574 222.72ZM444.722 230V224.56C444.722 223.744 445.522 223.2 446.898 223.2H447.634V221.712H447.138C445.81 221.712 445.074 222.48 444.802 223.296H444.722V221.712H443.234V230H444.722ZM456.567 230L459.447 221.712H458.023L456.647 225.68L455.767 228.544H455.671L454.807 225.68L453.447 221.712H451.959L454.823 230H456.567ZM467.755 230V228.736H466.827V224.368C466.827 222.576 465.643 221.52 463.579 221.52C462.043 221.52 461.067 222.24 460.571 223.136L461.467 223.952C461.899 223.248 462.523 222.768 463.499 222.768C464.747 222.768 465.339 223.392 465.339 224.496V225.248H463.771C461.403 225.248 460.235 226.112 460.235 227.712C460.235 229.232 461.243 230.192 462.971 230.192C464.155 230.192 465.035 229.648 465.371 228.624H465.451C465.563 229.424 465.995 230 466.907 230H467.755ZM463.307 228.992C462.379 228.992 461.787 228.56 461.787 227.792V227.472C461.787 226.704 462.395 226.288 463.755 226.288H465.339V227.568C465.339 228.4 464.475 228.992 463.307 228.992ZM472.203 230V228.736H471.019V218.16H469.531V228.48C469.531 229.392 470.059 230 471.083 230H472.203ZM479.056 230H480.544V221.712H479.056V227.376C479.056 228.416 478.096 228.896 477.152 228.896C475.984 228.896 475.392 228.176 475.392 226.784V221.712H473.904V227.008C473.904 229.024 474.96 230.192 476.656 230.192C478.032 230.192 478.672 229.44 478.976 228.64H479.056V230ZM486.339 230.192C487.891 230.192 489.091 229.472 489.667 228.4L488.707 227.584C488.259 228.432 487.507 228.928 486.467 228.928C484.979 228.928 484.131 227.936 484.131 226.56V226.224H489.971V225.6C489.971 223.28 488.659 221.52 486.339 221.52C484.035 221.52 482.579 223.232 482.579 225.856C482.579 228.48 484.035 230.192 486.339 230.192ZM486.339 222.72C487.587 222.72 488.387 223.648 488.387 225.024V225.184H484.131V225.072C484.131 223.712 485.043 222.72 486.339 222.72ZM494.544 230.192C496.496 230.192 497.712 229.184 497.712 227.568C497.712 226.288 496.96 225.488 495.136 225.216L494.432 225.104C493.472 224.96 492.992 224.656 492.992 223.92C492.992 223.216 493.504 222.752 494.512 222.752C495.504 222.752 496.208 223.216 496.608 223.744L497.552 222.848C496.848 222.016 495.968 221.52 494.56 221.52C492.816 221.52 491.552 222.384 491.552 224.016C491.552 225.552 492.656 226.208 494.24 226.432L494.944 226.544C495.952 226.688 496.272 227.12 496.272 227.728C496.272 228.496 495.696 228.96 494.64 228.96C493.632 228.96 492.864 228.512 492.24 227.728L491.232 228.592C492 229.568 493.008 230.192 494.544 230.192Z" fill="black"/>
<rect width="249" height="2" transform="translate(352 256)" fill="#F0F1F2"/>
<path d="M435.312 289.2H436.8V284.64H436.864C437.248 285.664 438.112 286.192 439.248 286.192C441.328 286.192 442.576 284.544 442.576 281.856C442.576 279.168 441.328 277.52 439.248 277.52C438.112 277.52 437.248 278.048 436.864 279.072H436.8V277.712H435.312V289.2ZM438.816 284.896C437.696 284.896 436.8 284.256 436.8 283.376V280.336C436.8 279.456 437.696 278.816 438.816 278.816C440.144 278.816 440.992 279.76 440.992 281.152V282.56C440.992 283.952 440.144 284.896 438.816 284.896ZM451.551 286V284.736H450.623V280.368C450.623 278.576 449.439 277.52 447.375 277.52C445.839 277.52 444.863 278.24 444.367 279.136L445.263 279.952C445.695 279.248 446.319 278.768 447.295 278.768C448.543 278.768 449.135 279.392 449.135 280.496V281.248H447.567C445.199 281.248 444.031 282.112 444.031 283.712C444.031 285.232 445.039 286.192 446.767 286.192C447.951 286.192 448.831 285.648 449.167 284.624H449.247C449.359 285.424 449.791 286 450.703 286H451.551ZM447.103 284.992C446.175 284.992 445.583 284.56 445.583 283.792V283.472C445.583 282.704 446.191 282.288 447.551 282.288H449.135V283.568C449.135 284.4 448.271 284.992 447.103 284.992ZM454.816 286V280.56C454.816 279.744 455.616 279.2 456.992 279.2H457.728V277.712H457.232C455.904 277.712 455.168 278.48 454.896 279.296H454.816V277.712H453.328V286H454.816ZM466.114 286V284.736H465.186V280.368C465.186 278.576 464.002 277.52 461.938 277.52C460.402 277.52 459.426 278.24 458.93 279.136L459.826 279.952C460.258 279.248 460.882 278.768 461.858 278.768C463.106 278.768 463.698 279.392 463.698 280.496V281.248H462.13C459.762 281.248 458.594 282.112 458.594 283.712C458.594 285.232 459.602 286.192 461.33 286.192C462.514 286.192 463.394 285.648 463.73 284.624H463.81C463.922 285.424 464.354 286 465.266 286H466.114ZM461.666 284.992C460.738 284.992 460.146 284.56 460.146 283.792V283.472C460.146 282.704 460.754 282.288 462.114 282.288H463.698V283.568C463.698 284.4 462.834 284.992 461.666 284.992ZM469.378 286V280.32C469.378 279.312 470.29 278.816 471.234 278.816C472.37 278.816 472.898 279.536 472.898 280.928V286H474.386V280.32C474.386 279.312 475.266 278.816 476.226 278.816C477.378 278.816 477.906 279.536 477.906 280.928V286H479.394V280.704C479.394 278.688 478.402 277.52 476.738 277.52C475.346 277.52 474.514 278.304 474.21 279.2H474.178C473.746 278.032 472.77 277.52 471.666 277.52C470.562 277.52 469.81 278.224 469.458 279.072H469.378V277.712H467.89V286H469.378ZM485.089 286.192C486.641 286.192 487.841 285.472 488.417 284.4L487.457 283.584C487.009 284.432 486.257 284.928 485.217 284.928C483.729 284.928 482.881 283.936 482.881 282.56V282.224H488.721V281.6C488.721 279.28 487.409 277.52 485.089 277.52C482.785 277.52 481.329 279.232 481.329 281.856C481.329 284.48 482.785 286.192 485.089 286.192ZM485.089 278.72C486.337 278.72 487.137 279.648 487.137 281.024V281.184H482.881V281.072C482.881 279.712 483.793 278.72 485.089 278.72ZM494.35 286V284.736H492.702V278.976H494.478V277.712H492.702V275.424H491.358V276.944C491.358 277.504 491.182 277.712 490.622 277.712H489.886V278.976H491.214V284.432C491.214 285.392 491.758 286 492.782 286H494.35ZM497.956 286V280.56C497.956 279.744 498.756 279.2 500.132 279.2H500.868V277.712H500.372C499.044 277.712 498.308 278.48 498.036 279.296H497.956V277.712H496.468V286H497.956ZM503.22 275.984C503.844 275.984 504.116 275.648 504.116 275.168V274.944C504.116 274.464 503.844 274.128 503.22 274.128C502.596 274.128 502.324 274.464 502.324 274.944V275.168C502.324 275.648 502.596 275.984 503.22 275.984ZM502.468 286H503.956V277.712H502.468V286ZM512.306 286V284.736H507.506L512.178 278.848V277.712H505.954V278.976H510.402L505.81 284.768V286H512.306ZM517.168 286.192C518.72 286.192 519.92 285.472 520.496 284.4L519.536 283.584C519.088 284.432 518.336 284.928 517.296 284.928C515.808 284.928 514.96 283.936 514.96 282.56V282.224H520.8V281.6C520.8 279.28 519.488 277.52 517.168 277.52C514.864 277.52 513.408 279.232 513.408 281.856C513.408 284.48 514.864 286.192 517.168 286.192ZM517.168 278.72C518.416 278.72 519.216 279.648 519.216 281.024V281.184H514.96V281.072C514.96 279.712 515.872 278.72 517.168 278.72ZM528.076 286H529.564V274.16H528.076V279.072H528.012C527.628 278.048 526.764 277.52 525.628 277.52C523.548 277.52 522.3 279.168 522.3 281.856C522.3 284.544 523.548 286.192 525.628 286.192C526.764 286.192 527.628 285.664 528.012 284.64H528.076V286ZM526.06 284.896C524.732 284.896 523.884 283.952 523.884 282.56V281.152C523.884 279.76 524.732 278.816 526.06 278.816C527.18 278.816 528.076 279.456 528.076 280.336V283.376C528.076 284.256 527.18 284.896 526.06 284.896ZM537.456 286V280.32C537.456 279.312 538.368 278.816 539.312 278.816C540.448 278.816 540.976 279.536 540.976 280.928V286H542.464V280.32C542.464 279.312 543.344 278.816 544.304 278.816C545.456 278.816 545.984 279.536 545.984 280.928V286H547.472V280.704C547.472 278.688 546.48 277.52 544.816 277.52C543.424 277.52 542.592 278.304 542.288 279.2H542.256C541.824 278.032 540.848 277.52 539.744 277.52C538.64 277.52 537.888 278.224 537.536 279.072H537.456V277.712H535.968V286H537.456ZM553.184 286.192C555.44 286.192 556.96 284.496 556.96 281.856C556.96 279.216 555.44 277.52 553.184 277.52C550.928 277.52 549.408 279.216 549.408 281.856C549.408 284.496 550.928 286.192 553.184 286.192ZM553.184 284.912C551.888 284.912 550.992 284.096 550.992 282.48V281.232C550.992 279.616 551.888 278.8 553.184 278.8C554.48 278.8 555.376 279.616 555.376 281.232V282.48C555.376 284.096 554.48 284.912 553.184 284.912ZM564.232 286H565.72V274.16H564.232V279.072H564.168C563.784 278.048 562.92 277.52 561.784 277.52C559.704 277.52 558.456 279.168 558.456 281.856C558.456 284.544 559.704 286.192 561.784 286.192C562.92 286.192 563.784 285.664 564.168 284.64H564.232V286ZM562.216 284.896C560.888 284.896 560.04 283.952 560.04 282.56V281.152C560.04 279.76 560.888 278.816 562.216 278.816C563.336 278.816 564.232 279.456 564.232 280.336V283.376C564.232 284.256 563.336 284.896 562.216 284.896ZM571.511 286.192C573.063 286.192 574.263 285.472 574.839 284.4L573.879 283.584C573.431 284.432 572.679 284.928 571.639 284.928C570.151 284.928 569.303 283.936 569.303 282.56V282.224H575.143V281.6C575.143 279.28 573.831 277.52 571.511 277.52C569.207 277.52 567.751 279.232 567.751 281.856C567.751 284.48 569.207 286.192 571.511 286.192ZM571.511 278.72C572.759 278.72 573.559 279.648 573.559 281.024V281.184H569.303V281.072C569.303 279.712 570.215 278.72 571.511 278.72ZM579.843 286V284.736H578.659V274.16H577.171V284.48C577.171 285.392 577.699 286 578.723 286H579.843Z" fill="black"/>
</g>
</g>
<g filter="url(#filter1_d_15_1126)">
<rect x="64" y="115" width="244" height="40" rx="3" fill="white"/>
<path d="M81 139.021V130.98C81 130.423 81.6732 130.144 82.0669 130.538L86.0876 134.558C86.3317 134.802 86.3317 135.198 86.0876 135.442L82.0669 139.463C81.6732 139.857 81 139.578 81 139.021Z" fill="#747576"/>
<path d="M121.56 140H122.778V134.89H119.376V136.066H121.462V136.948C121.462 138.292 120.384 138.95 119.082 138.95C117.332 138.95 116.24 137.774 116.24 135.898V134.316C116.24 132.44 117.346 131.278 118.998 131.278C120.202 131.278 121.056 131.908 121.476 132.888L122.596 132.23C121.938 130.914 120.734 130.06 118.998 130.06C116.464 130.06 114.784 131.866 114.784 135.128C114.784 138.404 116.464 140.168 118.83 140.168C120.314 140.168 121.294 139.468 121.504 138.544H121.56V140ZM125.595 131.236C126.141 131.236 126.379 130.942 126.379 130.522V130.326C126.379 129.906 126.141 129.612 125.595 129.612C125.049 129.612 124.811 129.906 124.811 130.326V130.522C124.811 130.942 125.049 131.236 125.595 131.236ZM124.937 140H126.239V132.748H124.937V140ZM131.319 140.168C133.293 140.168 134.623 138.684 134.623 136.374C134.623 134.064 133.293 132.58 131.319 132.58C129.345 132.58 128.015 134.064 128.015 136.374C128.015 138.684 129.345 140.168 131.319 140.168ZM131.319 139.048C130.185 139.048 129.401 138.334 129.401 136.92V135.828C129.401 134.414 130.185 133.7 131.319 133.7C132.453 133.7 133.237 134.414 133.237 135.828V136.92C133.237 138.334 132.453 139.048 131.319 139.048ZM137.696 140V135.24C137.696 134.526 138.396 134.05 139.6 134.05H140.244V132.748H139.81C138.648 132.748 138.004 133.42 137.766 134.134H137.696V132.748H136.394V140H137.696ZM146.154 140H147.456V129.64H146.154V133.938H146.098C145.762 133.042 145.006 132.58 144.012 132.58C142.192 132.58 141.1 134.022 141.1 136.374C141.1 138.726 142.192 140.168 144.012 140.168C145.006 140.168 145.762 139.706 146.098 138.81H146.154V140ZM144.39 139.034C143.228 139.034 142.486 138.208 142.486 136.99V135.758C142.486 134.54 143.228 133.714 144.39 133.714C145.37 133.714 146.154 134.274 146.154 135.044V137.704C146.154 138.474 145.37 139.034 144.39 139.034ZM155.772 140V138.894H154.96V135.072C154.96 133.504 153.924 132.58 152.118 132.58C150.774 132.58 149.92 133.21 149.486 133.994L150.27 134.708C150.648 134.092 151.194 133.672 152.048 133.672C153.14 133.672 153.658 134.218 153.658 135.184V135.842H152.286C150.214 135.842 149.192 136.598 149.192 137.998C149.192 139.328 150.074 140.168 151.586 140.168C152.622 140.168 153.392 139.692 153.686 138.796H153.756C153.854 139.496 154.232 140 155.03 140H155.772ZM151.88 139.118C151.068 139.118 150.55 138.74 150.55 138.068V137.788C150.55 137.116 151.082 136.752 152.272 136.752H153.658V137.872C153.658 138.6 152.902 139.118 151.88 139.118ZM158.628 140V135.03C158.628 134.148 159.454 133.714 160.308 133.714C161.33 133.714 161.834 134.344 161.834 135.562V140H163.136V135.366C163.136 133.602 162.226 132.58 160.742 132.58C159.65 132.58 159.034 133.14 158.698 133.938H158.628V132.748H157.326V140H158.628ZM168.137 140.168C170.111 140.168 171.441 138.684 171.441 136.374C171.441 134.064 170.111 132.58 168.137 132.58C166.163 132.58 164.833 134.064 164.833 136.374C164.833 138.684 166.163 140.168 168.137 140.168ZM168.137 139.048C167.003 139.048 166.219 138.334 166.219 136.92V135.828C166.219 134.414 167.003 133.7 168.137 133.7C169.271 133.7 170.055 134.414 170.055 135.828V136.92C170.055 138.334 169.271 139.048 168.137 139.048ZM180.049 136.416V135.058H176.297V136.416H180.049ZM188.361 140.168C190.531 140.168 191.805 138.992 191.805 137.186C191.805 135.688 190.951 134.834 189.033 134.414L188.207 134.246C187.045 133.994 186.499 133.602 186.499 132.734C186.499 131.768 187.213 131.25 188.403 131.25C189.509 131.25 190.223 131.698 190.741 132.412L191.735 131.614C190.993 130.606 189.943 130.06 188.473 130.06C186.471 130.06 185.155 131.054 185.155 132.79C185.155 134.316 186.121 135.142 187.955 135.52L188.781 135.688C189.999 135.954 190.461 136.402 190.461 137.256C190.461 138.292 189.747 138.978 188.417 138.978C187.325 138.978 186.513 138.502 185.827 137.62L184.861 138.488C185.645 139.524 186.765 140.168 188.361 140.168ZM197.404 140V138.852H196.046V131.376H197.404V130.228H193.33V131.376H194.688V138.852H193.33V140H197.404ZM199.479 140H202.825C205.303 140 206.899 138.376 206.899 135.114C206.899 131.852 205.303 130.228 202.825 130.228H199.479V140ZM200.837 138.796V131.432H202.825C204.379 131.432 205.443 132.468 205.443 134.33V135.898C205.443 137.76 204.379 138.796 202.825 138.796H200.837ZM216.225 140L212.851 130.228H211.143L207.755 140H209.127L210.065 137.242H213.873L214.797 140H216.225ZM213.537 136.038H210.387L211.927 131.474H211.997L213.537 136.038ZM219.157 135.94H221.299L223.329 140H224.855L222.685 135.8C223.945 135.478 224.603 134.512 224.603 133.098C224.603 131.306 223.553 130.228 221.831 130.228H217.799V140H219.157V135.94ZM219.157 134.764V131.432H221.775C222.643 131.432 223.161 131.908 223.161 132.748V133.448C223.161 134.288 222.643 134.764 221.775 134.764H219.157ZM228.608 140H229.966V131.432H232.99V130.228H225.584V131.432H228.608V140ZM240.636 140H241.994V130.228H240.636V134.456H235.932V130.228H234.574V140H235.932V135.66H240.636V140ZM250.604 140V138.796H245.872V135.66H250.254V134.456H245.872V131.432H250.604V130.228H244.514V140H250.604Z" fill="black"/>
<g clip-path="url(#clip2_15_1126)">
<path d="M291 133C292.103 133 293 132.103 293 131C293 129.897 292.103 129 291 129C289.897 129 289 129.897 289 131C289 132.103 289.897 133 291 133ZM275 134.5C273.897 134.5 273 135.397 273 136.5C273 137.603 273.897 138.5 275 138.5C276.103 138.5 277 137.603 277 136.5C277 135.397 276.103 134.5 275 134.5ZM289.05 133.338L288.45 132.537L286.95 133.662L287.55 134.463L289.05 133.338ZM291 139C290.55 139 290.138 139.156 289.803 139.406L286.803 137.606C286.922 137.256 287 136.887 287 136.497C287 134.562 285.434 132.997 283.5 132.997C283.238 132.997 282.981 133.031 282.738 133.088L281.462 130.356C281.794 130 282 129.525 282 129C282 127.897 281.103 127 280 127C278.897 127 278 127.897 278 129C278 130.103 278.897 131 280 131C280.034 131 280.066 130.991 280.1 130.991L281.381 133.734C280.547 134.372 280 135.369 280 136.5C280 138.434 281.566 140 283.5 140C284.503 140 285.4 139.572 286.038 138.897L289.031 140.694C289.016 140.794 289 140.897 289 141C289 142.103 289.897 143 291 143C292.103 143 293 142.103 293 141C293 139.897 292.103 139 291 139ZM283.5 138C282.672 138 282 137.328 282 136.5C282 135.672 282.672 135 283.5 135C284.328 135 285 135.672 285 136.5C285 137.328 284.328 138 283.5 138ZM277.75 137H279.25V136H277.75V137Z" fill="#747576"/>
</g>
</g>
<g filter="url(#filter2_d_15_1126)">
<rect x="64" y="159" width="244" height="40" rx="3" fill="white"/>
<path d="M81 183.021V174.98C81 174.423 81.6732 174.144 82.0669 174.538L86.0876 178.558C86.3317 178.802 86.3317 179.198 86.0876 179.442L82.0669 183.463C81.6732 183.857 81 183.578 81 183.021Z" fill="#747576"/>
<path d="M115.806 175.236C116.352 175.236 116.59 174.942 116.59 174.522V174.326C116.59 173.906 116.352 173.612 115.806 173.612C115.26 173.612 115.022 173.906 115.022 174.326V174.522C115.022 174.942 115.26 175.236 115.806 175.236ZM115.148 184H116.45V176.748H115.148V184ZM120.046 184V179.03C120.046 178.148 120.872 177.714 121.726 177.714C122.748 177.714 123.252 178.344 123.252 179.562V184H124.554V179.366C124.554 177.602 123.644 176.58 122.16 176.58C121.068 176.58 120.452 177.14 120.116 177.938H120.046V176.748H118.744V184H120.046ZM127.427 175.236C127.973 175.236 128.211 174.942 128.211 174.522V174.326C128.211 173.906 127.973 173.612 127.427 173.612C126.881 173.612 126.643 173.906 126.643 174.326V174.522C126.643 174.942 126.881 175.236 127.427 175.236ZM126.769 184H128.071V176.748H126.769V184ZM133.515 184V182.894H132.073V177.854H133.627V176.748H132.073V174.746H130.897V176.076C130.897 176.566 130.743 176.748 130.253 176.748H129.609V177.854H130.771V182.628C130.771 183.468 131.247 184 132.143 184H133.515ZM136.027 175.236C136.573 175.236 136.811 174.942 136.811 174.522V174.326C136.811 173.906 136.573 173.612 136.027 173.612C135.481 173.612 135.243 173.906 135.243 174.326V174.522C135.243 174.942 135.481 175.236 136.027 175.236ZM135.369 184H136.671V176.748H135.369V184ZM144.984 184V182.894H144.172V179.072C144.172 177.504 143.136 176.58 141.33 176.58C139.986 176.58 139.132 177.21 138.698 177.994L139.482 178.708C139.86 178.092 140.406 177.672 141.26 177.672C142.352 177.672 142.87 178.218 142.87 179.184V179.842H141.498C139.426 179.842 138.404 180.598 138.404 181.998C138.404 183.328 139.286 184.168 140.798 184.168C141.834 184.168 142.604 183.692 142.898 182.796H142.968C143.066 183.496 143.444 184 144.242 184H144.984ZM141.092 183.118C140.28 183.118 139.762 182.74 139.762 182.068V181.788C139.762 181.116 140.294 180.752 141.484 180.752H142.87V181.872C142.87 182.6 142.114 183.118 141.092 183.118ZM148.877 184V182.894H147.841V173.64H146.539V182.67C146.539 183.468 147.001 184 147.897 184H148.877ZM156.982 186.38V185.26H149.94V186.38H156.982ZM160.68 184L163.2 176.748H161.954L160.75 180.22L159.98 182.726H159.896L159.14 180.22L157.95 176.748H156.648L159.154 184H160.68ZM170.469 184V182.894H169.657V179.072C169.657 177.504 168.621 176.58 166.815 176.58C165.471 176.58 164.617 177.21 164.183 177.994L164.967 178.708C165.345 178.092 165.891 177.672 166.745 177.672C167.837 177.672 168.355 178.218 168.355 179.184V179.842H166.983C164.911 179.842 163.889 180.598 163.889 181.998C163.889 183.328 164.771 184.168 166.283 184.168C167.319 184.168 168.089 183.692 168.383 182.796H168.453C168.551 183.496 168.929 184 169.727 184H170.469ZM166.577 183.118C165.765 183.118 165.247 182.74 165.247 182.068V181.788C165.247 181.116 165.779 180.752 166.969 180.752H168.355V181.872C168.355 182.6 167.599 183.118 166.577 183.118ZM174.361 184V182.894H173.325V173.64H172.023V182.67C172.023 183.468 172.485 184 173.381 184H174.361ZM180.357 184H181.659V176.748H180.357V181.704C180.357 182.614 179.517 183.034 178.691 183.034C177.669 183.034 177.151 182.404 177.151 181.186V176.748H175.849V181.382C175.849 183.146 176.773 184.168 178.257 184.168C179.461 184.168 180.021 183.51 180.287 182.81H180.357V184ZM186.731 184.168C188.089 184.168 189.139 183.538 189.643 182.6L188.803 181.886C188.411 182.628 187.753 183.062 186.843 183.062C185.541 183.062 184.799 182.194 184.799 180.99V180.696H189.909V180.15C189.909 178.12 188.761 176.58 186.731 176.58C184.715 176.58 183.441 178.078 183.441 180.374C183.441 182.67 184.715 184.168 186.731 184.168ZM186.731 177.63C187.823 177.63 188.523 178.442 188.523 179.646V179.786H184.799V179.688C184.799 178.498 185.597 177.63 186.731 177.63ZM193.909 184.168C195.617 184.168 196.681 183.286 196.681 181.872C196.681 180.752 196.023 180.052 194.427 179.814L193.811 179.716C192.971 179.59 192.551 179.324 192.551 178.68C192.551 178.064 192.999 177.658 193.881 177.658C194.749 177.658 195.365 178.064 195.715 178.526L196.541 177.742C195.925 177.014 195.155 176.58 193.923 176.58C192.397 176.58 191.291 177.336 191.291 178.764C191.291 180.108 192.257 180.682 193.643 180.878L194.259 180.976C195.141 181.102 195.421 181.48 195.421 182.012C195.421 182.684 194.917 183.09 193.993 183.09C193.111 183.09 192.439 182.698 191.893 182.012L191.011 182.768C191.683 183.622 192.565 184.168 193.909 184.168ZM199.262 184.168C199.906 184.168 200.186 183.804 200.186 183.3V183.09C200.186 182.586 199.906 182.222 199.262 182.222C198.618 182.222 198.338 182.586 198.338 183.09V183.3C198.338 183.804 198.618 184.168 199.262 184.168ZM204.955 184.168C206.341 184.168 207.293 183.496 207.755 182.404L206.803 181.816C206.439 182.6 205.837 183.048 204.955 183.048C203.709 183.048 203.079 182.194 203.079 181.004V179.744C203.079 178.554 203.709 177.7 204.955 177.7C205.795 177.7 206.383 178.134 206.621 178.848L207.699 178.316C207.279 177.28 206.383 176.58 204.955 176.58C202.883 176.58 201.693 178.05 201.693 180.374C201.693 182.698 202.883 184.168 204.955 184.168ZM211.505 184.168C213.213 184.168 214.277 183.286 214.277 181.872C214.277 180.752 213.619 180.052 212.023 179.814L211.407 179.716C210.567 179.59 210.147 179.324 210.147 178.68C210.147 178.064 210.595 177.658 211.477 177.658C212.345 177.658 212.961 178.064 213.311 178.526L214.137 177.742C213.521 177.014 212.751 176.58 211.519 176.58C209.993 176.58 208.887 177.336 208.887 178.764C208.887 180.108 209.853 180.682 211.239 180.878L211.855 180.976C212.737 181.102 213.017 181.48 213.017 182.012C213.017 182.684 212.513 183.09 211.589 183.09C210.707 183.09 210.035 182.698 209.489 182.012L208.607 182.768C209.279 183.622 210.161 184.168 211.505 184.168ZM219.072 184L221.592 176.748H220.346L219.142 180.22L218.372 182.726H218.288L217.532 180.22L216.342 176.748H215.04L217.546 184H219.072Z" fill="black"/>
<path d="M290.5 183H280V182.5C280 182.225 279.775 182 279.5 182H278.5C278.225 182 278 182.225 278 182.5V183H275.5C275.225 183 275 183.225 275 183.5V184.5C275 184.775 275.225 185 275.5 185H278V185.5C278 185.775 278.225 186 278.5 186H279.5C279.775 186 280 185.775 280 185.5V185H290.5C290.775 185 291 184.775 291 184.5V183.5C291 183.225 290.775 183 290.5 183ZM290.5 178H288V177.5C288 177.225 287.775 177 287.5 177H286.5C286.225 177 286 177.225 286 177.5V178H275.5C275.225 178 275 178.225 275 178.5V179.5C275 179.775 275.225 180 275.5 180H286V180.5C286 180.775 286.225 181 286.5 181H287.5C287.775 181 288 180.775 288 180.5V180H290.5C290.775 180 291 179.775 291 179.5V178.5C291 178.225 290.775 178 290.5 178ZM290.5 173H284V172.5C284 172.225 283.775 172 283.5 172H282.5C282.225 172 282 172.225 282 172.5V173H275.5C275.225 173 275 173.225 275 173.5V174.5C275 174.775 275.225 175 275.5 175H282V175.5C282 175.775 282.225 176 282.5 176H283.5C283.775 176 284 175.775 284 175.5V175H290.5C290.775 175 291 174.775 291 174.5V173.5C291 173.225 290.775 173 290.5 173Z" fill="#747576"/>
</g>
<path d="M308 135C353.5 135 353 135 353 135" stroke="#747576" stroke-width="3"/>
<path d="M308 179C353.5 179 353 179 353 179" stroke="#747576" stroke-width="3"/>
<path d="M308 224C353.5 224 353 224 353 224" stroke="#747576" stroke-width="3"/>
<rect x="346" y="129" width="12" height="12" rx="6" fill="#39B539"/>
<rect x="346" y="129" width="12" height="12" rx="6" stroke="#39B539" stroke-width="2"/>
<rect x="302" y="129" width="12" height="12" rx="6" fill="#39B539"/>
<rect x="302" y="129" width="12" height="12" rx="6" stroke="#39B539" stroke-width="2"/>
<rect x="302" y="173" width="12" height="12" rx="6" fill="#39B539"/>
<rect x="302" y="173" width="12" height="12" rx="6" stroke="#39B539" stroke-width="2"/>
<rect x="346" y="173" width="12" height="12" rx="6" fill="#39B539"/>
<rect x="346" y="173" width="12" height="12" rx="6" stroke="#39B539" stroke-width="2"/>
<rect x="346" y="218" width="12" height="12" rx="6" fill="#39B539"/>
<rect x="346" y="218" width="12" height="12" rx="6" stroke="#39B539" stroke-width="2"/>
<g filter="url(#filter3_d_15_1126)">
<rect x="64" y="203" width="244" height="40" rx="3" fill="white"/>
<path d="M81 227.021V218.98C81 218.423 81.6732 218.144 82.0669 218.538L86.0876 222.558C86.3317 222.802 86.3317 223.198 86.0876 223.442L82.0669 227.463C81.6732 227.857 81 227.578 81 227.021Z" fill="#747576"/>
<path d="M119.74 228H121.042V217.64H119.74V221.938H119.684C119.348 221.042 118.592 220.58 117.598 220.58C115.778 220.58 114.686 222.022 114.686 224.374C114.686 226.726 115.778 228.168 117.598 228.168C118.592 228.168 119.348 227.706 119.684 226.81H119.74V228ZM117.976 227.034C116.814 227.034 116.072 226.208 116.072 224.99V223.758C116.072 222.54 116.814 221.714 117.976 221.714C118.956 221.714 119.74 222.274 119.74 223.044V225.704C119.74 226.474 118.956 227.034 117.976 227.034ZM126.109 228.168C127.467 228.168 128.517 227.538 129.021 226.6L128.181 225.886C127.789 226.628 127.131 227.062 126.221 227.062C124.919 227.062 124.177 226.194 124.177 224.99V224.696H129.287V224.15C129.287 222.12 128.139 220.58 126.109 220.58C124.093 220.58 122.819 222.078 122.819 224.374C122.819 226.67 124.093 228.168 126.109 228.168ZM126.109 221.63C127.201 221.63 127.901 222.442 127.901 223.646V223.786H124.177V223.688C124.177 222.498 124.975 221.63 126.109 221.63ZM131.454 228H132.756V221.854H134.282V220.748H132.756V218.746H134.282V217.64H133.148C132.014 217.64 131.454 218.34 131.454 219.404V220.748H130.292V221.854H131.454V228ZM141.717 228V226.894H140.905V223.072C140.905 221.504 139.869 220.58 138.063 220.58C136.719 220.58 135.865 221.21 135.431 221.994L136.215 222.708C136.593 222.092 137.139 221.672 137.993 221.672C139.085 221.672 139.603 222.218 139.603 223.184V223.842H138.231C136.159 223.842 135.137 224.598 135.137 225.998C135.137 227.328 136.019 228.168 137.531 228.168C138.567 228.168 139.337 227.692 139.631 226.796H139.701C139.799 227.496 140.177 228 140.975 228H141.717ZM137.825 227.118C137.013 227.118 136.495 226.74 136.495 226.068V225.788C136.495 225.116 137.027 224.752 138.217 224.752H139.603V225.872C139.603 226.6 138.847 227.118 137.825 227.118ZM147.709 228H149.011V220.748H147.709V225.704C147.709 226.614 146.869 227.034 146.043 227.034C145.021 227.034 144.503 226.404 144.503 225.186V220.748H143.201V225.382C143.201 227.146 144.125 228.168 145.609 228.168C146.813 228.168 147.373 227.51 147.639 226.81H147.709V228ZM153.648 228V226.894H152.612V217.64H151.31V226.67C151.31 227.468 151.772 228 152.668 228H153.648ZM158.288 228V226.894H156.846V221.854H158.4V220.748H156.846V218.746H155.67V220.076C155.67 220.566 155.516 220.748 155.026 220.748H154.382V221.854H155.544V226.628C155.544 227.468 156.02 228 156.916 228H158.288ZM166.62 230.38V229.26H159.578V230.38H166.62ZM169.915 228.168C171.623 228.168 172.687 227.286 172.687 225.872C172.687 224.752 172.029 224.052 170.433 223.814L169.817 223.716C168.977 223.59 168.557 223.324 168.557 222.68C168.557 222.064 169.005 221.658 169.887 221.658C170.755 221.658 171.371 222.064 171.721 222.526L172.547 221.742C171.931 221.014 171.161 220.58 169.929 220.58C168.403 220.58 167.297 221.336 167.297 222.764C167.297 224.108 168.263 224.682 169.649 224.878L170.265 224.976C171.147 225.102 171.427 225.48 171.427 226.012C171.427 226.684 170.923 227.09 169.999 227.09C169.117 227.09 168.445 226.698 167.899 226.012L167.017 226.768C167.689 227.622 168.571 228.168 169.915 228.168ZM177.296 228.168C178.682 228.168 179.634 227.496 180.096 226.404L179.144 225.816C178.78 226.6 178.178 227.048 177.296 227.048C176.05 227.048 175.42 226.194 175.42 225.004V223.744C175.42 222.554 176.05 221.7 177.296 221.7C178.136 221.7 178.724 222.134 178.962 222.848L180.04 222.316C179.62 221.28 178.724 220.58 177.296 220.58C175.224 220.58 174.034 222.05 174.034 224.374C174.034 226.698 175.224 228.168 177.296 228.168ZM184.311 228.168C185.669 228.168 186.719 227.538 187.223 226.6L186.383 225.886C185.991 226.628 185.333 227.062 184.423 227.062C183.121 227.062 182.379 226.194 182.379 224.99V224.696H187.489V224.15C187.489 222.12 186.341 220.58 184.311 220.58C182.295 220.58 181.021 222.078 181.021 224.374C181.021 226.67 182.295 228.168 184.311 228.168ZM184.311 221.63C185.403 221.63 186.103 222.442 186.103 223.646V223.786H182.379V223.688C182.379 222.498 183.177 221.63 184.311 221.63ZM190.565 228V223.03C190.565 222.148 191.391 221.714 192.245 221.714C193.267 221.714 193.771 222.344 193.771 223.562V228H195.073V223.366C195.073 221.602 194.163 220.58 192.679 220.58C191.587 220.58 190.971 221.14 190.635 221.938H190.565V220.748H189.263V228H190.565ZM203.309 228V226.894H202.497V223.072C202.497 221.504 201.461 220.58 199.655 220.58C198.311 220.58 197.457 221.21 197.023 221.994L197.807 222.708C198.185 222.092 198.731 221.672 199.585 221.672C200.677 221.672 201.195 222.218 201.195 223.184V223.842H199.823C197.751 223.842 196.729 224.598 196.729 225.998C196.729 227.328 197.611 228.168 199.123 228.168C200.159 228.168 200.929 227.692 201.223 226.796H201.293C201.391 227.496 201.769 228 202.567 228H203.309ZM199.417 227.118C198.605 227.118 198.087 226.74 198.087 226.068V225.788C198.087 225.116 198.619 224.752 199.809 224.752H201.195V225.872C201.195 226.6 200.439 227.118 199.417 227.118ZM206.165 228V223.24C206.165 222.526 206.865 222.05 208.069 222.05H208.713V220.748H208.279C207.117 220.748 206.473 221.42 206.235 222.134H206.165V220.748H204.863V228H206.165ZM210.771 219.236C211.317 219.236 211.555 218.942 211.555 218.522V218.326C211.555 217.906 211.317 217.612 210.771 217.612C210.225 217.612 209.987 217.906 209.987 218.326V218.522C209.987 218.942 210.225 219.236 210.771 219.236ZM210.113 228H211.415V220.748H210.113V228ZM216.495 228.168C218.469 228.168 219.799 226.684 219.799 224.374C219.799 222.064 218.469 220.58 216.495 220.58C214.521 220.58 213.191 222.064 213.191 224.374C213.191 226.684 214.521 228.168 216.495 228.168ZM216.495 227.048C215.361 227.048 214.577 226.334 214.577 224.92V223.828C214.577 222.414 215.361 221.7 216.495 221.7C217.629 221.7 218.413 222.414 218.413 223.828V224.92C218.413 226.334 217.629 227.048 216.495 227.048ZM222.108 228.168C222.752 228.168 223.032 227.804 223.032 227.3V227.09C223.032 226.586 222.752 226.222 222.108 226.222C221.464 226.222 221.184 226.586 221.184 227.09V227.3C221.184 227.804 221.464 228.168 222.108 228.168ZM227.8 228.168C229.186 228.168 230.138 227.496 230.6 226.404L229.648 225.816C229.284 226.6 228.682 227.048 227.8 227.048C226.554 227.048 225.924 226.194 225.924 225.004V223.744C225.924 222.554 226.554 221.7 227.8 221.7C228.64 221.7 229.228 222.134 229.466 222.848L230.544 222.316C230.124 221.28 229.228 220.58 227.8 220.58C225.728 220.58 224.538 222.05 224.538 224.374C224.538 226.698 225.728 228.168 227.8 228.168ZM234.351 228.168C236.059 228.168 237.123 227.286 237.123 225.872C237.123 224.752 236.465 224.052 234.869 223.814L234.253 223.716C233.413 223.59 232.993 223.324 232.993 222.68C232.993 222.064 233.441 221.658 234.323 221.658C235.191 221.658 235.807 222.064 236.157 222.526L236.983 221.742C236.367 221.014 235.597 220.58 234.365 220.58C232.839 220.58 231.733 221.336 231.733 222.764C231.733 224.108 232.699 224.682 234.085 224.878L234.701 224.976C235.583 225.102 235.863 225.48 235.863 226.012C235.863 226.684 235.359 227.09 234.435 227.09C233.553 227.09 232.881 226.698 232.335 226.012L231.453 226.768C232.125 227.622 233.007 228.168 234.351 228.168ZM241.918 228L244.438 220.748H243.192L241.988 224.22L241.218 226.726H241.134L240.378 224.22L239.188 220.748H237.886L240.392 228H241.918Z" fill="black"/>
<path d="M290.5 227H280V226.5C280 226.225 279.775 226 279.5 226H278.5C278.225 226 278 226.225 278 226.5V227H275.5C275.225 227 275 227.225 275 227.5V228.5C275 228.775 275.225 229 275.5 229H278V229.5C278 229.775 278.225 230 278.5 230H279.5C279.775 230 280 229.775 280 229.5V229H290.5C290.775 229 291 228.775 291 228.5V227.5C291 227.225 290.775 227 290.5 227ZM290.5 222H288V221.5C288 221.225 287.775 221 287.5 221H286.5C286.225 221 286 221.225 286 221.5V222H275.5C275.225 222 275 222.225 275 222.5V223.5C275 223.775 275.225 224 275.5 224H286V224.5C286 224.775 286.225 225 286.5 225H287.5C287.775 225 288 224.775 288 224.5V224H290.5C290.775 224 291 223.775 291 223.5V222.5C291 222.225 290.775 222 290.5 222ZM290.5 217H284V216.5C284 216.225 283.775 216 283.5 216H282.5C282.225 216 282 216.225 282 216.5V217H275.5C275.225 217 275 217.225 275 217.5V218.5C275 218.775 275.225 219 275.5 219H282V219.5C282 219.775 282.225 220 282.5 220H283.5C283.775 220 284 219.775 284 219.5V219H290.5C290.775 219 291 218.775 291 218.5V217.5C291 217.225 290.775 217 290.5 217Z" fill="#747576"/>
</g>
<rect x="302" y="218" width="12" height="12" rx="6" fill="#39B539"/>
<rect x="302" y="218" width="12" height="12" rx="6" stroke="#39B539" stroke-width="2"/>
<g filter="url(#filter4_d_15_1126)">
<g clip-path="url(#clip3_15_1126)">
<rect x="645" y="203" width="249" height="152" rx="3" fill="white"/>
<rect width="249" height="40" transform="translate(645 203)" fill="white"/>
<path d="M660.978 221H669.019C669.575 221 669.853 221.672 669.459 222.066L665.441 226.087C665.197 226.331 664.8 226.331 664.556 226.087L660.537 222.066C660.144 221.672 660.422 221 660.978 221Z" fill="#747576"/>
<path d="M697.618 228V223.66H701.762V222.456H697.618V219.432H702.21V218.228H696.26V228H697.618ZM706.467 228.168C708.441 228.168 709.771 226.684 709.771 224.374C709.771 222.064 708.441 220.58 706.467 220.58C704.493 220.58 703.163 222.064 703.163 224.374C703.163 226.684 704.493 228.168 706.467 228.168ZM706.467 227.048C705.333 227.048 704.549 226.334 704.549 224.92V223.828C704.549 222.414 705.333 221.7 706.467 221.7C707.601 221.7 708.385 222.414 708.385 223.828V224.92C708.385 226.334 707.601 227.048 706.467 227.048ZM712.845 228V223.24C712.845 222.526 713.545 222.05 714.749 222.05H715.393V220.748H714.959C713.797 220.748 713.153 221.42 712.915 222.134H712.845V220.748H711.543V228H712.845ZM719.496 228.168C720.854 228.168 721.904 227.538 722.408 226.6L721.568 225.886C721.176 226.628 720.518 227.062 719.608 227.062C718.306 227.062 717.564 226.194 717.564 224.99V224.696H722.674V224.15C722.674 222.12 721.526 220.58 719.496 220.58C717.48 220.58 716.206 222.078 716.206 224.374C716.206 226.67 717.48 228.168 719.496 228.168ZM719.496 221.63C720.588 221.63 721.288 222.442 721.288 223.646V223.786H717.564V223.688C717.564 222.498 718.362 221.63 719.496 221.63ZM727.193 228.168C728.579 228.168 729.531 227.496 729.993 226.404L729.041 225.816C728.677 226.6 728.075 227.048 727.193 227.048C725.947 227.048 725.317 226.194 725.317 225.004V223.744C725.317 222.554 725.947 221.7 727.193 221.7C728.033 221.7 728.621 222.134 728.859 222.848L729.937 222.316C729.517 221.28 728.621 220.58 727.193 220.58C725.121 220.58 723.931 222.05 723.931 224.374C723.931 226.698 725.121 228.168 727.193 228.168ZM737.537 228V226.894H736.725V223.072C736.725 221.504 735.689 220.58 733.883 220.58C732.539 220.58 731.685 221.21 731.251 221.994L732.035 222.708C732.413 222.092 732.959 221.672 733.813 221.672C734.905 221.672 735.423 222.218 735.423 223.184V223.842H734.051C731.979 223.842 730.957 224.598 730.957 225.998C730.957 227.328 731.839 228.168 733.351 228.168C734.387 228.168 735.157 227.692 735.451 226.796H735.521C735.619 227.496 735.997 228 736.795 228H737.537ZM733.645 227.118C732.833 227.118 732.315 226.74 732.315 226.068V225.788C732.315 225.116 732.847 224.752 734.037 224.752H735.423V225.872C735.423 226.6 734.667 227.118 733.645 227.118ZM741.317 228.168C743.025 228.168 744.089 227.286 744.089 225.872C744.089 224.752 743.431 224.052 741.835 223.814L741.219 223.716C740.379 223.59 739.959 223.324 739.959 222.68C739.959 222.064 740.407 221.658 741.289 221.658C742.157 221.658 742.773 222.064 743.123 222.526L743.949 221.742C743.333 221.014 742.563 220.58 741.331 220.58C739.805 220.58 738.699 221.336 738.699 222.764C738.699 224.108 739.665 224.682 741.051 224.878L741.667 224.976C742.549 225.102 742.829 225.48 742.829 226.012C742.829 226.684 742.325 227.09 741.401 227.09C740.519 227.09 739.847 226.698 739.301 226.012L738.419 226.768C739.091 227.622 739.973 228.168 741.317 228.168ZM749.009 228V226.894H747.567V221.854H749.121V220.748H747.567V218.746H746.391V220.076C746.391 220.566 746.237 220.748 745.747 220.748H745.103V221.854H746.265V226.628C746.265 227.468 746.741 228 747.637 228H749.009Z" fill="black"/>
<g clip-path="url(#clip4_15_1126)">
<path d="M864 215.25C859.719 215.25 856.25 218.719 856.25 223C856.25 227.281 859.719 230.75 864 230.75C868.281 230.75 871.75 227.281 871.75 223C871.75 218.719 868.281 215.25 864 215.25ZM867.616 223.75L862.116 226.906C861.622 227.181 861 226.828 861 226.25V219.75C861 219.175 861.619 218.819 862.116 219.094L867.616 222.438C868.128 222.725 868.128 223.466 867.616 223.75Z" fill="#747576"/>
</g>
<rect width="249" height="2" transform="translate(645 243)" fill="#F0F1F2"/>
<path d="M666.312 286.2H667.8V281.64H667.864C668.248 282.664 669.112 283.192 670.248 283.192C672.328 283.192 673.576 281.544 673.576 278.856C673.576 276.168 672.328 274.52 670.248 274.52C669.112 274.52 668.248 275.048 667.864 276.072H667.8V274.712H666.312V286.2ZM669.816 281.896C668.696 281.896 667.8 281.256 667.8 280.376V277.336C667.8 276.456 668.696 275.816 669.816 275.816C671.144 275.816 671.992 276.76 671.992 278.152V279.56C671.992 280.952 671.144 281.896 669.816 281.896ZM682.551 283V281.736H681.623V277.368C681.623 275.576 680.439 274.52 678.375 274.52C676.839 274.52 675.863 275.24 675.367 276.136L676.263 276.952C676.695 276.248 677.319 275.768 678.295 275.768C679.543 275.768 680.135 276.392 680.135 277.496V278.248H678.567C676.199 278.248 675.031 279.112 675.031 280.712C675.031 282.232 676.039 283.192 677.767 283.192C678.951 283.192 679.831 282.648 680.167 281.624H680.247C680.359 282.424 680.791 283 681.703 283H682.551ZM678.103 281.992C677.175 281.992 676.583 281.56 676.583 280.792V280.472C676.583 279.704 677.191 279.288 678.551 279.288H680.135V280.568C680.135 281.4 679.271 281.992 678.103 281.992ZM685.816 283V277.56C685.816 276.744 686.616 276.2 687.992 276.2H688.728V274.712H688.232C686.904 274.712 686.168 275.48 685.896 276.296H685.816V274.712H684.328V283H685.816ZM697.114 283V281.736H696.186V277.368C696.186 275.576 695.002 274.52 692.938 274.52C691.402 274.52 690.426 275.24 689.93 276.136L690.826 276.952C691.258 276.248 691.882 275.768 692.858 275.768C694.106 275.768 694.698 276.392 694.698 277.496V278.248H693.13C690.762 278.248 689.594 279.112 689.594 280.712C689.594 282.232 690.602 283.192 692.33 283.192C693.514 283.192 694.394 282.648 694.73 281.624H694.81C694.922 282.424 695.354 283 696.266 283H697.114ZM692.666 281.992C691.738 281.992 691.146 281.56 691.146 280.792V280.472C691.146 279.704 691.754 279.288 693.114 279.288H694.698V280.568C694.698 281.4 693.834 281.992 692.666 281.992ZM700.378 283V277.32C700.378 276.312 701.29 275.816 702.234 275.816C703.37 275.816 703.898 276.536 703.898 277.928V283H705.386V277.32C705.386 276.312 706.266 275.816 707.226 275.816C708.378 275.816 708.906 276.536 708.906 277.928V283H710.394V277.704C710.394 275.688 709.402 274.52 707.738 274.52C706.346 274.52 705.514 275.304 705.21 276.2H705.178C704.746 275.032 703.77 274.52 702.666 274.52C701.562 274.52 700.81 275.224 700.458 276.072H700.378V274.712H698.89V283H700.378ZM716.089 283.192C717.641 283.192 718.841 282.472 719.417 281.4L718.457 280.584C718.009 281.432 717.257 281.928 716.217 281.928C714.729 281.928 713.881 280.936 713.881 279.56V279.224H719.721V278.6C719.721 276.28 718.409 274.52 716.089 274.52C713.785 274.52 712.329 276.232 712.329 278.856C712.329 281.48 713.785 283.192 716.089 283.192ZM716.089 275.72C717.337 275.72 718.137 276.648 718.137 278.024V278.184H713.881V278.072C713.881 276.712 714.793 275.72 716.089 275.72ZM725.35 283V281.736H723.702V275.976H725.478V274.712H723.702V272.424H722.358V273.944C722.358 274.504 722.182 274.712 721.622 274.712H720.886V275.976H722.214V281.432C722.214 282.392 722.758 283 723.782 283H725.35ZM728.956 283V277.56C728.956 276.744 729.756 276.2 731.132 276.2H731.868V274.712H731.372C730.044 274.712 729.308 275.48 729.036 276.296H728.956V274.712H727.468V283H728.956ZM734.22 272.984C734.844 272.984 735.116 272.648 735.116 272.168V271.944C735.116 271.464 734.844 271.128 734.22 271.128C733.596 271.128 733.324 271.464 733.324 271.944V272.168C733.324 272.648 733.596 272.984 734.22 272.984ZM733.468 283H734.956V274.712H733.468V283ZM743.306 283V281.736H738.506L743.178 275.848V274.712H736.954V275.976H741.402L736.81 281.768V283H743.306ZM748.168 283.192C749.72 283.192 750.92 282.472 751.496 281.4L750.536 280.584C750.088 281.432 749.336 281.928 748.296 281.928C746.808 281.928 745.96 280.936 745.96 279.56V279.224H751.8V278.6C751.8 276.28 750.488 274.52 748.168 274.52C745.864 274.52 744.408 276.232 744.408 278.856C744.408 281.48 745.864 283.192 748.168 283.192ZM748.168 275.72C749.416 275.72 750.216 276.648 750.216 278.024V278.184H745.96V278.072C745.96 276.712 746.872 275.72 748.168 275.72ZM759.076 283H760.564V271.16H759.076V276.072H759.012C758.628 275.048 757.764 274.52 756.628 274.52C754.548 274.52 753.3 276.168 753.3 278.856C753.3 281.544 754.548 283.192 756.628 283.192C757.764 283.192 758.628 282.664 759.012 281.64H759.076V283ZM757.06 281.896C755.732 281.896 754.884 280.952 754.884 279.56V278.152C754.884 276.76 755.732 275.816 757.06 275.816C758.18 275.816 759.076 276.456 759.076 277.336V280.376C759.076 281.256 758.18 281.896 757.06 281.896ZM768.456 283V277.32C768.456 276.312 769.368 275.816 770.312 275.816C771.448 275.816 771.976 276.536 771.976 277.928V283H773.464V277.32C773.464 276.312 774.344 275.816 775.304 275.816C776.456 275.816 776.984 276.536 776.984 277.928V283H778.472V277.704C778.472 275.688 777.48 274.52 775.816 274.52C774.424 274.52 773.592 275.304 773.288 276.2H773.256C772.824 275.032 771.848 274.52 770.744 274.52C769.64 274.52 768.888 275.224 768.536 276.072H768.456V274.712H766.968V283H768.456ZM784.184 283.192C786.44 283.192 787.96 281.496 787.96 278.856C787.96 276.216 786.44 274.52 784.184 274.52C781.928 274.52 780.408 276.216 780.408 278.856C780.408 281.496 781.928 283.192 784.184 283.192ZM784.184 281.912C782.888 281.912 781.992 281.096 781.992 279.48V278.232C781.992 276.616 782.888 275.8 784.184 275.8C785.48 275.8 786.376 276.616 786.376 278.232V279.48C786.376 281.096 785.48 281.912 784.184 281.912ZM795.232 283H796.72V271.16H795.232V276.072H795.168C794.784 275.048 793.92 274.52 792.784 274.52C790.704 274.52 789.456 276.168 789.456 278.856C789.456 281.544 790.704 283.192 792.784 283.192C793.92 283.192 794.784 282.664 795.168 281.64H795.232V283ZM793.216 281.896C791.888 281.896 791.04 280.952 791.04 279.56V278.152C791.04 276.76 791.888 275.816 793.216 275.816C794.336 275.816 795.232 276.456 795.232 277.336V280.376C795.232 281.256 794.336 281.896 793.216 281.896ZM802.511 283.192C804.063 283.192 805.263 282.472 805.839 281.4L804.879 280.584C804.431 281.432 803.679 281.928 802.639 281.928C801.151 281.928 800.303 280.936 800.303 279.56V279.224H806.143V278.6C806.143 276.28 804.831 274.52 802.511 274.52C800.207 274.52 798.751 276.232 798.751 278.856C798.751 281.48 800.207 283.192 802.511 283.192ZM802.511 275.72C803.759 275.72 804.559 276.648 804.559 278.024V278.184H800.303V278.072C800.303 276.712 801.215 275.72 802.511 275.72ZM810.843 283V281.736H809.659V271.16H808.171V281.48C808.171 282.392 808.699 283 809.723 283H810.843Z" fill="black"/>
<rect width="249" height="2" transform="translate(645 309)" fill="#F0F1F2"/>
<path d="M778.8 339V333.32C778.8 332.312 779.712 331.816 780.656 331.816C781.792 331.816 782.32 332.536 782.32 333.928V339H783.808V333.32C783.808 332.312 784.688 331.816 785.648 331.816C786.8 331.816 787.328 332.536 787.328 333.928V339H788.816V333.704C788.816 331.688 787.824 330.52 786.16 330.52C784.768 330.52 783.936 331.304 783.632 332.2H783.6C783.168 331.032 782.192 330.52 781.088 330.52C779.984 330.52 779.232 331.224 778.88 332.072H778.8V330.712H777.312V339H778.8ZM794.527 339.192C796.783 339.192 798.303 337.496 798.303 334.856C798.303 332.216 796.783 330.52 794.527 330.52C792.271 330.52 790.751 332.216 790.751 334.856C790.751 337.496 792.271 339.192 794.527 339.192ZM794.527 337.912C793.231 337.912 792.335 337.096 792.335 335.48V334.232C792.335 332.616 793.231 331.8 794.527 331.8C795.823 331.8 796.719 332.616 796.719 334.232V335.48C796.719 337.096 795.823 337.912 794.527 337.912ZM805.576 339H807.064V327.16H805.576V332.072H805.512C805.128 331.048 804.264 330.52 803.128 330.52C801.048 330.52 799.8 332.168 799.8 334.856C799.8 337.544 801.048 339.192 803.128 339.192C804.264 339.192 805.128 338.664 805.512 337.64H805.576V339ZM803.56 337.896C802.232 337.896 801.384 336.952 801.384 335.56V334.152C801.384 332.76 802.232 331.816 803.56 331.816C804.68 331.816 805.576 332.456 805.576 333.336V336.376C805.576 337.256 804.68 337.896 803.56 337.896ZM812.855 339.192C814.407 339.192 815.607 338.472 816.183 337.4L815.223 336.584C814.775 337.432 814.023 337.928 812.983 337.928C811.495 337.928 810.647 336.936 810.647 335.56V335.224H816.487V334.6C816.487 332.28 815.175 330.52 812.855 330.52C810.551 330.52 809.095 332.232 809.095 334.856C809.095 337.48 810.551 339.192 812.855 339.192ZM812.855 331.72C814.103 331.72 814.903 332.648 814.903 334.024V334.184H810.647V334.072C810.647 332.712 811.559 331.72 812.855 331.72ZM821.187 339V337.736H820.003V327.16H818.515V337.48C818.515 338.392 819.043 339 820.067 339H821.187ZM829.934 339.192C832.19 339.192 833.71 337.496 833.71 334.856C833.71 332.216 832.19 330.52 829.934 330.52C827.678 330.52 826.158 332.216 826.158 334.856C826.158 337.496 827.678 339.192 829.934 339.192ZM829.934 337.912C828.638 337.912 827.742 337.096 827.742 335.48V334.232C827.742 332.616 828.638 331.8 829.934 331.8C831.23 331.8 832.126 332.616 832.126 334.232V335.48C832.126 337.096 831.23 337.912 829.934 337.912ZM840.806 339H842.294V330.712H840.806V336.376C840.806 337.416 839.846 337.896 838.902 337.896C837.734 337.896 837.142 337.176 837.142 335.784V330.712H835.654V336.008C835.654 338.024 836.71 339.192 838.406 339.192C839.782 339.192 840.422 338.44 840.726 337.64H840.806V339ZM848.521 339V337.736H846.873V331.976H848.649V330.712H846.873V328.424H845.529V329.944C845.529 330.504 845.353 330.712 844.793 330.712H844.057V331.976H845.385V337.432C845.385 338.392 845.929 339 846.953 339H848.521ZM850.64 342.2H852.128V337.64H852.192C852.576 338.664 853.44 339.192 854.576 339.192C856.656 339.192 857.904 337.544 857.904 334.856C857.904 332.168 856.656 330.52 854.576 330.52C853.44 330.52 852.576 331.048 852.192 332.072H852.128V330.712H850.64V342.2ZM854.144 337.896C853.024 337.896 852.128 337.256 852.128 336.376V333.336C852.128 332.456 853.024 331.816 854.144 331.816C855.472 331.816 856.32 332.76 856.32 334.152V335.56C856.32 336.952 855.472 337.896 854.144 337.896ZM865.072 339H866.56V330.712H865.072V336.376C865.072 337.416 864.112 337.896 863.168 337.896C862 337.896 861.408 337.176 861.408 335.784V330.712H859.92V336.008C859.92 338.024 860.976 339.192 862.672 339.192C864.048 339.192 864.688 338.44 864.992 337.64H865.072V339ZM872.787 339V337.736H871.139V331.976H872.915V330.712H871.139V328.424H869.795V329.944C869.795 330.504 869.619 330.712 869.059 330.712H868.323V331.976H869.651V337.432C869.651 338.392 870.195 339 871.219 339H872.787Z" fill="black"/>
</g>
</g>
<path d="M601 278C646.5 278 646 278 646 278" stroke="#747576" stroke-width="3"/>
<rect x="639" y="272" width="12" height="12" rx="6" fill="#39B539"/>
<rect x="639" y="272" width="12" height="12" rx="6" stroke="#39B539" stroke-width="2"/>
<rect x="888" y="325" width="12" height="12" rx="6" fill="#39B539"/>
<rect x="888" y="325" width="12" height="12" rx="6" stroke="#39B539" stroke-width="2"/>
<rect x="595" y="272" width="12" height="12" rx="6" fill="#39B539"/>
<rect x="595" y="272" width="12" height="12" rx="6" stroke="#39B539" stroke-width="2"/>
<defs>
<filter id="filter0_d_15_1126" x="348" y="60" width="257" height="248" filterUnits="userSpaceOnUse" color-interpolation-filters="sRGB">
<feFlood flood-opacity="0" result="BackgroundImageFix"/>
<feColorMatrix in="SourceAlpha" type="matrix" values="0 0 0 0 0 0 0 0 0 0 0 0 0 0 0 0 0 0 127 0" result="hardAlpha"/>
<feOffset dy="2"/>
<feGaussianBlur stdDeviation="2"/>
<feColorMatrix type="matrix" values="0 0 0 0 0 0 0 0 0 0 0 0 0 0 0 0 0 0 0.2 0"/>
<feBlend mode="normal" in2="BackgroundImageFix" result="effect1_dropShadow_15_1126"/>
<feBlend mode="normal" in="SourceGraphic" in2="effect1_dropShadow_15_1126" result="shape"/>
</filter>
<filter id="filter1_d_15_1126" x="60" y="113" width="252" height="48" filterUnits="userSpaceOnUse" color-interpolation-filters="sRGB">
<feFlood flood-opacity="0" result="BackgroundImageFix"/>
<feColorMatrix in="SourceAlpha" type="matrix" values="0 0 0 0 0 0 0 0 0 0 0 0 0 0 0 0 0 0 127 0" result="hardAlpha"/>
<feOffset dy="2"/>
<feGaussianBlur stdDeviation="2"/>
<feColorMatrix type="matrix" values="0 0 0 0 0 0 0 0 0 0 0 0 0 0 0 0 0 0 0.2 0"/>
<feBlend mode="normal" in2="BackgroundImageFix" result="effect1_dropShadow_15_1126"/>
<feBlend mode="normal" in="SourceGraphic" in2="effect1_dropShadow_15_1126" result="shape"/>
</filter>
<filter id="filter2_d_15_1126" x="60" y="157" width="252" height="48" filterUnits="userSpaceOnUse" color-interpolation-filters="sRGB">
<feFlood flood-opacity="0" result="BackgroundImageFix"/>
<feColorMatrix in="SourceAlpha" type="matrix" values="0 0 0 0 0 0 0 0 0 0 0 0 0 0 0 0 0 0 127 0" result="hardAlpha"/>
<feOffset dy="2"/>
<feGaussianBlur stdDeviation="2"/>
<feColorMatrix type="matrix" values="0 0 0 0 0 0 0 0 0 0 0 0 0 0 0 0 0 0 0.2 0"/>
<feBlend mode="normal" in2="BackgroundImageFix" result="effect1_dropShadow_15_1126"/>
<feBlend mode="normal" in="SourceGraphic" in2="effect1_dropShadow_15_1126" result="shape"/>
</filter>
<filter id="filter3_d_15_1126" x="60" y="201" width="252" height="48" filterUnits="userSpaceOnUse" color-interpolation-filters="sRGB">
<feFlood flood-opacity="0" result="BackgroundImageFix"/>
<feColorMatrix in="SourceAlpha" type="matrix" values="0 0 0 0 0 0 0 0 0 0 0 0 0 0 0 0 0 0 127 0" result="hardAlpha"/>
<feOffset dy="2"/>
<feGaussianBlur stdDeviation="2"/>
<feColorMatrix type="matrix" values="0 0 0 0 0 0 0 0 0 0 0 0 0 0 0 0 0 0 0.2 0"/>
<feBlend mode="normal" in2="BackgroundImageFix" result="effect1_dropShadow_15_1126"/>
<feBlend mode="normal" in="SourceGraphic" in2="effect1_dropShadow_15_1126" result="shape"/>
</filter>
<filter id="filter4_d_15_1126" x="641" y="201" width="257" height="160" filterUnits="userSpaceOnUse" color-interpolation-filters="sRGB">
<feFlood flood-opacity="0" result="BackgroundImageFix"/>
<feColorMatrix in="SourceAlpha" type="matrix" values="0 0 0 0 0 0 0 0 0 0 0 0 0 0 0 0 0 0 127 0" result="hardAlpha"/>
<feOffset dy="2"/>
<feGaussianBlur stdDeviation="2"/>
<feColorMatrix type="matrix" values="0 0 0 0 0 0 0 0 0 0 0 0 0 0 0 0 0 0 0.2 0"/>
<feBlend mode="normal" in2="BackgroundImageFix" result="effect1_dropShadow_15_1126"/>
<feBlend mode="normal" in="SourceGraphic" in2="effect1_dropShadow_15_1126" result="shape"/>
</filter>
<clipPath id="clip0_15_1126">
<rect x="352" y="62" width="249" height="240" rx="3" fill="white"/>
</clipPath>
<clipPath id="clip1_15_1126">
<rect width="16" height="16" fill="white" transform="translate(563 74)"/>
</clipPath>
<clipPath id="clip2_15_1126">
<rect width="20" height="16" fill="white" transform="translate(273 127)"/>
</clipPath>
<clipPath id="clip3_15_1126">
<rect x="645" y="203" width="249" height="152" rx="3" fill="white"/>
</clipPath>
<clipPath id="clip4_15_1126">
<rect width="16" height="16" fill="white" transform="translate(856 215)"/>
</clipPath>
</defs>
</svg>
