<svg width="1287" height="503" viewBox="0 0 1287 503" fill="none" xmlns="http://www.w3.org/2000/svg">
<path d="M601 279C646.5 279 646 279 646 279" stroke="#747576" stroke-width="3"/>
<rect x="639" y="273" width="12" height="12" rx="6" fill="#E4FAE4"/>
<rect x="639" y="273" width="12" height="12" rx="6" stroke="#39B539" stroke-width="2"/>
<g clip-path="url(#clip0_19_860)">
<rect x="646" y="264" width="117" height="28" rx="3" fill="white"/>
</g>
<rect x="646" y="264" width="117" height="28" rx="3" stroke="#39B539" stroke-width="2"/>
<g filter="url(#filter0_d_19_860)">
<rect width="196" height="99" transform="translate(645 295)" fill="white"/>
<rect width="196" height="31" transform="translate(645 295)" fill="#E4FAE4"/>
<rect x="645" y="295" width="4" height="31" fill="#39B539"/>
<path d="M657.618 314.5V310.16H661.762V308.956H657.618V305.932H662.21V304.728H656.26V314.5H657.618ZM666.627 314.668C668.601 314.668 669.931 313.184 669.931 310.874C669.931 308.564 668.601 307.08 666.627 307.08C664.653 307.08 663.323 308.564 663.323 310.874C663.323 313.184 664.653 314.668 666.627 314.668ZM666.627 313.548C665.493 313.548 664.709 312.834 664.709 311.42V310.328C664.709 308.914 665.493 308.2 666.627 308.2C667.761 308.2 668.545 308.914 668.545 310.328V311.42C668.545 312.834 667.761 313.548 666.627 313.548ZM673.165 314.5V309.74C673.165 309.026 673.865 308.55 675.069 308.55H675.713V307.248H675.279C674.117 307.248 673.473 307.92 673.235 308.634H673.165V307.248H671.863V314.5H673.165ZM679.976 314.668C681.334 314.668 682.384 314.038 682.888 313.1L682.048 312.386C681.656 313.128 680.998 313.562 680.088 313.562C678.786 313.562 678.044 312.694 678.044 311.49V311.196H683.154V310.65C683.154 308.62 682.006 307.08 679.976 307.08C677.96 307.08 676.686 308.578 676.686 310.874C676.686 313.17 677.96 314.668 679.976 314.668ZM679.976 308.13C681.068 308.13 681.768 308.942 681.768 310.146V310.286H678.044V310.188C678.044 308.998 678.842 308.13 679.976 308.13ZM687.833 314.668C689.219 314.668 690.171 313.996 690.633 312.904L689.681 312.316C689.317 313.1 688.715 313.548 687.833 313.548C686.587 313.548 685.957 312.694 685.957 311.504V310.244C685.957 309.054 686.587 308.2 687.833 308.2C688.673 308.2 689.261 308.634 689.499 309.348L690.577 308.816C690.157 307.78 689.261 307.08 687.833 307.08C685.761 307.08 684.571 308.55 684.571 310.874C684.571 313.198 685.761 314.668 687.833 314.668ZM698.337 314.5V313.394H697.525V309.572C697.525 308.004 696.489 307.08 694.683 307.08C693.339 307.08 692.485 307.71 692.051 308.494L692.835 309.208C693.213 308.592 693.759 308.172 694.613 308.172C695.705 308.172 696.223 308.718 696.223 309.684V310.342H694.851C692.779 310.342 691.757 311.098 691.757 312.498C691.757 313.828 692.639 314.668 694.151 314.668C695.187 314.668 695.957 314.192 696.251 313.296H696.321C696.419 313.996 696.797 314.5 697.595 314.5H698.337ZM694.445 313.618C693.633 313.618 693.115 313.24 693.115 312.568V312.288C693.115 311.616 693.647 311.252 694.837 311.252H696.223V312.372C696.223 313.1 695.467 313.618 694.445 313.618ZM702.277 314.668C703.985 314.668 705.049 313.786 705.049 312.372C705.049 311.252 704.391 310.552 702.795 310.314L702.179 310.216C701.339 310.09 700.919 309.824 700.919 309.18C700.919 308.564 701.367 308.158 702.249 308.158C703.117 308.158 703.733 308.564 704.083 309.026L704.909 308.242C704.293 307.514 703.523 307.08 702.291 307.08C700.765 307.08 699.659 307.836 699.659 309.264C699.659 310.608 700.625 311.182 702.011 311.378L702.627 311.476C703.509 311.602 703.789 311.98 703.789 312.512C703.789 313.184 703.285 313.59 702.361 313.59C701.479 313.59 700.807 313.198 700.261 312.512L699.379 313.268C700.051 314.122 700.933 314.668 702.277 314.668ZM710.129 314.5V313.394H708.687V308.354H710.241V307.248H708.687V305.246H707.511V306.576C707.511 307.066 707.357 307.248 706.867 307.248H706.223V308.354H707.385V313.128C707.385 313.968 707.861 314.5 708.757 314.5H710.129Z" fill="#020203"/>
<path d="M659.802 349.168C661.454 349.168 662.644 348.314 663.274 346.914L662.182 346.256C661.818 347.264 661.006 347.95 659.802 347.95C658.206 347.95 657.24 346.76 657.24 344.856V343.372C657.24 341.468 658.206 340.278 659.802 340.278C660.978 340.278 661.734 340.908 662.098 341.874L663.218 341.23C662.588 339.83 661.454 339.06 659.802 339.06C657.31 339.06 655.784 340.852 655.784 344.114C655.784 347.376 657.31 349.168 659.802 349.168ZM671.105 349V347.894H670.293V344.072C670.293 342.504 669.257 341.58 667.451 341.58C666.107 341.58 665.253 342.21 664.819 342.994L665.603 343.708C665.981 343.092 666.527 342.672 667.381 342.672C668.473 342.672 668.991 343.218 668.991 344.184V344.842H667.619C665.547 344.842 664.525 345.598 664.525 346.998C664.525 348.328 665.407 349.168 666.919 349.168C667.955 349.168 668.725 348.692 669.019 347.796H669.089C669.187 348.496 669.565 349 670.363 349H671.105ZM667.213 348.118C666.401 348.118 665.883 347.74 665.883 347.068V346.788C665.883 346.116 666.415 345.752 667.605 345.752H668.991V346.872C668.991 347.6 668.235 348.118 667.213 348.118ZM675.158 349V347.894H674.122V338.64H672.82V347.67C672.82 348.468 673.282 349 674.178 349H675.158ZM677.534 340.236C678.08 340.236 678.318 339.942 678.318 339.522V339.326C678.318 338.906 678.08 338.612 677.534 338.612C676.988 338.612 676.75 338.906 676.75 339.326V339.522C676.75 339.942 676.988 340.236 677.534 340.236ZM676.876 349H678.178V341.748H676.876V349ZM680.632 349H681.934V347.81H681.99C682.326 348.706 683.082 349.168 684.076 349.168C685.896 349.168 686.988 347.726 686.988 345.374C686.988 343.022 685.896 341.58 684.076 341.58C683.082 341.58 682.326 342.042 681.99 342.938H681.934V338.64H680.632V349ZM683.698 348.034C682.718 348.034 681.934 347.474 681.934 346.704V344.044C681.934 343.274 682.718 342.714 683.698 342.714C684.86 342.714 685.602 343.54 685.602 344.758V345.99C685.602 347.208 684.86 348.034 683.698 348.034ZM690.283 349V344.24C690.283 343.526 690.983 343.05 692.187 343.05H692.831V341.748H692.397C691.235 341.748 690.591 342.42 690.353 343.134H690.283V341.748H688.981V349H690.283ZM700.329 349V347.894H699.517V344.072C699.517 342.504 698.481 341.58 696.675 341.58C695.331 341.58 694.477 342.21 694.043 342.994L694.827 343.708C695.205 343.092 695.751 342.672 696.605 342.672C697.697 342.672 698.215 343.218 698.215 344.184V344.842H696.843C694.771 344.842 693.749 345.598 693.749 346.998C693.749 348.328 694.631 349.168 696.143 349.168C697.179 349.168 697.949 348.692 698.243 347.796H698.313C698.411 348.496 698.789 349 699.587 349H700.329ZM696.437 348.118C695.625 348.118 695.107 347.74 695.107 347.068V346.788C695.107 346.116 695.639 345.752 696.829 345.752H698.215V346.872C698.215 347.6 697.459 348.118 696.437 348.118ZM705.18 349V347.894H703.738V342.854H705.292V341.748H703.738V339.746H702.562V341.076C702.562 341.566 702.408 341.748 701.918 341.748H701.274V342.854H702.436V347.628C702.436 348.468 702.912 349 703.808 349H705.18ZM709.911 349.168C711.269 349.168 712.319 348.538 712.823 347.6L711.983 346.886C711.591 347.628 710.933 348.062 710.023 348.062C708.721 348.062 707.979 347.194 707.979 345.99V345.696H713.089V345.15C713.089 343.12 711.941 341.58 709.911 341.58C707.895 341.58 706.621 343.078 706.621 345.374C706.621 347.67 707.895 349.168 709.911 349.168ZM709.911 342.63C711.003 342.63 711.703 343.442 711.703 344.646V344.786H707.979V344.688C707.979 343.498 708.777 342.63 709.911 342.63Z" fill="#020203"/>
<path d="M656.26 383H660.838C662.28 383 663.372 381.782 663.372 380.186C663.372 378.548 662.126 377.946 661.384 377.904V377.82C662.098 377.736 663.036 377.204 663.036 375.748C663.036 374.222 662.028 373.228 660.418 373.228H656.26V383ZM657.618 378.562H660.432C661.356 378.562 661.916 379.038 661.916 379.948V380.438C661.916 381.348 661.356 381.824 660.432 381.824H657.618V378.562ZM657.618 374.404H660.208C661.062 374.404 661.58 374.866 661.58 375.678V376.14C661.58 376.952 661.062 377.414 660.208 377.414H657.618V374.404ZM671.529 383V381.894H670.717V378.072C670.717 376.504 669.681 375.58 667.875 375.58C666.531 375.58 665.677 376.21 665.243 376.994L666.027 377.708C666.405 377.092 666.951 376.672 667.805 376.672C668.897 376.672 669.415 377.218 669.415 378.184V378.842H668.043C665.971 378.842 664.949 379.598 664.949 380.998C664.949 382.328 665.831 383.168 667.343 383.168C668.379 383.168 669.149 382.692 669.443 381.796H669.513C669.611 382.496 669.989 383 670.787 383H671.529ZM667.637 382.118C666.825 382.118 666.307 381.74 666.307 381.068V380.788C666.307 380.116 666.839 379.752 668.029 379.752H669.415V380.872C669.415 381.6 668.659 382.118 667.637 382.118ZM675.987 383.168C677.373 383.168 678.325 382.496 678.787 381.404L677.835 380.816C677.471 381.6 676.869 382.048 675.987 382.048C674.741 382.048 674.111 381.194 674.111 380.004V378.744C674.111 377.554 674.741 376.7 675.987 376.7C676.827 376.7 677.415 377.134 677.653 377.848L678.731 377.316C678.311 376.28 677.415 375.58 675.987 375.58C673.915 375.58 672.725 377.05 672.725 379.374C672.725 381.698 673.915 383.168 675.987 383.168ZM680.472 383H681.774V380.494L682.81 379.388L685.078 383H686.646L683.734 378.548L686.31 375.748H684.77L682.88 377.82L681.844 379.094H681.774V372.64H680.472V383ZM690.636 383.168C692.022 383.168 692.974 382.496 693.436 381.404L692.484 380.816C692.12 381.6 691.518 382.048 690.636 382.048C689.39 382.048 688.76 381.194 688.76 380.004V378.744C688.76 377.554 689.39 376.7 690.636 376.7C691.476 376.7 692.064 377.134 692.302 377.848L693.38 377.316C692.96 376.28 692.064 375.58 690.636 375.58C688.564 375.58 687.374 377.05 687.374 379.374C687.374 381.698 688.564 383.168 690.636 383.168ZM701.14 383V381.894H700.328V378.072C700.328 376.504 699.292 375.58 697.486 375.58C696.142 375.58 695.288 376.21 694.854 376.994L695.638 377.708C696.016 377.092 696.562 376.672 697.416 376.672C698.508 376.672 699.026 377.218 699.026 378.184V378.842H697.654C695.582 378.842 694.56 379.598 694.56 380.998C694.56 382.328 695.442 383.168 696.954 383.168C697.99 383.168 698.76 382.692 699.054 381.796H699.124C699.222 382.496 699.6 383 700.398 383H701.14ZM697.248 382.118C696.436 382.118 695.918 381.74 695.918 381.068V380.788C695.918 380.116 696.45 379.752 697.64 379.752H699.026V380.872C699.026 381.6 698.27 382.118 697.248 382.118ZM705.08 383.168C706.788 383.168 707.852 382.286 707.852 380.872C707.852 379.752 707.194 379.052 705.598 378.814L704.982 378.716C704.142 378.59 703.722 378.324 703.722 377.68C703.722 377.064 704.17 376.658 705.052 376.658C705.92 376.658 706.536 377.064 706.886 377.526L707.712 376.742C707.096 376.014 706.326 375.58 705.094 375.58C703.568 375.58 702.462 376.336 702.462 377.764C702.462 379.108 703.428 379.682 704.814 379.878L705.43 379.976C706.312 380.102 706.592 380.48 706.592 381.012C706.592 381.684 706.088 382.09 705.164 382.09C704.282 382.09 703.61 381.698 703.064 381.012L702.182 381.768C702.854 382.622 703.736 383.168 705.08 383.168ZM712.932 383V381.894H711.49V376.854H713.044V375.748H711.49V373.746H710.314V375.076C710.314 375.566 710.16 375.748 709.67 375.748H709.026V376.854H710.188V381.628C710.188 382.468 710.664 383 711.56 383H712.932Z" fill="#020203"/>
</g>
<g filter="url(#filter1_d_19_860)">
<rect x="268" y="159" width="40" height="40" rx="3" fill="white"/>
<path d="M291.489 184V182.796H289.039V174.228H286.939L284.405 176.776L285.217 177.574L287.583 175.222H287.681V182.796H285.007V184H291.489Z" fill="#747576"/>
<rect x="269" y="160" width="38" height="38" rx="2" stroke="#747576" stroke-width="2" stroke-dasharray="7 3"/>
</g>
<g filter="url(#filter2_d_19_860)">
<rect x="268" y="204" width="40" height="40" rx="3" fill="white"/>
<path d="M291.489 229V227.796H289.039V219.228H286.939L284.405 221.776L285.217 222.574L287.583 220.222H287.681V227.796H285.007V229H291.489Z" fill="#747576"/>
<rect x="269" y="205" width="38" height="38" rx="2" stroke="#747576" stroke-width="2" stroke-dasharray="7 3"/>
</g>
<path d="M307 179C352.5 179 352 179 352 179" stroke="#747576" stroke-width="3" stroke-dasharray="7 3"/>
<path d="M307 224C352.5 224 352 224 352 224" stroke="#747576" stroke-width="3" stroke-dasharray="7 3"/>
<rect x="302" y="173" width="12" height="12" rx="6" fill="white"/>
<rect x="302" y="173" width="12" height="12" rx="6" stroke="#747576" stroke-width="2"/>
<rect x="302" y="218" width="12" height="12" rx="6" fill="white"/>
<rect x="302" y="218" width="12" height="12" rx="6" stroke="#747576" stroke-width="2"/>
<g filter="url(#filter3_d_19_860)">
<g clip-path="url(#clip1_19_860)">
<rect x="352" y="62" width="249" height="240" rx="3" fill="white"/>
<rect width="249" height="40" transform="translate(352 62)" fill="white"/>
<path d="M367.978 80H376.019C376.575 80 376.853 80.6719 376.459 81.0656L372.441 85.0875C372.197 85.3312 371.8 85.3312 371.556 85.0875L367.538 81.0656C367.144 80.6719 367.422 80 367.978 80Z" fill="#747576"/>
<path d="M404.618 87V82.968H407.292C409.056 82.968 410.064 81.834 410.064 80.098C410.064 78.362 409.056 77.228 407.292 77.228H403.26V87H404.618ZM404.618 78.432H407.236C408.104 78.432 408.622 78.908 408.622 79.748V80.448C408.622 81.288 408.104 81.764 407.236 81.764H404.618V78.432ZM417.645 87V85.894H416.833V82.072C416.833 80.504 415.797 79.58 413.991 79.58C412.647 79.58 411.793 80.21 411.359 80.994L412.143 81.708C412.521 81.092 413.067 80.672 413.921 80.672C415.013 80.672 415.531 81.218 415.531 82.184V82.842H414.159C412.087 82.842 411.065 83.598 411.065 84.998C411.065 86.328 411.947 87.168 413.459 87.168C414.495 87.168 415.265 86.692 415.559 85.796H415.629C415.727 86.496 416.105 87 416.903 87H417.645ZM413.753 86.118C412.941 86.118 412.423 85.74 412.423 85.068V84.788C412.423 84.116 412.955 83.752 414.145 83.752H415.531V84.872C415.531 85.6 414.775 86.118 413.753 86.118ZM420.501 87V82.24C420.501 81.526 421.201 81.05 422.405 81.05H423.049V79.748H422.615C421.453 79.748 420.809 80.42 420.571 81.134H420.501V79.748H419.199V87H420.501ZM430.387 87V85.894H429.575V82.072C429.575 80.504 428.539 79.58 426.733 79.58C425.389 79.58 424.535 80.21 424.101 80.994L424.885 81.708C425.263 81.092 425.809 80.672 426.663 80.672C427.755 80.672 428.273 81.218 428.273 82.184V82.842H426.901C424.829 82.842 423.807 83.598 423.807 84.998C423.807 86.328 424.689 87.168 426.201 87.168C427.237 87.168 428.007 86.692 428.301 85.796H428.371C428.469 86.496 428.847 87 429.645 87H430.387ZM426.495 86.118C425.683 86.118 425.165 85.74 425.165 85.068V84.788C425.165 84.116 425.697 83.752 426.887 83.752H428.273V84.872C428.273 85.6 427.517 86.118 426.495 86.118ZM433.243 87V82.03C433.243 81.148 434.041 80.714 434.867 80.714C435.861 80.714 436.323 81.344 436.323 82.562V87H437.625V82.03C437.625 81.148 438.395 80.714 439.235 80.714C440.243 80.714 440.705 81.344 440.705 82.562V87H442.007V82.366C442.007 80.602 441.139 79.58 439.683 79.58C438.465 79.58 437.737 80.266 437.471 81.05H437.443C437.065 80.028 436.211 79.58 435.245 79.58C434.279 79.58 433.621 80.196 433.313 80.938H433.243V79.748H431.941V87H433.243ZM446.99 87.168C448.348 87.168 449.398 86.538 449.902 85.6L449.062 84.886C448.67 85.628 448.012 86.062 447.102 86.062C445.8 86.062 445.058 85.194 445.058 83.99V83.696H450.168V83.15C450.168 81.12 449.02 79.58 446.99 79.58C444.974 79.58 443.7 81.078 443.7 83.374C443.7 85.67 444.974 87.168 446.99 87.168ZM446.99 80.63C448.082 80.63 448.782 81.442 448.782 82.646V82.786H445.058V82.688C445.058 81.498 445.856 80.63 446.99 80.63ZM455.093 87V85.894H453.651V80.854H455.205V79.748H453.651V77.746H452.475V79.076C452.475 79.566 452.321 79.748 451.831 79.748H451.187V80.854H452.349V85.628C452.349 86.468 452.825 87 453.721 87H455.093ZM458.249 87V82.24C458.249 81.526 458.949 81.05 460.153 81.05H460.797V79.748H460.363C459.201 79.748 458.557 80.42 458.319 81.134H458.249V79.748H456.947V87H458.249ZM462.855 78.236C463.401 78.236 463.639 77.942 463.639 77.522V77.326C463.639 76.906 463.401 76.612 462.855 76.612C462.309 76.612 462.071 76.906 462.071 77.326V77.522C462.071 77.942 462.309 78.236 462.855 78.236ZM462.197 87H463.499V79.748H462.197V87ZM470.805 87V85.894H466.605L470.693 80.742V79.748H465.247V80.854H469.139L465.121 85.922V87H470.805ZM475.059 87.168C476.417 87.168 477.467 86.538 477.971 85.6L477.131 84.886C476.739 85.628 476.081 86.062 475.171 86.062C473.869 86.062 473.127 85.194 473.127 83.99V83.696H478.237V83.15C478.237 81.12 477.089 79.58 475.059 79.58C473.043 79.58 471.769 81.078 471.769 83.374C471.769 85.67 473.043 87.168 475.059 87.168ZM475.059 80.63C476.151 80.63 476.851 81.442 476.851 82.646V82.786H473.127V82.688C473.127 81.498 473.925 80.63 475.059 80.63Z" fill="black"/>
<g clip-path="url(#clip2_19_860)">
<path d="M578.867 77.4101C578.797 77.1279 578.444 77.0322 578.238 77.2379L575.914 79.5616L573.793 79.2082L573.439 77.0869L575.763 74.7632C575.97 74.5563 575.87 74.2038 575.586 74.1332C574.106 73.7663 572.475 74.1616 571.318 75.3185C570.079 76.5572 569.739 78.3529 570.254 79.9185L563.586 86.5869C562.805 87.3679 562.805 88.6341 563.586 89.4151C564.367 90.196 565.633 90.196 566.414 89.4151L573.077 82.7522C574.643 83.2744 576.435 82.9297 577.682 81.6829C578.84 80.5244 579.235 78.8916 578.867 77.4101V77.4101ZM565 88.7507C564.586 88.7507 564.25 88.4147 564.25 88.0007C564.25 87.5863 564.586 87.2507 565 87.2507C565.414 87.2507 565.75 87.5863 565.75 88.0007C565.75 88.4147 565.414 88.7507 565 88.7507Z" fill="#747576"/>
</g>
<rect width="249" height="2" transform="translate(352 102)" fill="#F0F1F2"/>
<path d="M374.8 142V136.32C374.8 135.312 375.712 134.816 376.656 134.816C377.792 134.816 378.32 135.536 378.32 136.928V142H379.808V136.32C379.808 135.312 380.688 134.816 381.648 134.816C382.8 134.816 383.328 135.536 383.328 136.928V142H384.816V136.704C384.816 134.688 383.824 133.52 382.16 133.52C380.768 133.52 379.936 134.304 379.632 135.2H379.6C379.168 134.032 378.192 133.52 377.088 133.52C375.984 133.52 375.232 134.224 374.88 135.072H374.8V133.712H373.312V142H374.8ZM390.527 142.192C392.783 142.192 394.303 140.496 394.303 137.856C394.303 135.216 392.783 133.52 390.527 133.52C388.271 133.52 386.751 135.216 386.751 137.856C386.751 140.496 388.271 142.192 390.527 142.192ZM390.527 140.912C389.231 140.912 388.335 140.096 388.335 138.48V137.232C388.335 135.616 389.231 134.8 390.527 134.8C391.823 134.8 392.719 135.616 392.719 137.232V138.48C392.719 140.096 391.823 140.912 390.527 140.912ZM401.576 142H403.064V130.16H401.576V135.072H401.512C401.128 134.048 400.264 133.52 399.128 133.52C397.048 133.52 395.8 135.168 395.8 137.856C395.8 140.544 397.048 142.192 399.128 142.192C400.264 142.192 401.128 141.664 401.512 140.64H401.576V142ZM399.56 140.896C398.232 140.896 397.384 139.952 397.384 138.56V137.152C397.384 135.76 398.232 134.816 399.56 134.816C400.68 134.816 401.576 135.456 401.576 136.336V139.376C401.576 140.256 400.68 140.896 399.56 140.896ZM408.855 142.192C410.407 142.192 411.607 141.472 412.183 140.4L411.223 139.584C410.775 140.432 410.023 140.928 408.983 140.928C407.495 140.928 406.647 139.936 406.647 138.56V138.224H412.487V137.6C412.487 135.28 411.175 133.52 408.855 133.52C406.551 133.52 405.095 135.232 405.095 137.856C405.095 140.48 406.551 142.192 408.855 142.192ZM408.855 134.72C410.103 134.72 410.903 135.648 410.903 137.024V137.184H406.647V137.072C406.647 135.712 407.559 134.72 408.855 134.72ZM417.187 142V140.736H416.003V130.16H414.515V140.48C414.515 141.392 415.043 142 416.067 142H417.187Z" fill="black"/>
<path d="M374.064 175.984C374.688 175.984 374.96 175.648 374.96 175.168V174.944C374.96 174.464 374.688 174.128 374.064 174.128C373.44 174.128 373.168 174.464 373.168 174.944V175.168C373.168 175.648 373.44 175.984 374.064 175.984ZM373.312 186H374.8V177.712H373.312V186ZM378.909 186V180.32C378.909 179.312 379.853 178.816 380.829 178.816C381.997 178.816 382.573 179.536 382.573 180.928V186H384.061V180.704C384.061 178.688 383.021 177.52 381.325 177.52C380.077 177.52 379.373 178.16 378.989 179.072H378.909V177.712H377.421V186H378.909ZM387.345 175.984C387.969 175.984 388.241 175.648 388.241 175.168V174.944C388.241 174.464 387.969 174.128 387.345 174.128C386.721 174.128 386.449 174.464 386.449 174.944V175.168C386.449 175.648 386.721 175.984 387.345 175.984ZM386.593 186H388.081V177.712H386.593V186ZM394.303 186V184.736H392.655V178.976H394.431V177.712H392.655V175.424H391.311V176.944C391.311 177.504 391.135 177.712 390.575 177.712H389.839V178.976H391.167V184.432C391.167 185.392 391.711 186 392.735 186H394.303ZM397.173 175.984C397.797 175.984 398.069 175.648 398.069 175.168V174.944C398.069 174.464 397.797 174.128 397.173 174.128C396.549 174.128 396.277 174.464 396.277 174.944V175.168C396.277 175.648 396.549 175.984 397.173 175.984ZM396.421 186H397.909V177.712H396.421V186ZM407.411 186V184.736H406.483V180.368C406.483 178.576 405.299 177.52 403.235 177.52C401.699 177.52 400.723 178.24 400.227 179.136L401.123 179.952C401.555 179.248 402.179 178.768 403.155 178.768C404.403 178.768 404.995 179.392 404.995 180.496V181.248H403.427C401.059 181.248 399.891 182.112 399.891 183.712C399.891 185.232 400.899 186.192 402.627 186.192C403.811 186.192 404.691 185.648 405.027 184.624H405.107C405.219 185.424 405.651 186 406.563 186H407.411ZM402.963 184.992C402.035 184.992 401.443 184.56 401.443 183.792V183.472C401.443 182.704 402.051 182.288 403.411 182.288H404.995V183.568C404.995 184.4 404.131 184.992 402.963 184.992ZM411.859 186V184.736H410.675V174.16H409.187V184.48C409.187 185.392 409.715 186 410.739 186H411.859ZM419.965 186.192C421.917 186.192 423.133 185.184 423.133 183.568C423.133 182.288 422.381 181.488 420.557 181.216L419.853 181.104C418.893 180.96 418.413 180.656 418.413 179.92C418.413 179.216 418.925 178.752 419.933 178.752C420.925 178.752 421.629 179.216 422.029 179.744L422.973 178.848C422.269 178.016 421.389 177.52 419.981 177.52C418.237 177.52 416.973 178.384 416.973 180.016C416.973 181.552 418.077 182.208 419.661 182.432L420.365 182.544C421.373 182.688 421.693 183.12 421.693 183.728C421.693 184.496 421.117 184.96 420.061 184.96C419.053 184.96 418.285 184.512 417.661 183.728L416.653 184.592C417.421 185.568 418.429 186.192 419.965 186.192ZM428.756 186V184.736H427.108V178.976H428.884V177.712H427.108V175.424H425.764V176.944C425.764 177.504 425.588 177.712 425.028 177.712H424.292V178.976H425.62V184.432C425.62 185.392 426.164 186 427.188 186H428.756ZM437.755 186V184.736H436.827V180.368C436.827 178.576 435.643 177.52 433.579 177.52C432.043 177.52 431.067 178.24 430.571 179.136L431.467 179.952C431.899 179.248 432.523 178.768 433.499 178.768C434.747 178.768 435.339 179.392 435.339 180.496V181.248H433.771C431.403 181.248 430.235 182.112 430.235 183.712C430.235 185.232 431.243 186.192 432.971 186.192C434.155 186.192 435.035 185.648 435.371 184.624H435.451C435.563 185.424 435.995 186 436.907 186H437.755ZM433.307 184.992C432.379 184.992 431.787 184.56 431.787 183.792V183.472C431.787 182.704 432.395 182.288 433.755 182.288H435.339V183.568C435.339 184.4 434.475 184.992 433.307 184.992ZM443.115 186V184.736H441.467V178.976H443.243V177.712H441.467V175.424H440.123V176.944C440.123 177.504 439.947 177.712 439.387 177.712H438.651V178.976H439.979V184.432C439.979 185.392 440.523 186 441.547 186H443.115ZM448.339 186.192C449.891 186.192 451.091 185.472 451.667 184.4L450.707 183.584C450.259 184.432 449.507 184.928 448.467 184.928C446.979 184.928 446.131 183.936 446.131 182.56V182.224H451.971V181.6C451.971 179.28 450.659 177.52 448.339 177.52C446.035 177.52 444.579 179.232 444.579 181.856C444.579 184.48 446.035 186.192 448.339 186.192ZM448.339 178.72C449.587 178.72 450.387 179.648 450.387 181.024V181.184H446.131V181.072C446.131 179.712 447.043 178.72 448.339 178.72ZM461.333 186L464.213 177.712H462.789L461.413 181.68L460.533 184.544H460.437L459.573 181.68L458.213 177.712H456.725L459.589 186H461.333ZM472.52 186V184.736H471.592V180.368C471.592 178.576 470.408 177.52 468.344 177.52C466.808 177.52 465.832 178.24 465.336 179.136L466.232 179.952C466.664 179.248 467.288 178.768 468.264 178.768C469.512 178.768 470.104 179.392 470.104 180.496V181.248H468.536C466.168 181.248 465 182.112 465 183.712C465 185.232 466.008 186.192 467.736 186.192C468.92 186.192 469.8 185.648 470.136 184.624H470.216C470.328 185.424 470.76 186 471.672 186H472.52ZM468.072 184.992C467.144 184.992 466.552 184.56 466.552 183.792V183.472C466.552 182.704 467.16 182.288 468.52 182.288H470.104V183.568C470.104 184.4 469.24 184.992 468.072 184.992ZM476.968 186V184.736H475.784V174.16H474.296V184.48C474.296 185.392 474.824 186 475.848 186H476.968ZM483.822 186H485.31V177.712H483.822V183.376C483.822 184.416 482.862 184.896 481.918 184.896C480.75 184.896 480.158 184.176 480.158 182.784V177.712H478.67V183.008C478.67 185.024 479.726 186.192 481.422 186.192C482.798 186.192 483.438 185.44 483.742 184.64H483.822V186ZM491.105 186.192C492.657 186.192 493.857 185.472 494.433 184.4L493.473 183.584C493.025 184.432 492.273 184.928 491.233 184.928C489.745 184.928 488.897 183.936 488.897 182.56V182.224H494.737V181.6C494.737 179.28 493.425 177.52 491.105 177.52C488.801 177.52 487.345 179.232 487.345 181.856C487.345 184.48 488.801 186.192 491.105 186.192ZM491.105 178.72C492.353 178.72 493.153 179.648 493.153 181.024V181.184H488.897V181.072C488.897 179.712 489.809 178.72 491.105 178.72ZM499.309 186.192C501.261 186.192 502.477 185.184 502.477 183.568C502.477 182.288 501.725 181.488 499.901 181.216L499.197 181.104C498.237 180.96 497.757 180.656 497.757 179.92C497.757 179.216 498.269 178.752 499.277 178.752C500.269 178.752 500.973 179.216 501.373 179.744L502.317 178.848C501.613 178.016 500.733 177.52 499.325 177.52C497.581 177.52 496.317 178.384 496.317 180.016C496.317 181.552 497.421 182.208 499.005 182.432L499.709 182.544C500.717 182.688 501.037 183.12 501.037 183.728C501.037 184.496 500.461 184.96 499.405 184.96C498.397 184.96 497.629 184.512 497.005 183.728L495.997 184.592C496.765 185.568 497.773 186.192 499.309 186.192Z" fill="black"/>
<path d="M373.312 233.2H374.8V228.64H374.864C375.248 229.664 376.112 230.192 377.248 230.192C379.328 230.192 380.576 228.544 380.576 225.856C380.576 223.168 379.328 221.52 377.248 221.52C376.112 221.52 375.248 222.048 374.864 223.072H374.8V221.712H373.312V233.2ZM376.816 228.896C375.696 228.896 374.8 228.256 374.8 227.376V224.336C374.8 223.456 375.696 222.816 376.816 222.816C378.144 222.816 378.992 223.76 378.992 225.152V226.56C378.992 227.952 378.144 228.896 376.816 228.896ZM389.551 230V228.736H388.623V224.368C388.623 222.576 387.439 221.52 385.375 221.52C383.839 221.52 382.863 222.24 382.367 223.136L383.263 223.952C383.695 223.248 384.319 222.768 385.295 222.768C386.543 222.768 387.135 223.392 387.135 224.496V225.248H385.567C383.199 225.248 382.031 226.112 382.031 227.712C382.031 229.232 383.039 230.192 384.767 230.192C385.951 230.192 386.831 229.648 387.167 228.624H387.247C387.359 229.424 387.791 230 388.703 230H389.551ZM385.103 228.992C384.175 228.992 383.583 228.56 383.583 227.792V227.472C383.583 226.704 384.191 226.288 385.551 226.288H387.135V227.568C387.135 228.4 386.271 228.992 385.103 228.992ZM392.816 230V224.56C392.816 223.744 393.616 223.2 394.992 223.2H395.728V221.712H395.232C393.904 221.712 393.168 222.48 392.896 223.296H392.816V221.712H391.328V230H392.816ZM404.114 230V228.736H403.186V224.368C403.186 222.576 402.002 221.52 399.938 221.52C398.402 221.52 397.426 222.24 396.93 223.136L397.826 223.952C398.258 223.248 398.882 222.768 399.858 222.768C401.106 222.768 401.698 223.392 401.698 224.496V225.248H400.13C397.762 225.248 396.594 226.112 396.594 227.712C396.594 229.232 397.602 230.192 399.33 230.192C400.514 230.192 401.394 229.648 401.73 228.624H401.81C401.922 229.424 402.354 230 403.266 230H404.114ZM399.666 228.992C398.738 228.992 398.146 228.56 398.146 227.792V227.472C398.146 226.704 398.754 226.288 400.114 226.288H401.698V227.568C401.698 228.4 400.834 228.992 399.666 228.992ZM407.378 230V224.32C407.378 223.312 408.29 222.816 409.234 222.816C410.37 222.816 410.898 223.536 410.898 224.928V230H412.386V224.32C412.386 223.312 413.266 222.816 414.226 222.816C415.378 222.816 415.906 223.536 415.906 224.928V230H417.394V224.704C417.394 222.688 416.402 221.52 414.738 221.52C413.346 221.52 412.514 222.304 412.21 223.2H412.178C411.746 222.032 410.77 221.52 409.666 221.52C408.562 221.52 407.81 222.224 407.458 223.072H407.378V221.712H405.89V230H407.378ZM423.089 230.192C424.641 230.192 425.841 229.472 426.417 228.4L425.457 227.584C425.009 228.432 424.257 228.928 423.217 228.928C421.729 228.928 420.881 227.936 420.881 226.56V226.224H426.721V225.6C426.721 223.28 425.409 221.52 423.089 221.52C420.785 221.52 419.329 223.232 419.329 225.856C419.329 228.48 420.785 230.192 423.089 230.192ZM423.089 222.72C424.337 222.72 425.137 223.648 425.137 225.024V225.184H420.881V225.072C420.881 223.712 421.793 222.72 423.089 222.72ZM432.35 230V228.736H430.702V222.976H432.478V221.712H430.702V219.424H429.358V220.944C429.358 221.504 429.182 221.712 428.622 221.712H427.886V222.976H429.214V228.432C429.214 229.392 429.758 230 430.782 230H432.35ZM437.574 230.192C439.126 230.192 440.326 229.472 440.902 228.4L439.942 227.584C439.494 228.432 438.742 228.928 437.702 228.928C436.214 228.928 435.366 227.936 435.366 226.56V226.224H441.206V225.6C441.206 223.28 439.894 221.52 437.574 221.52C435.27 221.52 433.814 223.232 433.814 225.856C433.814 228.48 435.27 230.192 437.574 230.192ZM437.574 222.72C438.822 222.72 439.622 223.648 439.622 225.024V225.184H435.366V225.072C435.366 223.712 436.278 222.72 437.574 222.72ZM444.722 230V224.56C444.722 223.744 445.522 223.2 446.898 223.2H447.634V221.712H447.138C445.81 221.712 445.074 222.48 444.802 223.296H444.722V221.712H443.234V230H444.722ZM456.567 230L459.447 221.712H458.023L456.647 225.68L455.767 228.544H455.671L454.807 225.68L453.447 221.712H451.959L454.823 230H456.567ZM467.755 230V228.736H466.827V224.368C466.827 222.576 465.643 221.52 463.579 221.52C462.043 221.52 461.067 222.24 460.571 223.136L461.467 223.952C461.899 223.248 462.523 222.768 463.499 222.768C464.747 222.768 465.339 223.392 465.339 224.496V225.248H463.771C461.403 225.248 460.235 226.112 460.235 227.712C460.235 229.232 461.243 230.192 462.971 230.192C464.155 230.192 465.035 229.648 465.371 228.624H465.451C465.563 229.424 465.995 230 466.907 230H467.755ZM463.307 228.992C462.379 228.992 461.787 228.56 461.787 227.792V227.472C461.787 226.704 462.395 226.288 463.755 226.288H465.339V227.568C465.339 228.4 464.475 228.992 463.307 228.992ZM472.203 230V228.736H471.019V218.16H469.531V228.48C469.531 229.392 470.059 230 471.083 230H472.203ZM479.056 230H480.544V221.712H479.056V227.376C479.056 228.416 478.096 228.896 477.152 228.896C475.984 228.896 475.392 228.176 475.392 226.784V221.712H473.904V227.008C473.904 229.024 474.96 230.192 476.656 230.192C478.032 230.192 478.672 229.44 478.976 228.64H479.056V230ZM486.339 230.192C487.891 230.192 489.091 229.472 489.667 228.4L488.707 227.584C488.259 228.432 487.507 228.928 486.467 228.928C484.979 228.928 484.131 227.936 484.131 226.56V226.224H489.971V225.6C489.971 223.28 488.659 221.52 486.339 221.52C484.035 221.52 482.579 223.232 482.579 225.856C482.579 228.48 484.035 230.192 486.339 230.192ZM486.339 222.72C487.587 222.72 488.387 223.648 488.387 225.024V225.184H484.131V225.072C484.131 223.712 485.043 222.72 486.339 222.72ZM494.544 230.192C496.496 230.192 497.712 229.184 497.712 227.568C497.712 226.288 496.96 225.488 495.136 225.216L494.432 225.104C493.472 224.96 492.992 224.656 492.992 223.92C492.992 223.216 493.504 222.752 494.512 222.752C495.504 222.752 496.208 223.216 496.608 223.744L497.552 222.848C496.848 222.016 495.968 221.52 494.56 221.52C492.816 221.52 491.552 222.384 491.552 224.016C491.552 225.552 492.656 226.208 494.24 226.432L494.944 226.544C495.952 226.688 496.272 227.12 496.272 227.728C496.272 228.496 495.696 228.96 494.64 228.96C493.632 228.96 492.864 228.512 492.24 227.728L491.232 228.592C492 229.568 493.008 230.192 494.544 230.192Z" fill="black"/>
<rect width="249" height="2" transform="translate(352 256)" fill="#F0F1F2"/>
<path d="M435.312 289.2H436.8V284.64H436.864C437.248 285.664 438.112 286.192 439.248 286.192C441.328 286.192 442.576 284.544 442.576 281.856C442.576 279.168 441.328 277.52 439.248 277.52C438.112 277.52 437.248 278.048 436.864 279.072H436.8V277.712H435.312V289.2ZM438.816 284.896C437.696 284.896 436.8 284.256 436.8 283.376V280.336C436.8 279.456 437.696 278.816 438.816 278.816C440.144 278.816 440.992 279.76 440.992 281.152V282.56C440.992 283.952 440.144 284.896 438.816 284.896ZM451.551 286V284.736H450.623V280.368C450.623 278.576 449.439 277.52 447.375 277.52C445.839 277.52 444.863 278.24 444.367 279.136L445.263 279.952C445.695 279.248 446.319 278.768 447.295 278.768C448.543 278.768 449.135 279.392 449.135 280.496V281.248H447.567C445.199 281.248 444.031 282.112 444.031 283.712C444.031 285.232 445.039 286.192 446.767 286.192C447.951 286.192 448.831 285.648 449.167 284.624H449.247C449.359 285.424 449.791 286 450.703 286H451.551ZM447.103 284.992C446.175 284.992 445.583 284.56 445.583 283.792V283.472C445.583 282.704 446.191 282.288 447.551 282.288H449.135V283.568C449.135 284.4 448.271 284.992 447.103 284.992ZM454.816 286V280.56C454.816 279.744 455.616 279.2 456.992 279.2H457.728V277.712H457.232C455.904 277.712 455.168 278.48 454.896 279.296H454.816V277.712H453.328V286H454.816ZM466.114 286V284.736H465.186V280.368C465.186 278.576 464.002 277.52 461.938 277.52C460.402 277.52 459.426 278.24 458.93 279.136L459.826 279.952C460.258 279.248 460.882 278.768 461.858 278.768C463.106 278.768 463.698 279.392 463.698 280.496V281.248H462.13C459.762 281.248 458.594 282.112 458.594 283.712C458.594 285.232 459.602 286.192 461.33 286.192C462.514 286.192 463.394 285.648 463.73 284.624H463.81C463.922 285.424 464.354 286 465.266 286H466.114ZM461.666 284.992C460.738 284.992 460.146 284.56 460.146 283.792V283.472C460.146 282.704 460.754 282.288 462.114 282.288H463.698V283.568C463.698 284.4 462.834 284.992 461.666 284.992ZM469.378 286V280.32C469.378 279.312 470.29 278.816 471.234 278.816C472.37 278.816 472.898 279.536 472.898 280.928V286H474.386V280.32C474.386 279.312 475.266 278.816 476.226 278.816C477.378 278.816 477.906 279.536 477.906 280.928V286H479.394V280.704C479.394 278.688 478.402 277.52 476.738 277.52C475.346 277.52 474.514 278.304 474.21 279.2H474.178C473.746 278.032 472.77 277.52 471.666 277.52C470.562 277.52 469.81 278.224 469.458 279.072H469.378V277.712H467.89V286H469.378ZM485.089 286.192C486.641 286.192 487.841 285.472 488.417 284.4L487.457 283.584C487.009 284.432 486.257 284.928 485.217 284.928C483.729 284.928 482.881 283.936 482.881 282.56V282.224H488.721V281.6C488.721 279.28 487.409 277.52 485.089 277.52C482.785 277.52 481.329 279.232 481.329 281.856C481.329 284.48 482.785 286.192 485.089 286.192ZM485.089 278.72C486.337 278.72 487.137 279.648 487.137 281.024V281.184H482.881V281.072C482.881 279.712 483.793 278.72 485.089 278.72ZM494.35 286V284.736H492.702V278.976H494.478V277.712H492.702V275.424H491.358V276.944C491.358 277.504 491.182 277.712 490.622 277.712H489.886V278.976H491.214V284.432C491.214 285.392 491.758 286 492.782 286H494.35ZM497.956 286V280.56C497.956 279.744 498.756 279.2 500.132 279.2H500.868V277.712H500.372C499.044 277.712 498.308 278.48 498.036 279.296H497.956V277.712H496.468V286H497.956ZM503.22 275.984C503.844 275.984 504.116 275.648 504.116 275.168V274.944C504.116 274.464 503.844 274.128 503.22 274.128C502.596 274.128 502.324 274.464 502.324 274.944V275.168C502.324 275.648 502.596 275.984 503.22 275.984ZM502.468 286H503.956V277.712H502.468V286ZM512.306 286V284.736H507.506L512.178 278.848V277.712H505.954V278.976H510.402L505.81 284.768V286H512.306ZM517.168 286.192C518.72 286.192 519.92 285.472 520.496 284.4L519.536 283.584C519.088 284.432 518.336 284.928 517.296 284.928C515.808 284.928 514.96 283.936 514.96 282.56V282.224H520.8V281.6C520.8 279.28 519.488 277.52 517.168 277.52C514.864 277.52 513.408 279.232 513.408 281.856C513.408 284.48 514.864 286.192 517.168 286.192ZM517.168 278.72C518.416 278.72 519.216 279.648 519.216 281.024V281.184H514.96V281.072C514.96 279.712 515.872 278.72 517.168 278.72ZM528.076 286H529.564V274.16H528.076V279.072H528.012C527.628 278.048 526.764 277.52 525.628 277.52C523.548 277.52 522.3 279.168 522.3 281.856C522.3 284.544 523.548 286.192 525.628 286.192C526.764 286.192 527.628 285.664 528.012 284.64H528.076V286ZM526.06 284.896C524.732 284.896 523.884 283.952 523.884 282.56V281.152C523.884 279.76 524.732 278.816 526.06 278.816C527.18 278.816 528.076 279.456 528.076 280.336V283.376C528.076 284.256 527.18 284.896 526.06 284.896ZM537.456 286V280.32C537.456 279.312 538.368 278.816 539.312 278.816C540.448 278.816 540.976 279.536 540.976 280.928V286H542.464V280.32C542.464 279.312 543.344 278.816 544.304 278.816C545.456 278.816 545.984 279.536 545.984 280.928V286H547.472V280.704C547.472 278.688 546.48 277.52 544.816 277.52C543.424 277.52 542.592 278.304 542.288 279.2H542.256C541.824 278.032 540.848 277.52 539.744 277.52C538.64 277.52 537.888 278.224 537.536 279.072H537.456V277.712H535.968V286H537.456ZM553.184 286.192C555.44 286.192 556.96 284.496 556.96 281.856C556.96 279.216 555.44 277.52 553.184 277.52C550.928 277.52 549.408 279.216 549.408 281.856C549.408 284.496 550.928 286.192 553.184 286.192ZM553.184 284.912C551.888 284.912 550.992 284.096 550.992 282.48V281.232C550.992 279.616 551.888 278.8 553.184 278.8C554.48 278.8 555.376 279.616 555.376 281.232V282.48C555.376 284.096 554.48 284.912 553.184 284.912ZM564.232 286H565.72V274.16H564.232V279.072H564.168C563.784 278.048 562.92 277.52 561.784 277.52C559.704 277.52 558.456 279.168 558.456 281.856C558.456 284.544 559.704 286.192 561.784 286.192C562.92 286.192 563.784 285.664 564.168 284.64H564.232V286ZM562.216 284.896C560.888 284.896 560.04 283.952 560.04 282.56V281.152C560.04 279.76 560.888 278.816 562.216 278.816C563.336 278.816 564.232 279.456 564.232 280.336V283.376C564.232 284.256 563.336 284.896 562.216 284.896ZM571.511 286.192C573.063 286.192 574.263 285.472 574.839 284.4L573.879 283.584C573.431 284.432 572.679 284.928 571.639 284.928C570.151 284.928 569.303 283.936 569.303 282.56V282.224H575.143V281.6C575.143 279.28 573.831 277.52 571.511 277.52C569.207 277.52 567.751 279.232 567.751 281.856C567.751 284.48 569.207 286.192 571.511 286.192ZM571.511 278.72C572.759 278.72 573.559 279.648 573.559 281.024V281.184H569.303V281.072C569.303 279.712 570.215 278.72 571.511 278.72ZM579.843 286V284.736H578.659V274.16H577.171V284.48C577.171 285.392 577.699 286 578.723 286H579.843Z" fill="black"/>
</g>
</g>
<g filter="url(#filter4_d_19_860)">
<rect x="64" y="115" width="244" height="40" rx="3" fill="white"/>
<path d="M81 139.021V130.98C81 130.423 81.6732 130.144 82.0669 130.538L86.0876 134.558C86.3317 134.802 86.3317 135.198 86.0876 135.442L82.0669 139.463C81.6732 139.857 81 139.578 81 139.021Z" fill="#747576"/>
<path d="M121.56 140H122.778V134.89H119.376V136.066H121.462V136.948C121.462 138.292 120.384 138.95 119.082 138.95C117.332 138.95 116.24 137.774 116.24 135.898V134.316C116.24 132.44 117.346 131.278 118.998 131.278C120.202 131.278 121.056 131.908 121.476 132.888L122.596 132.23C121.938 130.914 120.734 130.06 118.998 130.06C116.464 130.06 114.784 131.866 114.784 135.128C114.784 138.404 116.464 140.168 118.83 140.168C120.314 140.168 121.294 139.468 121.504 138.544H121.56V140ZM125.595 131.236C126.141 131.236 126.379 130.942 126.379 130.522V130.326C126.379 129.906 126.141 129.612 125.595 129.612C125.049 129.612 124.811 129.906 124.811 130.326V130.522C124.811 130.942 125.049 131.236 125.595 131.236ZM124.937 140H126.239V132.748H124.937V140ZM131.319 140.168C133.293 140.168 134.623 138.684 134.623 136.374C134.623 134.064 133.293 132.58 131.319 132.58C129.345 132.58 128.015 134.064 128.015 136.374C128.015 138.684 129.345 140.168 131.319 140.168ZM131.319 139.048C130.185 139.048 129.401 138.334 129.401 136.92V135.828C129.401 134.414 130.185 133.7 131.319 133.7C132.453 133.7 133.237 134.414 133.237 135.828V136.92C133.237 138.334 132.453 139.048 131.319 139.048ZM137.696 140V135.24C137.696 134.526 138.396 134.05 139.6 134.05H140.244V132.748H139.81C138.648 132.748 138.004 133.42 137.766 134.134H137.696V132.748H136.394V140H137.696ZM146.154 140H147.456V129.64H146.154V133.938H146.098C145.762 133.042 145.006 132.58 144.012 132.58C142.192 132.58 141.1 134.022 141.1 136.374C141.1 138.726 142.192 140.168 144.012 140.168C145.006 140.168 145.762 139.706 146.098 138.81H146.154V140ZM144.39 139.034C143.228 139.034 142.486 138.208 142.486 136.99V135.758C142.486 134.54 143.228 133.714 144.39 133.714C145.37 133.714 146.154 134.274 146.154 135.044V137.704C146.154 138.474 145.37 139.034 144.39 139.034ZM155.772 140V138.894H154.96V135.072C154.96 133.504 153.924 132.58 152.118 132.58C150.774 132.58 149.92 133.21 149.486 133.994L150.27 134.708C150.648 134.092 151.194 133.672 152.048 133.672C153.14 133.672 153.658 134.218 153.658 135.184V135.842H152.286C150.214 135.842 149.192 136.598 149.192 137.998C149.192 139.328 150.074 140.168 151.586 140.168C152.622 140.168 153.392 139.692 153.686 138.796H153.756C153.854 139.496 154.232 140 155.03 140H155.772ZM151.88 139.118C151.068 139.118 150.55 138.74 150.55 138.068V137.788C150.55 137.116 151.082 136.752 152.272 136.752H153.658V137.872C153.658 138.6 152.902 139.118 151.88 139.118ZM158.628 140V135.03C158.628 134.148 159.454 133.714 160.308 133.714C161.33 133.714 161.834 134.344 161.834 135.562V140H163.136V135.366C163.136 133.602 162.226 132.58 160.742 132.58C159.65 132.58 159.034 133.14 158.698 133.938H158.628V132.748H157.326V140H158.628ZM168.137 140.168C170.111 140.168 171.441 138.684 171.441 136.374C171.441 134.064 170.111 132.58 168.137 132.58C166.163 132.58 164.833 134.064 164.833 136.374C164.833 138.684 166.163 140.168 168.137 140.168ZM168.137 139.048C167.003 139.048 166.219 138.334 166.219 136.92V135.828C166.219 134.414 167.003 133.7 168.137 133.7C169.271 133.7 170.055 134.414 170.055 135.828V136.92C170.055 138.334 169.271 139.048 168.137 139.048ZM180.049 136.416V135.058H176.297V136.416H180.049ZM188.361 140.168C190.531 140.168 191.805 138.992 191.805 137.186C191.805 135.688 190.951 134.834 189.033 134.414L188.207 134.246C187.045 133.994 186.499 133.602 186.499 132.734C186.499 131.768 187.213 131.25 188.403 131.25C189.509 131.25 190.223 131.698 190.741 132.412L191.735 131.614C190.993 130.606 189.943 130.06 188.473 130.06C186.471 130.06 185.155 131.054 185.155 132.79C185.155 134.316 186.121 135.142 187.955 135.52L188.781 135.688C189.999 135.954 190.461 136.402 190.461 137.256C190.461 138.292 189.747 138.978 188.417 138.978C187.325 138.978 186.513 138.502 185.827 137.62L184.861 138.488C185.645 139.524 186.765 140.168 188.361 140.168ZM197.404 140V138.852H196.046V131.376H197.404V130.228H193.33V131.376H194.688V138.852H193.33V140H197.404ZM199.479 140H202.825C205.303 140 206.899 138.376 206.899 135.114C206.899 131.852 205.303 130.228 202.825 130.228H199.479V140ZM200.837 138.796V131.432H202.825C204.379 131.432 205.443 132.468 205.443 134.33V135.898C205.443 137.76 204.379 138.796 202.825 138.796H200.837ZM216.225 140L212.851 130.228H211.143L207.755 140H209.127L210.065 137.242H213.873L214.797 140H216.225ZM213.537 136.038H210.387L211.927 131.474H211.997L213.537 136.038ZM219.157 135.94H221.299L223.329 140H224.855L222.685 135.8C223.945 135.478 224.603 134.512 224.603 133.098C224.603 131.306 223.553 130.228 221.831 130.228H217.799V140H219.157V135.94ZM219.157 134.764V131.432H221.775C222.643 131.432 223.161 131.908 223.161 132.748V133.448C223.161 134.288 222.643 134.764 221.775 134.764H219.157ZM228.608 140H229.966V131.432H232.99V130.228H225.584V131.432H228.608V140ZM240.636 140H241.994V130.228H240.636V134.456H235.932V130.228H234.574V140H235.932V135.66H240.636V140ZM250.604 140V138.796H245.872V135.66H250.254V134.456H245.872V131.432H250.604V130.228H244.514V140H250.604Z" fill="black"/>
<g clip-path="url(#clip3_19_860)">
<path d="M291 133C292.103 133 293 132.103 293 131C293 129.897 292.103 129 291 129C289.897 129 289 129.897 289 131C289 132.103 289.897 133 291 133ZM275 134.5C273.897 134.5 273 135.397 273 136.5C273 137.603 273.897 138.5 275 138.5C276.103 138.5 277 137.603 277 136.5C277 135.397 276.103 134.5 275 134.5ZM289.05 133.338L288.45 132.537L286.95 133.662L287.55 134.463L289.05 133.338ZM291 139C290.55 139 290.138 139.156 289.803 139.406L286.803 137.606C286.922 137.256 287 136.887 287 136.497C287 134.562 285.434 132.997 283.5 132.997C283.238 132.997 282.981 133.031 282.738 133.088L281.462 130.356C281.794 130 282 129.525 282 129C282 127.897 281.103 127 280 127C278.897 127 278 127.897 278 129C278 130.103 278.897 131 280 131C280.034 131 280.066 130.991 280.1 130.991L281.381 133.734C280.547 134.372 280 135.369 280 136.5C280 138.434 281.566 140 283.5 140C284.503 140 285.4 139.572 286.038 138.897L289.031 140.694C289.016 140.794 289 140.897 289 141C289 142.103 289.897 143 291 143C292.103 143 293 142.103 293 141C293 139.897 292.103 139 291 139ZM283.5 138C282.672 138 282 137.328 282 136.5C282 135.672 282.672 135 283.5 135C284.328 135 285 135.672 285 136.5C285 137.328 284.328 138 283.5 138ZM277.75 137H279.25V136H277.75V137Z" fill="#747576"/>
</g>
</g>
<path d="M308 135C353.5 135 353 135 353 135" stroke="#747576" stroke-width="3"/>
<rect x="346" y="129" width="12" height="12" rx="6" fill="#39B539"/>
<rect x="346" y="129" width="12" height="12" rx="6" stroke="#39B539" stroke-width="2"/>
<rect x="302" y="129" width="12" height="12" rx="6" fill="#39B539"/>
<rect x="302" y="129" width="12" height="12" rx="6" stroke="#39B539" stroke-width="2"/>
<rect x="346" y="173" width="12" height="12" rx="6" fill="#F0F1F2"/>
<rect x="346" y="173" width="12" height="12" rx="6" stroke="#747576" stroke-width="2"/>
<rect x="346" y="218" width="12" height="12" rx="6" fill="#F0F1F2"/>
<rect x="346" y="218" width="12" height="12" rx="6" stroke="#747576" stroke-width="2"/>
<rect x="595" y="272" width="12" height="12" rx="6" fill="#F0F1F2"/>
<rect x="595" y="272" width="12" height="12" rx="6" stroke="#747576" stroke-width="2"/>
<defs>
<filter id="filter0_d_19_860" x="641" y="293" width="204" height="107" filterUnits="userSpaceOnUse" color-interpolation-filters="sRGB">
<feFlood flood-opacity="0" result="BackgroundImageFix"/>
<feColorMatrix in="SourceAlpha" type="matrix" values="0 0 0 0 0 0 0 0 0 0 0 0 0 0 0 0 0 0 127 0" result="hardAlpha"/>
<feOffset dy="2"/>
<feGaussianBlur stdDeviation="2"/>
<feColorMatrix type="matrix" values="0 0 0 0 0 0 0 0 0 0 0 0 0 0 0 0 0 0 0.2 0"/>
<feBlend mode="normal" in2="BackgroundImageFix" result="effect1_dropShadow_19_860"/>
<feBlend mode="normal" in="SourceGraphic" in2="effect1_dropShadow_19_860" result="shape"/>
</filter>
<filter id="filter1_d_19_860" x="264" y="157" width="48" height="48" filterUnits="userSpaceOnUse" color-interpolation-filters="sRGB">
<feFlood flood-opacity="0" result="BackgroundImageFix"/>
<feColorMatrix in="SourceAlpha" type="matrix" values="0 0 0 0 0 0 0 0 0 0 0 0 0 0 0 0 0 0 127 0" result="hardAlpha"/>
<feOffset dy="2"/>
<feGaussianBlur stdDeviation="2"/>
<feColorMatrix type="matrix" values="0 0 0 0 0 0 0 0 0 0 0 0 0 0 0 0 0 0 0.2 0"/>
<feBlend mode="normal" in2="BackgroundImageFix" result="effect1_dropShadow_19_860"/>
<feBlend mode="normal" in="SourceGraphic" in2="effect1_dropShadow_19_860" result="shape"/>
</filter>
<filter id="filter2_d_19_860" x="264" y="202" width="48" height="48" filterUnits="userSpaceOnUse" color-interpolation-filters="sRGB">
<feFlood flood-opacity="0" result="BackgroundImageFix"/>
<feColorMatrix in="SourceAlpha" type="matrix" values="0 0 0 0 0 0 0 0 0 0 0 0 0 0 0 0 0 0 127 0" result="hardAlpha"/>
<feOffset dy="2"/>
<feGaussianBlur stdDeviation="2"/>
<feColorMatrix type="matrix" values="0 0 0 0 0 0 0 0 0 0 0 0 0 0 0 0 0 0 0.2 0"/>
<feBlend mode="normal" in2="BackgroundImageFix" result="effect1_dropShadow_19_860"/>
<feBlend mode="normal" in="SourceGraphic" in2="effect1_dropShadow_19_860" result="shape"/>
</filter>
<filter id="filter3_d_19_860" x="348" y="60" width="257" height="248" filterUnits="userSpaceOnUse" color-interpolation-filters="sRGB">
<feFlood flood-opacity="0" result="BackgroundImageFix"/>
<feColorMatrix in="SourceAlpha" type="matrix" values="0 0 0 0 0 0 0 0 0 0 0 0 0 0 0 0 0 0 127 0" result="hardAlpha"/>
<feOffset dy="2"/>
<feGaussianBlur stdDeviation="2"/>
<feColorMatrix type="matrix" values="0 0 0 0 0 0 0 0 0 0 0 0 0 0 0 0 0 0 0.2 0"/>
<feBlend mode="normal" in2="BackgroundImageFix" result="effect1_dropShadow_19_860"/>
<feBlend mode="normal" in="SourceGraphic" in2="effect1_dropShadow_19_860" result="shape"/>
</filter>
<filter id="filter4_d_19_860" x="60" y="113" width="252" height="48" filterUnits="userSpaceOnUse" color-interpolation-filters="sRGB">
<feFlood flood-opacity="0" result="BackgroundImageFix"/>
<feColorMatrix in="SourceAlpha" type="matrix" values="0 0 0 0 0 0 0 0 0 0 0 0 0 0 0 0 0 0 127 0" result="hardAlpha"/>
<feOffset dy="2"/>
<feGaussianBlur stdDeviation="2"/>
<feColorMatrix type="matrix" values="0 0 0 0 0 0 0 0 0 0 0 0 0 0 0 0 0 0 0.2 0"/>
<feBlend mode="normal" in2="BackgroundImageFix" result="effect1_dropShadow_19_860"/>
<feBlend mode="normal" in="SourceGraphic" in2="effect1_dropShadow_19_860" result="shape"/>
</filter>
<clipPath id="clip0_19_860">
<rect x="646" y="264" width="117" height="28" rx="3" fill="white"/>
</clipPath>
<clipPath id="clip1_19_860">
<rect x="352" y="62" width="249" height="240" rx="3" fill="white"/>
</clipPath>
<clipPath id="clip2_19_860">
<rect width="16" height="16" fill="white" transform="translate(563 74)"/>
</clipPath>
<clipPath id="clip3_19_860">
<rect width="20" height="16" fill="white" transform="translate(273 127)"/>
</clipPath>
</defs>
</svg>
