<svg width="1287" height="503" viewBox="0 0 1287 503" fill="none" xmlns="http://www.w3.org/2000/svg">
<g filter="url(#filter0_d_15_1525)">
<rect x="64" y="115" width="244" height="40" rx="3" fill="white"/>
<path d="M81 139.021V130.98C81 130.423 81.6732 130.144 82.0669 130.538L86.0876 134.558C86.3317 134.802 86.3317 135.198 86.0876 135.442L82.0669 139.463C81.6732 139.857 81 139.578 81 139.021Z" fill="#747576"/>
<path d="M121.56 140H122.778V134.89H119.376V136.066H121.462V136.948C121.462 138.292 120.384 138.95 119.082 138.95C117.332 138.95 116.24 137.774 116.24 135.898V134.316C116.24 132.44 117.346 131.278 118.998 131.278C120.202 131.278 121.056 131.908 121.476 132.888L122.596 132.23C121.938 130.914 120.734 130.06 118.998 130.06C116.464 130.06 114.784 131.866 114.784 135.128C114.784 138.404 116.464 140.168 118.83 140.168C120.314 140.168 121.294 139.468 121.504 138.544H121.56V140ZM125.595 131.236C126.141 131.236 126.379 130.942 126.379 130.522V130.326C126.379 129.906 126.141 129.612 125.595 129.612C125.049 129.612 124.811 129.906 124.811 130.326V130.522C124.811 130.942 125.049 131.236 125.595 131.236ZM124.937 140H126.239V132.748H124.937V140ZM131.319 140.168C133.293 140.168 134.623 138.684 134.623 136.374C134.623 134.064 133.293 132.58 131.319 132.58C129.345 132.58 128.015 134.064 128.015 136.374C128.015 138.684 129.345 140.168 131.319 140.168ZM131.319 139.048C130.185 139.048 129.401 138.334 129.401 136.92V135.828C129.401 134.414 130.185 133.7 131.319 133.7C132.453 133.7 133.237 134.414 133.237 135.828V136.92C133.237 138.334 132.453 139.048 131.319 139.048ZM137.696 140V135.24C137.696 134.526 138.396 134.05 139.6 134.05H140.244V132.748H139.81C138.648 132.748 138.004 133.42 137.766 134.134H137.696V132.748H136.394V140H137.696ZM146.154 140H147.456V129.64H146.154V133.938H146.098C145.762 133.042 145.006 132.58 144.012 132.58C142.192 132.58 141.1 134.022 141.1 136.374C141.1 138.726 142.192 140.168 144.012 140.168C145.006 140.168 145.762 139.706 146.098 138.81H146.154V140ZM144.39 139.034C143.228 139.034 142.486 138.208 142.486 136.99V135.758C142.486 134.54 143.228 133.714 144.39 133.714C145.37 133.714 146.154 134.274 146.154 135.044V137.704C146.154 138.474 145.37 139.034 144.39 139.034ZM155.772 140V138.894H154.96V135.072C154.96 133.504 153.924 132.58 152.118 132.58C150.774 132.58 149.92 133.21 149.486 133.994L150.27 134.708C150.648 134.092 151.194 133.672 152.048 133.672C153.14 133.672 153.658 134.218 153.658 135.184V135.842H152.286C150.214 135.842 149.192 136.598 149.192 137.998C149.192 139.328 150.074 140.168 151.586 140.168C152.622 140.168 153.392 139.692 153.686 138.796H153.756C153.854 139.496 154.232 140 155.03 140H155.772ZM151.88 139.118C151.068 139.118 150.55 138.74 150.55 138.068V137.788C150.55 137.116 151.082 136.752 152.272 136.752H153.658V137.872C153.658 138.6 152.902 139.118 151.88 139.118ZM158.628 140V135.03C158.628 134.148 159.454 133.714 160.308 133.714C161.33 133.714 161.834 134.344 161.834 135.562V140H163.136V135.366C163.136 133.602 162.226 132.58 160.742 132.58C159.65 132.58 159.034 133.14 158.698 133.938H158.628V132.748H157.326V140H158.628ZM168.137 140.168C170.111 140.168 171.441 138.684 171.441 136.374C171.441 134.064 170.111 132.58 168.137 132.58C166.163 132.58 164.833 134.064 164.833 136.374C164.833 138.684 166.163 140.168 168.137 140.168ZM168.137 139.048C167.003 139.048 166.219 138.334 166.219 136.92V135.828C166.219 134.414 167.003 133.7 168.137 133.7C169.271 133.7 170.055 134.414 170.055 135.828V136.92C170.055 138.334 169.271 139.048 168.137 139.048ZM180.049 136.416V135.058H176.297V136.416H180.049ZM188.361 140.168C190.531 140.168 191.805 138.992 191.805 137.186C191.805 135.688 190.951 134.834 189.033 134.414L188.207 134.246C187.045 133.994 186.499 133.602 186.499 132.734C186.499 131.768 187.213 131.25 188.403 131.25C189.509 131.25 190.223 131.698 190.741 132.412L191.735 131.614C190.993 130.606 189.943 130.06 188.473 130.06C186.471 130.06 185.155 131.054 185.155 132.79C185.155 134.316 186.121 135.142 187.955 135.52L188.781 135.688C189.999 135.954 190.461 136.402 190.461 137.256C190.461 138.292 189.747 138.978 188.417 138.978C187.325 138.978 186.513 138.502 185.827 137.62L184.861 138.488C185.645 139.524 186.765 140.168 188.361 140.168ZM197.404 140V138.852H196.046V131.376H197.404V130.228H193.33V131.376H194.688V138.852H193.33V140H197.404ZM199.479 140H202.825C205.303 140 206.899 138.376 206.899 135.114C206.899 131.852 205.303 130.228 202.825 130.228H199.479V140ZM200.837 138.796V131.432H202.825C204.379 131.432 205.443 132.468 205.443 134.33V135.898C205.443 137.76 204.379 138.796 202.825 138.796H200.837ZM216.225 140L212.851 130.228H211.143L207.755 140H209.127L210.065 137.242H213.873L214.797 140H216.225ZM213.537 136.038H210.387L211.927 131.474H211.997L213.537 136.038ZM219.157 135.94H221.299L223.329 140H224.855L222.685 135.8C223.945 135.478 224.603 134.512 224.603 133.098C224.603 131.306 223.553 130.228 221.831 130.228H217.799V140H219.157V135.94ZM219.157 134.764V131.432H221.775C222.643 131.432 223.161 131.908 223.161 132.748V133.448C223.161 134.288 222.643 134.764 221.775 134.764H219.157ZM228.608 140H229.966V131.432H232.99V130.228H225.584V131.432H228.608V140ZM240.636 140H241.994V130.228H240.636V134.456H235.932V130.228H234.574V140H235.932V135.66H240.636V140ZM250.604 140V138.796H245.872V135.66H250.254V134.456H245.872V131.432H250.604V130.228H244.514V140H250.604Z" fill="black"/>
<g clip-path="url(#clip0_15_1525)">
<path d="M291 133C292.103 133 293 132.103 293 131C293 129.897 292.103 129 291 129C289.897 129 289 129.897 289 131C289 132.103 289.897 133 291 133ZM275 134.5C273.897 134.5 273 135.397 273 136.5C273 137.603 273.897 138.5 275 138.5C276.103 138.5 277 137.603 277 136.5C277 135.397 276.103 134.5 275 134.5ZM289.05 133.338L288.45 132.537L286.95 133.662L287.55 134.463L289.05 133.338ZM291 139C290.55 139 290.138 139.156 289.803 139.406L286.803 137.606C286.922 137.256 287 136.887 287 136.497C287 134.562 285.434 132.997 283.5 132.997C283.238 132.997 282.981 133.031 282.738 133.088L281.462 130.356C281.794 130 282 129.525 282 129C282 127.897 281.103 127 280 127C278.897 127 278 127.897 278 129C278 130.103 278.897 131 280 131C280.034 131 280.066 130.991 280.1 130.991L281.381 133.734C280.547 134.372 280 135.369 280 136.5C280 138.434 281.566 140 283.5 140C284.503 140 285.4 139.572 286.038 138.897L289.031 140.694C289.016 140.794 289 140.897 289 141C289 142.103 289.897 143 291 143C292.103 143 293 142.103 293 141C293 139.897 292.103 139 291 139ZM283.5 138C282.672 138 282 137.328 282 136.5C282 135.672 282.672 135 283.5 135C284.328 135 285 135.672 285 136.5C285 137.328 284.328 138 283.5 138ZM277.75 137H279.25V136H277.75V137Z" fill="#747576"/>
</g>
</g>
<path d="M308 135C353.5 135 353 135 353 135" stroke="#747576" stroke-width="3"/>
<rect x="346" y="129" width="12" height="12" rx="6" fill="#E4FAE4"/>
<rect x="346" y="129" width="12" height="12" rx="6" stroke="#39B539" stroke-width="2"/>
<rect x="302" y="129" width="12" height="12" rx="6" fill="#39B539"/>
<rect x="302" y="129" width="12" height="12" rx="6" stroke="#39B539" stroke-width="2"/>
<g clip-path="url(#clip1_15_1525)">
<rect x="353" y="120" width="117" height="28" rx="3" fill="white"/>
</g>
<rect x="353" y="120" width="117" height="28" rx="3" stroke="#39B539" stroke-width="2"/>
<g filter="url(#filter1_d_15_1525)">
<rect width="196" height="65" transform="translate(352 151)" fill="white"/>
<rect width="196" height="31" transform="translate(352 151)" fill="#E4FAE4"/>
<rect x="352" y="151" width="4" height="31" fill="#39B539"/>
<path d="M364.618 170.5V166.468H367.292C369.056 166.468 370.064 165.334 370.064 163.598C370.064 161.862 369.056 160.728 367.292 160.728H363.26V170.5H364.618ZM364.618 161.932H367.236C368.104 161.932 368.622 162.408 368.622 163.248V163.948C368.622 164.788 368.104 165.264 367.236 165.264H364.618V161.932ZM377.805 170.5V169.394H376.993V165.572C376.993 164.004 375.957 163.08 374.151 163.08C372.807 163.08 371.953 163.71 371.519 164.494L372.303 165.208C372.681 164.592 373.227 164.172 374.081 164.172C375.173 164.172 375.691 164.718 375.691 165.684V166.342H374.319C372.247 166.342 371.225 167.098 371.225 168.498C371.225 169.828 372.107 170.668 373.619 170.668C374.655 170.668 375.425 170.192 375.719 169.296H375.789C375.887 169.996 376.265 170.5 377.063 170.5H377.805ZM373.913 169.618C373.101 169.618 372.583 169.24 372.583 168.568V168.288C372.583 167.616 373.115 167.252 374.305 167.252H375.691V168.372C375.691 169.1 374.935 169.618 373.913 169.618ZM380.821 170.5V165.74C380.821 165.026 381.521 164.55 382.725 164.55H383.369V163.248H382.935C381.773 163.248 381.129 163.92 380.891 164.634H380.821V163.248H379.519V170.5H380.821ZM390.867 170.5V169.394H390.055V165.572C390.055 164.004 389.019 163.08 387.213 163.08C385.869 163.08 385.015 163.71 384.581 164.494L385.365 165.208C385.743 164.592 386.289 164.172 387.143 164.172C388.235 164.172 388.753 164.718 388.753 165.684V166.342H387.381C385.309 166.342 384.287 167.098 384.287 168.498C384.287 169.828 385.169 170.668 386.681 170.668C387.717 170.668 388.487 170.192 388.781 169.296H388.851C388.949 169.996 389.327 170.5 390.125 170.5H390.867ZM386.975 169.618C386.163 169.618 385.645 169.24 385.645 168.568V168.288C385.645 167.616 386.177 167.252 387.367 167.252H388.753V168.372C388.753 169.1 387.997 169.618 386.975 169.618ZM393.883 170.5V165.53C393.883 164.648 394.681 164.214 395.507 164.214C396.501 164.214 396.963 164.844 396.963 166.062V170.5H398.265V165.53C398.265 164.648 399.035 164.214 399.875 164.214C400.883 164.214 401.345 164.844 401.345 166.062V170.5H402.647V165.866C402.647 164.102 401.779 163.08 400.323 163.08C399.105 163.08 398.377 163.766 398.111 164.55H398.083C397.705 163.528 396.851 163.08 395.885 163.08C394.919 163.08 394.261 163.696 393.953 164.438H393.883V163.248H392.581V170.5H393.883ZM407.79 170.668C409.148 170.668 410.198 170.038 410.702 169.1L409.862 168.386C409.47 169.128 408.812 169.562 407.902 169.562C406.6 169.562 405.858 168.694 405.858 167.49V167.196H410.968V166.65C410.968 164.62 409.82 163.08 407.79 163.08C405.774 163.08 404.5 164.578 404.5 166.874C404.5 169.17 405.774 170.668 407.79 170.668ZM407.79 164.13C408.882 164.13 409.582 164.942 409.582 166.146V166.286H405.858V166.188C405.858 164.998 406.656 164.13 407.79 164.13ZM416.053 170.5V169.394H414.611V164.354H416.165V163.248H414.611V161.246H413.435V162.576C413.435 163.066 413.281 163.248 412.791 163.248H412.147V164.354H413.309V169.128C413.309 169.968 413.785 170.5 414.681 170.5H416.053ZM419.369 170.5V165.74C419.369 165.026 420.069 164.55 421.273 164.55H421.917V163.248H421.483C420.321 163.248 419.677 163.92 419.439 164.634H419.369V163.248H418.067V170.5H419.369ZM424.135 161.736C424.681 161.736 424.919 161.442 424.919 161.022V160.826C424.919 160.406 424.681 160.112 424.135 160.112C423.589 160.112 423.351 160.406 423.351 160.826V161.022C423.351 161.442 423.589 161.736 424.135 161.736ZM423.477 170.5H424.779V163.248H423.477V170.5ZM432.245 170.5V169.394H428.045L432.133 164.242V163.248H426.687V164.354H430.579L426.561 169.422V170.5H432.245ZM436.659 170.668C438.017 170.668 439.067 170.038 439.571 169.1L438.731 168.386C438.339 169.128 437.681 169.562 436.771 169.562C435.469 169.562 434.727 168.694 434.727 167.49V167.196H439.837V166.65C439.837 164.62 438.689 163.08 436.659 163.08C434.643 163.08 433.369 164.578 433.369 166.874C433.369 169.17 434.643 170.668 436.659 170.668ZM436.659 164.13C437.751 164.13 438.451 164.942 438.451 166.146V166.286H434.727V166.188C434.727 164.998 435.525 164.13 436.659 164.13Z" fill="#020203"/>
<path d="M366.802 205.168C368.454 205.168 369.644 204.314 370.274 202.914L369.182 202.256C368.818 203.264 368.006 203.95 366.802 203.95C365.206 203.95 364.24 202.76 364.24 200.856V199.372C364.24 197.468 365.206 196.278 366.802 196.278C367.978 196.278 368.734 196.908 369.098 197.874L370.218 197.23C369.588 195.83 368.454 195.06 366.802 195.06C364.31 195.06 362.784 196.852 362.784 200.114C362.784 203.376 364.31 205.168 366.802 205.168ZM374.871 205.168C376.845 205.168 378.175 203.684 378.175 201.374C378.175 199.064 376.845 197.58 374.871 197.58C372.897 197.58 371.567 199.064 371.567 201.374C371.567 203.684 372.897 205.168 374.871 205.168ZM374.871 204.048C373.737 204.048 372.953 203.334 372.953 201.92V200.828C372.953 199.414 373.737 198.7 374.871 198.7C376.005 198.7 376.789 199.414 376.789 200.828V201.92C376.789 203.334 376.005 204.048 374.871 204.048ZM381.409 205V200.03C381.409 199.148 382.207 198.714 383.033 198.714C384.027 198.714 384.489 199.344 384.489 200.562V205H385.791V200.03C385.791 199.148 386.561 198.714 387.401 198.714C388.409 198.714 388.871 199.344 388.871 200.562V205H390.173V200.366C390.173 198.602 389.305 197.58 387.849 197.58C386.631 197.58 385.903 198.266 385.637 199.05H385.609C385.231 198.028 384.377 197.58 383.411 197.58C382.445 197.58 381.787 198.196 381.479 198.938H381.409V197.748H380.107V205H381.409ZM392.544 207.8H393.846V203.81H393.902C394.238 204.706 394.994 205.168 395.988 205.168C397.808 205.168 398.9 203.726 398.9 201.374C398.9 199.022 397.808 197.58 395.988 197.58C394.994 197.58 394.238 198.042 393.902 198.938H393.846V197.748H392.544V207.8ZM395.61 204.034C394.63 204.034 393.846 203.474 393.846 202.704V200.044C393.846 199.274 394.63 198.714 395.61 198.714C396.772 198.714 397.514 199.54 397.514 200.758V201.99C397.514 203.208 396.772 204.034 395.61 204.034ZM406.913 205V203.894H406.101V200.072C406.101 198.504 405.065 197.58 403.259 197.58C401.915 197.58 401.061 198.21 400.627 198.994L401.411 199.708C401.789 199.092 402.335 198.672 403.189 198.672C404.281 198.672 404.799 199.218 404.799 200.184V200.842H403.427C401.355 200.842 400.333 201.598 400.333 202.998C400.333 204.328 401.215 205.168 402.727 205.168C403.763 205.168 404.533 204.692 404.827 203.796H404.897C404.995 204.496 405.373 205 406.171 205H406.913ZM403.021 204.118C402.209 204.118 401.691 203.74 401.691 203.068V202.788C401.691 202.116 402.223 201.752 403.413 201.752H404.799V202.872C404.799 203.6 404.043 204.118 403.021 204.118ZM409.93 205V200.24C409.93 199.526 410.63 199.05 411.834 199.05H412.478V197.748H412.044C410.882 197.748 410.238 198.42 410 199.134H409.93V197.748H408.628V205H409.93ZM416.741 205.168C418.099 205.168 419.149 204.538 419.653 203.6L418.813 202.886C418.421 203.628 417.763 204.062 416.853 204.062C415.551 204.062 414.809 203.194 414.809 201.99V201.696H419.919V201.15C419.919 199.12 418.771 197.58 416.741 197.58C414.725 197.58 413.451 199.078 413.451 201.374C413.451 203.67 414.725 205.168 416.741 205.168ZM416.741 198.63C417.833 198.63 418.533 199.442 418.533 200.646V200.786H414.809V200.688C414.809 199.498 415.607 198.63 416.741 198.63Z" fill="#020203"/>
</g>
<defs>
<filter id="filter0_d_15_1525" x="60" y="113" width="252" height="48" filterUnits="userSpaceOnUse" color-interpolation-filters="sRGB">
<feFlood flood-opacity="0" result="BackgroundImageFix"/>
<feColorMatrix in="SourceAlpha" type="matrix" values="0 0 0 0 0 0 0 0 0 0 0 0 0 0 0 0 0 0 127 0" result="hardAlpha"/>
<feOffset dy="2"/>
<feGaussianBlur stdDeviation="2"/>
<feColorMatrix type="matrix" values="0 0 0 0 0 0 0 0 0 0 0 0 0 0 0 0 0 0 0.2 0"/>
<feBlend mode="normal" in2="BackgroundImageFix" result="effect1_dropShadow_15_1525"/>
<feBlend mode="normal" in="SourceGraphic" in2="effect1_dropShadow_15_1525" result="shape"/>
</filter>
<filter id="filter1_d_15_1525" x="348" y="149" width="204" height="73" filterUnits="userSpaceOnUse" color-interpolation-filters="sRGB">
<feFlood flood-opacity="0" result="BackgroundImageFix"/>
<feColorMatrix in="SourceAlpha" type="matrix" values="0 0 0 0 0 0 0 0 0 0 0 0 0 0 0 0 0 0 127 0" result="hardAlpha"/>
<feOffset dy="2"/>
<feGaussianBlur stdDeviation="2"/>
<feColorMatrix type="matrix" values="0 0 0 0 0 0 0 0 0 0 0 0 0 0 0 0 0 0 0.2 0"/>
<feBlend mode="normal" in2="BackgroundImageFix" result="effect1_dropShadow_15_1525"/>
<feBlend mode="normal" in="SourceGraphic" in2="effect1_dropShadow_15_1525" result="shape"/>
</filter>
<clipPath id="clip0_15_1525">
<rect width="20" height="16" fill="white" transform="translate(273 127)"/>
</clipPath>
<clipPath id="clip1_15_1525">
<rect x="353" y="120" width="117" height="28" rx="3" fill="white"/>
</clipPath>
</defs>
</svg>
