<svg width="1287" height="503" viewBox="0 0 1287 503" fill="none" xmlns="http://www.w3.org/2000/svg">
<g filter="url(#filter0_d_25_915)">
<g clip-path="url(#clip0_25_915)">
<rect x="931" y="59" width="270" height="240" rx="3" fill="white"/>
<rect width="249" height="40" transform="translate(931 59)" fill="white"/>
<path d="M946.978 77H955.019C955.575 77 955.853 77.6719 955.459 78.0656L951.441 82.0875C951.197 82.3312 950.8 82.3312 950.556 82.0875L946.538 78.0656C946.144 77.6719 946.422 77 946.978 77Z" fill="#747576"/>
<path d="M985.802 84.168C987.454 84.168 988.644 83.314 989.274 81.914L988.182 81.256C987.818 82.264 987.006 82.95 985.802 82.95C984.206 82.95 983.24 81.76 983.24 79.856V78.372C983.24 76.468 984.206 75.278 985.802 75.278C986.978 75.278 987.734 75.908 988.098 76.874L989.218 76.23C988.588 74.83 987.454 74.06 985.802 74.06C983.31 74.06 981.784 75.852 981.784 79.114C981.784 82.376 983.31 84.168 985.802 84.168ZM993.711 84.168C995.685 84.168 997.015 82.684 997.015 80.374C997.015 78.064 995.685 76.58 993.711 76.58C991.737 76.58 990.407 78.064 990.407 80.374C990.407 82.684 991.737 84.168 993.711 84.168ZM993.711 83.048C992.577 83.048 991.793 82.334 991.793 80.92V79.828C991.793 78.414 992.577 77.7 993.711 77.7C994.845 77.7 995.629 78.414 995.629 79.828V80.92C995.629 82.334 994.845 83.048 993.711 83.048ZM1000.09 84V79.03C1000.09 78.148 1000.89 77.714 1001.71 77.714C1002.71 77.714 1003.17 78.344 1003.17 79.562V84H1004.47V79.03C1004.47 78.148 1005.24 77.714 1006.08 77.714C1007.09 77.714 1007.55 78.344 1007.55 79.562V84H1008.85V79.366C1008.85 77.602 1007.98 76.58 1006.53 76.58C1005.31 76.58 1004.58 77.266 1004.32 78.05H1004.29C1003.91 77.028 1003.06 76.58 1002.09 76.58C1001.12 76.58 1000.47 77.196 1000.16 77.938H1000.09V76.748H998.787V84H1000.09ZM1011.06 86.8H1012.37V82.81H1012.42C1012.76 83.706 1013.51 84.168 1014.51 84.168C1016.33 84.168 1017.42 82.726 1017.42 80.374C1017.42 78.022 1016.33 76.58 1014.51 76.58C1013.51 76.58 1012.76 77.042 1012.42 77.938H1012.37V76.748H1011.06V86.8ZM1014.13 83.034C1013.15 83.034 1012.37 82.474 1012.37 81.704V79.044C1012.37 78.274 1013.15 77.714 1014.13 77.714C1015.29 77.714 1016.03 78.54 1016.03 79.758V80.99C1016.03 82.208 1015.29 83.034 1014.13 83.034ZM1025.27 84V82.894H1024.46V79.072C1024.46 77.504 1023.43 76.58 1021.62 76.58C1020.28 76.58 1019.42 77.21 1018.99 77.994L1019.77 78.708C1020.15 78.092 1020.7 77.672 1021.55 77.672C1022.64 77.672 1023.16 78.218 1023.16 79.184V79.842H1021.79C1019.72 79.842 1018.69 80.598 1018.69 81.998C1018.69 83.328 1019.58 84.168 1021.09 84.168C1022.12 84.168 1022.89 83.692 1023.19 82.796H1023.26C1023.36 83.496 1023.73 84 1024.53 84H1025.27ZM1021.38 83.118C1020.57 83.118 1020.05 82.74 1020.05 82.068V81.788C1020.05 81.116 1020.58 80.752 1021.77 80.752H1023.16V81.872C1023.16 82.6 1022.4 83.118 1021.38 83.118ZM1028.13 84V79.24C1028.13 78.526 1028.83 78.05 1030.03 78.05H1030.68V76.748H1030.24C1029.08 76.748 1028.44 77.42 1028.2 78.134H1028.13V76.748H1026.83V84H1028.13ZM1034.78 84.168C1036.14 84.168 1037.19 83.538 1037.69 82.6L1036.85 81.886C1036.46 82.628 1035.8 83.062 1034.89 83.062C1033.59 83.062 1032.85 82.194 1032.85 80.99V80.696H1037.96V80.15C1037.96 78.12 1036.81 76.58 1034.78 76.58C1032.77 76.58 1031.49 78.078 1031.49 80.374C1031.49 82.67 1032.77 84.168 1034.78 84.168ZM1034.78 77.63C1035.87 77.63 1036.57 78.442 1036.57 79.646V79.786H1032.85V79.688C1032.85 78.498 1033.65 77.63 1034.78 77.63Z" fill="black"/>
<g clip-path="url(#clip1_25_915)">
<path d="M1156 72H1144C1143.73 72 1143.48 72.1054 1143.29 72.2929C1143.11 72.4804 1143 72.7348 1143 73V85C1143 85.2652 1143.11 85.5196 1143.29 85.7071C1143.48 85.8946 1143.73 86 1144 86H1156C1156.27 86 1156.52 85.8946 1156.71 85.7071C1156.89 85.5196 1157 85.2652 1157 85V73C1157 72.7348 1156.89 72.4804 1156.71 72.2929C1156.52 72.1054 1156.27 72 1156 72ZM1155 74V78H1151V74H1155ZM1149 74V78H1145V74H1149ZM1145 84V80H1149V84H1145ZM1151 84V80H1155V84H1151Z" fill="#747576"/>
</g>
<rect width="270" height="2" transform="translate(931 99)" fill="#F0F1F2"/>
<path d="M952.312 139H953.8V137.64H953.864C954.248 138.664 955.112 139.192 956.248 139.192C958.328 139.192 959.576 137.544 959.576 134.856C959.576 132.168 958.328 130.52 956.248 130.52C955.112 130.52 954.248 131.048 953.864 132.072H953.8V127.16H952.312V139ZM955.816 137.896C954.696 137.896 953.8 137.256 953.8 136.376V133.336C953.8 132.456 954.696 131.816 955.816 131.816C957.144 131.816 957.992 132.76 957.992 134.152V135.56C957.992 136.952 957.144 137.896 955.816 137.896ZM968.551 139V137.736H967.623V133.368C967.623 131.576 966.439 130.52 964.375 130.52C962.839 130.52 961.863 131.24 961.367 132.136L962.263 132.952C962.695 132.248 963.319 131.768 964.295 131.768C965.543 131.768 966.135 132.392 966.135 133.496V134.248H964.567C962.199 134.248 961.031 135.112 961.031 136.712C961.031 138.232 962.039 139.192 963.767 139.192C964.951 139.192 965.831 138.648 966.167 137.624H966.247C966.359 138.424 966.791 139 967.703 139H968.551ZM964.103 137.992C963.175 137.992 962.583 137.56 962.583 136.792V136.472C962.583 135.704 963.191 135.288 964.551 135.288H966.135V136.568C966.135 137.4 965.271 137.992 964.103 137.992ZM972.872 139.192C974.824 139.192 976.04 138.184 976.04 136.568C976.04 135.288 975.288 134.488 973.464 134.216L972.76 134.104C971.8 133.96 971.32 133.656 971.32 132.92C971.32 132.216 971.832 131.752 972.84 131.752C973.832 131.752 974.536 132.216 974.936 132.744L975.88 131.848C975.176 131.016 974.296 130.52 972.888 130.52C971.144 130.52 969.88 131.384 969.88 133.016C969.88 134.552 970.984 135.208 972.568 135.432L973.272 135.544C974.28 135.688 974.6 136.12 974.6 136.728C974.6 137.496 974.024 137.96 972.968 137.96C971.96 137.96 971.192 137.512 970.568 136.728L969.56 137.592C970.328 138.568 971.336 139.192 972.872 139.192ZM981.339 139.192C982.891 139.192 984.091 138.472 984.667 137.4L983.707 136.584C983.259 137.432 982.507 137.928 981.467 137.928C979.979 137.928 979.131 136.936 979.131 135.56V135.224H984.971V134.6C984.971 132.28 983.659 130.52 981.339 130.52C979.035 130.52 977.579 132.232 977.579 134.856C977.579 137.48 979.035 139.192 981.339 139.192ZM981.339 131.72C982.587 131.72 983.387 132.648 983.387 134.024V134.184H979.131V134.072C979.131 132.712 980.043 131.72 981.339 131.72ZM989.672 139V137.736H988.488V127.16H987V137.48C987 138.392 987.528 139 988.552 139H989.672ZM992.205 128.984C992.829 128.984 993.101 128.648 993.101 128.168V127.944C993.101 127.464 992.829 127.128 992.205 127.128C991.581 127.128 991.309 127.464 991.309 127.944V128.168C991.309 128.648 991.581 128.984 992.205 128.984ZM991.453 139H992.941V130.712H991.453V139ZM997.05 139V133.32C997.05 132.312 997.994 131.816 998.97 131.816C1000.14 131.816 1000.71 132.536 1000.71 133.928V139H1002.2V133.704C1002.2 131.688 1001.16 130.52 999.466 130.52C998.218 130.52 997.514 131.16 997.13 132.072H997.05V130.712H995.562V139H997.05ZM1007.9 139.192C1009.45 139.192 1010.65 138.472 1011.23 137.4L1010.27 136.584C1009.82 137.432 1009.07 137.928 1008.03 137.928C1006.54 137.928 1005.69 136.936 1005.69 135.56V135.224H1011.53V134.6C1011.53 132.28 1010.22 130.52 1007.9 130.52C1005.6 130.52 1004.14 132.232 1004.14 134.856C1004.14 137.48 1005.6 139.192 1007.9 139.192ZM1007.9 131.72C1009.15 131.72 1009.95 132.648 1009.95 134.024V134.184H1005.69V134.072C1005.69 132.712 1006.61 131.72 1007.9 131.72Z" fill="black"/>
<path d="M955.912 183V181.736H954.264V175.976H956.04V174.712H954.264V172.424H952.92V173.944C952.92 174.504 952.744 174.712 952.184 174.712H951.448V175.976H952.776V181.432C952.776 182.392 953.32 183 954.344 183H955.912ZM959.519 183V177.56C959.519 176.744 960.319 176.2 961.695 176.2H962.431V174.712H961.935C960.607 174.712 959.871 175.48 959.599 176.296H959.519V174.712H958.031V183H959.519ZM967.121 183.192C968.673 183.192 969.873 182.472 970.449 181.4L969.489 180.584C969.041 181.432 968.289 181.928 967.249 181.928C965.761 181.928 964.913 180.936 964.913 179.56V179.224H970.753V178.6C970.753 176.28 969.441 174.52 967.121 174.52C964.817 174.52 963.361 176.232 963.361 178.856C963.361 181.48 964.817 183.192 967.121 183.192ZM967.121 175.72C968.369 175.72 969.169 176.648 969.169 178.024V178.184H964.913V178.072C964.913 176.712 965.825 175.72 967.121 175.72ZM979.661 183V181.736H978.733V177.368C978.733 175.576 977.549 174.52 975.485 174.52C973.949 174.52 972.973 175.24 972.477 176.136L973.373 176.952C973.805 176.248 974.429 175.768 975.405 175.768C976.653 175.768 977.245 176.392 977.245 177.496V178.248H975.677C973.309 178.248 972.141 179.112 972.141 180.712C972.141 182.232 973.149 183.192 974.877 183.192C976.061 183.192 976.941 182.648 977.277 181.624H977.357C977.469 182.424 977.901 183 978.813 183H979.661ZM975.213 181.992C974.285 181.992 973.693 181.56 973.693 180.792V180.472C973.693 179.704 974.301 179.288 975.661 179.288H977.245V180.568C977.245 181.4 976.381 181.992 975.213 181.992ZM985.021 183V181.736H983.373V175.976H985.149V174.712H983.373V172.424H982.029V173.944C982.029 174.504 981.853 174.712 981.293 174.712H980.557V175.976H981.885V181.432C981.885 182.392 982.429 183 983.453 183H985.021ZM988.628 183V177.32C988.628 176.312 989.54 175.816 990.484 175.816C991.62 175.816 992.148 176.536 992.148 177.928V183H993.636V177.32C993.636 176.312 994.516 175.816 995.476 175.816C996.628 175.816 997.156 176.536 997.156 177.928V183H998.644V177.704C998.644 175.688 997.652 174.52 995.988 174.52C994.596 174.52 993.764 175.304 993.46 176.2H993.428C992.996 175.032 992.02 174.52 990.916 174.52C989.812 174.52 989.06 175.224 988.708 176.072H988.628V174.712H987.14V183H988.628ZM1004.34 183.192C1005.89 183.192 1007.09 182.472 1007.67 181.4L1006.71 180.584C1006.26 181.432 1005.51 181.928 1004.47 181.928C1002.98 181.928 1002.13 180.936 1002.13 179.56V179.224H1007.97V178.6C1007.97 176.28 1006.66 174.52 1004.34 174.52C1002.04 174.52 1000.58 176.232 1000.58 178.856C1000.58 181.48 1002.04 183.192 1004.34 183.192ZM1004.34 175.72C1005.59 175.72 1006.39 176.648 1006.39 178.024V178.184H1002.13V178.072C1002.13 176.712 1003.04 175.72 1004.34 175.72ZM1011.49 183V177.32C1011.49 176.312 1012.43 175.816 1013.41 175.816C1014.58 175.816 1015.15 176.536 1015.15 177.928V183H1016.64V177.704C1016.64 175.688 1015.6 174.52 1013.9 174.52C1012.66 174.52 1011.95 175.16 1011.57 176.072H1011.49V174.712H1010V183H1011.49ZM1022.77 183V181.736H1021.12V175.976H1022.9V174.712H1021.12V172.424H1019.78V173.944C1019.78 174.504 1019.6 174.712 1019.04 174.712H1018.31V175.976H1019.64V181.432C1019.64 182.392 1020.18 183 1021.2 183H1022.77ZM1036.14 183V181.624H1033.34V171.832H1030.94L1028.05 174.744L1028.98 175.656L1031.68 172.968H1031.79V181.624H1028.74V183H1036.14Z" fill="black"/>
<path d="M955.912 227V225.736H954.264V219.976H956.04V218.712H954.264V216.424H952.92V217.944C952.92 218.504 952.744 218.712 952.184 218.712H951.448V219.976H952.776V225.432C952.776 226.392 953.32 227 954.344 227H955.912ZM959.519 227V221.56C959.519 220.744 960.319 220.2 961.695 220.2H962.431V218.712H961.935C960.607 218.712 959.871 219.48 959.599 220.296H959.519V218.712H958.031V227H959.519ZM967.121 227.192C968.673 227.192 969.873 226.472 970.449 225.4L969.489 224.584C969.041 225.432 968.289 225.928 967.249 225.928C965.761 225.928 964.913 224.936 964.913 223.56V223.224H970.753V222.6C970.753 220.28 969.441 218.52 967.121 218.52C964.817 218.52 963.361 220.232 963.361 222.856C963.361 225.48 964.817 227.192 967.121 227.192ZM967.121 219.72C968.369 219.72 969.169 220.648 969.169 222.024V222.184H964.913V222.072C964.913 220.712 965.825 219.72 967.121 219.72ZM979.661 227V225.736H978.733V221.368C978.733 219.576 977.549 218.52 975.485 218.52C973.949 218.52 972.973 219.24 972.477 220.136L973.373 220.952C973.805 220.248 974.429 219.768 975.405 219.768C976.653 219.768 977.245 220.392 977.245 221.496V222.248H975.677C973.309 222.248 972.141 223.112 972.141 224.712C972.141 226.232 973.149 227.192 974.877 227.192C976.061 227.192 976.941 226.648 977.277 225.624H977.357C977.469 226.424 977.901 227 978.813 227H979.661ZM975.213 225.992C974.285 225.992 973.693 225.56 973.693 224.792V224.472C973.693 223.704 974.301 223.288 975.661 223.288H977.245V224.568C977.245 225.4 976.381 225.992 975.213 225.992ZM985.021 227V225.736H983.373V219.976H985.149V218.712H983.373V216.424H982.029V217.944C982.029 218.504 981.853 218.712 981.293 218.712H980.557V219.976H981.885V225.432C981.885 226.392 982.429 227 983.453 227H985.021ZM988.628 227V221.32C988.628 220.312 989.54 219.816 990.484 219.816C991.62 219.816 992.148 220.536 992.148 221.928V227H993.636V221.32C993.636 220.312 994.516 219.816 995.476 219.816C996.628 219.816 997.156 220.536 997.156 221.928V227H998.644V221.704C998.644 219.688 997.652 218.52 995.988 218.52C994.596 218.52 993.764 219.304 993.46 220.2H993.428C992.996 219.032 992.02 218.52 990.916 218.52C989.812 218.52 989.06 219.224 988.708 220.072H988.628V218.712H987.14V227H988.628ZM1004.34 227.192C1005.89 227.192 1007.09 226.472 1007.67 225.4L1006.71 224.584C1006.26 225.432 1005.51 225.928 1004.47 225.928C1002.98 225.928 1002.13 224.936 1002.13 223.56V223.224H1007.97V222.6C1007.97 220.28 1006.66 218.52 1004.34 218.52C1002.04 218.52 1000.58 220.232 1000.58 222.856C1000.58 225.48 1002.04 227.192 1004.34 227.192ZM1004.34 219.72C1005.59 219.72 1006.39 220.648 1006.39 222.024V222.184H1002.13V222.072C1002.13 220.712 1003.04 219.72 1004.34 219.72ZM1011.49 227V221.32C1011.49 220.312 1012.43 219.816 1013.41 219.816C1014.58 219.816 1015.15 220.536 1015.15 221.928V227H1016.64V221.704C1016.64 219.688 1015.6 218.52 1013.9 218.52C1012.66 218.52 1011.95 219.16 1011.57 220.072H1011.49V218.712H1010V227H1011.49ZM1022.77 227V225.736H1021.12V219.976H1022.9V218.712H1021.12V216.424H1019.78V217.944C1019.78 218.504 1019.6 218.712 1019.04 218.712H1018.31V219.976H1019.64V225.432C1019.64 226.392 1020.18 227 1021.2 227H1022.77ZM1035.94 225.624H1030.24L1033.01 223.16C1034.48 221.88 1035.58 220.68 1035.58 218.904C1035.58 217 1034.29 215.64 1032.06 215.64C1029.87 215.64 1028.83 216.952 1028.38 218.312L1029.76 218.84C1030.05 217.816 1030.66 217.032 1031.97 217.032C1033.22 217.032 1033.92 217.784 1033.92 218.936V219.128C1033.92 220.184 1033.2 221.208 1032.11 222.184L1028.51 225.464V227H1035.94V225.624Z" fill="black"/>
<rect width="270" height="2" transform="translate(931 253)" fill="#F0F1F2"/>
<path d="M959.192 283V281.736H958.264V277.368C958.264 275.576 957.08 274.52 955.016 274.52C953.48 274.52 952.504 275.24 952.008 276.136L952.904 276.952C953.336 276.248 953.96 275.768 954.936 275.768C956.184 275.768 956.776 276.392 956.776 277.496V278.248H955.208C952.84 278.248 951.672 279.112 951.672 280.712C951.672 282.232 952.68 283.192 954.408 283.192C955.592 283.192 956.472 282.648 956.808 281.624H956.888C957 282.424 957.432 283 958.344 283H959.192ZM954.744 281.992C953.816 281.992 953.224 281.56 953.224 280.792V280.472C953.224 279.704 953.832 279.288 955.192 279.288H956.776V280.568C956.776 281.4 955.912 281.992 954.744 281.992ZM964.395 283L967.275 274.712H965.851L964.475 278.68L963.595 281.544H963.499L962.635 278.68L961.275 274.712H959.787L962.651 283H964.395ZM971.886 283.192C973.438 283.192 974.638 282.472 975.214 281.4L974.254 280.584C973.806 281.432 973.054 281.928 972.014 281.928C970.526 281.928 969.678 280.936 969.678 279.56V279.224H975.518V278.6C975.518 276.28 974.206 274.52 971.886 274.52C969.582 274.52 968.126 276.232 968.126 278.856C968.126 281.48 969.582 283.192 971.886 283.192ZM971.886 275.72C973.134 275.72 973.934 276.648 973.934 278.024V278.184H969.678V278.072C969.678 276.712 970.59 275.72 971.886 275.72ZM979.034 283V277.56C979.034 276.744 979.834 276.2 981.21 276.2H981.946V274.712H981.45C980.122 274.712 979.386 275.48 979.114 276.296H979.034V274.712H977.546V283H979.034ZM990.333 283V281.736H989.405V277.368C989.405 275.576 988.221 274.52 986.157 274.52C984.621 274.52 983.645 275.24 983.149 276.136L984.045 276.952C984.477 276.248 985.101 275.768 986.077 275.768C987.325 275.768 987.917 276.392 987.917 277.496V278.248H986.349C983.981 278.248 982.813 279.112 982.813 280.712C982.813 282.232 983.821 283.192 985.549 283.192C986.733 283.192 987.613 282.648 987.949 281.624H988.029C988.141 282.424 988.573 283 989.485 283H990.333ZM985.885 281.992C984.957 281.992 984.365 281.56 984.365 280.792V280.472C984.365 279.704 984.973 279.288 986.333 279.288H987.917V280.568C987.917 281.4 987.053 281.992 985.885 281.992ZM999.229 283.848C999.229 282.456 998.349 281.608 996.301 281.608H994.413C993.661 281.608 993.197 281.464 993.197 280.984C993.197 280.52 993.661 280.248 994.141 280.104C994.413 280.168 994.749 280.2 995.069 280.2C997.069 280.2 998.285 279.048 998.285 277.368C998.285 276.456 997.917 275.688 997.245 275.192V274.744H998.877V273.496H997.613C996.909 273.496 996.605 273.944 996.605 274.632V274.808C996.157 274.632 995.645 274.52 995.069 274.52C993.085 274.52 991.869 275.688 991.869 277.368C991.869 278.504 992.429 279.416 993.405 279.88V279.944C992.589 280.136 991.965 280.552 991.965 281.384C991.965 281.976 992.253 282.392 992.781 282.6V282.776C991.933 282.984 991.421 283.48 991.421 284.376C991.421 285.656 992.477 286.392 995.117 286.392C997.917 286.392 999.229 285.56 999.229 283.848ZM997.837 283.992C997.837 284.84 997.069 285.256 995.661 285.256H994.541C993.245 285.256 992.749 284.712 992.749 284.024C992.749 283.56 992.957 283.208 993.421 282.968H996.205C997.421 282.968 997.837 283.368 997.837 283.992ZM995.085 279.08C994.029 279.08 993.373 278.584 993.373 277.576V277.16C993.373 276.152 994.029 275.656 995.085 275.656C996.141 275.656 996.797 276.152 996.797 277.16V277.576C996.797 278.584 996.141 279.08 995.085 279.08ZM1003.71 283.192C1005.27 283.192 1006.47 282.472 1007.04 281.4L1006.08 280.584C1005.63 281.432 1004.88 281.928 1003.84 281.928C1002.35 281.928 1001.51 280.936 1001.51 279.56V279.224H1007.35V278.6C1007.35 276.28 1006.03 274.52 1003.71 274.52C1001.41 274.52 999.954 276.232 999.954 278.856C999.954 281.48 1001.41 283.192 1003.71 283.192ZM1003.71 275.72C1004.96 275.72 1005.76 276.648 1005.76 278.024V278.184H1001.51V278.072C1001.51 276.712 1002.42 275.72 1003.71 275.72ZM1016.76 283V281.736H1015.11V275.976H1016.88V274.712H1015.11V272.424H1013.76V273.944C1013.76 274.504 1013.59 274.712 1013.03 274.712H1012.29V275.976H1013.62V281.432C1013.62 282.392 1014.16 283 1015.19 283H1016.76ZM1020.36 283V277.56C1020.36 276.744 1021.16 276.2 1022.54 276.2H1023.27V274.712H1022.78C1021.45 274.712 1020.71 275.48 1020.44 276.296H1020.36V274.712H1018.87V283H1020.36ZM1027.96 283.192C1029.52 283.192 1030.72 282.472 1031.29 281.4L1030.33 280.584C1029.88 281.432 1029.13 281.928 1028.09 281.928C1026.6 281.928 1025.76 280.936 1025.76 279.56V279.224H1031.6V278.6C1031.6 276.28 1030.28 274.52 1027.96 274.52C1025.66 274.52 1024.2 276.232 1024.2 278.856C1024.2 281.48 1025.66 283.192 1027.96 283.192ZM1027.96 275.72C1029.21 275.72 1030.01 276.648 1030.01 278.024V278.184H1025.76V278.072C1025.76 276.712 1026.67 275.72 1027.96 275.72ZM1040.5 283V281.736H1039.58V277.368C1039.58 275.576 1038.39 274.52 1036.33 274.52C1034.79 274.52 1033.82 275.24 1033.32 276.136L1034.22 276.952C1034.65 276.248 1035.27 275.768 1036.25 275.768C1037.5 275.768 1038.09 276.392 1038.09 277.496V278.248H1036.52C1034.15 278.248 1032.98 279.112 1032.98 280.712C1032.98 282.232 1033.99 283.192 1035.72 283.192C1036.9 283.192 1037.78 282.648 1038.12 281.624H1038.2C1038.31 282.424 1038.74 283 1039.66 283H1040.5ZM1036.06 281.992C1035.13 281.992 1034.54 281.56 1034.54 280.792V280.472C1034.54 279.704 1035.14 279.288 1036.5 279.288H1038.09V280.568C1038.09 281.4 1037.22 281.992 1036.06 281.992ZM1045.87 283V281.736H1044.22V275.976H1045.99V274.712H1044.22V272.424H1042.87V273.944C1042.87 274.504 1042.7 274.712 1042.14 274.712H1041.4V275.976H1042.73V281.432C1042.73 282.392 1043.27 283 1044.3 283H1045.87ZM1049.47 283V277.32C1049.47 276.312 1050.38 275.816 1051.33 275.816C1052.46 275.816 1052.99 276.536 1052.99 277.928V283H1054.48V277.32C1054.48 276.312 1055.36 275.816 1056.32 275.816C1057.47 275.816 1058 276.536 1058 277.928V283H1059.49V277.704C1059.49 275.688 1058.5 274.52 1056.83 274.52C1055.44 274.52 1054.61 275.304 1054.3 276.2H1054.27C1053.84 275.032 1052.86 274.52 1051.76 274.52C1050.66 274.52 1049.9 275.224 1049.55 276.072H1049.47V274.712H1047.98V283H1049.47ZM1065.18 283.192C1066.74 283.192 1067.94 282.472 1068.51 281.4L1067.55 280.584C1067.1 281.432 1066.35 281.928 1065.31 281.928C1063.82 281.928 1062.98 280.936 1062.98 279.56V279.224H1068.82V278.6C1068.82 276.28 1067.5 274.52 1065.18 274.52C1062.88 274.52 1061.42 276.232 1061.42 278.856C1061.42 281.48 1062.88 283.192 1065.18 283.192ZM1065.18 275.72C1066.43 275.72 1067.23 276.648 1067.23 278.024V278.184H1062.98V278.072C1062.98 276.712 1063.89 275.72 1065.18 275.72ZM1072.33 283V277.32C1072.33 276.312 1073.28 275.816 1074.25 275.816C1075.42 275.816 1076 276.536 1076 277.928V283H1077.48V277.704C1077.48 275.688 1076.44 274.52 1074.75 274.52C1073.5 274.52 1072.8 275.16 1072.41 276.072H1072.33V274.712H1070.84V283H1072.33ZM1083.62 283V281.736H1081.97V275.976H1083.74V274.712H1081.97V272.424H1080.62V273.944C1080.62 274.504 1080.45 274.712 1079.89 274.712H1079.15V275.976H1080.48V281.432C1080.48 282.392 1081.02 283 1082.05 283H1083.62ZM1092.68 283.192C1094.24 283.192 1095.44 282.472 1096.01 281.4L1095.05 280.584C1094.6 281.432 1093.85 281.928 1092.81 281.928C1091.32 281.928 1090.48 280.936 1090.48 279.56V279.224H1096.32V278.6C1096.32 276.28 1095 274.52 1092.68 274.52C1090.38 274.52 1088.92 276.232 1088.92 278.856C1088.92 281.48 1090.38 283.192 1092.68 283.192ZM1092.68 275.72C1093.93 275.72 1094.73 276.648 1094.73 278.024V278.184H1090.48V278.072C1090.48 276.712 1091.39 275.72 1092.68 275.72ZM1098.79 283H1100.28V275.976H1102.02V274.712H1100.28V272.424H1102.02V271.16H1100.73C1099.43 271.16 1098.79 271.96 1098.79 273.176V274.712H1097.46V275.976H1098.79V283ZM1104.1 283H1105.59V275.976H1107.34V274.712H1105.59V272.424H1107.34V271.16H1106.04C1104.74 271.16 1104.1 271.96 1104.1 273.176V274.712H1102.78V275.976H1104.1V283ZM1112.06 283.192C1113.61 283.192 1114.81 282.472 1115.39 281.4L1114.43 280.584C1113.98 281.432 1113.23 281.928 1112.19 281.928C1110.7 281.928 1109.85 280.936 1109.85 279.56V279.224H1115.69V278.6C1115.69 276.28 1114.38 274.52 1112.06 274.52C1109.75 274.52 1108.3 276.232 1108.3 278.856C1108.3 281.48 1109.75 283.192 1112.06 283.192ZM1112.06 275.72C1113.31 275.72 1114.11 276.648 1114.11 278.024V278.184H1109.85V278.072C1109.85 276.712 1110.76 275.72 1112.06 275.72ZM1120.85 283.192C1122.44 283.192 1123.53 282.424 1124.05 281.176L1122.97 280.504C1122.55 281.4 1121.86 281.912 1120.85 281.912C1119.43 281.912 1118.71 280.936 1118.71 279.576V278.136C1118.71 276.776 1119.43 275.8 1120.85 275.8C1121.81 275.8 1122.49 276.296 1122.76 277.112L1123.99 276.504C1123.51 275.32 1122.49 274.52 1120.85 274.52C1118.49 274.52 1117.13 276.2 1117.13 278.856C1117.13 281.512 1118.49 283.192 1120.85 283.192ZM1129.4 283V281.736H1127.75V275.976H1129.52V274.712H1127.75V272.424H1126.4V273.944C1126.4 274.504 1126.23 274.712 1125.67 274.712H1124.93V275.976H1126.26V281.432C1126.26 282.392 1126.8 283 1127.83 283H1129.4ZM1136.78 283V277.32C1136.78 276.312 1137.7 275.816 1138.64 275.816C1139.78 275.816 1140.3 276.536 1140.3 277.928V283H1141.79V277.32C1141.79 276.312 1142.67 275.816 1143.63 275.816C1144.78 275.816 1145.31 276.536 1145.31 277.928V283H1146.8V277.704C1146.8 275.688 1145.81 274.52 1144.14 274.52C1142.75 274.52 1141.92 275.304 1141.62 276.2H1141.58C1141.15 275.032 1140.18 274.52 1139.07 274.52C1137.97 274.52 1137.22 275.224 1136.86 276.072H1136.78V274.712H1135.3V283H1136.78ZM1156.21 283V281.736H1155.28V277.368C1155.28 275.576 1154.1 274.52 1152.03 274.52C1150.5 274.52 1149.52 275.24 1149.02 276.136L1149.92 276.952C1150.35 276.248 1150.98 275.768 1151.95 275.768C1153.2 275.768 1153.79 276.392 1153.79 277.496V278.248H1152.22C1149.86 278.248 1148.69 279.112 1148.69 280.712C1148.69 282.232 1149.7 283.192 1151.42 283.192C1152.61 283.192 1153.49 282.648 1153.82 281.624H1153.9C1154.02 282.424 1154.45 283 1155.36 283H1156.21ZM1151.76 281.992C1150.83 281.992 1150.24 281.56 1150.24 280.792V280.472C1150.24 279.704 1150.85 279.288 1152.21 279.288H1153.79V280.568C1153.79 281.4 1152.93 281.992 1151.76 281.992ZM1161.57 283V281.736H1159.92V275.976H1161.7V274.712H1159.92V272.424H1158.58V273.944C1158.58 274.504 1158.4 274.712 1157.84 274.712H1157.1V275.976H1158.43V281.432C1158.43 282.392 1158.98 283 1160 283H1161.57ZM1165.18 283V277.56C1165.18 276.744 1165.98 276.2 1167.35 276.2H1168.09V274.712H1167.59C1166.26 274.712 1165.53 275.48 1165.26 276.296H1165.18V274.712H1163.69V283H1165.18ZM1170.44 272.984C1171.06 272.984 1171.34 272.648 1171.34 272.168V271.944C1171.34 271.464 1171.06 271.128 1170.44 271.128C1169.82 271.128 1169.54 271.464 1169.54 271.944V272.168C1169.54 272.648 1169.82 272.984 1170.44 272.984ZM1169.69 283H1171.18V274.712H1169.69V283ZM1172.82 283H1174.45L1176.61 279.864H1176.66L1178.71 283H1180.44L1177.49 278.76L1180.39 274.712H1178.76L1176.71 277.704H1176.66L1174.66 274.712H1172.93L1175.83 278.824L1172.82 283Z" fill="black"/>
</g>
</g>
<g filter="url(#filter1_d_25_915)">
<rect x="64" y="115" width="244" height="40" rx="3" fill="white"/>
<path d="M81 139.021V130.98C81 130.423 81.6732 130.144 82.0669 130.538L86.0876 134.558C86.3317 134.802 86.3317 135.198 86.0876 135.442L82.0669 139.463C81.6732 139.857 81 139.578 81 139.021Z" fill="#747576"/>
<path d="M121.56 140H122.778V134.89H119.376V136.066H121.462V136.948C121.462 138.292 120.384 138.95 119.082 138.95C117.332 138.95 116.24 137.774 116.24 135.898V134.316C116.24 132.44 117.346 131.278 118.998 131.278C120.202 131.278 121.056 131.908 121.476 132.888L122.596 132.23C121.938 130.914 120.734 130.06 118.998 130.06C116.464 130.06 114.784 131.866 114.784 135.128C114.784 138.404 116.464 140.168 118.83 140.168C120.314 140.168 121.294 139.468 121.504 138.544H121.56V140ZM125.595 131.236C126.141 131.236 126.379 130.942 126.379 130.522V130.326C126.379 129.906 126.141 129.612 125.595 129.612C125.049 129.612 124.811 129.906 124.811 130.326V130.522C124.811 130.942 125.049 131.236 125.595 131.236ZM124.937 140H126.239V132.748H124.937V140ZM131.319 140.168C133.293 140.168 134.623 138.684 134.623 136.374C134.623 134.064 133.293 132.58 131.319 132.58C129.345 132.58 128.015 134.064 128.015 136.374C128.015 138.684 129.345 140.168 131.319 140.168ZM131.319 139.048C130.185 139.048 129.401 138.334 129.401 136.92V135.828C129.401 134.414 130.185 133.7 131.319 133.7C132.453 133.7 133.237 134.414 133.237 135.828V136.92C133.237 138.334 132.453 139.048 131.319 139.048ZM137.696 140V135.24C137.696 134.526 138.396 134.05 139.6 134.05H140.244V132.748H139.81C138.648 132.748 138.004 133.42 137.766 134.134H137.696V132.748H136.394V140H137.696ZM146.154 140H147.456V129.64H146.154V133.938H146.098C145.762 133.042 145.006 132.58 144.012 132.58C142.192 132.58 141.1 134.022 141.1 136.374C141.1 138.726 142.192 140.168 144.012 140.168C145.006 140.168 145.762 139.706 146.098 138.81H146.154V140ZM144.39 139.034C143.228 139.034 142.486 138.208 142.486 136.99V135.758C142.486 134.54 143.228 133.714 144.39 133.714C145.37 133.714 146.154 134.274 146.154 135.044V137.704C146.154 138.474 145.37 139.034 144.39 139.034ZM155.772 140V138.894H154.96V135.072C154.96 133.504 153.924 132.58 152.118 132.58C150.774 132.58 149.92 133.21 149.486 133.994L150.27 134.708C150.648 134.092 151.194 133.672 152.048 133.672C153.14 133.672 153.658 134.218 153.658 135.184V135.842H152.286C150.214 135.842 149.192 136.598 149.192 137.998C149.192 139.328 150.074 140.168 151.586 140.168C152.622 140.168 153.392 139.692 153.686 138.796H153.756C153.854 139.496 154.232 140 155.03 140H155.772ZM151.88 139.118C151.068 139.118 150.55 138.74 150.55 138.068V137.788C150.55 137.116 151.082 136.752 152.272 136.752H153.658V137.872C153.658 138.6 152.902 139.118 151.88 139.118ZM158.628 140V135.03C158.628 134.148 159.454 133.714 160.308 133.714C161.33 133.714 161.834 134.344 161.834 135.562V140H163.136V135.366C163.136 133.602 162.226 132.58 160.742 132.58C159.65 132.58 159.034 133.14 158.698 133.938H158.628V132.748H157.326V140H158.628ZM168.137 140.168C170.111 140.168 171.441 138.684 171.441 136.374C171.441 134.064 170.111 132.58 168.137 132.58C166.163 132.58 164.833 134.064 164.833 136.374C164.833 138.684 166.163 140.168 168.137 140.168ZM168.137 139.048C167.003 139.048 166.219 138.334 166.219 136.92V135.828C166.219 134.414 167.003 133.7 168.137 133.7C169.271 133.7 170.055 134.414 170.055 135.828V136.92C170.055 138.334 169.271 139.048 168.137 139.048ZM180.049 136.416V135.058H176.297V136.416H180.049ZM188.361 140.168C190.531 140.168 191.805 138.992 191.805 137.186C191.805 135.688 190.951 134.834 189.033 134.414L188.207 134.246C187.045 133.994 186.499 133.602 186.499 132.734C186.499 131.768 187.213 131.25 188.403 131.25C189.509 131.25 190.223 131.698 190.741 132.412L191.735 131.614C190.993 130.606 189.943 130.06 188.473 130.06C186.471 130.06 185.155 131.054 185.155 132.79C185.155 134.316 186.121 135.142 187.955 135.52L188.781 135.688C189.999 135.954 190.461 136.402 190.461 137.256C190.461 138.292 189.747 138.978 188.417 138.978C187.325 138.978 186.513 138.502 185.827 137.62L184.861 138.488C185.645 139.524 186.765 140.168 188.361 140.168ZM197.404 140V138.852H196.046V131.376H197.404V130.228H193.33V131.376H194.688V138.852H193.33V140H197.404ZM199.479 140H202.825C205.303 140 206.899 138.376 206.899 135.114C206.899 131.852 205.303 130.228 202.825 130.228H199.479V140ZM200.837 138.796V131.432H202.825C204.379 131.432 205.443 132.468 205.443 134.33V135.898C205.443 137.76 204.379 138.796 202.825 138.796H200.837ZM216.225 140L212.851 130.228H211.143L207.755 140H209.127L210.065 137.242H213.873L214.797 140H216.225ZM213.537 136.038H210.387L211.927 131.474H211.997L213.537 136.038ZM219.157 135.94H221.299L223.329 140H224.855L222.685 135.8C223.945 135.478 224.603 134.512 224.603 133.098C224.603 131.306 223.553 130.228 221.831 130.228H217.799V140H219.157V135.94ZM219.157 134.764V131.432H221.775C222.643 131.432 223.161 131.908 223.161 132.748V133.448C223.161 134.288 222.643 134.764 221.775 134.764H219.157ZM228.608 140H229.966V131.432H232.99V130.228H225.584V131.432H228.608V140ZM240.636 140H241.994V130.228H240.636V134.456H235.932V130.228H234.574V140H235.932V135.66H240.636V140ZM250.604 140V138.796H245.872V135.66H250.254V134.456H245.872V131.432H250.604V130.228H244.514V140H250.604Z" fill="black"/>
<g clip-path="url(#clip2_25_915)">
<path d="M291 133C292.103 133 293 132.103 293 131C293 129.897 292.103 129 291 129C289.897 129 289 129.897 289 131C289 132.103 289.897 133 291 133ZM275 134.5C273.897 134.5 273 135.397 273 136.5C273 137.603 273.897 138.5 275 138.5C276.103 138.5 277 137.603 277 136.5C277 135.397 276.103 134.5 275 134.5ZM289.05 133.338L288.45 132.537L286.95 133.662L287.55 134.463L289.05 133.338ZM291 139C290.55 139 290.138 139.156 289.803 139.406L286.803 137.606C286.922 137.256 287 136.887 287 136.497C287 134.562 285.434 132.997 283.5 132.997C283.238 132.997 282.981 133.031 282.738 133.088L281.462 130.356C281.794 130 282 129.525 282 129C282 127.897 281.103 127 280 127C278.897 127 278 127.897 278 129C278 130.103 278.897 131 280 131C280.034 131 280.066 130.991 280.1 130.991L281.381 133.734C280.547 134.372 280 135.369 280 136.5C280 138.434 281.566 140 283.5 140C284.503 140 285.4 139.572 286.038 138.897L289.031 140.694C289.016 140.794 289 140.897 289 141C289 142.103 289.897 143 291 143C292.103 143 293 142.103 293 141C293 139.897 292.103 139 291 139ZM283.5 138C282.672 138 282 137.328 282 136.5C282 135.672 282.672 135 283.5 135C284.328 135 285 135.672 285 136.5C285 137.328 284.328 138 283.5 138ZM277.75 137H279.25V136H277.75V137Z" fill="#747576"/>
</g>
</g>
<g filter="url(#filter2_d_25_915)">
<rect x="64" y="159" width="244" height="40" rx="3" fill="white"/>
<path d="M81 183.021V174.98C81 174.423 81.6732 174.144 82.0669 174.538L86.0876 178.558C86.3317 178.802 86.3317 179.198 86.0876 179.442L82.0669 183.463C81.6732 183.857 81 183.578 81 183.021Z" fill="#747576"/>
<path d="M115.806 175.236C116.352 175.236 116.59 174.942 116.59 174.522V174.326C116.59 173.906 116.352 173.612 115.806 173.612C115.26 173.612 115.022 173.906 115.022 174.326V174.522C115.022 174.942 115.26 175.236 115.806 175.236ZM115.148 184H116.45V176.748H115.148V184ZM120.046 184V179.03C120.046 178.148 120.872 177.714 121.726 177.714C122.748 177.714 123.252 178.344 123.252 179.562V184H124.554V179.366C124.554 177.602 123.644 176.58 122.16 176.58C121.068 176.58 120.452 177.14 120.116 177.938H120.046V176.748H118.744V184H120.046ZM127.427 175.236C127.973 175.236 128.211 174.942 128.211 174.522V174.326C128.211 173.906 127.973 173.612 127.427 173.612C126.881 173.612 126.643 173.906 126.643 174.326V174.522C126.643 174.942 126.881 175.236 127.427 175.236ZM126.769 184H128.071V176.748H126.769V184ZM133.515 184V182.894H132.073V177.854H133.627V176.748H132.073V174.746H130.897V176.076C130.897 176.566 130.743 176.748 130.253 176.748H129.609V177.854H130.771V182.628C130.771 183.468 131.247 184 132.143 184H133.515ZM136.027 175.236C136.573 175.236 136.811 174.942 136.811 174.522V174.326C136.811 173.906 136.573 173.612 136.027 173.612C135.481 173.612 135.243 173.906 135.243 174.326V174.522C135.243 174.942 135.481 175.236 136.027 175.236ZM135.369 184H136.671V176.748H135.369V184ZM144.984 184V182.894H144.172V179.072C144.172 177.504 143.136 176.58 141.33 176.58C139.986 176.58 139.132 177.21 138.698 177.994L139.482 178.708C139.86 178.092 140.406 177.672 141.26 177.672C142.352 177.672 142.87 178.218 142.87 179.184V179.842H141.498C139.426 179.842 138.404 180.598 138.404 181.998C138.404 183.328 139.286 184.168 140.798 184.168C141.834 184.168 142.604 183.692 142.898 182.796H142.968C143.066 183.496 143.444 184 144.242 184H144.984ZM141.092 183.118C140.28 183.118 139.762 182.74 139.762 182.068V181.788C139.762 181.116 140.294 180.752 141.484 180.752H142.87V181.872C142.87 182.6 142.114 183.118 141.092 183.118ZM148.877 184V182.894H147.841V173.64H146.539V182.67C146.539 183.468 147.001 184 147.897 184H148.877ZM156.982 186.38V185.26H149.94V186.38H156.982ZM160.68 184L163.2 176.748H161.954L160.75 180.22L159.98 182.726H159.896L159.14 180.22L157.95 176.748H156.648L159.154 184H160.68ZM170.469 184V182.894H169.657V179.072C169.657 177.504 168.621 176.58 166.815 176.58C165.471 176.58 164.617 177.21 164.183 177.994L164.967 178.708C165.345 178.092 165.891 177.672 166.745 177.672C167.837 177.672 168.355 178.218 168.355 179.184V179.842H166.983C164.911 179.842 163.889 180.598 163.889 181.998C163.889 183.328 164.771 184.168 166.283 184.168C167.319 184.168 168.089 183.692 168.383 182.796H168.453C168.551 183.496 168.929 184 169.727 184H170.469ZM166.577 183.118C165.765 183.118 165.247 182.74 165.247 182.068V181.788C165.247 181.116 165.779 180.752 166.969 180.752H168.355V181.872C168.355 182.6 167.599 183.118 166.577 183.118ZM174.361 184V182.894H173.325V173.64H172.023V182.67C172.023 183.468 172.485 184 173.381 184H174.361ZM180.357 184H181.659V176.748H180.357V181.704C180.357 182.614 179.517 183.034 178.691 183.034C177.669 183.034 177.151 182.404 177.151 181.186V176.748H175.849V181.382C175.849 183.146 176.773 184.168 178.257 184.168C179.461 184.168 180.021 183.51 180.287 182.81H180.357V184ZM186.731 184.168C188.089 184.168 189.139 183.538 189.643 182.6L188.803 181.886C188.411 182.628 187.753 183.062 186.843 183.062C185.541 183.062 184.799 182.194 184.799 180.99V180.696H189.909V180.15C189.909 178.12 188.761 176.58 186.731 176.58C184.715 176.58 183.441 178.078 183.441 180.374C183.441 182.67 184.715 184.168 186.731 184.168ZM186.731 177.63C187.823 177.63 188.523 178.442 188.523 179.646V179.786H184.799V179.688C184.799 178.498 185.597 177.63 186.731 177.63ZM193.909 184.168C195.617 184.168 196.681 183.286 196.681 181.872C196.681 180.752 196.023 180.052 194.427 179.814L193.811 179.716C192.971 179.59 192.551 179.324 192.551 178.68C192.551 178.064 192.999 177.658 193.881 177.658C194.749 177.658 195.365 178.064 195.715 178.526L196.541 177.742C195.925 177.014 195.155 176.58 193.923 176.58C192.397 176.58 191.291 177.336 191.291 178.764C191.291 180.108 192.257 180.682 193.643 180.878L194.259 180.976C195.141 181.102 195.421 181.48 195.421 182.012C195.421 182.684 194.917 183.09 193.993 183.09C193.111 183.09 192.439 182.698 191.893 182.012L191.011 182.768C191.683 183.622 192.565 184.168 193.909 184.168ZM199.262 184.168C199.906 184.168 200.186 183.804 200.186 183.3V183.09C200.186 182.586 199.906 182.222 199.262 182.222C198.618 182.222 198.338 182.586 198.338 183.09V183.3C198.338 183.804 198.618 184.168 199.262 184.168ZM204.955 184.168C206.341 184.168 207.293 183.496 207.755 182.404L206.803 181.816C206.439 182.6 205.837 183.048 204.955 183.048C203.709 183.048 203.079 182.194 203.079 181.004V179.744C203.079 178.554 203.709 177.7 204.955 177.7C205.795 177.7 206.383 178.134 206.621 178.848L207.699 178.316C207.279 177.28 206.383 176.58 204.955 176.58C202.883 176.58 201.693 178.05 201.693 180.374C201.693 182.698 202.883 184.168 204.955 184.168ZM211.505 184.168C213.213 184.168 214.277 183.286 214.277 181.872C214.277 180.752 213.619 180.052 212.023 179.814L211.407 179.716C210.567 179.59 210.147 179.324 210.147 178.68C210.147 178.064 210.595 177.658 211.477 177.658C212.345 177.658 212.961 178.064 213.311 178.526L214.137 177.742C213.521 177.014 212.751 176.58 211.519 176.58C209.993 176.58 208.887 177.336 208.887 178.764C208.887 180.108 209.853 180.682 211.239 180.878L211.855 180.976C212.737 181.102 213.017 181.48 213.017 182.012C213.017 182.684 212.513 183.09 211.589 183.09C210.707 183.09 210.035 182.698 209.489 182.012L208.607 182.768C209.279 183.622 210.161 184.168 211.505 184.168ZM219.072 184L221.592 176.748H220.346L219.142 180.22L218.372 182.726H218.288L217.532 180.22L216.342 176.748H215.04L217.546 184H219.072Z" fill="black"/>
<path d="M290.5 183H280V182.5C280 182.225 279.775 182 279.5 182H278.5C278.225 182 278 182.225 278 182.5V183H275.5C275.225 183 275 183.225 275 183.5V184.5C275 184.775 275.225 185 275.5 185H278V185.5C278 185.775 278.225 186 278.5 186H279.5C279.775 186 280 185.775 280 185.5V185H290.5C290.775 185 291 184.775 291 184.5V183.5C291 183.225 290.775 183 290.5 183ZM290.5 178H288V177.5C288 177.225 287.775 177 287.5 177H286.5C286.225 177 286 177.225 286 177.5V178H275.5C275.225 178 275 178.225 275 178.5V179.5C275 179.775 275.225 180 275.5 180H286V180.5C286 180.775 286.225 181 286.5 181H287.5C287.775 181 288 180.775 288 180.5V180H290.5C290.775 180 291 179.775 291 179.5V178.5C291 178.225 290.775 178 290.5 178ZM290.5 173H284V172.5C284 172.225 283.775 172 283.5 172H282.5C282.225 172 282 172.225 282 172.5V173H275.5C275.225 173 275 173.225 275 173.5V174.5C275 174.775 275.225 175 275.5 175H282V175.5C282 175.775 282.225 176 282.5 176H283.5C283.775 176 284 175.775 284 175.5V175H290.5C290.775 175 291 174.775 291 174.5V173.5C291 173.225 290.775 173 290.5 173Z" fill="#747576"/>
</g>
<g filter="url(#filter3_d_25_915)">
<rect x="64" y="203" width="244" height="40" rx="3" fill="white"/>
<path d="M81 227.021V218.98C81 218.423 81.6732 218.144 82.0669 218.538L86.0876 222.558C86.3317 222.802 86.3317 223.198 86.0876 223.442L82.0669 227.463C81.6732 227.857 81 227.578 81 227.021Z" fill="#747576"/>
<g clip-path="url(#clip3_25_915)">
<path d="M124 215.25C119.719 215.25 116.25 218.719 116.25 223C116.25 227.281 119.719 230.75 124 230.75C128.281 230.75 131.75 227.281 131.75 223C131.75 218.719 128.281 215.25 124 215.25Z" fill="#747576"/>
</g>
<path d="M122.632 222.316V223.478H123.766C125.054 223.478 125.754 224.094 125.754 225.172V225.298C125.754 226.376 125.054 226.992 123.766 226.992C122.604 226.992 122.016 226.46 121.54 225.69L120.518 226.46C121.134 227.328 122.03 228.168 123.78 228.168C125.81 228.168 127.168 227.006 127.168 225.312C127.168 223.87 126.188 223.086 125.11 222.876V222.82C126.146 222.568 126.986 221.812 126.986 220.552C126.986 218.97 125.67 218.06 123.92 218.06C122.338 218.06 121.47 218.844 120.924 219.67L121.876 220.44C122.296 219.698 122.926 219.236 123.892 219.236C124.886 219.236 125.558 219.74 125.558 220.706V220.804C125.558 221.672 124.928 222.316 123.668 222.316H122.632Z" fill="white"/>
<path d="M147.374 228.168C149.082 228.168 150.146 227.286 150.146 225.872C150.146 224.752 149.488 224.052 147.892 223.814L147.276 223.716C146.436 223.59 146.016 223.324 146.016 222.68C146.016 222.064 146.464 221.658 147.346 221.658C148.214 221.658 148.83 222.064 149.18 222.526L150.006 221.742C149.39 221.014 148.62 220.58 147.388 220.58C145.862 220.58 144.756 221.336 144.756 222.764C144.756 224.108 145.722 224.682 147.108 224.878L147.724 224.976C148.606 225.102 148.886 225.48 148.886 226.012C148.886 226.684 148.382 227.09 147.458 227.09C146.576 227.09 145.904 226.698 145.358 226.012L144.476 226.768C145.148 227.622 146.03 228.168 147.374 228.168ZM154.755 228.168C156.141 228.168 157.093 227.496 157.555 226.404L156.603 225.816C156.239 226.6 155.637 227.048 154.755 227.048C153.509 227.048 152.879 226.194 152.879 225.004V223.744C152.879 222.554 153.509 221.7 154.755 221.7C155.595 221.7 156.183 222.134 156.421 222.848L157.499 222.316C157.079 221.28 156.183 220.58 154.755 220.58C152.683 220.58 151.493 222.05 151.493 224.374C151.493 226.698 152.683 228.168 154.755 228.168ZM161.77 228.168C163.128 228.168 164.178 227.538 164.682 226.6L163.842 225.886C163.45 226.628 162.792 227.062 161.882 227.062C160.58 227.062 159.838 226.194 159.838 224.99V224.696H164.948V224.15C164.948 222.12 163.8 220.58 161.77 220.58C159.754 220.58 158.48 222.078 158.48 224.374C158.48 226.67 159.754 228.168 161.77 228.168ZM161.77 221.63C162.862 221.63 163.562 222.442 163.562 223.646V223.786H159.838V223.688C159.838 222.498 160.636 221.63 161.77 221.63ZM168.024 228V223.03C168.024 222.148 168.85 221.714 169.704 221.714C170.726 221.714 171.23 222.344 171.23 223.562V228H172.532V223.366C172.532 221.602 171.622 220.58 170.138 220.58C169.046 220.58 168.43 221.14 168.094 221.938H168.024V220.748H166.722V228H168.024ZM180.768 228V226.894H179.956V223.072C179.956 221.504 178.92 220.58 177.114 220.58C175.77 220.58 174.916 221.21 174.482 221.994L175.266 222.708C175.644 222.092 176.19 221.672 177.044 221.672C178.136 221.672 178.654 222.218 178.654 223.184V223.842H177.282C175.21 223.842 174.188 224.598 174.188 225.998C174.188 227.328 175.07 228.168 176.582 228.168C177.618 228.168 178.388 227.692 178.682 226.796H178.752C178.85 227.496 179.228 228 180.026 228H180.768ZM176.876 227.118C176.064 227.118 175.546 226.74 175.546 226.068V225.788C175.546 225.116 176.078 224.752 177.268 224.752H178.654V225.872C178.654 226.6 177.898 227.118 176.876 227.118ZM183.624 228V223.24C183.624 222.526 184.324 222.05 185.528 222.05H186.172V220.748H185.738C184.576 220.748 183.932 221.42 183.694 222.134H183.624V220.748H182.322V228H183.624ZM188.23 219.236C188.776 219.236 189.014 218.942 189.014 218.522V218.326C189.014 217.906 188.776 217.612 188.23 217.612C187.684 217.612 187.446 217.906 187.446 218.326V218.522C187.446 218.942 187.684 219.236 188.23 219.236ZM187.572 228H188.874V220.748H187.572V228ZM193.954 228.168C195.928 228.168 197.258 226.684 197.258 224.374C197.258 222.064 195.928 220.58 193.954 220.58C191.98 220.58 190.65 222.064 190.65 224.374C190.65 226.684 191.98 228.168 193.954 228.168ZM193.954 227.048C192.82 227.048 192.036 226.334 192.036 224.92V223.828C192.036 222.414 192.82 221.7 193.954 221.7C195.088 221.7 195.872 222.414 195.872 223.828V224.92C195.872 226.334 195.088 227.048 193.954 227.048ZM201.255 228.168C202.963 228.168 204.027 227.286 204.027 225.872C204.027 224.752 203.369 224.052 201.773 223.814L201.157 223.716C200.317 223.59 199.897 223.324 199.897 222.68C199.897 222.064 200.345 221.658 201.227 221.658C202.095 221.658 202.711 222.064 203.061 222.526L203.887 221.742C203.271 221.014 202.501 220.58 201.269 220.58C199.743 220.58 198.637 221.336 198.637 222.764C198.637 224.108 199.603 224.682 200.989 224.878L201.605 224.976C202.487 225.102 202.767 225.48 202.767 226.012C202.767 226.684 202.263 227.09 201.339 227.09C200.457 227.09 199.785 226.698 199.239 226.012L198.357 226.768C199.029 227.622 199.911 228.168 201.255 228.168Z" fill="black"/>
<path d="M290.5 227H280V226.5C280 226.225 279.775 226 279.5 226H278.5C278.225 226 278 226.225 278 226.5V227H275.5C275.225 227 275 227.225 275 227.5V228.5C275 228.775 275.225 229 275.5 229H278V229.5C278 229.775 278.225 230 278.5 230H279.5C279.775 230 280 229.775 280 229.5V229H290.5C290.775 229 291 228.775 291 228.5V227.5C291 227.225 290.775 227 290.5 227ZM290.5 222H288V221.5C288 221.225 287.775 221 287.5 221H286.5C286.225 221 286 221.225 286 221.5V222H275.5C275.225 222 275 222.225 275 222.5V223.5C275 223.775 275.225 224 275.5 224H286V224.5C286 224.775 286.225 225 286.5 225H287.5C287.775 225 288 224.775 288 224.5V224H290.5C290.775 224 291 223.775 291 223.5V222.5C291 222.225 290.775 222 290.5 222ZM290.5 217H284V216.5C284 216.225 283.775 216 283.5 216H282.5C282.225 216 282 216.225 282 216.5V217H275.5C275.225 217 275 217.225 275 217.5V218.5C275 218.775 275.225 219 275.5 219H282V219.5C282 219.775 282.225 220 282.5 220H283.5C283.775 220 284 219.775 284 219.5V219H290.5C290.775 219 291 218.775 291 218.5V217.5C291 217.225 290.775 217 290.5 217Z" fill="#747576"/>
</g>
<g filter="url(#filter4_d_25_915)">
<rect x="643" y="159" width="244" height="40" rx="3" fill="white"/>
<path d="M660 183.021V174.98C660 174.423 660.673 174.144 661.067 174.538L665.088 178.558C665.332 178.802 665.332 179.198 665.088 179.442L661.067 183.463C660.673 183.857 660 183.578 660 183.021Z" fill="#747576"/>
<g clip-path="url(#clip4_25_915)">
<path d="M703 171.25C698.719 171.25 695.25 174.719 695.25 179C695.25 183.281 698.719 186.75 703 186.75C707.281 186.75 710.75 183.281 710.75 179C710.75 174.719 707.281 171.25 703 171.25Z" fill="#747576"/>
</g>
<path d="M701.632 178.316V179.478H702.766C704.054 179.478 704.754 180.094 704.754 181.172V181.298C704.754 182.376 704.054 182.992 702.766 182.992C701.604 182.992 701.016 182.46 700.54 181.69L699.518 182.46C700.134 183.328 701.03 184.168 702.78 184.168C704.81 184.168 706.168 183.006 706.168 181.312C706.168 179.87 705.188 179.086 704.11 178.876V178.82C705.146 178.568 705.986 177.812 705.986 176.552C705.986 174.97 704.67 174.06 702.92 174.06C701.338 174.06 700.47 174.844 699.924 175.67L700.876 176.44C701.296 175.698 701.926 175.236 702.892 175.236C703.886 175.236 704.558 175.74 704.558 176.706V176.804C704.558 177.672 703.928 178.316 702.668 178.316H701.632Z" fill="white"/>
<path d="M725.618 184V179.66H729.762V178.456H725.618V175.432H730.21V174.228H724.26V184H725.618ZM734.467 184.168C736.441 184.168 737.771 182.684 737.771 180.374C737.771 178.064 736.441 176.58 734.467 176.58C732.493 176.58 731.163 178.064 731.163 180.374C731.163 182.684 732.493 184.168 734.467 184.168ZM734.467 183.048C733.333 183.048 732.549 182.334 732.549 180.92V179.828C732.549 178.414 733.333 177.7 734.467 177.7C735.601 177.7 736.385 178.414 736.385 179.828V180.92C736.385 182.334 735.601 183.048 734.467 183.048ZM740.845 184V179.24C740.845 178.526 741.545 178.05 742.749 178.05H743.393V176.748H742.959C741.797 176.748 741.153 177.42 740.915 178.134H740.845V176.748H739.543V184H740.845ZM747.496 184.168C748.854 184.168 749.904 183.538 750.408 182.6L749.568 181.886C749.176 182.628 748.518 183.062 747.608 183.062C746.306 183.062 745.564 182.194 745.564 180.99V180.696H750.674V180.15C750.674 178.12 749.526 176.58 747.496 176.58C745.48 176.58 744.206 178.078 744.206 180.374C744.206 182.67 745.48 184.168 747.496 184.168ZM747.496 177.63C748.588 177.63 749.288 178.442 749.288 179.646V179.786H745.564V179.688C745.564 178.498 746.362 177.63 747.496 177.63ZM755.193 184.168C756.579 184.168 757.531 183.496 757.993 182.404L757.041 181.816C756.677 182.6 756.075 183.048 755.193 183.048C753.947 183.048 753.317 182.194 753.317 181.004V179.744C753.317 178.554 753.947 177.7 755.193 177.7C756.033 177.7 756.621 178.134 756.859 178.848L757.937 178.316C757.517 177.28 756.621 176.58 755.193 176.58C753.121 176.58 751.931 178.05 751.931 180.374C751.931 182.698 753.121 184.168 755.193 184.168ZM765.537 184V182.894H764.725V179.072C764.725 177.504 763.689 176.58 761.883 176.58C760.539 176.58 759.685 177.21 759.251 177.994L760.035 178.708C760.413 178.092 760.959 177.672 761.813 177.672C762.905 177.672 763.423 178.218 763.423 179.184V179.842H762.051C759.979 179.842 758.957 180.598 758.957 181.998C758.957 183.328 759.839 184.168 761.351 184.168C762.387 184.168 763.157 183.692 763.451 182.796H763.521C763.619 183.496 763.997 184 764.795 184H765.537ZM761.645 183.118C760.833 183.118 760.315 182.74 760.315 182.068V181.788C760.315 181.116 760.847 180.752 762.037 180.752H763.423V181.872C763.423 182.6 762.667 183.118 761.645 183.118ZM769.317 184.168C771.025 184.168 772.089 183.286 772.089 181.872C772.089 180.752 771.431 180.052 769.835 179.814L769.219 179.716C768.379 179.59 767.959 179.324 767.959 178.68C767.959 178.064 768.407 177.658 769.289 177.658C770.157 177.658 770.773 178.064 771.123 178.526L771.949 177.742C771.333 177.014 770.563 176.58 769.331 176.58C767.805 176.58 766.699 177.336 766.699 178.764C766.699 180.108 767.665 180.682 769.051 180.878L769.667 180.976C770.549 181.102 770.829 181.48 770.829 182.012C770.829 182.684 770.325 183.09 769.401 183.09C768.519 183.09 767.847 182.698 767.301 182.012L766.419 182.768C767.091 183.622 767.973 184.168 769.317 184.168ZM777.009 184V182.894H775.567V177.854H777.121V176.748H775.567V174.746H774.391V176.076C774.391 176.566 774.237 176.748 773.747 176.748H773.103V177.854H774.265V182.628C774.265 183.468 774.741 184 775.637 184H777.009Z" fill="black"/>
<g clip-path="url(#clip5_25_915)">
<path d="M862 171.25C857.719 171.25 854.25 174.719 854.25 179C854.25 183.281 857.719 186.75 862 186.75C866.281 186.75 869.75 183.281 869.75 179C869.75 174.719 866.281 171.25 862 171.25ZM865.616 179.75L860.116 182.906C859.622 183.181 859 182.828 859 182.25V175.75C859 175.175 859.619 174.819 860.116 175.094L865.616 178.438C866.128 178.725 866.128 179.466 865.616 179.75Z" fill="#747576"/>
</g>
</g>
<path d="M308 135C353.5 179.489 353 179 353 179" stroke="#747576" stroke-width="3"/>
<path d="M308 179C353.5 179 353 179 353 179" stroke="#747576" stroke-width="3"/>
<path d="M887 179C932.5 179 932 179 932 179" stroke="#747576" stroke-width="3"/>
<path d="M887 179C932.5 134.511 932 135 932 135" stroke="#747576" stroke-width="3"/>
<path d="M887 179C931.489 224.5 931 224 931 224" stroke="#747576" stroke-width="3"/>
<path d="M308 223C353.5 178.511 353 179 353 179" stroke="#747576" stroke-width="3"/>
<rect x="302" y="129" width="12" height="12" rx="6" fill="#39B539"/>
<rect x="302" y="129" width="12" height="12" rx="6" stroke="#39B539" stroke-width="2"/>
<rect x="302" y="173" width="12" height="12" rx="6" fill="#39B539"/>
<rect x="302" y="173" width="12" height="12" rx="6" stroke="#39B539" stroke-width="2"/>
<rect x="302" y="217" width="12" height="12" rx="6" fill="#39B539"/>
<rect x="302" y="217" width="12" height="12" rx="6" stroke="#39B539" stroke-width="2"/>
<g filter="url(#filter5_d_25_915)">
<rect x="353" y="159" width="244" height="40" rx="3" fill="white"/>
<path d="M370 183.021V174.98C370 174.423 370.673 174.144 371.067 174.538L375.088 178.558C375.332 178.802 375.332 179.198 375.088 179.442L371.067 183.463C370.673 183.857 370 183.578 370 183.021Z" fill="#747576"/>
<path d="M405.618 184V179.968H408.292C410.056 179.968 411.064 178.834 411.064 177.098C411.064 175.362 410.056 174.228 408.292 174.228H404.26V184H405.618ZM405.618 175.432H408.236C409.104 175.432 409.622 175.908 409.622 176.748V177.448C409.622 178.288 409.104 178.764 408.236 178.764H405.618V175.432ZM418.645 184V182.894H417.833V179.072C417.833 177.504 416.797 176.58 414.991 176.58C413.647 176.58 412.793 177.21 412.359 177.994L413.143 178.708C413.521 178.092 414.067 177.672 414.921 177.672C416.013 177.672 416.531 178.218 416.531 179.184V179.842H415.159C413.087 179.842 412.065 180.598 412.065 181.998C412.065 183.328 412.947 184.168 414.459 184.168C415.495 184.168 416.265 183.692 416.559 182.796H416.629C416.727 183.496 417.105 184 417.903 184H418.645ZM414.753 183.118C413.941 183.118 413.423 182.74 413.423 182.068V181.788C413.423 181.116 413.955 180.752 415.145 180.752H416.531V181.872C416.531 182.6 415.775 183.118 414.753 183.118ZM421.501 184V179.24C421.501 178.526 422.201 178.05 423.405 178.05H424.049V176.748H423.615C422.453 176.748 421.809 177.42 421.571 178.134H421.501V176.748H420.199V184H421.501ZM431.387 184V182.894H430.575V179.072C430.575 177.504 429.539 176.58 427.733 176.58C426.389 176.58 425.535 177.21 425.101 177.994L425.885 178.708C426.263 178.092 426.809 177.672 427.663 177.672C428.755 177.672 429.273 178.218 429.273 179.184V179.842H427.901C425.829 179.842 424.807 180.598 424.807 181.998C424.807 183.328 425.689 184.168 427.201 184.168C428.237 184.168 429.007 183.692 429.301 182.796H429.371C429.469 183.496 429.847 184 430.645 184H431.387ZM427.495 183.118C426.683 183.118 426.165 182.74 426.165 182.068V181.788C426.165 181.116 426.697 180.752 427.887 180.752H429.273V181.872C429.273 182.6 428.517 183.118 427.495 183.118ZM434.243 184V179.03C434.243 178.148 435.041 177.714 435.867 177.714C436.861 177.714 437.323 178.344 437.323 179.562V184H438.625V179.03C438.625 178.148 439.395 177.714 440.235 177.714C441.243 177.714 441.705 178.344 441.705 179.562V184H443.007V179.366C443.007 177.602 442.139 176.58 440.683 176.58C439.465 176.58 438.737 177.266 438.471 178.05H438.443C438.065 177.028 437.211 176.58 436.245 176.58C435.279 176.58 434.621 177.196 434.313 177.938H434.243V176.748H432.941V184H434.243ZM447.99 184.168C449.348 184.168 450.398 183.538 450.902 182.6L450.062 181.886C449.67 182.628 449.012 183.062 448.102 183.062C446.8 183.062 446.058 182.194 446.058 180.99V180.696H451.168V180.15C451.168 178.12 450.02 176.58 447.99 176.58C445.974 176.58 444.7 178.078 444.7 180.374C444.7 182.67 445.974 184.168 447.99 184.168ZM447.99 177.63C449.082 177.63 449.782 178.442 449.782 179.646V179.786H446.058V179.688C446.058 178.498 446.856 177.63 447.99 177.63ZM456.093 184V182.894H454.651V177.854H456.205V176.748H454.651V174.746H453.475V176.076C453.475 176.566 453.321 176.748 452.831 176.748H452.187V177.854H453.349V182.628C453.349 183.468 453.825 184 454.721 184H456.093ZM459.249 184V179.24C459.249 178.526 459.949 178.05 461.153 178.05H461.797V176.748H461.363C460.201 176.748 459.557 177.42 459.319 178.134H459.249V176.748H457.947V184H459.249ZM463.855 175.236C464.401 175.236 464.639 174.942 464.639 174.522V174.326C464.639 173.906 464.401 173.612 463.855 173.612C463.309 173.612 463.071 173.906 463.071 174.326V174.522C463.071 174.942 463.309 175.236 463.855 175.236ZM463.197 184H464.499V176.748H463.197V184ZM471.805 184V182.894H467.605L471.693 177.742V176.748H466.247V177.854H470.139L466.121 182.922V184H471.805ZM476.059 184.168C477.417 184.168 478.467 183.538 478.971 182.6L478.131 181.886C477.739 182.628 477.081 183.062 476.171 183.062C474.869 183.062 474.127 182.194 474.127 180.99V180.696H479.237V180.15C479.237 178.12 478.089 176.58 476.059 176.58C474.043 176.58 472.769 178.078 472.769 180.374C472.769 182.67 474.043 184.168 476.059 184.168ZM476.059 177.63C477.151 177.63 477.851 178.442 477.851 179.646V179.786H474.127V179.688C474.127 178.498 474.925 177.63 476.059 177.63Z" fill="black"/>
<g clip-path="url(#clip6_25_915)">
<path d="M579.867 174.41C579.797 174.128 579.443 174.032 579.238 174.238L576.914 176.562L574.793 176.208L574.439 174.087L576.763 171.763C576.97 171.556 576.87 171.204 576.586 171.133C575.106 170.766 573.475 171.162 572.318 172.318C571.079 173.557 570.738 175.353 571.254 176.918L564.586 183.587C563.805 184.368 563.805 185.634 564.586 186.415C565.367 187.196 566.633 187.196 567.414 186.415L574.077 179.752C575.643 180.274 577.435 179.93 578.682 178.683C579.84 177.524 580.235 175.892 579.867 174.41V174.41ZM566 185.751C565.586 185.751 565.25 185.415 565.25 185.001C565.25 184.586 565.586 184.251 566 184.251C566.414 184.251 566.75 184.586 566.75 185.001C566.75 185.415 566.414 185.751 566 185.751Z" fill="#747576"/>
</g>
</g>
<path d="M597 179C642.5 179 642 179 642 179" stroke="#747576" stroke-width="3"/>
<rect x="591" y="173" width="12" height="12" rx="6" fill="#39B539"/>
<rect x="591" y="173" width="12" height="12" rx="6" stroke="#39B539" stroke-width="2"/>
<rect x="635" y="173" width="12" height="12" rx="6" fill="#39B539"/>
<rect x="635" y="173" width="12" height="12" rx="6" stroke="#39B539" stroke-width="2"/>
<rect x="881" y="173" width="12" height="12" rx="6" fill="#E4FAE4"/>
<rect x="881" y="173" width="12" height="12" rx="6" stroke="#39B539" stroke-width="2"/>
<rect x="346" y="173" width="12" height="12" rx="6" fill="#39B539"/>
<rect x="346" y="173" width="12" height="12" rx="6" stroke="#39B539" stroke-width="2"/>
<rect x="925" y="129" width="12" height="12" rx="6" fill="#39B539"/>
<rect x="925" y="129" width="12" height="12" rx="6" stroke="#39B539" stroke-width="2"/>
<rect x="925" y="173" width="12" height="12" rx="6" fill="#E4FAE4"/>
<rect x="925" y="173" width="12" height="12" rx="6" stroke="#39B539" stroke-width="2"/>
<rect x="925" y="218" width="12" height="12" rx="6" fill="#39B539"/>
<rect x="925" y="218" width="12" height="12" rx="6" stroke="#39B539" stroke-width="2"/>
<rect x="1195" y="274" width="12" height="12" rx="6" fill="#E4FAE4"/>
<rect x="1195" y="274" width="12" height="12" rx="6" stroke="#39B539" stroke-width="2"/>
<defs>
<filter id="filter0_d_25_915" x="927" y="57" width="278" height="248" filterUnits="userSpaceOnUse" color-interpolation-filters="sRGB">
<feFlood flood-opacity="0" result="BackgroundImageFix"/>
<feColorMatrix in="SourceAlpha" type="matrix" values="0 0 0 0 0 0 0 0 0 0 0 0 0 0 0 0 0 0 127 0" result="hardAlpha"/>
<feOffset dy="2"/>
<feGaussianBlur stdDeviation="2"/>
<feColorMatrix type="matrix" values="0 0 0 0 0 0 0 0 0 0 0 0 0 0 0 0 0 0 0.2 0"/>
<feBlend mode="normal" in2="BackgroundImageFix" result="effect1_dropShadow_25_915"/>
<feBlend mode="normal" in="SourceGraphic" in2="effect1_dropShadow_25_915" result="shape"/>
</filter>
<filter id="filter1_d_25_915" x="60" y="113" width="252" height="48" filterUnits="userSpaceOnUse" color-interpolation-filters="sRGB">
<feFlood flood-opacity="0" result="BackgroundImageFix"/>
<feColorMatrix in="SourceAlpha" type="matrix" values="0 0 0 0 0 0 0 0 0 0 0 0 0 0 0 0 0 0 127 0" result="hardAlpha"/>
<feOffset dy="2"/>
<feGaussianBlur stdDeviation="2"/>
<feColorMatrix type="matrix" values="0 0 0 0 0 0 0 0 0 0 0 0 0 0 0 0 0 0 0.2 0"/>
<feBlend mode="normal" in2="BackgroundImageFix" result="effect1_dropShadow_25_915"/>
<feBlend mode="normal" in="SourceGraphic" in2="effect1_dropShadow_25_915" result="shape"/>
</filter>
<filter id="filter2_d_25_915" x="60" y="157" width="252" height="48" filterUnits="userSpaceOnUse" color-interpolation-filters="sRGB">
<feFlood flood-opacity="0" result="BackgroundImageFix"/>
<feColorMatrix in="SourceAlpha" type="matrix" values="0 0 0 0 0 0 0 0 0 0 0 0 0 0 0 0 0 0 127 0" result="hardAlpha"/>
<feOffset dy="2"/>
<feGaussianBlur stdDeviation="2"/>
<feColorMatrix type="matrix" values="0 0 0 0 0 0 0 0 0 0 0 0 0 0 0 0 0 0 0.2 0"/>
<feBlend mode="normal" in2="BackgroundImageFix" result="effect1_dropShadow_25_915"/>
<feBlend mode="normal" in="SourceGraphic" in2="effect1_dropShadow_25_915" result="shape"/>
</filter>
<filter id="filter3_d_25_915" x="60" y="201" width="252" height="48" filterUnits="userSpaceOnUse" color-interpolation-filters="sRGB">
<feFlood flood-opacity="0" result="BackgroundImageFix"/>
<feColorMatrix in="SourceAlpha" type="matrix" values="0 0 0 0 0 0 0 0 0 0 0 0 0 0 0 0 0 0 127 0" result="hardAlpha"/>
<feOffset dy="2"/>
<feGaussianBlur stdDeviation="2"/>
<feColorMatrix type="matrix" values="0 0 0 0 0 0 0 0 0 0 0 0 0 0 0 0 0 0 0.2 0"/>
<feBlend mode="normal" in2="BackgroundImageFix" result="effect1_dropShadow_25_915"/>
<feBlend mode="normal" in="SourceGraphic" in2="effect1_dropShadow_25_915" result="shape"/>
</filter>
<filter id="filter4_d_25_915" x="639" y="157" width="252" height="48" filterUnits="userSpaceOnUse" color-interpolation-filters="sRGB">
<feFlood flood-opacity="0" result="BackgroundImageFix"/>
<feColorMatrix in="SourceAlpha" type="matrix" values="0 0 0 0 0 0 0 0 0 0 0 0 0 0 0 0 0 0 127 0" result="hardAlpha"/>
<feOffset dy="2"/>
<feGaussianBlur stdDeviation="2"/>
<feColorMatrix type="matrix" values="0 0 0 0 0 0 0 0 0 0 0 0 0 0 0 0 0 0 0.2 0"/>
<feBlend mode="normal" in2="BackgroundImageFix" result="effect1_dropShadow_25_915"/>
<feBlend mode="normal" in="SourceGraphic" in2="effect1_dropShadow_25_915" result="shape"/>
</filter>
<filter id="filter5_d_25_915" x="349" y="157" width="252" height="48" filterUnits="userSpaceOnUse" color-interpolation-filters="sRGB">
<feFlood flood-opacity="0" result="BackgroundImageFix"/>
<feColorMatrix in="SourceAlpha" type="matrix" values="0 0 0 0 0 0 0 0 0 0 0 0 0 0 0 0 0 0 127 0" result="hardAlpha"/>
<feOffset dy="2"/>
<feGaussianBlur stdDeviation="2"/>
<feColorMatrix type="matrix" values="0 0 0 0 0 0 0 0 0 0 0 0 0 0 0 0 0 0 0.2 0"/>
<feBlend mode="normal" in2="BackgroundImageFix" result="effect1_dropShadow_25_915"/>
<feBlend mode="normal" in="SourceGraphic" in2="effect1_dropShadow_25_915" result="shape"/>
</filter>
<clipPath id="clip0_25_915">
<rect x="931" y="59" width="270" height="240" rx="3" fill="white"/>
</clipPath>
<clipPath id="clip1_25_915">
<rect width="14" height="16" fill="white" transform="translate(1143 71)"/>
</clipPath>
<clipPath id="clip2_25_915">
<rect width="20" height="16" fill="white" transform="translate(273 127)"/>
</clipPath>
<clipPath id="clip3_25_915">
<rect width="16" height="16" fill="white" transform="translate(116 215)"/>
</clipPath>
<clipPath id="clip4_25_915">
<rect width="16" height="16" fill="white" transform="translate(695 171)"/>
</clipPath>
<clipPath id="clip5_25_915">
<rect width="16" height="16" fill="white" transform="translate(854 171)"/>
</clipPath>
<clipPath id="clip6_25_915">
<rect width="16" height="16" fill="white" transform="translate(564 171)"/>
</clipPath>
</defs>
</svg>
