<svg width="1287" height="503" viewBox="0 0 1287 503" fill="none" xmlns="http://www.w3.org/2000/svg">
<g filter="url(#filter0_d_15_1597)">
<rect x="353" y="115" width="40" height="40" rx="3" fill="white"/>
<path d="M376.307 138.796H371.323L373.745 136.64C375.033 135.52 375.999 134.47 375.999 132.916C375.999 131.25 374.865 130.06 372.919 130.06C371.001 130.06 370.091 131.208 369.699 132.398L370.903 132.86C371.155 131.964 371.687 131.278 372.835 131.278C373.927 131.278 374.543 131.936 374.543 132.944V133.112C374.543 134.036 373.913 134.932 372.961 135.786L369.811 138.656V140H376.307V138.796Z" fill="#747576"/>
<rect x="354" y="116" width="38" height="38" rx="2" stroke="#747576" stroke-width="2" stroke-dasharray="7 3"/>
</g>
<path d="M308 136C353.5 136 353 136 353 136" stroke="#747576" stroke-width="3" stroke-dasharray="7 3"/>
<rect x="347" y="130" width="12" height="12" rx="6" fill="white"/>
<rect x="347" y="130" width="12" height="12" rx="6" stroke="#747576" stroke-width="2"/>
<g filter="url(#filter1_d_15_1597)">
<rect x="64" y="115" width="244" height="40" rx="3" fill="white"/>
<path d="M81 139.021V130.98C81 130.423 81.6732 130.144 82.0669 130.538L86.0876 134.558C86.3317 134.802 86.3317 135.198 86.0876 135.442L82.0669 139.463C81.6732 139.857 81 139.578 81 139.021Z" fill="#747576"/>
<path d="M121.56 140H122.778V134.89H119.376V136.066H121.462V136.948C121.462 138.292 120.384 138.95 119.082 138.95C117.332 138.95 116.24 137.774 116.24 135.898V134.316C116.24 132.44 117.346 131.278 118.998 131.278C120.202 131.278 121.056 131.908 121.476 132.888L122.596 132.23C121.938 130.914 120.734 130.06 118.998 130.06C116.464 130.06 114.784 131.866 114.784 135.128C114.784 138.404 116.464 140.168 118.83 140.168C120.314 140.168 121.294 139.468 121.504 138.544H121.56V140ZM125.595 131.236C126.141 131.236 126.379 130.942 126.379 130.522V130.326C126.379 129.906 126.141 129.612 125.595 129.612C125.049 129.612 124.811 129.906 124.811 130.326V130.522C124.811 130.942 125.049 131.236 125.595 131.236ZM124.937 140H126.239V132.748H124.937V140ZM131.319 140.168C133.293 140.168 134.623 138.684 134.623 136.374C134.623 134.064 133.293 132.58 131.319 132.58C129.345 132.58 128.015 134.064 128.015 136.374C128.015 138.684 129.345 140.168 131.319 140.168ZM131.319 139.048C130.185 139.048 129.401 138.334 129.401 136.92V135.828C129.401 134.414 130.185 133.7 131.319 133.7C132.453 133.7 133.237 134.414 133.237 135.828V136.92C133.237 138.334 132.453 139.048 131.319 139.048ZM137.696 140V135.24C137.696 134.526 138.396 134.05 139.6 134.05H140.244V132.748H139.81C138.648 132.748 138.004 133.42 137.766 134.134H137.696V132.748H136.394V140H137.696ZM146.154 140H147.456V129.64H146.154V133.938H146.098C145.762 133.042 145.006 132.58 144.012 132.58C142.192 132.58 141.1 134.022 141.1 136.374C141.1 138.726 142.192 140.168 144.012 140.168C145.006 140.168 145.762 139.706 146.098 138.81H146.154V140ZM144.39 139.034C143.228 139.034 142.486 138.208 142.486 136.99V135.758C142.486 134.54 143.228 133.714 144.39 133.714C145.37 133.714 146.154 134.274 146.154 135.044V137.704C146.154 138.474 145.37 139.034 144.39 139.034ZM155.772 140V138.894H154.96V135.072C154.96 133.504 153.924 132.58 152.118 132.58C150.774 132.58 149.92 133.21 149.486 133.994L150.27 134.708C150.648 134.092 151.194 133.672 152.048 133.672C153.14 133.672 153.658 134.218 153.658 135.184V135.842H152.286C150.214 135.842 149.192 136.598 149.192 137.998C149.192 139.328 150.074 140.168 151.586 140.168C152.622 140.168 153.392 139.692 153.686 138.796H153.756C153.854 139.496 154.232 140 155.03 140H155.772ZM151.88 139.118C151.068 139.118 150.55 138.74 150.55 138.068V137.788C150.55 137.116 151.082 136.752 152.272 136.752H153.658V137.872C153.658 138.6 152.902 139.118 151.88 139.118ZM158.628 140V135.03C158.628 134.148 159.454 133.714 160.308 133.714C161.33 133.714 161.834 134.344 161.834 135.562V140H163.136V135.366C163.136 133.602 162.226 132.58 160.742 132.58C159.65 132.58 159.034 133.14 158.698 133.938H158.628V132.748H157.326V140H158.628ZM168.137 140.168C170.111 140.168 171.441 138.684 171.441 136.374C171.441 134.064 170.111 132.58 168.137 132.58C166.163 132.58 164.833 134.064 164.833 136.374C164.833 138.684 166.163 140.168 168.137 140.168ZM168.137 139.048C167.003 139.048 166.219 138.334 166.219 136.92V135.828C166.219 134.414 167.003 133.7 168.137 133.7C169.271 133.7 170.055 134.414 170.055 135.828V136.92C170.055 138.334 169.271 139.048 168.137 139.048ZM180.049 136.416V135.058H176.297V136.416H180.049ZM188.361 140.168C190.531 140.168 191.805 138.992 191.805 137.186C191.805 135.688 190.951 134.834 189.033 134.414L188.207 134.246C187.045 133.994 186.499 133.602 186.499 132.734C186.499 131.768 187.213 131.25 188.403 131.25C189.509 131.25 190.223 131.698 190.741 132.412L191.735 131.614C190.993 130.606 189.943 130.06 188.473 130.06C186.471 130.06 185.155 131.054 185.155 132.79C185.155 134.316 186.121 135.142 187.955 135.52L188.781 135.688C189.999 135.954 190.461 136.402 190.461 137.256C190.461 138.292 189.747 138.978 188.417 138.978C187.325 138.978 186.513 138.502 185.827 137.62L184.861 138.488C185.645 139.524 186.765 140.168 188.361 140.168ZM197.404 140V138.852H196.046V131.376H197.404V130.228H193.33V131.376H194.688V138.852H193.33V140H197.404ZM199.479 140H202.825C205.303 140 206.899 138.376 206.899 135.114C206.899 131.852 205.303 130.228 202.825 130.228H199.479V140ZM200.837 138.796V131.432H202.825C204.379 131.432 205.443 132.468 205.443 134.33V135.898C205.443 137.76 204.379 138.796 202.825 138.796H200.837ZM216.225 140L212.851 130.228H211.143L207.755 140H209.127L210.065 137.242H213.873L214.797 140H216.225ZM213.537 136.038H210.387L211.927 131.474H211.997L213.537 136.038ZM219.157 135.94H221.299L223.329 140H224.855L222.685 135.8C223.945 135.478 224.603 134.512 224.603 133.098C224.603 131.306 223.553 130.228 221.831 130.228H217.799V140H219.157V135.94ZM219.157 134.764V131.432H221.775C222.643 131.432 223.161 131.908 223.161 132.748V133.448C223.161 134.288 222.643 134.764 221.775 134.764H219.157ZM228.608 140H229.966V131.432H232.99V130.228H225.584V131.432H228.608V140ZM240.636 140H241.994V130.228H240.636V134.456H235.932V130.228H234.574V140H235.932V135.66H240.636V140ZM250.604 140V138.796H245.872V135.66H250.254V134.456H245.872V131.432H250.604V130.228H244.514V140H250.604Z" fill="black"/>
<g clip-path="url(#clip0_15_1597)">
<path d="M291 133C292.103 133 293 132.103 293 131C293 129.897 292.103 129 291 129C289.897 129 289 129.897 289 131C289 132.103 289.897 133 291 133ZM275 134.5C273.897 134.5 273 135.397 273 136.5C273 137.603 273.897 138.5 275 138.5C276.103 138.5 277 137.603 277 136.5C277 135.397 276.103 134.5 275 134.5ZM289.05 133.338L288.45 132.537L286.95 133.662L287.55 134.463L289.05 133.338ZM291 139C290.55 139 290.138 139.156 289.803 139.406L286.803 137.606C286.922 137.256 287 136.887 287 136.497C287 134.562 285.434 132.997 283.5 132.997C283.238 132.997 282.981 133.031 282.738 133.088L281.462 130.356C281.794 130 282 129.525 282 129C282 127.897 281.103 127 280 127C278.897 127 278 127.897 278 129C278 130.103 278.897 131 280 131C280.034 131 280.066 130.991 280.1 130.991L281.381 133.734C280.547 134.372 280 135.369 280 136.5C280 138.434 281.566 140 283.5 140C284.503 140 285.4 139.572 286.038 138.897L289.031 140.694C289.016 140.794 289 140.897 289 141C289 142.103 289.897 143 291 143C292.103 143 293 142.103 293 141C293 139.897 292.103 139 291 139ZM283.5 138C282.672 138 282 137.328 282 136.5C282 135.672 282.672 135 283.5 135C284.328 135 285 135.672 285 136.5C285 137.328 284.328 138 283.5 138ZM277.75 137H279.25V136H277.75V137Z" fill="#747576"/>
</g>
</g>
<rect x="302" y="129" width="12" height="12" rx="6" fill="#39B539"/>
<rect x="302" y="129" width="12" height="12" rx="6" stroke="#39B539" stroke-width="2"/>
<defs>
<filter id="filter0_d_15_1597" x="349" y="113" width="48" height="48" filterUnits="userSpaceOnUse" color-interpolation-filters="sRGB">
<feFlood flood-opacity="0" result="BackgroundImageFix"/>
<feColorMatrix in="SourceAlpha" type="matrix" values="0 0 0 0 0 0 0 0 0 0 0 0 0 0 0 0 0 0 127 0" result="hardAlpha"/>
<feOffset dy="2"/>
<feGaussianBlur stdDeviation="2"/>
<feColorMatrix type="matrix" values="0 0 0 0 0 0 0 0 0 0 0 0 0 0 0 0 0 0 0.2 0"/>
<feBlend mode="normal" in2="BackgroundImageFix" result="effect1_dropShadow_15_1597"/>
<feBlend mode="normal" in="SourceGraphic" in2="effect1_dropShadow_15_1597" result="shape"/>
</filter>
<filter id="filter1_d_15_1597" x="60" y="113" width="252" height="48" filterUnits="userSpaceOnUse" color-interpolation-filters="sRGB">
<feFlood flood-opacity="0" result="BackgroundImageFix"/>
<feColorMatrix in="SourceAlpha" type="matrix" values="0 0 0 0 0 0 0 0 0 0 0 0 0 0 0 0 0 0 127 0" result="hardAlpha"/>
<feOffset dy="2"/>
<feGaussianBlur stdDeviation="2"/>
<feColorMatrix type="matrix" values="0 0 0 0 0 0 0 0 0 0 0 0 0 0 0 0 0 0 0.2 0"/>
<feBlend mode="normal" in2="BackgroundImageFix" result="effect1_dropShadow_15_1597"/>
<feBlend mode="normal" in="SourceGraphic" in2="effect1_dropShadow_15_1597" result="shape"/>
</filter>
<clipPath id="clip0_15_1597">
<rect width="20" height="16" fill="white" transform="translate(273 127)"/>
</clipPath>
</defs>
</svg>
