<svg width="139" height="36" viewBox="0 0 139 36" fill="none" xmlns="http://www.w3.org/2000/svg">
<path d="M15.8947 32.2207L3.52557 24.9617C3.3316 24.8478 3.21217 24.6396 3.21171 24.4143L3.17684 10.1317C3.17616 9.9004 3.30083 9.68715 3.50232 9.57446L15.5339 2.84415C15.8434 2.67089 15.9514 2.27731 15.7739 1.96966L14.8202 0.317592C14.6468 0.0168013 14.2648 -0.088566 13.9621 0.0808004L0.325252 7.70892C0.128551 7.81886 0.00478646 8.02502 0 8.25062V8.25313L0.0437622 26.2409C0.044446 26.4663 0.163879 26.6748 0.357845 26.7886L15.9054 35.9129C16.1046 36.0297 16.3512 36.029 16.5495 35.9111L30.017 27.901C30.3161 27.7232 30.4166 27.3369 30.2424 27.0352L29.2888 25.3831C29.1119 25.0766 28.7197 24.974 28.4161 25.1546L16.5388 32.2188C16.3405 32.3368 16.0937 32.3374 15.8947 32.2207Z" fill="#1B8073"/>
<path d="M16.1826 15.5348C17.1568 15.5348 17.9463 16.3267 17.9463 17.3034C17.9463 18.2803 17.1568 19.0723 16.1826 19.0723C15.2085 19.0723 14.4189 18.2803 14.4189 17.3034C14.4189 16.3267 15.2085 15.5348 16.1826 15.5348Z" fill="#1B8073"/>
<path d="M30.6006 7.20469C31.5748 7.20469 32.3643 7.99667 32.3643 8.97333C32.3643 9.95021 31.5748 10.7422 30.6006 10.7422C29.6265 10.7422 28.8369 9.95021 28.8369 8.97333C28.8369 7.99667 29.6265 7.20469 30.6006 7.20469Z" fill="#1B8073"/>
<path d="M30.6006 18.0445C31.5748 18.0445 32.3643 18.8365 32.3643 19.8132C32.3643 20.7901 31.5748 21.582 30.6006 21.582C29.6265 21.582 28.8369 20.7901 28.8369 19.8132C28.8369 18.8365 29.6265 18.0445 30.6006 18.0445Z" fill="#1B8073"/>
<path d="M30.6006 12.6363C31.5748 12.6363 32.3643 13.4283 32.3643 14.405C32.3643 15.3819 31.5748 16.1738 30.6006 16.1738C29.6265 16.1738 28.8369 15.3819 28.8369 14.405C28.8369 13.4283 29.6265 12.6363 30.6006 12.6363Z" fill="#1B8073"/>
<path d="M21.249 1.78086C22.2232 1.78086 23.0127 2.57284 23.0127 3.5495C23.0127 4.52638 22.2232 5.31836 21.249 5.31836C20.2749 5.31836 19.4854 4.52638 19.4854 3.5495C19.4854 2.57284 20.2749 1.78086 21.249 1.78086Z" fill="#1B8073"/>
<path d="M25.9248 4.48985C26.899 4.48985 27.6885 5.28182 27.6885 6.25848C27.6885 7.23537 26.899 8.02734 25.9248 8.02734C24.9507 8.02734 24.1611 7.23537 24.1611 6.25848C24.1611 5.28182 24.9507 4.48985 25.9248 4.48985Z" fill="#1B8073"/>
<path d="M25.7813 9.98008C26.7554 9.98008 27.545 10.7721 27.545 11.7487C27.545 12.7256 26.7554 13.5176 25.7813 13.5176C24.8071 13.5176 24.0176 12.7256 24.0176 11.7487C24.0176 10.7721 24.8071 9.98008 25.7813 9.98008Z" fill="#1B8073"/>
<path d="M20.9834 12.7594C21.9576 12.7594 22.7471 13.5514 22.7471 14.528C22.7471 15.5049 21.9576 16.2969 20.9834 16.2969C20.0093 16.2969 19.2197 15.5049 19.2197 14.528C19.2197 13.5514 20.0093 12.7594 20.9834 12.7594Z" fill="#1B8073"/>
<path d="M59.8924 19.8498C59.8548 18.9541 59.6084 18.2312 59.1528 17.6803C58.6967 17.1306 58.0592 16.855 57.2407 16.855C56.3099 16.855 55.6028 17.1164 55.1194 17.6385C54.6353 18.161 54.3467 18.8981 54.254 19.8498H59.8924ZM54.2264 22.6207C54.3005 23.7405 54.6911 24.5523 55.3984 25.0561C56.1054 25.5601 57.0358 25.812 58.1896 25.812C58.8221 25.812 59.4689 25.7514 60.1295 25.6298C60.7902 25.5087 61.4179 25.3359 62.0135 25.1121C62.2184 25.4853 62.3948 25.9331 62.5441 26.4556C62.6927 26.9783 62.7764 27.5381 62.7955 28.1349C61.3439 28.6948 59.7062 28.9746 57.8826 28.9746C56.5428 28.9746 55.3934 28.7879 54.4354 28.4146C53.4767 28.0421 52.6954 27.5239 52.0907 26.8615C51.486 26.1991 51.0395 25.4106 50.751 24.4963C50.4624 23.5819 50.3184 22.5837 50.3184 21.5012C50.3184 20.4375 50.467 19.4393 50.7651 18.5063C51.0625 17.5733 51.5047 16.7615 52.0907 16.0708C52.6772 15.3812 53.4027 14.8349 54.2681 14.4336C55.1331 14.0326 56.1426 13.8317 57.2966 13.8317C58.3015 13.8317 59.1945 14.0093 59.9761 14.3638C60.7574 14.7183 61.4225 15.2034 61.9718 15.8189C62.5206 16.4349 62.9348 17.1674 63.2138 18.0165C63.4932 18.8659 63.6327 19.7756 63.6327 20.7456C63.6327 21.0999 63.6186 21.4498 63.591 21.7952C63.5627 22.1405 63.5301 22.4157 63.4932 22.6207H54.2264Z" fill="#101828"/>
<path d="M82.4967 22.0052C82.2736 21.968 82.0315 21.935 81.7712 21.9072C81.5105 21.879 81.2778 21.8653 81.0733 21.8653C80.1616 21.8653 79.4407 22.029 78.9101 22.3551C78.3799 22.6818 78.1146 23.2088 78.1146 23.9364C78.1146 24.4221 78.2167 24.7951 78.4216 25.0561C78.6261 25.3178 78.8727 25.5087 79.1612 25.6298C79.4498 25.7514 79.7568 25.8257 80.0825 25.854C80.4078 25.8817 80.6918 25.8958 80.9338 25.8958C81.2128 25.8958 81.4918 25.8725 81.7712 25.8257C82.0502 25.7797 82.2918 25.7372 82.4967 25.7V22.0052ZM82.4967 19.1219C82.4967 18.6741 82.4222 18.3105 82.2736 18.0302C82.1243 17.7507 81.9198 17.5315 81.6595 17.3724C81.3986 17.2145 81.0774 17.1068 80.6963 17.0508C80.3148 16.9948 79.8913 16.967 79.4265 16.967C78.4216 16.967 77.3513 17.1628 76.2164 17.5546C75.9557 17.0696 75.7603 16.6127 75.6304 16.183C75.5 15.7537 75.4351 15.2408 75.4351 14.6436C76.2536 14.3638 77.0723 14.1584 77.8914 14.0276C78.7102 13.8973 79.4728 13.8317 80.1803 13.8317C82.1152 13.8317 83.6274 14.2987 84.716 15.2312C85.8044 16.1647 86.3487 17.6572 86.3487 19.71V28.1072C85.6973 28.3127 84.9063 28.5086 83.9764 28.6948C83.0456 28.8811 81.9944 28.9746 80.8221 28.9746C79.873 28.9746 79.003 28.8907 78.2121 28.7227C77.4212 28.555 76.742 28.2747 76.1747 27.883C75.6067 27.4912 75.1698 26.9875 74.8625 26.3715C74.556 25.756 74.4023 25.0001 74.4023 24.1046C74.4023 23.2088 74.5927 22.4575 74.9744 21.8512C75.3555 21.2448 75.849 20.7598 76.4539 20.3957C77.0581 20.0316 77.7328 19.7705 78.4774 19.6121C79.2216 19.4535 79.9658 19.3737 80.7104 19.3737C81.2502 19.3737 81.8453 19.4021 82.4967 19.4581V19.1219Z" fill="#101828"/>
<path d="M73.6501 13.8347L73.3517 13.8373V13.8368L71.7802 13.8489L71.2437 13.856C70.3484 13.8656 69.4941 13.9294 68.7358 14.1081C68.7314 14.1081 68.7267 14.1127 68.7223 14.1127C68.3617 14.1961 68.023 14.3051 67.7094 14.4429C66.4214 15.0086 65.5706 16.0751 65.5156 18.0017V18.1987L65.5257 22.7058V28.6882C65.8853 28.6965 69.1052 28.6935 69.4321 28.6882V22.4368H69.4303V18.4874C69.4303 17.8369 69.846 17.1864 70.8965 17.1316L71.9407 17.132L72.6762 17.1322L73.4573 17.1338L73.457 17.1325H73.6501C73.6704 16.8568 73.6465 14.4171 73.6501 13.8347Z" fill="#101828"/>
<path d="M49.3605 25.9531C49.1556 25.9903 48.9186 26.0333 48.6487 26.0788C48.3789 26.1261 48.1044 26.1489 47.8255 26.1489C47.4715 26.1489 47.1649 26.1117 46.9042 26.0369C46.6434 25.9631 46.4248 25.8228 46.2487 25.6178C46.0713 25.4118 45.9364 25.1321 45.8439 24.7778C45.7502 24.4233 45.7044 23.9568 45.7044 23.378V17.6962H49.0816C49.0756 17.3917 49.0795 14.9877 49.0816 14.6729H45.7044V14.6656V11.788V11.6637C45.7039 11.6632 45.7037 11.6623 45.7035 11.6618C45.703 11.6616 45.7023 11.6616 45.7019 11.6616C45.685 11.6579 41.8086 11.655 41.7886 11.6589L41.7865 11.788H41.787V14.6434L41.7745 14.6597L39.9355 14.6594C39.9374 14.974 39.9355 17.514 39.9355 17.6968L39.9818 17.6962H41.7963V24.2455C41.7963 26.0369 42.2431 27.3297 43.1361 28.1226C44.0293 28.9162 45.3226 29.3125 47.0159 29.3125C47.9276 29.3125 48.8117 29.2094 49.6676 29.0044C49.6521 28.889 49.4333 26.3654 49.3605 25.9531Z" fill="#101828"/>
<path d="M96.4968 13.8347L96.1984 13.8373V13.8368L94.6269 13.8489L94.0903 13.856C93.195 13.8656 92.3408 13.9294 91.5825 14.1081C91.5781 14.1081 91.5733 14.1127 91.569 14.1127C91.2084 14.1961 90.8697 14.3051 90.5561 14.4429C89.2681 15.0086 88.4172 16.0751 88.3623 18.0017V18.1987L88.3723 22.7058V28.6882C88.732 28.6965 91.9519 28.6935 92.2788 28.6882V22.4368H92.2769V18.4874C92.2769 17.8369 92.6927 17.1864 93.7432 17.1316L94.7873 17.132L95.5229 17.1322L96.304 17.1338L96.3037 17.1325H96.4968C96.5171 16.8568 96.4931 14.4171 96.4968 13.8347Z" fill="#101828"/>
<path d="M101.214 12.5295C99.9078 12.5295 98.914 11.5046 98.914 10.2237C98.914 8.97143 99.9078 7.9182 101.214 7.9182C102.491 7.9182 103.513 8.97143 103.513 10.2237C103.513 11.5046 102.491 12.5295 101.214 12.5295ZM99.255 28.6934L99.198 17.3118H97.6367L97.6652 13.9525L103.059 13.9242V28.6934H99.255Z" fill="#101828"/>
<path d="M117.376 28.2813C115.605 28.7846 113.36 29.1992 111.028 29.1992C107.366 29.1992 104.856 27.2745 104.856 23.8398V13.9201H108.813V23.2179C108.813 26.475 111.618 25.9717 113.449 25.4978V13.9201H117.435L117.376 28.2813Z" fill="#101828"/>
<path d="M133.255 13.9029C131.385 13.9029 129.771 14.67 128.949 15.6357C128.099 14.67 126.739 13.8744 124.898 13.8744C121.584 13.8744 119.034 15.7209 119.034 18.9878L119.062 28.6465L122.858 28.6179V19.1014C122.858 17.6811 123.708 16.9709 124.926 16.9709C126.173 16.9709 127.023 17.7947 127.023 19.2152L127.08 28.6465L130.847 28.6179V19.2152C130.847 17.8233 131.725 16.9424 132.972 16.9424C134.19 16.9424 135.04 17.9369 135.04 19.3572V28.6179L138.807 28.6465L138.864 19.2152C138.892 15.9767 136.569 13.9029 133.255 13.9029Z" fill="#101828"/>
</svg>
