<?xml version="1.0" encoding="UTF-8"?>
<svg width="765px" height="167px" viewBox="0 0 765 167" version="1.1"
  xmlns="http://www.w3.org/2000/svg"
  xmlns:xlink="http://www.w3.org/1999/xlink">
  <title>Uncharted-horizontal-colour-rgb-tm</title>
  <defs></defs>
  <g id="Page-1" stroke="none" stroke-width="1" fill="none" fill-rule="evenodd">
    <g id="Uncharted-horizontal-colour-rgb-tm" fill-rule="nonzero">
      <g id="Icon" fill="#E02429">
        <circle id="Oval" cx="79" cy="76.3" r="8.6"></circle>
        <circle id="Oval" cx="149.3" cy="35.8" r="8.6"></circle>
        <circle id="Oval" cx="149.3" cy="88.5" r="8.6"></circle>
        <circle id="Oval" cx="149.3" cy="62.2" r="8.6"></circle>
        <circle id="Oval" cx="103.7" cy="9.4" r="8.6"></circle>
        <circle id="Oval" cx="126.5" cy="22.6" r="8.6"></circle>
        <circle id="Oval" cx="125.8" cy="49.3" r="8.6"></circle>
        <circle id="Oval" cx="102.4" cy="62.8" r="8.6"></circle>
        <path d="M86.7,145.3 L86.7,95.4 C86.6838175,94.0812778 85.6187222,93.0161825 84.3,93 L84.3,93 C80.9946535,94.6508026 77.1053465,94.6508026 73.8,93 L73.8,93 C72.4812778,93.0161825 71.4161825,94.0812778 71.4,95.4 L71.4,145.3 L43.1,129 C42.3540984,128.569307 41.4345992,128.571343 40.6906124,129.005336 C39.9466255,129.439328 39.4922499,130.238719 39.5,131.1 L39.5,143.2 C39.5005052,144.06295 39.9567917,144.861452 40.7,145.3 L77.8,166.7 C78.55,167.1 79.45,167.1 80.2,166.7 L117.2,145.3 C117.943208,144.861452 118.399495,144.06295 118.4,143.2 L118.4,131.1 C118.40775,130.238719 117.953374,129.439328 117.209388,129.005336 C116.465401,128.571343 115.545902,128.569307 114.8,129 L86.7,145.3 Z" id="Shape"></path>
        <path d="M15.4,48.5 L58.6,73.4 C59.1523719,73.7377621 59.8196247,73.8326648 60.4442659,73.6623081 C61.068907,73.4919515 61.5955896,73.07143 61.9,72.5 L61.9,72.5 C62.0956987,68.7894317 64.0691363,65.4010766 67.2,63.4 L67.2,63.4 C67.5377621,62.8476281 67.6326648,62.1803753 67.4623081,61.5557341 C67.2919515,60.931093 66.87143,60.4044104 66.3,60.1 L23.1,35.2 L51.3,18.9 C52.0422796,18.4608473 52.497583,17.6624582 52.497583,16.8 C52.497583,15.9375418 52.0422796,15.1391527 51.3,14.7 L40.8,8.6 C40.05,8.2 39.15,8.2 38.4,8.6 L1.3,30.1 C0.52578163,30.5072083 0.0577609439,31.3262446 0.1,32.2 L0.1,75 C0.100505156,75.8629502 0.556791685,76.6614516 1.3,77.1 L11.8,83.2 C12.5459016,83.630693 13.4654008,83.6286568 14.2093876,83.1946645 C14.9533745,82.7606722 15.4077501,81.9612814 15.4,81.1 L15.4,48.5 Z" id="Shape"></path>
      </g>
      <g id="Wordmark" transform="translate(202.000000, 52.000000)" fill="#201b1f">
        <path d="M53.3,92.3 C44.5137956,94.7963904 35.4335035,96.1079882 26.3,96.2 C10.7,96.2 0,88 0,73.5 L0,31.4 L16.8,31.4 L16.8,70.9 C16.8,84.7 28.7,82.6 36.5,80.6 L36.5,31.5 L53.5,31.5 L53.3,92.3 Z" id="Shape"></path>
        <path d="M100.9,94.5 L100.9,55 C100.9,41.2 89,43.3 81.3,45.3 L81.3,94.6 L64.5,94.6 L64.5,33.5 C73.2535496,31.0105409 82.2998771,29.6989915 91.4,29.6 C107.1,29.6 117.8,37.8 117.8,52.3 L117.8,94.5 L100.9,94.5 Z" id="Shape"></path>
        <path d="M170.6,46.7 C167.347028,44.3455926 163.414739,43.1167521 159.4,43.2 C148.8,43.2 142.1,52.1 142.1,62.9 C142.1,73.7 149.3,82.8 159.8,82.8 C165.7,82.8 168.5,80.9 172.1,78.5 C173.4,80.8 177.1,88.6 178,90.4 C174.2,93.4 166.2,96.6 159,96.6 C138.9,96.6 125.2,82.4 125.2,62.9 C125.2,43.4 140.2,29 160.1,29.3 C166.55021,29.2592502 172.848972,31.2538579 178.1,35 C176.7,37.4 172,44.5 170.6,46.7 Z" id="Shape"></path>
        <path d="M222,94.7 L222,54.2 C222,41.6 210.7,43.6 202.4,45.2 L202.4,94.7 L185.6,94.7 L185.6,0.6 L202.3,0.6 L202.3,31.7 C205.6,31.2 209.5,30.1 213.7,30.1 C229.4,30.1 238.8,36.3 238.8,50.8 L238.8,94.7 L222,94.7 Z" id="Shape"></path>
        <path d="M274.8,96.7 C260.5,96.6 247.4,93.1 247.4,75.3 C247.4,59.7 260.6,53.3 274.3,53.3 L284.6,53.3 L284.6,49.9 C284.6,45.4 281.8,42.5 273.7,42.6 C265.8,42.6 262.8,45.2 257.4,49.6 C254.6,45.8 253.4,43.4 249.9,39.3 C255.4,33.3 264.7,29 275,29 C289.3,29 301.5,31.9 301.5,48 L301.5,92.2 C292.89648,95.112494 283.882869,96.6316419 274.8,96.7 Z M284.6,66.1 L275.2,66.1 C268.3,66.1 264.4,69.9 264.4,74.8 C264.3,80 266.4,82.8 274.8,83 C278.097558,83.1330421 281.397276,82.7963361 284.6,82 L284.6,66.1 Z" id="Shape"></path>
        <path d="M380.6,96.6 C369.7,95.6 359,90.3 359,77.4 L358.9,0.7 L375.9,0.7 L375.9,31.3 L394.6,31.3 L394.9,46 L375.9,45.7 L375.8,76 C375.8,78.9 377.7,81.8 382.5,81.9 C388.5,82.2 388.7,81.4 392.8,79.3 L397.6,91.9 C392.735275,95.567588 386.657811,97.247828 380.6,96.6 Z" id="Shape"></path>
        <path d="M339.9,30.9 L337.5,31 C333.836144,30.9389509 330.177783,31.3081433 326.6,32.1 L326.5,32.1 C318.5,34 312.8,38.6 312.5,49 L312.5,49.9 L312.6,94.1 L312.6,94.5 L329.6,94.5 L329.6,51.1 C329.6,48.3 331.4,45.4 336,45.2 L352.4,45.2 L352.4,30.9 L339.9,30.9 Z" id="Shape"></path>
        <path d="M432.2,96.4 C411.6,96.4 399.4,81.3 399.4,62.7 C399.4,40 415.7,28.6 431.6,29.1 C451.7,29.9 461.6,46.2 459.9,66.4 L416.8,66.4 C417.4,75.1 425.2,82.2 434.3,82.2 C443.9,82.2 447.5,79.4 451.3,75 C451.3,75 458.3,83.3 460,84.9 C454.9,91 445.3,96.4 432.2,96.4 Z M431.5,42.6 C420.9,42.3 417.7,47.6 417.5,53.3 L443.4,53.4 C443,47.4 438.9,42.8 431.5,42.6 L431.5,42.6 Z" id="Shape"></path>
        <path d="M502,96.7 C482.1,96.7 466.4,83.5 466.4,63.4 C466.4,43.3 482.1,30.1 502,30.1 C504.96251,30.1745151 507.910302,30.5429892 510.8,31.2 L510.8,0.6 L527.6,0.6 L527.6,90.1 C523.8,93.4 513.3,96.7 502,96.7 Z M510.8,45.9 C507.947887,44.8680554 504.932795,44.3598938 501.9,44.4 C490.2,44.4 483.9,51.3 483.9,62.9 C483.9,74.1 490.3,81.8 501.7,81.8 C504.6,81.8 508,81.7 510.7,80.4 L510.7,45.9 L510.8,45.9 Z" id="Shape"></path>
        <path d="M554.3,6.8 L551.7,6.8 L551.7,10.3 L554.3,10.3 C555.262444,10.3170623 556.062082,9.56184802 556.1,8.6 C556.102679,8.12179404 555.913897,7.66239875 555.575749,7.32425077 C555.237601,6.98610279 554.778206,6.79732091 554.3,6.8 L554.3,6.8 Z M555.9,15.5 L553.3,11.6 L551.6,11.6 L551.6,15.5 L550.2,15.5 L550.2,5.6 L554.2,5.6 C555.02596,5.55923431 555.83307,5.85560779 556.436372,6.42120345 C557.039674,6.98679911 557.387449,7.77312984 557.4,8.6 C557.418383,10.0592188 556.346001,11.3031814 554.9,11.5 L557.5,15.5 L555.9,15.5 Z M553.6,3.2 C549.568321,3.2 546.3,6.46832133 546.3,10.5 C546.3,14.5316787 549.568321,17.8 553.6,17.8 C557.631679,17.8 560.9,14.5316787 560.9,10.5 C560.905331,8.56229034 560.137938,6.70240791 558.767765,5.33223508 C557.397592,3.96206226 555.53771,3.19466927 553.6,3.2 L553.6,3.2 Z M553.6,19.1 C548.850351,19.1 545,15.2496488 545,10.5 C545,5.75035115 548.850351,1.9 553.6,1.9 C558.349649,1.9 562.2,5.75035115 562.2,10.5 C562.2,12.7808618 561.293931,14.9683055 559.681118,16.5811183 C558.068305,18.1939312 555.880862,19.1 553.6,19.1 L553.6,19.1 Z" id="Shape"></path>
      </g>
    </g>
  </g>
</svg>
