<svg width="12" height="8" viewBox="0 0 12 8" fill="none"
  xmlns="http://www.w3.org/2000/svg">
  <path d="M6.01744 7.62777C5.91269 7.62826 5.8089 7.60783 5.71215 7.56767C5.61541 7.52751 5.52766 7.46844 5.45405 7.39391L0.139066 2.07892C0.0330583 1.92384 -0.0147788 1.73629 0.00399088 1.54938C0.0227606 1.36246 0.106932 1.18818 0.241659 1.05726C0.376386 0.926349 0.553015 0.847215 0.740393 0.833818C0.92777 0.820421 1.11386 0.873622 1.26584 0.984037L6.01744 5.70374L10.769 0.984037C10.9189 0.886889 11.097 0.842858 11.2748 0.859003C11.4527 0.875147 11.6199 0.950531 11.7498 1.07307C11.8797 1.19561 11.9647 1.35822 11.9912 1.53482C12.0177 1.71142 11.9841 1.8918 11.8958 2.04703L6.58083 7.36202C6.50996 7.44234 6.42344 7.50734 6.32656 7.55304C6.22968 7.59873 6.12449 7.62416 6.01744 7.62777Z" fill="#1b8073"/>
</svg>
