<svg width="159" height="36" viewBox="0 0 159 36" fill="none" xmlns="http://www.w3.org/2000/svg">
<g>
<path d="M32.3229 23.4443C32.0766 25.2954 31.107 27.1465 29.5929 28.6605C28.0789 30.1746 26.2278 31.1442 24.3794 31.3905L18.2869 32.1708L19.0698 26.0758C19.3161 24.2325 20.2857 22.3814 21.7998 20.8674C23.3138 19.3533 25.1675 18.3837 27.0186 18.1374C27.913 18.0182 28.7452 18.0804 29.4763 18.3111L24.3327 23.4547L26.8993 26.0213L39.1102 13.8105L27.3971 2.09996L24.8305 4.66657L33.9743 13.8105L31.9755 15.8093C30.4459 14.9278 28.5896 14.5908 26.5804 14.8578C24.0138 15.2001 21.4861 16.5041 19.4613 18.5289C17.4365 20.5537 16.1325 23.0814 15.7903 25.648L14.4629 36L24.8149 34.6726C27.3815 34.3304 29.9092 33.0264 31.934 31.0016C33.9588 28.9768 35.2628 26.4491 35.605 23.8825C35.6336 23.6673 35.6543 23.4547 35.6699 23.2421H32.3488C32.341 23.3095 32.3359 23.3769 32.3255 23.4469L32.3229 23.4443Z" fill="#1B8073"/>
<path d="M14.2771 23.4547L5.13323 14.3108L14.7775 4.66398L12.2109 2.09996L0 14.3108L11.7105 26.0213L14.2771 23.4547Z" fill="#1B8073"/>
<path d="M62.2366 16.6752C62.3195 17.9456 62.7655 18.8659 63.5691 19.4389C64.3728 20.0092 65.4306 20.297 66.745 20.297C67.4631 20.297 68.1994 20.227 68.9513 20.0896C69.7031 19.9522 70.416 19.7551 71.0953 19.5037C71.3286 19.9263 71.5282 20.4344 71.6994 21.0281C71.8679 21.6218 71.9638 22.2569 71.9845 22.9336C70.3331 23.5688 68.4716 23.8851 66.3976 23.8851C64.8732 23.8851 63.5666 23.6725 62.4777 23.2499C61.3862 22.8273 60.4996 22.2388 59.81 21.4896C59.1203 20.7403 58.6148 19.8433 58.2856 18.8063C57.9563 17.7693 57.793 16.6363 57.793 15.4101C57.793 14.1838 57.9615 13.0716 58.3011 12.0138C58.6407 10.9561 59.1411 10.0357 59.81 9.25018C60.4762 8.46723 61.3033 7.84761 62.2858 7.39392C63.271 6.94023 64.4169 6.71208 65.7313 6.71208C66.8746 6.71208 67.8909 6.9143 68.7801 7.31614C69.6694 7.71799 70.4264 8.26761 71.0512 8.96759C71.676 9.66498 72.1479 10.4972 72.4642 11.4616C72.783 12.426 72.9412 13.4579 72.9412 14.5571C72.9412 14.9589 72.9256 15.3556 72.8945 15.7471C72.8634 16.1386 72.8245 16.4497 72.783 16.683H62.2418L62.2366 16.6752ZM68.6816 13.5331C68.6376 12.5168 68.3576 11.6975 67.8417 11.0727C67.3231 10.4479 66.5972 10.1368 65.6665 10.1368C64.6088 10.1368 63.8025 10.4324 63.2529 11.0261C62.7032 11.6198 62.374 12.4546 62.2677 13.5331H68.6816Z" fill="#201B1F"/>
<path d="M94.3903 12.706C94.3903 12.1979 94.3048 11.7857 94.1363 11.4668C93.9652 11.1505 93.7344 10.9016 93.4389 10.7201C93.1433 10.5413 92.7778 10.4194 92.3422 10.3546C91.9093 10.2898 91.4271 10.2587 90.8982 10.2587C89.7549 10.2587 88.539 10.4816 87.2479 10.925C86.9523 10.3753 86.7294 9.85683 86.5816 9.36943C86.4338 8.88203 86.3586 8.3013 86.3586 7.62206C87.2894 7.30577 88.2201 7.07244 89.1534 6.92466C90.0841 6.77689 90.9526 6.70171 91.7563 6.70171C93.9574 6.70171 95.6762 7.23058 96.9155 8.28834C98.1547 9.3461 98.7717 11.039 98.7717 13.3697V22.8947C98.0303 23.128 97.1306 23.351 96.0729 23.561C95.0151 23.7736 93.8174 23.8773 92.4848 23.8773C91.4063 23.8773 90.416 23.7814 89.5164 23.5921C88.6168 23.4028 87.8442 23.084 87.1986 22.6406C86.5531 22.1973 86.0553 21.6244 85.7053 20.927C85.3553 20.2296 85.1816 19.3714 85.1816 18.3552C85.1816 17.3389 85.3994 16.4859 85.8324 15.7989C86.2653 15.1119 86.8279 14.5597 87.5149 14.1475C88.2019 13.7353 88.9693 13.4397 89.8171 13.2582C90.6623 13.0794 91.51 12.9886 92.3578 12.9886C92.9722 12.9886 93.6489 13.0197 94.3903 13.0845V12.7034V12.706ZM94.3903 15.9752C94.1363 15.9337 93.8615 15.8949 93.5659 15.8637C93.2704 15.8326 93.0059 15.8171 92.7726 15.8171C91.7356 15.8171 90.9163 16.0037 90.3123 16.3719C89.7082 16.7426 89.4075 17.3415 89.4075 18.1659C89.4075 18.7155 89.5241 19.1407 89.7575 19.4363C89.9908 19.7318 90.2708 19.9496 90.5975 20.087C90.9267 20.2244 91.2741 20.3099 91.6448 20.3411C92.0156 20.3722 92.337 20.3877 92.6144 20.3877C92.9307 20.3877 93.2496 20.3618 93.5659 20.3074C93.8822 20.2555 94.157 20.2062 94.3903 20.1648V15.9752Z" fill="#201B1F"/>
<path d="M84.325 6.71208H83.9854L82.1966 6.72504L81.5873 6.73282C80.5684 6.74319 79.5962 6.81578 78.7355 7.018C78.7303 7.018 78.7252 7.02318 78.72 7.02318C78.3103 7.11911 77.9241 7.24096 77.5689 7.39651C76.1041 8.03946 75.1371 9.24758 75.0723 11.4331V11.656L75.0826 16.7685V23.5532C75.4923 23.5636 79.1529 23.5584 79.5262 23.5532V16.4626V11.9827C79.5262 11.2438 79.9981 10.5076 81.1932 10.4453H82.3806H83.218H84.1073H84.3276C84.351 10.1316 84.3224 7.3654 84.3276 6.7043L84.325 6.71208Z" fill="#201B1F"/>
<path d="M56.698 20.4577C56.4647 20.4992 56.1951 20.5485 55.8892 20.6003C55.5832 20.6548 55.2695 20.6807 54.9532 20.6807C54.5514 20.6807 54.2014 20.6392 53.9059 20.5536C53.6103 20.4707 53.3614 20.3099 53.1592 20.0792C52.957 19.8459 52.804 19.5296 52.6977 19.1252C52.5914 18.7233 52.5396 18.1944 52.5396 17.5385V11.0935H56.3817C56.374 10.7487 56.3817 8.02131 56.3817 7.66354H52.5396V4.24916C52.5214 4.24398 48.1115 4.24139 48.0882 4.24657V4.39175V7.62983L48.0726 7.64798H45.9805C45.9805 8.00575 45.9805 10.8861 45.9805 11.0935H46.0323H48.096V18.5211C48.096 20.5536 48.6041 22.0184 49.6204 22.918C50.6367 23.8176 52.1066 24.2688 54.0329 24.2688C55.0699 24.2688 56.0758 24.1521 57.048 23.9188C57.0299 23.7865 56.781 20.9244 56.698 20.4577Z" fill="#201B1F"/>
<path d="M110.315 6.71208H109.976L108.187 6.72504L107.578 6.73282C106.559 6.74319 105.586 6.81578 104.726 7.018C104.721 7.018 104.715 7.02318 104.71 7.02318C104.301 7.11911 103.914 7.24096 103.559 7.39651C102.094 8.03946 101.127 9.24758 101.062 11.4331V11.656L101.073 16.7685V23.5532C101.482 23.5636 105.143 23.5584 105.516 23.5532V16.4626V11.9827C105.516 11.2438 105.988 10.5076 107.183 10.4453H108.371H109.208H110.098H110.318C110.341 10.1316 110.313 7.3654 110.318 6.7043L110.315 6.71208Z" fill="#201B1F"/>
<path d="M113.452 23.5636L113.387 10.6527H111.611L111.642 6.84171L117.776 6.8106V23.5636H113.449H113.452ZM115.679 5.22915C114.193 5.22915 113.063 4.06769 113.063 2.61328C113.063 1.15886 114.193 -0.00259399 115.679 -0.00259399C117.165 -0.00259399 118.295 1.19257 118.295 2.61328C118.295 4.03399 117.133 5.22915 115.679 5.22915Z" fill="#201B1F"/>
<path d="M134.059 23.1021C132.045 23.6725 129.491 24.1443 126.839 24.1443C122.675 24.1443 119.818 21.9614 119.818 18.0648V6.81319H124.319V17.3596C124.319 21.054 127.51 20.4836 129.592 19.947V6.81319H134.127L134.059 23.1021Z" fill="#201B1F"/>
<path d="M152.124 6.79245C149.998 6.79245 148.16 7.66354 147.227 8.75759C146.26 7.66095 144.715 6.75874 142.62 6.75874C138.85 6.75874 135.949 8.85351 135.949 12.5583L135.98 23.5143L140.297 23.4832V12.6879C140.297 11.0779 141.264 10.2716 142.648 10.2716C144.033 10.2716 145.033 11.2049 145.033 12.8175L145.098 23.5143L149.384 23.4832V12.8175C149.384 11.2387 150.382 10.2405 151.8 10.2405C153.218 10.2405 154.151 11.3683 154.151 12.9782V23.4832L158.437 23.5143L158.502 12.8175C158.533 9.14388 155.891 6.79245 152.121 6.79245H152.124Z" fill="#201B1F"/>
</g>
</svg>
