<svg width="200" height="174" viewBox="0 0 200 174" fill="none" xmlns="http://www.w3.org/2000/svg">
<path d="M173.913 59.7079L127.33 13.125L140.101 0.353536L199.646 59.8847L137.556 121.975L124.784 109.203L150.911 83.0767L151.202 82.7855L150.809 82.6615C147.031 81.4691 142.738 81.1499 138.133 81.7639C128.605 83.0316 119.077 88.0198 111.301 95.7952C103.526 103.57 98.5378 113.085 97.27 122.573L97.2698 122.575L93.266 153.743L93.2248 154.064L93.5457 154.023L124.701 150.033L124.702 150.032C134.217 148.765 143.732 143.776 151.507 136.001C159.147 128.362 164.096 119.043 165.469 109.682L165.479 109.691L165.551 109.2C165.587 108.96 165.611 108.721 165.635 108.49C165.639 108.449 165.643 108.407 165.648 108.366H182.137C182.06 109.359 181.96 110.353 181.827 111.358C180.085 124.422 173.445 137.299 163.125 147.619C152.806 157.939 139.928 164.579 126.864 166.321L74.2481 173.068L80.9947 120.452C82.7367 107.387 89.3767 94.5101 99.6965 84.1904C110.016 73.8706 122.893 67.2306 135.958 65.4886C146.185 64.1294 155.621 65.8462 163.389 70.3229L163.555 70.4186L163.691 70.2831L173.913 60.0615L174.089 59.8847L173.913 59.7079Z" stroke="#1B8073" stroke-opacity="0.3" stroke-width="0.5"/>
<path d="M62.4435 0.353465L75.2148 13.1119L26.0733 62.2667L25.8966 62.4434L26.0733 62.6202L72.6562 109.203L59.8847 121.975L0.353554 62.4434L62.4435 0.353465Z" stroke="#1B8073" stroke-opacity="0.3" stroke-width="0.5"/>
</svg>
