<svg width="91" height="89" viewBox="0 0 91 89" fill="none" xmlns="http://www.w3.org/2000/svg">
<g id="Group">
<path id="Vector" d="M41.6504 50.6072C41.7891 52.6881 42.7879 53.7146 43.7451 54.2279C49.2525 61.1781 57.8119 61.2336 62.4592 60.6232C63.1945 60.5261 65.4418 60.7619 68.0499 61.0255C71.851 61.4139 77.0254 61.9549 82.0334 61.9549C84.0588 61.9549 86.0704 61.8717 87.9293 61.6497C89.594 61.4694 90.8425 60.0683 90.8425 58.4036C90.8425 56.614 89.3859 55.1574 87.5963 55.1574C87.4854 55.1574 87.3328 55.1574 87.194 55.1851C82.1999 55.6568 71.8232 56.614 62.1818 51.3979C61.9321 51.2592 61.5575 50.954 61.1552 50.6349C59.657 49.428 57.1876 47.4858 53.5253 47.8465C52.6513 46.9864 50.9589 46.5564 48.3924 46.5564C48.6838 45.1275 49.4606 44.961 50.6814 44.7113C51.4721 44.5587 52.1796 44.1842 52.7484 43.657C57.8397 44.2674 60.087 42.2697 61.4465 41.049C61.7517 40.7854 62.0292 40.5357 62.2234 40.4247C71.3377 35.4861 81.1733 36.4016 85.8761 36.8317C86.001 36.8594 86.1258 36.8594 86.2923 36.8594C88.0125 36.8594 89.4275 35.4583 89.4275 33.7242C89.4275 32.115 88.2206 30.7833 86.6253 30.6029C80.4936 29.8677 72.8359 30.6584 67.7724 31.1856C65.317 31.4353 63.1806 31.6572 62.487 31.5601C58.9217 31.1023 50.0571 30.7833 44.5359 37.7889C44.2584 37.9693 43.9809 38.1635 43.6896 38.3577C41.1787 37.345 38.6816 36.6514 36.2262 36.2768V25.6088C36.351 25.6088 36.4759 25.6227 36.6146 25.6227C38.3209 25.6227 41.1093 25.3036 42.9266 23.4863C45.6595 20.7534 45.0075 15.8841 44.9798 15.676C44.9104 15.2182 44.5497 14.8575 44.0919 14.7882C43.8838 14.7604 39.0146 14.1084 36.2817 16.8413C36.2539 16.8691 36.2401 16.8829 36.2262 16.9107V11.5559C36.351 11.5559 36.4759 11.5697 36.6146 11.5697C38.3209 11.5697 41.1093 11.2507 42.9266 9.43335C45.6595 6.70046 45.0075 1.83118 44.9798 1.62309C44.9104 1.1653 44.5497 0.80461 44.0919 0.735247C43.8838 0.707502 39.0146 0.0554906 36.2817 2.78839C36.2401 2.83001 36.2123 2.87162 36.1707 2.91324C35.8516 1.27628 34.4227 0 32.6887 0C30.7604 0 29.1789 1.5676 29.1789 3.50976V9.71081C29.1512 9.68306 29.1373 9.66919 29.1234 9.64144C26.3905 6.90854 21.5212 7.56056 21.3132 7.5883C20.8554 7.65766 20.4947 8.01835 20.4253 8.47615C20.3976 8.68423 19.7456 13.5535 22.4785 16.2864C24.3096 18.1176 27.0841 18.4228 28.7905 18.4228C28.9292 18.4228 29.0541 18.4228 29.1789 18.4089V23.7637C29.1512 23.736 29.1373 23.7221 29.1234 23.6944C26.3905 20.9615 21.5212 21.6135 21.3132 21.6412C20.8554 21.7106 20.4947 22.0713 20.4253 22.5291C20.3976 22.7372 19.7456 27.6064 22.4785 30.3393C24.3096 32.1705 27.0841 32.4757 28.7905 32.4757C28.9292 32.4757 29.0541 32.4757 29.1789 32.4618V36.041C22.7282 36.5126 20.2588 41.2709 20.1479 41.479C19.9675 41.8397 19.8704 43.2824 21.2854 42.9634C23.4911 42.4778 27.2645 41.9507 29.1789 42.1033V44.7391C25.6553 46.9587 23.5466 49.7193 22.7282 50.9401C22.3952 51.4257 22.423 52.0638 22.8114 52.5216C23.075 52.8407 23.4495 53.0071 23.838 53.0071C24.0183 53.0071 24.1987 52.9655 24.3651 52.8961C25.8634 52.258 27.5142 51.7863 29.1789 51.4395V70.764H17.5121V66.741C17.6508 66.741 17.8034 66.7549 17.956 66.7549C19.7317 66.7549 22.6172 66.4219 24.5177 64.5352C27.3616 61.6914 26.6818 56.6279 26.6541 56.4198C26.5847 55.962 26.224 55.6013 25.7663 55.5319C25.5582 55.5042 20.4947 54.8244 17.6508 57.6683C17.5953 57.7238 17.5537 57.7793 17.5121 57.8209V36.5681C17.5121 34.5705 15.889 32.9474 13.8913 32.9474C12.0601 32.9474 10.5619 34.3069 10.3261 36.0687C10.2567 35.9993 10.2012 35.93 10.1319 35.8606C7.28798 33.0167 2.22448 33.6965 2.0164 33.7242C1.5586 33.7936 1.19791 34.1543 1.12855 34.6121C1.10081 34.8202 0.421049 39.8837 3.26493 42.7275C5.16547 44.6281 8.05097 44.9472 9.82666 44.9472C9.99313 44.9472 10.1319 44.9472 10.2706 44.9333V50.6904C10.229 50.6349 10.1873 50.5794 10.1319 50.5378C7.28798 47.6939 2.22448 48.3737 2.0164 48.4014C1.5586 48.4708 1.19791 48.8315 1.12855 49.2893C1.10081 49.5251 0.421049 54.5747 3.26493 57.4186C5.16547 59.3191 8.05097 59.6382 9.82666 59.6382C9.99313 59.6382 10.1319 59.6382 10.2706 59.6243V70.7779H1.19791C0.629138 70.7779 0.157471 71.2496 0.157471 71.8183C0.157471 72.3871 0.629138 72.8588 1.19791 72.8588H87.9015C88.4703 72.8588 88.942 72.3871 88.942 71.8183C88.942 71.2496 88.4703 70.7779 87.9015 70.7779H36.1846V50.621C38.3626 50.5239 40.277 50.5517 41.6504 50.6072ZM19.1213 59.1527C20.6611 57.6128 23.3108 57.5018 24.6564 57.5435C24.7119 58.8891 24.5871 61.5388 23.0472 63.0786C21.979 64.1468 20.3698 64.5214 19.0381 64.6323L21.327 62.3434C21.7293 61.9411 21.7293 61.2752 21.327 60.8729C20.9247 60.4706 20.2588 60.4706 19.8565 60.8729L17.5676 63.1619C17.6785 61.8301 18.0531 60.2209 19.1213 59.1527ZM3.14007 35.7358C4.48571 35.6803 7.13538 35.8051 8.67523 37.345C9.74342 38.4132 10.118 40.0224 10.229 41.3542L7.93999 39.0652C7.53768 38.6629 6.8718 38.6629 6.46949 39.0652C6.06719 39.4675 6.06719 40.1334 6.46949 40.5357L8.75847 42.8246C7.4267 42.7137 5.81748 42.3391 4.74929 41.2709C3.19557 39.7311 3.08458 37.0814 3.14007 35.7358ZM3.14007 50.4268C4.48571 50.3852 7.13538 50.4962 8.67523 52.036C9.74342 53.1042 10.118 54.7135 10.229 56.0452L7.93999 53.7562C7.53768 53.3539 6.8718 53.3539 6.46949 53.7562C6.06719 54.1586 6.06719 54.8244 6.46949 55.2267L8.75847 57.5157C7.4267 57.4047 5.81748 57.0302 4.74929 55.962C3.19557 54.4221 3.08458 51.7586 3.14007 50.4268ZM12.3515 36.5681C12.3515 35.7219 13.0451 35.0283 13.8913 35.0283C14.7376 35.0283 15.4312 35.7219 15.4312 36.5681V64.3826V64.3965V70.7918H12.3653V36.5681H12.3515ZM31.2598 70.7918V51.1066C32.1615 50.9679 33.1187 50.8569 34.1175 50.7736V70.7918H31.2598ZM59.8234 52.258C60.3228 52.6603 60.7529 53.0071 61.1691 53.2291C71.3654 58.7504 82.1722 57.7377 87.3744 57.2521C87.416 57.2521 87.5547 57.2383 87.5825 57.2383C88.2206 57.2383 88.7478 57.7654 88.7478 58.4036C88.7478 59.0001 88.29 59.5134 87.6796 59.5827C81.4508 60.318 73.5157 59.5134 68.258 58.9585C65.1921 58.6394 63.1667 58.4313 62.1818 58.57C58.4362 59.0556 51.8744 59.0833 47.0468 54.7273C49.3219 54.436 51.6802 53.1597 52.9426 51.9112C53.7195 51.1343 54.0524 50.4407 54.1634 49.8719C56.7437 49.7887 58.5055 51.2037 59.8234 52.258ZM52.1242 49.4003C52.1519 49.4696 52.0687 49.8581 51.486 50.4407C49.9184 51.9944 46.5613 53.243 44.8827 52.48C44.633 52.369 43.9532 52.036 43.7867 50.732C44.0642 50.7182 44.3278 50.7043 44.5775 50.6627C46.0341 50.413 47.1994 49.6638 47.8098 48.6511C51.6247 48.554 52.1103 49.4003 52.1242 49.4003ZM62.1818 33.6549C63.0835 33.7659 64.7759 33.6133 67.9528 33.2803C72.933 32.767 80.452 31.9902 86.3617 32.6977C86.9027 32.7532 87.3189 33.211 87.3189 33.752C87.3189 34.3346 86.8472 34.8063 86.2646 34.8063C86.2368 34.8063 86.112 34.7924 86.0704 34.7786C81.1456 34.3208 70.8938 33.3636 61.2107 38.5935C60.8084 38.8155 60.4477 39.1345 60.0315 39.4952C58.894 40.5079 57.3819 41.8397 53.9415 41.6732C54.2744 40.5634 54.1773 39.3704 53.6224 38.3438C52.9149 37.012 51.9577 35.9716 50.7924 35.278C55.1068 33.1138 59.8789 33.3497 62.1818 33.6549ZM45.7705 39.4814C45.8676 39.412 45.9647 39.3288 46.0341 39.2317C46.8387 38.1773 47.7404 37.3172 48.6838 36.6097C50.0016 37.0259 51.0421 37.9415 51.7773 39.3426C52.1242 39.9946 52.36 42.3252 50.182 42.6998C48.7115 42.9634 46.5058 43.4628 46.1867 47.0697C46.1312 47.7772 45.285 48.4292 44.2029 48.6095C42.9128 48.8176 41.2203 48.3876 40.388 46.487C39.944 45.4882 40.4157 44.3645 41.2342 43.2963C41.2481 43.2824 41.2619 43.2547 41.2758 43.2408C42.6214 41.59 44.8272 40.0779 45.7705 39.4814ZM41.7197 39.8837C41.1093 40.3969 40.5267 40.9657 40.0134 41.5622C38.6539 41.59 37.3776 41.7287 36.1846 41.9784V38.427C38.0157 38.7184 39.8608 39.2039 41.7197 39.8837ZM42.9405 16.8136C42.9821 18.1037 42.8573 20.5869 41.4145 22.0297C40.4296 23.0146 38.9591 23.3753 37.7244 23.5002L39.833 21.3915C40.2354 20.9892 40.2354 20.3233 39.833 19.921C39.4307 19.5187 38.7649 19.5187 38.3626 19.921L36.2539 22.0297C36.3788 20.7811 36.7395 19.3106 37.7244 18.3395C39.1672 16.8968 41.6642 16.7719 42.9405 16.8136ZM42.9405 2.74677C42.9821 4.03692 42.8573 6.52011 41.4145 7.96286C40.4296 8.94781 38.9591 9.3085 37.7105 9.43335L39.8192 7.32472C40.2215 6.92242 40.2215 6.25653 39.8192 5.85423C39.4169 5.45192 38.751 5.45192 38.3487 5.85423L36.2401 7.96286C36.3649 6.71433 36.7256 5.24383 37.7105 4.27275C39.1672 2.83001 41.6642 2.70515 42.9405 2.74677ZM22.423 9.58595C23.7131 9.54433 26.1963 9.66919 27.639 11.1119C28.624 12.0969 28.9847 13.5674 29.1095 14.802L27.0009 12.6934C26.5986 12.2911 25.9327 12.2911 25.5304 12.6934C25.1281 13.0957 25.1281 13.7616 25.5304 14.1639L27.639 16.2725C26.3905 16.1477 24.92 15.787 23.9351 14.802C22.5062 13.3593 22.3813 10.8761 22.423 9.58595ZM22.423 23.6527C23.7131 23.6111 26.1963 23.736 27.639 25.1787C28.624 26.1637 28.9847 27.6342 29.1095 28.8688L27.0009 26.7602C26.5986 26.3579 25.9327 26.3579 25.5304 26.7602C25.1281 27.1625 25.1281 27.8284 25.5304 28.2307L27.639 30.3393C26.3905 30.2145 24.92 29.8538 23.9351 28.8688C22.5062 27.4261 22.3813 24.9429 22.423 23.6527ZM23.6437 40.4524C24.7813 39.4397 26.5709 38.3716 29.1789 38.1496V40.0501C27.5558 39.9392 25.3778 40.1889 23.6437 40.4524ZM31.2598 3.50976C31.2598 2.71903 31.8979 2.08089 32.6887 2.08089C33.4794 2.08089 34.1175 2.71903 34.1175 3.50976V9.25301V9.26688V23.3059V23.3198V42.4778C33.091 42.7969 32.1476 43.1715 31.2598 43.6015V3.50976ZM30.5939 46.2789C30.6355 46.2651 30.6633 46.2373 30.7049 46.2234C32.7997 44.9888 35.4216 44.0038 38.5984 43.7125C38.0712 44.8778 37.9464 46.1125 38.5013 47.361C38.6955 47.791 38.9175 48.1517 39.1672 48.4847C35.5603 48.4847 30.4968 48.776 25.9882 50.1355C27.0841 48.887 28.6101 47.472 30.5939 46.2789Z" fill="url(#paint0_linear_1040_193684)"/>
<path id="Vector_2" d="M43.5092 46.5841C44.078 46.5841 44.5496 46.1124 44.5496 45.5436C44.5496 44.9748 44.078 44.5032 43.5092 44.5032C42.9404 44.5032 42.4688 44.9748 42.4688 45.5436C42.4688 46.1124 42.9404 46.5841 43.5092 46.5841Z" fill="url(#paint1_linear_1040_193684)"/>
<path id="Vector_3" d="M7.75996 75.7164C6.02589 75.7164 4.62476 77.1176 4.62476 78.8516C4.62476 80.5718 6.02589 81.9591 7.75996 81.9591C9.48016 81.9591 10.8674 80.558 10.8674 78.8516C10.8674 77.1314 9.46629 75.7164 7.75996 75.7164ZM7.75996 79.8782C7.17731 79.8782 6.70564 79.4204 6.70564 78.8516C6.70564 78.269 7.16344 77.7973 7.75996 77.7973C8.32874 77.7973 8.78653 78.269 8.78653 78.8516C8.78653 79.4204 8.32874 79.8782 7.75996 79.8782Z" fill="url(#paint2_linear_1040_193684)"/>
<path id="Vector_4" d="M4.43034 86.1765C5.00496 86.1765 5.47078 85.7106 5.47078 85.136C5.47078 84.5614 5.00496 84.0956 4.43034 84.0956C3.85572 84.0956 3.38989 84.5614 3.38989 85.136C3.38989 85.7106 3.85572 86.1765 4.43034 86.1765Z" fill="url(#paint3_linear_1040_193684)"/>
<path id="Vector_5" d="M9.18815 85.6493C8.61937 85.6493 8.14771 86.121 8.14771 86.6897C8.14771 87.2585 8.61937 87.7302 9.18815 87.7302C9.75692 87.7302 10.2425 87.2585 10.2425 86.6897C10.2425 86.121 9.7708 85.6493 9.18815 85.6493Z" fill="url(#paint4_linear_1040_193684)"/>
<path id="Vector_6" d="M12.2408 81.2516C11.6721 81.2516 11.1865 81.7233 11.1865 82.292C11.1865 82.8608 11.6582 83.3325 12.2408 83.3325C12.8235 83.3325 13.2813 82.8608 13.2813 82.292C13.2813 81.7233 12.8096 81.2516 12.2408 81.2516Z" fill="url(#paint5_linear_1040_193684)"/>
<path id="Vector_7" d="M15.6951 76.7569C15.6951 76.1881 15.2235 75.7164 14.6547 75.7164C14.0859 75.7164 13.6143 76.1881 13.6143 76.7569C13.6143 77.3256 14.0859 77.8112 14.6547 77.8112C15.2235 77.8112 15.6951 77.3256 15.6951 76.7569Z" fill="url(#paint6_linear_1040_193684)"/>
<path id="Vector_8" d="M20.1202 78.8378C20.1202 78.269 19.6485 77.7834 19.0798 77.7834C18.511 77.7834 18.0393 78.2551 18.0393 78.8378C18.0393 79.4204 18.511 79.8782 19.0798 79.8782C19.6485 79.8782 20.1202 79.4204 20.1202 78.8378Z" fill="url(#paint7_linear_1040_193684)"/>
<path id="Vector_9" d="M23.1166 77.2702C23.6853 77.2702 24.157 76.7985 24.157 76.2297C24.157 75.661 23.6853 75.1754 23.1166 75.1754C22.5478 75.1754 22.0623 75.6471 22.0623 76.2297C22.0623 76.8124 22.5478 77.2702 23.1166 77.2702Z" fill="url(#paint8_linear_1040_193684)"/>
<path id="Vector_10" d="M23.1305 80.8911C22.5618 80.8911 22.0901 81.3628 22.0901 81.9454C22.0901 82.5281 22.5618 82.9859 23.1305 82.9859C23.6993 82.9859 24.171 82.5142 24.171 81.9454C24.171 81.3767 23.6993 80.8911 23.1305 80.8911Z" fill="url(#paint9_linear_1040_193684)"/>
<path id="Vector_11" d="M26.8483 84.7892C26.2795 84.7892 25.7939 85.2609 25.7939 85.8296C25.7939 86.3984 26.2656 86.8839 26.8483 86.8839C27.4309 86.8839 27.8887 86.4123 27.8887 85.8296C27.8887 85.247 27.417 84.7892 26.8483 84.7892Z" fill="url(#paint10_linear_1040_193684)"/>
<path id="Vector_12" d="M33.5624 84.2759C32.9936 84.2759 32.5081 84.7475 32.5081 85.3163C32.5081 85.8851 32.9797 86.3568 33.5624 86.3568C34.145 86.3568 34.6028 85.8851 34.6028 85.3163C34.6028 84.7475 34.1311 84.2759 33.5624 84.2759Z" fill="url(#paint11_linear_1040_193684)"/>
<path id="Vector_13" d="M35.935 79.1708C35.3662 79.1708 34.8945 79.6424 34.8945 80.2112C34.8945 80.78 35.3662 81.2517 35.935 81.2517C36.5038 81.2517 36.9893 80.78 36.9893 80.2112C36.9893 79.6424 36.5176 79.1708 35.935 79.1708Z" fill="url(#paint12_linear_1040_193684)"/>
<path id="Vector_14" d="M38.9594 87.6331C39.534 87.6331 39.9998 87.1673 39.9998 86.5927C39.9998 86.0181 39.534 85.5522 38.9594 85.5522C38.3848 85.5522 37.9189 86.0181 37.9189 86.5927C37.9189 87.1673 38.3848 87.6331 38.9594 87.6331Z" fill="url(#paint13_linear_1040_193684)"/>
<path id="Vector_15" d="M40.2912 83.3325C40.8658 83.3325 41.3316 82.8667 41.3316 82.292C41.3316 81.7174 40.8658 81.2516 40.2912 81.2516C39.7166 81.2516 39.2507 81.7174 39.2507 82.292C39.2507 82.8667 39.7166 83.3325 40.2912 83.3325Z" fill="url(#paint14_linear_1040_193684)"/>
<path id="Vector_16" d="M52.4018 81.7512C52.9764 81.7512 53.4422 81.2854 53.4422 80.7107C53.4422 80.1361 52.9764 79.6703 52.4018 79.6703C51.8272 79.6703 51.3613 80.1361 51.3613 80.7107C51.3613 81.2854 51.8272 81.7512 52.4018 81.7512Z" fill="url(#paint15_linear_1040_193684)"/>
<path id="Vector_17" d="M55.1625 85.5383C54.5937 85.5383 54.1082 86.01 54.1082 86.5926C54.1082 87.1753 54.5798 87.6331 55.1625 87.6331C55.7451 87.6331 56.2029 87.1614 56.2029 86.5926C56.2029 86.0239 55.7312 85.5383 55.1625 85.5383Z" fill="url(#paint16_linear_1040_193684)"/>
<path id="Vector_18" d="M56.4526 77.0898C55.8838 77.0898 55.4121 77.5615 55.4121 78.1303C55.4121 78.6991 55.8838 79.1707 56.4526 79.1707C57.0213 79.1707 57.5069 78.6991 57.5069 78.1303C57.5069 77.5615 57.0213 77.0898 56.4526 77.0898Z" fill="url(#paint17_linear_1040_193684)"/>
<path id="Vector_19" d="M59.4354 83.2771C58.8666 83.2771 58.3811 83.7488 58.3811 84.3175C58.3811 84.8863 58.8528 85.3719 59.4354 85.3719C60.0181 85.3719 60.4759 84.9002 60.4759 84.3175C60.4759 83.7349 60.0181 83.2771 59.4354 83.2771Z" fill="url(#paint18_linear_1040_193684)"/>
<path id="Vector_20" d="M65.9277 85.5106C65.3589 85.5106 64.8872 85.9823 64.8872 86.5649C64.8872 87.1476 65.3589 87.6054 65.9277 87.6054C66.4964 87.6054 66.9681 87.1337 66.9681 86.5649C66.9681 85.9962 66.5103 85.5106 65.9277 85.5106Z" fill="url(#paint19_linear_1040_193684)"/>
<path id="Vector_21" d="M70.894 81.3627C70.3252 81.3627 69.8535 81.8343 69.8535 82.4031C69.8535 82.9719 70.3252 83.4574 70.894 83.4574C71.4627 83.4574 71.9344 82.9858 71.9344 82.4031C71.9344 81.8205 71.4627 81.3627 70.894 81.3627Z" fill="url(#paint20_linear_1040_193684)"/>
<path id="Vector_22" d="M76.0688 78.8378C76.6434 78.8378 77.1092 78.372 77.1092 77.7974C77.1092 77.2228 76.6434 76.757 76.0688 76.757C75.4941 76.757 75.0283 77.2228 75.0283 77.7974C75.0283 78.372 75.4941 78.8378 76.0688 78.8378Z" fill="url(#paint21_linear_1040_193684)"/>
<path id="Vector_23" d="M81.7699 77.617C82.3387 77.617 82.8242 77.1453 82.8242 76.5627C82.8242 75.98 82.3526 75.5222 81.7699 75.5222C81.1873 75.5222 80.7295 75.9939 80.7295 76.5627C80.7295 77.1314 81.1873 77.617 81.7699 77.617Z" fill="url(#paint22_linear_1040_193684)"/>
<path id="Vector_24" d="M86.3896 81.1685C86.9642 81.1685 87.43 80.7027 87.43 80.1281C87.43 79.5535 86.9642 79.0876 86.3896 79.0876C85.8149 79.0876 85.3491 79.5535 85.3491 80.1281C85.3491 80.7027 85.8149 81.1685 86.3896 81.1685Z" fill="url(#paint23_linear_1040_193684)"/>
<path id="Vector_25" d="M73.7931 84.7197C73.2243 84.7197 72.7388 85.1914 72.7388 85.7602C72.7388 86.3289 73.2104 86.8145 73.7931 86.8145C74.3757 86.8145 74.8335 86.3428 74.8335 85.7602C74.8335 85.1775 74.3757 84.7197 73.7931 84.7197Z" fill="url(#paint24_linear_1040_193684)"/>
<path id="Vector_26" d="M71.1158 76.757C71.1158 76.1882 70.6441 75.7026 70.0753 75.7026C69.5065 75.7026 69.021 76.1743 69.021 76.757C69.021 77.3396 69.4927 77.7974 70.0753 77.7974C70.658 77.7974 71.1158 77.3396 71.1158 76.757Z" fill="url(#paint25_linear_1040_193684)"/>
<path id="Vector_27" d="M17.7755 81.8483C15.8611 81.8483 14.2935 83.4159 14.2935 85.3303C14.2935 87.2308 15.8611 88.7846 17.7755 88.7846C19.676 88.7846 21.2297 87.2308 21.2297 85.3303C21.2297 83.4159 19.676 81.8483 17.7755 81.8483ZM17.7755 86.7037C16.9986 86.7037 16.3743 86.0933 16.3743 85.3303C16.3743 84.5396 16.9847 83.9292 17.7755 83.9292C18.5385 83.9292 19.1489 84.5534 19.1489 85.3303C19.1489 86.0933 18.5385 86.7037 17.7755 86.7037Z" fill="url(#paint26_linear_1040_193684)"/>
<path id="Vector_28" d="M66.968 79.1984C66.968 77.284 65.4143 75.7164 63.5138 75.7164C61.5993 75.7164 60.0317 77.284 60.0317 79.1984C60.0317 81.099 61.5993 82.6527 63.5138 82.6527C65.4143 82.6527 66.968 81.1129 66.968 79.1984ZM63.5138 80.5718C62.7369 80.5718 62.1126 79.9614 62.1126 79.1984C62.1126 78.4077 62.723 77.7973 63.5138 77.7973C64.2768 77.7973 64.8871 78.4216 64.8871 79.1984C64.8871 79.9614 64.2768 80.5718 63.5138 80.5718Z" fill="url(#paint27_linear_1040_193684)"/>
<path id="Vector_29" d="M29.2346 77.0898C27.5005 77.0898 26.0994 78.491 26.0994 80.225C26.0994 81.9453 27.5005 83.3325 29.2346 83.3325C30.9548 83.3325 32.342 81.9314 32.342 80.225C32.342 78.491 30.9409 77.0898 29.2346 77.0898ZM29.2346 81.2516C28.6519 81.2516 28.1803 80.7938 28.1803 80.225C28.1803 79.6424 28.638 79.1707 29.2346 79.1707C29.8033 79.1707 30.2611 79.6424 30.2611 80.225C30.2611 80.7938 29.8033 81.2516 29.2346 81.2516Z" fill="url(#paint28_linear_1040_193684)"/>
<path id="Vector_30" d="M80.9094 80.2667C79.0921 80.2667 77.6216 81.7372 77.6216 83.5545C77.6216 85.358 79.0921 86.8146 80.9094 86.8146C82.7128 86.8146 84.1694 85.3441 84.1694 83.5545C84.1694 81.7511 82.7128 80.2667 80.9094 80.2667ZM80.9094 84.7337C80.2435 84.7337 79.7025 84.2065 79.7025 83.5545C79.7025 82.8748 80.2296 82.3476 80.9094 82.3476C81.5614 82.3476 82.0886 82.8886 82.0886 83.5545C82.0886 84.2065 81.5614 84.7337 80.9094 84.7337Z" fill="url(#paint29_linear_1040_193684)"/>
<path id="Vector_31" d="M47.3103 81.8483C45.5762 81.8483 44.175 83.2494 44.175 84.9835C44.175 86.7037 45.5762 88.0909 47.3103 88.0909C49.0305 88.0909 50.4177 86.6898 50.4177 84.9835C50.4177 83.2494 49.0166 81.8483 47.3103 81.8483ZM47.3103 86.01C46.7276 86.01 46.2559 85.5522 46.2559 84.9835C46.2559 84.4008 46.7137 83.9292 47.3103 83.9292C47.879 83.9292 48.3368 84.4008 48.3368 84.9835C48.3368 85.5522 47.879 86.01 47.3103 86.01Z" fill="url(#paint30_linear_1040_193684)"/>
<path id="Vector_32" d="M41.0126 75.8137C40.4438 75.8137 39.9722 76.2854 39.9722 76.8542C39.9722 77.4229 40.4438 77.9085 41.0126 77.9085C41.5814 77.9085 42.0531 77.4368 42.0531 76.8542C42.0531 76.2715 41.5953 75.8137 41.0126 75.8137Z" fill="url(#paint31_linear_1040_193684)"/>
<path id="Vector_33" d="M34.381 76.8541C34.9498 76.8541 35.4353 76.3824 35.4353 75.8136C35.4353 75.2449 34.9637 74.7732 34.381 74.7732C33.7984 74.7732 33.3406 75.2449 33.3406 75.8136C33.3406 76.3824 33.8122 76.8541 34.381 76.8541Z" fill="url(#paint32_linear_1040_193684)"/>
<path id="Vector_34" d="M46.006 80.225C46.5748 80.225 47.0465 79.7533 47.0465 79.1707C47.0465 78.588 46.5748 78.1302 46.006 78.1302C45.4372 78.1302 44.9656 78.6019 44.9656 79.1707C44.9656 79.7395 45.4234 80.225 46.006 80.225Z" fill="url(#paint33_linear_1040_193684)"/>
<path id="Vector_35" d="M50.1679 75.0089C49.5991 75.0089 49.1274 75.4806 49.1274 76.0494C49.1274 76.6181 49.5991 77.1037 50.1679 77.1037C50.7367 77.1037 51.2083 76.632 51.2083 76.0494C51.2083 75.4667 50.7367 75.0089 50.1679 75.0089Z" fill="url(#paint34_linear_1040_193684)"/>
</g>
<defs>
<linearGradient id="paint0_linear_1040_193684" x1="45.5" y1="0" x2="45.5" y2="72.8588" gradientUnits="userSpaceOnUse">
<stop stop-color="#B1D5A5"/>
<stop offset="1" stop-color="#8DBFB9"/>
</linearGradient>
<linearGradient id="paint1_linear_1040_193684" x1="43.5092" y1="44.5032" x2="43.5092" y2="46.5841" gradientUnits="userSpaceOnUse">
<stop stop-color="#B1D5A5"/>
<stop offset="1" stop-color="#8DBFB9"/>
</linearGradient>
<linearGradient id="paint2_linear_1040_193684" x1="7.74609" y1="75.7164" x2="7.74609" y2="81.9591" gradientUnits="userSpaceOnUse">
<stop stop-color="#B1D5A5"/>
<stop offset="1" stop-color="#8DBFB9"/>
</linearGradient>
<linearGradient id="paint3_linear_1040_193684" x1="4.43034" y1="84.0956" x2="4.43034" y2="86.1765" gradientUnits="userSpaceOnUse">
<stop stop-color="#B1D5A5"/>
<stop offset="1" stop-color="#8DBFB9"/>
</linearGradient>
<linearGradient id="paint4_linear_1040_193684" x1="9.19509" y1="85.6493" x2="9.19509" y2="87.7302" gradientUnits="userSpaceOnUse">
<stop stop-color="#B1D5A5"/>
<stop offset="1" stop-color="#8DBFB9"/>
</linearGradient>
<linearGradient id="paint5_linear_1040_193684" x1="12.2339" y1="81.2516" x2="12.2339" y2="83.3325" gradientUnits="userSpaceOnUse">
<stop stop-color="#B1D5A5"/>
<stop offset="1" stop-color="#8DBFB9"/>
</linearGradient>
<linearGradient id="paint6_linear_1040_193684" x1="14.6547" y1="75.7164" x2="14.6547" y2="77.8112" gradientUnits="userSpaceOnUse">
<stop stop-color="#B1D5A5"/>
<stop offset="1" stop-color="#8DBFB9"/>
</linearGradient>
<linearGradient id="paint7_linear_1040_193684" x1="19.0798" y1="77.7834" x2="19.0798" y2="79.8782" gradientUnits="userSpaceOnUse">
<stop stop-color="#B1D5A5"/>
<stop offset="1" stop-color="#8DBFB9"/>
</linearGradient>
<linearGradient id="paint8_linear_1040_193684" x1="23.1096" y1="75.1754" x2="23.1096" y2="77.2702" gradientUnits="userSpaceOnUse">
<stop stop-color="#B1D5A5"/>
<stop offset="1" stop-color="#8DBFB9"/>
</linearGradient>
<linearGradient id="paint9_linear_1040_193684" x1="23.1305" y1="80.8911" x2="23.1305" y2="82.9859" gradientUnits="userSpaceOnUse">
<stop stop-color="#B1D5A5"/>
<stop offset="1" stop-color="#8DBFB9"/>
</linearGradient>
<linearGradient id="paint10_linear_1040_193684" x1="26.8413" y1="84.7892" x2="26.8413" y2="86.8839" gradientUnits="userSpaceOnUse">
<stop stop-color="#B1D5A5"/>
<stop offset="1" stop-color="#8DBFB9"/>
</linearGradient>
<linearGradient id="paint11_linear_1040_193684" x1="33.5554" y1="84.2759" x2="33.5554" y2="86.3568" gradientUnits="userSpaceOnUse">
<stop stop-color="#B1D5A5"/>
<stop offset="1" stop-color="#8DBFB9"/>
</linearGradient>
<linearGradient id="paint12_linear_1040_193684" x1="35.9419" y1="79.1708" x2="35.9419" y2="81.2517" gradientUnits="userSpaceOnUse">
<stop stop-color="#B1D5A5"/>
<stop offset="1" stop-color="#8DBFB9"/>
</linearGradient>
<linearGradient id="paint13_linear_1040_193684" x1="38.9594" y1="85.5522" x2="38.9594" y2="87.6331" gradientUnits="userSpaceOnUse">
<stop stop-color="#B1D5A5"/>
<stop offset="1" stop-color="#8DBFB9"/>
</linearGradient>
<linearGradient id="paint14_linear_1040_193684" x1="40.2912" y1="81.2516" x2="40.2912" y2="83.3325" gradientUnits="userSpaceOnUse">
<stop stop-color="#B1D5A5"/>
<stop offset="1" stop-color="#8DBFB9"/>
</linearGradient>
<linearGradient id="paint15_linear_1040_193684" x1="52.4018" y1="79.6703" x2="52.4018" y2="81.7512" gradientUnits="userSpaceOnUse">
<stop stop-color="#B1D5A5"/>
<stop offset="1" stop-color="#8DBFB9"/>
</linearGradient>
<linearGradient id="paint16_linear_1040_193684" x1="55.1555" y1="85.5383" x2="55.1555" y2="87.6331" gradientUnits="userSpaceOnUse">
<stop stop-color="#B1D5A5"/>
<stop offset="1" stop-color="#8DBFB9"/>
</linearGradient>
<linearGradient id="paint17_linear_1040_193684" x1="56.4595" y1="77.0898" x2="56.4595" y2="79.1707" gradientUnits="userSpaceOnUse">
<stop stop-color="#B1D5A5"/>
<stop offset="1" stop-color="#8DBFB9"/>
</linearGradient>
<linearGradient id="paint18_linear_1040_193684" x1="59.4285" y1="83.2771" x2="59.4285" y2="85.3719" gradientUnits="userSpaceOnUse">
<stop stop-color="#B1D5A5"/>
<stop offset="1" stop-color="#8DBFB9"/>
</linearGradient>
<linearGradient id="paint19_linear_1040_193684" x1="65.9277" y1="85.5106" x2="65.9277" y2="87.6054" gradientUnits="userSpaceOnUse">
<stop stop-color="#B1D5A5"/>
<stop offset="1" stop-color="#8DBFB9"/>
</linearGradient>
<linearGradient id="paint20_linear_1040_193684" x1="70.894" y1="81.3627" x2="70.894" y2="83.4574" gradientUnits="userSpaceOnUse">
<stop stop-color="#B1D5A5"/>
<stop offset="1" stop-color="#8DBFB9"/>
</linearGradient>
<linearGradient id="paint21_linear_1040_193684" x1="76.0688" y1="76.757" x2="76.0688" y2="78.8378" gradientUnits="userSpaceOnUse">
<stop stop-color="#B1D5A5"/>
<stop offset="1" stop-color="#8DBFB9"/>
</linearGradient>
<linearGradient id="paint22_linear_1040_193684" x1="81.7769" y1="75.5222" x2="81.7769" y2="77.617" gradientUnits="userSpaceOnUse">
<stop stop-color="#B1D5A5"/>
<stop offset="1" stop-color="#8DBFB9"/>
</linearGradient>
<linearGradient id="paint23_linear_1040_193684" x1="86.3896" y1="79.0876" x2="86.3896" y2="81.1685" gradientUnits="userSpaceOnUse">
<stop stop-color="#B1D5A5"/>
<stop offset="1" stop-color="#8DBFB9"/>
</linearGradient>
<linearGradient id="paint24_linear_1040_193684" x1="73.7862" y1="84.7197" x2="73.7862" y2="86.8145" gradientUnits="userSpaceOnUse">
<stop stop-color="#B1D5A5"/>
<stop offset="1" stop-color="#8DBFB9"/>
</linearGradient>
<linearGradient id="paint25_linear_1040_193684" x1="70.0684" y1="75.7026" x2="70.0684" y2="77.7974" gradientUnits="userSpaceOnUse">
<stop stop-color="#B1D5A5"/>
<stop offset="1" stop-color="#8DBFB9"/>
</linearGradient>
<linearGradient id="paint26_linear_1040_193684" x1="17.7616" y1="81.8483" x2="17.7616" y2="88.7846" gradientUnits="userSpaceOnUse">
<stop stop-color="#B1D5A5"/>
<stop offset="1" stop-color="#8DBFB9"/>
</linearGradient>
<linearGradient id="paint27_linear_1040_193684" x1="63.4999" y1="75.7164" x2="63.4999" y2="82.6527" gradientUnits="userSpaceOnUse">
<stop stop-color="#B1D5A5"/>
<stop offset="1" stop-color="#8DBFB9"/>
</linearGradient>
<linearGradient id="paint28_linear_1040_193684" x1="29.2207" y1="77.0898" x2="29.2207" y2="83.3325" gradientUnits="userSpaceOnUse">
<stop stop-color="#B1D5A5"/>
<stop offset="1" stop-color="#8DBFB9"/>
</linearGradient>
<linearGradient id="paint29_linear_1040_193684" x1="80.8955" y1="80.2667" x2="80.8955" y2="86.8146" gradientUnits="userSpaceOnUse">
<stop stop-color="#B1D5A5"/>
<stop offset="1" stop-color="#8DBFB9"/>
</linearGradient>
<linearGradient id="paint30_linear_1040_193684" x1="47.2964" y1="81.8483" x2="47.2964" y2="88.0909" gradientUnits="userSpaceOnUse">
<stop stop-color="#B1D5A5"/>
<stop offset="1" stop-color="#8DBFB9"/>
</linearGradient>
<linearGradient id="paint31_linear_1040_193684" x1="41.0126" y1="75.8137" x2="41.0126" y2="77.9085" gradientUnits="userSpaceOnUse">
<stop stop-color="#B1D5A5"/>
<stop offset="1" stop-color="#8DBFB9"/>
</linearGradient>
<linearGradient id="paint32_linear_1040_193684" x1="34.388" y1="74.7732" x2="34.388" y2="76.8541" gradientUnits="userSpaceOnUse">
<stop stop-color="#B1D5A5"/>
<stop offset="1" stop-color="#8DBFB9"/>
</linearGradient>
<linearGradient id="paint33_linear_1040_193684" x1="46.006" y1="78.1302" x2="46.006" y2="80.225" gradientUnits="userSpaceOnUse">
<stop stop-color="#B1D5A5"/>
<stop offset="1" stop-color="#8DBFB9"/>
</linearGradient>
<linearGradient id="paint34_linear_1040_193684" x1="50.1679" y1="75.0089" x2="50.1679" y2="77.1037" gradientUnits="userSpaceOnUse">
<stop stop-color="#B1D5A5"/>
<stop offset="1" stop-color="#8DBFB9"/>
</linearGradient>
</defs>
</svg>
