<?xml version="1.0" encoding="utf-8"?>
<!-- Generator: Adobe Illustrator 28.2.0, SVG Export Plug-In . SVG Version: 6.00 Build 0)  -->
<svg version="1.1" id="Layer_1" xmlns="http://www.w3.org/2000/svg" xmlns:xlink="http://www.w3.org/1999/xlink" x="0px" y="0px"
	 viewBox="0 0 174.81 88.12" style="enable-background:new 0 0 174.81 88.12;" xml:space="preserve">
<style type="text/css">
	.st0{clip-path:url(#SVGID_00000003800658732394362490000017008213856402445440_);}
	.st1{fill-rule:evenodd;clip-rule:evenodd;fill:url(#SVGID_00000003789231196534801840000015015713624947251607_);}
	.st2{fill:#96C2AD;}
	.st3{clip-path:url(#SVGID_00000124859890785414919600000011803661778310862503_);}
	.st4{fill-rule:evenodd;clip-rule:evenodd;fill:url(#SVGID_00000094581389984502710270000018345156123376571026_);}
</style>
<g>
	<defs>
		<rect id="SVGID_1_" width="68.54" height="88.12"/>
	</defs>
	<clipPath id="SVGID_00000093864890579264200670000016802495505626874259_">
		<use xlink:href="#SVGID_1_"  style="overflow:visible;"/>
	</clipPath>
	<g style="clip-path:url(#SVGID_00000093864890579264200670000016802495505626874259_);">
		
			<linearGradient id="SVGID_00000150084473285490505260000004689324672036916150_" gradientUnits="userSpaceOnUse" x1="34.269" y1="90.4637" x2="34.269" y2="2.3448" gradientTransform="matrix(1 0 0 -1 0 90.4637)">
			<stop  offset="0" style="stop-color:#B0D4A6"/>
			<stop  offset="1" style="stop-color:#8EC0B9"/>
		</linearGradient>
		<path style="fill-rule:evenodd;clip-rule:evenodd;fill:url(#SVGID_00000150084473285490505260000004689324672036916150_);" d="
			M0,80.29c0,4.33,3.51,7.83,7.84,7.83H60.7c4.33,0,7.84-3.5,7.84-7.83V25.45c0-2.12-1.04-4.61-2.55-6.11L49.01,2.51
			C47.51,1.03,45.02,0,42.91,0H7.84C3.52,0,0,3.5,0,7.83V80.29z M7.84,3.92c-2.16,0-3.92,1.76-3.92,3.91v72.46
			c0,2.16,1.76,3.91,3.92,3.91H60.7c2.16,0,3.92-1.75,3.92-3.91V25.46H47.96c-3.24,0-5.86-2.62-5.86-5.86V3.92H7.84z M63.1,21.55
			H47.96c-1.08,0-1.95-0.87-1.95-1.95V4.71L63.1,21.55L63.1,21.55z M11.65,14.34l18.04,0.11c1.05,0,1.91-0.85,1.91-1.93
			c0-1.07-0.84-1.94-1.89-1.95l-18.04-0.11c-1.05,0-1.91,0.85-1.91,1.93C9.76,13.46,10.6,14.33,11.65,14.34z M11.65,22.88
			l18.04,0.11c1.05,0,1.91-0.85,1.91-1.93c0-1.07-0.84-1.94-1.89-1.95l-18.04-0.11c-1.05,0-1.91,0.85-1.91,1.93
			C9.76,22.01,10.6,22.87,11.65,22.88z M44.82,27.86L11.6,27.67c-1.05,0-1.91,0.85-1.91,1.93c-0.01,1.07,0.84,1.94,1.89,1.95
			l33.23,0.19c1.05,0,1.91-0.85,1.91-1.93C46.71,28.73,45.87,27.86,44.82,27.86z M52.97,37.74H35.02c-1.05,0-1.56,0.82-1.56,1.64
			c-0.74,4.17-1.49,8.41-2.23,12.58c-1.19,6.55-2.31,13.18-3.5,19.73c-1.19-2.6-2.46-5.21-3.58-7.89c-0.3-0.6-0.52-1.19-0.82-1.79
			c-0.3-0.52-0.89-0.82-1.49-0.82h-7.52c-0.82,0-1.71,0.74-1.64,1.64c0.07,0.89,0.74,1.64,1.64,1.64h6.55
			c1.79,3.87,3.58,7.74,5.36,11.61c0.3,0.6,0.52,1.19,0.82,1.79c0.22,0.3,0.45,0.6,0.82,0.74c0.07,0,0.07,0.07,0.15,0.07
			c0.22,0.07,0.37,0.07,0.67,0c0.22,0,0.45-0.07,0.6-0.22c0.07,0,0.07-0.07,0.15-0.07c0.3-0.22,0.6-0.52,0.67-0.89
			c0.74-4.17,1.49-8.41,2.23-12.65l3.58-20.1l0.67-3.8h16.45c2.01,0.07,2.01-3.2-0.07-3.2L52.97,37.74z M50.66,54.41
			c0.52-0.6,0.6-1.49,0-2.08c-0.52-0.52-1.56-0.6-2.08,0c-1.34,1.64-2.68,3.27-4.1,4.84c-0.97-1.12-1.86-2.23-2.83-3.35
			c-0.45-0.52-0.82-0.97-1.27-1.49c-0.52-0.6-1.56-0.52-2.08,0c-0.6,0.6-0.52,1.49,0,2.08c1.41,1.71,2.83,3.35,4.25,5.06
			c-0.97,1.12-1.93,2.31-2.91,3.42c-0.45,0.52-0.82,0.97-1.27,1.49c-0.52,0.6-0.6,1.49,0,2.08c0.52,0.52,1.56,0.6,2.08,0
			c1.34-1.56,2.6-3.13,3.94-4.69c0.89,1.05,1.79,2.16,2.68,3.2c0.45,0.52,0.82,0.97,1.27,1.49c0.52,0.6,1.56,0.52,2.08,0
			c0.6-0.6,0.52-1.49,0-2.08c-1.34-1.64-2.75-3.27-4.1-4.92c0.97-1.19,2.01-2.38,2.98-3.58C49.84,55.38,50.21,54.85,50.66,54.41
			L50.66,54.41z"/>
	</g>
</g>
<path class="st2" d="M94.83,44.02c0,0.24-0.05,0.49-0.14,0.71c-0.09,0.23-0.23,0.43-0.41,0.6L81.86,57.76
	c-0.36,0.25-0.8,0.36-1.24,0.32c-0.44-0.04-0.84-0.24-1.15-0.56s-0.49-0.73-0.52-1.17c-0.03-0.44,0.09-0.87,0.35-1.23l11.03-11.11
	L79.3,32.91c-0.23-0.35-0.33-0.77-0.29-1.18c0.04-0.42,0.21-0.81,0.5-1.11s0.67-0.5,1.08-0.56c0.41-0.06,0.83,0.02,1.2,0.22
	L94.21,42.7c0.19,0.17,0.34,0.37,0.45,0.59C94.76,43.52,94.82,43.77,94.83,44.02z"/>
<g>
	<defs>
		<rect id="SVGID_00000175299713076770115490000006365636741871845002_" x="105.24" width="69.57" height="88.12"/>
	</defs>
	<clipPath id="SVGID_00000183970559256773744450000003847387376432982671_">
		<use xlink:href="#SVGID_00000175299713076770115490000006365636741871845002_"  style="overflow:visible;"/>
	</clipPath>
	<g style="clip-path:url(#SVGID_00000183970559256773744450000003847387376432982671_);">
		
			<linearGradient id="SVGID_00000040550591708977333330000006549286653328711044_" gradientUnits="userSpaceOnUse" x1="140.0255" y1="90.4637" x2="140.0255" y2="2.3448" gradientTransform="matrix(1 0 0 -1 0 90.4637)">
			<stop  offset="0" style="stop-color:#B0D4A6"/>
			<stop  offset="1" style="stop-color:#8FC0B9"/>
		</linearGradient>
		<path style="fill-rule:evenodd;clip-rule:evenodd;fill:url(#SVGID_00000040550591708977333330000006549286653328711044_);" d="
			M105.24,80.29c0,4.33,3.56,7.83,7.95,7.83h53.66c4.39,0,7.95-3.5,7.95-7.83V25.45c0-2.12-1.05-4.61-2.59-6.11L154.99,2.51
			C153.47,1.03,150.94,0,148.8,0h-35.6c-4.38,0-7.95,3.5-7.95,7.83V80.29z M113.19,3.92c-2.19,0-3.98,1.76-3.98,3.91v72.46
			c0,2.16,1.78,3.91,3.98,3.91h53.66c2.19,0,3.98-1.75,3.98-3.91V25.46h-16.91c-3.29,0-5.95-2.62-5.95-5.86V3.92H113.19z
			 M169.29,21.55h-15.36c-1.1,0-1.98-0.87-1.98-1.95V4.71L169.29,21.55L169.29,21.55z M149.45,28.85c-4.76,0.05-8.59,3.91-8.54,8.6
			c0.01,0.86,0.15,1.68,0.4,2.46l-7.33,4.71c-1.59-1.62-3.82-2.62-6.28-2.59c-4.76,0.05-8.59,3.91-8.54,8.6
			c0.05,4.69,3.97,8.47,8.73,8.41c0.4,0,0.8-0.03,1.19-0.09c1.71-0.25,3.24-1,4.47-2.08l7.67,5.28c-0.01,0.16-0.02,0.32-0.02,0.47
			c0.05,4.69,3.97,8.47,8.73,8.41c0.4,0,0.8-0.03,1.19-0.09c4.2-0.62,7.4-4.21,7.35-8.51c-0.05-4.69-3.97-8.47-8.73-8.41
			c-3.17,0.03-5.92,1.76-7.39,4.3l-6.57-4.53c0.43-1.03,0.67-2.16,0.66-3.34c-0.01-0.91-0.17-1.78-0.45-2.6l7.28-4.67
			c1.6,1.68,3.87,2.72,6.38,2.69c0.4,0,0.8-0.03,1.19-0.09c4.2-0.62,7.4-4.21,7.35-8.51c-0.05-4.69-3.97-8.47-8.73-8.41V28.85z
			 M145.02,62.57c-0.03-2.39,1.75-4.39,4.09-4.73c0.21-0.03,0.43-0.05,0.66-0.05c2.65-0.03,4.83,2.07,4.86,4.68
			c0.03,2.61-2.12,4.75-4.75,4.79C147.23,67.28,145.05,65.18,145.02,62.57z M127.85,55.27c-2.65,0.03-4.83-2.07-4.86-4.68
			c-0.03-2.39,1.76-4.39,4.09-4.73c0.21-0.03,0.43-0.05,0.66-0.05c2.65-0.03,4.83,2.07,4.86,4.68
			C132.62,53.09,130.49,55.24,127.85,55.27z M154.35,37.3c0.03,2.61-2.11,4.75-4.75,4.79c-2.65,0.03-4.83-2.07-4.86-4.68
			c-0.03-2.39,1.76-4.39,4.09-4.73c0.21-0.03,0.43-0.05,0.66-0.05C152.14,32.6,154.32,34.69,154.35,37.3z"/>
	</g>
</g>
</svg>
