<svg width="210" height="83" viewBox="0 0 210 83" fill="none" xmlns="http://www.w3.org/2000/svg">
<path d="M57.3604 67.6693H95.0147C95.6806 67.6693 96.2255 67.1245 96.2255 66.4586V22.2057C96.2255 21.5398 95.6806 20.9949 95.0147 20.9949H88.2345V15.6071C88.2345 14.9412 87.6897 14.3964 87.0238 14.3964H49.43C48.7641 14.3964 48.2192 14.9412 48.2192 15.6071V59.86C48.2192 60.5259 48.7641 61.0708 49.43 61.0708H56.1496V66.4586C56.1496 67.1245 56.6339 67.6693 57.3604 67.6693ZM93.7434 23.4164V65.2478H58.5711V61.0708H87.0843C87.7502 61.0708 88.2951 60.5259 88.2951 59.86V23.4164H93.7434ZM50.6407 16.8179H85.8736V58.6493H50.6407V16.8179Z" fill="url(#paint0_linear_1040_193725)" fill-opacity="0.5"/>
<path d="M54.0309 31.6496H63.5959C64.2618 31.6496 64.8066 31.1047 64.8066 30.4388V20.8739C64.8066 20.208 64.2618 19.6632 63.5959 19.6632H54.0309C53.365 19.6632 52.8202 20.208 52.8202 20.8739V30.4388C52.8202 31.1047 53.365 31.6496 54.0309 31.6496ZM55.2417 22.0847H62.3851V29.2281H55.2417V22.0847Z" fill="url(#paint1_linear_1040_193725)" fill-opacity="0.5"/>
<path d="M54.0309 36.6137H77.8222C78.4881 36.6137 79.0329 36.0688 79.0329 35.4029C79.0329 34.737 78.4881 34.1922 77.8222 34.1922H54.0309C53.365 34.1922 52.8202 34.737 52.8202 35.4029C52.8202 36.0688 53.365 36.6137 54.0309 36.6137Z" fill="url(#paint2_linear_1040_193725)" fill-opacity="0.5"/>
<path d="M54.0309 41.5777H77.8222C78.4881 41.5777 79.0329 41.0328 79.0329 40.3669C79.0329 39.701 78.4881 39.1562 77.8222 39.1562H54.0309C53.365 39.1562 52.8202 39.701 52.8202 40.3669C52.8202 41.0328 53.365 41.5777 54.0309 41.5777Z" fill="url(#paint3_linear_1040_193725)" fill-opacity="0.5"/>
<path d="M54.0309 46.5419H77.8222C78.4881 46.5419 79.0329 45.9971 79.0329 45.3312C79.0329 44.6652 78.4881 44.1204 77.8222 44.1204H54.0309C53.365 44.1204 52.8202 44.6652 52.8202 45.3312C52.8202 45.9971 53.365 46.5419 54.0309 46.5419Z" fill="url(#paint4_linear_1040_193725)" fill-opacity="0.5"/>
<path d="M79.0329 50.2952C79.0329 49.6293 78.4881 49.0844 77.8222 49.0844H54.0309C53.365 49.0844 52.8202 49.6293 52.8202 50.2952C52.8202 50.9611 53.365 51.5059 54.0309 51.5059H77.8222C78.4881 51.5059 79.0329 50.9611 79.0329 50.2952Z" fill="url(#paint5_linear_1040_193725)" fill-opacity="0.5"/>
<path d="M71.8895 21.7819H80.4859C81.1518 21.7819 81.6966 21.2371 81.6966 20.5711C81.6966 19.9052 81.1518 19.3604 80.4859 19.3604H71.8895C71.2236 19.3604 70.6788 19.9052 70.6788 20.5711C70.6788 21.2371 71.1631 21.7819 71.8895 21.7819Z" fill="url(#paint6_linear_1040_193725)" fill-opacity="0.5"/>
<path d="M71.8895 26.0801H80.4859C81.1518 26.0801 81.6966 25.5352 81.6966 24.8693C81.6966 24.2034 81.1518 23.6586 80.4859 23.6586H71.8895C71.2236 23.6586 70.6788 24.2034 70.6788 24.8693C70.6788 25.5352 71.1631 26.0801 71.8895 26.0801Z" fill="url(#paint7_linear_1040_193725)" fill-opacity="0.5"/>
<path d="M74.6135 54.5932C74.6135 55.2591 75.1583 55.8039 75.8242 55.8039H81.7569C82.4228 55.8039 82.9677 55.2591 82.9677 54.5932C82.9677 53.9273 82.4228 53.3824 81.7569 53.3824H75.8242C75.1583 53.3824 74.6135 53.9273 74.6135 54.5932Z" fill="url(#paint8_linear_1040_193725)" fill-opacity="0.5"/>
<path d="M112.541 41.0098C112.542 41.1489 112.515 41.2866 112.461 41.415C112.408 41.5435 112.33 41.6599 112.231 41.7577L105.175 48.8128C104.97 48.9536 104.721 49.0171 104.473 48.9921C104.224 48.9672 103.993 48.8555 103.819 48.6767C103.646 48.4978 103.54 48.2634 103.523 48.0146C103.505 47.7659 103.576 47.5189 103.722 47.3171L109.987 41.0098L103.722 34.7025C103.593 34.5036 103.535 34.2671 103.556 34.0311C103.578 33.795 103.678 33.573 103.84 33.4005C104.003 33.2281 104.219 33.1153 104.453 33.0802C104.688 33.045 104.927 33.0896 105.133 33.2068L112.188 40.262C112.295 40.356 112.381 40.4709 112.442 40.5995C112.503 40.7281 112.536 40.8677 112.541 41.0098Z" fill="#95C2AD"/>
<path d="M134.72 30.0912H138.779V44.2554L134.543 46.202C130.286 48.1575 126.94 51.6971 125.199 56.083C123.459 60.4694 123.459 65.3654 125.199 69.7522C126.94 74.1381 130.286 77.6777 134.543 79.6332L139.572 81.943C139.928 82.1067 140.336 82.1067 140.692 81.943L145.721 79.6332C149.978 77.6777 153.324 74.1381 155.064 69.7522C156.805 65.3654 156.805 60.4694 155.064 56.083C153.324 51.6971 149.978 48.1575 145.721 46.202L141.485 44.2554V43.769H148.25C151.837 43.7644 155.277 42.3223 157.813 39.7584C160.35 37.1944 161.776 33.7175 161.781 30.0911C161.781 29.7284 161.638 29.3804 161.384 29.1239C161.131 28.8674 160.786 28.7233 160.428 28.7233H152.309C148.044 28.7276 144.03 30.7683 141.485 34.2286V13.6777H145.544C148.773 13.6734 151.868 12.3753 154.15 10.0677C156.433 7.76018 157.717 4.6315 157.722 1.36777C157.722 1.00507 157.579 0.657016 157.325 0.400563C157.072 0.144109 156.727 0 156.368 0H150.956C147.963 0.00427456 145.075 1.12231 142.844 3.13978C140.613 5.15781 139.194 7.93496 138.858 10.9422H138.779V20.1062C136.001 16.083 131.455 13.6832 126.601 13.6777H121.189C120.442 13.6777 119.836 14.2901 119.836 15.0455C119.841 19.0347 121.41 22.8582 124.2 25.6792C126.991 28.4996 130.774 30.0862 134.72 30.0912ZM152.31 31.4589H158.991C158.658 34.1016 157.383 36.5312 155.407 38.2936C153.43 40.0557 150.886 41.0297 148.25 41.0333H141.569C141.902 38.3907 143.176 35.961 145.153 34.1987C147.13 32.4365 149.674 31.4625 152.31 31.4589ZM126.601 62.9176C126.604 60.4437 127.191 58.0052 128.312 55.8054C130.704 58.5536 132.02 62.0903 132.014 65.7502V74.7857C128.584 71.816 126.608 67.482 126.601 62.9176ZM134.72 76.6661V65.7502C134.728 61.1482 132.967 56.7222 129.808 53.4074C130.635 52.3168 131.6 51.341 132.678 50.5053C136.601 54.5883 138.79 60.0589 138.779 65.7502V78.5743L135.667 77.1424C135.341 76.9947 135.028 76.8348 134.72 76.6661ZM148.25 74.7857V65.7502C148.244 62.0903 149.561 58.554 151.952 55.8067C153.544 58.9287 154.044 62.5025 153.372 65.948C152.7 69.394 150.895 72.5079 148.25 74.7857ZM150.456 53.4078C147.297 56.7226 145.537 61.1486 145.544 65.7506V76.6665C145.236 76.8348 144.923 76.9951 144.597 77.1428L141.485 78.5747V65.7506C141.474 60.0597 143.663 54.5891 147.586 50.5065C148.664 51.3427 149.629 52.3177 150.456 53.4078ZM145.264 49.0308C142.978 51.5262 141.231 54.4744 140.132 57.6887C139.034 54.4731 137.286 51.5233 135 49.0274C135.219 48.9135 135.436 48.7958 135.661 48.6933L140.132 46.6416L144.597 48.6933C144.827 48.797 145.045 48.9135 145.264 49.0274L145.264 49.0308ZM150.957 2.73606H154.92C154.591 5.01361 153.463 7.09587 151.742 8.60277C150.021 10.1092 147.821 10.9396 145.544 10.9427H141.581C141.91 8.66517 143.037 6.58286 144.758 5.07596C146.48 3.56958 148.68 2.73918 150.957 2.73606ZM126.601 16.4138C129.596 16.4174 132.484 17.5348 134.716 19.5523C136.949 21.5704 138.368 24.3481 138.705 27.3559H134.72C131.726 27.3523 128.837 26.2349 126.605 24.2174C124.372 22.1993 122.953 19.4216 122.616 16.4138H126.601Z" fill="url(#paint9_linear_1040_193725)" fill-opacity="0.5"/>
<defs>
<linearGradient id="paint0_linear_1040_193725" x1="72.2224" y1="14.3964" x2="72.2224" y2="67.6693" gradientUnits="userSpaceOnUse">
<stop stop-color="#64AA4B"/>
<stop offset="0.739583" stop-color="#1B8073"/>
</linearGradient>
<linearGradient id="paint1_linear_1040_193725" x1="72.2224" y1="14.3964" x2="72.2224" y2="67.6693" gradientUnits="userSpaceOnUse">
<stop stop-color="#64AA4B"/>
<stop offset="0.739583" stop-color="#1B8073"/>
</linearGradient>
<linearGradient id="paint2_linear_1040_193725" x1="72.2224" y1="14.3964" x2="72.2224" y2="67.6693" gradientUnits="userSpaceOnUse">
<stop stop-color="#64AA4B"/>
<stop offset="0.739583" stop-color="#1B8073"/>
</linearGradient>
<linearGradient id="paint3_linear_1040_193725" x1="72.2224" y1="14.3964" x2="72.2224" y2="67.6693" gradientUnits="userSpaceOnUse">
<stop stop-color="#64AA4B"/>
<stop offset="0.739583" stop-color="#1B8073"/>
</linearGradient>
<linearGradient id="paint4_linear_1040_193725" x1="72.2224" y1="14.3964" x2="72.2224" y2="67.6693" gradientUnits="userSpaceOnUse">
<stop stop-color="#64AA4B"/>
<stop offset="0.739583" stop-color="#1B8073"/>
</linearGradient>
<linearGradient id="paint5_linear_1040_193725" x1="72.2224" y1="14.3964" x2="72.2224" y2="67.6693" gradientUnits="userSpaceOnUse">
<stop stop-color="#64AA4B"/>
<stop offset="0.739583" stop-color="#1B8073"/>
</linearGradient>
<linearGradient id="paint6_linear_1040_193725" x1="72.2224" y1="14.3964" x2="72.2224" y2="67.6693" gradientUnits="userSpaceOnUse">
<stop stop-color="#64AA4B"/>
<stop offset="0.739583" stop-color="#1B8073"/>
</linearGradient>
<linearGradient id="paint7_linear_1040_193725" x1="72.2224" y1="14.3964" x2="72.2224" y2="67.6693" gradientUnits="userSpaceOnUse">
<stop stop-color="#64AA4B"/>
<stop offset="0.739583" stop-color="#1B8073"/>
</linearGradient>
<linearGradient id="paint8_linear_1040_193725" x1="72.2224" y1="14.3964" x2="72.2224" y2="67.6693" gradientUnits="userSpaceOnUse">
<stop stop-color="#64AA4B"/>
<stop offset="0.739583" stop-color="#1B8073"/>
</linearGradient>
<linearGradient id="paint9_linear_1040_193725" x1="140.808" y1="0" x2="140.808" y2="82.0658" gradientUnits="userSpaceOnUse">
<stop stop-color="#64AA4B"/>
<stop offset="0.770833" stop-color="#1B8073"/>
</linearGradient>
</defs>
</svg>
