<svg width="202" height="203" viewBox="0 0 202 203" fill="none" xmlns="http://www.w3.org/2000/svg">
<path d="M149.496 113.63V73.3194C149.496 59.7718 154.994 47.5032 163.864 38.6278C154.994 47.5032 149.496 59.7713 149.496 73.317V113.63ZM149.496 113.63V97.5636C149.496 84.023 143.997 71.7473 135.125 62.8768M169.965 93.1611L149.501 113.62M34.3101 77.2529H10.0556M34.3101 95.4402H10.0556M34.3101 113.627H10.0556M82.8119 77.2529H58.5622M82.8119 95.4402H58.5622M82.8119 113.627H58.5622M46.4324 65.1257V40.8777M76.7495 150.002L66.0896 192.618C65.2827 195.853 61.8963 198.5 58.5571 198.5H34.3074C30.975 198.5 27.5854 195.853 26.7733 192.62L16.1235 150.004L76.7495 150.002ZM79.783 131.805C84.8068 131.805 88.875 135.884 88.875 140.904V150.003L4.00098 150.001V140.902C4.00098 135.873 8.07081 131.814 13.0895 131.814L79.783 131.805ZM197.998 131.815V122.716C197.998 117.696 193.932 113.617 188.906 113.617L110.09 113.627C105.069 113.627 101.001 117.687 101.001 122.716V131.815L197.998 131.815ZM22.1876 131.815V77.253C22.1876 63.8611 33.0437 53.0009 46.4322 53.0009C59.8309 53.0009 70.6844 63.8621 70.6844 77.253V131.815H22.1876ZM185.868 131.815L174.833 192.534C174.236 195.82 171.02 198.5 167.686 198.5H131.307C127.972 198.5 124.757 195.82 124.16 192.534L113.119 131.815H185.868ZM197.736 4.76123C184.135 3.41479 171.047 7.25968 161.694 16.6121C156.214 22.0908 157.188 31.9473 163.868 38.6288C170.552 45.307 180.409 46.2796 185.881 40.8041C194.542 32.1368 199.189 19.4396 197.736 4.76123ZM101.261 29.0158C114.858 27.6693 127.943 31.5143 137.298 40.8616C142.779 46.3403 141.805 56.1968 135.125 62.875C128.44 69.5582 118.582 70.5257 113.111 65.0485C104.447 56.3846 99.8079 43.6879 101.261 29.0158ZM197.78 65.3461C186.611 64.2449 175.858 67.3979 168.176 75.0792C163.678 79.5754 164.48 87.6726 169.966 93.1566C175.448 98.6473 183.543 99.439 188.041 94.9446C195.161 87.8283 198.971 77.4043 197.78 65.3461Z" stroke="url(#paint0_linear_9291_230248)" stroke-opacity="0.5" stroke-width="8" stroke-miterlimit="10" stroke-linecap="round" stroke-linejoin="round"/>
<defs>
<linearGradient id="paint0_linear_9291_230248" x1="101" y1="4.5" x2="101" y2="198.5" gradientUnits="userSpaceOnUse">
<stop stop-color="#64AA4B"/>
<stop offset="0.770833" stop-color="#1B8073"/>
</linearGradient>
</defs>
</svg>
