<svg width="100" height="106" viewBox="0 0 100 106" fill="none" xmlns="http://www.w3.org/2000/svg">
<g id="Group">
<g id="Vector">
<path d="M64.1006 44.8801C67.7263 45.7611 77.7294 47.0065 81.0215 35.1116C69.0712 32.0179 65.1494 41.3025 64.1006 44.8801ZM84.3754 34.3702C80.2802 53.3984 63.1838 47.8974 61.8318 47.4308C61.0755 47.2154 60.5931 46.4559 60.7387 45.6669C60.7608 45.5427 64.099 26.4802 83.202 32.5393C84.0305 32.7222 84.554 33.5398 84.3754 34.3702Z" fill="url(#paint0_linear_1040_244309)"/>
<path d="M73.3312 41.3412C74.0671 40.9184 74.3207 39.979 73.8979 39.2431C73.4751 38.5073 72.5357 38.2536 71.7998 38.6764L61.4935 44.6267C60.7576 45.0495 60.5039 45.9889 60.9268 46.7248C61.3496 47.4606 62.289 47.7143 63.0249 47.2915L73.3312 41.3412Z" fill="url(#paint1_linear_1040_244309)"/>
<path d="M63.1431 47.2259C63.8389 46.7365 64.0063 45.7755 63.5169 45.0797C63.0274 44.3839 62.0664 44.2165 61.3706 44.7059C56.966 47.8011 53.6609 51.3287 51.2311 55.3993C48.8086 59.4577 47.2739 64.0266 46.4012 69.2206C46.2614 70.0597 46.8282 70.8533 47.6673 70.9932C48.5064 71.133 49.3 70.5661 49.4399 69.7271C50.2506 64.9015 51.6595 60.6849 53.8717 56.9789C56.0766 53.2851 59.0982 50.0683 63.1431 47.2259Z" fill="url(#paint2_linear_1040_244309)"/>
<path d="M30.1615 19.917C28.6383 20.447 6.76522 27.6135 1.54469 3.35183C1.36612 2.52142 1.88952 1.70399 2.7178 1.52102C26.9975 -6.20614 31.2226 18.0155 31.2475 18.1546C31.3929 18.9428 30.9165 19.7007 30.1615 19.917ZM4.88922 4.08776C9.26382 20.8827 23.5033 18.5433 27.9097 17.3781C26.7167 12.983 21.6248 -0.51789 4.88922 4.08776Z" fill="url(#paint3_linear_1040_244309)"/>
<path d="M17.1582 9.39863C16.4224 8.9758 15.483 9.22948 15.0601 9.96533C14.6373 10.7012 14.891 11.6406 15.6268 12.0634L28.9688 19.7664C29.7046 20.1892 30.644 19.9355 31.0669 19.1997C31.4897 18.4638 31.236 17.5244 30.5002 17.1016L17.1582 9.39863Z" fill="url(#paint4_linear_1040_244309)"/>
<path d="M46.3824 69.4008C46.3558 70.2498 47.0226 70.9598 47.8716 70.9864C48.7206 71.013 49.4306 70.3463 49.4572 69.4972C49.7485 60.2266 49.2962 49.6822 46.6809 40.2196C44.0161 30.5776 39.113 22.0598 30.4971 17.0855C29.7613 16.6626 28.8219 16.9163 28.399 17.6522C27.9762 18.388 28.2299 19.3274 28.9657 19.7503C36.7676 24.2546 41.2464 32.1082 43.7147 41.0395C46.2328 50.1503 46.6657 60.3825 46.3824 69.4008Z" fill="url(#paint5_linear_1040_244309)"/>
<path d="M52.855 29.3401C55.8857 30.0063 63.1601 30.6025 65.7389 21.9024C56.9125 19.7882 53.7925 26.3846 52.855 29.3401ZM69.1089 21.1516C65.7559 36.7295 51.8083 32.3278 50.5675 31.9035C49.8104 31.689 49.3268 30.9294 49.472 30.1399C49.4861 30.0611 52.2255 14.3549 67.9357 19.3208C68.764 19.5037 69.2875 20.3212 69.1089 21.1516Z" fill="url(#paint6_linear_1040_244309)"/>
<path d="M60.0601 26.9472C60.796 26.5244 61.0497 25.585 60.6268 24.8491C60.204 24.1133 59.2646 23.8596 58.5287 24.2825L50.2223 29.0781C49.4864 29.501 49.2327 30.4404 49.6556 31.1762C50.0784 31.9121 51.0178 32.1658 51.7537 31.7429L60.0601 26.9472Z" fill="url(#paint7_linear_1040_244309)"/>
<path d="M42.8799 36.5593C42.4504 37.2918 42.6961 38.2339 43.4286 38.6634C44.1611 39.0928 45.1032 38.8472 45.5327 38.1147C46.2966 36.8111 47.1879 35.6076 48.2248 34.5363C49.2573 33.4696 50.4288 32.5367 51.7562 31.7703C52.4921 31.3475 52.7458 30.4081 52.3229 29.6723C51.9001 28.9364 50.9607 28.6827 50.2248 29.1056C48.628 30.0275 47.2334 31.1344 46.0182 32.39C44.8072 33.6411 43.7685 35.0431 42.8799 36.5593Z" fill="url(#paint8_linear_1040_244309)"/>
<path d="M35.9448 54.2458C35.129 54.0094 34.276 54.479 34.0396 55.2948C33.8032 56.1105 34.2728 56.9636 35.0886 57.2C35.1136 57.2072 43.7759 59.614 46.2197 69.8347C46.4161 70.6604 47.2449 71.1706 48.0706 70.9742C48.8963 70.7777 49.4065 69.949 49.2101 69.1233C46.3443 57.1382 35.9746 54.2544 35.9448 54.2458Z" fill="url(#paint9_linear_1040_244309)"/>
<path d="M35.942 57.1985C34.5962 57.6625 17.7748 63.0658 13.7438 44.3367C13.5652 43.5063 14.0886 42.6887 14.9171 42.5058C33.7247 36.5417 37.0085 55.309 37.0309 55.4352C37.1765 56.2244 36.6987 56.9833 35.942 57.1985ZM17.0982 45.0783C20.3284 56.6976 30.0946 55.5108 33.6723 54.6467C32.6327 51.119 28.7787 42.069 17.0982 45.0783Z" fill="url(#paint10_linear_1040_244309)"/>
<path d="M26.1497 48.511C25.4139 48.0882 24.4745 48.3419 24.0517 49.0777C23.6288 49.8136 23.8825 50.753 24.6184 51.1758L34.7523 57.0266C35.4881 57.4494 36.4275 57.1958 36.8504 56.4599C37.2732 55.7241 37.0195 54.7847 36.2837 54.3618L26.1497 48.511Z" fill="url(#paint11_linear_1040_244309)"/>
<path d="M49.178 70.3599C49.6675 69.6674 49.5028 68.7091 48.8102 68.2197C48.1177 67.7302 47.1594 67.8949 46.67 68.5875C46.2138 69.2319 45.9379 70.2183 45.5917 71.4566C45.2868 72.5472 44.9173 73.8686 44.37 75.1493C42.7997 78.8239 39.4847 82.3327 30.6813 78.5706C29.8989 78.2376 28.9946 78.6021 28.6616 79.3845C28.3287 80.1669 28.6931 81.0712 29.4755 81.4042C40.6865 86.1952 45.0652 81.3591 47.2036 76.3552C47.8224 74.907 48.2254 73.466 48.5578 72.2766C48.8255 71.3192 49.0389 70.5565 49.178 70.3599Z" fill="url(#paint12_linear_1040_244309)"/>
<path d="M43.7339 80.3415C43.6773 79.4924 42.943 78.8499 42.094 78.9065C41.245 78.9631 40.6025 79.6974 40.6591 80.5464C40.6598 80.5581 41.0177 84.6387 33.7088 85.7989C23.8823 87.3587 21.5089 102.665 21.5019 102.709C21.3687 103.548 21.9409 104.337 22.78 104.47C23.6191 104.603 24.4073 104.031 24.5405 103.192C24.5466 103.154 26.5872 90.0445 34.1911 88.8375C44.3127 87.231 43.7352 80.3612 43.7339 80.3415Z" fill="url(#paint13_linear_1040_244309)"/>
<path d="M15.38 99.0176C14.7341 99.5703 14.6585 100.542 15.2111 101.188C15.7638 101.834 16.7356 101.91 17.3815 101.357C17.88 100.93 18.0817 100.413 18.3441 99.7423C18.9134 98.2858 19.9767 95.5654 26.4658 94.9718C27.3115 94.8953 27.935 94.1475 27.8584 93.3018C27.7819 92.4561 27.0341 91.8326 26.1884 91.9092C17.7977 92.6768 16.2845 96.5481 15.4744 98.6209C15.3695 98.8893 15.4711 98.9396 15.38 99.0176Z" fill="url(#paint14_linear_1040_244309)"/>
<path d="M36.4401 87.7669C36.7997 86.9944 36.465 86.0766 35.6926 85.717C34.9201 85.3574 34.0023 85.6921 33.6427 86.4645C33.6339 86.4835 30.5039 93.0132 35.8889 100.398C36.3883 101.084 37.3493 101.235 38.0352 100.736C38.721 100.237 38.8722 99.2756 38.3728 98.5897C34.0742 92.6946 36.4335 87.7811 36.4401 87.7669Z" fill="url(#paint15_linear_1040_244309)"/>
<path d="M46.4847 77.18C46.3681 76.3376 45.5907 75.7491 44.7483 75.8656C43.906 75.9822 43.3175 76.7596 43.434 77.602L44.599 85.9936C44.6623 86.4499 44.9158 86.8329 45.2717 87.069C45.7344 87.4197 49.0972 90.1359 46.1435 92.9272C45.7325 93.3155 45.2136 93.7129 44.5685 94.1164C43.9345 94.5132 43.1865 94.9112 42.3096 95.3067C41.5338 95.6563 41.1883 96.5687 41.5379 97.3444C41.8874 98.1202 42.7999 98.4657 43.5756 98.1161C44.584 97.6612 45.4523 97.1984 46.1964 96.7329C47.0185 96.2186 47.6978 95.6953 48.2536 95.17C53.1331 90.5589 49.1073 86.3032 47.5656 84.9667L46.4847 77.18Z" fill="url(#paint16_linear_1040_244309)"/>
<path d="M44.6936 102.053C44.131 102.689 44.1904 103.66 44.8263 104.223C45.4623 104.786 46.4341 104.726 46.9967 104.09C47.0124 104.072 52.5299 97.907 48.3657 93.0443C47.8131 92.3984 46.8412 92.3228 46.1953 92.8754C45.5494 93.4281 45.4738 94.3999 46.0265 95.0458C48.4374 97.8612 44.7043 102.041 44.6936 102.053Z" fill="url(#paint17_linear_1040_244309)"/>
<path d="M48.2495 72.3758C47.9765 71.57 47.1018 71.1382 46.2961 71.4111C45.4904 71.6841 45.0585 72.5588 45.3315 73.3645C45.3315 73.3645 49.3762 85.4999 57.0728 83.994C57.9085 83.8309 58.4537 83.0211 58.2906 82.1854C58.1275 81.3497 57.3177 80.8044 56.482 80.9675C51.4518 81.9517 48.2495 72.3758 48.2495 72.3758Z" fill="url(#paint18_linear_1040_244309)"/>
<path d="M57.4659 74.7873C57.9653 74.1015 57.8142 73.1405 57.1283 72.6411C56.4424 72.1417 55.4814 72.2928 54.982 72.9787L50.1312 79.6281C50.0446 79.7468 49.9716 79.8695 49.9232 80.0009C49.5469 80.8731 47.9324 85.439 53.389 89.3799C57.2386 92.1601 54.1964 97.4616 54.1879 97.4769C53.7717 98.2194 54.0363 99.1588 54.7787 99.575C55.5212 99.9911 56.4607 99.7266 56.8768 98.9842C56.8893 98.9621 61.2961 91.2969 55.1856 86.8838C51.6731 84.347 52.5063 81.7973 52.7137 81.3016L57.4659 74.7873Z" fill="url(#paint19_linear_1040_244309)"/>
<path d="M53.2733 86.9739C52.634 87.5332 52.5693 88.5051 53.1286 89.1443C53.6879 89.7835 54.6598 89.8483 55.299 89.289C55.3019 89.2864 56.3117 88.3457 60.5944 89.7347C61.8033 90.1268 62.7762 90.6488 63.6389 91.1117C66.6896 92.7484 68.6556 93.8032 74.5155 89.8185C75.218 89.3424 75.4016 88.3867 74.9255 87.6842C74.4494 86.9817 73.4937 86.7982 72.7912 87.2743C68.4739 90.21 67.1508 89.5002 65.0978 88.3987C64.1269 87.8778 63.0317 87.2901 61.5348 86.8047C55.5807 84.8736 53.28 86.968 53.2733 86.9739Z" fill="url(#paint20_linear_1040_244309)"/>
<path d="M65.2637 89.2061C65.1306 88.3671 64.3423 87.7948 63.5033 87.9279C62.6642 88.0611 62.0919 88.8493 62.2251 89.6884C62.2292 89.7141 63.5601 98.6048 74.5766 102.076C75.389 102.329 76.2529 101.875 76.5059 101.063C76.7589 100.25 76.3055 99.3865 75.493 99.1335C66.3124 96.241 65.267 89.2263 65.2637 89.2061Z" fill="url(#paint21_linear_1040_244309)"/>
<path d="M69.3065 98.5949C70.0723 98.2287 70.3961 97.3109 70.0299 96.5451C69.6638 95.7793 68.7459 95.4555 67.9802 95.8216C67.9689 95.827 64.0025 97.6348 68.4514 105.24C68.8808 105.972 69.823 106.218 70.5555 105.789C71.288 105.359 71.5336 104.417 71.1042 103.685C68.3596 98.9927 69.3039 98.5961 69.3065 98.5949Z" fill="url(#paint22_linear_1040_244309)"/>
<path d="M1.5434 67.938C0.691035 67.938 0 68.6291 0 69.4814C0 70.3338 0.691035 71.0248 1.5434 71.0248H97.8265C98.6789 71.0248 99.3699 70.3338 99.3699 69.4814C99.3699 68.6291 98.6789 67.938 97.8265 67.938H1.5434Z" fill="url(#paint23_linear_1040_244309)"/>
</g>
</g>
<defs>
<linearGradient id="paint0_linear_1040_244309" x1="49.685" y1="0" x2="49.685" y2="106" gradientUnits="userSpaceOnUse">
<stop stop-color="#B1D5A5"/>
<stop offset="1" stop-color="#8DBFB9"/>
</linearGradient>
<linearGradient id="paint1_linear_1040_244309" x1="49.685" y1="0" x2="49.685" y2="106" gradientUnits="userSpaceOnUse">
<stop stop-color="#B1D5A5"/>
<stop offset="1" stop-color="#8DBFB9"/>
</linearGradient>
<linearGradient id="paint2_linear_1040_244309" x1="49.685" y1="0" x2="49.685" y2="106" gradientUnits="userSpaceOnUse">
<stop stop-color="#B1D5A5"/>
<stop offset="1" stop-color="#8DBFB9"/>
</linearGradient>
<linearGradient id="paint3_linear_1040_244309" x1="49.685" y1="0" x2="49.685" y2="106" gradientUnits="userSpaceOnUse">
<stop stop-color="#B1D5A5"/>
<stop offset="1" stop-color="#8DBFB9"/>
</linearGradient>
<linearGradient id="paint4_linear_1040_244309" x1="49.685" y1="0" x2="49.685" y2="106" gradientUnits="userSpaceOnUse">
<stop stop-color="#B1D5A5"/>
<stop offset="1" stop-color="#8DBFB9"/>
</linearGradient>
<linearGradient id="paint5_linear_1040_244309" x1="49.685" y1="0" x2="49.685" y2="106" gradientUnits="userSpaceOnUse">
<stop stop-color="#B1D5A5"/>
<stop offset="1" stop-color="#8DBFB9"/>
</linearGradient>
<linearGradient id="paint6_linear_1040_244309" x1="49.685" y1="0" x2="49.685" y2="106" gradientUnits="userSpaceOnUse">
<stop stop-color="#B1D5A5"/>
<stop offset="1" stop-color="#8DBFB9"/>
</linearGradient>
<linearGradient id="paint7_linear_1040_244309" x1="49.685" y1="0" x2="49.685" y2="106" gradientUnits="userSpaceOnUse">
<stop stop-color="#B1D5A5"/>
<stop offset="1" stop-color="#8DBFB9"/>
</linearGradient>
<linearGradient id="paint8_linear_1040_244309" x1="49.685" y1="0" x2="49.685" y2="106" gradientUnits="userSpaceOnUse">
<stop stop-color="#B1D5A5"/>
<stop offset="1" stop-color="#8DBFB9"/>
</linearGradient>
<linearGradient id="paint9_linear_1040_244309" x1="49.685" y1="0" x2="49.685" y2="106" gradientUnits="userSpaceOnUse">
<stop stop-color="#B1D5A5"/>
<stop offset="1" stop-color="#8DBFB9"/>
</linearGradient>
<linearGradient id="paint10_linear_1040_244309" x1="49.685" y1="0" x2="49.685" y2="106" gradientUnits="userSpaceOnUse">
<stop stop-color="#B1D5A5"/>
<stop offset="1" stop-color="#8DBFB9"/>
</linearGradient>
<linearGradient id="paint11_linear_1040_244309" x1="49.685" y1="0" x2="49.685" y2="106" gradientUnits="userSpaceOnUse">
<stop stop-color="#B1D5A5"/>
<stop offset="1" stop-color="#8DBFB9"/>
</linearGradient>
<linearGradient id="paint12_linear_1040_244309" x1="49.685" y1="0" x2="49.685" y2="106" gradientUnits="userSpaceOnUse">
<stop stop-color="#B1D5A5"/>
<stop offset="1" stop-color="#8DBFB9"/>
</linearGradient>
<linearGradient id="paint13_linear_1040_244309" x1="49.685" y1="0" x2="49.685" y2="106" gradientUnits="userSpaceOnUse">
<stop stop-color="#B1D5A5"/>
<stop offset="1" stop-color="#8DBFB9"/>
</linearGradient>
<linearGradient id="paint14_linear_1040_244309" x1="49.685" y1="0" x2="49.685" y2="106" gradientUnits="userSpaceOnUse">
<stop stop-color="#B1D5A5"/>
<stop offset="1" stop-color="#8DBFB9"/>
</linearGradient>
<linearGradient id="paint15_linear_1040_244309" x1="49.685" y1="0" x2="49.685" y2="106" gradientUnits="userSpaceOnUse">
<stop stop-color="#B1D5A5"/>
<stop offset="1" stop-color="#8DBFB9"/>
</linearGradient>
<linearGradient id="paint16_linear_1040_244309" x1="49.685" y1="0" x2="49.685" y2="106" gradientUnits="userSpaceOnUse">
<stop stop-color="#B1D5A5"/>
<stop offset="1" stop-color="#8DBFB9"/>
</linearGradient>
<linearGradient id="paint17_linear_1040_244309" x1="49.685" y1="0" x2="49.685" y2="106" gradientUnits="userSpaceOnUse">
<stop stop-color="#B1D5A5"/>
<stop offset="1" stop-color="#8DBFB9"/>
</linearGradient>
<linearGradient id="paint18_linear_1040_244309" x1="49.685" y1="0" x2="49.685" y2="106" gradientUnits="userSpaceOnUse">
<stop stop-color="#B1D5A5"/>
<stop offset="1" stop-color="#8DBFB9"/>
</linearGradient>
<linearGradient id="paint19_linear_1040_244309" x1="49.685" y1="0" x2="49.685" y2="106" gradientUnits="userSpaceOnUse">
<stop stop-color="#B1D5A5"/>
<stop offset="1" stop-color="#8DBFB9"/>
</linearGradient>
<linearGradient id="paint20_linear_1040_244309" x1="49.685" y1="0" x2="49.685" y2="106" gradientUnits="userSpaceOnUse">
<stop stop-color="#B1D5A5"/>
<stop offset="1" stop-color="#8DBFB9"/>
</linearGradient>
<linearGradient id="paint21_linear_1040_244309" x1="49.685" y1="0" x2="49.685" y2="106" gradientUnits="userSpaceOnUse">
<stop stop-color="#B1D5A5"/>
<stop offset="1" stop-color="#8DBFB9"/>
</linearGradient>
<linearGradient id="paint22_linear_1040_244309" x1="49.685" y1="0" x2="49.685" y2="106" gradientUnits="userSpaceOnUse">
<stop stop-color="#B1D5A5"/>
<stop offset="1" stop-color="#8DBFB9"/>
</linearGradient>
<linearGradient id="paint23_linear_1040_244309" x1="49.685" y1="0" x2="49.685" y2="106" gradientUnits="userSpaceOnUse">
<stop stop-color="#B1D5A5"/>
<stop offset="1" stop-color="#8DBFB9"/>
</linearGradient>
</defs>
</svg>
