<svg width="90" height="93" viewBox="0 0 90 93" fill="none" xmlns="http://www.w3.org/2000/svg">
<path id="Vector" d="M86.1288 83.8823C84.0117 82.3362 81.4587 81.491 78.8314 81.4666C78.7231 81.4666 78.6145 81.4683 78.5056 81.4718C78.4936 81.4355 78.4799 81.3999 78.4669 81.3636L84.5698 69.6403C85.0244 68.7612 85.2453 67.7811 85.2114 66.7933C85.1776 65.8054 84.8901 64.8426 84.3764 63.9962C83.9271 63.237 83.2873 62.6064 82.5196 62.1662C81.7519 61.7259 80.8824 61.4909 79.996 61.4842H74.3919V21.5195H77.4856C77.7948 21.5195 78.0969 21.4274 78.3529 21.2552C78.6089 21.083 78.8071 20.8385 78.9219 20.5532L82.0157 12.8677C82.0887 12.6861 82.1263 12.4924 82.1263 12.2968V4.61132C82.1248 3.38876 81.6355 2.21668 80.7655 1.3522C79.8955 0.487715 78.716 0.00142383 77.4856 0H62.0169C60.7866 0.00142383 59.607 0.487715 58.7371 1.3522C57.8671 2.21668 57.3777 3.38876 57.3763 4.61132V12.2968C57.3763 12.4924 57.4138 12.6861 57.4869 12.8677L60.5806 20.5532C60.6954 20.8385 60.8936 21.083 61.1496 21.2552C61.4057 21.4274 61.7077 21.5195 62.0169 21.5195H65.1106V61.4842H59.5065C58.62 61.4908 57.7504 61.7257 56.9825 62.166C56.2146 62.6062 55.5748 63.2369 55.1254 63.9962C54.6116 64.8426 54.3241 65.8054 54.2902 66.7933C54.2564 67.7811 54.4773 68.7612 54.932 69.6403L56.0131 71.7169C54.5469 72.4112 53.2738 73.4513 52.3048 74.7466C52.2007 74.7435 52.0976 74.7419 51.9955 74.7417C49.7577 74.7427 47.582 75.4731 45.8022 76.8211L48.4226 61.196C49.8304 60.7519 51.0319 59.822 51.8099 58.5744C52.5879 57.3268 52.8912 55.8438 52.6648 54.3934C52.4384 52.943 51.6973 51.621 50.5755 50.6662C49.4537 49.7114 48.0252 49.1868 46.5481 49.1874H27.9856V44.5761H31.4487C34.6317 44.5724 37.6833 43.3144 39.934 41.0779C42.1847 38.8414 43.4508 35.8091 43.4544 32.6462V24.5937C43.4544 24.186 43.2914 23.795 43.0013 23.5068C42.7112 23.2185 42.3178 23.0566 41.9075 23.0566H36.8976C35.2166 23.056 33.5544 23.4071 32.019 24.0869C30.4835 24.7667 29.1093 25.76 27.9856 27.0023V21.5195H31.4487C34.6317 21.5159 37.6833 20.2578 39.934 18.0213C42.1847 15.7848 43.4508 12.7525 43.4544 9.58962V1.53711C43.4544 1.12944 43.2914 0.738471 43.0013 0.450208C42.7112 0.161944 42.3178 0 41.9075 0H36.8976C34.7681 0.0016665 32.6774 0.56584 30.8396 1.63472C29.0018 2.7036 27.483 4.23875 26.4388 6.0829C25.3946 4.23875 23.8758 2.7036 22.038 1.63472C20.2002 0.56584 18.1094 0.0016665 15.98 0H10.97C10.5598 0 10.1663 0.161944 9.87621 0.450208C9.58612 0.738471 9.42315 1.12944 9.42315 1.53711V9.58962C9.42678 12.7525 10.6928 15.7848 12.9435 18.0213C15.1943 20.2578 18.2458 21.5159 21.4288 21.5195H24.8919V27.0023C23.7682 25.76 22.394 24.7667 20.8586 24.0869C19.3231 23.4071 17.6609 23.056 15.98 23.0566H10.97C10.5598 23.0566 10.1663 23.2185 9.87621 23.5068C9.58612 23.795 9.42315 24.186 9.42315 24.5937V32.6462C9.42678 35.8091 10.6928 38.8414 12.9435 41.0779C15.1943 43.3144 18.2458 44.5724 21.4288 44.5761H24.8919V49.1874H6.3294C4.85234 49.1868 3.42382 49.7114 2.30202 50.6662C1.18023 51.621 0.439163 52.943 0.212773 54.3934C-0.0136169 55.8438 0.289602 57.3268 1.06763 58.5744C1.84565 59.822 3.04715 60.7519 4.45497 61.196L9.01342 88.3732C9.1912 89.4512 9.74952 90.431 10.5883 91.1371C11.4271 91.8431 12.4915 92.2293 13.5908 92.2263H88.3138C88.724 92.2263 89.1175 92.0644 89.4076 91.7761C89.6977 91.4878 89.8606 91.0969 89.8606 90.6892C89.8606 88.0727 88.5354 85.6552 86.1288 83.8823ZM27.9856 11.9299C27.9883 9.58201 28.9281 7.33107 30.5988 5.67089C32.2696 4.01071 34.5348 3.07686 36.8976 3.07421H40.3606V9.58962C40.358 11.9375 39.4182 14.1884 37.7475 15.8486C36.0767 17.5088 33.8115 18.4426 31.4487 18.4453H29.7414L35.3615 11.7437C35.4963 11.5892 35.5987 11.4097 35.6627 11.2154C35.7268 11.0212 35.7512 10.8162 35.7346 10.6125C35.7179 10.4088 35.6606 10.2104 35.5659 10.029C35.4711 9.84755 35.341 9.68671 35.1829 9.55587C35.0249 9.42504 34.8422 9.32683 34.6455 9.26701C34.4488 9.20718 34.2421 9.18693 34.0375 9.20745C33.8328 9.22796 33.6344 9.28883 33.4537 9.38648C33.273 9.48414 33.1137 9.61662 32.9851 9.77618L32.9805 9.78175L32.9793 9.78291L27.9856 15.7361V11.9299ZM27.9856 34.9864C27.9883 32.6386 28.9281 30.3877 30.5988 28.7275C32.2696 27.0673 34.5348 26.1334 36.8976 26.1308H40.3606V32.6462C40.358 34.994 39.4182 37.245 37.7475 38.9052C36.0767 40.5653 33.8115 41.4992 31.4487 41.5018H29.7414L35.3615 34.8003C35.4963 34.6458 35.5987 34.4662 35.6627 34.272C35.7268 34.0778 35.7512 33.8728 35.7346 33.6691C35.7179 33.4654 35.6606 33.267 35.5659 33.0856C35.4711 32.9041 35.341 32.7433 35.1829 32.6124C35.0249 32.4816 34.8422 32.3834 34.6455 32.3236C34.4488 32.2638 34.2421 32.2435 34.0375 32.264C33.8328 32.2845 33.6344 32.3454 33.4537 32.4431C33.273 32.5407 33.1137 32.6732 32.9851 32.8328L32.9805 32.8383L32.9793 32.8395L27.9856 38.7927V34.9864ZM63.0643 18.4453L60.47 12.0008V4.61132C60.4705 4.20379 60.6336 3.81309 60.9236 3.52492C61.2136 3.23676 61.6068 3.07467 62.0169 3.07421H77.4856C77.8958 3.07467 78.2889 3.23676 78.5789 3.52492C78.8689 3.81309 79.0321 4.20379 79.0325 4.61132V12.0008L76.4382 18.4453H72.845C72.4348 18.4453 72.0413 18.6072 71.7512 18.8955C71.4611 19.1837 71.2981 19.5747 71.2981 19.9824V33.8163H68.2044V19.9824C68.2044 19.5747 68.0414 19.1837 67.7513 18.8955C67.4612 18.6072 67.0678 18.4453 66.6575 18.4453H63.0643ZM68.2044 39.9647V36.8905H71.2981V39.9647H68.2044ZM71.2981 43.0389V66.1824C71.2981 66.3907 71.2555 66.5969 71.1729 66.7883C71.0902 66.9798 70.9693 67.1525 70.8174 67.2961C70.6655 67.4397 70.4858 67.5511 70.2892 67.6235C70.0927 67.696 69.8833 67.728 69.6739 67.7176C69.2679 67.6823 68.8904 67.4952 68.6176 67.1942C68.3449 66.8932 68.1972 66.5005 68.2044 66.0955V43.0389H71.2981ZM57.7682 65.5946C57.9591 65.283 58.5103 64.5584 59.5065 64.5584H65.1106V66.0955C65.0976 67.2925 65.5496 68.4484 66.3726 69.3225C67.1956 70.1967 68.3261 70.7218 69.5289 70.7885C69.6047 70.792 69.6802 70.7937 69.7553 70.7937C70.9476 70.797 72.0946 70.34 72.9543 69.519C73.4076 69.0877 73.7686 68.5698 74.0156 67.9964C74.2627 67.4231 74.3907 66.8061 74.3919 66.1824V64.5584H79.996C80.9922 64.5584 81.5429 65.283 81.7343 65.5946C81.9737 65.9897 82.1075 66.439 82.1229 66.8999C82.1383 67.3608 82.0348 67.8179 81.8223 68.2279L76.6281 78.206C75.6698 77.1179 74.4885 76.246 73.1634 75.6485C71.8384 75.051 70.4001 74.7419 68.945 74.7417C68.8425 74.7417 68.7394 74.7433 68.6356 74.7466C67.6855 73.4874 66.4524 72.4664 65.0346 71.765C63.6169 71.0636 62.0538 70.7013 60.47 70.7068C59.9866 70.7081 59.5039 70.7432 59.0254 70.8119L57.6802 68.2283C57.4677 67.8183 57.3641 67.361 57.3795 66.9001C57.3949 66.4391 57.5287 65.9897 57.7682 65.5946ZM17.5162 11.7435L23.1362 18.4453H21.4288C19.0661 18.4426 16.8008 17.5088 15.1301 15.8486C13.4593 14.1884 12.5196 11.9375 12.5169 9.58962V3.07421H15.98C18.3427 3.07686 20.608 4.01071 22.2787 5.67089C23.9494 7.33107 24.8892 9.58201 24.8919 11.9299V15.7361L19.8986 9.78175L19.8974 9.7806L19.8928 9.77503C19.7642 9.61547 19.605 9.48298 19.4243 9.38533C19.2436 9.28767 19.0451 9.22681 18.8404 9.20629C18.6358 9.18578 18.4291 9.20603 18.2324 9.26585C18.0357 9.32568 17.853 9.42389 17.695 9.55472C17.537 9.68556 17.4068 9.84639 17.3121 10.0278C17.2174 10.2093 17.16 10.4076 17.1434 10.6114C17.1267 10.8151 17.1512 11.02 17.2152 11.2143C17.2793 11.4085 17.3817 11.5881 17.5164 11.7425L17.5162 11.7435ZM17.5162 34.8001L23.1362 41.5018H21.4288C19.0661 41.4992 16.8008 40.5653 15.1301 38.9052C13.4593 37.245 12.5196 34.994 12.5169 32.6462V26.1308H15.98C18.3427 26.1334 20.608 27.0673 22.2787 28.7275C23.9494 30.3877 24.8892 32.6386 24.8919 34.9864V38.7927L19.8986 32.8383L19.8974 32.8372L19.8928 32.8316C19.7642 32.672 19.605 32.5396 19.4243 32.4419C19.2436 32.3443 19.0451 32.2834 18.8404 32.2629C18.6358 32.2424 18.4291 32.2626 18.2324 32.3224C18.0357 32.3823 17.853 32.4805 17.695 32.6113C17.537 32.7421 17.4068 32.903 17.3121 33.0844C17.2174 33.2658 17.16 33.4642 17.1434 33.6679C17.1267 33.8717 17.1512 34.0766 17.2152 34.2709C17.2793 34.4651 17.3817 34.6447 17.5164 34.7991L17.5162 34.8001ZM3.23565 55.3358C3.23662 54.5208 3.56288 53.7394 4.14286 53.1631C4.72284 52.5867 5.50918 52.2625 6.3294 52.2616H46.5481C47.3687 52.2616 48.1556 52.5855 48.7358 53.162C49.316 53.7385 49.6419 54.5205 49.6419 55.3358C49.6419 56.1511 49.316 56.9331 48.7358 57.5096C48.1556 58.0861 47.3687 58.41 46.5481 58.41H6.3294C5.50918 58.409 4.72284 58.0848 4.14286 57.5085C3.56288 56.9322 3.23662 56.1508 3.23565 55.3358ZM31.2378 89.1521H13.5908C13.2244 89.153 12.8696 89.0243 12.59 88.7889C12.3104 88.5536 12.1243 88.227 12.065 87.8677L7.63979 61.4842H45.2377L41.8853 81.4714C39.3354 81.5413 36.8676 82.3824 34.8112 83.8823C32.8844 85.3018 31.6531 87.1347 31.2378 89.1521ZM34.4475 89.1521C35.4369 86.4316 38.9325 84.5408 42.1088 84.5408C42.5257 84.5413 42.9417 84.5774 43.3523 84.6488C43.5544 84.6837 43.7615 84.6782 43.9615 84.6329C44.1614 84.5875 44.3503 84.503 44.5172 84.3844C44.684 84.2658 44.8254 84.1154 44.9332 83.9419C45.041 83.7685 45.1129 83.5755 45.1449 83.3741C45.6484 80.2056 48.5935 77.816 51.9951 77.816C52.2983 77.8168 52.6011 77.8361 52.9019 77.8736C53.201 77.9107 53.5045 77.86 53.7749 77.7276C54.0454 77.5953 54.2709 77.3872 54.4237 77.1291C55.061 76.1054 55.951 75.2606 57.0092 74.6747C58.0674 74.0887 59.2587 73.7812 60.47 73.7812C61.6814 73.7812 62.8727 74.0887 63.9309 74.6747C64.989 75.2606 65.879 76.1054 66.5164 77.1291C66.6692 77.3872 66.8947 77.5952 67.1651 77.7275C67.4356 77.8598 67.739 77.9106 68.0381 77.8736C68.3389 77.8361 68.6418 77.8168 68.945 77.816C72.3467 77.816 75.2918 80.2056 75.7953 83.3741C75.8273 83.5755 75.8993 83.7685 76.0071 83.9419C76.1148 84.1154 76.2562 84.2658 76.4231 84.3844C76.5899 84.503 76.7788 84.5875 76.9788 84.6329C77.1788 84.6782 77.3858 84.6837 77.5879 84.6488C77.9985 84.5774 78.4146 84.5413 78.8314 84.5408C82.0077 84.5408 85.5023 86.4316 86.4927 89.1521H34.4475Z" fill="url(#paint0_linear_1583_1727)"/>
<defs>
<linearGradient id="paint0_linear_1583_1727" x1="58.5474" y1="92.7268" x2="61.1527" y2="1.54255" gradientUnits="userSpaceOnUse">
<stop stop-color="#88BBB4"/>
<stop offset="1" stop-color="#ACD0A0"/>
</linearGradient>
</defs>
</svg>
