<svg width="120" height="89" viewBox="0 0 120 89" fill="none" xmlns="http://www.w3.org/2000/svg">
<g id="Group 237721">
<path id="Vector" d="M9.50272 54.5738H3.18324M9.50272 59.4378H3.18324M9.50272 64.3016H3.18324M22.1398 54.5738H15.8216M22.1398 59.4378H15.8216M22.1398 64.3016H15.8216M12.6612 51.3305V44.8456M20.5602 74.0298L17.7828 85.427C17.5726 86.2921 16.6903 87.0001 15.8202 87.0001H9.50201C8.63376 87.0001 7.7506 86.2921 7.53901 85.4275L4.76422 74.0303L20.5602 74.0298ZM21.3506 69.1632C22.6596 69.1632 23.7195 70.254 23.7195 71.5966V74.03L1.60571 74.0295V71.5961C1.60571 70.2511 2.6661 69.1656 3.97372 69.1656L21.3506 69.1632ZM6.34421 69.1658V54.5738C6.34421 50.9923 9.17276 48.0878 12.6611 48.0878C16.1521 48.0878 18.98 50.9925 18.98 54.5738V69.1658H6.34421Z" stroke="url(#paint0_linear_1583_5249)" stroke-opacity="0.5" stroke-width="3.12632" stroke-miterlimit="10" stroke-linecap="round" stroke-linejoin="round"/>
<path id="Vector_2" d="M44.8448 34.9052H34.5757M44.8448 42.7195H34.5757M44.8448 50.5336H34.5757M65.3801 34.9052H55.113M65.3801 42.7195H55.113M65.3801 50.5336H55.113M49.9773 29.6947V19.2764M62.8133 66.1624L58.3 84.4727C57.9584 85.8626 56.5246 86.9999 55.1108 86.9999H44.8437C43.4328 86.9999 41.9977 85.8626 41.6538 84.4735L37.1448 66.1633L62.8133 66.1624ZM64.0977 58.3439C66.2247 58.3439 67.9472 60.0965 67.9472 62.2534V66.1629L32.0122 66.162V62.2525C32.0122 60.0918 33.7353 58.3478 35.8602 58.3478L64.0977 58.3439ZM39.7123 58.3482V34.9053C39.7123 29.1514 44.3087 24.4852 49.9772 24.4852C55.6501 24.4852 60.2454 29.1518 60.2454 34.9053V58.3482H39.7123Z" stroke="url(#paint1_linear_1583_5249)" stroke-opacity="0.5" stroke-width="3.12632" stroke-miterlimit="10" stroke-linecap="round" stroke-linejoin="round"/>
<path id="Vector_3" d="M89.5164 21.6158H76.6799M89.5164 31.4236H76.6799M89.5164 41.2311H76.6799M115.185 21.6158H102.352M115.185 31.4236H102.352M115.185 41.2311H102.352M95.932 15.0761V2M111.977 60.8468L106.335 83.828C105.908 85.5726 104.116 87 102.349 87H89.5149C87.7513 87 85.9574 85.5726 85.5276 83.8291L79.8913 60.8479L111.977 60.8468ZM113.582 51.0338C116.241 51.0338 118.394 53.2335 118.394 55.9406V60.8473L73.4756 60.8462V55.9395C73.4756 53.2275 75.6295 51.0387 78.2856 51.0387L113.582 51.0338ZM83.1007 51.0392V21.6159C83.1007 14.3941 88.8461 8.5376 95.9319 8.5376C103.023 8.5376 108.767 14.3947 108.767 21.6159V51.0392H83.1007Z" stroke="url(#paint2_linear_1583_5249)" stroke-opacity="0.5" stroke-width="3.12632" stroke-miterlimit="10" stroke-linecap="round" stroke-linejoin="round"/>
</g>
<defs>
<linearGradient id="paint0_linear_1583_5249" x1="26.8787" y1="35.1167" x2="26.8787" y2="87" gradientUnits="userSpaceOnUse">
<stop stop-color="#64AA4B"/>
<stop offset="0.770833" stop-color="#1B8073"/>
</linearGradient>
<linearGradient id="paint1_linear_1583_5249" x1="73.0808" y1="3.64641" x2="73.0808" y2="86.9999" gradientUnits="userSpaceOnUse">
<stop stop-color="#64AA4B"/>
<stop offset="0.770833" stop-color="#1B8073"/>
</linearGradient>
<linearGradient id="paint2_linear_1583_5249" x1="124.811" y1="-17.6172" x2="124.811" y2="87" gradientUnits="userSpaceOnUse">
<stop stop-color="#64AA4B"/>
<stop offset="0.770833" stop-color="#1B8073"/>
</linearGradient>
</defs>
</svg>
