<svg width="96" height="96" viewBox="0 0 96 96" fill="none" xmlns="http://www.w3.org/2000/svg">
<path fill-rule="evenodd" clip-rule="evenodd" d="M52 20C52 17.7909 50.2091 16 48 16C45.7909 16 44 17.7909 44 20V44H20C17.7909 44 16 45.7909 16 48C16 50.2091 17.7909 52 20 52H44V76C44 78.2091 45.7909 80 48 80C50.2091 80 52 78.2091 52 76V52H76C78.2091 52 80 50.2091 80 48C80 45.7909 78.2091 44 76 44H52V20ZM52 44H44V52H52V44Z" fill="url(#paint0_linear_9351_241869)" fill-opacity="0.5"/>
<path d="M52 44H44V52H52V44Z" fill="url(#paint1_linear_9351_241869)" fill-opacity="0.5"/>
<defs>
<linearGradient id="paint0_linear_9351_241869" x1="48" y1="16" x2="48" y2="80" gradientUnits="userSpaceOnUse">
<stop stop-color="#64AA4B"/>
<stop offset="0.770833" stop-color="#1B8073"/>
</linearGradient>
<linearGradient id="paint1_linear_9351_241869" x1="48" y1="16" x2="48" y2="80" gradientUnits="userSpaceOnUse">
<stop stop-color="#64AA4B"/>
<stop offset="0.770833" stop-color="#1B8073"/>
</linearGradient>
</defs>
</svg>
