<svg width="109" height="86" viewBox="0 0 109 86" fill="none" xmlns="http://www.w3.org/2000/svg">
<path id="Vector" d="M75.579 31.0895V48.1275V41.3351C75.579 35.6121 73.2543 30.4216 69.5052 26.6725M75.579 31.0895C75.579 25.3622 77.9038 20.176 81.6529 16.4269M75.579 31.0895C75.579 25.3622 77.9038 20.1802 81.6529 16.4269M81.6529 16.4269C78.8294 13.6034 78.4194 9.4358 80.7357 7.11953C84.6877 3.16752 90.2205 1.54022 95.9689 2.11083L95.9647 2.11506C96.5818 8.31993 94.6164 13.6837 90.956 17.3483C88.6439 19.6603 84.4764 19.2503 81.6529 16.4269ZM84.2312 39.4711L75.5833 48.1191M27.4025 25.0537H17.1526M27.4025 32.7421H17.1526M27.4025 40.4306H17.1526M47.9065 25.0579H37.6566M47.9065 32.7464H37.6566M47.9065 40.4348H37.6566M32.5295 19.9351V9.68518M106.726 55.8118V51.9654C106.726 49.8436 105.006 48.1191 102.884 48.1191H6.11653C3.9947 48.1233 2.27441 49.8394 2.27441 51.9654V55.8118H106.726ZM22.2754 48.1191V25.0579C22.2754 19.3983 26.8657 14.808 32.5211 14.808C38.1765 14.808 42.771 19.3983 42.771 25.0579V48.1191H22.2712H22.2754ZM101.599 55.8118L96.9326 81.4766C96.679 82.8672 95.3222 84 93.9105 84H15.0815C13.6697 84 12.313 82.8672 12.0594 81.4766L7.39301 55.8118H101.595H101.599ZM55.1934 12.3607C60.9418 11.7901 66.4704 13.4174 70.4266 17.3694C72.7429 19.6857 72.3329 23.8533 69.5094 26.6725C66.6859 29.496 62.5184 29.906 60.2063 27.5897C56.546 23.9293 54.5847 18.5614 55.1976 12.3607H55.1934ZM95.99 27.7165C91.2688 27.2516 86.725 28.583 83.4789 31.8291C81.5768 33.7312 81.9149 37.1506 84.2354 39.4711C86.5517 41.7916 89.9754 42.1255 91.8732 40.2277C94.8826 37.2183 96.493 32.814 95.99 27.7165Z" stroke="url(#paint0_linear_1583_3638)" stroke-opacity="0.5" stroke-width="3.3814" stroke-linecap="round" stroke-linejoin="round"/>
<defs>
<linearGradient id="paint0_linear_1583_3638" x1="-4.96608" y1="2.00093" x2="-4.96608" y2="84" gradientUnits="userSpaceOnUse">
<stop stop-color="#63AA49"/>
<stop offset="0.77" stop-color="#1D8073"/>
</linearGradient>
</defs>
</svg>
