<svg width="101" height="196" viewBox="0 0 101 196" fill="none" xmlns="http://www.w3.org/2000/svg">
<path d="M35.9844 72.0654H45.6619V105.639L35.5623 110.253C25.4141 114.888 17.4358 123.278 13.2869 133.674C9.13795 144.071 9.13795 155.676 13.2869 166.074C17.4358 176.47 25.4141 184.86 35.5623 189.495L47.5524 194.97C48.4006 195.358 49.3741 195.358 50.2223 194.97L62.2124 189.495C72.3606 184.86 80.3389 176.47 84.4878 166.074C88.6367 155.676 88.6367 144.071 84.4878 133.674C80.3389 123.278 72.3606 114.888 62.2124 110.253L52.1128 105.639V104.486H68.2419C76.7945 104.475 84.9943 101.057 91.0415 94.9796C97.0887 88.9023 100.49 80.6609 100.5 72.0653C100.5 71.2056 100.16 70.3806 99.5553 69.7727C98.9505 69.1648 98.1296 68.8232 97.2742 68.8232H77.9193C67.7493 68.8334 58.1814 73.6704 52.1128 81.8725V33.1605H61.7903C69.4876 33.1504 76.8668 30.0734 82.3086 24.6038C87.7505 19.1342 90.8122 11.7183 90.8226 3.98227C90.8226 3.12255 90.4827 2.29756 89.8779 1.68969C89.273 1.08181 88.4522 0.740234 87.5967 0.740234H74.6935C67.5565 0.750366 60.6728 3.40044 55.353 8.18246C50.0347 12.9658 46.6518 19.5485 45.8514 26.6765H45.6613V48.3981C39.0383 38.8617 28.2003 33.1735 16.629 33.1605H3.72581C1.94443 33.1605 0.5 34.6122 0.5 36.4026C0.511521 45.8582 4.253 54.921 10.9048 61.6078C17.5581 68.293 26.576 72.0531 35.9839 72.0649L35.9844 72.0654ZM77.92 75.3074H93.8489C93.0554 81.5714 90.0166 87.3303 85.3047 91.5076C80.5913 95.6844 74.5257 97.9931 68.2425 98.0016H52.3137C53.1072 91.7377 56.1459 85.9787 60.8578 81.8015C65.5712 77.6246 71.6368 75.3159 77.92 75.3074ZM16.6296 149.874C16.6368 144.01 18.0351 138.23 20.7066 133.016C26.4095 139.53 29.5487 147.913 29.5328 156.588V178.005C21.3573 170.966 16.6454 160.693 16.6296 149.874ZM35.9844 182.462V156.588C36.0032 145.68 31.8053 135.189 24.2749 127.332C26.245 124.747 28.5463 122.434 31.117 120.453C40.4689 130.131 45.6877 143.098 45.6619 156.588V186.985L38.2425 183.591C37.4648 183.241 36.7203 182.862 35.9844 182.462ZM68.2425 178.005V156.588C68.2281 147.913 71.3661 139.531 77.0687 133.019C80.8619 140.419 82.0542 148.89 80.453 157.057C78.8501 165.225 74.5471 172.606 68.2425 178.005ZM73.5004 127.333C65.9701 135.19 61.7725 145.681 61.7909 156.589V182.463C61.055 182.862 60.3105 183.242 59.5329 183.592L52.1135 186.986V156.589C52.0876 143.1 57.3065 130.133 66.6584 120.456C69.229 122.438 71.5303 124.749 73.5004 127.333ZM61.1229 116.958C55.6737 122.873 51.5074 129.861 48.8877 137.48C46.2696 129.858 42.1021 122.866 36.6525 116.95C37.1752 116.68 37.6908 116.401 38.2293 116.158L48.8874 111.295L59.5326 116.158C60.0813 116.404 60.5997 116.68 61.1225 116.95L61.1229 116.958ZM74.6942 7.22552H84.1427C83.3593 12.624 80.6706 17.5596 76.5677 21.1314C72.4634 24.702 67.2188 26.6703 61.7909 26.6777H52.3424C53.1258 21.2793 55.8145 16.3436 59.9174 12.7718C64.0217 9.20123 69.2663 7.23293 74.6942 7.22552ZM16.6296 39.6458C23.768 39.6545 30.6547 42.3031 35.976 47.0851C41.2987 51.8685 44.6827 58.4526 45.4849 65.5821H35.9844C28.846 65.5734 21.9594 62.9248 16.6381 58.1428C11.3153 53.3594 7.93131 46.7753 7.1291 39.6458H16.6296Z" fill="url(#paint0_linear_8945_172662)" fill-opacity="0.5"/>
<defs>
<linearGradient id="paint0_linear_8945_172662" x1="50.5" y1="0.740234" x2="50.5" y2="195.261" gradientUnits="userSpaceOnUse">
<stop stop-color="#64AA4B"/>
<stop offset="0.770833" stop-color="#1B8073"/>
</linearGradient>
</defs>
</svg>
