<svg width="63" height="89" viewBox="0 0 63 89" fill="none" xmlns="http://www.w3.org/2000/svg">
<path id="Vector" d="M20.4105 45.1943C27.6312 42.5461 33.0287 42.3449 36.0191 44.6103C38.1968 46.2597 38.6866 48.9084 38.7858 50.3345C38.8111 50.9038 38.801 51.268 38.7971 51.3638C38.794 51.4396 38.7747 52.9148 38.7858 52.9871C38.7858 52.9871 38.9725 54.3634 33.1121 51.5797C31.6636 50.8916 30.2198 52.8097 30.1088 54.3801L27.6008 75.8893C27.3641 79.2675 28.5521 82.6259 30.8612 85.1027C33.204 87.6156 36.386 89 39.8217 89C43.2573 89 46.4399 87.6156 48.7827 85.1027C51.1256 82.5892 52.2837 79.3171 52.0431 75.8893L49.5346 54.3801C49.4247 52.8097 49.0446 49.5773 46.5318 51.5797C44.0189 53.5821 41.0369 53.2165 41.0369 53.2165C41.1004 53.6753 41.0983 51.5335 41.1004 51.5075C41.1083 51.414 41.1799 50.4501 40.9787 49.1305C40.9463 48.8339 40.9039 48.5096 40.8535 48.1694C40.854 48.1442 40.8649 48.1217 40.8637 48.0961C40.862 48.0651 40.7409 44.9531 42.8746 43.1915C44.4938 41.8551 47.0508 41.5992 50.4774 42.4306C57.8464 44.2197 60.7426 41.1848 61.6461 39.7971C63.1424 37.4984 62.9226 34.3581 61.1 31.9827C58.6337 28.7686 54.2011 27.8166 49.237 29.4371C44.1574 31.0961 41.3527 33.9834 39.8377 37.0132C39.0848 34.2111 37.6788 30.8999 35.0965 27.2737C33.8492 25.5224 33.0381 23.2546 32.5086 21.1188C35.4956 23.8983 36.6499 27.4209 42.9013 27.4209C44.1969 27.4209 47.7508 26.6082 50.4949 25.1255C50.7225 25.0026 51.6018 24.5134 51.5483 23.8781C51.4947 23.2429 50.952 22.7665 50.301 22.8246C42.6932 23.4672 37.0573 22.2711 34.0032 19.3704C33.1004 18.513 32.5371 17.6161 32.1738 16.8074C34.48 17.6368 37.7105 18.0146 40.272 18.1853L41.7604 20.8224C41.8619 21.0028 42.0518 21.1144 42.2586 21.1161H42.2631C42.4677 21.1161 42.6576 21.0073 42.7613 20.8309L44.2282 18.3264H44.2351C44.4226 18.3264 44.7901 18.3244 45.287 18.3138L46.7882 20.5265C46.8953 20.6849 47.0745 20.7796 47.2655 20.7796H47.2723C47.4662 20.7773 47.6454 20.6781 47.7508 20.5152L49.3072 18.1007C49.6818 18.0685 50.0637 18.0322 50.4512 17.9903L52.3869 19.9357C52.4962 20.0457 52.6439 20.106 52.796 20.106C52.8349 20.106 52.8744 20.102 52.9138 20.0941C53.1043 20.0541 53.2627 19.9205 53.3337 19.739L54.2524 17.3887C54.7044 17.2876 55.1411 17.1752 55.5576 17.0512L57.44 18.8016C57.5488 18.9025 57.6897 18.9561 57.8328 18.9561C57.9056 18.9561 57.9788 18.9425 58.0487 18.9143C58.2567 18.8304 58.397 18.6342 58.4088 18.4104L58.5666 15.5265C58.991 15.1063 59.2401 14.6252 59.2401 14.0695C59.2401 6.31154 52.9296 0 45.1729 0H43.2973C35.5611 0 29.2663 6.27899 29.2332 14.0089C29.2331 14.0116 29.2314 14.0138 29.2313 14.0165C29.2297 14.0489 29.2245 14.2421 29.2444 14.5451C29.243 14.5756 29.2286 14.6021 29.2296 14.6332C29.2414 14.9922 29.5604 23.4802 33.2164 28.613C36.3076 32.954 37.5703 36.8027 38.0436 39.7076C35.0846 34.3188 29.2769 28.8168 17.8772 27.4209C10.1808 26.4778 4.11773 28.6553 1.6571 33.2437C-0.0314116 36.3919 0.389589 40.1928 2.72905 42.9272C6.22161 47.0071 12.8257 47.856 20.4105 45.1943ZM47.2317 54.5413L49.7403 76.0505C49.9353 78.8329 48.9958 81.4884 47.0942 83.5278C45.1932 85.5677 42.6103 86.6912 39.8217 86.6912C37.0336 86.6912 34.4507 85.5677 32.5497 83.5283C30.6481 81.4884 29.7086 78.8329 29.9036 76.0505L30.5306 70.6734C39.89 75.8893 49.1132 70.6734 49.1132 70.6734L48.486 65.2962C40.1194 68.1263 39.2019 68.1263 31.1576 65.2962L32.4116 54.5418C32.4375 54.1754 32.7452 53.8885 33.1121 53.8885C33.1121 53.8885 36.914 55.969 39.8217 55.9691C42.7295 55.9692 46.5318 53.8885 46.5318 53.8885C46.8987 53.8885 47.2058 54.1754 47.2317 54.5413ZM42.2721 19.3811L41.6405 18.2619C42.1089 18.2831 42.5325 18.2974 42.9013 18.3069L42.2721 19.3811ZM47.2531 19.1562L46.6518 18.2699C47.0288 18.2538 47.4358 18.2333 47.8649 18.207L47.2531 19.1562ZM52.5808 18.4944L51.8992 17.8093C52.2377 17.7612 52.5755 17.7095 52.91 17.6519L52.5808 18.4944ZM57.3239 17.1173L56.7869 16.6181C56.9899 16.5338 57.1827 16.4451 57.3658 16.3524L57.3239 17.1173ZM43.2973 2.30884H45.1729C51.6153 2.30884 56.864 7.51726 56.9311 13.9455C56.283 14.6777 51.9529 16.0176 44.2351 16.0176C36.5173 16.0176 32.1873 14.6777 31.5392 13.9455C31.6062 7.51726 36.8549 2.30884 43.2973 2.30884ZM49.9539 31.6321C51.3048 31.1908 52.5977 30.9743 53.7885 30.9743C56.1133 30.9743 58.0493 31.7995 59.2683 33.3886C60.4964 34.9888 60.6745 37.0581 59.7118 38.5372C58.3683 40.6003 55.202 41.2029 51.0219 40.1871C46.992 39.2098 43.8436 39.5733 41.641 41.2448C42.2872 39.9946 43.187 38.7798 44.4437 37.9014C46.6242 36.3783 49.5013 36.1252 52.9922 37.1494C53.2993 37.2413 53.6189 37.0638 53.7085 36.7577C53.7981 36.4516 53.6228 36.1314 53.3168 36.0412C49.4681 34.9128 46.2595 35.2222 43.7775 36.9589C42.6838 37.7247 41.834 38.6962 41.1727 39.7279C42.2204 36.5986 44.647 33.365 49.9539 31.6321ZM3.69109 34.335C5.35706 31.2285 9.26217 29.5116 14.4196 29.5116C15.4329 29.5116 16.4941 29.5775 17.5965 29.7128C27.6196 30.9399 32.9045 35.4851 35.6959 40.0984C34.4111 38.6377 32.9243 37.4188 31.2354 36.4533C23.1665 31.8396 13.5099 34.5644 13.1019 34.6833C12.7964 34.7718 12.62 35.092 12.7091 35.3981C12.7976 35.7036 13.1166 35.8795 13.4237 35.7921C13.519 35.7645 23.0323 33.0876 30.6701 37.46C32.5254 38.5219 34.1088 39.9325 35.4461 41.6428C31.7281 40.0721 26.4216 40.5312 19.6311 43.0213C12.9931 45.3504 7.33188 44.7535 4.48294 41.4255C2.74088 39.3901 2.43711 36.6731 3.69109 34.335Z" fill="url(#paint0_linear_1583_5017)" fill-opacity="0.5"/>
<defs>
<linearGradient id="paint0_linear_1583_5017" x1="31.6325" y1="0" x2="31.6325" y2="89" gradientUnits="userSpaceOnUse">
<stop stop-color="#64AA4B"/>
<stop offset="0.770833" stop-color="#1B8073"/>
</linearGradient>
</defs>
</svg>
