<svg width="579" height="125" viewBox="0 0 579 125" fill="none" xmlns="http://www.w3.org/2000/svg">
<path d="M116.749 69.5988C116.529 64.3735 115.088 60.1561 112.422 56.9428C109.754 53.7361 106.025 52.1281 101.237 52.1281C95.7915 52.1281 91.6555 53.6535 88.8275 56.6988C85.9955 59.7468 84.3075 64.0468 83.7649 69.5988H116.749ZM83.6035 85.7628C84.0369 92.2948 86.3222 97.0308 90.4595 99.9695C94.5955 102.909 100.038 104.379 106.788 104.379C110.488 104.379 114.272 104.025 118.136 103.316C122.001 102.609 125.673 101.601 129.157 100.296C130.356 102.473 131.388 105.085 132.261 108.133C133.13 111.183 133.62 114.448 133.732 117.929C125.24 121.196 115.66 122.828 104.992 122.828C97.1542 122.828 90.4302 121.739 84.8262 119.561C79.2182 117.388 74.6475 114.365 71.1102 110.501C67.5729 106.637 64.9609 102.037 63.2729 96.7041C61.5849 91.3695 60.7422 85.5468 60.7422 79.2321C60.7422 73.0268 61.6115 67.2041 63.3555 61.7615C65.0955 56.3188 67.6822 51.5828 71.1102 47.5535C74.5409 43.5308 78.7849 40.3441 83.8475 38.0028C88.9075 35.6641 94.8129 34.4921 101.564 34.4921C107.442 34.4921 112.666 35.5281 117.238 37.5961C121.809 39.6641 125.7 42.4935 128.913 46.0841C132.124 49.6775 134.546 53.9508 136.178 58.9041C137.813 63.8588 138.629 69.1655 138.629 74.8241C138.629 76.8908 138.546 78.9321 138.385 80.9468C138.22 82.9615 138.029 84.5668 137.813 85.7628H83.6035Z" fill="#1F1B1C"/>
<path d="M248.978 82.1702C247.672 81.9528 246.256 81.7608 244.734 81.5982C243.208 81.4342 241.847 81.3542 240.651 81.3542C235.318 81.3542 231.1 82.3088 227.996 84.2115C224.895 86.1168 223.343 89.1915 223.343 93.4355C223.343 96.2688 223.94 98.4448 225.139 99.9675C226.335 101.494 227.778 102.608 229.466 103.314C231.154 104.024 232.95 104.457 234.855 104.622C236.758 104.784 238.419 104.866 239.835 104.866C241.467 104.866 243.099 104.73 244.734 104.457C246.366 104.189 247.779 103.941 248.978 103.724V82.1702ZM248.978 65.3502C248.978 62.7382 248.542 60.6168 247.672 58.9822C246.799 57.3515 245.603 56.0728 244.08 55.1448C242.554 54.2235 240.675 53.5955 238.446 53.2688C236.214 52.9422 233.736 52.7795 231.018 52.7795C225.139 52.7795 218.878 53.9222 212.239 56.2075C210.714 53.3782 209.571 50.7128 208.811 48.2062C208.048 45.7022 207.668 42.7102 207.668 39.2262C212.456 37.5942 217.246 36.3955 222.038 35.6328C226.827 34.8728 231.288 34.4902 235.427 34.4902C246.746 34.4902 255.592 37.2142 261.96 42.6542C268.327 48.0995 271.511 56.8062 271.511 68.7808V117.766C267.7 118.965 263.074 120.108 257.634 121.194C252.188 122.281 246.039 122.826 239.182 122.826C233.63 122.826 228.54 122.337 223.914 121.357C219.287 120.378 215.314 118.744 211.995 116.458C208.672 114.173 206.116 111.234 204.319 107.641C202.526 104.05 201.627 99.6408 201.627 94.4168C201.627 89.1915 202.74 84.8088 204.974 81.2715C207.203 77.7342 210.09 74.9048 213.628 72.7808C217.163 70.6568 221.11 69.1342 225.466 68.2102C229.819 67.2848 234.172 66.8195 238.528 66.8195C241.686 66.8195 245.167 66.9848 248.978 67.3115V65.3502Z" fill="#1F1B1C"/>
<path d="M197.206 34.5136L195.461 34.5282V34.5256L186.268 34.5962L183.129 34.6376C177.892 34.6936 172.894 35.0656 168.458 36.1082C168.433 36.1082 168.405 36.1349 168.38 36.1349C166.27 36.6216 164.289 37.2576 162.454 38.0616C154.92 41.3616 149.942 47.5829 149.621 58.8216V59.9709L149.68 86.2629V121.162C151.784 121.21 170.62 121.192 172.532 121.162V84.6936H172.521V61.6549C172.521 57.8602 174.953 54.0656 181.098 53.7456L187.206 53.7482L191.509 53.7496L196.078 53.7589L196.077 53.7509H197.206C197.325 52.1429 197.185 37.9109 197.206 34.5136Z" fill="#1F1B1C"/>
<path d="M55.1347 105.215C53.936 105.433 52.5493 105.683 50.9707 105.949C49.392 106.225 47.7867 106.358 46.1547 106.358C44.084 106.358 42.2907 106.141 40.7653 105.705C39.24 105.274 37.9613 104.455 36.9307 103.259C35.8933 102.058 35.104 100.426 34.5627 98.3592C34.0147 96.2912 33.7467 93.5698 33.7467 90.1938V57.0485H53.5027C53.468 55.2725 53.4907 41.2485 53.5027 39.4125H33.7467V39.3698V22.5832V21.8578C33.744 21.8552 33.7427 21.8498 33.7413 21.8472C33.7387 21.8458 33.7347 21.8458 33.732 21.8458C33.6333 21.8245 10.9573 21.8072 10.84 21.8298L10.828 22.5832H10.8307V39.2405L10.7573 39.3352L0 39.3338C0.0106667 41.1685 0 55.9858 0 57.0525L0.270671 57.0485H10.8853V95.2538C10.8853 105.705 13.4987 113.246 18.7227 117.871C23.948 122.5 31.5133 124.812 41.4187 124.812C46.752 124.812 51.924 124.211 56.9307 123.015C56.84 122.342 55.56 107.621 55.1347 105.215Z" fill="#1F1B1C"/>
<path d="M330.876 34.5136L329.131 34.5282V34.5256L319.938 34.5962L316.799 34.6376C311.562 34.6936 306.564 35.0656 302.128 36.1082C302.103 36.1082 302.075 36.1349 302.05 36.1349C299.94 36.6216 297.959 37.2576 296.124 38.0616C288.59 41.3616 283.612 47.5829 283.291 58.8216V59.9709L283.35 86.2629V121.162C285.454 121.21 304.29 121.192 306.202 121.162V84.6936H306.191V61.6549C306.191 57.8602 308.623 54.0656 314.768 53.7456L320.876 53.7482L325.179 53.7496L329.748 53.7589L329.747 53.7509H330.876C330.995 52.1429 330.855 37.9109 330.876 34.5136Z" fill="#1F1B1C"/>
<path d="M358.461 26.8994C350.822 26.8994 345.009 20.9207 345.009 13.4487C345.009 6.14341 350.822 -0.000582783 358.461 -0.000582783C365.933 -0.000582783 371.91 6.14341 371.91 13.4487C371.91 20.9207 365.933 26.8994 358.461 26.8994ZM347.004 121.191L346.67 54.7967H337.537L337.704 35.2007L369.254 35.0354V121.191H347.004Z" fill="#1F1B1C"/>
<path d="M453 118.811C442.636 121.747 429.508 124.166 415.863 124.166C394.443 124.166 379.762 112.938 379.762 92.902V35.0354H402.907V89.274C402.907 108.274 419.318 105.338 430.027 102.574V35.0354H453.346L453 118.811Z" fill="#1F1B1C"/>
<path d="M545.9 34.9328C534.963 34.9328 525.518 39.4075 520.712 45.0408C515.74 39.4075 507.786 34.7661 497.014 34.7661C477.626 34.7661 462.711 45.5381 462.711 64.5955L462.876 120.939L485.082 120.773V65.2581C485.082 56.9728 490.054 52.8301 497.179 52.8301C504.472 52.8301 509.442 57.6355 509.442 65.9221L509.775 120.939L531.815 120.773V65.9221C531.815 57.8021 536.952 52.6635 544.243 52.6635C551.37 52.6635 556.34 58.4648 556.34 66.7501V120.773L578.38 120.939L578.712 65.9221C578.878 47.0301 565.288 34.9328 545.9 34.9328Z" fill="#1F1B1C"/>
</svg>
