<svg width="200" height="200" viewBox="0 0 200 200" fill="none" xmlns="http://www.w3.org/2000/svg">
<path d="M161.955 120.888C160.756 129.898 156.035 138.908 148.664 146.277C141.292 153.646 132.28 158.365 123.28 159.564L93.6179 163.362L97.4298 133.696C98.6289 124.724 103.35 115.715 110.721 108.346C118.092 100.976 127.117 96.257 136.13 95.0583C140.484 94.4778 144.536 94.7807 148.096 95.9037L123.053 120.939L135.549 133.431L195 73.9979L137.973 17L125.476 29.4924L169.995 73.9979L160.263 83.7268C152.816 79.4365 143.779 77.7961 133.997 79.0958C121.5 80.7615 109.194 87.1086 99.3358 96.9637C89.4778 106.819 83.1287 119.122 81.4626 131.614L75 182L125.401 175.539C137.897 173.874 150.204 167.527 160.062 157.671C169.92 147.816 176.269 135.513 177.935 123.021C178.074 121.974 178.175 120.939 178.25 119.904H162.081C162.043 120.232 162.018 120.56 161.968 120.901L161.955 120.888Z" fill="#1B8073"/>
<path d="M74.5621 120.554L30.0105 76.2132L77 29.4335L64.4947 17L5 76.2132L62.0568 133L74.5621 120.554Z" fill="#1B8073"/>
</svg>
