<svg width="92" height="91" viewBox="0 0 92 91" fill="none" xmlns="http://www.w3.org/2000/svg">
<path d="M42.0981 51.59C42.2387 53.6994 43.2512 54.74 44.2215 55.2604C49.8043 62.3057 58.4809 62.3619 63.1918 61.7432C63.9371 61.6447 66.2153 61.8838 68.859 62.151C72.7122 62.5447 77.9575 63.0932 83.034 63.0932C85.0872 63.0932 87.1262 63.0088 89.0106 62.7838C90.6981 62.601 91.9637 61.1807 91.9637 59.4932C91.9637 57.6791 90.4872 56.2025 88.6731 56.2025C88.5606 56.2025 88.4059 56.2025 88.2653 56.2307C83.2028 56.7088 72.684 57.6791 62.9106 52.3916C62.6575 52.251 62.2778 51.9416 61.87 51.6182C60.3512 50.3947 57.8481 48.426 54.1356 48.7916C53.2496 47.9197 51.534 47.4838 48.9325 47.4838C49.2278 46.0354 50.0153 45.8666 51.2528 45.6135C52.0543 45.4588 52.7715 45.0791 53.3481 44.5447C58.509 45.1635 60.7871 43.1385 62.1653 41.901C62.4746 41.6338 62.7559 41.3807 62.9528 41.2682C72.1918 36.2619 82.1622 37.19 86.9293 37.626C87.0559 37.6541 87.1825 37.6541 87.3512 37.6541C89.095 37.6541 90.5293 36.2338 90.5293 34.476C90.5293 32.8447 89.3059 31.4947 87.6887 31.3119C81.4731 30.5666 73.7106 31.3682 68.5778 31.9025C66.0887 32.1557 63.9231 32.3807 63.22 32.2822C59.6059 31.8182 50.62 31.4947 45.0231 38.5963C44.7418 38.7791 44.4606 38.976 44.1653 39.1729C41.6199 38.1463 39.0887 37.4432 36.5996 37.0635V26.2494C36.7262 26.2494 36.8528 26.2635 36.9934 26.2635C38.7231 26.2635 41.5496 25.94 43.3918 24.0979C46.1621 21.3275 45.5012 16.3916 45.4731 16.1807C45.4028 15.7166 45.0371 15.351 44.5731 15.2807C44.3621 15.2525 39.4262 14.5916 36.6559 17.3619C36.6278 17.39 36.6137 17.4041 36.5996 17.4322V12.0041C36.7262 12.0041 36.8528 12.0182 36.9934 12.0182C38.7231 12.0182 41.5496 11.6947 43.3918 9.85254C46.1621 7.08223 45.5012 2.14629 45.4731 1.93535C45.4028 1.47129 45.0371 1.10566 44.5731 1.03535C44.3621 1.00723 39.4262 0.346289 36.6559 3.1166C36.6137 3.15879 36.5856 3.20098 36.5434 3.24316C36.2199 1.58379 34.7715 0.290039 33.0137 0.290039C31.059 0.290039 29.4559 1.8791 29.4559 3.84785V10.1338C29.4278 10.1057 29.4137 10.0916 29.3996 10.0635C26.6293 7.29316 21.6934 7.9541 21.4824 7.98223C21.0184 8.05254 20.6527 8.41816 20.5824 8.88223C20.5543 9.09316 19.8934 14.0291 22.6637 16.7994C24.5199 18.6557 27.3324 18.965 29.0621 18.965C29.2028 18.965 29.3293 18.965 29.4559 18.951V24.3791C29.4278 24.351 29.4137 24.3369 29.3996 24.3088C26.6293 21.5385 21.6934 22.1994 21.4824 22.2275C21.0184 22.2979 20.6527 22.6635 20.5824 23.1275C20.5543 23.3385 19.8934 28.2744 22.6637 31.0447C24.5199 32.901 27.3324 33.2104 29.0621 33.2104C29.2028 33.2104 29.3293 33.2104 29.4559 33.1963V36.8244C22.9168 37.3025 20.4137 42.126 20.3012 42.3369C20.1184 42.7025 20.0199 44.165 21.4543 43.8416C23.6902 43.3494 27.5153 42.815 29.4559 42.9697V45.6416C25.884 47.8916 23.7465 50.69 22.9168 51.9275C22.5793 52.4197 22.6074 53.0666 23.0012 53.5307C23.2684 53.8541 23.6481 54.0229 24.0418 54.0229C24.2246 54.0229 24.4074 53.9807 24.5762 53.9104C26.0949 53.2635 27.7684 52.7854 29.4559 52.4338V72.0229H17.6293V67.9447C17.7699 67.9447 17.9246 67.9588 18.0793 67.9588C19.8793 67.9588 22.8043 67.6213 24.7309 65.7088C27.6137 62.826 26.9246 57.6932 26.8965 57.4822C26.8262 57.0182 26.4606 56.6525 25.9965 56.5822C25.7856 56.5541 20.6527 55.865 17.7699 58.7479C17.7137 58.8041 17.6715 58.8604 17.6293 58.9025V37.3588C17.6293 35.3338 15.984 33.6885 13.959 33.6885C12.1027 33.6885 10.584 35.0666 10.3449 36.8525C10.2746 36.7822 10.2184 36.7119 10.1481 36.6416C7.26524 33.7588 2.13242 34.4479 1.92149 34.476C1.45742 34.5463 1.0918 34.9119 1.02148 35.376C0.99336 35.5869 0.304297 40.7197 3.18711 43.6025C5.11367 45.5291 8.03868 45.8525 9.83868 45.8525C10.0074 45.8525 10.1481 45.8525 10.2887 45.8385V51.6744C10.2465 51.6182 10.2043 51.5619 10.1481 51.5197C7.26524 48.6369 2.13242 49.326 1.92149 49.3541C1.45742 49.4244 1.0918 49.79 1.02148 50.2541C0.99336 50.4932 0.304297 55.6119 3.18711 58.4947C5.11367 60.4213 8.03868 60.7447 9.83868 60.7447C10.0074 60.7447 10.1481 60.7447 10.2887 60.7307V72.0369H1.0918C0.515235 72.0369 0.0371094 72.515 0.0371094 73.0916C0.0371094 73.6682 0.515235 74.1463 1.0918 74.1463H88.9825C89.559 74.1463 90.0372 73.6682 90.0372 73.0916C90.0372 72.515 89.559 72.0369 88.9825 72.0369H36.5574V51.6041C38.7653 51.5057 40.7059 51.5338 42.0981 51.59ZM19.2606 60.2525C20.8215 58.6916 23.5074 58.5791 24.8715 58.6213C24.9277 59.9854 24.8012 62.6713 23.2402 64.2322C22.1574 65.315 20.5262 65.6947 19.1762 65.8072L21.4965 63.4869C21.9043 63.0791 21.9043 62.4041 21.4965 61.9963C21.0887 61.5885 20.4137 61.5885 20.0059 61.9963L17.6856 64.3166C17.7981 62.9666 18.1777 61.3354 19.2606 60.2525ZM3.06055 36.515C4.42461 36.4588 7.11055 36.5854 8.67149 38.1463C9.7543 39.2291 10.134 40.8604 10.2465 42.2104L7.92618 39.89C7.51836 39.4822 6.84336 39.4822 6.43555 39.89C6.02774 40.2979 6.02774 40.9729 6.43555 41.3807L8.75586 43.701C7.40586 43.5885 5.77461 43.2088 4.6918 42.126C3.1168 40.565 3.0043 37.8791 3.06055 36.515ZM3.06055 51.4072C4.42461 51.365 7.11055 51.4775 8.67149 53.0385C9.7543 54.1213 10.134 55.7525 10.2465 57.1025L7.92618 54.7822C7.51836 54.3744 6.84336 54.3744 6.43555 54.7822C6.02774 55.19 6.02774 55.865 6.43555 56.2729L8.75586 58.5932C7.40586 58.4807 5.77461 58.101 4.6918 57.0182C3.1168 55.4572 3.0043 52.7572 3.06055 51.4072ZM12.3981 37.3588C12.3981 36.501 13.1012 35.7979 13.959 35.7979C14.8168 35.7979 15.5199 36.501 15.5199 37.3588V65.5541V65.5682V72.051H12.4121V37.3588H12.3981ZM31.5653 72.051V52.0963C32.4793 51.9557 33.4496 51.8432 34.4621 51.7588V72.051H31.5653ZM60.52 53.2635C61.0262 53.6713 61.4621 54.0229 61.884 54.2479C72.22 59.8447 83.1747 58.8182 88.4481 58.326C88.4903 58.326 88.6309 58.3119 88.659 58.3119C89.3059 58.3119 89.8403 58.8463 89.8403 59.4932C89.8403 60.0979 89.3762 60.6182 88.7575 60.6885C82.4434 61.4338 74.3997 60.6182 69.07 60.0557C65.9621 59.7322 63.909 59.5213 62.9106 59.6619C59.1137 60.1541 52.4621 60.1822 47.5684 55.7666C49.8746 55.4713 52.2653 54.1775 53.545 52.9119C54.3325 52.1244 54.67 51.4213 54.7825 50.8447C57.3981 50.7604 59.184 52.1947 60.52 53.2635ZM52.7153 50.3666C52.7434 50.4369 52.659 50.8307 52.0684 51.4213C50.4793 52.9963 47.0762 54.2619 45.3746 53.4885C45.1215 53.376 44.4324 53.0385 44.2637 51.7166C44.5449 51.7025 44.8121 51.6885 45.0653 51.6463C46.5418 51.3932 47.7231 50.6338 48.3418 49.6072C52.209 49.5088 52.7012 50.3666 52.7153 50.3666ZM62.9106 34.4057C63.8246 34.5182 65.5403 34.3635 68.7606 34.026C73.809 33.5057 81.4309 32.7182 87.4215 33.4354C87.97 33.4916 88.3919 33.9557 88.3919 34.5041C88.3919 35.0947 87.9137 35.5729 87.3231 35.5729C87.295 35.5729 87.1684 35.5588 87.1262 35.5447C82.134 35.0807 71.7418 34.1104 61.9262 39.4119C61.5184 39.6369 61.1528 39.9604 60.7309 40.326C59.5778 41.3525 58.045 42.7025 54.5575 42.5338C54.895 41.4088 54.7965 40.1994 54.234 39.1588C53.5168 37.8088 52.5465 36.7541 51.3653 36.051C55.7387 33.8572 60.5762 34.0963 62.9106 34.4057ZM46.2746 40.3119C46.3731 40.2416 46.4715 40.1572 46.5418 40.0588C47.3574 38.99 48.2715 38.1182 49.2278 37.401C50.5637 37.8229 51.6184 38.751 52.3637 40.1713C52.7153 40.8322 52.9543 43.1947 50.7465 43.5744C49.2559 43.8416 47.02 44.3479 46.6965 48.0041C46.6403 48.7213 45.7824 49.3822 44.6856 49.565C43.3778 49.776 41.6621 49.34 40.8184 47.4135C40.3684 46.401 40.8465 45.2619 41.6762 44.1791C41.6903 44.165 41.7043 44.1369 41.7184 44.1229C43.0824 42.4494 45.3184 40.9166 46.2746 40.3119ZM42.1684 40.7197C41.5496 41.24 40.959 41.8166 40.4387 42.4213C39.0606 42.4494 37.7668 42.59 36.5574 42.8432V39.2432C38.4137 39.5385 40.284 40.0307 42.1684 40.7197ZM43.4059 17.3338C43.4481 18.6416 43.3215 21.1588 41.859 22.6213C40.8606 23.6197 39.3699 23.9854 38.1184 24.1119L40.2559 21.9744C40.6637 21.5666 40.6637 20.8916 40.2559 20.4838C39.8481 20.076 39.1731 20.076 38.7653 20.4838L36.6278 22.6213C36.7543 21.3557 37.1199 19.865 38.1184 18.8807C39.5809 17.4182 42.1121 17.2916 43.4059 17.3338ZM43.4059 3.07441C43.4481 4.38223 43.3215 6.89941 41.859 8.36191C40.8606 9.36035 39.3699 9.72598 38.1043 9.85254L40.2418 7.71504C40.6496 7.30723 40.6496 6.63223 40.2418 6.22441C39.834 5.8166 39.159 5.8166 38.7512 6.22441L36.6137 8.36191C36.7403 7.09629 37.1059 5.60566 38.1043 4.62129C39.5809 3.15879 42.1121 3.03223 43.4059 3.07441ZM22.6074 10.0072C23.9153 9.96504 26.4324 10.0916 27.8949 11.5541C28.8934 12.5525 29.259 14.0432 29.3856 15.2947L27.2481 13.1572C26.8403 12.7494 26.1653 12.7494 25.7574 13.1572C25.3496 13.565 25.3496 14.24 25.7574 14.6479L27.8949 16.7854C26.6293 16.6588 25.1387 16.2932 24.1402 15.2947C22.6918 13.8322 22.5652 11.315 22.6074 10.0072ZM22.6074 24.2666C23.9153 24.2244 26.4324 24.351 27.8949 25.8135C28.8934 26.8119 29.259 28.3025 29.3856 29.5541L27.2481 27.4166C26.8403 27.0088 26.1653 27.0088 25.7574 27.4166C25.3496 27.8244 25.3496 28.4994 25.7574 28.9072L27.8949 31.0447C26.6293 30.9182 25.1387 30.5525 24.1402 29.5541C22.6918 28.0916 22.5652 25.5744 22.6074 24.2666ZM23.8449 41.2963C24.9981 40.2697 26.8121 39.1869 29.4559 38.9619V40.8885C27.8106 40.776 25.6027 41.0291 23.8449 41.2963ZM31.5653 3.84785C31.5653 3.04629 32.2121 2.39941 33.0137 2.39941C33.8153 2.39941 34.4621 3.04629 34.4621 3.84785V9.66973V9.68379V23.915V23.9291V43.3494C33.4215 43.6729 32.4653 44.0525 31.5653 44.4885V3.84785ZM30.8903 47.2025C30.9324 47.1885 30.9606 47.1604 31.0028 47.1463C33.1262 45.8947 35.784 44.8963 39.0043 44.601C38.4699 45.7822 38.3434 47.0338 38.9059 48.2994C39.1028 48.7354 39.3278 49.101 39.5809 49.4385C35.9246 49.4385 30.7918 49.7338 26.2215 51.1119C27.3324 49.8463 28.8793 48.4119 30.8903 47.2025Z" fill="url(#paint0_linear_80_5064)"/>
<path d="M43.9824 47.5112C44.559 47.5112 45.0371 47.0331 45.0371 46.4565C45.0371 45.88 44.559 45.4019 43.9824 45.4019C43.4059 45.4019 42.9277 45.88 42.9277 46.4565C42.9277 47.0331 43.4059 47.5112 43.9824 47.5112Z" fill="url(#paint1_linear_80_5064)"/>
<path d="M7.75039 77.0425C5.99258 77.0425 4.57227 78.4628 4.57227 80.2206C4.57227 81.9644 5.99258 83.3706 7.75039 83.3706C9.49414 83.3706 10.9004 81.9503 10.9004 80.2206C10.9004 78.4769 9.48008 77.0425 7.75039 77.0425ZM7.75039 81.2612C7.15977 81.2612 6.68164 80.7972 6.68164 80.2206C6.68164 79.63 7.1457 79.1519 7.75039 79.1519C8.32695 79.1519 8.79102 79.63 8.79102 80.2206C8.79102 80.7972 8.32695 81.2612 7.75039 81.2612Z" fill="url(#paint2_linear_80_5064)"/>
<path d="M4.36133 87.647C4.94382 87.647 5.41602 87.1748 5.41602 86.5923C5.41602 86.0098 4.94382 85.5376 4.36133 85.5376C3.77884 85.5376 3.30664 86.0098 3.30664 86.5923C3.30664 87.1748 3.77884 87.647 4.36133 87.647Z" fill="url(#paint3_linear_80_5064)"/>
<path d="M9.1875 87.1111C8.61094 87.1111 8.13281 87.5892 8.13281 88.1658C8.13281 88.7423 8.61094 89.2205 9.1875 89.2205C9.76406 89.2205 10.2563 88.7423 10.2563 88.1658C10.2563 87.5892 9.77813 87.1111 9.1875 87.1111Z" fill="url(#paint4_linear_80_5064)"/>
<path d="M12.2797 82.6526C11.7031 82.6526 11.2109 83.1307 11.2109 83.7073C11.2109 84.2838 11.6891 84.762 12.2797 84.762C12.8703 84.762 13.3344 84.2838 13.3344 83.7073C13.3344 83.1307 12.8563 82.6526 12.2797 82.6526Z" fill="url(#paint5_linear_80_5064)"/>
<path d="M15.7813 78.0972C15.7813 77.5206 15.3031 77.0425 14.7266 77.0425C14.15 77.0425 13.6719 77.5206 13.6719 78.0972C13.6719 78.6737 14.15 79.1659 14.7266 79.1659C15.3031 79.1659 15.7813 78.6737 15.7813 78.0972Z" fill="url(#paint6_linear_80_5064)"/>
<path d="M20.2656 80.2057C20.2656 79.6292 19.7875 79.137 19.2109 79.137C18.6344 79.137 18.1562 79.6151 18.1562 80.2057C18.1562 80.7963 18.6344 81.2604 19.2109 81.2604C19.7875 81.2604 20.2656 80.7963 20.2656 80.2057Z" fill="url(#paint7_linear_80_5064)"/>
<path d="M23.3139 78.6171C23.8904 78.6171 24.3686 78.139 24.3686 77.5624C24.3686 76.9858 23.8904 76.4937 23.3139 76.4937C22.7373 76.4937 22.2451 76.9718 22.2451 77.5624C22.2451 78.153 22.7373 78.6171 23.3139 78.6171Z" fill="url(#paint8_linear_80_5064)"/>
<path d="M23.3252 82.2896C22.7486 82.2896 22.2705 82.7677 22.2705 83.3583C22.2705 83.9489 22.7486 84.413 23.3252 84.413C23.9018 84.413 24.3799 83.9349 24.3799 83.3583C24.3799 82.7817 23.9018 82.2896 23.3252 82.2896Z" fill="url(#paint9_linear_80_5064)"/>
<path d="M27.0961 86.2407C26.5195 86.2407 26.0273 86.7188 26.0273 87.2954C26.0273 87.872 26.5055 88.3642 27.0961 88.3642C27.6867 88.3642 28.1508 87.886 28.1508 87.2954C28.1508 86.7048 27.6727 86.2407 27.0961 86.2407Z" fill="url(#paint10_linear_80_5064)"/>
<path d="M33.8969 85.7197C33.3203 85.7197 32.8281 86.1979 32.8281 86.7744C32.8281 87.351 33.3063 87.8291 33.8969 87.8291C34.4875 87.8291 34.9516 87.351 34.9516 86.7744C34.9516 86.1979 34.4734 85.7197 33.8969 85.7197Z" fill="url(#paint11_linear_80_5064)"/>
<path d="M36.3076 80.5432C35.7311 80.5432 35.2529 81.0213 35.2529 81.5979C35.2529 82.1745 35.7311 82.6526 36.3076 82.6526C36.8842 82.6526 37.3764 82.1745 37.3764 81.5979C37.3764 81.0213 36.8982 80.5432 36.3076 80.5432Z" fill="url(#paint12_linear_80_5064)"/>
<path d="M39.377 89.1235C39.9594 89.1235 40.4316 88.6513 40.4316 88.0688C40.4316 87.4864 39.9594 87.0142 39.377 87.0142C38.7945 87.0142 38.3223 87.4864 38.3223 88.0688C38.3223 88.6513 38.7945 89.1235 39.377 89.1235Z" fill="url(#paint13_linear_80_5064)"/>
<path d="M40.7227 84.762C41.3051 84.762 41.7773 84.2898 41.7773 83.7073C41.7773 83.1248 41.3051 82.6526 40.7227 82.6526C40.1402 82.6526 39.668 83.1248 39.668 83.7073C39.668 84.2898 40.1402 84.762 40.7227 84.762Z" fill="url(#paint14_linear_80_5064)"/>
<path d="M53.002 83.1619C53.5844 83.1619 54.0566 82.6897 54.0566 82.1072C54.0566 81.5247 53.5844 81.0525 53.002 81.0525C52.4195 81.0525 51.9473 81.5247 51.9473 82.1072C51.9473 82.6897 52.4195 83.1619 53.002 83.1619Z" fill="url(#paint15_linear_80_5064)"/>
<path d="M55.7875 86.9976C55.2109 86.9976 54.7188 87.4757 54.7188 88.0663C54.7188 88.6569 55.1969 89.121 55.7875 89.121C56.3781 89.121 56.8422 88.6429 56.8422 88.0663C56.8422 87.4897 56.3641 86.9976 55.7875 86.9976Z" fill="url(#paint16_linear_80_5064)"/>
<path d="M57.0957 78.4338C56.5191 78.4338 56.041 78.912 56.041 79.4885C56.041 80.0651 56.5191 80.5432 57.0957 80.5432C57.6723 80.5432 58.1645 80.0651 58.1645 79.4885C58.1645 78.912 57.6723 78.4338 57.0957 78.4338Z" fill="url(#paint17_linear_80_5064)"/>
<path d="M60.1332 84.7078C59.5566 84.7078 59.0645 85.1859 59.0645 85.7625C59.0645 86.339 59.5426 86.8312 60.1332 86.8312C60.7238 86.8312 61.1879 86.3531 61.1879 85.7625C61.1879 85.1718 60.7238 84.7078 60.1332 84.7078Z" fill="url(#paint18_linear_80_5064)"/>
<path d="M66.7129 86.9714C66.1363 86.9714 65.6582 87.4496 65.6582 88.0402C65.6582 88.6308 66.1363 89.0949 66.7129 89.0949C67.2895 89.0949 67.7676 88.6168 67.7676 88.0402C67.7676 87.4636 67.3035 86.9714 66.7129 86.9714Z" fill="url(#paint19_linear_80_5064)"/>
<path d="M71.7461 82.7676C71.1695 82.7676 70.6914 83.2457 70.6914 83.8223C70.6914 84.3988 71.1695 84.891 71.7461 84.891C72.3227 84.891 72.8008 84.4129 72.8008 83.8223C72.8008 83.2316 72.3227 82.7676 71.7461 82.7676Z" fill="url(#paint20_linear_80_5064)"/>
<path d="M76.9941 80.2065C77.5766 80.2065 78.0488 79.7343 78.0488 79.1519C78.0488 78.5694 77.5766 78.0972 76.9941 78.0972C76.4117 78.0972 75.9395 78.5694 75.9395 79.1519C75.9395 79.7343 76.4117 80.2065 76.9941 80.2065Z" fill="url(#paint21_linear_80_5064)"/>
<path d="M82.7598 78.9687C83.3363 78.9687 83.8285 78.4905 83.8285 77.8999C83.8285 77.3093 83.3504 76.8452 82.7598 76.8452C82.1691 76.8452 81.7051 77.3233 81.7051 77.8999C81.7051 78.4765 82.1691 78.9687 82.7598 78.9687Z" fill="url(#paint22_linear_80_5064)"/>
<path d="M87.4551 82.5706C88.0376 82.5706 88.5098 82.0984 88.5098 81.5159C88.5098 80.9334 88.0376 80.4612 87.4551 80.4612C86.8726 80.4612 86.4004 80.9334 86.4004 81.5159C86.4004 82.0984 86.8726 82.5706 87.4551 82.5706Z" fill="url(#paint23_linear_80_5064)"/>
<path d="M74.6781 86.1682C74.1016 86.1682 73.6094 86.6463 73.6094 87.2229C73.6094 87.7995 74.0875 88.2917 74.6781 88.2917C75.2688 88.2917 75.7328 87.8135 75.7328 87.2229C75.7328 86.6323 75.2688 86.1682 74.6781 86.1682Z" fill="url(#paint24_linear_80_5064)"/>
<path d="M71.9594 78.0963C71.9594 77.5198 71.4813 77.0276 70.9047 77.0276C70.3281 77.0276 69.8359 77.5057 69.8359 78.0963C69.8359 78.687 70.3141 79.151 70.9047 79.151C71.4953 79.151 71.9594 78.687 71.9594 78.0963Z" fill="url(#paint25_linear_80_5064)"/>
<path d="M17.8959 83.2588C15.9553 83.2588 14.3662 84.8479 14.3662 86.7885C14.3662 88.715 15.9553 90.29 17.8959 90.29C19.8225 90.29 21.3975 88.715 21.3975 86.7885C21.3975 84.8479 19.8225 83.2588 17.8959 83.2588ZM17.8959 88.1807C17.1084 88.1807 16.4756 87.5619 16.4756 86.7885C16.4756 85.9869 17.0943 85.3682 17.8959 85.3682C18.6693 85.3682 19.2881 86.001 19.2881 86.7885C19.2881 87.5619 18.6693 88.1807 17.8959 88.1807Z" fill="url(#paint26_linear_80_5064)"/>
<path d="M67.7676 80.5722C67.7676 78.6315 66.1926 77.0425 64.266 77.0425C62.3254 77.0425 60.7363 78.6315 60.7363 80.5722C60.7363 82.4987 62.3254 84.0737 64.266 84.0737C66.1926 84.0737 67.7676 82.5128 67.7676 80.5722ZM64.266 81.9644C63.4785 81.9644 62.8457 81.3456 62.8457 80.5722C62.8457 79.7706 63.4645 79.1519 64.266 79.1519C65.0395 79.1519 65.6582 79.7847 65.6582 80.5722C65.6582 81.3456 65.0395 81.9644 64.266 81.9644Z" fill="url(#paint27_linear_80_5064)"/>
<path d="M29.5063 78.4338C27.7484 78.4338 26.3281 79.8542 26.3281 81.612C26.3281 83.3557 27.7484 84.762 29.5063 84.762C31.25 84.762 32.6563 83.3417 32.6563 81.612C32.6563 79.8542 31.2359 78.4338 29.5063 78.4338ZM29.5063 82.6526C28.9156 82.6526 28.4375 82.1885 28.4375 81.612C28.4375 81.0213 28.9016 80.5432 29.5063 80.5432C30.0828 80.5432 30.5469 81.0213 30.5469 81.612C30.5469 82.1885 30.0828 82.6526 29.5063 82.6526Z" fill="url(#paint28_linear_80_5064)"/>
<path d="M81.8895 81.6555C80.0473 81.6555 78.5566 83.1461 78.5566 84.9883C78.5566 86.8165 80.0473 88.293 81.8895 88.293C83.7176 88.293 85.1941 86.8024 85.1941 84.9883C85.1941 83.1602 83.7176 81.6555 81.8895 81.6555ZM81.8895 86.1836C81.2145 86.1836 80.666 85.6493 80.666 84.9883C80.666 84.2993 81.2004 83.7649 81.8895 83.7649C82.5504 83.7649 83.0848 84.3133 83.0848 84.9883C83.0848 85.6493 82.5504 86.1836 81.8895 86.1836Z" fill="url(#paint29_linear_80_5064)"/>
<path d="M47.8383 83.2588C46.0805 83.2588 44.6602 84.6791 44.6602 86.4369C44.6602 88.1807 46.0805 89.5869 47.8383 89.5869C49.582 89.5869 50.9883 88.1666 50.9883 86.4369C50.9883 84.6791 49.568 83.2588 47.8383 83.2588ZM47.8383 87.4775C47.2477 87.4775 46.7695 87.0135 46.7695 86.4369C46.7695 85.8463 47.2336 85.3682 47.8383 85.3682C48.4148 85.3682 48.8789 85.8463 48.8789 86.4369C48.8789 87.0135 48.4148 87.4775 47.8383 87.4775Z" fill="url(#paint30_linear_80_5064)"/>
<path d="M41.4453 77.1426C40.8688 77.1426 40.3906 77.6207 40.3906 78.1973C40.3906 78.7738 40.8688 79.266 41.4453 79.266C42.0219 79.266 42.5 78.7879 42.5 78.1973C42.5 77.6066 42.0359 77.1426 41.4453 77.1426Z" fill="url(#paint31_linear_80_5064)"/>
<path d="M34.7363 78.1973C35.3129 78.1973 35.8051 77.7191 35.8051 77.1426C35.8051 76.566 35.327 76.0879 34.7363 76.0879C34.1457 76.0879 33.6816 76.566 33.6816 77.1426C33.6816 77.7191 34.1598 78.1973 34.7363 78.1973Z" fill="url(#paint32_linear_80_5064)"/>
<path d="M46.5195 81.612C47.0961 81.612 47.5742 81.1338 47.5742 80.5432C47.5742 79.9526 47.0961 79.4885 46.5195 79.4885C45.943 79.4885 45.4648 79.9667 45.4648 80.5432C45.4648 81.1198 45.9289 81.612 46.5195 81.612Z" fill="url(#paint33_linear_80_5064)"/>
<path d="M50.7383 76.3245C50.1617 76.3245 49.6836 76.8026 49.6836 77.3792C49.6836 77.9557 50.1617 78.4479 50.7383 78.4479C51.3148 78.4479 51.793 77.9698 51.793 77.3792C51.793 76.7885 51.3148 76.3245 50.7383 76.3245Z" fill="url(#paint34_linear_80_5064)"/>
<defs>
<linearGradient id="paint0_linear_80_5064" x1="46.0004" y1="0.290039" x2="46.0004" y2="74.1463" gradientUnits="userSpaceOnUse">
<stop stop-color="#B1D5A5"/>
<stop offset="1" stop-color="#8DBFB9"/>
</linearGradient>
<linearGradient id="paint1_linear_80_5064" x1="43.9824" y1="45.4019" x2="43.9824" y2="47.5112" gradientUnits="userSpaceOnUse">
<stop stop-color="#B1D5A5"/>
<stop offset="1" stop-color="#8DBFB9"/>
</linearGradient>
<linearGradient id="paint2_linear_80_5064" x1="7.73633" y1="77.0425" x2="7.73633" y2="83.3706" gradientUnits="userSpaceOnUse">
<stop stop-color="#B1D5A5"/>
<stop offset="1" stop-color="#8DBFB9"/>
</linearGradient>
<linearGradient id="paint3_linear_80_5064" x1="4.36133" y1="85.5376" x2="4.36133" y2="87.647" gradientUnits="userSpaceOnUse">
<stop stop-color="#B1D5A5"/>
<stop offset="1" stop-color="#8DBFB9"/>
</linearGradient>
<linearGradient id="paint4_linear_80_5064" x1="9.19453" y1="87.1111" x2="9.19453" y2="89.2205" gradientUnits="userSpaceOnUse">
<stop stop-color="#B1D5A5"/>
<stop offset="1" stop-color="#8DBFB9"/>
</linearGradient>
<linearGradient id="paint5_linear_80_5064" x1="12.2727" y1="82.6526" x2="12.2727" y2="84.762" gradientUnits="userSpaceOnUse">
<stop stop-color="#B1D5A5"/>
<stop offset="1" stop-color="#8DBFB9"/>
</linearGradient>
<linearGradient id="paint6_linear_80_5064" x1="14.7266" y1="77.0425" x2="14.7266" y2="79.1659" gradientUnits="userSpaceOnUse">
<stop stop-color="#B1D5A5"/>
<stop offset="1" stop-color="#8DBFB9"/>
</linearGradient>
<linearGradient id="paint7_linear_80_5064" x1="19.2109" y1="79.137" x2="19.2109" y2="81.2604" gradientUnits="userSpaceOnUse">
<stop stop-color="#B1D5A5"/>
<stop offset="1" stop-color="#8DBFB9"/>
</linearGradient>
<linearGradient id="paint8_linear_80_5064" x1="23.3068" y1="76.4937" x2="23.3068" y2="78.6171" gradientUnits="userSpaceOnUse">
<stop stop-color="#B1D5A5"/>
<stop offset="1" stop-color="#8DBFB9"/>
</linearGradient>
<linearGradient id="paint9_linear_80_5064" x1="23.3252" y1="82.2896" x2="23.3252" y2="84.413" gradientUnits="userSpaceOnUse">
<stop stop-color="#B1D5A5"/>
<stop offset="1" stop-color="#8DBFB9"/>
</linearGradient>
<linearGradient id="paint10_linear_80_5064" x1="27.0891" y1="86.2407" x2="27.0891" y2="88.3642" gradientUnits="userSpaceOnUse">
<stop stop-color="#B1D5A5"/>
<stop offset="1" stop-color="#8DBFB9"/>
</linearGradient>
<linearGradient id="paint11_linear_80_5064" x1="33.8898" y1="85.7197" x2="33.8898" y2="87.8291" gradientUnits="userSpaceOnUse">
<stop stop-color="#B1D5A5"/>
<stop offset="1" stop-color="#8DBFB9"/>
</linearGradient>
<linearGradient id="paint12_linear_80_5064" x1="36.3146" y1="80.5432" x2="36.3146" y2="82.6526" gradientUnits="userSpaceOnUse">
<stop stop-color="#B1D5A5"/>
<stop offset="1" stop-color="#8DBFB9"/>
</linearGradient>
<linearGradient id="paint13_linear_80_5064" x1="39.377" y1="87.0142" x2="39.377" y2="89.1235" gradientUnits="userSpaceOnUse">
<stop stop-color="#B1D5A5"/>
<stop offset="1" stop-color="#8DBFB9"/>
</linearGradient>
<linearGradient id="paint14_linear_80_5064" x1="40.7227" y1="82.6526" x2="40.7227" y2="84.762" gradientUnits="userSpaceOnUse">
<stop stop-color="#B1D5A5"/>
<stop offset="1" stop-color="#8DBFB9"/>
</linearGradient>
<linearGradient id="paint15_linear_80_5064" x1="53.002" y1="81.0525" x2="53.002" y2="83.1619" gradientUnits="userSpaceOnUse">
<stop stop-color="#B1D5A5"/>
<stop offset="1" stop-color="#8DBFB9"/>
</linearGradient>
<linearGradient id="paint16_linear_80_5064" x1="55.7805" y1="86.9976" x2="55.7805" y2="89.121" gradientUnits="userSpaceOnUse">
<stop stop-color="#B1D5A5"/>
<stop offset="1" stop-color="#8DBFB9"/>
</linearGradient>
<linearGradient id="paint17_linear_80_5064" x1="57.1027" y1="78.4338" x2="57.1027" y2="80.5432" gradientUnits="userSpaceOnUse">
<stop stop-color="#B1D5A5"/>
<stop offset="1" stop-color="#8DBFB9"/>
</linearGradient>
<linearGradient id="paint18_linear_80_5064" x1="60.1262" y1="84.7078" x2="60.1262" y2="86.8312" gradientUnits="userSpaceOnUse">
<stop stop-color="#B1D5A5"/>
<stop offset="1" stop-color="#8DBFB9"/>
</linearGradient>
<linearGradient id="paint19_linear_80_5064" x1="66.7129" y1="86.9714" x2="66.7129" y2="89.0949" gradientUnits="userSpaceOnUse">
<stop stop-color="#B1D5A5"/>
<stop offset="1" stop-color="#8DBFB9"/>
</linearGradient>
<linearGradient id="paint20_linear_80_5064" x1="71.7461" y1="82.7676" x2="71.7461" y2="84.891" gradientUnits="userSpaceOnUse">
<stop stop-color="#B1D5A5"/>
<stop offset="1" stop-color="#8DBFB9"/>
</linearGradient>
<linearGradient id="paint21_linear_80_5064" x1="76.9941" y1="78.0972" x2="76.9941" y2="80.2065" gradientUnits="userSpaceOnUse">
<stop stop-color="#B1D5A5"/>
<stop offset="1" stop-color="#8DBFB9"/>
</linearGradient>
<linearGradient id="paint22_linear_80_5064" x1="82.7668" y1="76.8452" x2="82.7668" y2="78.9687" gradientUnits="userSpaceOnUse">
<stop stop-color="#B1D5A5"/>
<stop offset="1" stop-color="#8DBFB9"/>
</linearGradient>
<linearGradient id="paint23_linear_80_5064" x1="87.4551" y1="80.4612" x2="87.4551" y2="82.5706" gradientUnits="userSpaceOnUse">
<stop stop-color="#B1D5A5"/>
<stop offset="1" stop-color="#8DBFB9"/>
</linearGradient>
<linearGradient id="paint24_linear_80_5064" x1="74.6711" y1="86.1682" x2="74.6711" y2="88.2917" gradientUnits="userSpaceOnUse">
<stop stop-color="#B1D5A5"/>
<stop offset="1" stop-color="#8DBFB9"/>
</linearGradient>
<linearGradient id="paint25_linear_80_5064" x1="70.8977" y1="77.0276" x2="70.8977" y2="79.151" gradientUnits="userSpaceOnUse">
<stop stop-color="#B1D5A5"/>
<stop offset="1" stop-color="#8DBFB9"/>
</linearGradient>
<linearGradient id="paint26_linear_80_5064" x1="17.8818" y1="83.2588" x2="17.8818" y2="90.29" gradientUnits="userSpaceOnUse">
<stop stop-color="#B1D5A5"/>
<stop offset="1" stop-color="#8DBFB9"/>
</linearGradient>
<linearGradient id="paint27_linear_80_5064" x1="64.252" y1="77.0425" x2="64.252" y2="84.0737" gradientUnits="userSpaceOnUse">
<stop stop-color="#B1D5A5"/>
<stop offset="1" stop-color="#8DBFB9"/>
</linearGradient>
<linearGradient id="paint28_linear_80_5064" x1="29.4922" y1="78.4338" x2="29.4922" y2="84.762" gradientUnits="userSpaceOnUse">
<stop stop-color="#B1D5A5"/>
<stop offset="1" stop-color="#8DBFB9"/>
</linearGradient>
<linearGradient id="paint29_linear_80_5064" x1="81.8754" y1="81.6555" x2="81.8754" y2="88.293" gradientUnits="userSpaceOnUse">
<stop stop-color="#B1D5A5"/>
<stop offset="1" stop-color="#8DBFB9"/>
</linearGradient>
<linearGradient id="paint30_linear_80_5064" x1="47.8242" y1="83.2588" x2="47.8242" y2="89.5869" gradientUnits="userSpaceOnUse">
<stop stop-color="#B1D5A5"/>
<stop offset="1" stop-color="#8DBFB9"/>
</linearGradient>
<linearGradient id="paint31_linear_80_5064" x1="41.4453" y1="77.1426" x2="41.4453" y2="79.266" gradientUnits="userSpaceOnUse">
<stop stop-color="#B1D5A5"/>
<stop offset="1" stop-color="#8DBFB9"/>
</linearGradient>
<linearGradient id="paint32_linear_80_5064" x1="34.7434" y1="76.0879" x2="34.7434" y2="78.1973" gradientUnits="userSpaceOnUse">
<stop stop-color="#B1D5A5"/>
<stop offset="1" stop-color="#8DBFB9"/>
</linearGradient>
<linearGradient id="paint33_linear_80_5064" x1="46.5195" y1="79.4885" x2="46.5195" y2="81.612" gradientUnits="userSpaceOnUse">
<stop stop-color="#B1D5A5"/>
<stop offset="1" stop-color="#8DBFB9"/>
</linearGradient>
<linearGradient id="paint34_linear_80_5064" x1="50.7383" y1="76.3245" x2="50.7383" y2="78.4479" gradientUnits="userSpaceOnUse">
<stop stop-color="#B1D5A5"/>
<stop offset="1" stop-color="#8DBFB9"/>
</linearGradient>
</defs>
</svg>
