<svg width="1035" height="330" viewBox="0 0 1035 330" fill="none" xmlns="http://www.w3.org/2000/svg">
<path d="M383.948 237.182C374.627 239.823 362.82 241.999 350.546 241.999C331.281 241.999 318.076 231.899 318.076 213.878C318.076 199.274 318.076 161.831 318.076 161.831H338.894V210.615C338.894 227.704 353.654 225.063 363.285 222.576V161.83H384.259L383.948 237.182Z" fill="black"/>
<path d="M443.922 239.98V191.196C443.922 174.107 429.162 176.748 419.685 179.235V240.136H398.867V164.631C408.188 161.99 419.995 159.814 432.114 159.814C451.534 159.814 464.739 169.914 464.739 187.935C464.739 202.539 464.739 240.137 464.739 240.137L443.922 239.98Z" fill="black"/>
<path d="M531.396 180.787C529.221 179.233 524.716 176.436 517.569 176.436C504.519 176.436 496.13 187.466 496.13 200.828C496.13 214.188 504.985 225.375 518.035 225.375C525.337 225.375 528.755 223.044 533.26 220.093C534.814 222.889 539.475 232.521 540.562 234.852C535.902 238.58 525.959 242.464 517.103 242.464C492.245 242.464 475.311 224.909 475.311 200.828C475.311 176.592 493.799 158.881 518.501 159.347C528.6 159.502 536.057 162.919 540.718 166.338C538.853 169.291 533.105 178.145 531.396 180.787Z" fill="black"/>
<path d="M594.942 240.135V190.108C594.942 174.573 580.959 177.058 570.705 178.923V240.135H549.887V123.875C549.887 123.875 565.889 123.875 570.705 123.875H570.55C570.55 131.953 570.55 162.298 570.55 162.298C574.589 161.677 579.405 160.278 584.688 160.278C604.108 160.278 615.76 167.891 615.76 185.913C615.76 200.517 615.76 240.134 615.76 240.134H594.942V240.135Z" fill="black"/>
<path d="M660.196 242.62C642.485 242.464 626.328 238.114 626.328 216.208C626.328 196.943 642.641 189.02 659.575 189.02H672.315C672.315 188.087 672.315 185.137 672.315 184.825C672.315 179.233 668.897 175.66 658.798 175.814C649.011 175.814 645.281 179.076 638.601 184.515C635.183 179.854 633.629 176.902 629.279 171.774C636.115 164.317 647.612 159.035 660.351 159.035C678.062 159.035 693.132 162.609 693.132 182.495V237.181C684.277 240.288 671.383 242.62 660.196 242.62ZM672.315 204.867H660.663C652.119 204.867 647.302 209.526 647.302 215.586C647.147 221.956 649.788 225.529 660.197 225.684C666.412 225.84 669.675 225.063 672.316 224.442C672.315 219.005 672.315 211.237 672.315 204.867Z" fill="black"/>
<path d="M790.97 242.464C777.453 241.222 764.248 234.697 764.248 218.694L764.092 124.367H785.066V161.677H808.215L808.526 179.855L785.066 179.544L784.911 216.987C784.911 220.561 787.241 224.133 793.145 224.289C800.603 224.599 800.758 223.666 805.885 221.025L811.788 236.562C811.788 236.562 804.175 243.708 790.97 242.464Z" fill="black"/>
<path d="M740.623 161.366L737.646 161.489C732.824 161.539 728.224 161.883 724.14 162.843C724.116 162.843 724.091 162.867 724.067 162.867C714.153 165.155 707.166 170.887 706.797 183.753V184.811L706.92 239.473V239.99H727.88V186.36C727.88 182.867 730.119 179.374 735.777 179.078H756.048V161.365L740.623 161.366Z" fill="black"/>
<path d="M854.672 242.31C829.192 242.31 814.123 223.666 814.123 200.674C814.123 172.553 834.32 158.57 853.895 159.192C878.753 160.125 891.026 180.322 888.851 205.334H835.563C836.34 216.055 845.972 224.91 857.158 224.91C868.965 224.91 873.471 221.491 878.132 216.054C878.132 216.054 886.833 226.308 888.852 228.327C882.792 235.63 870.985 242.31 854.672 242.31ZM853.895 175.816C840.845 175.505 836.805 182.031 836.65 189.021L868.654 189.177C868.033 181.719 863.062 175.971 853.895 175.816Z" fill="black"/>
<path d="M941.057 242.621C916.51 242.621 897.09 226.308 897.09 201.45C897.09 176.593 916.51 160.279 941.057 160.279C944.164 160.279 947.738 160.745 951.933 161.678V124.031C951.933 124.031 967.935 124.031 972.751 124.031C972.751 129.313 972.751 227.706 972.751 234.542C967.935 238.581 955.039 242.621 941.057 242.621ZM951.933 179.855C948.826 178.611 944.786 177.99 940.902 177.99C926.454 177.99 918.686 186.536 918.686 200.829C918.686 214.655 926.609 224.132 940.747 224.132C944.32 224.132 948.515 223.977 951.933 222.423V179.855Z" fill="black"/>
<path d="M159.28 166.535C165.192 166.535 169.984 161.743 169.984 155.831C169.984 149.919 165.192 145.127 159.28 145.127C153.369 145.127 148.576 149.919 148.576 155.831C148.576 161.743 153.369 166.535 159.28 166.535Z" fill="#E02429"/>
<path d="M246.251 116.357C252.163 116.357 256.955 111.565 256.955 105.653C256.955 99.7416 252.163 94.9492 246.251 94.9492C240.339 94.9492 235.547 99.7416 235.547 105.653C235.547 111.565 240.339 116.357 246.251 116.357Z" fill="#E02429"/>
<path d="M246.251 181.621C252.163 181.621 256.955 176.829 256.955 170.917C256.955 165.005 252.163 160.213 246.251 160.213C240.339 160.213 235.547 165.005 235.547 170.917C235.547 176.829 240.339 181.621 246.251 181.621Z" fill="#E02429"/>
<path d="M246.251 148.988C252.163 148.988 256.955 144.196 256.955 138.284C256.955 132.372 252.163 127.58 246.251 127.58C240.339 127.58 235.547 132.372 235.547 138.284C235.547 144.196 240.339 148.988 246.251 148.988Z" fill="#E02429"/>
<path d="M199.137 78.3733C202.094 73.2544 200.342 66.7076 195.223 63.7506C190.104 60.7935 183.557 62.5461 180.6 67.665C177.643 72.7839 179.396 79.3307 184.515 82.2877C189.634 85.2447 196.18 83.4922 199.137 78.3733Z" fill="#E02429"/>
<path d="M227.395 94.6956C230.352 89.5767 228.6 83.0298 223.481 80.0728C218.362 77.1158 211.815 78.8684 208.858 83.9873C205.901 89.1062 207.654 95.653 212.773 98.61C217.891 101.567 224.438 99.8145 227.395 94.6956Z" fill="#E02429"/>
<path d="M217.261 133.084C223.172 133.084 227.965 128.291 227.965 122.38C227.965 116.468 223.172 111.676 217.261 111.676C211.349 111.676 206.557 116.468 206.557 122.38C206.557 128.291 211.349 133.084 217.261 133.084Z" fill="#E02429"/>
<path d="M188.27 149.808C194.182 149.808 198.974 145.016 198.974 139.104C198.974 133.193 194.182 128.4 188.27 128.4C182.359 128.4 177.566 133.193 177.566 139.104C177.566 145.016 182.359 149.808 188.27 149.808Z" fill="#E02429"/>
<path d="M168.81 241.137V179.393C168.81 177.736 167.467 176.393 165.81 176.393C162.017 178.409 156.76 178.514 152.81 176.393C151.153 176.393 149.81 177.736 149.81 179.393V241.137L114.904 220.988C112.904 219.833 110.404 221.277 110.404 223.587L110.408 238.601C110.408 239.673 110.98 240.663 111.908 241.198L157.808 267.694C158.736 268.23 159.88 268.23 160.809 267.693L206.657 241.202C207.585 240.666 208.156 239.676 208.156 238.604V223.588C208.156 221.278 205.655 219.835 203.655 220.991L168.81 241.137Z" fill="#E02429"/>
<path d="M80.6289 121.37L134.101 152.242C135.536 153.07 137.371 152.579 138.199 151.144C138.35 146.851 140.887 142.245 144.699 139.886C145.527 138.451 145.036 136.616 143.601 135.788L90.1289 104.916L125.031 84.7607C127.031 83.6057 127.031 80.7187 125.03 79.5647L112.025 72.0617C111.097 71.5257 109.954 71.5267 109.026 72.0627L63.1289 98.5637C62.2009 99.0997 61.6289 100.091 61.6289 101.163L61.6469 154.114C61.6469 155.185 62.2189 156.175 63.1469 156.711L76.1509 164.219C78.1519 165.374 80.6519 163.929 80.6509 161.619L80.6289 121.37Z" fill="#E02429"/>
</svg>
