<svg width="101" height="32" viewBox="0 0 101 32" fill="none" xmlns="http://www.w3.org/2000/svg">
<path d="M37.4106 22.9983C36.5024 23.2544 35.352 23.4654 34.156 23.4654C32.2789 23.4654 30.9922 22.486 30.9922 20.7385C30.9922 19.3223 30.9922 15.6915 30.9922 15.6915H33.0207V20.4221C33.0207 22.0792 34.4588 21.8231 35.3973 21.5819V15.6914H37.4409L37.4106 22.9983Z" fill="white"/>
<path d="M43.2543 23.2698V18.5392C43.2543 16.8821 41.8161 17.1382 40.8927 17.3793V23.2849H38.8643V15.9632C39.7725 15.7071 40.9229 15.4961 42.1038 15.4961C43.996 15.4961 45.2827 16.4755 45.2827 18.223C45.2827 19.6391 45.2827 23.285 45.2827 23.285L43.2543 23.2698Z" fill="white"/>
<path d="M51.7773 17.5311C51.5654 17.3804 51.1264 17.1092 50.43 17.1092C49.1585 17.1092 48.3411 18.1787 48.3411 19.4744C48.3411 20.77 49.2039 21.8548 50.4755 21.8548C51.1869 21.8548 51.52 21.6287 51.9589 21.3426C52.1104 21.6137 52.5645 22.5477 52.6704 22.7737C52.2164 23.1352 51.2475 23.5119 50.3846 23.5119C47.9625 23.5119 46.3125 21.8096 46.3125 19.4744C46.3125 17.1243 48.1139 15.4069 50.5209 15.452C51.5049 15.4671 52.2315 15.7984 52.6856 16.13C52.5039 16.4163 51.9438 17.2749 51.7773 17.5311Z" fill="white"/>
<path d="M57.9692 23.2854V18.4343C57.9692 16.9279 56.6067 17.1689 55.6076 17.3497V23.2854H53.5791V12.0117C53.5791 12.0117 55.1383 12.0117 55.6076 12.0117H55.5925C55.5925 12.795 55.5925 15.7376 55.5925 15.7376C55.986 15.6774 56.4553 15.5417 56.97 15.5417C58.8623 15.5417 59.9976 16.2799 59.9976 18.0275C59.9976 19.4437 59.9976 23.2853 59.9976 23.2853H57.9692V23.2854Z" fill="white"/>
<path d="M64.3274 23.5271C62.6016 23.512 61.0273 23.0901 61.0273 20.9659C61.0273 19.0978 62.6168 18.3295 64.2669 18.3295H65.5082C65.5082 18.239 65.5082 17.953 65.5082 17.9227C65.5082 17.3805 65.1752 17.034 64.1912 17.0489C63.2375 17.0489 62.8741 17.3652 62.2232 17.8927C61.8902 17.4407 61.7387 17.1544 61.3149 16.6572C61.981 15.9341 63.1012 15.4219 64.3425 15.4219C66.0682 15.4219 67.5366 15.7684 67.5366 17.6968V22.9997C66.6738 23.301 65.4174 23.5271 64.3274 23.5271ZM65.5082 19.8662H64.3729C63.5404 19.8662 63.071 20.318 63.071 20.9056C63.0559 21.5233 63.3132 21.8698 64.3275 21.8848C64.933 21.8999 65.251 21.8246 65.5083 21.7644C65.5082 21.2371 65.5082 20.4839 65.5082 19.8662Z" fill="white"/>
<path d="M77.0701 23.5104C75.753 23.39 74.4664 22.7573 74.4664 21.2055L74.4512 12.0586H76.4948V15.6765H78.7504L78.7807 17.4392L76.4948 17.4091L76.4797 21.0399C76.4797 21.3865 76.7068 21.7329 77.282 21.748C78.0087 21.7781 78.0238 21.6876 78.5234 21.4315L79.0986 22.9381C79.0986 22.9381 78.3568 23.6311 77.0701 23.5104Z" fill="white"/>
<path d="M72.1641 15.6466L71.874 15.6585C71.4042 15.6634 70.956 15.6967 70.558 15.7898C70.5557 15.7898 70.5533 15.7921 70.5509 15.7921C69.5849 16.014 68.9041 16.5698 68.8682 17.8174V17.92L68.8801 23.2206V23.2707H70.9225V18.0702C70.9225 17.7315 71.1406 17.3928 71.6919 17.3641H73.6671V15.6465L72.1641 15.6466Z" fill="white"/>
<path d="M83.2772 23.4954C80.7945 23.4954 79.3262 21.6875 79.3262 19.458C79.3262 16.7311 81.2941 15.3752 83.2015 15.4355C85.6236 15.526 86.8195 17.4845 86.6075 19.9099H81.4152C81.491 20.9495 82.4295 21.8082 83.5194 21.8082C84.6699 21.8082 85.1089 21.4766 85.5631 20.9494C85.5631 20.9494 86.4109 21.9437 86.6076 22.1395C86.0172 22.8477 84.8667 23.4954 83.2772 23.4954ZM83.2015 17.0475C81.9299 17.0174 81.5363 17.6502 81.5212 18.328L84.6396 18.3432C84.5791 17.62 84.0947 17.0626 83.2015 17.0475Z" fill="white"/>
<path d="M91.6942 23.527C89.3024 23.527 87.4102 21.9451 87.4102 19.5346C87.4102 17.1243 89.3024 15.5423 91.6942 15.5423C91.997 15.5423 92.3452 15.5875 92.754 15.678V12.0273C92.754 12.0273 94.3132 12.0273 94.7824 12.0273C94.7824 12.5395 94.7824 22.0807 94.7824 22.7436C94.3132 23.1352 93.0566 23.527 91.6942 23.527ZM92.754 17.4406C92.4512 17.32 92.0576 17.2597 91.6791 17.2597C90.2713 17.2597 89.5144 18.0884 89.5144 19.4744C89.5144 20.8151 90.2864 21.7341 91.664 21.7341C92.0122 21.7341 92.4209 21.7191 92.754 21.5684V17.4406Z" fill="white"/>
<path d="M15.5195 16.1482C16.0956 16.1482 16.5625 15.6835 16.5625 15.1102C16.5625 14.537 16.0956 14.0723 15.5195 14.0723C14.9435 14.0723 14.4766 14.537 14.4766 15.1102C14.4766 15.6835 14.9435 16.1482 15.5195 16.1482Z" fill="white"/>
<path d="M23.9941 11.283C24.5702 11.283 25.0371 10.8182 25.0371 10.245C25.0371 9.67174 24.5702 9.20703 23.9941 9.20703C23.4181 9.20703 22.9512 9.67174 22.9512 10.245C22.9512 10.8182 23.4181 11.283 23.9941 11.283Z" fill="white"/>
<path d="M23.9941 17.6111C24.5702 17.6111 25.0371 17.1464 25.0371 16.5731C25.0371 15.9999 24.5702 15.5352 23.9941 15.5352C23.4181 15.5352 22.9512 15.9999 22.9512 16.5731C22.9512 17.1464 23.4181 17.6111 23.9941 17.6111Z" fill="white"/>
<path d="M23.9941 14.447C24.5702 14.447 25.0371 13.9823 25.0371 13.4091C25.0371 12.8358 24.5702 12.3711 23.9941 12.3711C23.4181 12.3711 22.9512 12.8358 22.9512 13.4091C22.9512 13.9823 23.4181 14.447 23.9941 14.447Z" fill="white"/>
<path d="M19.4031 7.59859C19.6912 7.10221 19.5205 6.46737 19.0217 6.18063C18.5229 5.89389 17.885 6.06383 17.5969 6.56021C17.3088 7.05659 17.4795 7.69143 17.9783 7.97817C18.4771 8.26491 19.115 8.09497 19.4031 7.59859Z" fill="white"/>
<path d="M22.157 9.18258C22.4452 8.6862 22.2744 8.05135 21.7756 7.76461C21.2768 7.47787 20.6389 7.64782 20.3508 8.1442C20.0627 8.64057 20.2334 9.27542 20.7322 9.56216C21.231 9.8489 21.8689 9.67895 22.157 9.18258Z" fill="white"/>
<path d="M21.169 12.9041C21.745 12.9041 22.2119 12.4393 22.2119 11.8661C22.2119 11.2928 21.745 10.8281 21.169 10.8281C20.5929 10.8281 20.126 11.2928 20.126 11.8661C20.126 12.4393 20.5929 12.9041 21.169 12.9041Z" fill="white"/>
<path d="M18.3447 14.5271C18.9208 14.5271 19.3877 14.0624 19.3877 13.4891C19.3877 12.9159 18.9208 12.4512 18.3447 12.4512C17.7687 12.4512 17.3018 12.9159 17.3018 13.4891C17.3018 14.0624 17.7687 14.5271 18.3447 14.5271Z" fill="white"/>
<path d="M16.4488 23.3817V17.3944C16.4488 17.2337 16.3179 17.1035 16.1565 17.1035C15.7869 17.299 15.2747 17.3092 14.8898 17.1035C14.7283 17.1035 14.5975 17.2337 14.5975 17.3944V23.3817L11.1963 21.4279C11.0014 21.3159 10.7578 21.4559 10.7578 21.6799L10.7582 23.1358C10.7582 23.2398 10.8139 23.3358 10.9044 23.3876L15.3768 25.9569C15.4672 26.0089 15.5787 26.0089 15.6692 25.9568L20.1365 23.388C20.2269 23.336 20.2826 23.24 20.2826 23.1361V21.68C20.2826 21.456 20.0389 21.3161 19.844 21.4282L16.4488 23.3817Z" fill="white"/>
<path d="M7.85621 11.7676L13.0664 14.7612C13.2062 14.8415 13.385 14.7939 13.4657 14.6548C13.4804 14.2385 13.7276 13.7918 14.0991 13.5631C14.1797 13.4239 14.1319 13.246 13.9921 13.1657L8.78187 10.172L12.1827 8.21762C12.3775 8.10562 12.3775 7.82567 12.1826 7.71376L10.9154 6.9862C10.825 6.93422 10.7136 6.93432 10.6232 6.9863L6.15104 9.55609C6.06062 9.60807 6.00488 9.70416 6.00488 9.80811L6.00664 14.9428C6.00664 15.0466 6.06237 15.1426 6.15279 15.1946L7.41988 15.9226C7.61485 16.0346 7.85845 15.8945 7.85835 15.6705L7.85621 11.7676Z" fill="white"/>
</svg>
