<svg xmlns="http://www.w3.org/2000/svg" viewBox="0 0 138 138" class="terarium-logo">
    <title>TERArium</title>
    <defs>
        <style type="text/css">
            <![CDATA[
				@keyframes rotate {
					0% {
						transform: rotate(0deg)
					}
					100% {
						transform: rotate(360deg)
					}
				}

				.logo {
					animation-name: rotate;
					animation-duration: 300s;
					animation-timing-function: ease;
					animation-iteration-count: infinite;
					transform-origin: center center;
				}

				.dot {
					stroke: #144214;
					fill: #144214;
				}

				.shape {
					stroke: #2D8E2Dff
				}
		]]>
        </style>
    </defs>
    <g id="Page-1" class="logo" stroke="none" stroke-width="0.5" fill="none" fill-rule="evenodd">
        <g id="Artboard" stroke="#000000" fill-rule="nonzero">
            <g id="terarium-outline" transform="translate(17.000000, 12.000000)">
                <path d="M52.2980769,60.5 C53.3076923,60.5 54.2163462,60.3 55.125,59.8 L55.3269231,59.7 C58.0528846,58.2 58.8605769,54.8 57.3461538,52.2 C56.3365385,50.5 54.4182692,49.4 52.5,49.4 C51.4903846,49.4 50.5817308,49.6 49.6730769,50.1 L49.4711538,50.2 C46.7451923,51.7 45.9375,55.1 47.4519231,57.7 C48.4615385,59.4 50.2788462,60.5 52.2980769,60.5 Z" id="arrow-arm-dot-one" class="dot"></path>

                <path d="M67.4423077,51.7 C68.4519231,51.7 69.3605769,51.5 70.2692308,51 L70.7740385,50.7 C73.5,49.2 74.3076923,45.8 72.7932692,43.2 C71.7836538,41.5 69.8653846,40.4 67.9471154,40.4 C66.9375,40.4 66.0288462,40.6 65.1201923,41.1 L64.6153846,41.4 C61.8894231,42.9 61.0817308,46.3 62.5961538,48.9 C63.6057692,50.7 65.5240385,51.7 67.4423077,51.7 Z" id="arrow-arm-dot-two" class="dot"></path>

                <path d="M83.3942308,31.4 C82.3846154,31.4 81.4759615,31.6 80.5673077,32.1 L80.0625,32.4 C78.75,33.1 77.8413462,34.3 77.5384615,35.8 C77.1346154,37.2 77.3365385,38.7 78.0432692,40 C79.0528846,41.7 80.9711538,42.8 82.8894231,42.8 C83.8990385,42.8 84.8076923,42.6 85.7163462,42.1 L86.2211538,41.8 C88.9471154,40.3 89.7548077,36.9 88.2403846,34.3 C87.3317308,32.5 85.5144231,31.4 83.3942308,31.4 Z" id="arrow-arm-dot-three" class="dot"></path>

                <path d="M98.4375,33.8 C99.4471154,33.8 100.355769,33.6 101.264423,33.1 L101.466346,33 C104.192308,31.5 105,28.1 103.485577,25.5 C102.475962,23.8 100.557692,22.7 98.6394231,22.7 C97.6298077,22.7 96.7211538,22.9 95.8125,23.4 L95.6105769,23.5 C94.2980769,24.2 93.3894231,25.4 93.0865385,26.9 C92.7836538,28.4 92.8846154,29.8 93.5913462,31.1 C94.6009615,32.8 96.5192308,33.8 98.4375,33.8 Z" id="arrow-tip-centre-dot" class="dot"></path>

                <path d="M80.1634615,24 L80.5673077,24.2 C81.375,24.7 82.3846154,24.9 83.3942308,24.9 C85.4134615,24.9 87.2307692,23.8 88.2403846,22.1 C88.9471154,20.8 89.25,19.3 88.7451923,17.9 C88.3413462,16.5 87.4326923,15.4 86.2211538,14.6 L85.8173077,14.4 C85.0096154,13.9 84,13.7 82.9903846,13.7 C80.9711538,13.7 79.1538462,14.8 78.1442308,16.5 C77.4375,17.8 77.1346154,19.3 77.6394231,20.7 C77.9423077,22.2 78.8509615,23.2 80.1634615,24 Z" id="arrow-tip-left-dot-inner" class="dot"></path>

                <path d="M98.6394231,40.2 C95.5096154,40.2 93.0865385,42.6 93.0865385,45.7 L93.0865385,46.1 C93.0865385,49.2 95.5096154,51.6 98.6394231,51.6 C101.769231,51.6 104.192308,49.2 104.192308,46.1 L104.192308,45.7 C104.192308,42.8 101.769231,40.2 98.6394231,40.2 Z" id="arrow-tip-right-dot-inner" class="dot"></path>

                <path d="M64.8173077,15.2 L65.0192308,15.3 C65.8269231,15.8 66.8365385,16 67.8461538,16 C69.8653846,16 71.6826923,14.9 72.6923077,13.2 C74.2067308,10.5 73.2980769,7.1 70.6730769,5.7 L70.4711538,5.6 C69.6634615,5.1 68.6538462,4.9 67.6442308,4.9 C65.625,4.9 63.8076923,6 62.7980769,7.7 C62.0913462,9 61.7884615,10.5 62.2932692,11.9 C62.4951923,13.2 63.5048077,14.4 64.8173077,15.2 Z" id="arrow-tip-left-dot-outer" class="dot"></path>

                <path d="M98.6394231,58 C95.5096154,58 93.0865385,60.4 93.0865385,63.5 L93.0865385,63.7 C93.0865385,66.8 95.5096154,69.2 98.6394231,69.2 C101.769231,69.2 104.192308,66.8 104.192308,63.7 L104.192308,63.5 C104.192308,60.5 101.769231,58 98.6394231,58 Z" id="arrow-tip-right-dot-outer" class="dot"></path>

                <path d="M16.0528846,28.2 L34.2259615,17.7 C34.9326923,17.3 49.42021,8.45921665 49.42021,8.45921665 L43.8479712,0.867200136 L2.01923077,24.6 C1.3125,25 0.807692308,25.8 0.807692308,26.6 C0.807692308,26.6 0.807692308,81.9838701 0.807692308,84.6010009 C0.807692308,84.7408559 0.992871532,85.1067223 1.49131788,85.3748943 C7.62756948,88.6762944 41.2493713,107.425549 50.6136368,112.545994 C51.7372689,113.160403 52.5736094,113.222326 52.8584433,113.095903 C53.4356504,112.839711 94.6852561,87.2534829 99.4339048,84.3293545 C99.1939756,84.0312692 93.5677197,76.8680615 93.5677197,76.8680615 L52.5255589,101.921146 L11.0048077,78.3675432 L11.0048077,36.9 L11.0048077,31.2122575 L16.0528846,28.2 Z" id="outer-cap" class="shape"></path>
            </g>
        </g>
    </g>
</svg>
