<svg xmlns="http://www.w3.org/2000/svg" viewBox="0 0 104 114" class="terrarium-logo">
	<title>terrarium-outline</title>
	<defs>
		<style type="text/css">
			<![CDATA[
				@keyframes rotate {
					0% {
						transform: rotate(0deg)
					}
					100% {
						transform: rotate(360deg)
					}
				}

				.logo {
					animation-name: rotate;
					animation-duration: 130s;
					animation-timing-function: ease;
					animation-iteration-count: infinite;
					transform-origin: center center;
				}

				.dot {
					stroke: #144214;
					fill: #144214;
				}

				.shape {
					stroke: #2D8E2Dff
				}

				#arrow-arm-dot-one {animation-delay: 1s;}
				#arrow-arm-dot-two {animation-delay: 2s;}
				#arrow-arm-dot-three {animation-delay: 3s;}
				#arrow-tip-centre-dot {animation-delay: 4s;}
				#arrow-tip-left-dot-inner {animation-delay: 5s;}
				#arrow-tip-right-dot-inner {animation-delay: 5s;}
				#arrow-tip-left-dot-outer {animation-delay: 6s;}
				#arrow-tip-right-dot-outer {animation-delay: 6s;}
				#outer-cap {animation-delay: 1s;}
		]]>
		</style>
	</defs>
	<g id="Page-1" stroke="none" stroke-width="0.5" fill="none" fill-rule="evenodd">
		<g id="terrarium-outline" class="logo" stroke="#000000">
			<path d="M51.8,60.5 C52.8,60.5 53.7,60.3 54.6,59.8 L54.8,59.7 C57.5,58.2 58.3,54.8 56.8,52.2 C55.8,50.5 53.9,49.4 52,49.4 C51,49.4 50.1,49.6 49.2,50.1 L49,50.2 C46.3,51.7 45.5,55.1 47,57.7 C48,59.4 49.8,60.5 51.8,60.5 Z" id="arrow-arm-dot-one" class="dot"></path>

			<path d="M66.8,51.7 C67.8,51.7 68.7,51.5 69.6,51 L70.1,50.7 C72.8,49.2 73.6,45.8 72.1,43.2 C71.1,41.5 69.2,40.4 67.3,40.4 C66.3,40.4 65.4,40.6 64.5,41.1 L64,41.4 C61.3,42.9 60.5,46.3 62,48.9 C63,50.7 64.9,51.7 66.8,51.7 Z" id="arrow-arm-dot-two" class="dot"></path>

			<path d="M82.6,31.4 C81.6,31.4 80.7,31.6 79.8,32.1 L79.3,32.4 C78,33.1 77.1,34.3 76.8,35.8 C76.4,37.2 76.6,38.7 77.3,40 C78.3,41.7 80.2,42.8 82.1,42.8 C83.1,42.8 84,42.6 84.9,42.1 L85.4,41.8 C88.1,40.3 88.9,36.9 87.4,34.3 C86.5,32.5 84.7,31.4 82.6,31.4 Z" id="arrow-arm-dot-three" class="dot"></path>

			<path d="M97.5,33.8 C98.5,33.8 99.4,33.6 100.3,33.1 L100.5,33 C103.2,31.5 104,28.1 102.5,25.5 C101.5,23.8 99.6,22.7 97.7,22.7 C96.7,22.7 95.8,22.9 94.9,23.4 L94.7,23.5 C93.4,24.2 92.5,25.4 92.2,26.9 C91.9,28.4 92,29.8 92.7,31.1 C93.7,32.8 95.6,33.8 97.5,33.8 Z" id="arrow-tip-centre-dot" class="dot"></path>

			<path d="M79.4,24 L79.8,24.2 C80.6,24.7 81.6,24.9 82.6,24.9 C84.6,24.9 86.4,23.8 87.4,22.1 C88.1,20.8 88.4,19.3 87.9,17.9 C87.5,16.5 86.6,15.4 85.4,14.6 L85,14.4 C84.2,13.9 83.2,13.7 82.2,13.7 C80.2,13.7 78.4,14.8 77.4,16.5 C76.7,17.8 76.4,19.3 76.9,20.7 C77.2,22.2 78.1,23.2 79.4,24 Z" id="arrow-tip-left-dot-inner" class="dot"></path>

			<path d="M97.7,40.2 C94.6,40.2 92.2,42.6 92.2,45.7 L92.2,46.1 C92.2,49.2 94.6,51.6 97.7,51.6 C100.8,51.6 103.2,49.2 103.2,46.1 L103.2,45.7 C103.2,42.8 100.8,40.2 97.7,40.2 Z" id="arrow-tip-right-dot-inner" class="dot"></path>

			<path d="M64.2,15.2 L64.4,15.3 C65.2,15.8 66.2,16 67.2,16 C69.2,16 71,14.9 72,13.2 C73.5,10.5 72.6,7.1 70,5.7 L69.8,5.6 C69,5.1 68,4.9 67,4.9 C65,4.9 63.2,6 62.2,7.7 C61.5,9 61.2,10.5 61.7,11.9 C61.9,13.2 62.9,14.4 64.2,15.2 Z" id="arrow-tip-left-dot-outer" class="dot"></path>

			<path d="M97.7,58 C94.6,58 92.2,60.4 92.2,63.5 L92.2,63.7 C92.2,66.8 94.6,69.2 97.7,69.2 C100.8,69.2 103.2,66.8 103.2,63.7 L103.2,63.5 C103.2,60.5 100.8,58 97.7,58 Z" id="arrow-tip-right-dot-outer" class="dot"></path>

			<path d="M15.9,28.2 L33.9,17.7 C34.6,17.3 48.5682776,8.74296134 48.9495414,8.45921665 C49.3807131,8.13820795 43.92829,0.548726304 43.4303715,0.867200136 L2,24.6 C1.3,25 0.8,25.8 0.8,26.6 C0.8,26.6 0.8,81.9838701 0.8,84.6010009 C0.8,84.7408559 0.983415612,85.1067223 1.47711485,85.3748943 C7.55492597,88.6762944 40.8565202,107.425549 50.1316022,112.545994 C51.244533,113.160403 52.0729083,113.222326 52.3550295,113.095903 C52.9267394,112.839711 93.7834918,87.2534829 98.4869152,84.3293545 C98.833299,84.1050011 97.3585773,82.2256516 95.8702072,80.3502092 C94.4115093,78.5121557 92.9447319,76.6730406 92.6765985,76.8680615 C86.4969599,80.8876204 52.0253155,101.921146 52.0253155,101.921146 L10.9,78.3675432 L10.9,36.9 L10.9,31.2122575 L15.9,28.2 Z" id="outer-cap" class="shape"></path>
		</g>
	</g>
</svg>
